<svg xmlns="http://www.w3.org/2000/svg" viewBox="0 0 454.04 327.31" xmlns:v="https://vecta.io/nano"><style><![CDATA[.S{stroke-width:.72}.T{stroke-linejoin:round}.U{stroke:#2a1e17}.V{fill:none}.W{stroke-linecap:round}.X{fill:#2a1e17}.Y{fill:#fff}.Z{fill:#ff3d43}.a{fill:#9ec978}.b{fill:#f8f7f5}.c{fill:#7ca3ff}.d{fill:#ffe079}.e{fill:#fac9c3}]]></style><path d="M87.67,112.23s-39.11,24-15.32,25.25c17.13.9,52.29-11.72,74.83-8.12s-61.31,86.56-18,86.56,99.44-78.55,109.09-54.1c0,0-29.43,107,4.9,89.45S378.23,89.63,420.88,109.38c36.76,17-30.12,172.65,32.8,99.17" class="S T U V W"/><rect x="170.57" width="28.19" height="19.34" rx="1.47" fill="#f8f8f7"/><path d="M175 17.22h10.87a.41.41 0 0 0 .28-.7l-5-4.81a1.06 1.06 0 0 0-1.49 0l-5 4.81a.4.4 0 0 0 .34.7zm10.13-3.07L188 17h8.35v-5.14a.38.38 0 0 0-.12-.28l-4.12-4.12a1.08 1.08 0 0 0-1.55 0l-5.47 6.12a.4.4 0 0 0 .04.57z" class="a"/><g class="d"><circle cx="179.36" cy="6.2" r="2.13"/><rect x="55.39" y="247.5" width="39.1" height="15.92" rx="2.08"/></g><path d="M78.83 257.2h10.64m-10.64-3.14h10.64" class="S T U V W"/><rect x="61.2" y="253.48" width="14.58" height="4.25" rx="1.55" class="b"/><rect x="312.36" y="276.2" width="34.64" height="23.77" rx="1.81" fill="#f8f8f7"/><path d="M317.8 297.36h13.36a.5.5 0 0 0 .35-.86l-6.11-5.92a1.34 1.34 0 0 0-1.84 0l-6.11 5.92a.5.5 0 0 0 .35.86zm12.45-3.77l3.54 3.54h10.26v-6.35a.5.5 0 0 0-.14-.35l-5.06-5.06a1.31 1.31 0 0 0-1.91 0l-6.73 7.51a.5.5 0 0 0 .04.71z" class="a"/><g class="d"><circle cx="323.15" cy="283.81" r="2.61"/><path d="M295.54 185.51l-2.05 16.9-13.13 108.27s-9.42 15.41-12 16.27S255 311.54 255 311.54s.9-21 5.48-68.33c1.42-14.66 4.36-32.65 5.87-42.34l3.22-18.78z"/></g><path d="M280.36,310.68s-9.42,15.41-12,16.27S255,311.54,255,311.54l4.61,2.4a2.94,2.94,0,0,0,2.36.16l5.53-2,5.19,1.73a2.93,2.93,0,0,0,2.32-.21Z" class="Y"/><path d="M295.54 185.51l-2.05 16.9a61.81 61.81 0 0 1-14.61.76 58.42 58.42 0 0 1-12.52-2.3l3.22-18.78s4.78 1 13.47 2l12.49 1.42z" fill="#ddd6cf"/><path d="M287.13 167.14c5.35.74 8.29 1.68 9 3.48s-.6 14.89-.6 14.89-23-.3-26-3.42.08-11.39 1.81-13c2.34-2.19 4.66-3.52 15.79-1.95z" class="Z"/><path d="M255,311.54s5.41,8.74,9.69,13.06c1.43,1.44,2.73,2.38,3.67,2.35s2.15-1.07,3.45-2.6c3.9-4.6,8.54-13.67,8.54-13.67" class="S T U V W"/><path d="M271.82 324.35c-1.3 1.53-2.51 2.56-3.45 2.6s-2.24-.91-3.67-2.35a4 4 0 0 1 3.55-1.11 8.59 8.59 0 0 1 3.57.86z" class="X"/><path d="M272.7 313.79l11.9-96m-22.27 84.19l9.32-95.57m-9.67 107.69l5.53-2.04 5.7 2.09M271 201.68s7.4 2.8 22.48.73m-12.03-9.17s10.14.75 15.25-.14m-25.02-9.42s7.33 2.45 20.22 1.78" class="S T U V W"/><path d="M266.72 234.85L303 215.44a2 2 0 0 1 2.87 1.31l5.82 26.44 22.65 9.54a2 2 0 0 1 .37 3.44l-33.81 23.76a2 2 0 0 1-1.94.19l-26.12-11.6-7.12-31.52a2 2 0 0 1 1-2.15z" class="S T U b"/><path d="M276.9 265.63l32.98-20.7m-26.78 24.06l31.76-20.79m-25.53 23.81l32.24-21.92" class="V W S T U"/><path d="M269.33 237.44l5.52 23.95 33.31-19.77-5.12-21.91-33.71 17.73z" class="a"/><path d="M310.33 269.71l-6.77-3.93 12.27-8.31 6.58 3.75z" class="X"/><g class="b"><path d="M178.22 180.12s-25.85 48.65-26.15 58.08 34.66 61.34 37.09 64.08l13.84-5-1.41-34.43-8-21.31 8-14.29-.59-20.37z"/><path d="M196.56 200.47l4.26 5.78s.61 86.36 2.74 98.83l27.3-1.67 11.58-119.67s-28.54 8.21-64.43-4.26z"/></g><path d="M186.49,182.83s20.57,10.5,34.57,10.06A32.36,32.36,0,0,0,243,183.7Z" class="X"/><path d="M254 174.62c-1.32.48-4.57 2.65-5.65 1.81s-1.08-2.77 1.8-4.57 8.41-5.52 9.13-5.16-5.28 7.92-5.28 7.92z" class="e"/><path d="M171.46 84.19a346.18 346.18 0 0 1 40.11 10.56l16.87 2.5s28.61 4.31 37.1 13.88c0 0 11.5 12.77 14.11 21.25l-22.85 12.19-6.75-11.32-7.61 50.49s-29.71 11.63-74.37-6l11.48-61.7s-14.15-2.61-16.76-5.66c0 .02 3.63-17.38 8.67-26.19z" fill="#ff825c"/><path d="M177.65 29.05c-1.73-.87-4 2.21-5.75 5l-5.52 9.06a154.36 154.36 0 0 0-24.09 22.21c-6.52 7.66-12.16 14.48-15.58 24 0 0 14.8 14.25 36.68 18.89l8.07-24-11.18-3.51S178.75 58 181.07 56c0 0 1.44.33 6.85-.55s7.74-1.77 7.74-2.77-.44-2.43-6.85-2.1l-1.33-1.65s10-10.06 10.61-11.38-.66-1.88-4.64-.67a16.1 16.1 0 0 0-6 3.1l4.55-6.62c1.88-2.77.89-3.54-.11-3.54s-8.1 5.66-10 8.42c0 0 6-9.86 4.68-10.74s-7.51 4.81-10.71 9.23c.03 0 3.33-6.91 1.79-7.68z" class="e"/><path d="M126.71,89.27s14.8,14.25,36.68,18.89" class="S T U V W"/><path d="M260.5 198.13c-2 1-6-5.86-6.94-8.95s-.76-11.45-.16-14.58c.49-2.56 1.66-5 5.33-8.36a62.76 62.76 0 0 1 6.87-5.47l-9.27-16.82 12.07-6.24 10.94-5.65s15.28 26.71 13.43 29.64-21.61 13-21.61 13l1.08 6.17s6.48 7.57 5.71 8.8-5.87-1.23-8.34-4.32c0 0 4.63 7.87 3.09 9s-5.71-2-8.34-5.71c0 0 3.4 6.79 2.16 8.34s-5.55-2.63-7.41-7.26c0 0 .35 2.46.87 4.8.37 1.59 1.14 3.3.52 3.61z" class="e"/><path d="M256.33 143.95l23.01-11.89m13.43 29.64c-1.85 2.93-21.61 13-21.61 13l1.08 6.17s6.48 7.57 5.71 8.8c0 0-1.95 2.06-7.84-4M253.4 174.6c.49-2.56 1.66-5 5.33-8.36" class="S T U V W"/><path d="M212.36,64c-7.74,21.32-1.54,26.86-1.54,26.86l.75,3.92s-.11,6.52,5.81,7.75c7.29,1.51,11.06-5.25,11.06-5.25L230,93.6s7.84-3.78,8-24.39c0,0-2.73-4.67-12.31-6.27S212.36,64,212.36,64Z" class="e"/><g class="X"><path d="M229 64.4l9 4.81-2.18 10.41 1.7.13 3.53-10.22s6.27-5.38-.79-10.3c-4.86-3.39-7.49.6-7.49.6zm-10.84-9.16c-2.3-.85-11.24.48-8.58 10 0 0-.84 5.82-.84 8.57 0 3 2.07 2.58 2.07.93 0-.13 2.09-10 2.09-10l5.5-1.36z"/><path d="M221.94 50c-4.57 1.77-5.39 13.42-5.39 13.42l13.79 1.26s5.62-6 3.8-9.78-6.05-7.35-12.2-4.9z"/></g><path d="M210.61 74.17c-.25-2.07-2-3.7-3-2.61s-2 7.6 1.14 8.21c-.01 0 2.34-1.62 1.86-5.6zm24.92 11.15c2.28.86 5.2-2.68 4.72-5.45s-2.66-3.27-3.51-1.09a32 32 0 0 0-1.21 6.54z" class="e"/><path d="M265.6 160.77s6.42-6.12 11.94-6.56M179 48.84s4.34-5.27 9.86 1.75M151.3 77.33a10.28 10.28 0 0 1 9 3.35m19.25 35.38s2.13-11.83 6-18.27m84.06 87.53s4.67 7.65 3.09 9c0 0-3.59 2.06-8.34-5.71 0 0 4.42 7.6 2.16 8.34s-7.41-7.26-7.41-7.26 2.72 6.33 1.39 8.49-6.94-8.95-6.94-8.95" class="S T U V W"/><path d="M209.86 72.1l-1.12 7.67s-3.1 9.47 2.08 11.06c5.81 1.79 14 4.14 18.28 3.74 3.14-.29 6.31-1.68 6.43-9.25l1.92-7.52s-.68-.15-2 1.75c-1.93 2.7-4.59 9.27-8.42 9.12-3.27-.12-9.69-1.26-12.78-4.35-1.32-1.32-2.66-7.78-3.09-10.53-.34-1.92-1.3-1.69-1.3-1.69z" class="X"/><g class="S T U V W"><path d="M178,179.48s-25.85,48.66-26.15,58.09,34.66,61.34,37.09,64.08l13.84-5"/><path d="M196.56 200.47l4.26 5.78.24 20.07c.3 26 1 69.89 2.5 78.76l27.3-1.67 11.58-119.67"/><path d="M201.85 262.66l-8.43-21.78 7.3-13.82"/></g><g class="X"><path d="M192.67,300.43l1.16,7.21-4.19,2.87s-7.53,3.86-4.43,6.47,18.27.47,18.27.47l-.69-20.83Z" class="S T U"/><path d="M203.72,318.17l34.84.56a2.42,2.42,0,0,0,1.32-4.37,12.15,12.15,0,0,0-1.7-1.1c-3.34-1.8-13.07-3.79-14.19-3.66.88-2.42.52-4.15.74-6.19l-21.17,1.67Z"/></g><path d="M207.49 94.42c0 3 .2 9.57 8.87 11.44s12.84-2.33 14.94-6.07m18.75 33.46l-1.65-16.41M187.86 237a16.33 16.33 0 0 1 5.56 3.93" class="S T U V W"/><path d="M201.06 226.32l-.24-20.07-4.26-5.78M260.69 152l4.91 8.78c1.35-1 2.1-2 3.82-3.46a10.64 10.64 0 0 1-4.26-1.8c-2.81-2.09-5.45-5.31-4.47-3.52z" class="X"/><g class="S T V W"><path d="M224 309.6a9.81 9.81 0 0 0-10.31-.25M195.58 308s4.24-2.23 7.82 0m.22-1.11l.45 8.5" stroke="#fff"/><path d="M223.5 73.89l-2.3 5.07 3.69.62" class="U"/></g><path d="M214.92,88.23s2.51-5.33,4-5.93,6.67.3,7.7,1.19,1.93,7,1.93,7l-2.67.29-1.18-5.18-5-1.18-1.92,4.29Z" class="X"/><path d="M215.8 72.16s1.2-2 3.22-.2M230 74.25s1.76-1.21 2.73 1.13" class="S T U V W"/><rect x="330.92" y="63.89" width="49.74" height="12.32" rx="1.61" fill="#ff825c"/><path d="M355.61 71.4h21.18m-21.18-2.43h21.18" class="S T U V W"/><rect x="335.42" y="68.52" width="17.83" height="3.29" rx="1.2" class="b"/><g class="S T U"><path d="M149.55 318.44h101.57" class="V W"/><path d="M243.67,42.59l-.52-4.51h-7.41a4.34,4.34,0,0,1-4.34-4.34V18.43a4.34,4.34,0,0,1,4.34-4.34H257a4.34,4.34,0,0,1,4.34,4.34V33.69A4.33,4.33,0,0,1,257,38h-8.37Z" class="Y"/></g><path d="M241.92 32.19h-4.04v-9.12h3.85" class="c"/><path d="M243.43 17.3h0a1.54 1.54 0 0 1 1.57 1.55v3.41h5.32a2.37 2.37 0 0 1 2.37 2.37v5.19a2.37 2.37 0 0 1-2.37 2.37h-8.38V18.85a1.54 1.54 0 0 1 1.49-1.55z" class="S T U V"/><path d="M106,67.09H63.79v0a3.13,3.13,0,0,1,3.13-3.13h36A3.13,3.13,0,0,1,106,67.09Z" class="Z"/><path d="M106,67.09H63.79v33.1a1.8,1.8,0,0,0,1.79,1.8h38.68a1.8,1.8,0,0,0,1.8-1.8Z" class="S T U Y"/><path d="M68.11 72.03H88v2.57H68.11z" class="X"/><path d="M68.58 77.41h32.02m-24.89 5.35h23.62m-23.62 5.61h23.62m-23.62 5.4h23.62" class="S T U V W"/><g class="Z"><circle cx="71.43" cy="83.16" r="1.4"/><circle cx="71.43" cy="88.63" r="1.4"/><circle cx="71.43" cy="93.91" r="1.4"/></g><path d="M298.11 106.65l3.49.65-.07 3.47 3.96.45-.07 3.97M57.23 219.84l2.35 3.19 3.13-1.95 2.26 3.39M441.13 20.58l2.35 3.19 3.13-1.94 2.25 3.38M67.7 37.54l2.35 3.18 3.13-1.94 2.25 3.38m297.35 224.86l2.65 2.95 2.93-2.25 2.57 3.15M130.46 74.36l-3.77 1.2.83 3.59-3.93 1.04" class="S T U V W"/><rect x="101.77" y="166.36" width="64.31" height="15.92" rx="2.08" class="c"/><path d="M133.68 176.07h27.38m-27.38-3.14h27.38" class="S T U V W"/><rect x="107.58" y="172.34" width="23.05" height="4.25" rx="1.55" class="b"/><rect x="337.18" y="198.81" width="25.01" height="15.38" rx="1.19" class="d"/><g class="U S T"><g class="W"><path d="M340.49 201.53l9.3 6.71 10-6.71" class="V"/><path d="M339.73 211.62l6.41-5.83m8.25-.4l5.75 6.93" class="Y"/></g><rect x="38.98" y="175.81" width="16.1" height="9.9" rx=".77" transform="matrix(.99957 -.029317 .029317 .99957 -5.29 1.46)" class="Y"/><g class="W"><path d="M41.02 177.74l6.11 4.13 6.3-4.5" class="V"/><path d="M40.72 184.24l4.01-3.87m5.3-.42l3.83 4.35" class="Y"/></g></g><path d="M149.32 318.49c-8.08 0-12.36-18.35-6.74-18s11.98 18 6.74 18z" fill="#aecc5c"/><g class="S T U V W"><path d="M157 318.27s.54-14.33-9.81-21.09c-14.1-9.22-17.66-13.74-8.34-16.68s20.42 2.63 24 15.21c2.24 7.77-1.47 22.56-1.47 22.56m-22.52-37.77s11.87 5.19 15.87 11.95c6.94 11.71 5 25.8 5 25.8m-4.45-24.84l.6-8.37m1.19 11.06l1.2-8.22"/><path d="M133.75 284.74h11.96m8.07 18.69l5.69 3.29m4.7 11.49s.61-4.44 4.11-6m-25.22-9.13l6.32 15.07"/></g><path d="M265.74 87.8l3.13-3.72c3.35-3.33 7.41-4 9.2-7.73s-.82-12.81-9.92-11.86c-7.76.81-8 8.9-7.95 12.44a12 12 0 0 1-1.76 6.31s1.54-.57 4.23 1.45 3.07 3.11 3.07 3.11z" stroke="#ffe079" stroke-miterlimit="10" class="S d"/><g class="V T S"><g class="U"><path d="M265.74 87.8s-2.42 4.1-6.53 1.68-.77-6.24-.77-6.24 1.61-.35 4.23 1.45 3.07 3.11 3.07 3.11z"/><path d="M260.67 83.59l3.23-7.87m.26 9.59l6.09-6.32m-6.43-2.46s1.55 1.12 3.84-.36c0 0-.52 3.71 1.66 3.7m-11.78 5.96a6.49 6.49 0 0 1 6.5 3.9" class="W"/></g><path d="M273.55,68.22a6.8,6.8,0,0,1,2.77,6.68" stroke="#fff" class="W"/><g class="U"><circle cx="282.36" cy="124.15" r="2.03"/><circle cx="141.25" cy="256.21" r="2.03"/><circle cx="295.89" cy="297.58" r="2.03"/></g></g><g class="X"><circle cx="296.25" cy="19.15" r="1.27"/><circle cx="414.1" cy="174.64" r="1.27"/></g><g class="S T U V"><circle cx="436.9" cy="287.5" r="2.03"/><circle cx="88.06" cy="196.17" r="2.03"/><circle cx="34.37" cy="80.4" r="2.03"/><circle cx="191.24" cy="74.95" r="2.03"/><path d="M341.92 218.01l9.32-6.33-.77 11.56-3.26-4.51-5.29-.72z"/></g><path d="M109.34 19h21.95a1.6 1.6 0 0 1 1.6 1.6v.6a0 0 0 0 1 0 0h-25.16a0 0 0 0 1 0 0v-.6a1.6 1.6 0 0 1 1.61-1.6z" class="a"/><path d="M107.73 21.18h25.16a0 0 0 0 1 0 0v22.24a1.21 1.21 0 0 1-1.21 1.21h-22.74a1.21 1.21 0 0 1-1.21-1.21V21.18a0 0 0 0 1 0 0z" class="S T U Y"/><rect x="110.65" y="24.44" width="19.64" height="8.77" rx=".7" class="a"/><g class="U V S T"><path d="M129.81 40.5h-18.69m18.69-4.18h-18.69" class="W"/><path d="M296.31 74.49h8.68v8.68h-8.68z"/></g><path d="M304.99 66.24h8.68v8.68h-8.68z" class="c"/><path d="M111.82 228.56h6.04v6.09h-6.04v-6.09z" class="S T U V"/><path d="M111.81 240.43h-6.09v-6.09h6.09z" class="Z"/><path d="M427.19 36.97l6.04.01v6.09l-6.04-.01v-6.09z" class="S T U V"/><path d="M427.19 48.85h-6.09v-6.09h6.09z" class="Z"/><rect x="347.42" y="13.51" width="19.89" height="19.89" rx="7.24" class="a"/><path d="M352.33,25.18l3,2.95a1.09,1.09,0,0,0,1.53,0l6.65-6.65A1.08,1.08,0,0,0,361.94,20l-6.65,6.65h1.53l-2.95-3a1.09,1.09,0,0,0-1.54,1.53Z" class="b"/><path d="M342.79 97.02h10.88M99.54 300.18h10.87m244.81-59.43h7.8" class="S T U V W"/><path d="M374.62 181h-57.71a3.71 3.71 0 0 1-3.72-3.72v-19l-8.8-5.64 8.8-4.7v-19a3.71 3.71 0 0 1 3.72-3.72h57.71a3.72 3.72 0 0 1 3.72 3.72v48.36a3.72 3.72 0 0 1-3.72 3.7z" class="S T U Y"/><rect x="321.77" y="133.38" width="48.39" height="38.99" rx="1.76" class="c"/><path d="M352.05,163.44s14,1.53,16,8.93H323.83s8.07-8.93,18.09-8.93Z" class="Z"/><path d="M341.3 137.68c-1.76 1.47-6.45 10.94-6 15.87s7.24 6.19 7.24 6.19l-1 3.53-.09 2.46a2.32 2.32 0 0 0 3.12 2.28l7.32-2.64 3.08-9.55s6-13.43 3.58-15.9-11.88-6.72-17.25-2.24z" class="Y"/><path d="M339.28,140.43c-3.37-1.17-6.89-4.7-2.94-9.51,2.43-3,9.71-1.22,12.24,1.05,3.32,3,5.31,5.6,10.29,5,2.66-.34,4.75,1.39,4,4.31-.81,3.08-6.27,17.79-9.19,18-1.33.1-.81.32-1.66-.21s1.35-5.51,1.35-5.51l2.81-7.38Z" class="X"/><path d="M354.38 149.65s2.21-1.18 2.81 1.2c.75 3-3.48 4.73-4.43 4s1.62-5.2 1.62-5.2z" class="Y"/><path d="M343.49,141c-2.08.21-3.36,2.37-.86,2.79a66.75,66.75,0,0,0,7.66.44Z" class="X"/><path d="M347 149.2s1.75-1.12 2.39.64m-11.67-3.03s1.6-1.92 1.92.31m2.07.48l-2.39 3.19 1.59.48m.35 2.59a3.35 3.35 0 0 0 4.15 0" class="S T U V W"/><path d="M371.51 130.63l-5 5.21-18 17.06s-2.57 7.24-2.16 8.32 8.68.28 8.68.28 6.69-5.93 21.1-20.14c4.47-4.41-4.67 6.13-1.87 3l5.34-6.11z" class="d"/><path d="M348.52,152.9s-2.57,7.24-2.16,8.32,8.68.28,8.68.28l-2-.88a1.2,1.2,0,0,1-.68-.73l-.81-2.38-2-1.25a1.19,1.19,0,0,1-.56-.82Z" class="Y"/><path d="M371.51 130.63l-5 5.21a26.25 26.25 0 0 0 3.67 5 25.15 25.15 0 0 0 4.12 3.52l5.34-6.11s-1.6-1.31-4.27-3.91z" fill="#ddd6cf"/><path d="M379.84 128.47c-1.68-1.56-2.78-2.28-3.57-2s-4.76 4.2-4.76 4.2 6.26 7.5 8.1 7.65 3.74-3.08 3.82-4.09c.1-1.38-.08-2.48-3.59-5.76z" class="Z"/><path d="M355,161.5a39.88,39.88,0,0,1-6.92.3,1.62,1.62,0,0,1-1.83-2.42,38.55,38.55,0,0,1,2.23-6.48" class="S T U V W"/><path d="M346.29 159.38a1.62 1.62 0 0 0 1.83 2.42 1.7 1.7 0 0 0-.59-1.46 3.69 3.69 0 0 0-1.24-.96z" class="X"/><path d="M349.55 156.26s9.26-7.76 14.23-13.36m-7.55 13.62l14.79-12.4m-18.7 15.76l-.81-2.37-2.22-1.32m23.46-13.12s-2.91-1.7-6.27-7.23m6.26 1.51a37.17 37.17 0 0 1-4.05-5.07m9.83 5.72a25.52 25.52 0 0 1-6-6.2" class="S T U V W"/><g class="X"><circle cx="64.3" cy="134.21" r="2.63"/><circle cx="151.17" cy="131.82" r="2.63"/><circle cx="132.53" cy="215.07" r="2.63"/><circle cx="421.3" cy="110.14" r="2.63"/><circle cx="428.51" cy="228.8" r="2.63"/></g><path d="M60.91 112.29l7.71 45.36" class="S T U V W"/><path d="M42.7 144.62l9.32-6.33-.77 11.55-3.26-4.5-5.29-.72z" class="X"/><path d="M403.45 270.84h-4.47v-9.08h4.26" class="c"/><path d="M405.13 256h0a1.63 1.63 0 0 1 1.71 1.54V261h5.9a2.51 2.51 0 0 1 2.63 2.36v5.16a2.51 2.51 0 0 1-2.63 2.36h-9.29v-13.27a1.63 1.63 0 0 1 1.68-1.61z" class="S T U V"/><path d="M3.13 76.44H0v-7.08h2.98" class="c"/><path d="M4.29 64.9h0a1.2 1.2 0 0 1 1.21 1.2v2.64h4.11a1.84 1.84 0 0 1 1.84 1.84v4a1.84 1.84 0 0 1-1.84 1.84H3.13V66.08a1.2 1.2 0 0 1 1.16-1.18z" class="S T U V"/></svg>