<svg xmlns="http://www.w3.org/2000/svg" viewBox="0 0 454.04 327.31"><defs><style>.cls-1,.cls-14{fill:none;}.cls-1,.cls-10,.cls-13,.cls-15{stroke:#2a1e17;}.cls-1,.cls-10,.cls-13,.cls-14,.cls-15{stroke-linecap:round;stroke-linejoin:round;}.cls-1,.cls-10,.cls-13,.cls-14,.cls-15,.cls-18{stroke-width:0.72px;}.cls-2{fill:#f8f8f7;}.cls-3{fill:#9ec978;}.cls-18,.cls-4{fill:#ffe079;}.cls-10,.cls-5{fill:#f8f7f5;}.cls-15,.cls-6{fill:#fff;}.cls-7{fill:#ddd6cf;}.cls-8{fill:#ff3d43;}.cls-13,.cls-9{fill:#2a1e17;}.cls-11{fill:#fac9c3;}.cls-12{fill:#ff825c;}.cls-14{stroke:#fff;}.cls-16{fill:#7ca3ff;}.cls-17{fill:#aecc5c;}.cls-18{stroke:#ffe079;stroke-miterlimit:10;}</style></defs><title>Abouts_us</title><g id="Layer_2" data-name="Layer 2"><g id="Layer_1-2" data-name="Layer 1"><path class="cls-1" d="M87.67,112.23s-39.11,24-15.32,25.25c17.13.9,52.29-11.72,74.83-8.12s-61.31,86.56-18,86.56,99.44-78.55,109.09-54.1c0,0-29.43,107,4.9,89.45S378.23,89.63,420.88,109.38c36.76,17-30.12,172.65,32.8,99.17"/><rect class="cls-2" x="170.57" width="28.19" height="19.34" rx="1.47"/><path class="cls-3" d="M175,17.22h10.87a.41.41,0,0,0,.28-.7l-5-4.81a1.06,1.06,0,0,0-1.49,0l-5,4.81A.4.4,0,0,0,175,17.22Z"/><path class="cls-3" d="M185.13,14.15,188,17h8.35V11.86a.38.38,0,0,0-.12-.28l-4.12-4.12a1.08,1.08,0,0,0-1.55,0c-1.46,1.61-4.62,5.07-5.47,6.12A.4.4,0,0,0,185.13,14.15Z"/><circle class="cls-4" cx="179.36" cy="6.2" r="2.13"/><rect class="cls-4" x="55.39" y="247.5" width="39.1" height="15.92" rx="2.08"/><line class="cls-1" x1="78.83" y1="257.2" x2="89.47" y2="257.2"/><line class="cls-1" x1="78.83" y1="254.06" x2="89.47" y2="254.06"/><rect class="cls-5" x="61.2" y="253.48" width="14.58" height="4.25" rx="1.55"/><rect class="cls-2" x="312.36" y="276.2" width="34.64" height="23.77" rx="1.81"/><path class="cls-3" d="M317.8,297.36h13.36a.5.5,0,0,0,.35-.86l-6.11-5.92a1.34,1.34,0,0,0-1.84,0l-6.11,5.92A.5.5,0,0,0,317.8,297.36Z"/><path class="cls-3" d="M330.25,293.59l3.54,3.54h10.26v-6.35a.5.5,0,0,0-.14-.35l-5.06-5.06a1.31,1.31,0,0,0-1.91,0c-1.8,2-5.68,6.23-6.73,7.51A.5.5,0,0,0,330.25,293.59Z"/><circle class="cls-4" cx="323.15" cy="283.81" r="2.61"/><path class="cls-4" d="M295.54,185.51l-2.05,16.9L280.36,310.68s-9.42,15.41-12,16.27S255,311.54,255,311.54s.9-21,5.48-68.33c1.42-14.66,4.36-32.65,5.87-42.34,2.45-15.73,3.22-18.78,3.22-18.78Z"/><path class="cls-6" d="M280.36,310.68s-9.42,15.41-12,16.27S255,311.54,255,311.54l4.61,2.4a2.94,2.94,0,0,0,2.36.16l5.53-2,5.19,1.73a2.93,2.93,0,0,0,2.32-.21Z"/><path class="cls-7" d="M295.54,185.51l-2.05,16.9a61.81,61.81,0,0,1-14.61.76,58.42,58.42,0,0,1-12.52-2.3c2.45-15.73,3.22-18.78,3.22-18.78s4.78,1,13.47,2S295.54,185.51,295.54,185.51Z"/><path class="cls-8" d="M287.13,167.14c5.35.74,8.29,1.68,9,3.48s-.6,14.89-.6,14.89-23-.3-26-3.42.08-11.39,1.81-13C273.68,166.9,276,165.57,287.13,167.14Z"/><path class="cls-1" d="M255,311.54s5.41,8.74,9.69,13.06c1.43,1.44,2.73,2.38,3.67,2.35s2.15-1.07,3.45-2.6c3.9-4.6,8.54-13.67,8.54-13.67"/><path class="cls-9" d="M271.82,324.35c-1.3,1.53-2.51,2.56-3.45,2.6s-2.24-.91-3.67-2.35a4,4,0,0,1,3.55-1.11A8.59,8.59,0,0,1,271.82,324.35Z"/><path class="cls-1" d="M272.7,313.79s9.06-78.63,11.9-96"/><line class="cls-1" x1="262.33" y1="301.98" x2="271.65" y2="206.41"/><polyline class="cls-1" points="261.98 314.1 267.51 312.06 273.21 314.15"/><path class="cls-1" d="M271,201.68s7.4,2.8,22.48.73"/><path class="cls-1" d="M281.45,193.24s10.14.75,15.25-.14"/><path class="cls-1" d="M271.68,183.68s7.33,2.45,20.22,1.78"/><path class="cls-10" d="M266.72,234.85,303,215.44a2,2,0,0,1,2.87,1.31l5.82,26.44,22.65,9.54a2,2,0,0,1,.37,3.44l-33.81,23.76a2,2,0,0,1-1.94.19l-26.12-11.6L265.72,237A2,2,0,0,1,266.72,234.85Z"/><line class="cls-1" x1="276.9" y1="265.63" x2="309.88" y2="244.93"/><line class="cls-1" x1="283.1" y1="268.99" x2="314.86" y2="248.2"/><line class="cls-1" x1="289.33" y1="272.01" x2="321.57" y2="250.09"/><polygon class="cls-3" points="269.33 237.44 274.85 261.39 308.16 241.62 303.04 219.71 269.33 237.44"/><path class="cls-9" d="M310.33,269.71c-1.22-.78-6.77-3.93-6.77-3.93l12.27-8.31,6.58,3.75Z"/><path class="cls-5" d="M178.22,180.12s-25.85,48.65-26.15,58.08,34.66,61.34,37.09,64.08l13.84-5-1.41-34.43-8-21.31,8-14.29L201,206.88Z"/><path class="cls-5" d="M196.56,200.47l4.26,5.78s.61,86.36,2.74,98.83l27.3-1.67s10.92-106.29,11.58-119.67c0,0-28.54,8.21-64.43-4.26Z"/><path class="cls-9" d="M186.49,182.83s20.57,10.5,34.57,10.06A32.36,32.36,0,0,0,243,183.7Z"/><path class="cls-11" d="M254,174.62c-1.32.48-4.57,2.65-5.65,1.81s-1.08-2.77,1.8-4.57,8.41-5.52,9.13-5.16S254,174.62,254,174.62Z"/><path class="cls-12" d="M171.46,84.19a346.18,346.18,0,0,1,40.11,10.56l16.87,2.5s28.61,4.31,37.1,13.88c0,0,11.5,12.77,14.11,21.25L256.8,144.57l-6.75-11.32-7.61,50.49s-29.71,11.63-74.37-6l11.48-61.7s-14.15-2.61-16.76-5.66C162.79,110.4,166.42,93,171.46,84.19Z"/><path class="cls-11" d="M177.65,29.05c-1.73-.87-4,2.21-5.75,5s-5.52,9.06-5.52,9.06a154.36,154.36,0,0,0-24.09,22.21c-6.52,7.66-12.16,14.48-15.58,24,0,0,14.8,14.25,36.68,18.89l8.07-24-11.18-3.51S178.75,58,181.07,56c0,0,1.44.33,6.85-.55s7.74-1.77,7.74-2.77-.44-2.43-6.85-2.1l-1.33-1.65s10-10.06,10.61-11.38-.66-1.88-4.64-.67a16.1,16.1,0,0,0-6,3.1L192,33.36c1.88-2.77.89-3.54-.11-3.54s-8.1,5.66-10,8.42c0,0,6-9.86,4.68-10.74s-7.51,4.81-10.71,9.23C175.89,36.73,179.19,29.82,177.65,29.05Z"/><path class="cls-1" d="M126.71,89.27s14.8,14.25,36.68,18.89"/><path class="cls-11" d="M260.5,198.13c-2,1-6-5.86-6.94-8.95s-.76-11.45-.16-14.58c.49-2.56,1.66-5,5.33-8.36a62.76,62.76,0,0,1,6.87-5.47s-6.8-12-9.27-16.82l12.07-6.24,10.94-5.65s15.28,26.71,13.43,29.64-21.61,13-21.61,13l1.08,6.17s6.48,7.57,5.71,8.8-5.87-1.23-8.34-4.32c0,0,4.63,7.87,3.09,9s-5.71-2-8.34-5.71c0,0,3.4,6.79,2.16,8.34s-5.55-2.63-7.41-7.26c0,0,.35,2.46.87,4.8C260.35,196.11,261.12,197.82,260.5,198.13Z"/><polyline class="cls-1" points="256.33 143.95 268.4 137.71 279.34 132.06"/><path class="cls-1" d="M292.77,161.7c-1.85,2.93-21.61,13-21.61,13l1.08,6.17s6.48,7.57,5.71,8.8c0,0-1.95,2.06-7.84-4"/><path class="cls-1" d="M253.4,174.6c.49-2.56,1.66-5,5.33-8.36"/><path class="cls-11" d="M212.36,64c-7.74,21.32-1.54,26.86-1.54,26.86l.75,3.92s-.11,6.52,5.81,7.75c7.29,1.51,11.06-5.25,11.06-5.25L230,93.6s7.84-3.78,8-24.39c0,0-2.73-4.67-12.31-6.27S212.36,64,212.36,64Z"/><path class="cls-9" d="M229,64.4l9,4.81-2.18,10.41,1.7.13,3.53-10.22s6.27-5.38-.79-10.3c-4.86-3.39-7.49.6-7.49.6Z"/><path class="cls-9" d="M218.16,55.24c-2.3-.85-11.24.48-8.58,10,0,0-.84,5.82-.84,8.57,0,3,2.07,2.58,2.07.93,0-.13,2.09-10,2.09-10l5.5-1.36Z"/><path class="cls-9" d="M221.94,50c-4.57,1.77-5.39,13.42-5.39,13.42l13.79,1.26s5.62-6,3.8-9.78S228.09,47.55,221.94,50Z"/><path class="cls-11" d="M210.61,74.17c-.25-2.07-2-3.7-3-2.61s-2,7.6,1.14,8.21C208.74,79.77,211.09,78.15,210.61,74.17Z"/><path class="cls-11" d="M235.53,85.32c2.28.86,5.2-2.68,4.72-5.45s-2.66-3.27-3.51-1.09A32,32,0,0,0,235.53,85.32Z"/><path class="cls-1" d="M265.6,160.77s6.42-6.12,11.94-6.56"/><path class="cls-1" d="M179,48.84s4.34-5.27,9.86,1.75"/><path class="cls-1" d="M151.3,77.33a10.28,10.28,0,0,1,9,3.35"/><path class="cls-1" d="M179.55,116.06s2.13-11.83,6-18.27"/><path class="cls-1" d="M269.61,185.32s4.67,7.65,3.09,9c0,0-3.59,2.06-8.34-5.71,0,0,4.42,7.6,2.16,8.34s-7.41-7.26-7.41-7.26,2.72,6.33,1.39,8.49-6.94-8.95-6.94-8.95"/><path class="cls-9" d="M209.86,72.1l-1.12,7.67s-3.1,9.47,2.08,11.06c5.81,1.79,14,4.14,18.28,3.74,3.14-.29,6.31-1.68,6.43-9.25l1.92-7.52s-.68-.15-2,1.75c-1.93,2.7-4.59,9.27-8.42,9.12-3.27-.12-9.69-1.26-12.78-4.35-1.32-1.32-2.66-7.78-3.09-10.53C210.82,71.87,209.86,72.1,209.86,72.1Z"/><path class="cls-1" d="M178,179.48s-25.85,48.66-26.15,58.09,34.66,61.34,37.09,64.08l13.84-5"/><path class="cls-1" d="M196.56,200.47l4.26,5.78s.12,9.55.24,20.07c.3,26,1,69.89,2.5,78.76l27.3-1.67s10.92-106.29,11.58-119.67"/><polyline class="cls-1" points="201.85 262.66 193.42 240.88 200.72 227.06"/><path class="cls-13" d="M192.67,300.43l1.16,7.21-4.19,2.87s-7.53,3.86-4.43,6.47,18.27.47,18.27.47l-.69-20.83Z"/><path class="cls-9" d="M203.72,318.17l34.84.56a2.42,2.42,0,0,0,1.32-4.37,12.15,12.15,0,0,0-1.7-1.1c-3.34-1.8-13.07-3.79-14.19-3.66.88-2.42.52-4.15.74-6.19l-21.17,1.67Z"/><path class="cls-1" d="M207.49,94.42c0,3,.2,9.57,8.87,11.44s12.84-2.33,14.94-6.07"/><line class="cls-1" x1="250.05" y1="133.25" x2="248.4" y2="116.84"/><path class="cls-1" d="M187.86,237a16.33,16.33,0,0,1,5.56,3.93"/><path class="cls-9" d="M201.06,226.32c-.12-10.52-.24-20.07-.24-20.07l-4.26-5.78"/><path class="cls-9" d="M260.69,152c2.48,4.48,4.91,8.78,4.91,8.78,1.35-1,2.1-2,3.82-3.46a10.64,10.64,0,0,1-4.26-1.8C262.35,153.43,259.71,150.21,260.69,152Z"/><path class="cls-14" d="M224,309.6a9.81,9.81,0,0,0-10.31-.25"/><path class="cls-14" d="M195.58,308s4.24-2.23,7.82,0"/><line class="cls-14" x1="203.62" y1="306.89" x2="204.07" y2="315.39"/><polyline class="cls-1" points="223.5 73.89 221.2 78.96 224.89 79.58"/><path class="cls-9" d="M214.92,88.23s2.51-5.33,4-5.93,6.67.3,7.7,1.19,1.93,7,1.93,7l-2.67.29-1.18-5.18-5-1.18-1.92,4.29Z"/><path class="cls-1" d="M215.8,72.16s1.2-2,3.22-.2"/><path class="cls-1" d="M230,74.25s1.76-1.21,2.73,1.13"/><rect class="cls-12" x="330.92" y="63.89" width="49.74" height="12.32" rx="1.61"/><line class="cls-1" x1="355.61" y1="71.4" x2="376.79" y2="71.4"/><line class="cls-1" x1="355.61" y1="68.97" x2="376.79" y2="68.97"/><rect class="cls-5" x="335.42" y="68.52" width="17.83" height="3.29" rx="1.2"/><line class="cls-1" x1="149.55" y1="318.44" x2="251.12" y2="318.44"/><path class="cls-15" d="M243.67,42.59l-.52-4.51h-7.41a4.34,4.34,0,0,1-4.34-4.34V18.43a4.34,4.34,0,0,1,4.34-4.34H257a4.34,4.34,0,0,1,4.34,4.34V33.69A4.33,4.33,0,0,1,257,38h-8.37Z"/><polyline class="cls-16" points="241.92 32.19 237.88 32.19 237.88 23.07 241.73 23.07"/><path class="cls-1" d="M243.43,17.3h0A1.54,1.54,0,0,1,245,18.85v3.41h5.32a2.37,2.37,0,0,1,2.37,2.37v5.19a2.37,2.37,0,0,1-2.37,2.37h-8.38l0-13.34A1.54,1.54,0,0,1,243.43,17.3Z"/><path class="cls-8" d="M106,67.09H63.79v0a3.13,3.13,0,0,1,3.13-3.13h36A3.13,3.13,0,0,1,106,67.09Z"/><path class="cls-15" d="M106,67.09H63.79v33.1a1.8,1.8,0,0,0,1.79,1.8h38.68a1.8,1.8,0,0,0,1.8-1.8Z"/><rect class="cls-9" x="68.11" y="72.03" width="19.89" height="2.57"/><line class="cls-1" x1="68.58" y1="77.41" x2="100.6" y2="77.41"/><line class="cls-1" x1="75.71" y1="82.76" x2="99.33" y2="82.76"/><line class="cls-1" x1="75.71" y1="88.37" x2="99.33" y2="88.37"/><line class="cls-1" x1="75.71" y1="93.77" x2="99.33" y2="93.77"/><circle class="cls-8" cx="71.43" cy="83.16" r="1.4"/><circle class="cls-8" cx="71.43" cy="88.63" r="1.4"/><circle class="cls-8" cx="71.43" cy="93.91" r="1.4"/><polyline class="cls-1" points="298.11 106.65 301.6 107.3 301.53 110.77 305.49 111.22 305.42 115.19"/><polyline class="cls-1" points="57.23 219.84 59.58 223.03 62.71 221.08 64.97 224.47"/><polyline class="cls-1" points="441.13 20.58 443.48 23.77 446.61 21.83 448.86 25.21"/><polyline class="cls-1" points="67.7 37.54 70.05 40.72 73.18 38.78 75.43 42.16"/><polyline class="cls-1" points="372.78 267.02 375.43 269.97 378.36 267.72 380.93 270.87"/><polyline class="cls-1" points="130.46 74.36 126.69 75.56 127.52 79.15 123.59 80.19"/><rect class="cls-16" x="101.77" y="166.36" width="64.31" height="15.92" rx="2.08"/><line class="cls-1" x1="133.68" y1="176.07" x2="161.06" y2="176.07"/><line class="cls-1" x1="133.68" y1="172.93" x2="161.06" y2="172.93"/><rect class="cls-5" x="107.58" y="172.34" width="23.05" height="4.25" rx="1.55"/><rect class="cls-4" x="337.18" y="198.81" width="25.01" height="15.38" rx="1.19"/><polyline class="cls-1" points="340.49 201.53 349.79 208.24 359.79 201.53"/><line class="cls-15" x1="339.73" y1="211.62" x2="346.14" y2="205.79"/><line class="cls-15" x1="354.39" y1="205.39" x2="360.14" y2="212.32"/><rect class="cls-15" x="38.98" y="175.81" width="16.1" height="9.9" rx="0.77" transform="translate(-5.29 1.46) rotate(-1.68)"/><polyline class="cls-1" points="41.02 177.74 47.13 181.87 53.43 177.37"/><line class="cls-15" x1="40.72" y1="184.24" x2="44.73" y2="180.37"/><line class="cls-15" x1="50.03" y1="179.95" x2="53.86" y2="184.3"/><path class="cls-17" d="M149.32,318.49c-8.08,0-12.36-18.35-6.74-18S154.56,318.49,149.32,318.49Z"/><path class="cls-1" d="M157,318.27s.54-14.33-9.81-21.09c-14.1-9.22-17.66-13.74-8.34-16.68s20.42,2.63,24,15.21c2.24,7.77-1.47,22.56-1.47,22.56"/><path class="cls-1" d="M138.86,280.5s11.87,5.19,15.87,11.95c6.94,11.71,5,25.8,5,25.8"/><line class="cls-1" x1="155.28" y1="293.41" x2="155.88" y2="285.04"/><line class="cls-1" x1="157.07" y1="296.1" x2="158.27" y2="287.88"/><line class="cls-1" x1="133.75" y1="284.74" x2="145.71" y2="284.74"/><line class="cls-1" x1="153.78" y1="303.43" x2="159.47" y2="306.72"/><path class="cls-1" d="M164.17,318.21s.61-4.44,4.11-6"/><line class="cls-1" x1="143.06" y1="303.08" x2="149.38" y2="318.15"/><path class="cls-18" d="M265.74,87.8s2.12-2.72,3.13-3.72c3.35-3.33,7.41-4,9.2-7.73s-.82-12.81-9.92-11.86c-7.76.81-8,8.9-7.95,12.44a12,12,0,0,1-1.76,6.31s1.54-.57,4.23,1.45S265.74,87.8,265.74,87.8Z"/><path class="cls-1" d="M265.74,87.8s-2.42,4.1-6.53,1.68-.77-6.24-.77-6.24,1.61-.35,4.23,1.45S265.74,87.8,265.74,87.8Z"/><line class="cls-1" x1="260.67" y1="83.59" x2="263.9" y2="75.72"/><line class="cls-1" x1="264.16" y1="85.31" x2="270.25" y2="78.99"/><path class="cls-1" d="M263.82,76.53s1.55,1.12,3.84-.36c0,0-.52,3.71,1.66,3.7"/><path class="cls-1" d="M257.54,85.83a6.49,6.49,0,0,1,6.5,3.9"/><path class="cls-14" d="M273.55,68.22a6.8,6.8,0,0,1,2.77,6.68"/><circle class="cls-1" cx="282.36" cy="124.15" r="2.03"/><circle class="cls-1" cx="141.25" cy="256.21" r="2.03"/><circle class="cls-1" cx="295.89" cy="297.58" r="2.03"/><circle class="cls-9" cx="296.25" cy="19.15" r="1.27"/><circle class="cls-9" cx="414.1" cy="174.64" r="1.27"/><circle class="cls-1" cx="436.9" cy="287.5" r="2.03"/><circle class="cls-1" cx="88.06" cy="196.17" r="2.03"/><circle class="cls-1" cx="34.37" cy="80.4" r="2.03"/><circle class="cls-1" cx="191.24" cy="74.95" r="2.03"/><polygon class="cls-1" points="341.92 218.01 351.24 211.68 350.47 223.24 347.21 218.73 341.92 218.01"/><path class="cls-3" d="M109.34,19h21.95a1.6,1.6,0,0,1,1.6,1.6v.6a0,0,0,0,1,0,0H107.73a0,0,0,0,1,0,0v-.6A1.6,1.6,0,0,1,109.34,19Z"/><path class="cls-15" d="M107.73,21.18h25.16a0,0,0,0,1,0,0V43.42a1.21,1.21,0,0,1-1.21,1.21H108.94a1.21,1.21,0,0,1-1.21-1.21V21.18A0,0,0,0,1,107.73,21.18Z"/><rect class="cls-3" x="110.65" y="24.44" width="19.64" height="8.77" rx="0.7"/><line class="cls-1" x1="129.81" y1="40.5" x2="111.12" y2="40.5"/><line class="cls-1" x1="129.81" y1="36.32" x2="111.12" y2="36.32"/><rect class="cls-1" x="296.31" y="74.49" width="8.68" height="8.68"/><rect class="cls-16" x="304.99" y="66.24" width="8.68" height="8.68"/><polygon class="cls-1" points="111.82 228.56 117.86 228.56 117.86 234.65 111.82 234.65 111.82 228.56"/><rect class="cls-8" x="105.73" y="234.34" width="6.09" height="6.09" transform="translate(217.54 474.77) rotate(180)"/><polygon class="cls-1" points="427.19 36.97 433.23 36.98 433.23 43.07 427.19 43.06 427.19 36.97"/><rect class="cls-8" x="421.1" y="42.75" width="6.09" height="6.09" transform="translate(848.29 91.6) rotate(180)"/><rect class="cls-3" x="347.42" y="13.51" width="19.89" height="19.89" rx="7.24"/><path class="cls-5" d="M352.33,25.18l3,2.95a1.09,1.09,0,0,0,1.53,0l6.65-6.65A1.08,1.08,0,0,0,361.94,20l-6.65,6.65h1.53l-2.95-3a1.09,1.09,0,0,0-1.54,1.53Z"/><line class="cls-1" x1="342.79" y1="97.02" x2="353.67" y2="97.02"/><line class="cls-1" x1="99.54" y1="300.18" x2="110.41" y2="300.18"/><line class="cls-1" x1="355.22" y1="240.75" x2="363.02" y2="240.75"/><path class="cls-15" d="M374.62,181H316.91a3.71,3.71,0,0,1-3.72-3.72v-19l-8.8-5.64,8.8-4.7v-19a3.71,3.71,0,0,1,3.72-3.72h57.71a3.72,3.72,0,0,1,3.72,3.72V177.3A3.72,3.72,0,0,1,374.62,181Z"/><rect class="cls-16" x="321.77" y="133.38" width="48.39" height="38.99" rx="1.76"/><path class="cls-8" d="M352.05,163.44s14,1.53,16,8.93H323.83s8.07-8.93,18.09-8.93Z"/><path class="cls-6" d="M341.3,137.68c-1.76,1.47-6.45,10.94-6,15.87s7.24,6.19,7.24,6.19l-1,3.53-.09,2.46a2.32,2.32,0,0,0,3.12,2.28l7.32-2.64,3.08-9.55s6-13.43,3.58-15.9S346.67,133.2,341.3,137.68Z"/><path class="cls-9" d="M339.28,140.43c-3.37-1.17-6.89-4.7-2.94-9.51,2.43-3,9.71-1.22,12.24,1.05,3.32,3,5.31,5.6,10.29,5,2.66-.34,4.75,1.39,4,4.31-.81,3.08-6.27,17.79-9.19,18-1.33.1-.81.32-1.66-.21s1.35-5.51,1.35-5.51l2.81-7.38Z"/><path class="cls-6" d="M354.38,149.65s2.21-1.18,2.81,1.2c.75,3-3.48,4.73-4.43,4S354.38,149.65,354.38,149.65Z"/><path class="cls-9" d="M343.49,141c-2.08.21-3.36,2.37-.86,2.79a66.75,66.75,0,0,0,7.66.44Z"/><path class="cls-1" d="M347,149.2s1.75-1.12,2.39.64"/><path class="cls-1" d="M337.72,146.81s1.6-1.92,1.92.31"/><polyline class="cls-1" points="341.71 147.6 339.32 150.79 340.91 151.27"/><path class="cls-1" d="M341.26,153.86a3.35,3.35,0,0,0,4.15,0"/><path class="cls-4" d="M371.51,130.63l-5,5.21-18,17.06s-2.57,7.24-2.16,8.32,8.68.28,8.68.28,6.69-5.93,21.1-20.14c4.47-4.41-4.67,6.13-1.87,3,4.54-5,5.34-6.11,5.34-6.11Z"/><path class="cls-6" d="M348.52,152.9s-2.57,7.24-2.16,8.32,8.68.28,8.68.28l-2-.88a1.2,1.2,0,0,1-.68-.73l-.81-2.38-2-1.25a1.19,1.19,0,0,1-.56-.82Z"/><path class="cls-7" d="M371.51,130.63l-5,5.21a26.25,26.25,0,0,0,3.67,5,25.15,25.15,0,0,0,4.12,3.52c4.54-5,5.34-6.11,5.34-6.11s-1.6-1.31-4.27-3.91Z"/><path class="cls-8" d="M379.84,128.47c-1.68-1.56-2.78-2.28-3.57-2s-4.76,4.2-4.76,4.2,6.26,7.5,8.1,7.65,3.74-3.08,3.82-4.09C383.53,132.85,383.35,131.75,379.84,128.47Z"/><path class="cls-1" d="M355,161.5a39.88,39.88,0,0,1-6.92.3,1.62,1.62,0,0,1-1.83-2.42,38.55,38.55,0,0,1,2.23-6.48"/><path class="cls-9" d="M346.29,159.38a1.62,1.62,0,0,0,1.83,2.42,1.7,1.7,0,0,0-.59-1.46A3.69,3.69,0,0,0,346.29,159.38Z"/><path class="cls-1" d="M349.55,156.26s9.26-7.76,14.23-13.36"/><line class="cls-1" x1="356.23" y1="156.52" x2="371.02" y2="144.12"/><polyline class="cls-1" points="352.32 159.88 351.51 157.51 349.29 156.19"/><path class="cls-1" d="M372.75,143.07s-2.91-1.7-6.27-7.23"/><path class="cls-1" d="M372.74,137.35a37.17,37.17,0,0,1-4.05-5.07"/><path class="cls-1" d="M378.52,138a25.52,25.52,0,0,1-6-6.2"/><circle class="cls-9" cx="64.3" cy="134.21" r="2.63"/><circle class="cls-9" cx="151.17" cy="131.82" r="2.63"/><circle class="cls-9" cx="132.53" cy="215.07" r="2.63"/><circle class="cls-9" cx="421.3" cy="110.14" r="2.63"/><circle class="cls-9" cx="428.51" cy="228.8" r="2.63"/><line class="cls-1" x1="60.91" y1="112.29" x2="68.62" y2="157.65"/><polygon class="cls-9" points="42.7 144.62 52.02 138.29 51.25 149.84 47.99 145.34 42.7 144.62"/><polyline class="cls-16" points="403.45 270.84 398.98 270.84 398.98 261.76 403.24 261.76"/><path class="cls-1" d="M405.13,256h0a1.63,1.63,0,0,1,1.71,1.54V261h5.9a2.51,2.51,0,0,1,2.63,2.36v5.16a2.51,2.51,0,0,1-2.63,2.36h-9.29l0-13.27A1.63,1.63,0,0,1,405.13,256Z"/><polyline class="cls-16" points="3.13 76.44 0 76.44 0 69.36 2.98 69.36"/><path class="cls-1" d="M4.29,64.9h0A1.2,1.2,0,0,1,5.5,66.1v2.64H9.61a1.84,1.84,0,0,1,1.84,1.84v4a1.84,1.84,0,0,1-1.84,1.84H3.13l0-10.34A1.2,1.2,0,0,1,4.29,64.9Z"/></g></g></svg>