<svg xmlns="http://www.w3.org/2000/svg" xmlns:xlink="http://www.w3.org/1999/xlink" viewBox="0 0 666.24 419.99" xmlns:v="https://vecta.io/nano"><style><![CDATA[.Y{fill:#1a2e35}.Z{fill:#3763ff}.a{fill:#e1e1e1}.b{fill:#e8505b}.c{fill:#fff}.d{fill:#b78876}.e{fill:#aa6550}.f{fill:#375a64}.g{fill:#98b5ff}.h{fill-rule:evenodd}.i{fill:#00368b}.j{fill:#f5f5f5}.k{fill:#ebebeb}.l{fill:#5d8dff}.m{fill:#ffc19d}]]></style><path d="M523.43 248.05a19.91 19.91 0 0 1-5.39.13l-2.79 4.15-7.71-3 .72-4.94a20.83 20.83 0 0 1-3.91-3.72l-4.9 1-3.35-7.56 4-3a20.24 20.24 0 0 1-.14-5.38l-4.14-2.73 3-7.71 4.94.72a20.23 20.23 0 0 1 3.72-3.91l-1-4.9 7.56-3.35 3 4a20.75 20.75 0 0 1 5.39-.13l2.79-4.15 7.71 3-.72 4.95a20.18 20.18 0 0 1 3.9 3.72l4.91-1 3.35 7.56-4 3a19.9 19.9 0 0 1 .13 5.39l4.16 2.78-3 7.72-4.94-.72a20.18 20.18 0 0 1-3.72 3.9l1 4.9-7.56 3.36-3-4zm.05-11.86a8.87 8.87 0 1 0-11.7-4.51 8.87 8.87 0 0 0 11.7 4.51z" class="a h"/><path d="M79.34 350.04h148.64v60.37H79.34z" fill="#fafafa"/><g class="a"><path d="M228 410.42v-1.08-3.13-12l-.09-44.15.17.17-148.63.07h0l.23-.24v60.38l-.22-.23 106.57.11 30.91.06h8.28 2.14.74-2.83-8.23l-30.86.07-106.72.1h-.23v-.22-60.38-.23h.25l148.63.07h.16v.21l-.09 44.25v12 3.1c0 .71-.18 1.07-.18 1.07z"/><path d="M79.49 358.18c0-.13 33.22-.23 74.19-.23l74.21.23c0 .13-33.22.24-74.21.24s-74.19-.11-74.19-.24z"/><circle cx="84.63" cy="354.54" r="1.08"/><circle cx="88.33" cy="354.54" r="1.08"/><path d="M93.05 354.54a1.08 1.08 0 1 1-1.05-1.08 1.08 1.08 0 0 1 1.05 1.08zM91.97 368h35.9v35.9h-35.9zm125.72 9.62c0 .13-18.47.23-41.26.23s-41.26-.1-41.26-.23 18.47-.24 41.26-.24l41.26.24zm0 7.31c0 .13-18.47.24-41.26.24s-41.26-.11-41.26-.24 18.47-.23 41.26-.23l41.26.23zm-29.4 7.32a2.77 2.77 0 0 1-.54 0h-1.55l-5.69.07-18.78.07-18.73.02-5.69-.07h-1.55a2.77 2.77 0 0 1-.54 0 1.73 1.73 0 0 1 .54-.05l1.55-.05 5.69-.07 18.78-.07 18.78.07 5.69.07 1.55.05a1.73 1.73 0 0 1 .49-.04z"/></g><path d="M115.35 321.71h131.31v88.72H115.35z" class="c"/><g class="a"><path d="M246.66 410.42v-1.61-4.68l-.05-17.84-.1-64.58.19.19H115.4h0l.23-.23v88.71l-.21-.21 94.6.1 27 .06h7.19 2.49-.61-1.84-7.14-27l-94.74.11h-.22v-.22-88.71-.24h.25 131.3.19v.19l-.1 64.7-.05 17.8v4.64l-.08 1.82z"/><path d="M115.35 329.62c0-.13 29.37-.23 65.59-.23l65.61.23c0 .13-29.37.24-65.61.24s-65.59-.1-65.59-.24zm5.18-3.99a1.06 1.06 0 1 1-1.06-1.06 1.06 1.06 0 0 1 1.06 1.06z"/><ellipse cx="123.08" cy="325.63" rx="1.05" ry="1.06"/><ellipse cx="126.63" cy="325.63" rx="1.05" ry="1.06"/><path d="M126.63 338.88h35.03v35.34h-35.03zm102.02 9.99c0 .13-13.66.23-30.51.23s-30.51-.1-30.51-.23 13.66-.24 30.51-.24l30.51.24zm0 6.56c0 .14-13.66.24-30.51.24s-30.51-.1-30.51-.24 13.66-.23 30.51-.23l30.51.23zm0 6.57c0 .13-13.66.24-30.51.24s-30.51-.11-30.51-.24 13.66-.24 30.51-.24l30.51.24zm-24.96 6.57a8.83 8.83 0 0 1-1.41.09l-3.87.08-12.75.07c-4.98 0-9.49 0-12.75-.07l-3.86-.08a8.9 8.9 0 0 1-1.42-.09 8.9 8.9 0 0 1 1.42-.09l3.86-.08 12.75-.07 12.75.07 3.87.08a8.83 8.83 0 0 1 1.41.09zm-74.86 17.57h16.46v16.61h-16.46zm29.85 0h16.46v16.61h-16.46zm29.85 0h16.46v16.61h-16.46zm29.86 0h16.46v16.61h-16.46z"/><path d="M636.07 239.7a28.33 28.33 0 0 1-7.52.19l-3.88 5.79-10.76-4.15 1-6.9a28.39 28.39 0 0 1-5.45-5.18l-6.83 1.35-4.63-10.54 5.58-4.16a28.25 28.25 0 0 1-.18-7.51l-5.79-3.88 4.11-10.71 6.9 1a28.12 28.12 0 0 1 5.18-5.45l-1.35-6.84L623 178l4.16 5.58a28.32 28.32 0 0 1 7.52-.18l3.88-5.79 10.76 4.15-1 6.9a28.34 28.34 0 0 1 5.45 5.17l6.83-1.34 4.66 10.51-5.59 4.16a28.25 28.25 0 0 1 .18 7.51l5.79 3.88-4.14 10.76-6.9-1a28.11 28.11 0 0 1-5.18 5.45l1.35 6.83-10.54 4.68-4.16-5.59zm.08-16.54a12.37 12.37 0 1 0-16.32-6.29 12.37 12.37 0 0 0 16.32 6.29zM149.85 82.15a18.71 18.71 0 0 1-5 .12l-2.58 3.86-7.17-2.76.67-4.6a18.8 18.8 0 0 1-3.63-3.45l-4.56.9-3.11-7 3.72-2.77a18.72 18.72 0 0 1-.12-5l-3.86-2.59 2.79-7.21 4.6.67a19.09 19.09 0 0 1 3.4-3.63l-.9-4.55 7-3.12 2.77 3.73a18.73 18.73 0 0 1 5-.13l2.59-3.85 7.17 2.76-.67 4.6a19.09 19.09 0 0 1 3.63 3.45l4.55-.9 3.12 7-3.73 2.78a18.72 18.72 0 0 1 .13 5l3.86 2.58-2.77 7.17-4.59-.67a18.86 18.86 0 0 1-3.46 3.63l.9 4.56-7 3.11-2.78-3.72zm.06-11A8.25 8.25 0 1 0 139 66.93a8.24 8.24 0 0 0 10.91 4.2z" class="h"/><path d="M107.89 160.26v-.94-2.73-10.45l-.08-38 .14.14H17.78h0l.18-.18v52.17l-.17-.17 64.86.09h18.63 5 0-4.94-18.58l-65 .08h-.17v-.18-52.17-.19h.2 90.17.04v.15l-.07 38.14v10.41 2.71l-.04 1.12z"/><path d="M107.93 114.4c0 .11-20.18.19-45.05.19s-45.06-.08-45.06-.19 20.17-.18 45.06-.18l45.05.18z"/></g><path d="M25.52 123.01h27.86v27.86H25.52z" class="j"/><g class="a"><path d="M101.35 127.6a1.2 1.2 0 0 1-.41 0h-1.17l-4.32.06-14.26.06-14.26-.06-4.32-.06h-1.17a1.2 1.2 0 0 1-.41 0h.41 1.17l4.32-.06h14.26 14.26l4.32.06h1.17zm.9 6.22a1.24 1.24 0 0 1-.42 0h-1.2l-4.42.06H81.64 67.07l-4.42-.06h-1.2a1.24 1.24 0 0 1-.42 0h.42 1.2l4.42-.06 14.57-.05 14.57.05 4.42.06h1.2zm0 6.23h-.42-1.2l-4.42.06H81.64 67.07l-4.42-.06h-1.2-.42a1.24 1.24 0 0 1 .42 0h1.2l4.42-.06 14.57-.06 14.57.06 4.42.06h1.2a1.24 1.24 0 0 1 .42 0zm0 6.22a1.69 1.69 0 0 1-.42 0h-1.2l-4.42.06H81.64 67.07l-4.42-.06h-1.2a1.69 1.69 0 0 1-.42 0 1.69 1.69 0 0 1 .42 0h1.2l4.42-.06h14.57 14.57l4.42.06h1.2a1.69 1.69 0 0 1 .42 0zm406.99-90.2v-.64-1.84-7.05l-.05-25.7.1.1h-60.88 0l.13-.13v35.23l-.12-.12 43.79.06h12.58 3.38-3.33-12.55-43.87-.11v-.11-35.23-.12h.13 60.88.09v.09l-.05 25.75v7 1.83c0 .42-.12.88-.12.88z"/><path d="M509.26 25.11c0 .07-13.62.12-30.41.12s-30.42-.05-30.42-.12 13.62-.11 30.42-.11l30.41.11z"/></g><path d="M453.63 30.92h18.81v18.81h-18.81z" class="j"/><path d="M504.82 34a.84.84 0 0 1-.28 0h-.79-2.92-9.62-9.62-2.92-.79a.84.84 0 0 1-.28 0 1 1 0 0 1 .28 0h.79 2.92 9.62 9.62 2.92.79a1 1 0 0 1 .28 0zm.61 4.22a.94.94 0 0 1-.29 0h-.81-3-9.84-9.84-3-.81a.9.9 0 0 1-.28 0h.28.81 3 9.84 9.84 3 .81zm0 4.2h-.29-.81-3-9.84-9.84-3-.81-.28a.9.9 0 0 1 .28 0h.81 3 9.84 9.84 3 .81a.94.94 0 0 1 .29 0zm0 4.2a1.11 1.11 0 0 1-.29 0h-.81-3-9.84-9.84-3-.81a1.07 1.07 0 0 1-.28 0 .9.9 0 0 1 .28 0h.81 3 9.84 9.84 3 .81a.94.94 0 0 1 .29 0z" class="a"/><path d="M601.25 348.7a12 12 0 0 0-6.77 6.44 21.14 21.14 0 0 0-1.65 9.38c.16 6.19 3.1 12.69 6.43 17.92 5.56-4.05 7.43-11.81 8.14-15.81 1.11-6.31-.7-18.41-6.15-17.93m-8.89 43.3a10.14 10.14 0 0 0-2.43-9.93 13.52 13.52 0 0 0-9.66-4c-1.65 0-3.47.3-4.53 1.57a4.37 4.37 0 0 0-.45 4.39 8.78 8.78 0 0 0 3 3.49c4.23 3.2 8.91 5.52 14.1 4.45" class="k"/><g class="a"><path d="M597.23 406.76a19.94 19.94 0 0 0-.34-4.08 19.4 19.4 0 0 0-1.19-4.32 42.37 42.37 0 0 0-2.25-5 20.35 20.35 0 0 0-6.65-7.33 15 15 0 0 0-2.71-1.34 3.55 3.55 0 0 0-1.07-.27c0 .12 1.46.6 3.5 2a21.93 21.93 0 0 1 6.33 7.26 50.44 50.44 0 0 1 2.25 4.88 20.17 20.17 0 0 1 1.3 4.17 28.63 28.63 0 0 0 .83 4.03z"/><path d="M601.83 358a11.06 11.06 0 0 0-.39 2l-.78 5.59a534.7 534.7 0 0 0-2.1 18.49c-.69 7.23-1.13 13.82-1.35 18.58l-.19 5.64a11.5 11.5 0 0 0 0 2.07 12.55 12.55 0 0 0 .23-2.06l.41-5.62 1.55-18.54 1.89-18.5.57-5.62a13.23 13.23 0 0 0 .16-2.03z"/></g><path d="M600,395.08A23.83,23.83,0,0,1,616.52,381c1.88-.42,4.2-.44,5.3,1.13s.28,3.77-.8,5.36A20.35,20.35,0,0,1,600,395.6" class="k"/><path d="M614.1 386.06a3 3 0 0 0-1.05.27c-.67.21-1.62.57-2.77 1.06a26.89 26.89 0 0 0-8.24 5.29 17.16 17.16 0 0 0-3.19 4.41 16.78 16.78 0 0 0-1.37 4.23 15.73 15.73 0 0 0-.25 3 3 3 0 0 0 .08 1.09c.13 0 .13-1.55.65-3.95a18 18 0 0 1 1.46-4 17.27 17.27 0 0 1 3.11-4.2 30.3 30.3 0 0 1 8-5.35 36.61 36.61 0 0 0 3.57-1.85z" class="a"/><path d="M666.24 410.44c0 .14-149.15.26-333.1.26S0 410.58 0 410.44s149.12-.26 333.14-.26l333.1.26z" class="Y"/><use xlink:href="#B" class="b"/><use xlink:href="#B" class="i"/><g class="Y"><path d="M55 410.15a5.63 5.63 0 0 0 1.9 0 11.49 11.49 0 0 0 2.24-.57 9.56 9.56 0 0 0 2.77-1.58 3.91 3.91 0 0 0 1.14-1.52 6.94 6.94 0 0 0 .32-2.06 21.47 21.47 0 0 1 .16-2.23 6.18 6.18 0 0 1 .85-2.22c.81-1.43 2.16-2.79 2.6-4.73a15.66 15.66 0 0 0-.19-6 12.89 12.89 0 0 1 .16-6.49c.74-2.15 2.25-4.1 3-6.53s.4-5.1.56-7.71a10.42 10.42 0 0 1 .9-3.83c.56-1.22 1.33-2.37 1.94-3.66 1.22-2.6 1.44-5.54 1.77-8.43l.5-4.41a21.22 21.22 0 0 1 .77-4.41 37.18 37.18 0 0 1 1.65-4.27 15.91 15.91 0 0 0 .8-2.23c.13-.82.17-1.58.22-2.38a28.24 28.24 0 0 0-.18-4.77l-.65-4.77v-.27-.32l-.28.14a10.62 10.62 0 0 0-3.77 3.1 17.24 17.24 0 0 0-2.29 4.21 51.86 51.86 0 0 0-2.14 9 24.57 24.57 0 0 1-2.84 8.35c-.75 1.23-1.67 2.35-2.47 3.55a9.74 9.74 0 0 0-1.71 3.93c-.41 2.92 1.2 5.48.86 8.07a9 9 0 0 1-1.26 3.58c-.62 1.1-1.36 2.12-2.06 3.15a20.39 20.39 0 0 0-1.85 3.18 10.16 10.16 0 0 0-.85 3.46c-.17 2.33.16 4.54 0 6.62a15.19 15.19 0 0 1-1.7 5.67l-2.54 4.72a24.12 24.12 0 0 0-1 2.2 10.2 10.2 0 0 0-.61 2.18 13.78 13.78 0 0 0-.05 3.94 9.92 9.92 0 0 0 2 5 4.94 4.94 0 0 0 .56.61 2.75 2.75 0 0 0 .45.38l.4.28a8.92 8.92 0 0 1-1.34-1.32 10 10 0 0 1-1.87-5 13.45 13.45 0 0 1 .09-3.88 10 10 0 0 1 .61-2.13 23.83 23.83 0 0 1 1-2.17l2.57-4.71a15.53 15.53 0 0 0 1.77-5.77c.18-2.13-.14-4.35 0-6.62a9.61 9.61 0 0 1 .84-3.34 19.1 19.1 0 0 1 1.83-3.12l2.08-3.17A9.26 9.26 0 0 0 64 365.2c.33-2.75-1.26-5.34-.85-8.05a9.37 9.37 0 0 1 1.66-3.76l2.48-3.56a24.8 24.8 0 0 0 2.9-8.48 51 51 0 0 1 2.14-9 16.13 16.13 0 0 1 2.22-4.1 10.12 10.12 0 0 1 3.56-3l-.32-.18v.28l.65 4.77a28.47 28.47 0 0 1 .18 4.7c0 .77-.09 1.58-.21 2.3a13.64 13.64 0 0 1-.78 2.16 38.72 38.72 0 0 0-1.63 4.35 21.9 21.9 0 0 0-.78 4.49l-.49 4.41c-.33 2.9-.54 5.8-1.72 8.31-.58 1.25-1.36 2.4-1.93 3.66a10.71 10.71 0 0 0-.93 4c-.15 2.66.2 5.26-.52 7.62s-2.22 4.31-3 6.53a13 13 0 0 0-.15 6.64 15.41 15.41 0 0 1 .22 5.94c-.39 1.85-1.71 3.19-2.54 4.66a6.35 6.35 0 0 0-.85 2.31 19.93 19.93 0 0 0-.15 2.26 6.66 6.66 0 0 1-.29 2 3.67 3.67 0 0 1-1.07 1.45 9.26 9.26 0 0 1-2.71 1.53 11.43 11.43 0 0 1-2.21.6 7.78 7.78 0 0 1-1.4.13z"/><path d="M76.8 328.87s0 .06-.07.2l-.15.62-.56 2.39c-.26 1.02-.89 2.18-1.43 3.61a50.64 50.64 0 0 0-1.59 4.89l-1.48 6.07a25.2 25.2 0 0 1-2.21 6.74l-1.71 3.5a16.42 16.42 0 0 0-1 4 77.91 77.91 0 0 1-1.49 8.34l-3.9 15.95-3.27 13-2.17 8.78-.56 2.39-.14.62a.61.61 0 0 0 0 .22.8.8 0 0 0 .07-.21c0-.16.11-.36.18-.61l.65-2.37 2.31-8.74 3.36-13c1.27-4.9 2.47-10.26 3.86-15.97a76.58 76.58 0 0 0 1.5-8.38 15.71 15.71 0 0 1 1-3.86c.48-1.21 1.11-2.34 1.68-3.47a25.83 25.83 0 0 0 2.2-6.85c.47-2.19.92-4.23 1.42-6.06s1-3.48 1.57-4.89 1.11-2.59 1.37-3.65.37-1.86.48-2.42l.11-.63c-.03-.14-.02-.21-.03-.21z"/></g><path d="M56.22 410.17c4.5-2.68 5.8-10.81 3.92-15.7s-5.14-9.37-5.68-14.59c-.39-4 .92-8.13 0-12.05-1.26-5.29-6.43-9.39-6.37-14.82 0-3.06 1.77-5.93 1.63-9-.17-3.74-3-6.7-4.81-10-2.73-5-2.9-11-3.84-16.65S38 305.67 33 302.89c-.74 4.8-2 8.09-1.61 14.59.15 2.33 2.86 6.81 3.23 11.92l.56 9.19a29.33 29.33 0 0 0 1.44 8.8c.82 2.13 2.13 4.07 2.74 6.28 1.14 4.14-.36 8.64.56 12.84.79 3.56 3.25 6.62 3.75 10.24.71 5.07-2.57 10.34-.89 15.18.83 2.4 2.81 4.33 3.37 6.81.43 1.92 0 4 .35 5.89.64 3.11 6.58 5.53 9.75 5.34" class="l"/><path d="M34.21 307.65a1.17 1.17 0 0 0 0 .28c0 .2.06.46.1.78l.46 3c.24 1.28.93 2.82 1.48 4.61l1.65 6.17 1.39 7.63a32.36 32.36 0 0 0 2.31 8.62l1.88 4.42a20.41 20.41 0 0 1 1 4.87 96.55 96.55 0 0 0 1.32 10.5l3.89 20.05 3.36 16.33 2.3 11 .64 3q.12.48.18.78a.91.91 0 0 0 .08.26v-.27c0-.17-.08-.46-.14-.79l-.57-3-2.16-11-3.26-16.35-3.85-20A98.12 98.12 0 0 1 44.88 348a20.56 20.56 0 0 0-1-5c-.55-1.57-1.27-3-1.9-4.44a31.62 31.62 0 0 1-2.32-8.52l-1.46-7.64a63 63 0 0 0-1.72-6.17l-1.54-4.57-.54-3-.14-.78a1.23 1.23 0 0 0-.05-.23zM544.6 91.08a3.26 3.26 0 0 1 0 .39v1.09l.06 4.09.11 14.42-.22-.23h20l-.26.26h0v-5.37-5.17-9.43l.23.22-14.42-.11-4.09-.06h-1.09-.39a1.34 1.34 0 0 1 .34 0h1l4-.06 14.57-.12h.22v.23 9.43 5.17 5.37h0l-.26.26h-20-.23v-.22l.12-14.57.06-4v-1a1.34 1.34 0 0 1 .25-.59z" class="Y"/><path d="M568.76 86.61c.33.28-4 6.06-9.6 12.92l-3.37 4-.5.59-.55-.5C550 99.46 546.82 96.3 547 96s3.82 2.47 8.66 6.51l-1.05.09 3.31-4.1c5.67-6.82 10.51-12.16 10.84-11.89z" class="Z"/><path d="M554 70.75a3.8 3.8 0 0 1 .5 0l1.46.05h1.08l1.29.19 1.51.21 1.68.42a27.28 27.28 0 0 1 8.16 3.56 29.19 29.19 0 0 1 8.44 8.22 29.57 29.57 0 0 1 4.79 13.42 30.34 30.34 0 0 1 .08 3.94c-.05.67 0 1.35-.13 2l-.31 2a28.82 28.82 0 0 1-2.74 8 30.83 30.83 0 0 1-5.25 7.22 30.34 30.34 0 0 1-7.55 5.43 27.35 27.35 0 0 1-9.21 2.82 18.28 18.28 0 0 1-2.46.21 20.49 20.49 0 0 1-2.48 0 29.9 29.9 0 0 1-5-.63 29.06 29.06 0 0 1-9.86-4.01h.3l-10.08 4-.6.24.17-.62 3-10.78v.27a28.9 28.9 0 0 1-5.38-12.33 26 26 0 0 1-.4-6.31 21.6 21.6 0 0 1 .29-3l.23-1.47c.08-.47.24-1 .35-1.43A28.87 28.87 0 0 1 537.12 76a27.77 27.77 0 0 1 6.7-3.53l1.51-.54 1.43-.36 1.31-.33 1.21-.18 2-.26h1.48.9a1.43 1.43 0 0 1 .31 0 .92.92 0 0 1-.31 0l-.9.08-1.47.1c-.58 0-1.25.19-2 .3a28.68 28.68 0 0 0-22.93 21.27l-.34 1.41-.22 1.45a19.4 19.4 0 0 0-.27 3 26 26 0 0 0 .41 6.19 28.48 28.48 0 0 0 5.31 12.06l.09.12v.14l-2.94 10.79-.43-.38 10.03-4.1.16-.06.14.09a28.56 28.56 0 0 0 9.68 4.07 29.78 29.78 0 0 0 4.86.62h2.43a17.27 17.27 0 0 0 2.4-.2 26.85 26.85 0 0 0 9-2.76 29.65 29.65 0 0 0 7.4-5.29 30.19 30.19 0 0 0 5.15-7.05 28.44 28.44 0 0 0 2.71-7.86l.31-2c.1-.67.09-1.33.14-2a28.41 28.41 0 0 0-12.95-25.26 27.51 27.51 0 0 0-8-3.61l-1.67-.45-1.49-.24L557 71c-.39 0-.75-.06-1.07-.08l-1.45-.11a3.3 3.3 0 0 1-.48-.06z" class="f"/><path d="M519.3 331.42a32.21 32.21 0 0 1-6.95-4.89l-7.41 2.64-7-11 5.55-5.58a32.07 32.07 0 0 1-1.45-8.37l-7.04-3.37 2.85-12.71h7.87a31.91 31.91 0 0 1 4.89-6.94l-2.64-7.42 11-7 5.58 5.56a31.66 31.66 0 0 1 8.36-1.46l3.38-7.11 12.71 2.86v7.87a32.15 32.15 0 0 1 6.94 4.89l7.41-2.64 7 11-5.56 5.58a32.5 32.5 0 0 1 1.46 8.37l7.1 3.37-2.85 12.71h-7.87a31.57 31.57 0 0 1-4.89 6.94l2.64 7.42-11 7-5.58-5.56a31.66 31.66 0 0 1-8.4 1.42l-3.4 7.14-12.71-2.85v-7.87zm11.2-15a14 14 0 1 0-10.57-16.69 14 14 0 0 0 10.57 16.73z" class="Z h"/><path d="M609.18 294.25a6 6 0 0 1-1.91-.6 8.2 8.2 0 0 1-4.6-7.6 8.31 8.31 0 0 1 1.28-4.19 7.85 7.85 0 0 1 1.56-1.81 8.06 8.06 0 0 1 2.11-1.34 8.26 8.26 0 0 1 9.61 2.16 7.61 7.61 0 0 1 1.34 2.11 7.74 7.74 0 0 1 .63 2.3 8.32 8.32 0 0 1-.62 4.34 8.19 8.19 0 0 1-2.3 3 8 8 0 0 1-5.11 1.86 6.31 6.31 0 0 1-2-.27c0-.06.71.14 2 .09a8 8 0 0 0 5.72-13.17 7.87 7.87 0 0 0-9.09-2 7.13 7.13 0 0 0-2 1.26 7.71 7.71 0 0 0-1.49 1.7 8.09 8.09 0 0 0-1.26 4 8 8 0 0 0 .7 3.59 8.1 8.1 0 0 0 3.6 3.84c1.13.55 1.85.67 1.83.73zm-6.5 8.67a1.64 1.64 0 0 1 0 .29v.86 3.42l-.06-.07 7.38 1.61-.13.06 2.03-4.09v-.07h.1a18.47 18.47 0 0 0 4.81-.85h.09l.07.07 3.24 3.21h-.2l6.37-4.06-.08.21-1.54-4.29v-.11l.08-.09a18.06 18.06 0 0 0 2.8-4l.06-.11h4.69l-.21.16 1.65-7.38.12.25-4.13-2-.12-.06v-.13a18.5 18.5 0 0 0-.84-4.79v-.13l.09-.1 3.22-3.24v.28l-4-6.38.27.1L624 273l-.14.05-.1-.1a18.35 18.35 0 0 0-4-2.8h0c-.06-.09.12.21-.13-.21h0v-4.55l.18.23-7.37-1.66.26-.13-2 4.13-.06.12h-.14a18.36 18.36 0 0 0-4.8.83h-.13l-.09-.1-3.24-3.22h.28l-6.39 4 .09-.26 1.53 4.31v.12l-.09.09a18.56 18.56 0 0 0-2.81 4l-.06.11h-4.68l.19-.15-1.67 7.37-.1-.2 4.12 2h.09v.1a18.52 18.52 0 0 0 .83 4.81v.09l-.07.07-3.23 3.22v-.17l4 6.4h-.12l4.31-1.5h0 0a18.77 18.77 0 0 0 2.93 2.26l.78.47.26.16-.27-.12c-.19-.09-.46-.23-.81-.44a17.32 17.32 0 0 1-3-2.22h.07l-4.29 1.56h-.08v-.07l-4.08-6.37-.06-.09.08-.08 3.21-3.25v.16a18.24 18.24 0 0 1-.87-4.9l.09.15-4.12-1.95-.13-.06v-.14l1.64-7.38v-.15h.16 4.56l-.18.11a18.68 18.68 0 0 1 2.87-4.07l-.05.21-1.53-4.3-.06-.16.14-.1 6.38-4.05.15-.09.13.12 3.24 3.22-.23-.05a18.73 18.73 0 0 1 4.91-.86l-.2.13 2-4.12.08-.17h.18l7.37 1.65h.18v.19 2.27 2.28h0l-.12-.2h0a19 19 0 0 1 4.08 2.87l-.24-.05 4.3-1.53.18-.06.1.16 4 6.38.1.15-.13.13-2.97 3.4.06-.23a19 19 0 0 1 .85 4.91l-.13-.19 4.12 2 .16.08v.17l-1.66 7.37v.16h-4.81l.18-.1a19.11 19.11 0 0 1-2.87 4.06v-.19l1.52 4.3.05.14-.13.08-6.39 4-.11.07-.09-.1-3.23-3.23h.15a18.94 18.94 0 0 1-4.89.84l.12-.08-2 4.11v.09h-.09l-7.36-1.7h-.06v-.06q0-2.21 0-3.39v-.87c0-.21.08-.31.08-.32z" class="Y"/><g class="g h"><use xlink:href="#C"/><use xlink:href="#C" opacity=".4"/></g><path d="M202.5 77.09a1.25 1.25 0 0 1-.36.19 4.65 4.65 0 0 1-1.12.35 6.29 6.29 0 0 1-4.23-.63 6.55 6.55 0 0 1 4.55-12.14 6.52 6.52 0 0 1 4.93 7.94 6.36 6.36 0 0 1-2.37 3.56 5.13 5.13 0 0 1-1 .59 1.39 1.39 0 0 1-.39.14s.5-.26 1.27-.89a6.3 6.3 0 0 0 2.14-3.48 6.15 6.15 0 0 0-1.59-5.64 6 6 0 0 0-3.09-1.72 6.07 6.07 0 0 0-6.57 2.92 6 6 0 0 0-.8 3.44 6.16 6.16 0 0 0 3.11 5 6.27 6.27 0 0 0 4 .75c1.02-.19 1.5-.47 1.52-.38zm-.04 8.47l.15.17.41.52 1.64 2.12h-.1l5.38-2.44-.08.14-.71-3.49v-.09l.07-.06a14.8 14.8 0 0 0 2.62-2.77l.06-.09h.1l3.53.5-.2.12 2.11-5.52.08.24-3-2-.11-.07v-.13a14.3 14.3 0 0 0-.1-3.79v-.14l.11-.08 2.85-2.14-.07.29-2.4-5.4.26.14-3.49.69h-.15l-.1-.11a14.24 14.24 0 0 0-2.74-2.61l-.12-.09v-.15l.51-3.53.16.27-5.49-2.06.31-.09-2 3-.09.13h-.16a13.69 13.69 0 0 0-3.77.09h0l-.26-.1h0 0 0l-.07-.09-.13-.18-.27-.36-.53-.72-1.07-1.43.32.09-5.4 2.39.14-.28.69 3.5v.15l-.12.1a14.34 14.34 0 0 0-2.61 2.73l-.09.13h-.15l-3.53-.52.27-.16-2.12 5.34-.09-.29 3 2 .11.08v.14a14.45 14.45 0 0 0 .08 3.78v.14l-.1.08-2.87 2.13.07-.27 2.38 5.41-.22-.11 3.5-.68h.11l.07.08a14.48 14.48 0 0 0 2.75 2.64l.08.06V83l-.54 3.53-.09-.17 5.49 2.16h-.13l2-3h0 .05a15.56 15.56 0 0 0 2.89.07l.71-.06h.24l-.23.06c-.16 0-.39.07-.71.1a13.52 13.52 0 0 1-2.92 0h.08l-2 3-.05.07h-.09l-5.52-2.09h-.12v-.13l.5-3.53.07.16a14.45 14.45 0 0 1-2.84-2.67l.18.06-3.5.71h-.15l-.07-.15-2.41-5.39-.07-.16.14-.1 2.86-2.14-.09.22a14.25 14.25 0 0 1-.1-3.92l.1.22-3-2-.16-.11.07-.17 2.17-5.57.07-.18h.2l3.53.51-.24.1a14.8 14.8 0 0 1 2.7-2.84l-.09.25q-.35-1.74-.69-3.51v-.2l.19-.08 5.4-2.4.19-.08.12.16.99 1.49.54.72.27.36.13.18.07.09h0 0 0l-.25-.11h0a14.71 14.71 0 0 1 3.91-.09l-.24.11 2-3 .11-.17.19.07 5.51 2.13.2.07v.2l-.52 3.54-.11-.25a14.71 14.71 0 0 1 2.84 2.71l-.24-.09 3.5-.69h.19l.08.17 2.39 5.41.07.17-.15.11-2.86 2.12.08-.21a14.35 14.35 0 0 1 .09 3.91l-.09-.21 3 2 .13.09-.06.16-2.14 5.5v.14h-.15l-3.53-.53.16-.07a14.75 14.75 0 0 1-2.69 2.81v-.15l.67 3.5v.11h-.1l-5.41 2.35h-.07v-.06L203 86.33l-.39-.56a1.21 1.21 0 0 1-.15-.21z" class="b"/><path d="M202.5 77.09l-.18.07a5 5 0 0 1-.56.19 5.92 5.92 0 0 1-2.26.26 6.36 6.36 0 1 1 2.18-12.47 6.46 6.46 0 0 1 3.1 2 6.44 6.44 0 0 1 .79 7.39 6.84 6.84 0 0 1-1.26 1.63 7.2 7.2 0 0 1-.81.65l-.44.28-.22.13-.11.06h0 0 0a.26.26 0 0 0 0-.28l-.3-.13a4.08 4.08 0 0 0 .74-.35 6.16 6.16 0 0 0 2.83-6.65 6.272 6.272 0 0 0-12.28 2.56 6.36 6.36 0 0 0 5.76 5.18 6.46 6.46 0 0 0 2.26-.25c.51-.15.75-.29.76-.27a2.28 2.28 0 0 1-.72.37 5.84 5.84 0 0 1-2.31.35A6.52 6.52 0 0 1 196 76.6a6.63 6.63 0 0 1-2.62-4.1 6.71 6.71 0 1 1 10.08 4.44 4.3 4.3 0 0 1-.87.4l-.2.06-.1-.19c-.09-.17.07-.36 0-.31v-.05h0 .06l.11-.07.21-.12.41-.26a6.36 6.36 0 0 0 .75-.6 6 6 0 0 0-2.4-10.14 6 6 0 0 0-5.87 1.55 6.05 6.05 0 0 0-1.56 5.05 6.12 6.12 0 0 0 2.28 3.88 6.46 6.46 0 0 0 3.22 1.28 6.56 6.56 0 0 0 2.21-.17c.52-.11.78-.25.79-.16zm-.04 8.47l2.16 2.9h-.07l5.51-2.46-.06.1-.7-3.57h.21v.11l-.17-.13a14.18 14.18 0 0 0 2.66-2.78l.15.19-.15.08v-.24l3.63.53-.15.09 2.21-5.72v.18l-3.06-2 .23-.2.07.14h-.3a14.71 14.71 0 0 0-.1-3.84h.32l-.06.15-.26-.2 3-2.21-.06.22-2.47-5.64.2.1-3.63.72v-.37l.17.06-.22.31a14.19 14.19 0 0 0-2.79-2.65l.31-.24.07.17h-.39l.54-3.67.13.22-5.79-2.22.26-.08-2.07 3.09-.27-.32.17-.08.07.42a14.68 14.68 0 0 0-3.84.09h0v-.43h0l-.17.42h0 .09l.14-.39h0 0 .06l.12.05-.26.35-2.22-3 .27.07-5.66 2.52.14-.26.72 3.64h-.46l.07-.17.37.26a14.65 14.65 0 0 0-2.64 2.78l-.29-.36.17-.07.06.46-3.67-.53.24-.15-2.21 5.77-.09-.3 3.08 2.06-.37.31-.07-.15.47-.08a15 15 0 0 0 .1 3.82h-.48l.06-.15.39.3-3 2.21.08-.31 2.51 5.61-.29-.15 3.61-.72v.49l-.12-.05.28-.4a14.84 14.84 0 0 0 2.78 2.62l-.39.31v-.11l.49-.07-.51 3.62-.17-.28 5.67 2.16-.31.1 2-3 .33.37h-.06l-.08-.49a13.34 13.34 0 0 0 3.27-.07h.27a.08.08 0 0 0 0 0h0 0c-.08 0 0 .39.14.34h.09l-.55.05c-.36 0-.74.07-1.12.08a15.07 15.07 0 0 1-2.23-.1l.25-.11-2 3-.29-.39h.09v.49l-5.5-2.15.31-.37.07.11-.48.09.54-3.6.1.25a14.53 14.53 0 0 1-2.91-2.79l.25.09-3.58.7.07-.48.15.08-.35.33q-1.22-2.73-2.38-5.41h.47v.18l-.4-.27 2.94-2.18-.1.24a14.62 14.62 0 0 1-.09-4.07l.11.24-3-2 .37-.28.06.2h-.46l2.13-5.5.35.29-.19.11-.08-.45 3.63.54-.23.09a14.65 14.65 0 0 1 2.82-3L191 60l-.71-3.6.44.06-.11.2-.3-.33 5.4-2.38v.43l-.22-.06.24-.36 2.13 2.87-.1-.08h.12.06 0l-.25.13.09.28h0l.16-.42h-.1a14.41 14.41 0 0 1 4-.08l-.21.1 2-3.06.25.33-.22.07v-.41l5.51 2.13-.25.3-.11-.2.38-.07-.53 3.64-.08-.19a14.57 14.57 0 0 1 2.94 2.8l-.19-.07 3.6-.71v.35l-.18-.09.26-.25 2.39 5.4h-.34l.06-.19.27.18-2.92 2.28.07-.16a14.53 14.53 0 0 1 .1 4l-.07-.15 3 2-.23.18-.06-.17h.29l-2.13 5.51-.19-.16.14-.08.05.25-3.61-.53h.12a14.28 14.28 0 0 1-2.75 2.89v-.11l.7 3.57h-.17l.05-.1.21.06-5.4 2.39v-.11h.07l-.06.09-2.13-2.86a6.35 6.35 0 0 1 .57.67l1.65 2.12.11.13h-.17-.07-.15l.15-.07 5.37-2.46.24-.11-.18.21-.06.1-.12.23-.05-.26-.73-3.55v-.07h.06a14.75 14.75 0 0 0 2.68-2.86v-.06h.08l3.6.5.38.06-.33.19-.14.08-.32.19.13-.35 2.1-5.52.15-.41.13.41.06.17.13.41-.36-.23-3-2h-.08v-.1a14.36 14.36 0 0 0-.11-4v-.1l.08-.06 2.93-2.2.4-.3-.12.49-.05.19-.13.49-.21-.46-2.41-5.39-.22-.49.48.24.19.1.47.25-.52.1-3.6.72h-.12l-.07-.1a14.43 14.43 0 0 0-2.88-2.72l-.1-.07v-.12l.52-3.64.09-.58.3.51.11.19.3.51-.56-.21-5.51-2.12-.57-.26.58-.19.22-.06.58-.19-.34.51L202 57l-.08.11h-.13a14.16 14.16 0 0 0-3.84.08h-.08 0 0v-.1h0l.08-.21v-.07h.06l.09.29-.24.13h-.06-.06-.12-.06v-.05l-2.14-2.86-.39-.52.63.17h.22l.63.17-.59.26-5.4 2.4-.61.28.31-.6.1-.2.31-.59.13.65.71 3.61v.14l-.11.09a14.34 14.34 0 0 0-2.69 2.82l-.08.12h-.15l-3.63-.53-.69-.1.6-.35.18-.11.61-.35-.26.65q-1 2.71-2.12 5.51l-.25.66-.22-.67-.06-.2-.22-.68.59.4 3.05 2 .13.09v.15a14 14 0 0 0 .09 3.93v.15l-.13.09-2.94 2.19-.58.43.18-.7.05-.18.19-.71.29.67 2.39 5.4.29.67-.65-.34-.15-.08-.65-.34.72-.14 3.58-.69h.15l.1.12a14.4 14.4 0 0 0 2.82 2.69l.12.09V83l-.54 3.6-.11.73-.37-.64-.06-.11-.38-.65.69.28 5.51 2.14.68.27-.7.22h-.1l-.71.23.42-.62 2-3 .09-.13h.15a15.48 15.48 0 0 0 2.16.09c.36 0 .72 0 1.08-.07l.57-.06h.14c.09 0 .22.36.14.35h0-.05l-.12.07a.73.73 0 0 1-.26.09h-.28a13.42 13.42 0 0 1-3.4.06l-1-.09.86-.4h.06l.83-.39-.5.77-2 3-.11.18-.2-.08-5.66-2.15-.19-.07v-.21l.51-3.62.13-.92.37.86v.11l.36.85-.74-.54a15 15 0 0 1-2.88-2.72l-.58-.72.87.32h.13l.86.31-.9.18-3.61.72h-.2l-.08-.19-2.5-5.6-.08-.19.16-.12 3-2.21.72-.54-.34.84-.06.15-.34.83-.14-.89a14.65 14.65 0 0 1-.1-4l.09-.9.38.82.07.15.38.81-.74-.5-3-1.8-.16-.11.07-.18 2.22-5.77.07-.18h.19l3.67.53.86.13-.8.33-.17.08-.79.33.5-.7a15.31 15.31 0 0 1 2.73-2.87l.67-.53-.3.8-.06.17-.29.8-.17-.83-.71-3.65v-.18l.17-.08 5.67-2.5.16-.08.11.15 2.22 3 .48.64-.75-.3h-.12-.06 0 0l.14-.39h.05 0l-.1.27h0l-.06.12h0l-.59-.24.61-.18h0a14.64 14.64 0 0 1 3.95-.09l.78.09-.71.33-.18.07-.71.34.44-.66 2.07-3.08.1-.14.16.06 5.77 2.24.16.06v.16l-.54 3.67-.11.72-.28-.67-.07-.17-.27-.66.58.42a15.2 15.2 0 0 1 2.85 2.73l.44.55-.66-.24-.16-.06-.66-.25.69-.13 3.63-.71h.15l.06.13 2.49 5.65.05.13-.11.09-3 2.19-.49.37.23-.57.06-.15.23-.56.09.6a14.58 14.58 0 0 1 .08 3.94l-.06.57-.24-.52-.07-.14-.24-.53.48.33 3.05 2.06.1.07v.11l-2.23 5.7v.11h-.11l-3.73-.64-.44-.07.41-.17h.11l.41-.17-.26.36a14.6 14.6 0 0 1-2.71 2.82l-.31.24.13-.37v-.1l.14-.37.07.39.68 3.58v.07h-.07l-5.53 2.38h0 0L203 86.33l-.39-.57z" class="i"/><g class="b"><use xlink:href="#D"/><use xlink:href="#E"/><use xlink:href="#F"/></g><path d="M242.24 60.85a18.72 18.72 0 0 1-5 .12l-2.59 3.86-7.17-2.76.67-4.6a19.09 19.09 0 0 1-3.64-3.47l-4.55.9-3.12-7 3.72-2.77a19.14 19.14 0 0 1-.12-5l-3.86-2.59 2.77-7.17 4.59.67a19.15 19.15 0 0 1 3.46-3.63l-.9-4.55 7-3.12 2.78 3.73a18.65 18.65 0 0 1 5-.13l2.59-3.86 7.17 2.77-.67 4.59a18.86 18.86 0 0 1 3.63 3.44l4.56-.9 3.11 7-3.67 2.8a18.71 18.71 0 0 1 .12 5l3.88 2.59-2.76 7.17-4.6-.67a18.8 18.8 0 0 1-3.45 3.63l.9 4.56-7 3.11-2.77-3.72zm0-11a8.24 8.24 0 1 0-10.88-4.19 8.23 8.23 0 0 0 10.93 4.16z" class="Z h"/><g class="g"><use xlink:href="#D"/><use xlink:href="#E"/><use xlink:href="#F"/></g><path d="M265.85,156.86l1.21-.22s9.5,3.15,9.29,1.3c-.28-2.44-8.92-4.72-9.75-4.77-1.38-.07-9.59.64-10.77,1.23s-8.27,7.25-8.27,7.25l8.53,9.3s2.34.3,5.53-2.3c1.61-1.32,4-3.66,4-3.66s-.09-.68.12-.93c.64-.76.2-1.25.2-1.25a1.58,1.58,0,0,0,1.21-1.22,1.18,1.18,0,0,0-.2-.89c-.54-.52-.78-.44-.78-.44a2.35,2.35,0,0,0,1.56-1.49c.26-1.09-1.32-1.64-1.32-1.64" class="d"/><path d="M276.15 158.37a5 5 0 0 1-2.12.18 11.87 11.87 0 0 1-2.29-.34l-2.68-.88-2-.69h.13a29.14 29.14 0 0 1-5.05.59 31.87 31.87 0 0 1 5-1.09h.05.07l2 .66 2.63.91a15 15 0 0 0 2.2.44l2.06.22z" class="e"/><path d="M265.2,157.34l-3.13,2.4a3.65,3.65,0,0,0-1,1,1.16,1.16,0,0,0,0,1.28,1.13,1.13,0,0,0,1,.36,3,3,0,0,0,1-.35,34.38,34.38,0,0,0,3.7-2.08" class="d"/><path d="M267.08 159.77a9.48 9.48 0 0 1-1.66 1.23 11.6 11.6 0 0 1-2 1.1 5.51 5.51 0 0 1-1.3.42 2.13 2.13 0 0 1-.79 0 1.09 1.09 0 0 1-.68-.55 1.45 1.45 0 0 1 .26-1.55 7 7 0 0 1 1-.92l1.78-1.34a7.35 7.35 0 0 1 1.77-1.07 14.46 14.46 0 0 1-1.57 1.32l-1.72 1.42a7.49 7.49 0 0 0-.92.86 1.07 1.07 0 0 0-.21 1.08.92.92 0 0 0 1 .34 6 6 0 0 0 1.21-.36 14.65 14.65 0 0 0 1.95-1 9.53 9.53 0 0 1 1.88-.98z" class="e"/><g class="d"><path d="M265.94,160.6s1-.91,1.37-.84a1.25,1.25,0,0,1,1.22.91c.18.66-.09.88-1.26,2.13"/><path d="M265.94,160.6l-2.58,2.09a3,3,0,0,0-.79.83,1,1,0,0,0,0,1.1.88.88,0,0,0,.8.3,2.31,2.31,0,0,0,.84-.31,28.45,28.45,0,0,0,3-1.81"/></g><path d="M268.49 161.37a3.73 3.73 0 0 1-1.2 1.57 9.67 9.67 0 0 1-1.75 1.27 10.11 10.11 0 0 1-1.14.58 3.09 3.09 0 0 1-1.41.33 1 1 0 0 1-.75-.41 1.1 1.1 0 0 1-.14-.8 2 2 0 0 1 .77-1.14l1.66-1.35a6.76 6.76 0 0 1 1.66-1.06 13.21 13.21 0 0 1-1.46 1.31l-1.58 1.41a1.66 1.66 0 0 0-.61.9.53.53 0 0 0 .49.69 3 3 0 0 0 1.2-.29 11.39 11.39 0 0 0 1.11-.53 12.2 12.2 0 0 0 1.74-1.15c.92-.7 1.35-1.38 1.41-1.33z" class="e"/><path d="M250.76,163.55a2.26,2.26,0,0,0,2.57.48c.88-.33,1.62-.94,2.47-1.32,2.55-1.16,5.72-.17,8.21-1.45.35-.18.72-.51.62-.88s-.52-.47-.88-.53l-9.14-1.51" class="d"/><path d="M254.61 158.34a4.19 4.19 0 0 1 1 .06l2.71.36 4 .61 1.16.18a1.87 1.87 0 0 1 1.28.53.77.77 0 0 1 0 .88 1.51 1.51 0 0 1-.57.5 6 6 0 0 1-1.27.49 34.42 34.42 0 0 1-5 .45 7 7 0 0 0-2 .5c-.59.26-1.12.61-1.64.89a3.31 3.31 0 0 1-2.73.42c-.65-.26-.8-.67-.78-.66a3 3 0 0 0 .84.46 3.15 3.15 0 0 0 2.49-.55l1.64-1a7.32 7.32 0 0 1 2.15-.58 42.71 42.71 0 0 0 4.9-.48 6.18 6.18 0 0 0 1.16-.44c.34-.18.54-.48.41-.63s-.55-.26-.94-.32l-1.16-.2-4-.72-2.68-.52a3.48 3.48 0 0 1-.97-.23z" class="e"/><g class="d"><path d="M266.55,163.47s.72-.67,1-.62a.94.94,0,0,1,.91.68c.13.48-.07.65-.94,1.57"/><path d="M266.55,163.47,264.64,165a2.24,2.24,0,0,0-.58.61.78.78,0,0,0,0,.82.67.67,0,0,0,.6.22,1.66,1.66,0,0,0,.63-.23,20.52,20.52,0,0,0,2.25-1.34"/></g><path d="M268.45 164c.05 0-.19.57-.86 1.2a7.56 7.56 0 0 1-1.3 1 7.49 7.49 0 0 1-.85.43 2.35 2.35 0 0 1-1.07.25.79.79 0 0 1-.6-.33.88.88 0 0 1-.12-.64 1.61 1.61 0 0 1 .59-.87l1.27-1c.73-.53 1.2-.84 1.23-.78s-.36.44-1 1l-1.19 1a1.3 1.3 0 0 0-.43.64c0 .25.07.42.32.44a2.21 2.21 0 0 0 .86-.21 8.88 8.88 0 0 0 .82-.39 9 9 0 0 0 1.29-.83c.66-.45.98-.91 1.04-.91zm-9.17 2.72a11.88 11.88 0 0 0-.22-2.11 12 12 0 0 0-1-1.87c0-.12 1 .46 1.43 1.74a2.39 2.39 0 0 1-.21 2.24z" class="e"/><g class="f"><path d="M186.11 151.69c-4.4-2.25-8.74-2.76-13.49-2.9-5.52-.16-13.3-.93-19.25-.3 0 0-18.71 1.47-18.79 15.52l3 51.93-3.88 23.12 54.3 1.64-.39-27.28c.18 12.24-.42-26.48-.22-36.82.83-7.63 4.47-8.53 5.07-13.49.54-4.39-2.41-9.41-6.35-11.42z"/><path d="M174.85,149.15s8.26-.14,13.69,2.52,35.17,20.91,35.17,20.91l22.84-12.66,12.08,11.32-26.2,17.3a18.06,18.06,0,0,1-17.24,1.63l-29.54-11.72Z"/></g><path d="M187.39 168.05c.14 0 .28 8.07.31 18l-.2 18c-.14 0-.29-8.07-.32-18s.06-18 .21-18z" class="Y"/><path d="M118.09,381.33l-5.15,20.42-8.72,15a2.16,2.16,0,0,0,.91,3h0a2.14,2.14,0,0,0,2,0c3.92-2.12,18.29-10,18.58-11.48.34-1.75,6.86-21.17,6.86-21.17Z" class="Z"/><path d="M105.13 419.74l20.93-12.88-.24.86a3.22 3.22 0 0 1-1.3 1.83c-1.71 1.15-6.49 4.25-17.36 10.18a2.15 2.15 0 0 1-2 0zm18.58-20.58a1.31 1.31 0 0 0-.8 1.55 1.26 1.26 0 0 0 1.53.81 1.37 1.37 0 0 0 .83-1.65 1.3 1.3 0 0 0-1.68-.66" opacity=".6" class="c"/><path d="M112.21 412.16a6.4 6.4 0 0 0-1.34-2.07 6.54 6.54 0 0 0-2.21-1.1c0-.05.3-.14.79-.07a3.32 3.32 0 0 1 1.73.82 3.38 3.38 0 0 1 1 1.62c.14.48.09.79.03.8zm-2.21 2.31c-.12.06-.59-.78-1.56-1.37a18.36 18.36 0 0 0-1.91-.8 2.4 2.4 0 0 1 2.16.41c1.12.68 1.45 1.74 1.31 1.76zm5.87-5.05a21.45 21.45 0 0 0-2.26-2.28 20.68 20.68 0 0 0-2.82-1.53 4.72 4.72 0 0 1 3.1 1.16 4.81 4.81 0 0 1 1.98 2.65zm2.13-6.08c-.09.11-1.08-.67-2.52-1.13s-2.7-.42-2.71-.56a4.25 4.25 0 0 1 2.85.12 4.18 4.18 0 0 1 2.38 1.57zm1.61-5.95a10.39 10.39 0 0 0-2.59-1.25 11 11 0 0 0-2.88-.07c0-.05.27-.24.81-.38a4.64 4.64 0 0 1 2.17 0 4.69 4.69 0 0 1 1.94 1c.42.36.59.66.55.7zm-2.24-2.39a1.72 1.72 0 0 1 .18-.78 5.42 5.42 0 0 1 1.17-1.84 2.46 2.46 0 0 1 1.32-.85.87.87 0 0 1 .89.45 1.39 1.39 0 0 1 .07 1 3 3 0 0 1-3.33 2 3.53 3.53 0 0 1-2.85-2.71 1.22 1.22 0 0 1 .21-1 .86.86 0 0 1 1-.19 3.06 3.06 0 0 1 1.15 1.06 6.44 6.44 0 0 1 1 2 1.83 1.83 0 0 1 .11.79 9.34 9.34 0 0 0-1.32-2.55 2.93 2.93 0 0 0-1-.9.46.46 0 0 0-.54.1.83.83 0 0 0-.1.66 3.13 3.13 0 0 0 2.5 2.32 2.64 2.64 0 0 0 2.85-1.66 1 1 0 0 0 0-.7.48.48 0 0 0-.49-.26 2.25 2.25 0 0 0-1.13.7 7.94 7.94 0 0 0-1.69 2.36z" class="Y"/><path d="M186.94,384l-1.13,17.15S202.88,406.83,203,410l-33.36.24.68-26.79Z" class="Z"/><g class="c"><path d="M175.54,399.41a1.38,1.38,0,0,0-1,1.53,1.32,1.32,0,0,0,1.51,1,1.44,1.44,0,0,0,1-1.62,1.36,1.36,0,0,0-1.68-.86"/><path d="M169.62,410.26l.07-2.7,32.22.89a2.32,2.32,0,0,1,1.24,1.81Z" opacity=".6"/></g><g class="Y"><path d="M186.35 401c0 .17-.82.22-1.64.72s-1.26 1.17-1.41 1.1.12-1 1.12-1.59 1.97-.36 1.93-.23zm3.46 1.57c0 .15-.69.41-1.26 1.08s-.75 1.4-.92 1.39-.23-.94.5-1.76 1.68-.87 1.68-.71zm1.85 4.24c-.14 0-.35-.79.1-1.67s1.22-1.21 1.28-1.07-.42.6-.77 1.33-.44 1.4-.61 1.41zm-5.48-9.73c-.07.14-.81-.1-1.74-.07s-1.64.3-1.73.16.63-.7 1.72-.73 1.83.56 1.75.64zm.16-3.47a3.07 3.07 0 0 1-1.67-.06 7.54 7.54 0 0 1-1.73-.59 7.43 7.43 0 0 1-.94-.53 2.17 2.17 0 0 1-.49-.41.7.7 0 0 1 0-.87.9.9 0 0 1 .72-.35 2.25 2.25 0 0 1 .63.1 6.77 6.77 0 0 1 1 .39 5.72 5.72 0 0 1 1.51 1.06c.76.74 1 1.35.94 1.38s-.43-.46-1.2-1.08a6.27 6.27 0 0 0-1.46-.88 7.09 7.09 0 0 0-1-.33c-.35-.1-.65-.11-.75 0s0 .08 0 .19a1.67 1.67 0 0 0 .36.3 10.13 10.13 0 0 0 .87.53 10 10 0 0 0 1.59.67 10.65 10.65 0 0 1 1.62.48z"/><path d="M186.12 393.84a2.78 2.78 0 0 1-.39-1.63 5.32 5.32 0 0 1 .29-1.82 5.51 5.51 0 0 1 .45-1 1.39 1.39 0 0 1 1.09-.81.79.79 0 0 1 .69.49 2.65 2.65 0 0 1 .15.62 3.79 3.79 0 0 1 0 1.12 3.83 3.83 0 0 1-.77 1.7c-.68.85-1.36 1-1.37 1s.52-.39 1-1.2a3.8 3.8 0 0 0 .58-1.55 3.5 3.5 0 0 0 0-1c0-.35-.17-.64-.3-.61s-.46.25-.6.53a4.9 4.9 0 0 0-.44.89 6 6 0 0 0-.38 1.66c-.06.97.09 1.59 0 1.61z"/><path d="M186.94 235.01l-50.81-.38-24.56 161.29 21.09 2.68 27.03-132.62 8.09 133.09.02.39 22.81-.39-3.67-164.06z"/><path d="M181 232.74a8.58 8.58 0 0 1-1.51.57c-1 .34-2.43.76-4.23 1.2a64.23 64.23 0 0 1-6.42 1.18 69.67 69.67 0 0 1-8 .53 67.93 67.93 0 0 1-8-.48 61.85 61.85 0 0 1-6.43-1.15l-4.24-1.18a10 10 0 0 1-1.51-.55 8.24 8.24 0 0 1 1.57.36l4.26 1 6.4 1a74.73 74.73 0 0 0 7.93.44 77 77 0 0 0 7.92-.48l6.4-1.07 4.25-1a10.3 10.3 0 0 1 1.61-.37zM153.07 116.6a30 30 0 0 1-1.68-5.62 10 10 0 0 1 .62-5.76 6.08 6.08 0 0 1 4.4-3.53c1.2-.18 2.46.08 3.61-.28 1.34-.42 2.27-1.59 3.34-2.5a10.23 10.23 0 0 1 6-2.39 6.06 6.06 0 0 1 3.33.64 3.43 3.43 0 0 1 1.81 2.76 16 16 0 0 1 4.15-.8 5.49 5.49 0 0 1 3.9 1.36 3.32 3.32 0 0 1 .73 3.87 2.72 2.72 0 0 1 3.44 1.15 3.49 3.49 0 0 1-.4 3.75 6.55 6.55 0 0 1-4 2 9.47 9.47 0 0 1-4.11-.31"/></g><path d="M163.25 159.81h0a9.86 9.86 0 0 0 10.84-10.08l-.14-6.28s7.92-.86 8.39-8.72 0-26 0-26h0a27.38 27.38 0 0 0-27.64 2.16l-1.21.84.93 38.51a9.86 9.86 0 0 0 8.83 9.57z" class="d"/><path d="M174,143.33a18.32,18.32,0,0,1-10.12-3.4s2.16,5.78,10,5.44Z" class="e"/><path d="M154 119.93c-.14-.07-5.34-1.86-5.42 3.53s5.35 4.36 5.36 4.21.06-7.74.06-7.74z" class="d"/><path d="M152.36 125.6s-.09.06-.25.13a.92.92 0 0 1-.7 0 2.34 2.34 0 0 1-1-2.1 3.18 3.18 0 0 1 .29-1.34 1.1 1.1 0 0 1 .71-.71.47.47 0 0 1 .55.27c.07.15 0 .25.07.26s.11-.09.07-.31a.61.61 0 0 0-.2-.34.7.7 0 0 0-.52-.14 1.28 1.28 0 0 0-1 .82 3.12 3.12 0 0 0-.35 1.49 2.45 2.45 0 0 0 1.33 2.35 1 1 0 0 0 .86-.13c.13-.12.16-.24.14-.25z" class="e"/><path d="M182.58 111.17a18.5 18.5 0 0 1-11.45-1.17c-4-1.73-8.6-2.44-9.56-1.6s-1 4.86-4.76 6.24c0 0 1 11.35-2.07 11.35-2.26 0-2.12-15.89-2.12-15.89l7.28-4 8.08-2 7.64-.41 7.23 1.81zm-2.13 9.18a1.15 1.15 0 0 1-1.11 1.16 1.1 1.1 0 0 1-1.19-1 1.16 1.16 0 0 1 1.11-1.16 1.11 1.11 0 0 1 1.19 1zm.25-1.29c-.15.15-1-.5-2.26-.49s-2.14.62-2.27.47.08-.34.47-.63a3.15 3.15 0 0 1 1.83-.56 3 3 0 0 1 1.79.58c.38.29.51.57.44.63zm-12.37 1.58a1.15 1.15 0 0 1-1.11 1.16 1.09 1.09 0 0 1-1.19-1 1.17 1.17 0 0 1 1.11-1.17 1.11 1.11 0 0 1 1.19 1.01zm.2-1.35c-.14.15-1-.5-2.25-.49s-2.14.62-2.28.47.08-.34.48-.63a3.22 3.22 0 0 1 1.82-.56 3 3 0 0 1 1.79.58c.38.34.51.56.44.63zm4.47 9.18a8.17 8.17 0 0 1 2-.37c.32 0 .62-.09.67-.31a1.57 1.57 0 0 0-.21-.93l-.93-2.41a41.17 41.17 0 0 1-2.1-6.29 41.37 41.37 0 0 1 2.6 6.11l.89 2.42a1.83 1.83 0 0 1 .17 1.24.81.81 0 0 1-.52.46 2.28 2.28 0 0 1-.54.07 8.24 8.24 0 0 1-2.03.01zm-3.62.85c.2 0 .2 1.33 1.35 2.29s2.58.8 2.59 1-.31.26-.92.28a3.35 3.35 0 0 1-2.16-.75 3 3 0 0 1-1.05-1.92c-.05-.57.1-.9.19-.9zm-.53-14.88c-.12.34-1.36.18-2.81.35s-2.63.57-2.82.27c-.08-.14.12-.46.59-.79a4.92 4.92 0 0 1 4.29-.47c.54.2.8.48.75.64zm11.39 1.04c-.22.28-1.07 0-2.09 0s-1.9.19-2.1-.1 0-.43.43-.69a2.82 2.82 0 0 1 1.7-.46 2.89 2.89 0 0 1 1.68.56c.36.26.48.55.38.69z" class="Y"/><path d="M63.87 196.01h148.64v60.37H63.87z" class="c"/><g class="l"><path d="M212.51 256.38v-1.08-3.13-12l-.09-44.15.17.16-148.63.07h0l.23-.23v60.37l-.22-.22 106.57.1 30.91.07h8.28 2.14.74-.71-2.12-8.22l-30.87.06-106.72.11h-.23v-.23-60.37-.24h.25l148.63.07h.16v.26l-.09 44.25v12 3.11c0 .71-.18 1.02-.18 1.02z"/><path d="M64 204.15c0-.13 33.22-.24 74.2-.24l74.2.24c0 .13-33.22.24-74.2.24s-74.2-.11-74.2-.24z"/></g><g class="g"><use xlink:href="#G" opacity=".3"/><path d="M73.94,200.51a1.08,1.08,0,0,1-2.16,0,1.08,1.08,0,0,1,2.16,0Z" opacity=".3"/><use xlink:href="#G" x="7.34" opacity=".3"/></g><path d="M76.5 213.96h35.9v35.9H76.5z" class="b"/><path d="M76.5 213.96h35.9v35.9H76.5z" class="g"/><path d="M202.22 223.58c0 .13-18.47.24-41.26.24s-41.26-.11-41.26-.24 18.47-.23 41.26-.23l41.26.23zm0 7.32c0 .13-18.47.23-41.26.23s-41.26-.1-41.26-.23 18.47-.24 41.26-.24l41.26.24zm-29.4 7.31a2.24 2.24 0 0 1-.54 0h-1.54l-5.7.08-18.78.07-18.78-.07-5.69-.08h-1.55a2.34 2.34 0 0 1-.54 0 3.37 3.37 0 0 1 .54-.05h1.55l5.69-.07 18.78-.07 18.78.07 5.7.07h1.54a3.18 3.18 0 0 1 .54.05z" class="i"/><path d="M140.1 153.27s-7.25 3.73-10.47 17.12c-1.58 6.61-8.15 28.11-9.21 40.13-.65 7.47 7.5 14.43 14.92 15.52l.33.05C151.09 229.18 166 225 166 225l-3.1-14.06s-19.7-3.82-22.21-5l7.64-30.22s5.67-21.16-8.23-22.45z" class="f"/><g class="Y"><path d="M141.89 156.3a.93.93 0 0 1 .27 0c.18 0 .45.07.8.16a8.63 8.63 0 0 1 2.84 1.29 8.5 8.5 0 0 1 3 3.92 16.65 16.65 0 0 1 1 6.53 25.18 25.18 0 0 1-.4 3.85l-1 4.07-2.24 9-5.23 20.88-.18-.31 7.25 1.91 7.76 1.72 3.79.61a18.73 18.73 0 0 1 1.91.28 4.88 4.88 0 0 1 .94.3 1.73 1.73 0 0 1 .81.68 5.9 5.9 0 0 1 .63 1.82l.39 1.79.67 3.51 1.31 6.63.06.22-.22.06a73.26 73.26 0 0 1-23.38 1.92 56.31 56.31 0 0 1-8.85-1.31 2.75 2.75 0 0 1 .6.07l1.72.27 6.55.7a74.87 74.87 0 0 0 23.25-2.1l-.17.28-1.35-6.65-.67-3.5-.4-1.77a5.6 5.6 0 0 0-.56-1.66c-.28-.48-.85-.61-1.45-.77a17.53 17.53 0 0 0-1.85-.26l-3.83-.61-7.78-1.72-7.27-1.93-.24-.06.06-.25 5.3-20.83q1.22-4.77 2.3-9l1-4a24.53 24.53 0 0 0 .42-3.8 16.13 16.13 0 0 0-.91-6.41 8.36 8.36 0 0 0-2.86-3.87 9.45 9.45 0 0 0-2.76-1.35l-.78-.2a.91.91 0 0 1-.25-.11z"/><path d="M131.21 211.87a3.68 3.68 0 0 1 .54-1.72 8.17 8.17 0 0 1 7.2-4.29 3.75 3.75 0 0 1 1.77.35c0 .09-.69 0-1.76 0a9 9 0 0 0-3.94 1.23 8.81 8.81 0 0 0-3 2.87c-.52.93-.72 1.59-.81 1.56z"/></g><path d="M163.71 212.19l5.68-.63a31.39 31.39 0 0 1 3.87-5.23c1.54-1.35 9.47-5.15 9.47-5.15a2.2 2.2 0 0 1 0 2.79 34.93 34.93 0 0 1-4.27 2.73h0a2.16 2.16 0 0 0 2.47 2.73l5.38-.91c.38 0 2.72-2.19 4.43-3.86a1.44 1.44 0 0 1 2.43 1.33.72.72 0 0 1-.2.34s2.45-.08.26 3.21c0 0 .51 3-1.29 4.43 0 0-.77 3.67-1.92 4.93s-12.4 3.67-12.4 3.67l-11.72 1.14z" class="d"/><path d="M181.93 212.92a7.17 7.17 0 0 0 2 .05 10.7 10.7 0 0 0 4.73-1.25 9.76 9.76 0 0 0 3.29-3.61 6.41 6.41 0 0 0 .86-1.83 10 10 0 0 0-1.17 1.63 10.86 10.86 0 0 1-3.25 3.37 11.93 11.93 0 0 1-4.5 1.32 8.51 8.51 0 0 0-1.96.32zm1.16 2.6a3.75 3.75 0 0 0 1.84.15 14.26 14.26 0 0 0 2-.29 6.2 6.2 0 0 0 2.32-.95 10.53 10.53 0 0 0 1.72-1.77l1.24-1.54a6.65 6.65 0 0 0 1-1.5 6.65 6.65 0 0 0-1.32 1.26l-1.32 1.47a12.64 12.64 0 0 1-1.68 1.67 6 6 0 0 1-2.12.89 16.65 16.65 0 0 1-1.91.39l-1.77.22zm1.59 2.9c0 .21 2-.21 4.42-.88a2.06 2.06 0 0 0 .9-.54 7.14 7.14 0 0 0 .61-.63 9.23 9.23 0 0 0 .87-1.17c.44-.72.56-1.23.49-1.25s-.3.41-.79 1a14.96 14.96 0 0 1-.92 1.06 6.49 6.49 0 0 1-.6.56 1.57 1.57 0 0 1-.66.41l-3.05.92a6.23 6.23 0 0 0-1.27.52z" class="e"/><g class="Z"><path d="M366.83 76.32h.64a13.16 13.16 0 0 1 1.88.15 17.37 17.37 0 0 1 6.94 2.4 17.91 17.91 0 0 1 4.23 3.42 18.69 18.69 0 0 1 3.53 5.53 19.23 19.23 0 0 1 1.38 7.52q0 4.11 0 8.73l.07 104.5v155 27.76a19.69 19.69 0 0 1-.71 5.65 18.75 18.75 0 0 1-2.36 5.22 19.89 19.89 0 0 1-3.86 4.28 18.71 18.71 0 0 1-10.7 4.15c-3.88.12-7.74 0-11.64.06h-23.55-48.41H247a19.59 19.59 0 0 1-12.06-3.33 19 19 0 0 1-7.34-10.14 20.51 20.51 0 0 1-.77-6.27v-31q0-24.58 0-48.42v-91.54-82.83q0-19.45 0-37.53v-4.5c0-.74.06-1.5.1-2.24s.19-1.49.38-2.21a19 19 0 0 1 3.89-7.85 19.26 19.26 0 0 1 6.87-5.13 19.47 19.47 0 0 1 8.24-1.56h16.14 11.57a6 6 0 0 1 3.65 1 6.07 6.07 0 0 1 2.26 3 9.71 9.71 0 0 1 .38 3.65v1.81a12.78 12.78 0 0 0 .06 1.76 5.78 5.78 0 0 0 1.38 3.1 5.46 5.46 0 0 0 2.83 1.76 6.2 6.2 0 0 0 1.67.17h8.39 24.42 10.77 2.52a5.46 5.46 0 0 0 2.27-.8 5.91 5.91 0 0 0 2.6-3.73 10 10 0 0 0 .14-2.25v-2.22a12 12 0 0 1 .09-2.16 6.24 6.24 0 0 1 .7-2 5.82 5.82 0 0 1 3-2.61 9.36 9.36 0 0 1 3.68-.4h12 7.39 2.51-2.51-7.39-12a9.31 9.31 0 0 0-3.62.39 5.66 5.66 0 0 0-2.86 2.55 6.08 6.08 0 0 0-.68 1.93 12.38 12.38 0 0 0-.08 2.12v2.39a9.91 9.91 0 0 1-.15 2.29 6.07 6.07 0 0 1-2.68 3.87 5.72 5.72 0 0 1-2.35.84c-.86.07-1.69 0-2.55 0h-43.49a6.85 6.85 0 0 1-1.74-.17 5.81 5.81 0 0 1-3-1.85 6.22 6.22 0 0 1-1.46-3.27 13.65 13.65 0 0 1-.06-1.8v-1.76a9.76 9.76 0 0 0-.36-3.54 5.83 5.83 0 0 0-2.15-2.82 5.58 5.58 0 0 0-3.46-1h-27.71a19.17 19.17 0 0 0-8.09 1.61 18.9 18.9 0 0 0-6.72 5 18.49 18.49 0 0 0-3.81 7.69c-.18.7-.24 1.44-.37 2.16s-.09 1.46-.1 2.2v4.5q0 18.06 0 37.53v82.83 91.54q0 23.81 0 48.42v31a19.7 19.7 0 0 0 .75 6.12 18.41 18.41 0 0 0 7.14 9.86 19 19 0 0 0 11.77 3.26h37.27 48.41 23.58l11.61-.05a18.24 18.24 0 0 0 10.42-4 19.83 19.83 0 0 0 3.75-4.17 18.21 18.21 0 0 0 2.31-5.08 19.4 19.4 0 0 0 .69-5.52v-5.61q0-11.21 0-22.15l.09-155 .1-104.5q0-4.62 0-8.73a18.75 18.75 0 0 0-1.35-7.46 18.36 18.36 0 0 0-3.48-5.5 18.49 18.49 0 0 0-11.08-5.86 15.61 15.61 0 0 0-1.87-.17zm.17 91.78a12.17 12.17 0 0 1 3.5-.26l-.26.26h0v-.68-.66c0-.42 0-.8.06-1.11 0-.64.11-1 .18-1s.14.39.19 1v1.11.66.68h0l-.26.26a12.17 12.17 0 0 1-3.41-.26z"/><use xlink:href="#H"/><use xlink:href="#H" x="-13.47"/><use xlink:href="#H" x="-27.01"/><use xlink:href="#H" x="-40.47"/><use xlink:href="#H" x="-54.02"/><use xlink:href="#H" x="-67.53"/><path d="M272.43,168.1a22.1,22.1,0,0,1,6.76,0,22.1,22.1,0,0,1-6.76,0Z"/><use xlink:href="#H" x="-94.54"/><path d="M248.68 164.6a12.17 12.17 0 0 1 .26 3.5l-.26-.26H250q.63 0 1.11.06c.63 0 1 .11 1 .18s-.4.14-1 .18q-.48 0-1.11.06h-.66-.7l-.27-.26a11.56 11.56 0 0 1 .31-3.46zm0-13.7a11.71 11.71 0 0 1 .26 3.43 11.61 11.61 0 0 1-.26 3.42 11 11 0 0 1-.27-3.42 11.12 11.12 0 0 1 .27-3.43zm0-13.69a11.61 11.61 0 0 1 .26 3.42 11.61 11.61 0 0 1-.26 3.42 11 11 0 0 1-.27-3.42 11 11 0 0 1 .27-3.42zm3.5-10.35a12.17 12.17 0 0 1-3.5.26l.26-.26h0v1.34q0 .63-.06 1.11c-.05.63-.11 1-.18 1s-.14-.4-.19-1l-.05-1.11v-.66-.68h0l.27-.26a11.76 11.76 0 0 1 3.45.26z"/><use xlink:href="#I"/><path d="M279.19,126.86a22.1,22.1,0,0,1-6.76,0,22.1,22.1,0,0,1,6.76,0Z"/><use xlink:href="#I" x="27.01"/><use xlink:href="#I" x="40.52"/><use xlink:href="#I" x="54.02"/><use xlink:href="#I" x="67.53"/><use xlink:href="#I" x="81.03"/><use xlink:href="#I" x="94.54"/><path d="M370.47 130.36a12.17 12.17 0 0 1-.26-3.5l.26.26h-1.36L368 127c-.63-.05-1-.11-1-.18s.4-.14 1-.19h1.11.66.7l.26.26a11.76 11.76 0 0 1-.26 3.47zm0 13.69a11.61 11.61 0 0 1-.26-3.42 11.61 11.61 0 0 1 .26-3.42 11.22 11.22 0 0 1 .26 3.42 11.22 11.22 0 0 1-.26 3.42zm0 13.7a11.61 11.61 0 0 1-.26-3.42 11.71 11.71 0 0 1 .26-3.43 11.31 11.31 0 0 1 .26 3.43 11.22 11.22 0 0 1-.26 3.42zm-122.59-31.97h2.15v2.15h-2.15zm-.28 41.25h2.15v2.15h-2.15zm60.9 0h2.15v2.15h-2.15zm0-41.7h2.15v2.15h-2.15zm61.92-19.01c0 .08-3.06.17-6.84.2s-6.84 0-6.84-.08 3.06-.17 6.84-.21l6.84.09zm.02 3.5c0 .08-3.06.17-6.83.2s-6.84 0-6.84-.09 3.06-.17 6.84-.2l6.83.09zm.03 3.5c0 .08-3.06.17-6.83.2s-6.84 0-6.84-.09 3.06-.17 6.84-.2l6.83.09zm-41.82 115.45c0 .13-9.46.24-21.11.24s-21.12-.11-21.12-.24 9.45-.24 21.12-.24l21.11.24zm33.66 8.66c0 .13-17 .24-37.94.24s-37.95-.11-37.95-.24 17-.24 37.95-.24l37.94.24z"/><use xlink:href="#J"/><path d="M330.7 249.52c0 .14-9.91.24-22.14.24s-22.14-.1-22.14-.24 9.91-.24 22.14-.24l22.14.24zM328.65 323c0 .13-9.46.24-21.11.24s-21.12-.11-21.12-.24 9.45-.24 21.12-.24l21.11.24zm33.66 8.63c0 .13-17 .24-37.94.24s-37.95-.11-37.95-.24 17-.24 37.95-.24l37.94.24z"/><use xlink:href="#J" y="94.2"/><use xlink:href="#K"/><path d="M328.76 186.15c0 .13-9.45.24-21.11.24s-21.11-.11-21.11-.24 9.45-.24 21.11-.24l21.11.24zm33.67 8.67c0 .13-17 .24-37.95.24s-37.94-.11-37.94-.24 17-.24 37.94-.24l37.95.24zm-.9 6.18c0 .14-16.79.25-37.49.25s-37.5-.11-37.5-.25 16.78-.24 37.5-.24l37.49.24zm-30.71 5.91c0 .13-9.92.24-22.14.24s-22.14-.11-22.14-.24 9.91-.24 22.14-.24l22.14.24zm-62.49 1.82a23.69 23.69 0 0 1 7 0 23.69 23.69 0 0 1-7 0zm-14 0a23.69 23.69 0 0 1 7 0 23.69 23.69 0 0 1-7 0zm-2.59-11.41a23.69 23.69 0 0 1 0 7 23.69 23.69 0 0 1 0-7zm1.83-12.18a4.75 4.75 0 0 1-1.83.23l.23-.23v1.68a11.76 11.76 0 0 1-.26 3.5 12.17 12.17 0 0 1-.26-3.5v-1.68-.24h.22a5 5 0 0 1 1.9.24zm14 0a23.69 23.69 0 0 1-7 0 23.69 23.69 0 0 1 7 0zm7.76 6.24a11.76 11.76 0 0 1-.26-3.5l.1-2.74.16.16c-.48 0-.76-.1-.76-.16s.28-.12.76-.16h.14v.17c.06.63.1 1.63.1 2.74a12.17 12.17 0 0 1-.24 3.49zm0 14a23.69 23.69 0 0 1 0-7 23.69 23.69 0 0 1 0 7z"/><use xlink:href="#L"/><use xlink:href="#L" y="-24.38"/><use xlink:href="#L" x="-23.33"/><use xlink:href="#L" x="-23.33" y="-23.74"/><path d="M268.33 252.15a23.69 23.69 0 0 1 7 0 22.82 22.82 0 0 1-7 0zm-14 0a23.69 23.69 0 0 1 7 0 22.82 22.82 0 0 1-7 0zm-2.59-11.41a23.69 23.69 0 0 1 0 7 23.69 23.69 0 0 1 0-7zm1.83-12.17a5 5 0 0 1-1.83.23l.23-.23v1.67a11.71 11.71 0 0 1-.26 3.5 12.12 12.12 0 0 1-.26-3.5v-1.67-.24h.22a4.75 4.75 0 0 1 1.9.24zm14 0a23.69 23.69 0 0 1-7 0 23.69 23.69 0 0 1 7 0zm7.76 6.24a11.76 11.76 0 0 1-.26-3.5l.1-2.74.16.16c-.48 0-.76-.1-.76-.16s.28-.12.76-.16h.14v.18c.06.63.1 1.62.1 2.74a12.17 12.17 0 0 1-.24 3.48zm0 14a23.69 23.69 0 0 1 0-7 23.69 23.69 0 0 1 0 7z"/><use xlink:href="#L" y="43.43"/><use xlink:href="#L" y="19.04"/><use xlink:href="#L" x="-23.33" y="43.43"/><use xlink:href="#L" x="-23.33" y="19.68"/><path d="M268.45 298.14a23.69 23.69 0 0 1 7 0 23.69 23.69 0 0 1-7 0zm-14 0a23.69 23.69 0 0 1 7 0 23.69 23.69 0 0 1-7 0zm-2.58-11.41a23.69 23.69 0 0 1 0 7 23.69 23.69 0 0 1 0-7zm1.82-12.17a5.06 5.06 0 0 1-1.82.22l.23-.22v1.67a12.17 12.17 0 0 1-.26 3.5 11.76 11.76 0 0 1-.26-3.5v-1.67-.24h.22a4.67 4.67 0 0 1 1.89.24zm14 0a23.69 23.69 0 0 1-7 0 23.69 23.69 0 0 1 7 0zm7.76 6.24a12.17 12.17 0 0 1-.26-3.5l.1-2.74.16.16c-.48-.05-.76-.1-.76-.16s.28-.12.76-.16h.15v.18c.06.63.09 1.62.09 2.74a11.76 11.76 0 0 1-.24 3.48zm0 14a23.69 23.69 0 0 1 0-7 23.69 23.69 0 0 1 0 7z"/><use xlink:href="#L" x="0.13" y="89.41"/><use xlink:href="#L" x="0.13" y="65.03"/><use xlink:href="#L" x="-23.21" y="89.41"/><use xlink:href="#L" x="-23.21" y="65.67"/><path d="M268.33 344a23.69 23.69 0 0 1 7 0 23.69 23.69 0 0 1-7 0zm-14 0a23.69 23.69 0 0 1 7 0 23.69 23.69 0 0 1-7 0zm-2.59-11.41a23.69 23.69 0 0 1 0 7 23.69 23.69 0 0 1 0-7z"/><use xlink:href="#M"/><path d="M267.57,320.42a23.69,23.69,0,0,1-7,0,23.69,23.69,0,0,1,7,0Z"/><use xlink:href="#N"/><path d="M275.33,340.66a23.69,23.69,0,0,1,0-7,23.69,23.69,0,0,1,0,7Z"/><use xlink:href="#L" y="135.28"/><use xlink:href="#L" y="110.89"/><use xlink:href="#L" x="-23.33" y="135.28"/><use xlink:href="#L" x="-23.33" y="111.53"/><path d="M268.33 391.47a23.69 23.69 0 0 1 7 0 23.69 23.69 0 0 1-7 0zm-14 0a23.69 23.69 0 0 1 7 0 23.69 23.69 0 0 1-7 0zm-2.59-11.42a23.69 23.69 0 0 1 0 7 23.69 23.69 0 0 1 0-7z"/><use xlink:href="#M" y="47.46"/><path d="M267.57,367.88a23.69,23.69,0,0,1-7,0,23.69,23.69,0,0,1,7,0Z"/><use xlink:href="#N" y="47.46"/><path d="M275.33,388.12a23.69,23.69,0,0,1,0-7,23.69,23.69,0,0,1,0,7Z"/><use xlink:href="#L" y="182.74"/><use xlink:href="#L" y="158.35"/><use xlink:href="#L" x="-23.33" y="182.74"/><use xlink:href="#L" x="-23.33" y="158.99"/><path d="M327.75 273.76c0 .13-9.45.24-21.11.24s-21.11-.11-21.11-.24 9.45-.24 21.11-.24l21.11.24zm33.67 8.67c0 .13-17 .24-37.94.24s-38-.11-38-.24 17-.24 38-.24l37.94.24z"/><use xlink:href="#J" x="-0.89" y="45"/><use xlink:href="#K" x="-0.89" y="-49.2"/><path d="M327.75 369.93c0 .14-9.45.24-21.11.24s-21.11-.1-21.11-.24 9.45-.24 21.11-.24l21.11.24zm33.67 8.67c0 .13-17 .24-37.94.24s-38-.11-38-.24 17-.24 38-.24l37.94.24z"/><use xlink:href="#J" x="-0.89" y="141.17"/><use xlink:href="#K" x="-0.89" y="46.97"/><path d="M249.1 112.86h.27.77l2.83-.07-.08.08v-2-1.19a1.11 1.11 0 0 1 .95-.87h1.36a1.12 1.12 0 0 1 .93 1.1v3l-.13-.13h3.57l-.13.14v-4.45-1.14a1.18 1.18 0 0 0-.51-.84l-1.56-1.54-1.5-1.49-.73-.72c-.26-.24-.45-.49-.74-.55a.92.92 0 0 0-.82.16c-.22.18-.45.44-.67.65l-1.28 1.29-2.26 2.33a2.62 2.62 0 0 0-.18 1.33v1.26 2 1.29.47a2.17 2.17 0 0 1 0-.43v-1.27-2-1.28-.7a1.42 1.42 0 0 1 .19-.75c.66-.81 1.45-1.53 2.27-2.39l1.27-1.3.69-.69a1.21 1.21 0 0 1 1-.2 2 2 0 0 1 .86.61l.73.72 1.51 1.48 1.57 1.54a2.81 2.81 0 0 1 .4.43 1.28 1.28 0 0 1 .19.6v1.14 4.45.14h-.14-3.57-.13v-.13-3a.86.86 0 0 0-.72-.87h-1.29a.86.86 0 0 0-.77.69v1.15 2.13H253h-2.88-.75a1 1 0 0 1-.27-.18zm-1.22 30.41h-.24-.72-2.75l-10.12.09h-15-8.87-2.32a7.74 7.74 0 0 0-2.28.18 4.26 4.26 0 0 0-2.95 3.17 14.21 14.21 0 0 0-.09 2.37v2.4 4.69 8.87l-.06 15-.08 10.12-.05 2.75q0 .43 0 .72v.24a.75.75 0 0 1 0-.24q0-.28 0-.72v-2.75l-.08-10.12c-.08-4.24 0-9.38 0-15v-8.87-7.09a14 14 0 0 1 .1-2.48 4.78 4.78 0 0 1 3.32-3.56 8 8 0 0 1 2.42-.19H219l15 .06 10.12.08 2.75.05h.72a1.1 1.1 0 0 1 .29.23z"/><path d="M250.49 143.19a1.58 1.58 0 1 1-1.58-1.58 1.58 1.58 0 0 1 1.58 1.58zm28.79 12.88s0-.36-.22-1a4 4 0 0 0-1.47-2.09 3.88 3.88 0 0 0-3.61-.5 3.78 3.78 0 0 0 0 7.09 3.85 3.85 0 0 0 3.61-.5 4 4 0 0 0 1.47-2.09c.17-.6.17-1 .22-1a1.89 1.89 0 0 1 0 1 4 4 0 0 1-1.45 2.33 4.15 4.15 0 0 1-4 .66 4.24 4.24 0 0 1 0-8 4.21 4.21 0 0 1 4 .66 4 4 0 0 1 1.45 2.33 1.94 1.94 0 0 1 0 1.11z"/></g><path d="M489.67 410.66l-117.48-.07A25.59 25.59 0 0 1 346.61 385l.06-294.54a25.59 25.59 0 0 1 25.61-25.58l117.48.12a25.59 25.59 0 0 1 25.58 25.59l-.06 294.54a25.59 25.59 0 0 1-25.61 25.53z" class="Y"/><path d="M489.64 75.36h-22.78a5.66 5.66 0 0 0-5.53 5.78v4.13a5.64 5.64 0 0 1-5.54 5.73h-44.4a5.66 5.66 0 0 1-5.53-5.78V81.1a5.67 5.67 0 0 0-5.54-5.79h-27.93a17.93 17.93 0 0 0-17.94 17.92l-.05 287.47a17.92 17.92 0 0 0 17.91 17.93l117.25.07a17.92 17.92 0 0 0 17.93-17.92l.06-287.49a17.94 17.94 0 0 0-17.91-17.93z" class="c"/><path d="M493.1 104.39c0 .08-3 .17-6.61.2s-6.62 0-6.62-.09 3-.16 6.61-.19l6.62.08zm.03 3.39c0 .08-3 .16-6.62.19s-6.61 0-6.61-.08 3-.17 6.61-.2l6.62.09zm.03 3.39c0 .07-3 .16-6.62.19s-6.62 0-6.62-.09 3-.16 6.62-.19l6.62.09zM372.74 115h.28.76l2.83-.07-.08.08v-2-1.18a1.08 1.08 0 0 1 .95-.87h1.35a1.1 1.1 0 0 1 .93 1.09v3l-.13-.13h3.56l-.13.13v-4.44-1.13a1.13 1.13 0 0 0-.5-.84L381 107l-1.5-1.48-.73-.72a1.71 1.71 0 0 0-.74-.55 1 1 0 0 0-.82.16c-.21.18-.44.44-.66.65l-1.28 1.29-2.25 2.32a2.51 2.51 0 0 0-.18 1.33v1.26 2 1.29a2.61 2.61 0 0 1 0 .47v-.43-1.27-2-1.28-.7a1.53 1.53 0 0 1 .2-.75c.66-.81 1.45-1.52 2.26-2.38l1.27-1.3a8.72 8.72 0 0 1 .68-.68 1.24 1.24 0 0 1 1-.21 2 2 0 0 1 .85.61l.73.72 1.51 1.48 1.56 1.53a2.78 2.78 0 0 1 .4.43 1.18 1.18 0 0 1 .19.6v1.14 4.44.14h-.13-3.57-.13V115v-3a.86.86 0 0 0-.73-.87h-1.29a.88.88 0 0 0-.77.69v1.14 2.13h-.08-2.87-.75z" class="Y"/><rect x="367.42" y="132.92" width="124.98" height="22.73" rx="9.59" class="j"/><g class="Y"><path d="M482.82 155.66l.72-.06a10.54 10.54 0 0 0 2.06-.4 10.1 10.1 0 0 0 3-1.58 9.45 9.45 0 0 0 2.85-3.62 9.17 9.17 0 0 0 .75-2.65 25.24 25.24 0 0 0 .09-3.06 20.94 20.94 0 0 0-.15-3.33 9.45 9.45 0 0 0-7.55-7.71 25.71 25.71 0 0 0-4.34-.17h-4.62l-98.62.07a9.34 9.34 0 0 0-9.32 8.57c-.08 1.14 0 2.33 0 3.49a10.87 10.87 0 0 0 .35 3.38 9.38 9.38 0 0 0 3.87 5.29 9 9 0 0 0 3 1.3 13.8 13.8 0 0 0 3.29.24h19.43l44.34.05 29.89.08h8.13 2.11.72-.72-2.11-8.13l-29.89.07-44.34.05H378.2a14.43 14.43 0 0 1-3.39-.25 9.52 9.52 0 0 1-3.18-1.35 9.9 9.9 0 0 1-4.06-5.56 11.54 11.54 0 0 1-.38-3.5v-3.53a9.84 9.84 0 0 1 9.79-9l98.62.07h4.62a26.77 26.77 0 0 1 4.4.18 9.75 9.75 0 0 1 6.47 4.54 9.65 9.65 0 0 1 1.26 3.43 20.41 20.41 0 0 1 .13 3.37 24 24 0 0 1-.11 3.09 9.64 9.64 0 0 1-3.72 6.35 9.27 9.27 0 0 1-5.15 1.92zm1.93-11.91s0-.37-.22-1a4 4 0 0 0-1.51-2.16 3.91 3.91 0 1 0 0 6.28 4 4 0 0 0 1.51-2.16c.18-.61.18-1 .22-1s0 .09 0 .26a3 3 0 0 1-.07.77 4.08 4.08 0 0 1-1.49 2.37 4.24 4.24 0 0 1-4.06.67 4.32 4.32 0 0 1 0-8.14 4.27 4.27 0 0 1 4.06.66 4.12 4.12 0 0 1 1.49 2.38 2.92 2.92 0 0 1 .07.76q.03.31 0 .31z"/><path d="M487 150.85a15.91 15.91 0 0 1-3.69-4 8.06 8.06 0 0 1 2 1.84 8.26 8.26 0 0 1 1.69 2.16z"/></g><path d="M384.3 142h-2.23v-.58h5.13v.58H385v5.76h-.67zm7.48 3.6h-4a1.76 1.76 0 0 0 1.87 1.66 1.87 1.87 0 0 0 1.46-.63l.36.42a2.52 2.52 0 0 1-4.34-1.65 2.32 2.32 0 1 1 4.64 0l.01.2zm-4-.48h3.38a1.69 1.69 0 0 0-3.38 0zm8.22 2.66l-1.52-2-1.52 2h-.72l1.88-2.45-1.78-2.33h.72l1.43 1.87 1.44-1.87h.7l-1.79 2.32 1.9 2.45zm4.32-.29a1.51 1.51 0 0 1-1 .34 1.26 1.26 0 0 1-1.39-1.39v-2.88h-.85V143h.85v-1h.64v1H400v.55h-1.45v2.84a.76.76 0 0 0 .83.87 1.06 1.06 0 0 0 .7-.24z" class="a"/><path d="M372.7 174.36h27.36v27.36H372.7z" class="Z"/><use xlink:href="#O" class="b"/><path d="M485.26 185.69c0 .13-16.44.24-36.72.24s-36.72-.11-36.72-.24 16.44-.23 36.72-.23l36.72.23zm-.86 5.99c0 .13-16.25.24-36.29.24s-36.29-.11-36.29-.24 16.24-.23 36.29-.23l36.29.23zm-29.73 5.72c0 .12-9.59.23-21.42.23s-21.43-.11-21.43-.23 9.59-.24 21.43-.24l21.42.24z" class="Y"/><path d="M372.7 219.94h27.36v27.36H372.7zm79.98 2.95c0 .12-9.15.23-20.43.23s-20.43-.11-20.43-.23 9.15-.24 20.43-.24l20.43.24z" class="b"/><path d="M485.26 231.27c0 .13-16.44.23-36.72.23s-36.72-.1-36.72-.23 16.44-.23 36.72-.23l36.72.23zm-.86 5.99c0 .13-16.25.23-36.29.23s-36.29-.1-36.29-.23 16.24-.23 36.29-.23l36.29.23zM454.67 243c0 .13-9.59.24-21.42.24s-21.43-.11-21.43-.24 9.59-.23 21.43-.23l21.42.23z" class="Y"/><path d="M372.7 265.52h27.36v27.36H372.7z" class="Z"/><path d="M452.68 268.46c0 .13-9.15.24-20.43.24s-20.43-.11-20.43-.24 9.15-.23 20.43-.23l20.43.23z" class="b"/><path d="M485.26 276.85c0 .13-16.44.23-36.72.23s-36.72-.1-36.72-.23 16.44-.23 36.72-.23l36.72.23zm-.86 5.99c0 .13-16.25.23-36.29.23s-36.29-.1-36.29-.23 16.24-.23 36.29-.23l36.29.23zm-29.73 5.71c0 .13-9.59.23-21.42.23s-21.43-.1-21.43-.23 9.59-.23 21.43-.23l21.42.23z" class="Y"/><path d="M372.7 311.1h27.36v27.36H372.7z" class="b"/><use xlink:href="#O" y="136.69" class="f"/><path d="M485.26 322.43c0 .12-16.44.23-36.72.23s-36.72-.11-36.72-.23 16.44-.24 36.72-.24l36.72.24zm-.86 5.99c0 .12-16.25.23-36.29.23s-36.29-.11-36.29-.23 16.24-.24 36.29-.24l36.29.24zm-29.73 5.71c0 .13-9.59.23-21.42.23s-21.43-.1-21.43-.23 9.59-.23 21.43-.23l21.42.23z" class="Y"/><g class="a"><path d="M372.7 356.68h27.36v27.36H372.7z"/><use xlink:href="#O" y="182.31"/></g><path d="M485.26 368c0 .13-16.44.24-36.72.24s-36.72-.11-36.72-.24 16.44-.23 36.72-.23l36.72.23zm-.86 6c0 .13-16.25.24-36.29.24s-36.29-.11-36.29-.24 16.24-.23 36.29-.23l36.29.23zm-29.73 5.71c0 .12-9.59.23-21.42.23s-21.43-.11-21.43-.23 9.59-.24 21.43-.24l21.42.24z" class="k"/><path d="M372.7 311.1h27.36v27.36H372.7zm0-91.16h27.36v27.36H372.7z" class="i"/><path d="M287.14.24h148.64v60.37H287.14z" class="c"/><g class="Z"><path d="M435.77 60.61v-1.08-3.13-12L435.68.26l.16.16-148.69.05h0l.23-.23v60.37l-.22-.23 106.57.11 30.91.06h8.28 2.14 0-2.12-8.23l-30.86.06-106.72.11h-.23v-.23V.12 0h.25l148.62.07h.17v.17l-.09 44.24v12 3.1c0 .7-.08 1.03-.08 1.03z"/><path d="M287.28 8.38c0-.13 33.23-.24 74.2-.24l74.21.24c0 .13-33.22.23-74.21.23s-74.2-.1-74.2-.23z"/></g><g class="g"><circle cx="292.43" cy="4.74" r="1.08"/><path d="M297.2 4.74a1.08 1.08 0 1 1-1.07-1.08 1.07 1.07 0 0 1 1.07 1.08z"/><use xlink:href="#G" x="230.61" y="-195.77"/></g><path d="M299.77 18.19h35.9v35.9h-35.9z" class="b"/><path d="M299.77 18.19h35.9v35.9h-35.9z" class="g"/><path d="M425.49 27.81c0 .13-18.47.24-41.26.24S343 27.94 343 27.81s18.47-.23 41.26-.23l41.23.23zm0 7.32c0 .13-18.47.23-41.26.23s-41.23-.1-41.23-.23 18.47-.24 41.26-.24l41.23.24zm-29.4 7.31a2.24 2.24 0 0 1-.54.05H394l-5.69.08-18.78.06-18.78-.06-5.7-.08h-1.54a2.24 2.24 0 0 1-.54-.05 2.24 2.24 0 0 1 .54 0h1.54l5.7-.08 18.78-.07 18.78.07 5.69.08h1.55a2.24 2.24 0 0 1 .54 0zm128.52 347.52l5.13 18.97-16.67 1.52-3.5-18.06 15.04-2.43z" class="Z"/><path d="M512.59 408.91a11.64 11.64 0 0 0 2.44-.09l5.85-.64 5.83-.78a12.93 12.93 0 0 0 2.4-.42 12.58 12.58 0 0 0-2.44.09l-5.85.65-5.83.78a12.52 12.52 0 0 0-2.4.41z" class="Y"/><path d="M529.74 408.93l-16.67 1.52-.27-1.39 16.46-2.09.47 1.77" opacity=".6" class="c"/><g class="Y"><path d="M521.46 408.09a67 67 0 0 0-1.59-7.27 74 74 0 0 0-2-7.18 68.3 68.3 0 0 0 1.58 7.27 72.22 72.22 0 0 0 2.01 7.18z"/><path d="M513.51 408.78a8 8 0 0 1 0-3.52 7 7 0 0 1 1.82-3.3 6.85 6.85 0 0 1 4.15-1.91 7.15 7.15 0 0 1 4.47 1 7.92 7.92 0 0 1 2.6 2.76 10 10 0 0 1 1 3.39.76.76 0 0 0 0-.26 4.11 4.11 0 0 0 0-.72 7.69 7.69 0 0 0-3.44-5.47 7.36 7.36 0 0 0-4.7-1.1 6.88 6.88 0 0 0-6.2 5.54 6.71 6.71 0 0 0 0 2.66 4.57 4.57 0 0 0 .21.69c.04.17.07.25.09.24z"/></g><path d="M455.77,384.87l1.11,16.85s-16.77,5.57-16.87,8.7l32.78.24-.66-26.33Z" class="Z"/><path d="M467 400a1.33 1.33 0 0 1 1 1.5 1.28 1.28 0 0 1-1.48 1 1.42 1.42 0 0 1-1-1.59 1.32 1.32 0 0 1 1.65-.84m5.62 10.59l-.07-2.65-31.65.87a2.26 2.26 0 0 0-1.22 1.78z" opacity=".6" class="c"/><g class="Y"><path d="M456.35 401.57c0 .16.81.21 1.61.7s1.25 1.15 1.39 1.08-.12-1-1.1-1.56-1.94-.36-1.9-.22zM453 403.1c0 .15.67.41 1.23 1.07s.74 1.37.9 1.35.23-.92-.48-1.72-1.65-.8-1.65-.7zm-1.87 4.17c.15 0 .34-.78-.09-1.64s-1.2-1.19-1.26-1.06.41.59.76 1.31.46 1.38.59 1.39zm5.39-9.57c.07.15.8-.09 1.71-.06s1.61.3 1.69.16-.61-.69-1.68-.72-1.8.5-1.72.62zm-.16-3.4a3 3 0 0 0 1.64-.06 7 7 0 0 0 1.7-.58 6.84 6.84 0 0 0 .93-.53 2 2 0 0 0 .48-.4.7.7 0 0 0 .05-.85.86.86 0 0 0-.72-.34 2.16 2.16 0 0 0-.61.1 6 6 0 0 0-1 .38 5.84 5.84 0 0 0-1.48 1c-.74.73-1 1.33-.92 1.36s.42-.46 1.18-1.07a6.45 6.45 0 0 1 1.44-.86 5.36 5.36 0 0 1 .93-.32c.35-.1.64-.12.73 0s0 .08 0 .18a1.54 1.54 0 0 1-.35.29 8.84 8.84 0 0 1-.85.52 8.45 8.45 0 0 1-1.57.66 10.37 10.37 0 0 0-1.58.52z"/><path d="M456.57 394.52a2.56 2.56 0 0 0 .39-1.59 5.3 5.3 0 0 0-.28-1.79 5.42 5.42 0 0 0-.45-1 1.36 1.36 0 0 0-1.07-.79.76.76 0 0 0-.67.47 2.25 2.25 0 0 0-.15.61 3.72 3.72 0 0 0 0 1.11 3.91 3.91 0 0 0 .75 1.67c.67.83 1.34 1 1.35.95s-.51-.38-1-1.18a3.79 3.79 0 0 1-.56-1.53 3.29 3.29 0 0 1 0-.94c0-.35.16-.64.29-.61s.45.25.59.52a6 6 0 0 1 .44.88 5.75 5.75 0 0 1 .36 1.63c.08.97-.07 1.57.01 1.59z"/><path d="M455.77 238.46l49.93-.38 24.13 158.49-20.72 2.63-26.56-130.31-7.95 130.77-.02.39-22.41-.39 3.6-161.2z"/></g><g class="f"><path d="M478.48 251.3a8.57 8.57 0 0 1-1.12 0h-3.06l-10.66-.09.24-.23v10.35l-.09-.19 1.89 1.73 5.52 5.09h-.33l7.45-6.52-.07.15.1-7.48.06-2.09a6.36 6.36 0 0 1 0-.76 4.19 4.19 0 0 1 0 .69l.06 2 .1 7.6v.09l-.07.06-7.38 6.59-.17.15-.17-.15-5.54-5.08-1.88-1.73-.08-.07v-.12-10.35-.24h.23l10.8.32 3 .12a6.85 6.85 0 0 1 1.17.16zm23.52-.68l-1 .15-2.72.33-9.56 1.08.21-.25 1.29 10.27-.1-.17 2.15 1.72 5.3 4.24h-.35l5.87-7.29v.15l-.8-7.42-.2-2.09c-.05-.55-.06-.75 0-.76a3.44 3.44 0 0 1 .13.67l.3 2 1 7.52v.09l-.05.07-5.81 7.34-.15.2-.2-.16-5.31-4.22-2.15-1.72-.09-.07v-.1l-1.22-10.28v-.23h.23l9.72-.86 2.68-.21a4.89 4.89 0 0 1 .83 0zm-30.57 24.05a11.64 11.64 0 0 1 2.1-1.4l5.33-2.9 5.53-2.52a10.69 10.69 0 0 1 2.39-.83 15.08 15.08 0 0 1-2.24 1.16l-5.44 2.65-5.4 2.76a12.55 12.55 0 0 1-2.27 1.08zm.64 3.85A27.57 27.57 0 0 0 477 275a27.89 27.89 0 0 0 3.64-4.86 13.32 13.32 0 0 1-8.56 8.43zM458 324.31c.09 0 .45 1.14 1.55 2.74a13 13 0 0 0 13.11 5.53c1.91-.33 3-.89 3-.8a2.28 2.28 0 0 1-.75.43 10.79 10.79 0 0 1-2.22.73 12.67 12.67 0 0 1-13.49-5.69 10.91 10.91 0 0 1-1-2.1 2.5 2.5 0 0 1-.2-.84zm3.26-1.31a18.16 18.16 0 0 1 2 .51 24.22 24.22 0 0 0 4.89.67c3.88.14 7-.45 7-.28a6.89 6.89 0 0 1-2 .49 26 26 0 0 1-5 .31 18.81 18.81 0 0 1-5-.83 5.6 5.6 0 0 1-1.89-.87zm37.13.91a34.46 34.46 0 0 0 6.88 3.81 34.84 34.84 0 0 0 7.7 1.62 7.08 7.08 0 0 1-2.34.07 20 20 0 0 1-10.52-3.91 7.31 7.31 0 0 1-1.72-1.59zm4.37-.2c0-.15 2.06.1 4.54-.11s4.46-.76 4.5-.61a13.7 13.7 0 0 1-9 .72zM482.85 270a76.08 76.08 0 0 0 8.08 2 75 75 0 0 0 8.31.59 8.39 8.39 0 0 1-2.45.29 30 30 0 0 1-5.94-.37 31.23 31.23 0 0 1-5.77-1.5 9 9 0 0 1-2.23-1.01zm1.36-5.38c.14 0 .26.45.25 1s-.13 1-.28 1-.25-.45-.24-1 .13-1 .27-1zm-.02-4c.15 0 .27.44.27 1s-.1 1-.25 1-.26-.45-.27-1 .11-1 .25-1zm-.1-4c.14 0 .28.44.29 1s-.08 1-.23 1-.27-.44-.29-1 .14-1 .23-1zm-.19-4c.14 0 .28.44.31 1s-.06 1-.2 1-.29-.43-.32-1 .07-.99.21-1zm-.28-3.99c.14 0 .29.43.33 1s0 1-.18 1-.29-.43-.34-1 .05-.99.19-1zm-.37-3.98c.14 0 .3.42.36 1s0 1-.16 1-.31-.42-.36-1 .02-.99.16-1z"/><use xlink:href="#P"/><use xlink:href="#Q"/><path d="M509.84 387.64c.14 0 .35.38.45.93s.09 1-.05 1-.35-.39-.46-.93-.08-.98.06-1z"/><use xlink:href="#Q" x="-1.57" y="-7.85"/><path d="M508.27 379.79c.14 0 .35.39.46.93s.08 1-.06 1-.35-.38-.46-.93-.08-.97.06-1z"/><use xlink:href="#Q" x="-3.14" y="-15.69"/><path d="M506.7 372c.15 0 .35.39.46.93s.08 1-.06 1-.35-.39-.45-.93-.09-1 .05-1zm-.78-4c.14 0 .34.38.45.92s.08 1-.06 1-.34-.39-.45-.93-.08-.94.06-.99zm-.78-3.9c.14 0 .34.39.45.93s.08 1-.06 1-.35-.38-.45-.93-.08-.97.06-1z"/><use xlink:href="#Q" x="-6.28" y="-31.38"/><path d="M503.57 356.26c.14 0 .34.39.45.93s.08 1-.06 1-.35-.39-.45-.93-.09-.97.06-1zm-.79-3.92c.14 0 .34.38.45.93s.08 1-.06 1-.34-.39-.45-.93-.08-.98.06-1z"/><use xlink:href="#Q" x="-8.63" y="-43.15"/><use xlink:href="#P" x="-10.2" y="-50.99"/><use xlink:href="#Q" x="-10.2" y="-50.99"/><path d="M499.64 336.65c.14 0 .35.38.45.93s.09 1-.06 1-.34-.39-.45-.93-.08-.97.06-1z"/><use xlink:href="#Q" x="-11.77" y="-58.84"/><path d="M498.07 328.8c.14 0 .35.39.45.93s.09 1 0 1-.35-.38-.46-.93-.13-.97.01-1z"/><use xlink:href="#Q" x="-13.34" y="-66.68"/><path d="M496.5 321c.15 0 .35.39.46.93s.08 1-.06 1-.35-.39-.46-.93-.08-1 .06-1zm-.78-4c.14 0 .34.38.45.93s.08 1-.06 1-.34-.39-.45-.93-.08-.94.06-1zm-.79-3.89c.15 0 .35.39.46.93s.08 1-.06 1-.35-.38-.45-.93-.09-.97.05-1zm-.78-3.92c.14 0 .34.39.45.93s.08 1-.06 1-.34-.39-.45-.93-.09-.97.06-1zm-.78-3.92c.14 0 .34.39.45.93s.08 1-.06 1-.35-.39-.45-.93-.09-.97.06-1zm-.79-3.92c.14 0 .34.38.45.93s.08 1-.06 1-.34-.39-.45-.93-.08-.98.06-1z"/><use xlink:href="#Q" x="-18.83" y="-94.14"/><path d="M491 293.5c.14 0 .34.39.45.93s.08 1-.06 1-.34-.38-.45-.93-.07-.97.06-1z"/><use xlink:href="#Q" x="-20.4" y="-101.98"/><use xlink:href="#P" x="-21.97" y="-109.82"/><use xlink:href="#Q" x="-21.97" y="-109.83"/><path d="M487.87 277.81c.14 0 .35.39.45.93s.09 1-.05 1-.35-.38-.46-.93-.08-.97.06-1zm-.78-3.92c.14 0 .34.39.45.93s.08 1-.06 1-.34-.39-.45-.93-.03-.97.06-1zm-.68-3.41c.14 0 .32.28.4.67s0 .75-.11.78-.32-.27-.4-.67-.03-.75.11-.78z"/></g><g class="m"><path d="M417.84 165.64l-6-8.84h0s-5.28-8.88-7-8.88-1.12 1.8.69 5a12.64 12.64 0 0 1 1.75 4.53l-4.33 2.62s-2.9-1.12-3 1.57a19 19 0 0 0 .5 3.67c.18 1 .61 2 1.52 1.62a1.15 1.15 0 0 0 .77-1.09c.06-1.59-.24-2.18 0-2.18s3.12 8.37 3.12 8.37z"/><path d="M406,158.76a9,9,0,0,0-1.39-.83,2.88,2.88,0,0,0-1.58-.24,1.26,1.26,0,0,0-1,1.79,4,4,0,0,0,.71,1.2"/><path d="M408 157a7.55 7.55 0 0 0-1.31-.78 2.77 2.77 0 0 0-1.5-.23 1.33 1.33 0 0 0-.83.44 1.35 1.35 0 0 0-.16 1.25 11.13 11.13 0 0 0 1.35 1.74m10.25 1.27l8.44 18.06-9.31 9.51-4.85-13.46s-2.59.52-3.65-1.2c-1.19-1.93-2.74-7.49-2.74-7.49z"/></g><path d="M409.77 160.19c-.16.07-.59-1.06-1.4-2.2s-1.89-1.69-1.8-1.84a3.32 3.32 0 0 1 2.22 1.53 4.35 4.35 0 0 1 .98 2.51zm-9.37.08c0-.05.2-.33.73-.52a2.74 2.74 0 0 1 2.17.19 3.68 3.68 0 0 1 1.43 1.61c.23.48.32.8.26.84s-.27-.23-.58-.65a4.57 4.57 0 0 0-1.36-1.34 2.92 2.92 0 0 0-1.83-.29c-.48.08-.78.23-.82.16zm3.14-2.55a2.61 2.61 0 0 1 2.31.8 3 3 0 0 1 1.21 2.12c-.14.07-.62-.9-1.55-1.73s-1.99-1.03-1.97-1.19zm-2.07 3.9c.14 0 .17.57.52 1.1s.8.8.76.94-.76.05-1.21-.67-.21-1.42-.07-1.37z" fill="#ff9c6a"/><path d="M417.82,165.29s.29-5.39-1-6.61-5,0-5,0" class="m"/><path d="M411.25 156.15a13.17 13.17 0 0 1 2.32 2.79 12.62 12.62 0 0 1 1.91 3.09 13 13 0 0 1-2.33-2.79 12.52 12.52 0 0 1-1.9-3.09z" fill="#ff9c6a"/><path d="M502.22 161.06l-.56-2.54a7.68 7.68 0 0 0-1.07-2.37 11.79 11.79 0 0 0-2.06-2.48 1 1 0 0 1 .44-1.85c.9 0 3.15 1.58 4.69 4.4s2.45-2.16 2.81-4 1.75-7.33 2.39-7.66c.95-.48 1.63.44 1.23 2.24s-1.24 7.25-.28 7.39 2.67-9.06 2.67-9.06 0-2 1.17-1.89c2 .24-.54 9.88-.8 10.8-.19.63.85.83 1 .14s1.51-9.22 3.56-9c1.57.17-2 7.95-1.32 9.87s2.13-6.18 3.62-6c.56.09 1 .23-.52 4.76-.73 2.2-3.53 12.51-3.53 12.51l1.61 8.45-12.83 3.24zM486 115.3l.13 42.05-18 .86-.57-10.21s-6.41 1.28-8.06-4.67c-1.06-3.81-.79-33.18-.79-33.18z" class="m"/><g class="Y"><path d="M456.33 113.09c2.84.81 3.46 5.45 3.46 5.45l4.46 9.85c2.27-1.78 5.32-1.68 5.9 2.31.41 2.89-3.17 3.47-3.17 3.47 2.08 3.55 3.5 6.42 6.54 9.8 3.29 3.66 5.13 4 8.7 4.08h3.93s1.92-6.24 5.49-21.87c3.95-17.34-16.55-15.11-20.35-19.53-6.19-7.21-23.91 3.87-14.96 6.44z"/><path d="M491.26,127.81c3.33-2.23,3.63-8.47,1.69-12.22a12.05,12.05,0,0,0-10.24-6.37A4.93,4.93,0,0,1,481,109a4.61,4.61,0,0,1-1.8-1.71c-3-3.86-5.88-7.65-11.42-7.65a6.32,6.32,0,0,0-3.48.86,5.49,5.49,0,0,0-2.09,2.77,12.21,12.21,0,0,0-3.24-1.17,4,4,0,0,0-3.25.8,2.45,2.45,0,0,0-.51,3.11,3.92,3.92,0,0,0-3.92,3.27c-.3,1.85,2.35,3.14,2.62,3.29,0,0-1.45,3,2,4.86a4.17,4.17,0,0,0,3.42-.26"/></g><path d="M478.09 131.86c.15 0 .2 1.41.58 3.08l.8 3a5.8 5.8 0 0 1-1.31-2.92 5.87 5.87 0 0 1-.07-3.16zm-2.18-2.07a13.33 13.33 0 0 1 .65 3 13.8 13.8 0 0 1 .47 3 11.11 11.11 0 0 1-1.12-6zm-6.25-6.94a3.24 3.24 0 0 1 1.37 1 9.68 9.68 0 0 1 2.15 3.42 18.45 18.45 0 0 1 1 3.89 5.07 5.07 0 0 1 .11 1.65 5.12 5.12 0 0 1-.47-1.58 29.08 29.08 0 0 0-1.09-3.78 11.69 11.69 0 0 0-1.93-3.35l-1.14-1.25zm-2.52-4.72a17 17 0 0 0 .28 3.89 18.08 18.08 0 0 0 1.58 3.56 5.62 5.62 0 0 1-2.09-3.44 5.53 5.53 0 0 1 .23-4.01zm21.53 10.5c-.07-.13.37-.51 1-.85s1.18-.53 1.25-.4-.37.5-1 .85-1.18.53-1.25.4zm-8.67-4.49c.15 0 .42.74.93 1.58s1.06 1.44 1 1.56-.85-.36-1.41-1.29-.71-1.83-.52-1.85zm-2.73-1.44c.14 0 .53.9 1.21 1.92s1.39 1.74 1.3 1.86-1-.47-1.73-1.58a3.35 3.35 0 0 1-.78-2.2zM464 105.09s.06-.09.2-.23a3.86 3.86 0 0 1 .69-.56 6.41 6.41 0 0 1 3.11-1 8.23 8.23 0 0 1 4.68 1.15 11.09 11.09 0 0 1 4 4.36 18.7 18.7 0 0 1 1.56 4.05l-.36-.15a9.41 9.41 0 0 1 7.62-.4 8.6 8.6 0 0 1 2 1.07 3.31 3.31 0 0 1 .6.54 16.06 16.06 0 0 0-2.68-1.32 9.43 9.43 0 0 0-7.29.55l-.27.14-.08-.3a18.9 18.9 0 0 0-1.54-3.93 10.81 10.81 0 0 0-3.76-4.2 8.14 8.14 0 0 0-4.42-1.2 6.77 6.77 0 0 0-3 .77c-.77.41-1.06.7-1.06.66zm-9.54 2.29a1.59 1.59 0 0 0-1.18 1.75 1.78 1.78 0 0 0 1 1.23 2.62 2.62 0 0 0 1.93.21 6 6 0 0 0 2.09-1.07 23 23 0 0 1 2.24-1.57 9.77 9.77 0 0 1 2.81-1 11.35 11.35 0 0 1 5.67.42 14.44 14.44 0 0 1 4.08 2.19 16.5 16.5 0 0 1 2.3 2.1 4.22 4.22 0 0 1 .71.9c-.07.07-1.12-1.19-3.22-2.7a14.79 14.79 0 0 0-4-2 11.11 11.11 0 0 0-5.42-.37 9.22 9.22 0 0 0-2.66.93 23.22 23.22 0 0 0-2.21 1.51 6.28 6.28 0 0 1-2.27 1.1 3 3 0 0 1-2.21-.31 2.07 2.07 0 0 1-1.06-1.51 1.79 1.79 0 0 1 .43-1.33c.51-.63 1.01-.49.97-.48z" class="f"/><g class="Z"><path d="M504.33,159.41l22,39.41a11.15,11.15,0,0,1-1.7,10.48l.46-.66a9.43,9.43,0,0,1-7.32,3.5h-.42a9.42,9.42,0,0,1-8.63-5.66l-5.17-7.85Z"/><path d="M456.58 156.59c4.33-2.21 8.6-2.71 13.26-2.85 5.42-.16 13.07-.92 18.92-.29 0 0 17.82-.55 17.9 13.26l-2.36 53 3.82 22.72-53.39 1.61.38-26.8c-.66-13.95.75-33.7.75-33.7-.82-7.49-4.93-10.87-5.51-15.74-.51-4.3 2.37-9.24 6.23-11.21z"/></g><path d="M471.63 220.49c.06-.08 1.21 1 3.39 2.11a20.16 20.16 0 0 0 18.43.32c2.21-1.07 3.4-2.07 3.46-2a4.17 4.17 0 0 1-.81.72 17.15 17.15 0 0 1-2.49 1.59 19.38 19.38 0 0 1-18.77-.33 17.34 17.34 0 0 1-2.43-1.68 4.23 4.23 0 0 1-.78-.73zm35.03-53.78a1.76 1.76 0 0 1 0 .52v1.5l-.11 5.52-.61 18.2-1 18.19-.44 5.51-.15 1.49a1.88 1.88 0 0 1-.09.52 2.21 2.21 0 0 1 0-.53q0-.6.06-1.5l.27-5.51.82-18.19.77-18.19.26-5.51c0-.6.07-1.1.1-1.5a2 2 0 0 1 .12-.52z" class="Y"/><path d="M517.85 171.29l2.38 6.73s5 14.41 6.61 24.14l-15.94-28.78c-.14.02 6.74-2.03 6.95-2.09z" class="l"/><path d="M510 169.55a11 11 0 0 1 1 1.45l2.5 4.08c2.1 3.45 5.19 8.11 8.29 13.46 1.54 2.68 2.84 5.33 4 7.77a14.24 14.24 0 0 1 1.48 7 10.49 10.49 0 0 1-1.41 4.6A8 8 0 0 1 525 209c-.2.22-.31.33-.33.32s.4-.5.92-1.49a10.83 10.83 0 0 0 1.23-4.52 14.2 14.2 0 0 0-1.56-6.75c-1.13-2.41-2.44-5-4-7.71-3.08-5.33-6.12-10-8.14-13.53l-2.36-4.17a11.68 11.68 0 0 1-.76-1.6z" class="Y"/><path d="M411.8 184.27l12.35-8.08 7.8 13.5s10.81-15 15.72-23.82c4.52-8.11 10.36-10.29 13.19-10.88a1.25 1.25 0 0 1 1.49 1.37l-4.26 29.22c-.53 1.52-9.45 14.45-14.44 20.95-8.31 10.86-20.57 3.91-23.93-3.69-2.67-6.03-6.83-15.19-7.92-18.57z" class="Z"/><path d="M428.4 201.89a6.91 6.91 0 0 1-.11-1.95 23.86 23.86 0 0 1 .46-4.69 12.78 12.78 0 0 1 1.76-4.38 4.41 4.41 0 0 1 1.31-1.46c.07.06-.42.62-1 1.65a15.1 15.1 0 0 0-1.57 4.3 36.9 36.9 0 0 0-.6 4.6 8.43 8.43 0 0 1-.25 1.93zm-3.62-6.04a3.25 3.25 0 0 1 .11-1.68 7.78 7.78 0 0 1 1.95-3.55 5.1 5.1 0 0 1 3.64-1.81c1.1 0 1.62.59 1.57.62a5.34 5.34 0 0 0-1.57-.25 5.18 5.18 0 0 0-3.26 1.8 8.64 8.64 0 0 0-2 3.29 15.17 15.17 0 0 1-.44 1.58zm36.88-37.25a1.54 1.54 0 0 1 .36.27 8.23 8.23 0 0 1 .94.91 11.66 11.66 0 0 1 2.32 4.18 16.08 16.08 0 0 1 .58 7.06 15.5 15.5 0 0 1-1.06 4.07 43 43 0 0 1-2 4 156.16 156.16 0 0 1-8.54 13.18l-2.84 3.82-.82 1a2 2 0 0 1-.31.33 11.11 11.11 0 0 1 1-1.45l2.7-3.91c2.25-3.32 5.36-7.91 8.38-13.22a43.42 43.42 0 0 0 2-4 15.19 15.19 0 0 0 1.06-3.94 16.42 16.42 0 0 0-.46-6.89 12.16 12.16 0 0 0-2.13-4.15 9.72 9.72 0 0 0-.85-1c-.24-.12-.34-.24-.33-.26z" class="Y"/><path d="M475.45 222.87c-3.94-1.8-7.05-5.92-7.17-10.09a4.16 4.16 0 0 1 1-3.12c1.16-1.15 3.13-.94 4.58-.17 2.39 1.25 3.95 3.6 5.63 5.71s3.8 4.19 6.49 4.45a17.44 17.44 0 0 0 3.45-.26 5.84 5.84 0 0 1 3.39.41 2.55 2.55 0 0 1 1.4 2.86s-4.72 2.94-9.64 2.59a27.81 27.81 0 0 1-9.13-2.38z" opacity=".3"/><path d="M461.63 236.23a9 9 0 0 1 1.54.36l4.18 1 6.29 1a76.92 76.92 0 0 0 7.78.47 75 75 0 0 0 7.79-.43l6.29-1 4.18-1a10.7 10.7 0 0 1 1.55-.36 8.46 8.46 0 0 1-1.49.55l-4.16 1.16a60.22 60.22 0 0 1-6.32 1.13 62.33 62.33 0 0 1-15.68-.05 58.91 58.91 0 0 1-6.31-1.16l-4.16-1.18a10.26 10.26 0 0 1-1.48-.49z" class="Y"/><defs ><path id="B" d="M48.89,394c.59-2.27-.9-4.54-2.56-6.19s-3.66-3.11-4.53-5.29c-1.4-3.52.49-8.08-1.91-11-1.41-1.73-3.93-2.31-5.18-4.15a9.44,9.44,0,0,1-1.13-3.3,33.57,33.57,0,0,0-8.34-15.6,29.15,29.15,0,0,0,3.27,15c1,1.85,2.17,3.65,2.49,5.71.52,3.35-1.35,6.8-.53,10.09.94,3.76,5.17,6.27,5.37,10.14.17,3.28-2.69,6.15-2.47,9.42a8.83,8.83,0,0,0,1.45,3.88c2.53,4.2,6.25,7.1,11.88,7l6.9.24Z"/><path id="C" d="M566.11 259.43a15.82 15.82 0 0 1-3.44-2.43l-3.67 1.31-3.46-5.46 2.76-2.77a16 16 0 0 1-.73-4.15l-3.57-1.67 1.41-6.31h3.9a15.65 15.65 0 0 1 2.43-3.45l-1.31-3.68 5.46-3.46 2.77 2.76a15.57 15.57 0 0 1 4.15-.72l1.67-3.53 6.31 1.42v3.9a15.89 15.89 0 0 1 3.45 2.43l3.68-1.31 3.46 5.45-2.76 2.77a15.57 15.57 0 0 1 .72 4.15l3.53 1.68-1.42 6.3h-3.9a15.59 15.59 0 0 1-2.43 3.44l1.31 3.68-5.43 3.47-2.77-2.76a16 16 0 0 1-4.15.73l-1.68 3.52-6.3-1.41v-3.9zm5.56-7.42a6.93 6.93 0 1 0-5.25-8.28 6.94 6.94 0 0 0 5.25 8.27z"/><path id="D" d="M197.26 42.29a9.37 9.37 0 0 1-2.59.06l-1.34 2-3.71-1.43.35-2.38a9.64 9.64 0 0 1-1.88-1.79l-2.35.47-1.62-3.64 1.93-1.43a9.39 9.39 0 0 1-.06-2.59l-2-1.34 1.43-3.71 2.38.35a9.6 9.6 0 0 1 1.78-1.86l-.46-2.36 3.63-1.64 1.44 1.92a9.79 9.79 0 0 1 2.59-.06l1.34-2 3.71 1.43-.35 2.38a9.65 9.65 0 0 1 1.88 1.79l2.36-.47 1.61 3.64-1.92 1.43a10.3 10.3 0 0 1 .06 2.6l2 1.34-1.47 3.72-2.38-.35a9.94 9.94 0 0 1-1.79 1.88l.47 2.35-3.64 1.62-1.44-1.93zm0-5.71a4.26 4.26 0 1 0-5.63-2.17 4.25 4.25 0 0 0 5.66 2.17z"/><path id="E" d="M197.29 36.58a3.11 3.11 0 0 1-1 .35 4.24 4.24 0 0 1-2.82-.43 4.3 4.3 0 0 1-1.5-1.34 4.35 4.35 0 0 1-.77-2.16 3.85 3.85 0 0 1 .09-1.26 4 4 0 0 1 .47-1.22 4.34 4.34 0 0 1 4.74-2.11 4.37 4.37 0 0 1 1.23.48 4.17 4.17 0 0 1 1 .77 4.36 4.36 0 0 1 1.09 2 4.33 4.33 0 0 1-1.59 4.4 3.29 3.29 0 0 1-.93.5 7.28 7.28 0 0 0 .87-.58 4.24 4.24 0 0 0 1.45-4.27 4.09 4.09 0 0 0-1.06-1.92 3.81 3.81 0 0 0-.94-.73 3.87 3.87 0 0 0-1.16-.44 4.13 4.13 0 0 0-4.48 2 3.62 3.62 0 0 0-.45 1.15 4 4 0 0 0-.1 1.19 4.18 4.18 0 0 0 2.13 3.37 4.27 4.27 0 0 0 2.73.5 7.77 7.77 0 0 0 1-.25z"/><path id="F" d="M197.26 42.29l.1.11.28.36 1.09 1.43h0l3.63-1.63v.07l-.47-2.36h0 0a9.88 9.88 0 0 0 1.76-1.87h0 0l2.38.34h-.1l1.45-3.74v.12l-2-1.34h0v-.06a9.72 9.72 0 0 0-.07-2.57V31h.05l1.93-1.44v.13l-1.61-3.63.12.07-2.35.46h-.07v-.06a9.51 9.51 0 0 0-1.86-1.76h0v-.08l.34-2.37.08.13-3.86-1.45h.14l-1.34 2v.06h-.07a9.6 9.6 0 0 0-2.56.06h0c-.05 0 .12.05-.12 0h0 0l-.05-.06-.09-.12-.18-.25-.36-.48-.71-1h.14l-3.63 1.61.07-.13.46 2.35v.07l-.06.05a9.67 9.67 0 0 0-1.77 1.85v.06h-.07l-2.38-.35.13-.07-1.44 3.71v-.13l2 1.34h0v.07a9.51 9.51 0 0 0 .05 2.56v.07h0l-1.93 1.44v-.13l1.6 3.64h-.1l2.36-.46h0 0a9.41 9.41 0 0 0 1.83 1.72h0 0l-.35 2.38v-.08l3.7 1.45h-.06l1.35-2h0 0a10.2 10.2 0 0 0 1.95 0l.48-.05h.15a.61.61 0 0 1-.15 0c-.11 0-.27 0-.48.07a9.58 9.58 0 0 1-2 0h0l-1.33 2h0 0L189.6 43h-.06v-.06l.34-2.38v.08a10 10 0 0 1-1.9-1.8h.09l-2.36.47h-.07v-.07L184 35.63v-.08h.06l1.93-1.44-.05.11a10 10 0 0 1-.06-2.62v.1l-2-1.34h-.08v-.08l1.43-3.71v-.09h.1l2.38.35-.12.05a9.91 9.91 0 0 1 1.81-1.91v.12l-.47-2.36v-.09h.09l3.64-1.62h.08l.06.07.72 1 .36.49.18.24.09.12V23h0 0 0l-.12-.05h0a10.13 10.13 0 0 1 2.63-.06l-.12.05 1.34-2v-.09h.09l3.71 1.43h.09v.09l-.35 2.38v-.11a9.39 9.39 0 0 1 1.9 1.81h-.11l2.36-.46h.09v.09l1.61 3.63v.08l-.07.06-1.93 1.43v-.1a10.08 10.08 0 0 1 .06 2.62v-.1l2 1.35h.06v.07l-1.44 3.71v.06h.05l-2.37-.35h.07a9.8 9.8 0 0 1-1.8 1.88v-.07l.46 2.36h0 0l-3.64 1.59h0 0l-1-1.44-.27-.38z"/><path id="G" d="M70.24 200.51a1.08 1.08 0 1 1-1.08-1.08 1.08 1.08 0 0 1 1.08 1.08z"/><path id="H" d="M353.47,168.1a22,22,0,0,1,6.75,0,22,22,0,0,1-6.75,0Z"/><path id="I" d="M265.68,126.86a22,22,0,0,1-6.75,0,22,22,0,0,1,6.75,0Z"/><path id="J" d="M361.42 243.62c0 .13-16.79.24-37.5.24s-37.5-.11-37.5-.24 16.79-.24 37.5-.24l37.5.24z"/><path id="K" d="M330.7 343.72c0 .13-9.91.24-22.14.24s-22.14-.11-22.14-.24 9.91-.24 22.14-.24l22.14.24z"/><path id="L" d="M273.77 207.58h2.61v2.61h-2.61z"/><path id="M" d="M253.57 320.42a5 5 0 0 1-1.83.23l.23-.23v1.67a11.71 11.71 0 0 1-.26 3.5 12.12 12.12 0 0 1-.26-3.5v-1.67-.24h.22a5 5 0 0 1 1.9.24z"/><path id="N" d="M275.33 326.66a11.76 11.76 0 0 1-.26-3.5l.1-2.74.16.16c-.48 0-.76-.1-.76-.16s.28-.12.76-.16h.14v.17c.06.63.1 1.62.1 2.74a12.17 12.17 0 0 1-.24 3.49z"/><path id="O" d="M452.68 177.31c0 .13-9.15.23-20.43.23s-20.43-.1-20.43-.23 9.15-.23 20.43-.23l20.43.23z"/><path id="P" d="M511.41 395.48c.14 0 .35.39.45.93s.09 1-.06 1-.34-.39-.45-.93-.08-.97.06-1z"/><path id="Q" d="M510.63 391.56c.14 0 .34.39.45.93s.08 1-.06 1-.34-.39-.45-.93-.08-.97.06-1z"/></defs></svg>