<svg xmlns="http://www.w3.org/2000/svg" viewBox="0 0 135.06 28.88"><defs><style>.cls-1{fill:#5c5c5c;}</style></defs><title>arrow1</title><g id="Layer_2" data-name="Layer 2"><g id="Layer_1-2" data-name="Layer 1"><path class="cls-1" d="M28,2.56h0l0,0Z"/><path class="cls-1" d="M27.73,2.63c-.05,0-.09.1-.05.14s.05-.07.09-.13.07,0,.07,0l.08,0a.32.32,0,0,0-.19.07S27.73,2.63,27.73,2.63Z"/><path class="cls-1" d="M23.52,2.83l0,.06A.09.09,0,0,0,23.52,2.83Z"/><path class="cls-1" d="M21,3.17s0-.06,0-.11A.21.21,0,0,0,21,3.17Z"/><path class="cls-1" d="M20.39,2.75l0,0S20.39,2.71,20.39,2.75Z"/><path class="cls-1" d="M23.52,2.83l-.1-.13C23.45,2.86,23.48,2.81,23.52,2.83Z"/><path class="cls-1" d="M27.24,3.07a.11.11,0,0,0,0-.06l0,0Z"/><path class="cls-1" d="M24.56,2.29h0s0-.11,0-.18Z"/><path class="cls-1" d="M25.46,2.29a2.09,2.09,0,0,0,.05.39.51.51,0,0,1,0-.19Z"/><path class="cls-1" d="M27,2.64l0,0Z"/><path class="cls-1" d="M23.91,2.21l-.05-.15A1.31,1.31,0,0,0,23.91,2.21Z"/><path class="cls-1" d="M1.17,11v0S1.16,11,1.17,11Z"/><polygon class="cls-1" points="0 10.78 0.02 10.77 0.02 10.77 0 10.78"/><path class="cls-1" d="M19.47,2.42h0C19.49,2.38,19.48,2.39,19.47,2.42Z"/><path class="cls-1" d="M12.39,4.71c.19.34,0,.5.25.87C12.58,5.42,12.56,4.92,12.39,4.71Z"/><path class="cls-1" d="M27.21,3.07l0,0S27.21,3.08,27.21,3.07Z"/><path class="cls-1" d="M12.64,5.58h0l0,0Z"/><path class="cls-1" d="M17.73,3.14a.67.67,0,0,0,.07.17S17.77,3.22,17.73,3.14Z"/><path class="cls-1" d="M19.23,3.37l-.05-.05S19.21,3.37,19.23,3.37Z"/><path class="cls-1" d="M17.19,3.9s-.05-.08-.06,0l0,.05C17.15,3.87,17.15,3.84,17.19,3.9Z"/><path class="cls-1" d="M16.47,4.1l0,.08,0,0Z"/><path class="cls-1" d="M3.62,11.16c-.06-.11-.11-.22-.16-.33C3.57,11.09,3.48,11.17,3.62,11.16Z"/><path class="cls-1" d="M27.22,3a.06.06,0,0,1,0,.06l0,0S27.23,3,27.22,3Z"/><path class="cls-1" d="M18,7.12l-.13,0A.16.16,0,0,0,18,7.12Z"/><path class="cls-1" d="M8.65,9.52v.05S8.66,9.56,8.65,9.52Z"/><path class="cls-1" d="M17.58,7.24A1.11,1.11,0,0,0,17.44,7l0,.11Z"/><path class="cls-1" d="M3.46,10.83Z"/><path class="cls-1" d="M2.88,11.48c.13,0-.07-.35-.12-.56.1-.1.17.28.29.49.06-.08,0-.45.06-.43a.48.48,0,0,1,.07.18c0-.34.29,0,.23-.45a.61.61,0,0,1,0,.12c-.1-.24-.19-.47-.25-.64,0,0,0-.33.12,0,0,0,0,.13,0,.23v-.15c.22.45,0,.17.11.5,0-.14,0-.55.16-.43.19.48-.13.17.13.58l-.2-.17c.36.71-.09-.06.27.71.23.16.12-.2.34-.07C4.11,11.09,4,11,4,10.69c0-.55.61,1.17.52.44-.07-.34-.28-1,0-.68l.16.56c.16,0-.2-.81.08-.5,0,.22,0,.22,0,.28.25.39,0-.34,0-.36l.19.47c.13-.13.18-.54.32-.69a1.35,1.35,0,0,0,.15.44c.13-.31.49-.1.79.11l-.06-.44a.64.64,0,0,1,.11.26c.13.13-.09-.26-.11-.44s.15.22.16.35c0-.4.15-.9.45-.5l0,.13c.17.13-.16-.9.08-.55v.08c.31.1.47-.38.88.18-.17-.61.34.18.08-.66.28.37.29.53.59.74.07,0-.09-.55,0-.66l.15.44L8.39,9.2l.22.51,0-.14a.78.78,0,0,1-.16-.31c0-.23.35.23.42.45L9,9.26a1.07,1.07,0,0,1,0,.38c0-.49.18.45.16,0a1.54,1.54,0,0,1-.1-.35c.14.25.27.21.33.06l.08.31c.21,0,.33-.26.53-.32a1.4,1.4,0,0,1-.23-.72l.17.46c-.05-.3-.11-.16-.15-.53.09,0,.22.51.23.68l0-.2c.05.14.06.22.11.4-.06-.3.3.42.19-.1l0,.14c.2-.06.24-.25.39-.33-.12-.4,0-.33-.08-.67.16.09.39.36.52.29,0-.24-.08-.35-.11-.61.12.37.26.29.26.58.16-.12.2-.15.33-.51a1.36,1.36,0,0,1-.15-.33c0-.07.14.12.19.3v0c.08-.62.89.9.85.07v0l.08-.46c.12,0,0,.29.17.5,0-.68.37,0,.43-.48.46,1,.47-.22.86.41l-.09-.25c0-.26.11.13.16.18-.07-.2-.12-.22-.13-.36.32-.44,1,.12,1.44.23.17,0-.29-1.35.08-.79l.08.49c.15-.66.64-.16.81-.73,0,.11.05.26,0,.26.16.33.24,0,.17-.33.05,0,.08.25.15.39s0-.49.17-.15a.4.4,0,0,1,0,.15c0-.18.2,0,.05-.41.17.16.17-.23.33,0-.06-.47.26.16.1-.48.17.66.35.47.34.15,0,.2.12.18.16.47.08,0,.12-.18,0-.51.36.74.14-.71.49.27a2.93,2.93,0,0,1,.5-.93c.17.65-.23.13,0,.81.14-.32.12-.92.37-.81.08.07,0,.29.05.4.14-.32.43,0,.52-.45a.64.64,0,0,1,0,.19s.11.08,0-.22L20,6a5.27,5.27,0,0,1-.14-1.17c.16.87.25.17.42,1.27a1,1,0,0,0-.05-.41.67.67,0,0,1,.11.4c.09-.2,0-.5.09-.52a3.18,3.18,0,0,1,.06.37c0-.29,0-.59.11-.49s.05.2,0,.2c.17-.09.11-.82.37-.6.1.64.12.19.27.73l.06-.19-.11-.25c.09,0,.08-.43.2-.27v.24l.14-.15-.15-.18c0-.3-.18-.68,0-.56,0,.06.09,0,.22.29h0c0-.18,0-.38.1-.26s.14.61.18.72c-.07-.46.18-.18.12-.67a3.75,3.75,0,0,0,.09.46L22,4.54a.94.94,0,0,1,.14.39c.14,0-.21-.68,0-.42,0,0,0,.09,0,.15.19.12.23-.31.42-.16.17.54-.09.17.07.62.17-.15.25-.76.48-.68l-.06-.05c-.15-.78.24.35.25,0a1.39,1.39,0,0,0,.06.35c.16.1.22-.25.37-.54l0,.2c.12.16.23.06.33.13A1.07,1.07,0,0,0,24,4c.53,1.11.37-.69.8.12,0,0,0,.2,0,.19L25,4.06a2.35,2.35,0,0,0-.16-.4c0-.19,0-.35.05-.36a1,1,0,0,0,.19.63A2.3,2.3,0,0,1,25,3.65c.21.48-.12-.59.1-.28l0,.15c0-.1,0-.3.11-.27.09.3,0,.16,0,.42.07-.06,0-.63.16-.35,0,.09-.06.11-.07.2.15.33.14.23.21.26h0l.16.09-.05-.07c-.06-.76.16-.23.2-.7,0,.44,0,.24.08.52,0,.06.12.12.12.2,0-.24.13.1.15-.24,0,.07.07,0,.1.17.06-.11,0-.12-.07-.23.07-.3.35.14.45-.26.13-.19.12-.38.25-.49.07.07,0,.19,0,.19s.14,0,.21-.07,0,.06,0,.1,0-.16.1-.14a.51.51,0,0,1,0,.17c.06-.07.12-.16.18-.22s0,.09,0,.14.19-.16.2-.21h-.05s0,0,0,.07-.11,0-.12,0l0,0c-.08-.14-.2.08-.3.13V2.7a.89.89,0,0,0-.08.17s-.07-.14,0-.18-.05.08-.14,0,0,0,0,0l-.07.07s0-.14,0-.12c-.16-.12-.18.19-.27,0v0c-.17.1,0,.18-.07.44l-.2-.49,0,.21s-.06,0-.07-.1c0,.15,0,.09,0,.24-.14-.2-.23.15-.34-.24,0,.2.12.13.05.28-.12-.43-.1.1-.23-.09s.09-.12,0-.34c0,.42-.19-.09-.25,0,.08.36-.12.16-.22.3,0-.14-.28-.21-.43-.38l0-.07c.08.45-.06.37-.12.48a1.39,1.39,0,0,1,0-.53h-.08a.45.45,0,0,1,0,.29l-.06-.37c-.11,0-.12.44-.32.18.08.39.35,1,.26,1.32a3.67,3.67,0,0,1-.12-.65s0,.18,0,.1l0-.36c-.09-.14,0,.3,0,.28-.07-.3-.08-.21-.13-.44,0,0,.07.11.06,0a.84.84,0,0,1-.24-.42,1.24,1.24,0,0,1,.06.45c-.1,0-.12-.34-.21-.47,0,.21-.1,0,0,.45,0,0-.08-.19-.12-.3,0,.2-.24.11-.07.55l0,0v0h0c-.08.47-.43-.16-.56.07l0-.14c-.07.18-.21.15-.21.47a.89.89,0,0,1-.17-.42c-.05.13,0,.29-.19.08,0-.27-.08-.21,0-.2-.14-.1-.22-.32-.23.1,0-.38-.19-.45-.22-.33l.14.25c0,.07-.1.05-.16,0l-.09-.5c-.35-.53-.13,1.1-.54.15,0,.36.18.22.22.62-.11,0-.38-.71-.41-.7-.2-.24.05.74-.14.59a1.84,1.84,0,0,1,.13.81A1.59,1.59,0,0,1,20.9,3s0,0,.05.09a.41.41,0,0,0,0-.33l0,.18c-.09-.17-.22-.12-.26-.41a.39.39,0,0,0,.11.37c-.18-.22-.19,0-.37-.1a.8.8,0,0,1,.1.29c-.24-.16,0,.35-.11.46-.14-.24-.13-.63-.21-.38a1.11,1.11,0,0,1-.13-.6c0,.36-.28-.16-.36-.21l0-.15c0,.09,0,.09-.08.1l.12.34a.29.29,0,0,1-.12-.19,7.31,7.31,0,0,1,.18.89c-.09-.16-.1.23-.23-.22.19.11-.14-.46,0-.57,0,.06,0,.07-.09,0a.34.34,0,0,1,0-.13c-.25-.37.07.54-.08.57-.05-.27-.17-.48-.18-.42s.14.42.14.63c-.15-.17-.07.18-.12.17l.08.08c0,.26,0,.24-.06.34-.06-.2,0-.16,0-.24,0,.47-.29-.42-.32-.09-.09-.17-.13-.49-.2-.59,0,.36-.22-.32-.27,0a1,1,0,0,1,.11.61l.14-.3v.54c.06,0,.07-.25.13-.21a.87.87,0,0,0,.1.5c-.22-.5-.09.34-.28,0l-.22-.86c-.25-.35-.14.51-.39.34l.1.13c.07.35-.1.08-.12.24a2.78,2.78,0,0,0-.21-.56c.06.21-.15,0,0,.6l-.19-.36c-.19-.11,0,.86-.12.8,0-.32-.16-.5-.12-.75-.05,0-.11,0-.06.17-.08-.17,0,.42-.15.16,0,.13.09.43,0,.42s0-.14,0-.14a1.52,1.52,0,0,0,.1.52c-.39-.85-.4.18-.74-.55a1,1,0,0,1-.27.3c0-.09,0-.14,0-.12-.21-.23.14.84-.09.59-.2-.44,0-.27-.09-.43-.28-.94-.14.17-.4-.35V4.11c-.16-.3-.09.41-.23.38a1.19,1.19,0,0,0,0-.14,1.28,1.28,0,0,1-.16.87,1.81,1.81,0,0,0-.12-.57c0,.06.18.59.1.72a3.66,3.66,0,0,1-.34-.73L15,4.58c-.19-.49-.12.06-.2,0l-.06-.23c-.14.12,0,.69-.16.69l.07.17c.07.59-.17-.29-.14.15l-.19-.56a3.8,3.8,0,0,1-.13.75,3.8,3.8,0,0,1,0-1c-.07,0-.2.1-.15.39,0-.06,0-.21.05-.13.06.47,0,.72-.1.75-.3-1.11-.39-.19-.73-1-.1.47-.48,0-.71.09.35.83-.06,0,.22.92,0,.08-.07.07-.09,0l-.33-.47c-.12-.24,0-.21-.07-.41-.15,0-.17-.35-.32-.56.11.31.09.46,0,.36l.23.38c0,.52-.38-.69-.42-.18l0-.29c0,.19-.34.1-.21.83a1,1,0,0,1-.12-.41c-.25,0-.26.9-.56.52l0-.22c0,.08,0,.43-.06.23s0-.22-.08-.23,0,.41-.08.3l0-.25c-.3-.22-.14.69-.27.89-.2-.63-.43-.79-.55-.86l0-.09c-.28,0-.26.66-.41,1-.36-.64-.57-.14-.92-.44a1.37,1.37,0,0,1,.13.56c-.09-.11,0,.49-.18-.09h0c-.23-.55-.29-.36-.38-.35l.23.76c-.58-1-.45.59-.9-.35,0,.21-.06.23,0,.44l-.13-.41c-.18,0-.27-.08-.43.08L6.57,6c-.11,0,.26,1.21.17,1.26l-.23-.59c-.18.07-.54-.39-.53.21a.79.79,0,0,1-.06-.3c-.09,0-.47-.29-.16.52-.18-.53-.2,0-.22.28L5.42,7c.09.54.13.68.07.86,0,0-.14-.31-.06-.22-.17-.18.05.4-.13.22l0-.26c-.1,0,0,.13,0,.44S5,8,4.91,7.63c.06.22.11.53,0,.45a.65.65,0,0,1-.07-.27c-.25-.21-.07.54-.31.19a1,1,0,0,0-.11-.23c.13,0,.24,0,.24,0a3.87,3.87,0,0,1-.35-.93c0,.31.09,1-.07.82l0-.13v0s0,0,0,.08S4.07,7.47,4,7.48c-.12-.3-.17-.12-.23-.12.15.4.06.36.24.66,0,0,0,0,0-.08s0,0,0,0v0l.12-.07c0,.22,0,.4-.08.2l.15.67c-.26-.53-.5-.79-.64-1.12-.07.28-.31.26-.14,1,0,.11-.13-.2-.19-.32s0-.08,0-.19c0,.21-.23.16-.06.7-.19-.18-.12-.52-.23-.35l0-.17c-.28-.32-.25.12-.27.46s-.06.62-.36.3a.24.24,0,0,1,.09.12c-.24-.08-.38.14-.54.29a.54.54,0,0,1-.56.21c-.12,0-.07.16-.09.31l-.09-.17,0,.26c-.1.19-.38-.2-.47.16l0,.05c-.06,0-.18.17-.2.1s0,.07,0,.05l0,0a1.07,1.07,0,0,1-.14.16c-.12.06,0-.12-.18,0a.65.65,0,0,1-.14.15l.07,0-.06,0s-.08,0,.12,0H.26l.06,0-.12,0a.2.2,0,0,0,.15,0l.07,0a.21.21,0,0,0,.1-.06s0,.06.07.1-.09-.09,0-.12.09.1.14.05,0,.06,0,.07.18,0,.18-.08c.1.11.2,0,.27.17,0,0,.05-.15.11-.16,0,.26.22,0,.32.34,0-.27.25-.09.32-.26,0,0,0,.08,0,.06s.16.14.24.22c-.1-.3,0-.37,0-.57.22.31.09.38.23.68-.1-.26.07-.25-.05-.48a1.46,1.46,0,0,1,.25.39c-.15-.44.05-.06,0-.34.2.23.2.44.26.31A.36.36,0,0,1,2.88,11.48Zm2.27-1.4h0l0,0ZM5.36,10a.12.12,0,0,0-.1,0c-.06-.14-.1-.28-.07-.28A.72.72,0,0,0,5.36,10ZM3.94,7.4c0-.07.06,0,.09.09a.14.14,0,0,0,0,.07v.05Q4,7.49,3.94,7.4Z"/><path class="cls-1" d="M4.07,7.94s0,0,0,0l.06.08,0-.13Z"/><path class="cls-1" d="M23.57,2.89h0l0,0Z"/><polygon class="cls-1" points="8.48 9.79 8.45 9.69 8.46 9.78 8.48 9.79"/><path class="cls-1" d="M25.06,3.93a.94.94,0,0,0,0,.09A.92.92,0,0,0,25.06,3.93Z"/><path class="cls-1" d="M25.56,3.78l.09.07Z"/><path class="cls-1" d="M26,3.73l0-.12h0Z"/><path class="cls-1" d="M20,6.09s0,0,0,0S20,6.17,20,6.09Z"/><path class="cls-1" d="M21.56,4.67a1.28,1.28,0,0,1,0,.21S21.62,4.91,21.56,4.67Z"/><polygon class="cls-1" points="18.04 7.12 18.04 7.12 18.03 7.12 18.04 7.12"/><path class="cls-1" d="M21.46,4.89c.05.08.08.05.09,0S21.47,4.83,21.46,4.89Z"/><polygon class="cls-1" points="27.56 2.86 27.58 2.85 27.58 2.84 27.56 2.86"/><path class="cls-1" d="M27.58,2.84l0,0Z"/><path class="cls-1" d="M27.64,2.78l0,0Z"/><path class="cls-1" d="M27.07,3.12v0S27.07,3.14,27.07,3.12Z"/><path class="cls-1" d="M26.92,3.21s.12.06.16,0v0C27.07,3.26,26.94,3.11,26.92,3.21Z"/><path class="cls-1" d="M26.09,2.57l.15.06c0-.08-.1-.19,0-.21C26,2.17,26.28,2.6,26.09,2.57Z"/><path class="cls-1" d="M25.63,2.44c.06,0,0-.15-.05-.21S25.55,2.34,25.63,2.44Z"/><path class="cls-1" d="M22.56,2.79l-.08-.38C22.44,2.48,22.51,2.56,22.56,2.79Z"/><polygon class="cls-1" points="22.45 4.85 22.56 5.07 22.51 4.72 22.45 4.85"/><polygon class="cls-1" points="21.48 2.28 21.48 2.22 21.43 2.38 21.48 2.28"/><path class="cls-1" d="M16.5,3.71l.14.45C16.65,4.06,16.52,3.55,16.5,3.71Z"/><path class="cls-1" d="M14.48,4.77c-.09-.22-.19-.35-.17-.11C14.37,4.68,14.47,4.84,14.48,4.77Z"/><polygon class="cls-1" points="7.85 6 7.84 5.84 7.8 5.99 7.85 6"/><path class="cls-1" d="M95.19,7.57h0Z"/><path class="cls-1" d="M95,7.53a.12.12,0,0,0-.08.12c0-.06.06-.05.11-.09s.06,0,0,0h.07a.24.24,0,0,0-.15,0S95,7.54,95,7.53Z"/><path class="cls-1" d="M92,6.19v.06A.11.11,0,0,0,92,6.19Z"/><path class="cls-1" d="M90.14,5.5s0-.06,0-.1A.16.16,0,0,0,90.14,5.5Z"/><path class="cls-1" d="M89.93,4.89v0S89.94,4.85,89.93,4.89Z"/><path class="cls-1" d="M92,6.19,92,6C92,6.18,92,6.14,92,6.19Z"/><path class="cls-1" d="M94.48,7.77l0,0,0,0Z"/><path class="cls-1" d="M92.92,6.08h0a1.22,1.22,0,0,0,0-.17Z"/><path class="cls-1" d="M93.53,6.41a2.46,2.46,0,0,0-.11.38.48.48,0,0,1,.07-.18C93.5,6.56,93.51,6.49,93.53,6.41Z"/><path class="cls-1" d="M94.43,7.27h0Z"/><path class="cls-1" d="M92.5,5.76a1.3,1.3,0,0,1,0-.15Z"/><path class="cls-1" d="M73.85,3.78v0Z"/><polygon class="cls-1" points="73.19 3.04 73.2 3.04 73.2 3.04 73.19 3.04"/><path class="cls-1" d="M89.45,4.23h0S89.46,4.2,89.45,4.23Z"/><path class="cls-1" d="M83.84,3.31c0,.38-.2.45-.2.88A3.56,3.56,0,0,0,83.84,3.31Z"/><path class="cls-1" d="M94.46,7.76h0Z"/><path class="cls-1" d="M83.64,4.19h0v0Z"/><path class="cls-1" d="M88,4.17c0,.07,0,.13,0,.18A.68.68,0,0,0,88,4.17Z"/><path class="cls-1" d="M88.91,5l0-.06S88.9,5,88.91,5Z"/><path class="cls-1" d="M87.34,4.63s0-.09,0,0v0C87.32,4.58,87.34,4.56,87.34,4.63Z"/><path class="cls-1" d="M86.78,4.51v.08l0,0Z"/><path class="cls-1" d="M75.39,5.05c0-.11,0-.24,0-.36C75.38,5,75.29,5,75.39,5.05Z"/><path class="cls-1" d="M94.49,7.71l0,0h0A.08.08,0,0,0,94.49,7.71Z"/><path class="cls-1" d="M86.59,7.87l-.07-.08A.1.1,0,0,0,86.59,7.87Z"/><path class="cls-1" d="M79.36,5.9l0,0S79.35,6,79.36,5.9Z"/><path class="cls-1" d="M86.24,7.79a1,1,0,0,0,0-.29l0,.1Z"/><path class="cls-1" d="M75.42,4.69Z"/><path class="cls-1" d="M74.77,5c.07.1.1-.34.15-.55.12,0,0,.33,0,.57.07,0,.18-.4.22-.35a.74.74,0,0,1,0,.19c.12-.31.18.14.34-.29,0,0,0,.09,0,.13L75.53,4s.13-.29.08,0c0,0,0,.11-.07.21l.06-.13c0,.5-.08.14-.14.49.1-.1.26-.47.29-.3-.08.5-.16.09-.17.57l0-.25c-.07.8,0-.09-.12.75.08.25.16-.11.24.1.08-.27.07-.42.15-.7.26-.46-.1,1.31.15.63.1-.34.23-1,.26-.62l-.14.56c.11.07.22-.8.27-.4-.06.22-.13.17-.12.24,0,.46.11-.31.18-.3l-.08.5c.13-.05.34-.39.49-.46a1.85,1.85,0,0,0-.08.46c.22-.21.36.13.47.46l.14-.42a.71.71,0,0,1,0,.29c0,.17.06-.28.12-.44s0,.26,0,.38c.19-.34.48-.73.52-.24l0,.12c.06.2.28-.86.28-.44l0,.07c.17.23.48-.12.5.56.16-.61.15.32.34-.55a3.19,3.19,0,0,0,.07.93s.17-.53.25-.61L79.16,6l.17-.46-.07.55.07-.1a1.26,1.26,0,0,1,0-.35c.12-.18.13.36.08.59l.27-.34a2.2,2.2,0,0,1-.13.35c.19-.45-.08.48.1.07a2.09,2.09,0,0,1,.08-.36c0,.28.09.31.19.21l-.08.31c.13.11.33-.09.48,0a1.85,1.85,0,0,1,.16-.74l-.08.48c.09-.29,0-.19.12-.54a1.8,1.8,0,0,1-.13.7l.1-.15c0,.15-.06.22-.1.4.09-.29,0,.5.17,0l0,.14c.15,0,.26-.11.39-.11a3.35,3.35,0,0,1,.23-.64c.07.16.1.5.22.49a2.82,2.82,0,0,0,.19-.58c-.08.38,0,.36-.07.62.15,0,.19,0,.42-.3a1.84,1.84,0,0,1,0-.36s0,.17,0,.35v0c.31-.52.21,1.19.53.44l0,0,.25-.38c.06.08-.11.28-.1.52.31-.59.25.15.48-.24-.13,1.13.41,0,.4.75l0-.26c.09-.25,0,.16,0,.22a2.54,2.54,0,0,1,.06-.38c.39-.24.59.53.87.84.1.09.36-1.34.38-.68l-.15.47c.37-.52.49.13.84-.3,0,.1-.07.25-.09.24,0,.37.18.06.25-.23,0,0-.05.27-.06.42s.23-.42.18-.07a.37.37,0,0,1-.06.14c.07-.16.15.08.2-.34,0,.22.22-.14.23.12.15-.45.11.25.27-.39-.16.66,0,.57.16.27-.06.2,0,.22-.08.49.07,0,.16-.1.22-.44,0,.82.39-.59.23.44a2.9,2.9,0,0,1,.71-.63c-.15.66-.21,0-.35.72.22-.24.44-.78.57-.58s-.09.28-.13.39c.23-.24.31.13.54-.2,0,.06,0,.12-.07.17s0,.11.11-.19l-.05.08a6.62,6.62,0,0,1,.37-1.12c-.24.85.1.25-.22,1.32a1.39,1.39,0,0,0,.13-.39.9.9,0,0,1-.08.41c.14-.14.17-.47.26-.44s-.06.19-.11.36c.11-.27.22-.54.27-.4s0,.2-.06.19c.15,0,.4-.7.49-.39-.18.62,0,.22-.11.77l.12-.15,0-.27c.07,0,.22-.36.24-.17l-.1.21.16-.07,0-.22c.13-.27.14-.7.2-.52s.07,0,0,.35h0c.07-.17.15-.34.17-.2s-.15.61-.16.73c.13-.45.19-.09.34-.57a4.22,4.22,0,0,0-.11.46l.11-.37a1,1,0,0,1-.06.41c.09.09.13-.7.18-.37,0,0,0,.08-.06.13s.28-.18.35,0c-.09.56-.13.12-.19.59.17-.07.46-.59.59-.43l0-.06c.19-.78,0,.41.18.06a2.5,2.5,0,0,0-.09.34c.08.14.25-.15.46-.36l-.06.2c0,.19.14.13.18.24a1.85,1.85,0,0,0,.14-.45c-.06,1.21.51-.5.5.41,0,0-.09.17-.07.17l.2-.19a2.38,2.38,0,0,0,0-.43c.06-.18.14-.32.17-.31a1.4,1.4,0,0,0-.1.65l.06-.28c0,.52.14-.59.18-.23l0,.15c.06-.07.14-.26.17-.21,0,.32-.07.14-.13.4.07,0,.25-.57.24-.26,0,.08-.08.08-.13.16,0,.36,0,.26,0,.31h0l.08.13V7.86c.23-.72.2-.14.39-.57-.18.39-.06.23-.13.51a.45.45,0,0,1,0,.23c.1-.22.06.14.19-.17,0,.08.06,0,0,.2.08-.08,0-.13,0-.24s.19.25.4-.08c.16-.13.22-.31.35-.36s-.07.17-.07.17.1,0,.17,0a.14.14,0,0,0,0,.11s.06-.14.11-.09a.44.44,0,0,1-.08.15.85.85,0,0,1,.21-.14s0,.07-.08.11.19-.08.22-.13l0,0s0,0,0,.06-.08,0-.08,0h0c0-.16-.17,0-.26,0l.07-.16a.69.69,0,0,0-.11.13s0-.15,0-.17-.06,0-.09-.07a0,0,0,0,1,0,0l-.07,0s0-.15,0-.1c-.07-.18-.2.1-.2-.09h0c-.15,0,0,.17-.2.38l0-.52,0,.2s0,0,0-.12c-.08.13,0,.09-.07.23,0-.23-.22.06-.15-.35-.06.19,0,.17-.07.28.08-.45-.1.06-.12-.17s.1-.08.09-.33c-.13.4-.1-.15-.17-.1-.08.36-.14.1-.26.19,0-.13-.11-.29-.16-.5l0-.07c-.11.44-.18.32-.26.39a1.49,1.49,0,0,1,.16-.5l-.06,0a.47.47,0,0,1-.13.26L92.9,6c-.08,0-.25.36-.29,0a5.28,5.28,0,0,1-.31,1.3,3.32,3.32,0,0,1,.16-.63s-.07.16-.07.07l.12-.34c0-.17-.09.28-.12.24.07-.29,0-.22.08-.45,0,0,0,.13,0,0a1.15,1.15,0,0,1,0-.48,1.29,1.29,0,0,1-.13.43c-.08,0,0-.35,0-.51-.07.2-.07,0-.17.42a1.78,1.78,0,0,1,0-.33c-.08.19-.2,0-.25.49v0h0c-.23.4-.23-.31-.4-.15l0-.15c-.12.15-.2.06-.33.36a1.51,1.51,0,0,1,0-.45c-.08.1-.12.26-.16,0,.12-.24,0-.23.1-.17,0-.14,0-.38-.19,0,.11-.36,0-.48,0-.38v.28s-.08,0-.11,0l.12-.48c0-.63-.51.94-.42-.08-.12.34,0,.26-.09.65a7.3,7.3,0,0,1,0-.8c0-.29-.25.69-.32.48a2.18,2.18,0,0,1-.23.79,2.07,2.07,0,0,1,.15-.88s0,0,0,.11a.64.64,0,0,0,.09-.32l0,.17c0-.19-.11-.19,0-.47a.47.47,0,0,0-.07.38c0-.27-.15,0-.21-.23a.81.81,0,0,1,0,.3c-.1-.25-.14.31-.25.37,0-.28.16-.63,0-.43a1.44,1.44,0,0,1,.15-.6c-.17.32-.12-.26-.16-.33l.08-.13c0,.08-.07.07-.1.06l-.05.36a.39.39,0,0,1,0-.22c-.08.22-.11.58-.23.88,0-.18-.16.16-.07-.3.08.18.09-.47.21-.52,0,0-.06,0-.07,0a.19.19,0,0,1,0-.12c0-.44-.17.51-.28.47.07-.25.08-.5,0-.45a1.81,1.81,0,0,1-.16.63c0-.22-.12.14-.15.1l0,.11c-.07.25-.1.21-.17.28,0-.2.08-.13.08-.22-.16.44,0-.5-.18-.21,0-.19.11-.49.1-.62-.16.32,0-.37-.17-.12a1.39,1.39,0,0,1-.17.6l.21-.21-.21.48s.14-.19.16-.13a1.19,1.19,0,0,0-.13.49c0-.54-.19.27-.19-.1l.19-.86c0-.41-.29.4-.39.15v.16c-.09.34-.1,0-.17.16A4.44,4.44,0,0,0,88,4.35c0,.22-.1,0-.24.53l0-.39c-.09-.18-.32.79-.41.67a3.78,3.78,0,0,1,.22-.73s-.06-.08-.1.13c0-.19-.19.36-.17.08,0,.12-.11.42-.15.39s0-.14,0-.14A1.74,1.74,0,0,0,87,5.4c.08-.93-.34,0-.27-.81a.74.74,0,0,1-.3.16c0-.09,0-.15,0-.11,0-.3-.25.81-.3.49,0-.48.12-.24.12-.43.2-1-.17.1-.12-.47l0-.05c0-.34-.23.32-.31.23s0-.08,0-.14A1.56,1.56,0,0,1,85.5,5a2.82,2.82,0,0,0,.15-.57c-.05,0-.12.61-.23.69a5.11,5.11,0,0,1,.08-.8h.08c.08-.53-.11,0-.13-.1L85.51,4c-.14,0-.27.62-.39.55l0,.18c-.19.55,0-.34-.15.07l.1-.58a3.17,3.17,0,0,1-.39.61,5.84,5.84,0,0,1,.4-.85s-.16,0-.25.28c0-.05.08-.19.08-.09-.15.44-.28.65-.37.62.26-1.12-.18-.34-.06-1.23-.26.38-.29-.24-.5-.22-.12.89-.06,0-.24.91-.06,0-.08,0-.07,0l0-.56c0-.27.09-.19.13-.39s0-.39,0-.65c0,.33-.13.46-.16.32v.43c-.24.45,0-.78-.2-.33l.11-.28c-.11.15-.27-.06-.49.65A1.24,1.24,0,0,1,83.11,3c-.15-.14-.55.69-.58.22L82.59,3c0,.06-.15.4-.14.17a1.21,1.21,0,0,0,0-.23c0,.07-.17.37-.18.23l.08-.24c-.1-.32-.38.55-.55.67a1.69,1.69,0,0,0,0-1l0-.09c-.18-.12-.45.47-.68.69,0-.73-.32-.38-.42-.81a1.43,1.43,0,0,1-.15.56c0-.13-.21.43-.08-.16h0c.09-.59,0-.45-.09-.48L80.3,3c0-1.16-.55.33-.44-.71-.09.19-.14.18-.22.36l.08-.41c-.09-.13-.14-.2-.31-.13l.09-.29c-.08,0-.34,1.18-.42,1.19l.1-.63c-.15,0-.19-.59-.44,0a1.58,1.58,0,0,1,.08-.29c-.06,0-.18-.48-.32.38.11-.55-.14-.08-.26.15l.09-.41c-.17.51-.2.66-.32.78,0,0,0-.33,0-.22,0-.23-.13.38-.17.14L78,2.65c-.07,0-.09.09-.19.39s-.12-.13-.06-.5c0,.22-.15.52-.18.4a1.9,1.9,0,0,1,.07-.27c-.07-.3-.27.45-.28,0a2.42,2.42,0,0,0,0-.25c.1,0,.17.07.16.09a4.83,4.83,0,0,1,.16-1c-.12.28-.34.88-.39.68a1.23,1.23,0,0,0,0-.13v0s0,0-.06,0,0-.11,0-.12c0-.32-.06-.19-.1-.21a4.31,4.31,0,0,0-.13.69A.06.06,0,0,1,77,2.43a.05.05,0,0,0,0,0v0h.11c-.07.21-.14.38-.14.14-.07.26-.14.53-.18.66,0-.59,0-.92.06-1.28-.17.22-.32.09-.54.85,0,.1,0-.24,0-.37s.06-.05.09-.16c-.1.17-.22,0-.34.59,0-.25.15-.51,0-.41l0-.17c0-.41-.22,0-.37.28s-.3.52-.36.09a.38.38,0,0,1,0,.15c-.12-.18-.3,0-.47,0a.34.34,0,0,1-.45-.08c-.08,0-.12.11-.19.23V2.75L74.21,3c-.14.12-.16-.35-.36-.08V3c-.06,0-.2,0-.18,0s0,.06,0,0V3L73.49,3c-.11,0,0-.11-.14,0a.62.62,0,0,1-.16.07s.07,0,.07,0H73.2s0,0,.07.08l.09,0,0,.05-.07-.07c0,.06.06.07.09.08l0,.07a.15.15,0,0,0,.09,0c0,.06,0,.05,0,.13s0-.13,0-.11,0,.13.07.11,0,.06,0,.06.1.09.14,0c0,.14.15.08.11.28,0,0,.1-.11.14-.1-.12.23.14.12.06.45.1-.25.21,0,.33-.08s0,.07,0,0a.84.84,0,0,1,.06.3c.06-.31.15-.32.23-.51,0,.38-.1.38-.13.7,0-.27.15-.18.17-.44a1.9,1.9,0,0,1,0,.47c.09-.47.06,0,.15-.31,0,.3-.06.48,0,.4A.43.43,0,0,1,74.77,5Zm2.07-.18h0l0,0Zm.17,0a.11.11,0,0,0-.07,0c0-.14,0-.29.07-.28A.8.8,0,0,0,77,4.83Zm.18-2.94s0,0,0,.12,0,0-.06,0V2.1C77.16,2,77.17,2,77.19,1.89Z"/><path class="cls-1" d="M77,2.43l0,0v.09l0-.13Z"/><path class="cls-1" d="M92,6.26h0v0Z"/><polygon class="cls-1" points="79.14 6.07 79.16 5.96 79.13 6.05 79.14 6.07"/><path class="cls-1" d="M92.65,7.77a.28.28,0,0,0,0,.09A.22.22,0,0,0,92.65,7.77Z"/><path class="cls-1" d="M93.05,7.81l0,.1A.34.34,0,0,0,93.05,7.81Z"/><path class="cls-1" d="M93.35,7.91l0-.11h0Z"/><path class="cls-1" d="M88.32,7.74l0,0C88.25,7.83,88.28,7.8,88.32,7.74Z"/><path class="cls-1" d="M90,7.1l-.09.18S89.91,7.33,90,7.1Z"/><polygon class="cls-1" points="86.6 7.88 86.6 7.87 86.59 7.87 86.6 7.88"/><path class="cls-1" d="M89.81,7.26c0,.09,0,.08.07,0S89.85,7.2,89.81,7.26Z"/><polygon class="cls-1" points="94.78 7.69 94.79 7.69 94.8 7.68 94.78 7.69"/><path class="cls-1" d="M94.8,7.68h0Z"/><path class="cls-1" d="M94.86,7.64l0,0Z"/><path class="cls-1" d="M94.34,7.75v0A.2.2,0,0,0,94.34,7.75Z"/><path class="cls-1" d="M94.21,7.79s.05.09.11,0v0C94.29,7.88,94.25,7.7,94.21,7.79Z"/><path class="cls-1" d="M93.86,6.9,94,7c0-.08,0-.21,0-.2C93.92,6.49,94,7,93.86,6.9Z"/><path class="cls-1" d="M93.59,6.6c.06,0,0-.15,0-.2A.2.2,0,0,0,93.59,6.6Z"/><path class="cls-1" d="M91.37,5.77l.09-.37S91.43,5.54,91.37,5.77Z"/><polygon class="cls-1" points="90.51 7.61 90.5 7.86 90.59 7.52 90.51 7.61"/><polygon class="cls-1" points="90.84 4.89 90.87 4.84 90.77 4.96 90.84 4.89"/><path class="cls-1" d="M87,4.17l-.09.46C86.92,4.55,87,4,87,4.17Z"/><path class="cls-1" d="M85.19,4.27c0-.24,0-.4-.06-.18C85.16,4.13,85.16,4.32,85.19,4.27Z"/><polygon class="cls-1" points="80.33 2.44 80.4 2.29 80.31 2.41 80.33 2.44"/><path class="cls-1" d="M61,2.43s0,0,0,0l0,0Z"/><path class="cls-1" d="M60.77,2.43s-.08.09-.06.13,0-.05.09-.11.05,0,0,0l.06,0a.22.22,0,0,0-.13,0S60.77,2.44,60.77,2.43Z"/><path class="cls-1" d="M57.86,1.73l0,.06A.08.08,0,0,0,57.86,1.73Z"/><path class="cls-1" d="M56.07,1.46a.23.23,0,0,0,0-.11A.14.14,0,0,0,56.07,1.46Z"/><path class="cls-1" d="M55.76.91l0,0S55.76.87,55.76.91Z"/><path class="cls-1" d="M57.86,1.73l0-.15C57.81,1.74,57.84,1.7,57.86,1.73Z"/><path class="cls-1" d="M60.37,2.76a.05.05,0,0,0,0,0l0,0Z"/><path class="cls-1" d="M58.66,1.43h0a1,1,0,0,0,0-.18Z"/><path class="cls-1" d="M59.27,1.63a2.29,2.29,0,0,0,0,.39.68.68,0,0,1,0-.19Z"/><path class="cls-1" d="M60.23,2.29l0,0Z"/><path class="cls-1" d="M58.22,1.21v0Z"/><path class="cls-1" d="M41.2,3.05v0Z"/><polygon class="cls-1" points="40.5 2.43 40.51 2.43 40.51 2.42 40.5 2.43"/><path class="cls-1" d="M55.2.37h0S55.21.34,55.2.37Z"/><path class="cls-1" d="M50,.68c.06.38-.1.49,0,.9A4.41,4.41,0,0,0,50,.68Z"/><path class="cls-1" d="M60.35,2.76h0S60.35,2.77,60.35,2.76Z"/><path class="cls-1" d="M50,1.58h0v0Z"/><path class="cls-1" d="M53.9.63c0,.07,0,.12,0,.18S53.91.71,53.9.63Z"/><path class="cls-1" d="M54.87,1.22l0-.05S54.86,1.22,54.87,1.22Z"/><path class="cls-1" d="M53.4,1.22s0-.09,0,0v.05C53.38,1.18,53.39,1.15,53.4,1.22Z"/><path class="cls-1" d="M52.88,1.22v.09l0,0Z"/><path class="cls-1" d="M42.79,4.05l0-.36C42.77,4,42.7,4,42.79,4.05Z"/><path class="cls-1" d="M60.37,2.7s0,0,0,.06l0,0Z"/><path class="cls-1" d="M53.38,4.55l-.08-.07S53.35,4.55,53.38,4.55Z"/><path class="cls-1" d="M46.53,4.14l0,.05S46.52,4.19,46.53,4.14Z"/><path class="cls-1" d="M53.05,4.55a2.44,2.44,0,0,0,0-.3v.11Z"/><path class="cls-1" d="M42.76,3.69Z"/><path class="cls-1" d="M42.22,4.1c.08.08,0-.36.05-.57.1-.06,0,.32.08.56.06-.06.1-.43.15-.39a1.33,1.33,0,0,1,0,.2c.06-.32.18.11.25-.34a.57.57,0,0,1,0,.13c0-.26,0-.51,0-.69,0,0,.07-.31.08,0,0,0,0,.12,0,.22l0-.14c0,.5-.05.15-.05.5.07-.11.15-.5.21-.34,0,.51-.13.11-.06.59l-.08-.23c.06.79-.06-.09,0,.76.12.22.13-.15.24.05,0-.29,0-.43,0-.72.16-.5.13,1.31.24.59,0-.34,0-1,.13-.66l0,.58c.11.06.06-.83.18-.44,0,.23-.09.19-.07.26.07.45,0-.33.11-.33v.51c.12-.08.24-.45.37-.54a1.85,1.85,0,0,0,0,.47c.17-.26.35.06.51.36l.06-.44a1.19,1.19,0,0,1,0,.29c.06.16,0-.28,0-.45s0,.25,0,.38c.11-.37.31-.8.42-.33l0,.13c.09.18.1-.9.18-.49v.07c.19.2.4-.21.55.46,0-.64.19.28.2-.6a3.93,3.93,0,0,0,.23.89s.06-.56.11-.65v.46l.06-.48,0,.55,0-.12a1.08,1.08,0,0,1,0-.34c.08-.21.18.32.19.56L46.83,4a1.57,1.57,0,0,1,0,.37c.09-.47,0,.49.1.05,0-.1,0-.27,0-.37,0,.28.14.29.21.17v.32c.13.08.27-.16.42-.15a2.08,2.08,0,0,1,0-.75l0,.49c0-.31-.05-.19,0-.56a1.89,1.89,0,0,1,0,.72l.06-.17c0,.14,0,.22,0,.4,0-.3.11.5.15,0v.14c.14,0,.21-.16.33-.18a3.72,3.72,0,0,1,.08-.67c.09.13.19.46.3.43a2.9,2.9,0,0,0,.05-.61c0,.38.11.35.06.62.12-.06.16-.07.32-.39a1.46,1.46,0,0,1,0-.35c0-.07.07.16.07.34v0c.18-.57.42,1.12.56.32v0l.15-.42c.07.07,0,.29,0,.53.16-.64.25.09.39-.33.1,1.13.36-.08.5.64V4.39c0-.26,0,.16.07.22a3,3,0,0,1,0-.39c.31-.32.63.39.94.63.11.07.06-1.38.21-.74l0,.49c.23-.59.47,0,.69-.48,0,.12,0,.26,0,.26.05.36.18,0,.18-.27a2.87,2.87,0,0,1,0,.41c.05.21.12-.46.14-.1a.26.26,0,0,1,0,.14c0-.17.15.05.12-.37.08.2.16-.18.23.06,0-.46.14.23.15-.43,0,.68.15.55.2.23,0,.2,0,.21,0,.5.06,0,.12-.14.11-.49.11.81.22-.65.28.39a2.82,2.82,0,0,1,.51-.77c0,.68-.18.07-.17.78.16-.28.24-.86.4-.7s0,.29,0,.41c.16-.28.3.06.44-.31a1.08,1.08,0,0,1,0,.19s.06.1.06-.21l0,.08A7.62,7.62,0,0,1,55,2.75c0,.88.14.22.06,1.34a1.59,1.59,0,0,0,0-.41.81.81,0,0,1,0,.41c.1-.16.06-.49.15-.48s0,.2,0,.38c.05-.29.09-.58.16-.46s0,.21,0,.21.21-.78.35-.5c0,.65.05.22.06.78l.07-.17,0-.27c.07,0,.13-.4.18-.22l0,.23.13-.1-.07-.22c.06-.28,0-.7.08-.55s.06,0,.1.34h0c0-.18.06-.37.11-.23s0,.62,0,.74c0-.47.15-.13.19-.63,0,.12,0,.41,0,.48l0-.39a1.2,1.2,0,0,1,0,.42c.09.07,0-.71.08-.41a1,1,0,0,1,0,.15c.11.16.21-.24.31,0,0,.56-.09.13-.05.61.14-.1.3-.68.44-.54l0-.07c0-.79.1.4.17,0a2.46,2.46,0,0,0,0,.36c.09.12.19-.2.34-.45l0,.2c.06.19.15.11.21.2A1.57,1.57,0,0,0,58,3c.19,1.2.36-.59.53.3a.45.45,0,0,0,0,.18l.15-.23a2.09,2.09,0,0,0-.05-.42c0-.2.06-.34.09-.34a1.59,1.59,0,0,0,0,.66v-.3c.08.52,0-.6.12-.25v.15c0-.08.07-.28.11-.24,0,.32,0,.15,0,.42.06,0,.12-.61.17-.31,0,.09-.06.1-.09.19.06.35.07.25.11.29h0l.1.11,0-.08c.07-.75.14-.18.24-.63-.09.42,0,.24,0,.52a.56.56,0,0,1,.05.23c0-.24.08.12.14-.21,0,.08,0,0,0,.19.06-.09,0-.13,0-.24.09-.28.22.2.35-.16.11-.16.13-.35.24-.43a.25.25,0,0,1,0,.18c.06.07.1,0,.15,0a.15.15,0,0,0,0,.11s0-.15.09-.11l0,.16a1.45,1.45,0,0,1,.16-.18s0,.08,0,.13.15-.12.17-.17l0,0s0,0,0,.07-.08,0-.08,0l0,0c0-.15-.15,0-.23.06l0-.16-.08.14s0-.15,0-.17,0,.06-.09-.05,0,0,0,0l0,0s0-.15,0-.11c-.09-.16-.15.14-.19,0v0c-.13.06,0,.18-.11.41l-.07-.51v.21s0,0,0-.12c0,.15,0,.1,0,.24-.07-.22-.18.1-.2-.31,0,.2.07.16,0,.29,0-.45-.08.08-.15-.14s.08-.1,0-.34c0,.42-.12-.13-.17-.07,0,.37-.11.13-.19.25,0-.14-.16-.27-.24-.46V1.54c0,.46-.1.35-.16.44a2.3,2.3,0,0,1,0-.52l-.06,0a.64.64,0,0,1-.06.28V1.34c-.08,0-.15.41-.25.11a5.88,5.88,0,0,1,0,1.34,3.28,3.28,0,0,1,0-.66s0,.18,0,.09l0-.36c0-.16,0,.3-.06.26,0-.3,0-.21,0-.45,0,0,0,.12,0,0a1.6,1.6,0,0,1-.1-.47,1.34,1.34,0,0,1,0,.45c-.07,0,0-.36-.07-.51,0,.21-.06,0-.06.45a1.41,1.41,0,0,1,0-.33c0,.2-.18.06-.13.53v.05c-.13.44-.26-.25-.39-.06V1.64c-.07.17-.16.1-.22.42a1.37,1.37,0,0,1,0-.45c-.06.11-.06.28-.15,0s0-.23.06-.19c-.07-.13-.09-.37-.17,0,0-.38,0-.48-.09-.37l0,.27c0,.06-.07,0-.11,0l0-.5c-.15-.6-.27,1-.39,0,0,.35.08.25,0,.65-.07-.06-.14-.78-.17-.78-.09-.28-.09.73-.19.54a2.26,2.26,0,0,1,0,.82,2.35,2.35,0,0,1,0-.89s0,0,0,.1a.59.59,0,0,0,0-.33V1.2C56.07,1,56,1,56,.74a.55.55,0,0,0,0,.39c-.09-.26-.14,0-.23-.18a1.06,1.06,0,0,1,0,.3c-.13-.22-.06.34-.15.42,0-.27,0-.65-.07-.42a1.42,1.42,0,0,1,0-.62c-.09.34-.16-.23-.21-.29L55.42.2c0,.08-.05.08-.08.08l0,.35a.3.3,0,0,1,0-.21c0,.24,0,.59,0,.91,0-.18-.11.2-.12-.27.11.16,0-.48.08-.56s0,.06-.06,0a.25.25,0,0,1,0-.13c-.11-.42-.05.54-.16.52,0-.26,0-.5,0-.44a1.77,1.77,0,0,1,0,.64c-.07-.2-.08.16-.11.13l0,.1c0,.27,0,.23-.1.32,0-.21,0-.15,0-.24-.06.47-.12-.48-.2-.17,0-.18,0-.5,0-.62-.09.35-.09-.36-.18-.08a1.61,1.61,0,0,1,0,.62L54.54.9l-.09.52s.09-.23.12-.16a1.2,1.2,0,0,0,0,.5c-.06-.54-.12.31-.19-.05V.82c-.1-.4-.18.45-.32.23l0,.16c0,.35-.08,0-.12.19,0-.3,0-.41,0-.59,0,.22-.1,0-.12.57L53.74,1c-.11-.16-.12.84-.23.74A5.21,5.21,0,0,1,53.57,1s-.07-.06-.07.15c0-.19-.1.4-.13.12,0,.13,0,.44-.06.41V1.51a1.81,1.81,0,0,0,0,.52c-.11-.92-.31.07-.4-.72a.63.63,0,0,1-.24.21c0-.09,0-.14,0-.11-.1-.28-.06.85-.17.54-.06-.48.06-.26,0-.44,0-1-.13.13-.2-.44V1c0-.34-.13.36-.22.3V1.17a1.76,1.76,0,0,1-.27.8,2.89,2.89,0,0,0,0-.59c0,.05,0,.62-.07.73a6.45,6.45,0,0,1-.09-.81l.08,0c0-.53-.1,0-.14-.07V1c-.12.08-.12.67-.24.63v.17c-.07.59-.06-.32-.12.11l0-.59A4.53,4.53,0,0,1,51,2a6,6,0,0,1,.2-.92c-.05,0-.15,0-.17.33,0,0,0-.2,0-.11Q51,2,50.91,2c0-1.15-.23-.29-.29-1.19-.15.43-.31-.18-.49-.11.07.89-.05,0,0,.94,0,.06-.05,0-.06,0L49.9,1c0-.27,0-.2,0-.41s0-.39-.1-.63c0,.33,0,.47-.08.34l.07.43c-.13.49-.11-.77-.24-.29l0-.29c-.06.17-.24,0-.31.73a1.47,1.47,0,0,1,0-.42c-.15-.11-.35.78-.47.33V.61c0,.06,0,.42-.09.19a1.65,1.65,0,0,0,0-.23c0,.07-.08.39-.12.26l0-.25c-.16-.3-.24.61-.37.76a1.8,1.8,0,0,0-.18-1V.27c-.18-.08-.31.55-.47.8-.11-.71-.35-.3-.52-.7a2.12,2.12,0,0,1,0,.58c0-.13-.11.46-.11-.14h0c0-.6-.11-.44-.17-.45v.79c-.17-1.15-.43.42-.52-.61,0,.2-.09.19-.13.39V.52C46.09.41,46,.36,45.9.46l0-.31c-.08,0-.1,1.23-.17,1.25l0-.63c-.13,0-.27-.55-.4,0a1.1,1.1,0,0,1,0-.3c-.06,0-.24-.43-.22.44,0-.57-.14-.06-.21.19V.71c-.06.54-.06.68-.15.83,0-.05,0-.33,0-.23-.06-.22-.05.4-.13.18l0-.27c-.07,0-.06.11-.1.42s-.13-.1-.14-.48c0,.23,0,.54-.09.43a1,1,0,0,1,0-.28c-.12-.28-.17.49-.25.08a2.4,2.4,0,0,0,0-.25c.09,0,.17,0,.16.06a5.15,5.15,0,0,1,0-1c-.06.29-.17.92-.24.74a.62.62,0,0,0,0-.13v0s0,0,0,.06,0-.11-.06-.11c0-.32-.09-.17-.13-.19a5.42,5.42,0,0,0,0,.7.08.08,0,0,1,0-.07s0,0,0,0v0l.09,0c0,.21-.06.39-.1.16L43.8,2c0-.59-.15-.91-.16-1.27a1.3,1.3,0,0,0-.34.94c0,.1,0-.24,0-.37s0-.06,0-.18c-.06.19-.19.08-.2.65-.08-.24,0-.53-.07-.41l0-.18c-.11-.39-.2,0-.29.35s-.19.56-.31.15a.29.29,0,0,1,0,.14c-.14-.15-.28,0-.42.09a.29.29,0,0,1-.42,0c-.08,0-.09.13-.13.26l0-.19-.08.24c-.11.14-.2-.32-.34,0l0,.07c-.06,0-.17.09-.16,0s0,.07,0,.05V2.26a.45.45,0,0,1-.13.11c-.1,0,0-.12-.13,0a.71.71,0,0,1-.13.09h0s0,0,.07.06l.09,0,0,.05-.07-.06c0,.06.07.06.1.06a.21.21,0,0,0,0,.07.11.11,0,0,0,.08,0s0,0,0,.12,0-.12,0-.12,0,.13.08.11,0,0,0,0,.11.08.14,0c0,.14.14.06.13.26,0,0,.08-.12.12-.12-.07.25.14.1.12.43.05-.25.19,0,.28-.12s0,.07,0,0a1,1,0,0,1,.1.28A1.77,1.77,0,0,1,41.93,3c.07.37,0,.38,0,.71,0-.28.11-.2.09-.46a2.13,2.13,0,0,1,.07.45c0-.46,0,0,.09-.32.07.29,0,.48.09.38A.5.5,0,0,1,42.22,4.1Zm1.84-.55h0l0,0Zm.16,0a.09.09,0,0,0-.07,0c0-.15,0-.3,0-.29A.86.86,0,0,0,44.22,3.54ZM43.89.62c0-.06,0,0,0,.11a.12.12,0,0,0,0,.05v0C43.88.75,43.89.68,43.89.62Z"/><path class="cls-1" d="M43.85,1.17s0,0,0,0l0,.09V1.17Z"/><path class="cls-1" d="M57.89,1.8h0a.11.11,0,0,1,0,.06Z"/><polygon class="cls-1" points="46.36 4.35 46.35 4.24 46.34 4.34 46.36 4.35"/><path class="cls-1" d="M58.74,3.15a.28.28,0,0,0,0,.09A.28.28,0,0,0,58.74,3.15Z"/><path class="cls-1" d="M59.11,3.1l0,.09A.58.58,0,0,0,59.11,3.1Z"/><path class="cls-1" d="M59.39,3.14c0-.05,0-.09,0-.12h0Z"/><path class="cls-1" d="M54.89,4.05h0C54.85,4.15,54.87,4.11,54.89,4.05Z"/><path class="cls-1" d="M56.23,3.06a1.93,1.93,0,0,1,0,.2S56.23,3.3,56.23,3.06Z"/><polygon class="cls-1" points="53.39 4.55 53.39 4.55 53.38 4.55 53.39 4.55"/><path class="cls-1" d="M56.12,3.25c0,.09.05.07.06,0S56.14,3.19,56.12,3.25Z"/><polygon class="cls-1" points="60.62 2.63 60.63 2.62 60.63 2.61 60.62 2.63"/><path class="cls-1" d="M60.64,2.61h0Z"/><path class="cls-1" d="M60.68,2.57l0,0Z"/><path class="cls-1" d="M60.24,2.78v0Z"/><path class="cls-1" d="M60.13,2.84s.07.08.11,0v0C60.22,2.91,60.16,2.74,60.13,2.84Z"/><path class="cls-1" d="M59.66,2l.09.09c0-.09,0-.21,0-.21C59.63,1.62,59.78,2.11,59.66,2Z"/><path class="cls-1" d="M59.36,1.81s0-.16,0-.21A.22.22,0,0,0,59.36,1.81Z"/><path class="cls-1" d="M57.22,1.46V1.08S57.22,1.23,57.22,1.46Z"/><polygon class="cls-1" points="56.81 3.45 56.85 3.69 56.87 3.33 56.81 3.45"/><polygon class="cls-1" points="56.57 0.71 56.59 0.66 56.52 0.8 56.57 0.71"/><path class="cls-1" d="M53,.85l0,.47C53,1.24,53,.71,53,.85Z"/><path class="cls-1" d="M51.42,1.33c0-.24-.06-.39-.09-.16C51.37,1.21,51.4,1.39,51.42,1.33Z"/><polygon class="cls-1" points="46.77 0.56 46.8 0.4 46.74 0.54 46.77 0.56"/><path class="cls-1" d="M125,19.64h0Z"/><path class="cls-1" d="M124.87,19.54a.11.11,0,0,0-.12.07l.13,0s0,0,0,0l.06,0a.2.2,0,0,0-.12-.06Z"/><path class="cls-1" d="M123,17.4l0,.06A.39.39,0,0,0,123,17.4Z"/><path class="cls-1" d="M121.74,16.25s.05,0,.07-.08A.27.27,0,0,0,121.74,16.25Z"/><path class="cls-1" d="M121.77,15.63v0S121.79,15.6,121.77,15.63Z"/><path class="cls-1" d="M123,17.4l0-.16C123,17.38,123,17.36,123,17.4Z"/><path class="cls-1" d="M124.37,19.58l0,0h0Z"/><path class="cls-1" d="M123.83,17.57h0l.11-.14Z"/><path class="cls-1" d="M124.19,18.06s-.16.21-.24.31a.6.6,0,0,1,.13-.14Z"/><path class="cls-1" d="M124.55,19.12h0Z"/><path class="cls-1" d="M123.61,17.15l.08-.13Z"/><path class="cls-1" d="M108.34,12.4v0S108.33,12.39,108.34,12.4Z"/><polygon class="cls-1" points="107.85 11.63 107.86 11.63 107.86 11.63 107.85 11.63"/><path class="cls-1" d="M121.57,14.89h0S121.6,14.87,121.57,14.89Z"/><path class="cls-1" d="M117,12.88c-.1.37-.28.4-.38.82A4.51,4.51,0,0,0,117,12.88Z"/><path class="cls-1" d="M124.36,19.57h0Z"/><path class="cls-1" d="M116.6,13.7h0v0Z"/><path class="cls-1" d="M120.35,14.49l-.07.17A1.1,1.1,0,0,0,120.35,14.49Z"/><path class="cls-1" d="M120.87,15.47v-.06A.21.21,0,0,0,120.87,15.47Z"/><path class="cls-1" d="M119.65,14.79s0-.09,0,0v0S119.67,14.72,119.65,14.79Z"/><path class="cls-1" d="M119.21,14.56a.3.3,0,0,0,0,.08l0,0Z"/><path class="cls-1" d="M109.48,13.72c0-.11,0-.23.07-.35C109.48,13.64,109.41,13.67,109.48,13.72Z"/><path class="cls-1" d="M124.41,19.53s0,0,0,0h0Z"/><path class="cls-1" d="M118.06,17.71l0-.09Q118,17.7,118.06,17.71Z"/><path class="cls-1" d="M112.64,14.85l0,0S112.62,14.89,112.64,14.85Z"/><path class="cls-1" d="M117.81,17.58a2.57,2.57,0,0,0,.09-.28.9.9,0,0,1-.05.09Z"/><path class="cls-1" d="M109.55,13.37Z"/><path class="cls-1" d="M109,13.64c0,.09.12-.34.19-.54.1,0,0,.32-.08.56.07,0,.21-.39.23-.34a.67.67,0,0,1,0,.19c.14-.3.13.15.32-.27l0,.13c.06-.25.13-.5.18-.67,0,0,.14-.28.06.05,0,0-.05.11-.09.2l.07-.12c-.1.49-.08.13-.18.47.09-.09.28-.44.28-.28-.13.5-.14.08-.21.55v-.24c-.16.78,0-.09-.2.74,0,.24.15-.11.19.1.1-.26.11-.41.21-.68.28-.44-.26,1.29.05.63.12-.32.32-.95.29-.6l-.19.55c.08.08.29-.78.28-.38-.08.21-.13.16-.13.23-.07.46.14-.3.19-.28l-.14.49c.12-.05.34-.37.48-.42a2.25,2.25,0,0,0-.14.44c.22-.2.28.15.32.49l.19-.41a.94.94,0,0,1-.08.28c0,.17.09-.27.17-.42s0,.25-.1.37c.2-.33.51-.68.46-.2l-.06.12c0,.19.37-.83.31-.41l0,.06c.11.24.42-.08.33.59.23-.59.06.33.37-.5a3.66,3.66,0,0,0-.11.91c0,.05.24-.5.32-.58l-.16.44.23-.43-.16.53.08-.1a1.34,1.34,0,0,1,.08-.33c.14-.18,0,.36,0,.58l.28-.32a1.62,1.62,0,0,1-.17.33c.24-.41-.16.46.06.08,0-.1.11-.25.14-.34-.06.28,0,.31.12.23l-.12.29c.07.12.28-.06.4,0a2.22,2.22,0,0,1,.27-.7l-.16.46c.14-.27,0-.19.21-.52a2.07,2.07,0,0,1-.25.67l.12-.13c0,.13-.1.2-.17.37.14-.27-.08.5.15,0l-.06.13c.13.06.24-.08.35-.06a4.08,4.08,0,0,1,.32-.6c0,.16,0,.5.08.5a2.72,2.72,0,0,0,.28-.54c-.14.36,0,.36-.19.6.13,0,.16,0,.42-.25a1.51,1.51,0,0,1,.11-.34c.05,0,0,.18-.08.34l0,0c.38-.47-.1,1.17.34.49l0,0,.29-.33c0,.09-.15.25-.2.49.39-.53.17.18.45-.16-.38,1.07.33.06.14.77l.11-.25c.14-.22,0,.16,0,.22a2.78,2.78,0,0,1,.14-.35c.39-.18.35.59.49.92,0,.11.65-1.21.49-.58l-.25.42c.45-.44.36.21.77-.15-.06.1-.13.23-.15.22-.12.34.13.08.27-.18a3.09,3.09,0,0,1-.17.38c-.06.21.31-.36.16,0a.31.31,0,0,1-.08.12c.1-.14.09.1.26-.28,0,.21.21-.1.15.15.25-.4,0,.25.33-.32-.32.6-.14.54.06.29-.12.17-.07.2-.22.44.05,0,.16-.06.31-.38-.29.77.49-.47.05.47a2.79,2.79,0,0,1,.77-.46c-.33.59-.18,0-.51.61.25-.18.61-.65.65-.44s-.17.25-.23.34c.26-.17.2.19.49-.07a.61.61,0,0,1-.12.15s0,.11.15-.16l-.06.06a8.77,8.77,0,0,1,.67-1c-.47.75,0,.26-.61,1.19a1.81,1.81,0,0,0,.23-.34,1.23,1.23,0,0,1-.2.36c.16-.1.29-.4.36-.35s-.12.17-.21.32c.18-.23.36-.46.35-.32s-.1.18-.11.17.56-.57.53-.26c-.37.53-.07.2-.36.68l.15-.1.11-.25s.31-.28.25-.1l-.15.17.15,0,0-.21c.2-.22.37-.61.35-.44s.05,0-.09.34h0c.11-.14.24-.28.2-.14s-.33.53-.38.63c.27-.38.18,0,.48-.44a4.39,4.39,0,0,0-.26.4l.22-.31a1.59,1.59,0,0,1-.19.36c0,.11.35-.61.27-.3l-.09.11c0,.19.29-.1.27.1-.28.5-.14.08-.37.5.17,0,.6-.43.63-.25V18.3c.45-.66-.13.38.13.1a2.35,2.35,0,0,0-.21.29c0,.15.26-.07.51-.2l-.13.16c-.06.18.06.16.05.27a1.83,1.83,0,0,0,.29-.37c-.52,1.08.6-.32.23.51,0,0-.14.13-.12.13l.23-.11a3.17,3.17,0,0,0,.21-.38c.12-.15.23-.25.26-.23a1.63,1.63,0,0,0-.35.56l.16-.24c-.23.46.35-.49.24-.15l-.1.12c.08-.05.22-.19.23-.14-.17.27-.12.11-.27.32.06,0,.43-.44.3-.16-.07.06-.1,0-.17.11-.16.31-.1.24-.09.29h0v.14l0-.08c.49-.57.22-.07.55-.39-.31.29-.15.19-.31.42a.78.78,0,0,1-.09.21c.17-.17,0,.14.22-.1,0,.07.05,0-.08.18.1,0,.06-.11.13-.2.23-.18,0,.28.36.05.17-.06.3-.2.42-.2s-.12.12-.12.12,0,.09.13.07a.13.13,0,0,0,0,.09s.11-.1.13,0a1.5,1.5,0,0,1-.13.11,1,1,0,0,1,.22-.06s-.07.05-.11.08.18,0,.23,0l0,0s0,.05,0,.05,0,0,0-.06h0c.06-.14-.14,0-.21-.07l.12-.12-.15.08c0-.05.07-.14.11-.14s-.07,0,0-.09l0,0-.07,0s.08-.13.08-.08c0-.18-.2,0-.12-.14h0c-.14,0-.11.14-.33.27l.25-.45-.13.16s0,0,0-.11c-.12.09-.05.08-.15.18.08-.22-.2,0,0-.36-.14.15,0,.17-.18.23.25-.38-.1,0,0-.19s.11,0,.2-.27c-.27.33,0-.16-.09-.14-.21.3-.16.05-.29.09.08-.1,0-.3.08-.5l0-.06c-.27.36-.27.23-.37.28a1.7,1.7,0,0,1,.33-.41l0-.05a.62.62,0,0,1-.21.19l.22-.3s-.34.26-.25,0a7,7,0,0,1-.77,1.1,3.93,3.93,0,0,1,.38-.54s-.12.13-.08.05l.23-.28c0-.15-.19.24-.19.19.16-.25.1-.19.23-.39,0,0,0,.12,0,0a1.64,1.64,0,0,1,.18-.44,1.7,1.7,0,0,1-.27.36c-.08,0,.18-.31.22-.46-.13.17,0,0-.3.34a1.92,1.92,0,0,1,.16-.29c-.14.14-.18-.05-.4.37v0h0c-.34.3-.07-.35-.27-.25l.08-.13c-.15.11-.19,0-.4.24a1.24,1.24,0,0,1,.21-.4c-.11.07-.2.2-.14,0s.11-.21.15-.13c0-.15.12-.36-.16-.06.23-.3.21-.43.12-.35l-.1.26c-.06,0-.07,0-.08-.07l.28-.41c.19-.59-.77.74-.33-.18-.22.27-.06.25-.31.57,0-.09.3-.73.28-.75.07-.28-.45.58-.44.37a2.65,2.65,0,0,1-.46.67,2.4,2.4,0,0,1,.42-.78s0,.05,0,.1a.53.53,0,0,0,.19-.27l-.09.15c.06-.18,0-.21.14-.45a.52.52,0,0,0-.18.34c.06-.26-.11-.08-.1-.27a1.34,1.34,0,0,1-.15.27c0-.26-.22.26-.33.28.09-.26.34-.55.15-.39a1.7,1.7,0,0,1,.32-.53c-.24.25,0-.27,0-.35l.11-.1c-.07.06-.09.05-.1,0l-.16.32a.36.36,0,0,1,.06-.2c-.14.19-.28.52-.48.77.06-.17-.19.12,0-.3,0,.19.23-.41.34-.44s-.06,0,0,0l.07-.11c.13-.41-.3.44-.39.38.15-.22.23-.45.19-.41a1.75,1.75,0,0,1-.34.55c0-.21-.14.1-.16.06v.11c-.15.22-.16.17-.24.22.1-.18.11-.1.14-.19-.28.38.14-.48-.08-.24.06-.17.25-.44.28-.56-.24.26.1-.36-.11-.15a1.65,1.65,0,0,1-.33.52l.24-.15-.33.41s.19-.15.18-.09a1.45,1.45,0,0,0-.26.43c.21-.49-.25.22-.13-.13l.43-.77c.1-.39-.38.31-.38,0l0,.16c-.19.3-.09,0-.2.11a4.51,4.51,0,0,0,.25-.54c-.11.2-.08-.06-.37.45l.13-.37c0-.19-.5.69-.54.55a4.36,4.36,0,0,1,.41-.65s0-.08-.13.1c.07-.17-.27.31-.16,0-.08.11-.23.38-.25.34l.07-.13a1.94,1.94,0,0,0-.27.45c.34-.86-.28-.07,0-.81a.71.71,0,0,1-.3.09c0-.08.07-.14.07-.1,0-.29-.44.73-.39.41s.16-.21.22-.38c.43-.88-.17.06,0-.48l0,0c.1-.32-.28.27-.33.17l.07-.13a1.67,1.67,0,0,1-.59.6,2,2,0,0,0,.28-.52c-.05,0-.26.57-.38.63a6.68,6.68,0,0,1,.28-.76h.08c.2-.49-.09,0-.09-.12l.11-.21c-.13,0-.39.55-.48.46l-.06.17c-.32.5.09-.32-.16,0l.24-.54a4.91,4.91,0,0,1-.49.52,6.28,6.28,0,0,1,.56-.75s-.14,0-.29.23c0,0,.12-.17.1-.08-.25.4-.41.58-.47.53.5-1-.08-.35.24-1.18-.31.32-.19-.29-.38-.3-.31.84,0,0-.42.84-.06,0-.07,0-.05,0l.11-.55c.09-.25.12-.17.2-.36s.13-.37.17-.61c-.12.3-.22.41-.21.28l-.11.41c-.31.4.21-.74-.1-.35l.16-.25c-.13.13-.22-.1-.57.55a1.57,1.57,0,0,1,.17-.39c-.1-.16-.62.59-.56.13l.1-.21c0,.05-.21.37-.15.15s.09-.2.09-.22-.22.34-.21.2l.13-.22c0-.33-.45.48-.62.57a1.87,1.87,0,0,0,.21-1l0-.09c-.13-.14-.48.4-.72.58.17-.7-.21-.4-.21-.83a2,2,0,0,1-.24.53c0-.14-.26.39,0-.17h0c.18-.56.05-.45,0-.48l-.29.74c.26-1.14-.53.25-.26-.74-.1.17-.14.15-.25.32l.15-.39c-.06-.14-.1-.21-.25-.16l.12-.28c-.06-.05-.49,1.13-.56,1.13l.19-.61c-.13,0-.07-.6-.38-.1a1.47,1.47,0,0,1,.12-.27s-.08-.48-.34.35c.18-.54-.11-.1-.25.12l.14-.39a2.64,2.64,0,0,1-.39.74c0-.06.09-.33.08-.22,0-.22-.17.37-.18.13l.11-.25s-.09.09-.22.38c-.09.14-.09-.14,0-.51-.08.22-.21.5-.21.39a1.39,1.39,0,0,1,.1-.26c0-.31-.3.41-.25,0,0-.13,0-.2.06-.24s.14.08.13.1a4.64,4.64,0,0,1,.28-.94c-.15.26-.43.83-.44.64l0-.13,0,0s0,0-.06.05,0-.12,0-.13c.08-.31,0-.19-.06-.21a3.76,3.76,0,0,0-.2.67.06.06,0,0,1,0-.06l0,0v0h.09c-.09.2-.17.36-.14.12-.09.26-.19.52-.24.64.12-.58.13-.91.22-1.26-.18.2-.29.07-.58.81,0,.08,0-.24.06-.37s.06,0,.1-.15c-.11.16-.2,0-.37.56,0-.25.19-.5.05-.41l.07-.17c0-.41-.19,0-.36.26s-.32.49-.33.07a.23.23,0,0,1,0,.14c-.08-.18-.25-.07-.41,0s-.29.06-.38-.1-.11.1-.18.21l0-.18-.13.21c-.14.11-.11-.35-.31-.1v.08s-.17.05-.15,0,0,.06,0,0v0l-.14.07c-.09,0,0-.11-.11-.06a.43.43,0,0,1-.14.06h0s0-.05,0,.08a.2.2,0,0,0,.07.06v.05l0-.07c0,.06,0,.07.07.08a.19.19,0,0,0,0,.07.12.12,0,0,0,.08,0s0,0,0,.12,0-.12.06-.1,0,.12,0,.11,0,.06,0,.05.08.1.12,0c0,.15.11.09.06.28,0,0,.1-.1.13-.09-.12.22.11.13,0,.45.11-.24.16,0,.28-.06s0,.07,0,0a.74.74,0,0,1,0,.3,1.82,1.82,0,0,1,.25-.49c0,.38-.13.37-.19.69.06-.27.15-.17.19-.43a1.75,1.75,0,0,1-.06.46c.13-.45.06,0,.16-.29,0,.29-.11.47,0,.39A.6.6,0,0,1,109,13.64Zm1.75-.07h0Zm.14,0a.09.09,0,0,0-.06,0,1,1,0,0,1,.1-.27A1.3,1.3,0,0,0,110.86,13.61Zm.57-2.88c0-.05,0,0,0,.11l-.06,0v0A1.5,1.5,0,0,1,111.43,10.73Z"/><path class="cls-1" d="M111.23,11.24l0,0,0,.09,0-.12Z"/><path class="cls-1" d="M123,17.47h0l0,.05Z"/><polygon class="cls-1" points="112.43 14.99 112.46 14.89 112.42 14.97 112.43 14.99"/><path class="cls-1" d="M122.93,19a.2.2,0,0,0,0,.08Z"/><path class="cls-1" d="M123.23,19.18v.1A.46.46,0,0,0,123.23,19.18Z"/><path class="cls-1" d="M123.42,19.36a.36.36,0,0,1,.08-.09h0Z"/><path class="cls-1" d="M119.48,17.93a0,0,0,0,0,0,0C119.41,18,119.44,18,119.48,17.93Z"/><path class="cls-1" d="M121,17.7l-.14.15S120.91,17.91,121,17.7Z"/><polygon class="cls-1" points="118.07 17.72 118.07 17.71 118.06 17.71 118.07 17.72"/><path class="cls-1" d="M120.85,17.81c0,.09,0,.08.05,0S120.9,17.77,120.85,17.81Z"/><polygon class="cls-1" points="124.64 19.61 124.65 19.62 124.66 19.61 124.64 19.61"/><path class="cls-1" d="M124.66,19.61h0Z"/><path class="cls-1" d="M124.72,19.6h0Z"/><path class="cls-1" d="M124.27,19.53l0,0Z"/><path class="cls-1" d="M124.15,19.52s0,.1.06.08l0,0C124.17,19.63,124.23,19.45,124.15,19.52Z"/><path class="cls-1" d="M124.26,18.6l0,.13c0-.08.09-.19.13-.17C124.49,18.25,124.31,18.73,124.26,18.6Z"/><path class="cls-1" d="M124.17,18.25s.08-.12.12-.17A.25.25,0,0,0,124.17,18.25Z"/><path class="cls-1" d="M122.67,16.84l.21-.32C122.82,16.54,122.8,16.64,122.67,16.84Z"/><polygon class="cls-1" points="121.29 18.31 121.19 18.53 121.39 18.24 121.29 18.31"/><polygon class="cls-1" points="122.54 15.87 122.58 15.83 122.45 15.92 122.54 15.87"/><path class="cls-1" d="M119.46,14.27l-.21.42C119.31,14.63,119.56,14.16,119.46,14.27Z"/><path class="cls-1" d="M117.91,14c.09-.22.12-.38,0-.18S117.87,14.08,117.91,14Z"/><polygon class="cls-1" points="114.09 11.56 114.18 11.42 114.08 11.53 114.09 11.56"/><path class="cls-1" d="M130.05,7.68s0,0,0,.05l0,0Z"/><path class="cls-1" d="M130.11,8.05c0,.06.11.12.14.07s-.06-.07-.13-.13,0-.09,0-.08,0-.09,0-.11a.65.65,0,0,0,.06.25S130.12,8.05,130.11,8.05Z"/><path class="cls-1" d="M130.29,13.45l.06,0A.09.09,0,0,0,130.29,13.45Z"/><path class="cls-1" d="M130.57,16.77a.13.13,0,0,0-.11,0A.14.14,0,0,0,130.57,16.77Z"/><path class="cls-1" d="M130.12,17.42l0,0S130.08,17.42,130.12,17.42Z"/><path class="cls-1" d="M130.29,13.45l-.14.11C130.32,13.54,130.27,13.5,130.29,13.45Z"/><path class="cls-1" d="M130.56,8.72l-.06,0,0,0Z"/><path class="cls-1" d="M129.75,12.05v0h-.18Z"/><path class="cls-1" d="M129.75,10.92a1.78,1.78,0,0,0,.41,0c-.12,0-.18,0-.2,0Z"/><path class="cls-1" d="M130.13,9.05l0,0Z"/><path class="cls-1" d="M129.67,12.88l-.15,0Z"/><path class="cls-1" d="M114.36,27.73v0S114.35,27.72,114.36,27.73Z"/><polygon class="cls-1" points="113.01 27.2 113.03 27.2 113.04 27.2 113.01 27.2"/><path class="cls-1" d="M129.76,18.53h0S129.72,18.52,129.76,18.53Z"/><path class="cls-1" d="M130.43,24.05c.11.37-.12.49.06.9A4.19,4.19,0,0,0,130.43,24.05Z"/><path class="cls-1" d="M130.56,8.75l0,0A.05.05,0,0,0,130.56,8.75Z"/><path class="cls-1" d="M130.49,25h0l0,0Z"/><path class="cls-1" d="M130.4,20.85l.18-.06A.62.62,0,0,0,130.4,20.85Z"/><path class="cls-1" d="M130.7,19l0,.05S130.7,19,130.7,19Z"/><path class="cls-1" d="M131.14,21.66s-.09.05,0,.07l0,0C131.1,21.71,131.07,21.7,131.14,21.66Z"/><path class="cls-1" d="M131.29,22.61l.09,0,0,0Z"/><path class="cls-1" d="M117.36,28.49c0-.12,0-.24-.07-.36C117.32,28.41,117.19,28.47,117.36,28.49Z"/><path class="cls-1" d="M130.5,8.73l.06,0,0,0Z"/><path class="cls-1" d="M134.42,21.16l0,.16A.23.23,0,0,0,134.42,21.16Z"/><path class="cls-1" d="M124.25,28l0,.05S124.24,28.07,124.25,28Z"/><path class="cls-1" d="M134.52,21.76a1,1,0,0,0-.27.13h.11Z"/><path class="cls-1" d="M117.29,28.13Z"/><path class="cls-1" d="M116.32,28.65c.15.07,0-.37.05-.59.17-.08.11.32.18.55.11-.07.16-.45.24-.41a.39.39,0,0,1,0,.19c.09-.34.35.08.45-.39l0,.13a5.23,5.23,0,0,1-.08-.69c.06,0,.09-.32.15,0,0,0,0,.12,0,.22l.06-.14c.1.49-.08.16-.05.51.12-.12.24-.53.36-.38.06.51-.23.14-.06.6l-.17-.22c.18.78-.1-.07.07.76.23.21.22-.17.45,0,0-.28,0-.42,0-.71.25-.53.34,1.28.5.55,0-.35,0-1,.18-.68v.58c.2,0,0-.83.29-.46,0,.22-.14.2-.11.26.17.45.07-.33.18-.34l.06.51c.21-.1.41-.48.64-.6a1.06,1.06,0,0,0,0,.47c.28-.28.65,0,1,.29l.07-.45s.07.2.05.28,0-.28,0-.45.1.24.07.38c.17-.39.5-.85.75-.4l0,.14c.18.16.11-.92.29-.52l0,.08c.37.16.73-.27,1,.37,0-.64.37.25.32-.63.24.42.2.58.5.85.08,0,.07-.56.16-.66l0,.46.09-.49.11.55.08-.13a.64.64,0,0,1-.1-.33c.12-.22.36.29.38.53l.3-.42a.82.82,0,0,1-.08.38c.14-.49.07.48.2,0a2.23,2.23,0,0,1,0-.36c.1.27.29.26.41.13v.32c.25.06.49-.2.77-.21a1.06,1.06,0,0,1-.06-.75l.07.48c0-.3-.1-.18,0-.55.1,0,.11.54.07.71l.1-.18c0,.14,0,.22,0,.41,0-.31.25.47.28-.06l0,.14c.27,0,.38-.19.6-.23,0-.42.06-.34.1-.68.17.12.38.43.57.38.12-.22,0-.36.05-.61,0,.38.24.33.16.61.23-.08.29-.1.56-.43a1,1,0,0,1-.08-.36c.05-.06.14.16.15.34l0,0c.29-.6.86,1.06,1.06.24v0l.24-.44c.13.05-.05.29.06.52.24-.66.48.06.68-.39.17.56.55.51.86.41a.9.9,0,0,1,1,.07l-.15-.25c0-.27.21.12.34.15-.12-.19-.25-.2-.25-.35a4.55,4.55,0,0,1,1.29-.42,2.53,2.53,0,0,0,1.28-.84c.2-.31-1.22-.82-.55-.93l.47.32a2.58,2.58,0,0,1-.24-1.19,1.79,1.79,0,0,0-.39-1.14c.12,0,.27,0,.28.1.17-.09.15-.25,0-.38s-.26-.11-.41-.1c0-.07.26-.06.4-.13s-.49-.14-.14-.24a.24.24,0,0,1,.15,0c-.18,0,0-.27-.4-.15.17-.18-.23-.26,0-.42-.47,0,.18-.3-.48-.22.67-.1.5-.36.17-.4.21,0,.19-.12.48-.13,0-.11-.17-.19-.51-.11.77-.34-.71-.31.3-.59a3.59,3.59,0,0,1-.92-.8c.67-.1.12.31.82.18-.32-.23-.92-.3-.8-.6.07-.09.29,0,.41,0-.32-.23,0-.55-.43-.74a.42.42,0,0,1,.19,0c0-.05.08-.13-.23-.08l.09,0c-.42.15-1-.05-1.18,0,.88-.06.17-.28,1.29-.33a.89.89,0,0,0-.41,0c.05-.06.17-.09.41-.08-.2-.15-.51,0-.53-.19a2.3,2.3,0,0,1,.38,0c-.3,0-.6-.06-.49-.22s.2,0,.2,0c-.08-.22-.82-.27-.59-.57.65,0,.2-.12.75-.22L133,16.7l-.26.09c0-.12-.43-.16-.27-.29l.25.05-.15-.2-.18.16c-.31-.08-.7.13-.57-.06.06,0,0-.12.3-.24h0c-.19,0-.38-.06-.26-.17s.62-.08.73-.11c-.47,0-.17-.26-.68-.26a2.82,2.82,0,0,0,.47-.05H132a.67.67,0,0,1,.4-.12c0-.18-.7.17-.43-.08,0,0,.09,0,.15,0,.13-.22-.3-.34-.14-.55.54-.15.16.13.62,0-.15-.24-.76-.43-.67-.71l0,.06c-.79.09.35-.25,0-.32a1.27,1.27,0,0,0,.36,0c.09-.19-.26-.32-.55-.55h.21c.16-.13.06-.28.13-.41-.2,0-.18-.07-.47,0,1.12-.54-.69-.56.14-1,0,0,.19.06.19,0l-.27-.22a1.13,1.13,0,0,0-.41.16c-.2,0-.35-.05-.36-.12.22.08.49-.08.64-.16a2.93,2.93,0,0,1-.29.05c.49-.22-.6.07-.29-.17H131c-.1-.06-.3-.09-.28-.17.31-.09.17,0,.44,0-.06-.1-.65-.11-.36-.25.09,0,.11.09.21.12.33-.16.23-.16.26-.24h0l.09-.2-.08.06c-.77,0-.22-.24-.71-.34.46.1.25,0,.54-.05.07,0,.13-.13.21-.13-.25,0,.11-.16-.25-.22.08,0,0-.09.18-.1-.11-.09-.12,0-.23,0-.31-.12.13-.42-.28-.6-.19-.18-.39-.19-.5-.37.07-.08.19,0,.19,0a.25.25,0,0,0-.07-.27s.06,0,.1-.05-.16,0-.14-.14a.55.55,0,0,1,.17,0,2.62,2.62,0,0,1-.22-.25s.09,0,.14.07a1.27,1.27,0,0,0-.22-.29v.08s0,0,.07,0,0,.14,0,.15l0-.07c-.14.1.08.27.13.41l-.17,0,.17.11s-.14.08-.18,0c-.08.11.08.07,0,.18h0l.07.09s-.15,0-.12,0c-.13.2.19.26,0,.36v0c.1.23.18,0,.44.14l-.5.21h.22a.1.1,0,0,1-.11.08c.16.07.1,0,.25,0-.2.16.16.31-.25.41.2,0,.14-.14.29,0-.45.12.1.14-.1.29s-.13-.13-.35,0c.44,0-.09.24,0,.32.37-.06.16.18.3.32-.13,0-.21.33-.38.51h-.07c.45-.05.38.11.48.21a1.12,1.12,0,0,1-.53,0V12c.15,0,.24,0,.29.07l-.37,0c0,.14.45.21.18.43.39-.06,1-.32,1.33-.17a2.43,2.43,0,0,1-.65.07s.18,0,.1.07h-.36c-.15.1.29,0,.27.06-.3.05-.21.08-.44.11,0,0,.11-.07,0-.08a.79.79,0,0,1-.43.26,1.06,1.06,0,0,1,.46,0c.05.13-.35.11-.48.21.21,0,0,.12.46,0,0,0-.2.08-.32.11.21,0,.11.32.57.17l0,0h0c.48.16-.16.52.06.72l-.15,0c.19.11.15.29.48.34,0,0-.25.13-.42.15.12.08.29.07.07.26-.27-.07-.22.07-.2-.08-.11.16-.33.23.09.31-.38,0-.46.18-.33.22l.25-.14c.07.07,0,.13,0,.2l-.5,0c-.55.38,1.11.33.14.71.35,0,.22-.19.63-.19,0,.13-.73.38-.73.43-.24.21.75,0,.59.25a1.47,1.47,0,0,1,.83,0c0,.14-.71.28-.87.22s0,0,.1-.06a.36.36,0,0,0-.34,0h.18c-.17.09-.12.26-.42.27a.32.32,0,0,0,.38-.09c-.23.2,0,.25-.11.45a.82.82,0,0,1,.3-.08c-.18.29.35.06.45.21-.25.14-.64.07-.39.21a1,1,0,0,1-.61.08c.36.1-.18.32-.23.42l-.15-.06a.14.14,0,0,1,.1.12l.34-.11c-.05.06,0,.1-.19.12a7.17,7.17,0,0,1,.91-.09c-.17.1.22.17-.24.26.12-.22-.47.1-.57-.05.06,0,.07.06,0,.12h-.12c-.39.26.54,0,.56.2-.27,0-.49.13-.43.15s.43-.11.65-.07c-.19.16.17.11.16.18l.08-.09c.27,0,.24.05.34.13-.2,0-.15-.06-.24,0,.48,0-.44.3-.1.38-.17.09-.5.09-.61.16.37.1-.33.23,0,.34a.88.88,0,0,1,.62,0l-.29-.22.54.08c0-.08-.25-.13-.2-.19a.72.72,0,0,0,.5,0c-.51.19.34.16,0,.35l-.88.14c-.36.25.51.26.33.54l.14-.1c.35,0,.07.14.22.2a2.08,2.08,0,0,0-.56.17c.21,0,0,.19.59.11l-.36.18c-.13.22.87.09.8.29-.33,0-.52.12-.77,0,0,.06,0,.13.17.1-.18.06.42.11.15.21.13,0,.44,0,.43,0l-.15,0c.15,0,.22.08.53,0-.88.35.16.54-.59.84a1.22,1.22,0,0,1,.28.4c-.09,0-.14,0-.12,0-.24.22.86,0,.59.22-.46.18-.28-.06-.44,0-1,.21.17.18-.35.28h-.07c-.29,0,.43.09.38.19h-.14a1.4,1.4,0,0,1,.83.49,2.32,2.32,0,0,0-.59-.21c.07.06.62.17.74.33a2.8,2.8,0,0,1-.78-.2l0-.08c-.53-.17,0,.09-.06.09l-.23-.11c.08.11.68.45.62.58l.18.1c.56.47-.34-.15,0,.23l-.59-.41c.13.13.42.58.39.71-.3-.39-.42-.63-.64-.87,0,0,0,.11.17.37,0-.06-.14-.19,0-.12.37.41.45.65.31.66-.81-1-.5-.23-1-1,.06.19,0,.16-.11.08s-.16-.26-.2-.26c.18.89,0,0,.09.92,0,.05-.07,0-.08,0l-.28-.53c-.08-.26.06-.21,0-.41s-.1-.38-.23-.62c.05.33,0,.48-.13.36l.17.41c-.19.51-.26-.75-.46-.25l0-.29c-.11.18-.45,0-.51.77,0-.1-.08-.35,0-.42-.3-.09-.59.83-.85.4v-.22c0,.06-.06.42-.14.2s0-.22,0-.23-.11.4-.19.28l0-.26c-.31-.27-.39.65-.61.82a1.19,1.19,0,0,0-.42-.95v-.09c-.34-.06-.52.59-.81.87-.24-.7-.66-.25-1-.62a1.12,1.12,0,0,1,0,.58c-.08-.13-.16.47-.2-.13h0c-.1-.59-.24-.42-.35-.43l0,.79c-.39-1.12-.76.49-1-.53-.06.21-.15.21-.21.42l0-.43a.52.52,0,0,0-.55,0l0-.31c-.14,0-.07,1.24-.2,1.27l-.09-.63c-.25,0-.54-.5-.74.09,0-.09,0-.28,0-.31-.12,0-.48-.39-.37.48,0-.57-.26,0-.37.22v-.42c-.07.55-.06.69-.21.85,0-.05-.06-.33,0-.23-.14-.21-.06.4-.23.2l0-.28c-.13,0-.11.12-.16.44s-.25-.09-.3-.46c0,.23,0,.54-.12.44a.75.75,0,0,1,0-.28c-.24-.26-.28.51-.46.12a1.24,1.24,0,0,0,0-.25c.17,0,.3,0,.29,0,0-.38-.17-.44-.1-1-.09.3-.23.94-.37.77a.86.86,0,0,1,0-.13v0s-.06,0-.08.07-.08-.11-.12-.11c0-.32-.17-.16-.24-.17,0,.42,0,.36.06.7,0,0,0-.05,0-.07s0,0,0-.05v0l.17,0c0,.22-.08.4-.17.17,0,.27,0,.56,0,.69-.14-.58-.34-.88-.4-1.24-.19.26-.48.18-.54,1,0,.11-.09-.23-.12-.36s.07-.07.08-.18c-.11.2-.35.1-.33.67-.17-.22,0-.54-.15-.4v-.18c-.23-.37-.36.05-.5.38s-.3.6-.56.2a.21.21,0,0,1,.07.14c-.27-.14-.52,0-.77.15a.91.91,0,0,1-.77.06c-.15,0-.15.14-.22.28l0-.19-.13.26c-.2.16-.39-.29-.63,0l0,.07c-.1,0-.3.11-.29,0s0,.07-.06.05V27a1,1,0,0,1-.23.12c-.18,0,0-.12-.24,0a1.08,1.08,0,0,1-.23.11s.1,0,.1,0H113s-.09,0,.14.06l.16,0,0,0-.13,0a.22.22,0,0,0,.18,0,.16.16,0,0,0,.07.07l.15,0s-.07,0,0,.11-.08-.11,0-.12.06.12.15.09,0,.06,0,.07.21.05.25,0c.08.13.26,0,.27.23a.32.32,0,0,1,.2-.13c-.11.26.27.09.27.42.07-.26.34,0,.5-.16,0,0,0,.08,0,.06s.14.18.21.28c0-.32.14-.36.2-.57.15.37,0,.41,0,.74,0-.28.18-.23.12-.5a1.24,1.24,0,0,1,.16.46c0-.48.08-.06.13-.35.16.28.08.49.21.37A.34.34,0,0,1,116.32,28.65Zm3.34-.86h0l-.07,0Zm.29,0a.28.28,0,0,0-.13,0c0-.15,0-.3,0-.29S119.89,27.65,120,27.76Zm-.84-2.86c0-.06.06,0,.07.1l-.07.06v.05A.74.74,0,0,1,119.11,24.9Z"/><path class="cls-1" d="M119.07,25.46v0l0,.09v-.13Z"/><path class="cls-1" d="M130.36,13.4h0l.05,0Z"/><polygon class="cls-1" points="123.95 28.25 123.94 28.14 123.92 28.24 123.95 28.25"/><path class="cls-1" d="M131.43,11.62l.09,0Z"/><path class="cls-1" d="M131.28,11l.08-.11A.29.29,0,0,0,131.28,11Z"/><path class="cls-1" d="M131.24,10.44h0Z"/><path class="cls-1" d="M133.48,18.5h0C133.59,18.55,133.55,18.52,133.48,18.5Z"/><path class="cls-1" d="M132.1,16.21l.21.05C132.33,16.21,132.34,16.18,132.1,16.21Z"/><polygon class="cls-1" points="134.43 21.14 134.42 21.14 134.42 21.16 134.43 21.14"/><path class="cls-1" d="M132.32,16.38c.08-.06.05-.1,0-.12S132.25,16.35,132.32,16.38Z"/><polygon class="cls-1" points="130.35 8.28 130.34 8.26 130.33 8.26 130.35 8.28"/><path class="cls-1" d="M130.33,8.26l0,0S130.32,8.26,130.33,8.26Z"/><path class="cls-1" d="M130.27,8.18l0,.05A.1.1,0,0,0,130.27,8.18Z"/><path class="cls-1" d="M130.61,8.94h0Z"/><path class="cls-1" d="M130.71,9.14c0-.05.06-.14,0-.2h-.05C130.75,9,130.61,9.11,130.71,9.14Z"/><path class="cls-1" d="M130.05,10.14l.06-.19c-.08.05-.2.11-.21,0C129.63,10.25,130.08,9.9,130.05,10.14Z"/><path class="cls-1" d="M129.9,10.72c0-.09-.15,0-.21,0C129.78,10.79,129.81,10.81,129.9,10.72Z"/><path class="cls-1" d="M130.23,14.67l-.39.05C129.91,14.79,130,14.7,130.23,14.67Z"/><polygon class="cls-1" points="132.31 15.09 132.53 14.98 132.18 15.01 132.31 15.09"/><polygon class="cls-1" points="129.68 15.98 129.62 15.96 129.78 16.05 129.68 15.98"/><path class="cls-1" d="M130.9,22.5l.46-.1C131.27,22.37,130.74,22.45,130.9,22.5Z"/><path class="cls-1" d="M131.73,24.38c-.24-.13-.4-.2-.18,0C131.6,24.35,131.79,24.44,131.73,24.38Z"/><polygon class="cls-1" points="124.4 24.41 124.44 24.25 124.35 24.39 124.4 24.41"/></g></g></svg>