<svg xmlns="http://www.w3.org/2000/svg" viewBox="0 0 134.24 28.85" fill="#5c5c5c" xmlns:v="https://vecta.io/nano"><path d="M28 26.28h0zm-.28-.05s-.12.06-.1.11.08 0 .14-.08.07 0 .06 0h.09a.41.41 0 0 0-.2 0s.01-.02.01-.03zm-3.88-1.58v.07s.01-.06 0-.07zm-2.42-.86v-.09a.11.11 0 0 0 0 .09z"/><path d="M21.13 23.16h0c.01-.01.01-.04 0 0zm2.71 1.49v-.16c-.08.15-.03.12 0 .16zm3.26 1.79h0 0zM25 24.61h0a1.38 1.38 0 0 0 .06-.16zm.8.39a3.63 3.63 0 0 0-.12.38c0-.11.07-.16.09-.17s.02-.13.03-.21zm1.2.93h0zm-2.55-1.67v-.15zM.72 19h0zM0 18.07h.02 0H0zm20.49 4.37h0c.03-.04.02-.03 0 0zm-7.1-1.65c0 .39-.27.43-.27.86.03-.16.3-.59.27-.86zm13.69 5.64h0z"/><path d="M13.12 21.65h0 0zm5.54.57a.67.67 0 0 0 0 .18 1.3 1.3 0 0 0 0-.18zm1.17.93v-.06s-.01.05 0 .06zm-2.01-.54s0-.09 0 0v.05c-.02-.09-.01-.12 0-.05zm-.72-.19v.09h0zM2.51 20.73c0-.11.06-.23.09-.34-.08.26-.2.26-.09.34zm24.6 5.65v.05h0a.1.1 0 0 0 0-.05zm-10.19-.56l-.1-.09a.18.18 0 0 0 .1.09z"/><path d="M7.57 22.59h0s-.02.04 0 0zm8.89 3.1a1.06 1.06 0 0 0 0-.3.69.69 0 0 1 0 .1zM2.6 20.38h0z"/><path d="M1.72 20.5c.08.11.18-.31.27-.51.15 0-.05.33-.09.57.1 0 .29-.35.33-.29a.76.76 0 0 1-.06.18c.19-.27.21.2.46-.19v.12c.07-.25.16-.48.22-.65.05 0 .2-.26.1.07l-.12.19.09-.11c-.12.48-.12.11-.23.44.13-.07.38-.39.4-.22-.16.49-.21 0-.28.53v-.26c-.19.78 0-.11-.25.72.07.27.22-.07.3.17.13-.26.14-.41.27-.67.39-.4-.27 1.29.13.68.16-.32.39-.92.39-.56l-.23.53c.13.1.36-.76.39-.34-.11.21-.18.14-.18.22-.06.46.18-.29.25-.26l-.15.49c.18 0 .48-.31.69-.33a1.37 1.37 0 0 0-.16.44c.31-.16.45.22.57.58l.17-.39a.57.57 0 0 1-.08.28c0 .18.1-.27.2-.42s0 .27-.1.38c.27-.3.68-.62.68-.12l-.07.12c.06.21.43-.81.41-.38v.06c.2.27.62 0 .61.68.24-.58.17.36.46-.47 0 .46-.08.6 0 .95 0 .05.26-.5.36-.56l-.15.44.25-.43-.12.54.1-.09a.8.8 0 0 1 0-.34c.17-.17.15.39.08.61l.37-.29a.93.93 0 0 1-.19.32c.28-.4-.13.48.13.1a1.7 1.7 0 0 1 .12-.34c0 .28.11.33.24.25l-.11.29c.15.14.42 0 .62.05a1.46 1.46 0 0 1 .24-.72l-.11.44c.13-.28 0-.2.19-.53a1.5 1.5 0 0 1-.21.69l.14-.13c0 .14-.09.2-.15.38.13-.28 0 .52.23 0v.14c.2.07.34-.06.51 0 .13-.4.17-.29.32-.6.08.16.12.52.27.53.17-.17.14-.33.26-.55-.11.36 0 .38-.11.62.2 0 .25 0 .56-.24A1.21 1.21 0 0 1 11 23c.06-.05 0 .18 0 .36h0c.42-.47.25 1.25.68.55h0l.32-.34c.08.09-.14.26-.14.51.41-.55.33.19.63-.16-.18 1.13.53.07.51.82l.07-.26c.12-.23 0 .17 0 .24.06-.2 0-.25.09-.38.51-.18.76.63 1.12 1 .14.12.47-1.3.49-.63l-.19.46c.48-.48.65.21 1.1-.19-.05.1-.09.25-.12.24 0 .36.24.08.32-.2 0 0-.06.26-.07.41s.28-.4.22 0a.26.26 0 0 1-.07.13c.09-.16.19.1.26-.31.07.22.28-.12.3.14.19-.43.15.27.34-.35-.19.65.06.58.22.29-.08.19 0 .22-.1.49.09 0 .2-.09.28-.43-.06.83.48-.55.3.48a3.06 3.06 0 0 1 .9-.55c-.18.65-.26 0-.43.68.28-.21.55-.74.72-.52s-.1.27-.15.38c.29-.21.4.17.68-.14a.53.53 0 0 1-.08.17s.06.12.13-.18l-.05.07a4.76 4.76 0 0 1 .44-1.09c-.28.83.13.26-.24 1.31a1.14 1.14 0 0 0 .15-.38.7.7 0 0 1-.09.4c.17-.13.21-.45.33-.42a3.31 3.31 0 0 1-.14.36c.14-.26.27-.53.34-.38s0 .2-.07.19c.19 0 .49-.67.61-.35-.21.61 0 .22-.11.77l.15-.14v-.27c.09 0 .27-.34.31-.15l-.13.21.2-.06-.03-.23c.17-.26.16-.69.25-.51s.09 0 .06.36h0c.08-.16.17-.33.21-.18s-.16.6-.18.72c.16-.45.25-.08.42-.55a3 3 0 0 0-.13.46l.13-.36a.83.83 0 0 1-.05.41c.11.1.12-.7.2-.37 0 0 0 .09-.06.14s.35-.16.44 0c-.09.56-.15.11-.22.58.23-.05.58-.56.74-.38v-.07c.21-.77.06.42.24.07a1.49 1.49 0 0 0-.1.34c.1.16.31-.12.57-.32l-.07.19c0 .2.19.15.25.26a1.11 1.11 0 0 0 .15-.44c0 1.22.63-.46.67.45 0 0-.11.17-.09.17l.25-.18a1.33 1.33 0 0 0 0-.43c.07-.18.16-.31.2-.3a1.18 1.18 0 0 0-.1.65 2.86 2.86 0 0 1 .07-.28c0 .53.15-.59.21-.22L25 26c.07-.07.16-.25.21-.2 0 .32-.09.14-.15.4.09 0 .29-.56.3-.25-.06.08-.11.07-.16.15 0 .36 0 .27.08.32h0l.11.14v-.08c.27-.72.25-.14.48-.55-.22.38-.07.23-.14.51a.44.44 0 0 1 0 .23c.11-.22.08.15.24-.16 0 .08.07 0 0 .2.11-.07 0-.13 0-.23.19-.25.26.26.52-.06.2-.12.26-.3.43-.34s-.08.17-.08.17.13.06.22 0 0 .06 0 .1.07-.13.15-.08-.06.1-.1.15a1.05 1.05 0 0 1 .26-.13l-.1.11c-.03.04.24-.07.28-.12h-.06v.06c0 .01-.1 0-.1-.05h.06c0-.16-.22 0-.33 0l.08-.16-.14.12s0-.15.05-.16-.11 0-.11-.09 0 0 0 0h-.08s0-.15.06-.11c-.1-.18-.25.1-.26-.1h0c-.19 0-.05.17-.24.37v-.52l-.07.2s-.05 0 0-.12c-.1.12 0 .09-.08.22-.05-.23-.28.05-.21-.36-.07.19.05.18-.07.28.07-.45-.13.05-.17-.18s.13-.08.1-.33c-.14.4-.14-.16-.22-.11-.09.36-.18.09-.33.17 0-.13-.16-.3-.23-.52v-.07c-.12.44-.21.31-.31.38a1.25 1.25 0 0 1 .17-.5h-.07a.46.46 0 0 1-.15.26l.1-.37c-.1 0-.3.35-.37 0a4 4 0 0 1-.33 1.3 3.2 3.2 0 0 1 .17-.63s-.08.16-.08.06l.13-.33c0-.17-.09.28-.14.24.07-.3 0-.22.08-.45 0 0 0 .13.06 0a.94.94 0 0 1 0-.49 1.24 1.24 0 0 1-.14.43c-.11 0 0-.36 0-.51-.08.2-.09 0-.2.41v-.33c-.1.18-.26 0-.31.47v.05h0c-.28.39-.31-.33-.53-.19v-.14c-.15.14-.26 0-.4.33a.93.93 0 0 1 0-.44c-.1.09-.15.25-.21 0 .14-.23 0-.23.13-.16-.08-.15 0-.39-.25 0 .13-.36 0-.49 0-.39V24h-.15l.14-.48c-.06-.64-.62.91-.54-.12-.14.33.06.27-.09.65-.08-.08 0-.8 0-.81-.06-.3-.3.67-.39.46a1.85 1.85 0 0 1-.26.78c-.09-.09.06-.76.15-.88s0 .05 0 .11a.4.4 0 0 0 .11-.32v.17c0-.19-.14-.2 0-.48a.4.4 0 0 0-.07.38c-.06-.28-.19-.05-.28-.25a.81.81 0 0 1-.05.3c-.13-.26-.17.3-.31.35 0-.28.18-.62 0-.44a1.23 1.23 0 0 1 .16-.59c-.19.3-.16-.28-.21-.35l.1-.13c-.06.08-.09.07-.12.06l-.05.35a.26.26 0 0 1 0-.22c-.1.22-.12.58-.27.87 0-.19-.19.15-.09-.31.11.19.1-.46.24-.5h-.09a.23.23 0 0 1 0-.11c0-.45-.2.5-.34.45.08-.25.09-.5.05-.45s-.08.44-.19.62c0-.22-.14.12-.18.09v.11c-.09.25-.13.2-.21.27 0-.2.09-.12.09-.22-.19.44 0-.51-.23-.23 0-.19.12-.49.11-.62-.2.31 0-.38-.22-.14a1.13 1.13 0 0 1-.2.59l.26-.19-.26.47c.06 0 .18-.19.21-.12a.92.92 0 0 0-.16.48c.06-.54-.24.26-.24-.12l.22-.85c0-.42-.36.37-.49.1v.17c-.12.33-.13 0-.23.14a2.25 2.25 0 0 0 .1-.59c-.06.22-.13 0-.3.52v-.4c-.11-.2-.39.77-.51.63.13-.3.11-.52.27-.72-.05 0-.08-.07-.13.12 0-.18-.24.35-.21.07-.05.12-.14.42-.19.38a.93.93 0 0 1 0-.14 1.25 1.25 0 0 0-.17.5c.09-.94-.44-.05-.35-.85a1 1 0 0 1-.39.11c0-.08 0-.14.05-.1-.06-.31-.31.79-.37.46.05-.49.14-.23.15-.42.24-.94-.22.08-.17-.5h0c0-.34-.28.31-.39.21a.93.93 0 0 0 0-.14 1.34 1.34 0 0 1-.59.66 1.88 1.88 0 0 0 .2-.56c-.07 0-.16.61-.29.68a3.67 3.67 0 0 1 .09-.81h.11c.09-.53-.14 0-.16-.13l.07-.22c-.18 0-.34.59-.5.5v.18c-.25.53 0-.34-.2.05l.14-.57a3.39 3.39 0 0 1-.51.56 4.58 4.58 0 0 1 .52-.81c-.06 0-.21 0-.33.25 0 0 .12-.17.11-.08q-.3.64-.48.57c.35-1.09-.23-.36-.06-1.24-.33.34-.36-.3-.63-.31-.17.88-.08 0-.32.89h-.08v-.58c0-.27.11-.18.17-.38-.11-.1.06-.38.05-.64-.08.32-.18.43-.22.29v.44c-.31.41.07-.78-.24-.37l.14-.26c-.14.13-.33-.11-.63.57a.9.9 0 0 1 .12-.4c-.18-.18-.7.6-.74.11l.09-.21c-.06.05-.2.38-.18.15a1 1 0 0 0 .07-.22c-.05.06-.23.34-.24.2l.12-.23c-.12-.34-.5.49-.73.58a1.35 1.35 0 0 0 .05-1v-.09c-.21-.16-.57.39-.88.56.08-.72-.38-.43-.48-.89a1.33 1.33 0 0 1-.22.54c0-.14-.29.39-.09-.19h0c.15-.58 0-.46-.09-.5l-.26.75c.14-1.17-.71.21-.5-.81-.12.17-.18.14-.3.31l.14-.4c-.11-.15-.17-.23-.38-.19l.28-.4c-.09-.06-.52 1.12-.62 1.11l.19-.64c-.18-.05-.18-.64-.54-.15a.81.81 0 0 1 .13-.28c-.08 0-.18-.51-.44.32.19-.54-.16-.11-.34.09l.15-.39c-.25.48-.3.61-.47.71 0-.06.09-.32.09-.21 0-.24-.2.35-.23.11L6 19c-.08-.07-.12.07-.27.35s-.14-.16 0-.52c-.09.21-.24.48-.26.36a1.05 1.05 0 0 1 .11-.25c-.06-.32-.39.38-.36-.05a1.45 1.45 0 0 0 .07-.24c.12.06.21.11.19.14a3.84 3.84 0 0 1 .3-.94c-.17.25-.52.79-.55.59a1.3 1.3 0 0 0 0-.13h0-.08c-.08 0 0-.12 0-.14.1-.3 0-.2-.1-.23-.14.4-.18.31-.23.66 0 0 0-.05.06-.05h0 0 .13c-.11.18-.21.34-.18.1l-.3.62c.13-.58.11-.93.21-1.28-.23.18-.4 0-.76.73-.08.08 0-.24.05-.37s.08 0 .13-.14c-.15.14-.28 0-.49.5 0-.26.24-.48 0-.41l.08-.16c0-.42-.27-.07-.5.18s-.44.44-.46 0a.39.39 0 0 1 0 .15c-.14-.21-.38-.13-.6-.12a.52.52 0 0 1-.56-.2c-.09-.08-.16.07-.26.17v-.19l-.19.19c-.2.07-.15-.4-.45-.2v.08c-.07 0-.25 0-.21-.07s-.05.06-.07 0h0-.2c-.14 0 .06-.11-.16-.1a1.53 1.53 0 0 1-.21 0h.07-.06s0-.06.07.1l.1.08v.06l-.08-.09c0 .07.07.09.11.1a.24.24 0 0 0 0 .08.25.25 0 0 0 .12 0s-.06 0 0 .12 0-.13.08-.1 0 .14.07.14 0 .05 0 0 .12.13.18.06c0 .15.17.12.09.31 0 0 .14-.08.19 0-.18.19.16.16 0 .46.16-.21.25.11.42 0 0 0-.05.06-.05 0a.75.75 0 0 1 0 .31c.11-.29.23-.27.36-.44 0 .38-.19.35-.27.66.09-.26.22-.13.28-.39a1.43 1.43 0 0 1-.07.46c.18-.43.08 0 .23-.26 0 .31-.14.47 0 .41a.37.37 0 0 1 0 .4zm2.68.38h-.06zm.22.07l-.09-.05c0-.14.1-.28.12-.26a.61.61 0 0 0-.03.36zM5.15 18c0-.05 0 0 0 .12h-.08 0a1.72 1.72 0 0 1 .08-.12z"/><path d="M4.9 18.54h0a.38.38 0 0 0 0 .1v-.12zm18.95 6.19h0 0zM7.27 22.71l.03-.1-.05.08.02.02zm17.47 3.6a.14.14 0 0 0 0 .09zm.52.07l.06.11a.27.27 0 0 0-.06-.11zm.39.13v-.11h0zm-6.5-.62h0c-.08.11-.05.11 0 0zm2.11-.49l-.11.18s.05.06.11-.18z"/><path d="M16.93 25.83v-.01h-.01l.01.01zm4.13-.28c0 .09.05.08.09 0s-.04-.05-.09 0zm6.42.83h.02v-.01l-.02.01z"/><path d="M27.5 26.37h0zm.08-.03h0zm-.66.07v.05a.2.2 0 0 0 0-.05zm-.17.03s.08.1.14.06h0c-.03.04-.08-.15-.14-.06zm-.5-.92l.12.11c0-.09 0-.21.05-.2-.11-.33-.01.19-.17.09z"/><path d="M25.89 25.2c.08 0 0-.15.05-.21a.17.17 0 0 0-.05.21zM23 24.18l.09-.37c-.09.04-.02.19-.09.37zm-1.03 1.8v.24l.11-.34-.11.1zm.32-2.74l.03-.05-.12.11.09-.06zm-4.96-1.14l-.11.46c.06-.08.21-.56.11-.46zm-2.25-.1c.05-.23 0-.39-.07-.18.04.01-.01.18.07.18zm-6.07-2.71l.09-.13-.12.1.03.03zm86.18 1.98h0 0zm-.19.05s-.07.1 0 .14 0-.06.06-.12.06 0 0 0 0 0 .06 0a.3.3 0 0 0-.14.05l.02-.07zm-3.29-.02v.05a.11.11 0 0 0 0-.05zm-1.99.16a.2.2 0 0 0 0-.11.2.2 0 0 0 0 .11zm-.45-.46h0z"/><path d="M91.71 21.3l-.08-.14c.03.16.05.11.08.14zm2.9.44h0zm-2.11-.92h0v-.17zm.7.05a2.26 2.26 0 0 0 0 .4.58.58 0 0 1 0-.2 1.43 1.43 0 0 1 0-.2zm1.17.43h0zM92 20.71v-.15zM74.06 26.3h0zm-.87-.49l.01-.01h0l-.01.01zm15.36-5.21h0c.01-.04.01-.03 0 0zm-5.45 1.53c.14.35 0 .49.18.88a3.53 3.53 0 0 0-.18-.88z"/><path d="M94.6 21.74h0zM83.28 23h0 0zm3.94-1.84a1.67 1.67 0 0 1 0 .18 1 1 0 0 0 0-.18zm1.16.35v-.05zm-1.57.35s0-.09 0 0v.05c0 .05-.03-.11 0-.05zm-.55.14v.08h0zM76 27l-.09-.35c.01.26-.07.35.09.35zm18.6-5.32h0zm-7.09 3.43h-.1s.07.01.1 0zM80 26.31v.05s.05-.01 0-.05z"/><path d="M87.16 25.19a1.74 1.74 0 0 0-.11-.27v.1zm-11.3 1.45z"/><path d="M75.34 27.15c.1.06 0-.36 0-.57s.1.31.18.53c0-.06 0-.44.09-.4a.9.9 0 0 1 0 .19c0-.33.22.07.22-.39v.13l-.13-.68s0-.32.09 0v.23-.14c.12.48 0 .16 0 .5.06-.12.08-.53.17-.38.1.5-.12.14 0 .59l.04-.2c.21.77-.07-.07.14.75.17.2.12-.17.27 0 0-.28-.08-.42-.1-.7.08-.53.37 1.26.37.53 0-.35-.14-1 0-.68l.07.58c.13 0-.08-.83.11-.47 0 .22-.06.2 0 .27.17.43 0-.34.06-.35L77 27c.11-.1.18-.49.31-.6a1.7 1.7 0 0 0 .08.45c.13-.28.39 0 .62.26v-.45a.7.7 0 0 1 .07.28c.09.15 0-.27 0-.45s.1.24.1.37c0-.39.18-.85.39-.41v.13c.13.16-.06-.9.11-.52v.08c.25.15.4-.29.69.33-.1-.63.26.23.1-.64a3 3 0 0 0 .43.83s-.05-.56 0-.66l.09.45v-.49l.15.54v-.13a1 1 0 0 1-.11-.33c0-.22.26.28.31.51l.12-.42a1.59 1.59 0 0 1 0 .37c0-.48.11.48.12 0a2.46 2.46 0 0 1-.06-.36c.1.27.21.25.26.11v.32c.16.05.27-.21.43-.24a1.68 1.68 0 0 1-.15-.74l.12.48c0-.31-.09-.17-.1-.55a1.82 1.82 0 0 1 .15.7v-.18c0 .14 0 .22.06.4 0-.3.23.46.16-.07v.14c.16 0 .19-.21.32-.26a2.75 2.75 0 0 1 0-.67c.12.11.3.41.41.35a2.64 2.64 0 0 0-.07-.6c.08.37.19.31.19.59.12-.09.16-.11.27-.45a1.9 1.9 0 0 1-.11-.34c0-.07.11.14.14.32h0c.08-.6.69 1 .68.18h0l.08-.45c.09.05 0 .29.12.52 0-.67.29 0 .34-.42.36 1.08.38-.16.68.51l-.06-.26c0-.26.08.14.12.19 0-.2-.1-.22-.1-.37.26-.38.75.23 1.14.4.14 0-.23-1.37.06-.78l.07.49c.12-.63.5-.09.64-.63v.26c.13.34.2 0 .13-.31 0 0 .07.26.13.4s0-.48.13-.14a.41.41 0 0 1 0 .15c0-.18.16 0 0-.39.13.17.13-.22.26 0-.06-.47.2.18.07-.46.14.66.28.49.27.17 0 .2.09.2.13.48.07 0 .1-.16 0-.5.3.77.1-.69.39.31a2.89 2.89 0 0 1 .38-.87c.14.66-.17.1 0 .8.1-.31.07-.9.27-.78s0 .29 0 .41c.11-.31.33 0 .4-.4a1.15 1.15 0 0 1 0 .18s.09.09 0-.21v.08a5.86 5.86 0 0 1-.04-1.01c.15.87.2.18.36 1.28a1.2 1.2 0 0 0 0-.4.79.79 0 0 1 .1.4c.07-.19 0-.5 0-.51a.93.93 0 0 0 .06.38c0-.3 0-.59.07-.49s0 .2 0 .21.06-.81.27-.57c.1.64.1.2.23.74v-.18l.02-.29c.07 0 .05-.41.15-.25v.24l.11-.13-.12-.2c0-.29-.16-.69 0-.55s.07 0 .18.3h0c0-.18 0-.37.07-.25s.13.61.16.73c-.07-.47.14-.17.07-.66 0 .11.08.4.09.46v-.38a1.05 1.05 0 0 1 .12.4c.12 0-.18-.69 0-.41a.53.53 0 0 1 0 .14c.15.13.17-.28.32-.12.15.54-.06.15.07.61.14-.14.18-.73.36-.64v-.05c-.15-.78.19.36.19 0 0 .06.07.43 0 .35.13.1.17-.24.27-.52v.2c.1.17.18.07.26.15a1.53 1.53 0 0 0-.06-.47c.45 1.13.26-.66.62.17v.19l.1-.26a1.82 1.82 0 0 0-.14-.4v-.36a1.55 1.55 0 0 0 .17.64l-.06-.29c.19.49-.11-.59.07-.27v.15c0-.09 0-.29.08-.26.08.3 0 .16 0 .42.05-.05 0-.62.11-.34v.2c.13.33.12.23.17.26h0l.13.09v-.07c-.08-.75.12-.21.13-.68 0 .43 0 .24.09.52a.47.47 0 0 1 .1.2c0-.24.11.11.11-.23 0 .08 0 0 .08.18 0-.11 0-.13-.06-.23 0-.3.27.15.34-.24.09-.18.07-.37.17-.47a.21.21 0 0 1 0 .18c.08 0 .12 0 .17-.06a.1.1 0 0 0 0 .1s0-.15.07-.12 0 .11 0 .17a.69.69 0 0 1 .13-.21v.13c0 .05.15-.15.15-.2h0v.07c0 .02-.08 0-.09 0h0c-.08-.14-.16.07-.23.11v-.17l-.06.16s-.06-.14 0-.17 0 .07-.12 0h0l-.05.07v-.12c-.14-.13-.14.18-.22 0h0c-.13.1 0 .18 0 .43l-.18-.49v.21s-.05 0-.06-.11v.24c-.12-.2-.18.15-.28-.25 0 .2.1.14.06.28-.12-.44-.08.09-.19-.11s.06-.11 0-.33c0 .42-.15-.1-.19 0 .07.37-.1.15-.16.29 0-.14-.23-.22-.36-.4v-.07c.08.45 0 .36-.08.47a1.77 1.77 0 0 1-.06-.53h-.06a.56.56 0 0 1 0 .29l-.06-.37c-.08 0-.08.43-.24.16a5.13 5.13 0 0 1 .25 1.32 4.76 4.76 0 0 1-.11-.64v.09-.36c-.08-.14 0 .3 0 .27-.06-.3-.07-.2-.12-.44 0 0 .06.12 0 0a1.27 1.27 0 0 1-.21-.43 1.57 1.57 0 0 1 .07.44c-.08.05-.1-.34-.18-.48 0 .21-.07 0 0 .46a1.77 1.77 0 0 1-.11-.32c0 .2-.18.1 0 .55h0 0 0c0 .46-.33-.18-.43 0v-.14c0 .18-.15.13-.14.46a1.16 1.16 0 0 1-.15-.43c0 .12 0 .29-.15.07 0-.27-.07-.22 0-.2-.11-.11-.18-.34-.18.08 0-.38-.16-.46-.17-.34l.11.26c0 .06-.07 0-.12 0l-.09-.49c-.29-.56-.07 1.07-.41.11 0 .35.14.22.19.63-.09-.05-.32-.74-.35-.73-.16-.25.06.73-.08.57a2.49 2.49 0 0 1 .12.81 2.13 2.13 0 0 1-.24-.86v.1a.49.49 0 0 0 0-.33v.17c-.07-.17-.17-.13-.21-.42a.52.52 0 0 0 .1.38c-.15-.24-.15 0-.29-.13a.93.93 0 0 1 .08.3c-.19-.18 0 .34-.07.44-.12-.25-.12-.64-.17-.39a1.38 1.38 0 0 1-.12-.61c0 .36-.22-.18-.29-.23v-.15c0 .09 0 .09-.06.1l.11.34a.28.28 0 0 1-.1-.2c0 .24.15.58.16.9-.08-.17-.07.21-.19-.24.16.13-.11-.46 0-.56 0 .06 0 .06-.07 0a.34.34 0 0 1 0-.13c-.2-.39.07.53 0 .55 0-.26-.14-.49-.14-.43a2 2 0 0 1 .12.64c-.12-.19 0 .17-.1.15l.07.09v.33-.24c0 .47-.23-.44-.25-.11-.07-.17-.11-.49-.17-.6 0 .35-.17-.34-.21 0a1.31 1.31 0 0 1 .1.61l.1-.28v.53s0-.24.09-.18a1.21 1.21 0 0 0 .09.49c-.18-.51-.06.33-.21 0l-.19-.86c-.2-.36-.1.49-.3.3l.08.14c.06.35-.08.07-.09.22a3.08 3.08 0 0 0-.18-.56c.06.21-.11 0 0 .58l-.15-.37c-.15-.13.05.86-.08.78a3.31 3.31 0 0 1-.11-.75s-.09 0 0 .16c-.06-.18 0 .41-.11.14 0 .13.07.44 0 .42a.7.7 0 0 1 0-.14 1.75 1.75 0 0 0 .09.52c-.32-.88-.31.14-.59-.61-.06.11-.13.23-.2.26s0-.14 0-.11c-.17-.25.12.84-.07.57-.16-.46 0-.27-.07-.44-.22-1-.11.16-.31-.38v-.06c-.14-.31-.07.4-.18.35s0-.08 0-.14a1.54 1.54 0 0 1-.11.84 2.27 2.27 0 0 0-.1-.58c0 .06.14.6.08.73a5.42 5.42 0 0 1-.27-.76h.08c-.16-.52-.1 0-.16 0l-.39-.49c-.1.1 0 .67-.12.66v.17c.06.59-.13-.31-.11.13l-.15-.57a3.38 3.38 0 0 1-.1.72 5.72 5.72 0 0 1 0-.95s-.15.08-.11.37v-.12c0 .47 0 .71-.08.72-.23-1.13-.31-.23-.57-1.09-.07.45-.36-.1-.54 0 .26.86 0 0 .15.93 0 .07 0 .06-.06 0l-.26-.5c-.08-.26 0-.21 0-.41s-.13-.37-.24-.59c.08.31.06.46 0 .35l.17.4c0 .51-.28-.73-.32-.23v-.29c0 .18-.26.05-.17.79a1.14 1.14 0 0 1-.09-.42c-.19-.07-.21.85-.44.44v-.23c0 .07 0 .43-.06.21a.66.66 0 0 0 0-.23c0 .08 0 .41-.07.29v-.26c-.22-.25-.12.66-.23.84a1.56 1.56 0 0 0-.4-.92v-.09c-.21 0-.22.6-.34.89-.26-.68-.44-.22-.69-.57a2.05 2.05 0 0 1 .08.57c-.07-.12 0 .48-.14-.12h0c-.16-.58-.21-.4-.28-.41l.15.78c-.41-1.09-.38.51-.68-.48v.41l-.18-.37c-.13-.08-.2-.12-.33 0v-.31c-.08 0 .14 1.23.07 1.27l-.15-.62c-.14 0-.39-.48-.42.11a1.24 1.24 0 0 1 0-.3c-.07 0-.34-.37-.15.48-.11-.56-.15 0-.18.23l-.07-.41a2.35 2.35 0 0 1 0 .84c0-.05-.08-.32 0-.22-.11-.21 0 .4-.11.19v-.27c-.08 0 0 .13 0 .44s-.16-.08-.25-.45c0 .23.05.54 0 .44a1.12 1.12 0 0 1 0-.27c-.18-.25-.1.51-.26.13a.87.87 0 0 0-.06-.25h.18a4.49 4.49 0 0 1-.19-1c0 .3 0 .94-.12.77a.86.86 0 0 1 0-.13h0v.07c0 .07-.06-.1-.08-.1-.07-.31-.12-.15-.17-.16a3.86 3.86 0 0 0 .13.69.08.08 0 0 1 0-.08h0a.19.19 0 0 1 .09-.05c0 .22 0 .4-.08.18 0 .27.06.55.07.68l-.4-1.22a1.28 1.28 0 0 0-.2 1c0 .1-.08-.23-.11-.35s0-.07 0-.19c0 .2-.19.11-.11.67-.13-.21 0-.53-.14-.39v-.14c-.19-.37-.21.06-.25.39s-.11.59-.31.21a.31.31 0 0 1 .06.14c-.18-.13-.3.05-.44.16s-.28.2-.45.08-.07.14-.1.28v-.19.25c-.1.16-.27-.28-.37 0v.07c-.06 0-.17.11-.17 0s0 .07 0 .05h0a.68.68 0 0 1-.12.12c-.11 0 0-.12-.15 0s-.15.13-.13.12h.06 0s-.06 0 .09.05h.1 0-.09c0 .05.08.05.11 0v.06a.12.12 0 0 0 .08 0v.12c0 .06-.06-.12 0-.13s.06.12.1.09 0 .06 0 .06.13.06.14 0c.07.13.16 0 .19.23 0 0 .06-.14.11-.14 0 .26.17.08.2.4 0-.26.21 0 .29-.17v.06a.82.82 0 0 1 .16.26c-.05-.31 0-.35 0-.55.13.35 0 .38.1.7 0-.27.09-.22 0-.47a1.85 1.85 0 0 1 .15.44c-.07-.47 0-.06 0-.34.12.27.1.48.17.36a.49.49 0 0 1-.15.34zm1.91-.9h0 0zm.17 0a.11.11 0 0 0-.08 0v-.29a.81.81 0 0 0 .08.25zm-.89-2.81c0-.06 0 0 .06.1a.15.15 0 0 0 0 .06v.05q-.05-.16-.06-.25z"/><path d="M76.58 24h0v.09V24zm15.17-2.64h0v.06zm-11.86 5.19l-.02-.11.01.1.01.01zM93 22.48v.08zm.33-.13l.08.08a.28.28 0 0 0-.08-.08zm.31-.03v-.11h0zM89 24.26a0 0 0 0 0 0 0c0 .11 0 .07 0 0zM90.24 23v.21s.05.01 0-.21z"/><path d="M87.53 25.12l-.01-.01h-.01l.02.01zm2.64-1.92c0 .07.06.05.07 0s-.06-.07-.07 0zm4.69-1.65l.01-.01v-.01l-.01.02z"/><path d="M94.87 21.53h0zm.04-.06h0zm-.42.31h0zm-.11.09s.09.06.11 0h0c0 .05-.11-.1-.11 0zm-.68-.68l.12.06c0-.08-.08-.19 0-.2-.23-.27.03.18-.12.14zm-.37-.19v-.21a.21.21 0 0 0 0 .21zm-2.33.19l-.08-.38c-.07.07-.01.19.08.38zm-.05 2.03l.09.23-.06-.35-.03.12zm-.85-2.61l.01-.06-.05.15.04-.09zm-3.83.99l.12.46c.01-.06-.1-.61-.12-.46zm-1.55.84c-.07-.23-.15-.37-.13-.13.05.02.12.19.13.13zm-5.13.31v-.17l-.04.15.04.02zM61 26.42h0zm-.23 0s-.08.09-.06.13 0-.05.08-.11.06 0 .05 0h.06a.25.25 0 0 0-.14 0s0-.01.01-.02zm-2.91-.7v.06a.08.08 0 0 0 0-.06zm-1.79-.27a.54.54 0 0 0 0-.11.15.15 0 0 0 0 .11z"/><path d="M55.76 24.9h0c.01-.01 0-.04 0 0zm2.1.82v-.15c-.05.16-.02.12 0 .15zm2.51 1.04v-.05h0zm-1.71-1.34h0v-.18zm.61.2a2.29 2.29 0 0 0 0 .39.78.78 0 0 1 0-.19zm.96.66h0zm-2.01-1.08h0zM41.2 27h0zm-.7-.58h.01v-.01l-.01.01zm14.7-2.06h0c.01-.04.01-.03 0 0zm-5.2.31c.06.38-.1.49 0 .91a4.53 4.53 0 0 0 0-.91zm10.35 2.08h0z"/><path d="M50 25.58h0 0zm3.9-.96v.18a1.36 1.36 0 0 0 0-.18zm.97.6v-.06a.1.1 0 0 0 0 .06zm-1.47-.01s0-.09 0 0v.05c-.02-.09-.01-.12 0-.05zm-.52 0v.09h0zM42.79 28v-.36c-.02.36-.09.36 0 .36zm17.58-1.31v.06h0zm-6.99 1.85l-.08-.07c.02.05.05.07.08.07zm-6.85-.41v.05s-.01 0 0-.05zm6.52.41a1 1 0 0 0 0-.29.38.38 0 0 1 0 .1z"/><path d="M42.76 27.68zm-.54.41c.08.08 0-.36.05-.57.1-.06 0 .32.08.56.06-.06.1-.43.14-.39a.66.66 0 0 1 0 .2c.06-.32.18.11.25-.34v.13-.69s.07-.31.08 0v.22-.14.5c.08-.11.16-.5.22-.34 0 .51-.13.11-.06.59l-.09-.23c.07.79-.05-.09 0 .76.12.22.13-.15.24.05v-.72c.16-.5.12 1.31.24.6 0-.35 0-1 .13-.66v.57c.11.06.06-.83.18-.44 0 .23-.09.19-.07.26.07.46 0-.33.11-.33v.51c.11-.08.24-.45.37-.54a1.85 1.85 0 0 0 0 .47c.16-.26.35.06.51.36v-.44a.77.77 0 0 1 0 .29c.06.16 0-.28 0-.45s0 .25 0 .38c.11-.37.31-.8.42-.33v.13c.09.18.1-.9.18-.49v.08c.19.19.4-.22.55.45 0-.64.19.28.2-.6a3.93 3.93 0 0 0 .23.89s.06-.56.11-.65v.46l.07-.48v.55-.12a1.08 1.08 0 0 1 0-.34c.08-.21.18.33.18.56l.18-.39a1.14 1.14 0 0 1-.06.37c.1-.47 0 .49.11.05a2.14 2.14 0 0 1 0-.36c0 .27.14.28.21.16v.32c.13.08.27-.15.42-.15a2.08 2.08 0 0 1 0-.75v.49c0-.31-.05-.19 0-.56a1.89 1.89 0 0 1 0 .72l.06-.17v.41c0-.31.11.49.15 0v.14c.14 0 .21-.16.33-.18a3.72 3.72 0 0 1 .08-.67c.09.13.19.46.3.43a2.9 2.9 0 0 0 .05-.61c0 .38.11.35.06.62.12-.06.16-.07.32-.39a1.46 1.46 0 0 1 0-.35c0-.07.07.16.07.34h0c.18-.57.41 1.12.56.32h0l.15-.42c.07.07 0 .29 0 .53.16-.64.25.09.39-.33.1 1.13.36-.08.5.64v-.27c0-.26 0 .16.07.22a3 3 0 0 1 0-.39c.31-.32.63.39.94.63.11.08.06-1.38.21-.74v.5c.22-.6.46 0 .69-.49v.26c.05.36.18 0 .18-.27a2.87 2.87 0 0 1 0 .41c.05.21.12-.46.14-.1a.26.26 0 0 1 0 .14c0-.17.15.05.12-.37.08.2.16-.18.22.07 0-.47.15.22.16-.44 0 .68.15.55.2.23v.5c.06 0 .12-.14.1-.49.12.81.23-.65.29.39a2.82 2.82 0 0 1 .51-.77c0 .68-.18.07-.17.78.15-.28.24-.86.4-.7s0 .29 0 .41c.15-.28.3.06.43-.31a1.11 1.11 0 0 1 0 .19s.06.1.06-.21v.08a7.75 7.75 0 0 1 .03-1.1c0 .88.14.22.06 1.34a1.53 1.53 0 0 0 0-.41 1 1 0 0 1 0 .41c.09-.16.06-.49.15-.48s0 .2 0 .38c.05-.29.09-.58.16-.46s0 .21 0 .21.21-.78.35-.5c0 .65.05.22.06.78l.07-.17v-.27c.07 0 .13-.4.18-.22v.23l.13-.1-.07-.21c.06-.29 0-.71.08-.56s.06 0 .1.34h0c0-.18.06-.36.11-.23s0 .62 0 .74c0-.47.15-.13.19-.63v.48-.39a1.23 1.23 0 0 1 0 .42c.09.07 0-.71.08-.4a1.15 1.15 0 0 1 0 .14c.11.16.21-.24.31-.05 0 .56-.09.13-.05.61.14-.1.29-.68.43-.54v-.06c0-.8.1.39.17 0a2.46 2.46 0 0 0 0 .36c.09.12.19-.2.34-.45v.2c.06.19.15.11.21.2A1.53 1.53 0 0 0 58 27c.19 1.19.36-.6.53.29a.45.45 0 0 0 0 .18l.15-.23a3.23 3.23 0 0 0-.05-.42c0-.19.06-.34.09-.34a1.59 1.59 0 0 0 0 .66v-.29c.08.51 0-.61.12-.26v.15c0-.08.07-.28.11-.24v.42c.06 0 .11-.61.17-.31 0 .09-.06.1-.09.19.06.35.07.25.11.29h0l.1.11v-.08c.07-.75.14-.18.24-.63-.09.42 0 .24 0 .52a.56.56 0 0 1 .05.23c0-.24.07.12.14-.21v.19c.06-.09 0-.13 0-.24.09-.27.21.21.35-.16.11-.16.13-.34.24-.42a.26.26 0 0 1 0 .18c.06.06.1 0 .15 0a.15.15 0 0 0 0 .11s0-.15.09-.11a1.42 1.42 0 0 1 0 .16.93.93 0 0 1 .16-.18v.13c0 .05.15-.12.17-.17h0v.07c0 .02-.08 0-.08 0h0c0-.15-.15 0-.23.06v-.16l-.08.14v-.17c0-.02 0 .06-.09-.05s0 0 0 0h0v-.11c-.1-.16-.15.14-.19 0h0c-.13.06 0 .18-.11.41l-.07-.51v.21-.12.24c-.07-.22-.18.1-.2-.31 0 .2.07.16 0 .29 0-.45-.09.08-.15-.14s.08-.1 0-.34c0 .42-.12-.13-.17-.07 0 .37-.11.13-.19.25 0-.14-.16-.27-.24-.46v-.08c0 .46-.1.35-.16.44a1.82 1.82 0 0 1 0-.52h-.06a.5.5 0 0 1-.07.28v-.38c-.08 0-.15.41-.25.11a5.86 5.86 0 0 1 0 1.34 3.28 3.28 0 0 1 0-.66v.09-.36c0-.16 0 .3-.06.26v-.45s0 .12 0 0a1.32 1.32 0 0 1-.1-.47 1.69 1.69 0 0 1 0 .45c-.07 0 0-.36-.07-.51 0 .22-.06 0-.06.45v-.33c0 .2-.18.06-.13.53v.05h0c-.13.44-.26-.25-.39-.06v-.15c-.07.17-.16.1-.22.42a1.37 1.37 0 0 1 0-.45c-.06.11-.06.28-.15 0s0-.23.06-.19c-.07-.13-.09-.37-.17 0 0-.38 0-.48-.09-.37v.27c0 .06-.07 0-.11 0v-.5c-.15-.6-.27 1-.39 0 0 .35.08.25 0 .65-.07-.06-.14-.78-.17-.78-.09-.28-.09.73-.19.54a2.26 2.26 0 0 1 0 .82 2.35 2.35 0 0 1 0-.89v.1a.59.59 0 0 0 0-.33v.18c0-.18-.13-.17-.11-.46a.55.55 0 0 0 0 .39c-.09-.26-.14 0-.23-.18a1.06 1.06 0 0 1 0 .3c-.14-.22-.06.34-.15.42 0-.27 0-.65-.08-.42a1.58 1.58 0 0 1 0-.62c-.09.34-.16-.23-.21-.29v-.14c0 .08 0 .08-.07.08v.35a.3.3 0 0 1 0-.21v.91c0-.18-.11.2-.12-.27.11.16 0-.48.08-.55s0 .05-.06 0a.25.25 0 0 1 0-.13c-.11-.42-.05.54-.16.53v-.45a1.77 1.77 0 0 1 0 .64c-.07-.2-.08.16-.11.14v.09c0 .27 0 .23-.1.32v-.24c-.06.47-.12-.48-.2-.17v-.62c-.09.35-.09-.36-.18-.08a1.61 1.61 0 0 1 0 .62l.14-.25-.09.52s.09-.22.12-.16a1.2 1.2 0 0 0 0 .5c-.06-.54-.12.31-.19-.05v-.89c-.1-.39-.18.46-.32.23v.16c0 .35-.08.05-.12.19a3.81 3.81 0 0 0-.05-.59c0 .22-.09 0-.11.57l-.19-.44c-.11-.16-.12.84-.23.74a5.21 5.21 0 0 1 .06-.76s-.07-.06-.07.15c0-.19-.1.4-.13.12 0 .13 0 .44-.06.41v-.16a2.1 2.1 0 0 0 0 .52c-.1-.92-.3.07-.39-.72a.63.63 0 0 1-.24.21v-.11c-.09-.28 0 .85-.16.54-.06-.48 0-.26 0-.44 0-1-.13.13-.21-.44h0c0-.33-.13.37-.23.3v-.15a1.54 1.54 0 0 1-.27.8 2.88 2.88 0 0 0 0-.59c0 .05 0 .62-.07.73a6.45 6.45 0 0 1-.09-.81h.08c0-.53-.1 0-.14-.07V25c-.11.08-.11.67-.23.63v.17c-.07.59-.06-.32-.12.11v-.59A4.53 4.53 0 0 1 51 26a6 6 0 0 1 .2-.92c-.05 0-.15 0-.17.33v-.11q-.07.7-.21.69c0-1.15-.23-.29-.29-1.18-.15.42-.31-.19-.49-.12.07.9-.05 0 0 .94 0 .06-.06.05-.06 0L49.9 25v-.41c0-.21 0-.39-.1-.63 0 .33 0 .47-.08.34l.07.43c-.13.49-.11-.77-.24-.29v-.29c-.07.17-.24 0-.31.73a1.47 1.47 0 0 1 0-.42c-.16-.11-.35.78-.47.33v-.19c0 .06 0 .42-.09.19a1.65 1.65 0 0 0 0-.23c0 .07-.08.39-.12.26v-.25c-.15-.3-.23.61-.36.76a1.8 1.8 0 0 0-.18-1v-.09c-.18-.08-.31.55-.47.81-.11-.72-.36-.3-.52-.71a2.09 2.09 0 0 1 0 .58c0-.13-.1.46-.1-.14h0c0-.6-.11-.44-.18-.45v.79c-.16-1.15-.42.42-.51-.61 0 .2-.09.19-.13.39v-.42c-.11-.11-.16-.16-.3-.06v-.31c-.08 0-.1 1.23-.17 1.25v-.63c-.13 0-.27-.55-.4 0a1.1 1.1 0 0 1 0-.3c-.06 0-.24-.43-.22.44 0-.57-.14-.06-.21.19v-.36c-.06.54-.06.68-.15.83v-.23c-.07-.22-.05.4-.13.18v-.27c-.07 0-.06.11-.1.42s-.13-.1-.14-.48c0 .23 0 .54-.09.43a1 1 0 0 1 0-.28c-.12-.28-.18.49-.26.08a1.36 1.36 0 0 0 0-.25c.09 0 .17 0 .16.06a6 6 0 0 1 0-1c-.05.29-.16.92-.23.74a.62.62 0 0 0 0-.13v-.05.06c0 .06 0-.11-.06-.11 0-.32-.08-.17-.12-.19a5.41 5.41 0 0 0 0 .7.06.06 0 0 1 0-.06v-.05h0 .09c0 .21-.06.39-.1.16l.12.74c0-.59-.15-.9-.16-1.27a1.3 1.3 0 0 0-.34.94c0 .1 0-.24 0-.37v-.17c-.06.18-.19.07-.2.64-.08-.24 0-.53-.07-.41v-.18c-.11-.39-.2 0-.29.35s-.19.56-.31.15a.29.29 0 0 1 0 .14c-.14-.15-.28 0-.42.09a.29.29 0 0 1-.42 0c-.08 0-.09.13-.13.26v-.19l-.08.24c-.12.14-.2-.32-.34 0v.07s-.16.09-.15 0 0 .07 0 .05v-.05a.63.63 0 0 1-.13.11c-.1 0 0-.12-.13 0a.71.71 0 0 1-.13.09h.06-.05l.07.06h.09v.05l-.07-.06c0 .06.07.06.1.06a.11.11 0 0 0 0 .07.11.11 0 0 0 .08 0v.12c0 .07 0-.12 0-.12s0 .13.07.11 0 .06 0 .06.11.07.14 0c0 .13.14.05.13.25 0 0 .08-.12.12-.12-.07.25.14.1.12.43.05-.25.19 0 .28-.12s0 .07 0 .05a1 1 0 0 1 .1.28 1.77 1.77 0 0 1 .13-.53c.06.37 0 .39 0 .71 0-.28.11-.2.09-.46a2.13 2.13 0 0 1 .07.45c0-.46 0 0 .08-.32.07.29 0 .49.1.38a.5.5 0 0 1 .01.25zm1.84-.55h0 0zm.16 0h-.07a.92.92 0 0 1 0-.29 1.22 1.22 0 0 0 .07.28zm-.33-2.92c0-.06 0 0 0 .11v.05.05c-.01-.09 0-.16 0-.22z"/><path d="M43.84 25.17a0 0 0 0 1 0 0v.09-.13zm14.05.62h0 0zm-11.54 2.55v-.11l-.01.1.01.01zm12.39-1.2a.28.28 0 0 0 0 .09v-.09zm.37-.05v.09a.58.58 0 0 0 0-.09zm.28.04a.41.41 0 0 1 0-.12h0zm-4.5.87h0c-.04.14-.02.1 0 0zm1.34-.95a1.93 1.93 0 0 1 0 .2s0 .04 0-.2zm-2.84 1.49h0-.01.01zm2.73-1.3c0 .09 0 .07.06 0s-.04-.06-.06 0zm4.5-.62l.01-.01v-.01l-.01.02z"/><path d="M60.63 26.6h0zm.05-.04h0s-.01.02 0 0zm-.44.21h0zm-.11.06s.07.08.11 0h0c-.02.07-.08-.1-.11 0zm-.48-.83l.1.09v-.21c-.12-.27.03.22-.1.12z"/><path d="M59.36 25.8v-.21a.22.22 0 0 0 0 .21zm-2.14-.35v-.38c-.04.06 0 .15 0 .38zm-.41 1.99l.04.24.02-.36-.06.12zm-.24-2.74l.01-.05-.06.14.05-.09zm-3.57.14v.47-.47zm-1.58.48c0-.24-.06-.39-.09-.15.04.03.07.21.09.15zm-4.65-.77l.03-.16-.06.13.03.03zM125 9.2h0zm-.12.12a.11.11 0 0 0 0 .13.56.56 0 0 1 0-.13v-.05c0-.05-.07 0-.09.09s.09-.03.09-.04zm-2.61.96h0zm-1.53.65v-.1a.13.13 0 0 0 0 .1zm-.52-.32h0s-.02-.03 0 0z"/><path d="M122.27 10.28l-.12-.1c.09.13.08.09.12.1zm2.5-.47a.13.13 0 0 0 0-.06v.06zm-2.06-.18h0a.85.85 0 0 0-.09-.15zm.57-.15a2.8 2.8 0 0 0 .21.33.43.43 0 0 1-.09-.17zm1.11.02h0zm-2.13.17l-.09-.12zm-13.62 8h0a0 0 0 0 0 0 0zm-.79-.46h.01 0-.01zm11.66-6.81zm-3.96 2.38c.2.32.12.48.36.83a4.35 4.35 0 0 0-.36-.83z"/><path d="M124.75 9.81h0zm-8.84 3.8h0 0zm2.71-2.42l.1.15zm1.06.1h-.05zm-1.17.64s-.06-.07 0 0v.05c-.04-.08-.04-.1 0-.05zm-.42.22v.07h0zm-7.74 6.09c0-.1-.08-.22-.12-.34.09.27.03.33.12.34zm14.38-8.49a.1.1 0 0 1 0 .06h0z"/><path d="M120.06 14.87H120s0 .02.06 0zm-6.24 2.35v.05s.01 0 0-.05zm5.96-2.22l-.18-.24v.1zm-9.55 2.9z"/><path d="M109.84 18.44c.09 0-.06-.36-.1-.57s.12.31.21.52v-.4a1 1 0 0 1 .05.18c0-.33.2.06.15-.39v.12l-.19-.66s0-.32.08 0v.22-.14c.17.47 0 .16.09.49 0-.12 0-.52.1-.38.15.49-.09.14.11.58l-.14-.2c.28.75-.07-.07.21.73.17.19.08-.17.24 0 0-.28-.12-.41-.18-.69 0-.53.48 1.22.39.49-.07-.34-.24-1-.07-.66l.14.56c.12 0-.18-.81 0-.47v.26c.19.42 0-.32 0-.34l.16.48c.09-.1.1-.49.19-.62a1.81 1.81 0 0 0 .14.45c.07-.29.33 0 .57.2l-.08-.44a.66.66 0 0 1 .1.27c.11.14-.08-.27-.11-.44s.12.23.14.36c0-.39 0-.86.28-.44v.13c.14.14-.19-.89 0-.52v.07c.24.13.3-.32.65.26-.18-.61.27.21 0-.63a3.56 3.56 0 0 0 .51.76s-.13-.54-.12-.64l.16.43-.1-.48.22.51v-.13a1 1 0 0 1-.15-.3c0-.22.28.24.36.46v-.42a1.49 1.49 0 0 1 .07.36c-.08-.47.19.45.12 0 0-.1-.09-.26-.13-.35.14.25.23.21.25.08l.1.3c.15 0 .2-.24.34-.29a1.88 1.88 0 0 1-.27-.7l.19.45c-.09-.29-.11-.16-.19-.52a2 2 0 0 1 .26.66v-.18c.06.14.07.21.14.39-.09-.29.28.41.12-.09l.06.13c.14-.05.13-.23.23-.29a3.49 3.49 0 0 1-.17-.65c.13.09.34.36.42.29a2.94 2.94 0 0 0-.18-.58c.15.35.23.28.29.55.09-.1.11-.13.13-.48a1.91 1.91 0 0 1-.16-.32c0-.07.12.13.19.3h0c-.07-.6.81.87.62.08h0v-.44c.08 0 .08.28.22.48-.12-.65.26 0 .2-.46.56 1 .29-.22.72.38l.08-.11c-.08-.25.1.13.15.17-.09-.19-.14-.2-.18-.34.13-.41.71.09 1.1.18.13 0-.55-1.27-.15-.76l.18.46c-.06-.63.43-.18.39-.73 0 .11.11.24.09.25.2.3.16-.07 0-.33l.21.36c.09.13-.11-.46.08-.16a.6.6 0 0 1 0 .14c-.06-.17.14 0-.08-.38.17.14.06-.23.23-.05-.18-.43.23.14-.07-.45.32.6.39.42.28.11.08.19.14.17.26.43.05 0 0-.18-.14-.48.48.66-.12-.68.43.21a2.92 2.92 0 0 1 .06-.91c.32.59-.12.14.23.76 0-.32-.21-.87 0-.8a1.67 1.67 0 0 1 .17.38c0-.32.28-.09.21-.48a1.34 1.34 0 0 1 .07.18s.1 0-.06-.21v.08a6.89 6.89 0 0 1-.49-1.06c.4.78.22.12.72 1.12a1.27 1.27 0 0 0-.18-.37.93.93 0 0 1 .22.35c0-.19-.2-.45-.12-.49l.17.34c-.11-.27-.22-.54-.1-.47s.11.18.09.19-.21-.77 0-.6c.3.58.15.16.45.64v-.18l-.16-.22c.06 0-.11-.4 0-.28l.08.23v-.16l-.17-.14c-.09-.28-.37-.6-.22-.52s.06 0 .26.24h0c-.07-.16-.14-.34 0-.25s.31.54.38.63c-.22-.41.06-.18-.17-.63.05.11.21.36.24.41l-.18-.34a1.4 1.4 0 0 1 .25.34c.11 0-.4-.59-.15-.38a.2.2 0 0 0 .06.13c.17.08 0-.31.22-.2.32.46 0 .16.28.54.07-.15-.12-.72.06-.68h0c-.42-.68.29.28.15-.07 0 .06.22.38.17.3.15.06.06-.26 0-.55l.1.18c.15.13.18 0 .28.06a1.91 1.91 0 0 0-.24-.41c.81.9 0-.67.58 0a.38.38 0 0 0 .08.17v-.27a2.59 2.59 0 0 0-.27-.32c-.1-.17-.15-.31-.12-.33a1.51 1.51 0 0 0 .39.52l-.16-.24c.35.39-.34-.5-.06-.27l.08.13c0-.09-.1-.27 0-.26.2.25.06.15.21.37 0-.06-.26-.56-.05-.34v.19c.24.26.19.18.25.19h0 .15l-.07-.05c-.37-.66 0-.23-.18-.65.17.39.13.2.29.44a.49.49 0 0 1 .17.15c-.1-.22.13.07 0-.24 0 .06 0 0 .14.13 0-.11-.09-.1-.14-.18-.1-.28.28 0 .16-.33 0-.19-.09-.35-.06-.48.07 0 .08.16.08.16s.1 0 .1-.1a.14.14 0 0 0 .08.07s-.07-.13 0-.13a.67.67 0 0 1 .06.15 1.62 1.62 0 0 1 0-.23v.13c0 .04 0-.18 0-.23h0v.06c0 .06-.06 0-.08 0h0c-.12-.1-.09.11-.13.18l-.08-.15v.16s-.11-.11-.1-.15 0 .08-.09 0h0v.07s-.1-.12 0-.11c-.16-.07 0 .21-.17.07h0c-.06.12.09.15.16.39l-.18-.47.12.18-.1-.08c0 .15.06.08.13.21-.18-.14-.08.18-.33-.14.09.17.14.09.16.24-.28-.36 0 .1-.19 0s0-.12-.18-.28c.21.36-.17 0-.17 0 .21.31 0 .17 0 .3-.07-.11-.27-.13-.44-.25v-.06c.24.38.12.34.13.45a2 2 0 0 1-.26-.46h-.06a.57.57 0 0 1 .11.27l-.2-.32c-.07 0 .11.41-.12.21a6.33 6.33 0 0 1 .72 1.13 5 5 0 0 1-.35-.55s.08.15 0 .09l-.16-.31c-.13-.12.14.25.1.24-.17-.25-.14-.17-.27-.37 0 0 .09.09 0 0a1.49 1.49 0 0 1-.33-.34 2.07 2.07 0 0 1 .23.39c0 .06-.22-.29-.34-.39.1.19-.05 0 .2.41l-.21-.26c.08.18-.11.14.19.51h0 0c.14.43-.34-.08-.33.15l-.09-.13c0 .18-.07.17.06.46a1.42 1.42 0 0 1-.27-.35c0 .12.1.27-.1.1s-.13-.18 0-.19c-.13-.07-.27-.26-.11.12-.19-.34-.3-.38-.27-.27l.19.21c0 .06 0 0-.09 0l-.26-.43c-.43-.44.34 1-.29.2.16.31.2.17.38.53-.09 0-.52-.6-.53-.59-.22-.19.31.67.13.55a3 3 0 0 1 .39.73 2.46 2.46 0 0 1-.5-.74l.08.07a.77.77 0 0 0-.16-.29l.09.15c-.12-.14-.19-.07-.32-.33a.58.58 0 0 0 .21.32c-.2-.18-.11.06-.27 0 .06.08.18.25.16.26-.22-.13.13.31.1.42-.18-.21-.32-.56-.28-.32a2 2 0 0 1-.3-.54c.11.33-.24-.12-.31-.16v-.14.1l.2.3a.32.32 0 0 1-.14-.16c.09.21.31.5.43.8-.12-.14 0 .21-.23-.19.17.09-.25-.4-.21-.51 0 .06 0 .06-.06 0a.21.21 0 0 1 0-.11c-.3-.32.23.48.14.52a1.31 1.31 0 0 0-.26-.37 1.94 1.94 0 0 1 .31.57c-.16-.14 0 .17 0 .17l.08.06c.12.24.07.23.08.32-.11-.18 0-.14-.1-.21.19.43-.33-.37-.24-.06-.11-.14-.25-.44-.33-.53.1.34-.25-.28-.18 0a1.48 1.48 0 0 1 .28.56v-.29l.18.5v-.2a1.13 1.13 0 0 0 .23.45c-.32-.45 0 .32-.18 0l-.43-.77c-.27-.3.07.48-.14.34l.11.12c.15.31 0 .08 0 .22a4 4 0 0 0-.32-.5c.11.2-.09 0 .19.55l-.24-.31c-.16-.1.31.79.17.75a5.39 5.39 0 0 1-.31-.69s-.08 0 0 .16c-.1-.16.11.39-.05.16.05.12.2.39.15.39l-.07-.13a2.57 2.57 0 0 0 .23.48c-.52-.77-.22.19-.66-.48a.61.61 0 0 1-.1.29c0-.08-.06-.13 0-.11-.2-.2.34.78.11.56-.26-.41-.07-.26-.18-.4-.45-.87 0 .17-.36-.31v-.06c-.2-.27 0 .39 0 .37l-.07-.14a1.75 1.75 0 0 1 .14.83 2.92 2.92 0 0 0-.25-.54c0 .07.29.55.27.68a5.29 5.29 0 0 1-.43-.68v-.05c-.26-.47-.07.05-.14 0l-.1-.21c-.06.12.2.65.08.66l.09.15c.19.55-.19-.27-.06.15l-.27-.53a4.66 4.66 0 0 1 .1.71 7.43 7.43 0 0 1-.24-.91s-.1.1 0 .37c0-.06-.06-.2 0-.12.16.44.2.67.12.7-.47-1-.31-.17-.74-1 0 .44-.32-.05-.44.08.42.79 0 0 .35.87 0 .07 0 .06-.06 0l-.33-.45c-.13-.23 0-.2-.13-.39-.11 0-.19-.34-.34-.54.14.3.16.44.07.35l.23.36c.09.49-.4-.67-.31-.18l-.08-.28c0 .19-.2.09 0 .79a1.4 1.4 0 0 1-.17-.39c-.17-.05 0 .84-.26.47l-.08-.22c0 .07.12.41 0 .22a1.5 1.5 0 0 0-.09-.22c0 .07.08.39 0 .28l-.07-.24c-.24-.22 0 .65 0 .83a1.94 1.94 0 0 0-.52-.84v-.09c-.18 0 0 .61-.1.9-.35-.63-.4-.16-.69-.48a2 2 0 0 1 .18.55c-.08-.11.07.46-.14-.1h0c-.23-.54-.24-.37-.3-.37l.27.75c-.54-1-.22.53-.65-.41v.41l-.14-.4c-.13-.07-.19-.11-.27 0l-.08-.3c-.07 0 .33 1.19.27 1.23l-.22-.59c-.11.05-.41-.44-.34.14a1.67 1.67 0 0 1-.07-.29c-.06 0-.34-.34 0 .48-.18-.54-.13 0-.11.24l-.12-.4a2.93 2.93 0 0 1 .13.83s-.12-.31-.07-.22c-.12-.19.08.39-.06.21v-.27c-.07 0 0 .13 0 .43s-.15-.06-.27-.42c.06.23.12.53 0 .44a1.5 1.5 0 0 1-.07-.27c-.18-.24 0 .51-.19.14a1.33 1.33 0 0 0-.09-.23h.16a5.73 5.73 0 0 1-.31-.94c0 .29.14.92 0 .77a.55.55 0 0 0 0-.13h0v.07c0 .07-.07-.1-.09-.09-.1-.31-.12-.15-.16-.15a4.89 4.89 0 0 0 .21.67.06.06 0 0 1 0-.07v-.05h0 .07c0 .21.07.39 0 .17l.16.67-.51-1.17a1.38 1.38 0 0 0 0 1c0 .11-.09-.22-.14-.34s0-.07 0-.18c0 .2-.14.12 0 .67-.13-.21-.1-.52-.17-.38v-.17c-.21-.35-.17.08-.16.4s0 .59-.23.22a1 1 0 0 1 .06.14c-.16-.12-.25.06-.35.19s-.22.2-.37.1 0 .14-.06.27l-.06-.18v.25c-.07.17-.26-.27-.32.06v.06s-.13.12-.14.05 0 .07 0 .05h0l-.09.13c-.09 0 0-.12-.12 0a.59.59 0 0 1-.1.11h.05-.05l.09.05h.08 0-.08a.13.13 0 0 0 .1 0v.05h.06c.06 0 0 .05 0 .11s-.06-.11 0-.12.05.12.09.08 0 .06 0 .07.12 0 .12 0c.07.12.14 0 .19.21 0 0 0-.13.07-.13 0 .25.16.06.22.38 0-.26.18 0 .23-.18v.05c0-.03.11.17.17.26a1.83 1.83 0 0 1 0-.56c.16.34.07.39.17.7-.08-.27.05-.23 0-.47a1.93 1.93 0 0 1 .18.42c-.11-.45 0-.05 0-.33.13.26.14.46.18.34a.53.53 0 0 1-.24.34zm1.55-1h0 0zm.14-.05a.08.08 0 0 0-.07 0c0-.14-.09-.28-.07-.28a1 1 0 0 0 .14.26zm-1.16-2.7c0-.07 0 0 .06.09v.06h0c-.03-.05-.05-.12-.06-.17z"/><path d="M110.49 15.21a.59.59 0 0 1 0 .08v-.12zm11.84-4.88h0 0zm-8.6 7.14l-.03-.1.02.09.01.01zM123.74 11a.22.22 0 0 0 .06.07zm.26-.23l.09.05a.21.21 0 0 0-.09-.05zm.24-.12l-.06-.1h0zm-3.14 3.08a0 0 0 0 0 0 0c.02.1.01.06 0 0zm.6-1.51c0 .08 0 .15.06.2s.06.01-.06-.2z"/><path d="M120.07 14.88v-.01h-.01l.01.01zm1.64-2.44c.06.06.07 0 .05 0s-.07-.06-.05 0zm3.17-2.88l.01-.02-.01-.01v.03z"/><path d="M124.88 9.53h0zm.01-.06h0s.01.02 0 0zm-.2.41h0zm-.05.12h.09 0c.02 0-.13-.09-.09 0zm-.83-.39h.12c-.06-.06-.15-.15-.12-.17-.26-.16.13.16 0 .17zm-.36-.04c0-.05-.09-.12-.12-.17a.22.22 0 0 0 .12.17zm-1.82.81l-.2-.32c0 .06.08.12.2.32zm.74 1.88l.16.18-.18-.3.02.12zm-1.64-2.2l-.01-.05.02.14-.01-.09zM118 11.78l.23.41c-.03-.08-.23-.55-.23-.41zm-1 1.06c-.11-.2-.21-.32-.14-.1 0 .01.14.16.14.1zm-4.21.94l-.03-.15v.14l.03.01zM130 21.16v-.05.05z"/><path d="M130.1 20.79c0-.06-.06-.15-.11-.11a1.19 1.19 0 0 1 .08.16v.09c0-.01 0 .08 0 .11a.65.65 0 0 0 0-.25h.03zm1.57-5.17h-.07zm.81-3.23h.1a.19.19 0 0 0-.1 0zm.63-.47h0c.01.02.03.01 0 0z"/><path d="M131.67 15.62l.16-.06c-.15-.03-.12.02-.16.06zM129.89 20a.21.21 0 0 0 0 .06v-.05zm1.84-2.88h0l.17.05zm-.37 1.07a2.36 2.36 0 0 0-.39-.11c.12 0 .17.07.18.09zm-.96 1.65h0zm1.67-3.48h0zM114.26 2.37h0zm-1.25-.73h.02 0-.02zm20.8 9.36h0 0zm-3.1-9.68c.1.39-.23.47-.09.9-.03-.17.29-.64.09-.9z"/><path d="M129.9 20h0zm.72-17.78h0 0zM134 8.58h0zm-.93 1.66h.06zm.45-2.66s.09 0 0-.06h-.05c.09.02.12.04.05.06zm.15-.95h-.09 0zM117.1 3.6a2.11 2.11 0 0 1 0-.36c-.03.28-.17.32 0 .36zM130 20a.1.1 0 0 1 0 0h0s-.06 0 0 0zm.24-13l.09-.14a.24.24 0 0 0-.09.14zM124 4.25h0s0 .04 0 0z"/><path d="M130.34 6.4a1.34 1.34 0 0 0 .3 0h-.1zm-13.26-3.16z"/><path d="M116 3.6c.14.09.1-.36.15-.58.18 0 0 .34.09.58.11-.05.23-.42.3-.37a.41.41 0 0 1 0 .19c.14-.32.33.13.5-.31a.62.62 0 0 1 0 .13 6.43 6.43 0 0 1 0-.69c.06 0 .14-.3.14 0 0 0-.05.11-.08.21l.08-.13c0 .5-.11.15-.14.5.15-.11.33-.49.42-.32 0 .51-.25.1-.15.58l-.14-.24c.06.8-.09-.09 0 .76.19.24.24-.13.43.08.07-.27 0-.43.09-.71.34-.48.13 1.33.4.63.09-.34.16-1 .29-.64l-.1.57c.19.07.18-.82.36-.41-.06.22-.18.17-.15.24.1.47.12-.31.23-.31v.52c.22-.07.48-.42.73-.49a1.06 1.06 0 0 0 0 .47c.32-.23.63.11.9.43l.14-.42v.28c0 .08 0-.28.1-.45s.06.26 0 .39c.23-.35.63-.75.8-.27v.13c.15.19.26-.89.37-.46v.07c.34.22.76-.15 1 .53.11-.62.33.31.42-.57.17.46.1.61.36.93.07 0 .16-.54.26-.63v.46l.17-.47v.56l.1-.11a.66.66 0 0 1 0-.35c.15-.2.31.35.29.58l.36-.36a.88.88 0 0 1-.13.36c.21-.46 0 .49.18.07a1.5 1.5 0 0 1 0-.37c0 .29.23.31.38.2l-.06.31c.24.1.52-.11.79-.08a1.14 1.14 0 0 1 .07-.75v.53c.08-.3-.07-.19.07-.55.1.06 0 .56 0 .71L126 4.4c0 .15 0 .22-.06.41.07-.3.17.5.28 0v.15c.27 0 .41-.13.63-.14 0-.42.11-.32.21-.65.15.14.3.49.5.47.15-.2.07-.35.15-.6 0 .39.18.37 0 .63a.94.94 0 0 0 .63-.34.9.9 0 0 1 0-.36c.06-.05.11.17.09.36h0c.38-.55.67 1.17 1 .4h0l.3-.4c.13.08-.09.28 0 .53.35-.62.46.13.74-.28 0 .57 0 .49.05.39s.15-.23 0 .1l.11-.24c.13-.23-.05.14-.08.2l.18-.35c.08-.13.22 0 .14.12a1.27 1.27 0 0 1-.44.45c-.07 0 1.4-.69.75-.31l-.5.2c.3-.11.28 0 .26 0s-.12.07.08.14h-.24-.16c.05 0 .21.14.36.15-.05.06-.27 0-.42 0s.42.29 0 .28a.32.32 0 0 1-.13-.07c.16.09-.09.26.33.27-.22.12.13.33-.13.41.45.15-.26.22.38.36-.67-.12-.58.18-.29.33-.19-.07-.22 0-.49 0 0 .11.1.24.44.27-.83.07.58.52-.47.46a3.59 3.59 0 0 1 .61 1.06c-.66-.12 0-.34-.71-.44.22.32.77.58.56.83-.1.06-.28-.09-.39-.13.23.33-.15.53.17.84a.53.53 0 0 1-.17-.08s-.12.1.19.14l-.08-.06c.46 0 .89.35 1.12.4-.85-.23-.26.21-1.33-.11a.77.77 0 0 0 .39.13c-.07 0-.19 0-.41-.05.13.2.47.19.43.35a2.45 2.45 0 0 1-.37-.11c.28.13.55.26.4.37s-.2 0-.19-.06c0 .24.7.52.38.73-.63-.18-.23 0-.78 0l.14.16h.28c0 .12.35.29.16.37l-.22-.13.07.24.23-.09c.27.17.7.1.52.24-.05-.05 0 .11-.36.12h0c.16.09.34.18.19.25s-.61-.12-.73-.13c.45.14.08.31.56.46a2.45 2.45 0 0 0-.46-.09l.37.11a.77.77 0 0 1-.42 0c-.1.16.71.07.37.21 0 0-.08 0-.13-.06-.19.17.17.42 0 .58-.57 0-.11-.19-.59-.2.05.28.57.65.4.89h.07c.78.16-.42.12-.07.32a1.36 1.36 0 0 0-.34-.1c-.16.16.13.39.33.7l-.19-.07c-.2.08-.15.26-.26.35.19.07.15.13.45.14-1.24.14.48.75-.45.91 0 0-.17-.12-.17-.09l.18.29a1.55 1.55 0 0 0 .44 0c.18.06.31.16.3.22-.19-.15-.49-.08-.66-.06.1 0 .2.05.29.06-.54.05.6.12.22.25h-.15c.07.08.26.18.2.25-.32 0-.14-.1-.4-.15 0 .11.57.31.25.35-.08-.06-.07-.12-.15-.18-.37 0-.27.07-.33.14h0l-.15.15h.09c.73.26.13.3.56.55-.4-.24-.24-.07-.52-.13-.08 0-.17.09-.25.06.23.12-.15.11.17.29-.08 0 0 .09-.21 0 .08.12.14 0 .25 0 .25.21-.27.36.06.66.13.24.31.3.36.51-.09 0-.18-.08-.18-.08a.26.26 0 0 0 0 .28h-.1c-.04 0 .13.07.08.17l-.15-.1a1.37 1.37 0 0 1 .13.31c-.05 0-.07-.07-.11-.12a.63.63 0 0 0 .12.35v-.07h-.06c-.01 0 0-.13.05-.13v.07c.16-.05 0-.28 0-.43l.16.09-.12-.17s.15 0 .17.05c.11-.09-.05-.1.07-.17s0 0 0 0v-.11s.15 0 .1.07c.19-.15-.09-.31.11-.34h0c0-.26-.18-.06-.38-.28h.54l-.21-.06s0-.07.13-.05c-.13-.12-.1 0-.24-.08.24-.08-.05-.34.37-.3-.19-.08-.18.09-.29-.06.47 0 0-.16.19-.24.25.08.08.16.34.09-.41-.14.16-.2.11-.3-.37-.07-.09-.22-.18-.4.13 0 .3-.25.52-.36h.08c-.45-.1-.33-.24-.4-.36a1 1 0 0 1 .51.17v-.1c-.15-.05-.22-.09-.26-.17l.37.09c0-.13-.36-.34 0-.47-.39-.07-1.08 0-1.32-.26a2.56 2.56 0 0 1 .65.14s-.16-.08-.07-.1l.34.13c.17-.05-.29-.09-.24-.15h.45s-.13 0 0 .08a.8.8 0 0 1 .49-.11c-.17 0-.4-.07-.43-.13s.36 0 .52 0c-.21-.07 0-.12-.42-.2h.33c-.18-.11 0-.34-.48-.34h-.05c-.4-.3.33-.44.18-.7h.14c-.14-.17 0-.32-.34-.47h.45c-.09-.12-.25-.16 0-.27.24.15.23 0 .17.14.15-.11.39-.11 0-.32.37.11.49 0 .39-.1l-.28.05c-.05-.09 0-.14 0-.2l.49.11c.64-.17-.94-.66.1-.71-.33-.13-.27.11-.66 0 .09-.12.82-.13.82-.17.31-.13-.69-.28-.47-.44a1.44 1.44 0 0 1-.8-.22c.09-.12.77 0 .89.07s-.05 0-.1 0 .12.12.32.1h-.18c.19 0 .2-.21.49-.12a.32.32 0 0 0-.39 0c.28-.12.05-.25.25-.39h-.31c.26-.21-.31-.16-.36-.34.28-.05.63.14.44-.07a.91.91 0 0 1 .6.12c-.31-.21.27-.25.35-.32l.13.1c-.08-.06-.07-.1-.06-.14h-.36c.07 0 .08-.08.22-.06a5.44 5.44 0 0 1-.89-.2c.19 0-.16-.23.31-.17-.19.17.48.05.52.23q-.07-.06 0-.12h.12c.45-.12-.51-.17-.47-.37.26.07.51 0 .46 0s-.45 0-.64-.14c.23-.09-.13-.16-.09-.23l-.11.06c-.26-.07-.21-.12-.28-.22.2 0 .13.1.22.08-.44-.17.52-.14.23-.33.19 0 .49.08.62 0-.31-.21.39-.1.13-.31a.82.82 0 0 1-.6-.16l.21.3-.42-.37c0 .08.2.2.13.24a.71.71 0 0 0-.49-.11c.55 0-.27-.27.11-.34l.87.15c.42-.12-.39-.41-.13-.62l-.17.05c-.34-.09 0-.16-.15-.26a2.1 2.1 0 0 0 .6 0c-.22 0 0-.18-.53-.3h.4c.19-.18-.8-.37-.67-.54.31.11.53 0 .74.22 0-.06.08-.11-.13-.15.19 0-.36-.24-.07-.25-.13 0-.43-.11-.4-.18h.15c-.15 0-.18-.15-.51-.14.94 0 0-.56.83-.6a1.37 1.37 0 0 1-.14-.47h.11c.3-.13-.82-.24-.48-.39.49 0 .24.15.43.11 1 .16-.09-.3.51-.46h.05c.37-.17-.3-.41-.19-.64h.13a1.21 1.21 0 0 1-.76-.49c.39-.06.21 0 .6-.13-.05-.08-.64.22-.73.09a7.78 7.78 0 0 1 .8-.51L134 4c.54-.31 0-.24 0-.37l.23-.09c-.13-.26-.66 0-.7-.25l-.14.12c-.54.19.23-.31-.2-.19l.45-.39a7.77 7.77 0 0 0-.91.09 1.88 1.88 0 0 1 1-.32.41.41 0 0 0-.58-.07c.08 0 .23-.09.2 0-.45.23-.74.34-.91.29.81-.93-.27-.37 0-1.21-.64.3-.86-.29-1.51-.28.06.9-.17 0-.25.92h-.15l-.19-.56c0-.27.09-.2.1-.4-.16-.09 0-.4-.13-.65 0 .33-.09.47-.18.33l.1.44c-.28.46-.14-.79-.42-.33l.1-.28c-.14.16-.45 0-.63.68a.83.83 0 0 1 0-.42c-.28-.13-.71.73-.9.26V1.1c-.06.06-.13.41-.18.18s0-.22 0-.23-.17.38-.23.24l.08-.25c-.26-.31-.49.58-.74.71a1.14 1.14 0 0 0-.26-1V.66c-.33-.11-.61.5-.94.73-.13-.73-.62-.35-.89-.78a1.18 1.18 0 0 1-.11.58c-.06-.14-.24.44-.18-.17h0c0-.6-.17-.45-.28-.48l-.09.79c-.2-1.17-.82.36-.9-.68-.09.19-.18.18-.27.37V.6a.52.52 0 0 0-.55-.11l.08-.3c-.14 0-.28 1.21-.41 1.22V.77c-.24 0-.45-.59-.73 0 0-.1 0-.28.07-.3s-.41-.46-.44.41c0-.57-.25-.08-.4.16V.62c-.15.53-.17.67-.33.81V1.2c-.1-.23-.13.39-.26.16l.08-.27c-.13 0-.13.1-.22.41-.1.16-.23-.13-.22-.5 0 .22-.13.53-.2.41a.59.59 0 0 1 .06-.27c-.19-.3-.36.46-.47 0a.8.8 0 0 0 0-.25c.17 0 .3.06.29.08 0-.38-.1-.46 0-1-.13.28-.37.9-.49.7V.53h-.09c-.09 0-.06-.11-.1-.12 0-.32-.14-.19-.2-.21 0 .42-.12.35-.06.7l.06-.06c.06-.06 0 0 0 0h0 .17c-.07.21-.14.39-.2.15l-.15.67c0-.6-.2-.93-.19-1.29-.23.22-.5.1-.7.88-.06.1 0-.24-.06-.37s.08-.06.11-.17c-.13.18-.36 0-.43.61-.13-.25.13-.52-.09-.42V.73c-.16-.41-.36 0-.55.29s-.39.54-.58.1a.26.26 0 0 1 0 .15c-.24-.17-.51 0-.78 0a.87.87 0 0 1-.77-.07c-.14-.05-.17.12-.27.25v-.2l-.17.24c-.22.12-.34-.35-.63-.07v.07c-.1 0-.31.06-.29 0s0 .06-.07 0h0l-.25.08c-.18 0 0-.12-.23-.05a1.77 1.77 0 0 1-.25.07h.1.42s-.08 0 .13.08l.15.05v.05l-.13-.07a.32.32 0 0 0 .17.08l.06.07a.47.47 0 0 0 .16 0c0 .05-.08.05 0 .13s-.06-.13.06-.12 0 .13.13.12 0 .05 0 .05.2.09.25 0c.07.14.26.08.23.28a.32.32 0 0 1 .22-.1c-.15.24.26.13.19.46.12-.25.35 0 .53-.08v.05a.92.92 0 0 1 .16.31c0-.31.19-.33.29-.53.09.39-.1.4-.09.74 0-.29.22-.2.2-.47a1.19 1.19 0 0 1 .09.47c0-.48.08 0 .18-.32.11.3 0 .5.15.4a.33.33 0 0 1-.13.36zm3.44-.31h0-.07zm.28 0a.21.21 0 0 0-.12 0c0-.15 0-.29.06-.28s.07.17.1.3zm-.36-3c0-.06.06 0 .06.11h-.09v.15a1 1 0 0 1 .07-.2z"/><path d="M119.27.89v.1-.13zm12.32 14.76h0zm-7.95-11.22v-.11l-.03.09.03.02zM130 17h0zm-.07.66l-.11.08a.38.38 0 0 0 .11-.08zm-.13.51h.12 0zm.48-8.35a0 0 0 0 0 0 0zm.57 2.6a1.6 1.6 0 0 1-.19-.11s-.05.07.19.11z"/><path d="M130.23 7.01h.01v-.02l-.01.02zm.46 5.19c-.09 0-.08.07 0 .11s.06-.06 0-.11zm-.74 8.29v.03h.01l-.01-.03zm.05.03h0a0 0 0 0 0 0 0z"/><path d="M130 20.62v-.07a.14.14 0 0 0 0 .07zm-.09-.83h0zm-.03-.22c0 .05-.1.11 0 .19h0c-.1-.04.12-.13 0-.19zm.95-.74l-.11.16c.09 0 .22 0 .21.05.33-.17-.21.01-.1-.21z"/><path d="M131.16 18.33c0 .1.15 0 .21 0s-.1-.05-.21 0zm.96-3.84l.38.07c-.04-.08-.14-.02-.38-.07zm-1.83-1.07l-.25.03.35.09-.1-.12zm2.77.01l.05.04-.12-.15.07.11zm.94-6.57l-.47-.06c.09.06.61.2.47.06zm-.22-3.69c.19-.16.26-.36 0-.28.06.11-.07.28 0 .28zM124.7.71l.07-.15-.12.12.05.03z"/></svg>