<svg xmlns="http://www.w3.org/2000/svg" viewBox="0 0 134.24 28.85"><defs><style>.cls-1{fill:#5c5c5c;}</style></defs><title>arrow2</title><g id="Layer_2" data-name="Layer 2"><g id="Layer_1-2" data-name="Layer 1"><path class="cls-1" d="M28,26.28h0Z"/><path class="cls-1" d="M27.72,26.23s-.12.06-.1.11.08,0,.14-.08.07,0,.06,0h.09a.41.41,0,0,0-.2,0S27.72,26.24,27.72,26.23Z"/><path class="cls-1" d="M23.84,24.65v.07S23.85,24.66,23.84,24.65Z"/><path class="cls-1" d="M21.42,23.79s0-.05,0-.09A.11.11,0,0,0,21.42,23.79Z"/><path class="cls-1" d="M21.13,23.16v0C21.14,23.15,21.14,23.12,21.13,23.16Z"/><path class="cls-1" d="M23.84,24.65l0-.16C23.76,24.64,23.81,24.61,23.84,24.65Z"/><path class="cls-1" d="M27.1,26.44l0,0,0,0Z"/><path class="cls-1" d="M25,24.61h0a1.38,1.38,0,0,0,.06-.16Z"/><path class="cls-1" d="M25.8,25a3.63,3.63,0,0,0-.12.38c0-.11.07-.16.09-.17S25.79,25.08,25.8,25Z"/><path class="cls-1" d="M27,25.93h0Z"/><path class="cls-1" d="M24.45,24.26l0-.15Z"/><path class="cls-1" d="M.72,19v0S.72,19,.72,19Z"/><polygon class="cls-1" points="0 18.07 0.02 18.07 0.02 18.07 0 18.07"/><path class="cls-1" d="M20.49,22.44h0C20.52,22.4,20.51,22.41,20.49,22.44Z"/><path class="cls-1" d="M13.39,20.79c0,.39-.27.43-.27.86C13.15,21.49,13.42,21.06,13.39,20.79Z"/><path class="cls-1" d="M27.08,26.43h0Z"/><path class="cls-1" d="M13.12,21.65h0v0Z"/><path class="cls-1" d="M18.66,22.22a.67.67,0,0,0,0,.18A1.3,1.3,0,0,0,18.66,22.22Z"/><path class="cls-1" d="M19.83,23.15l0-.06S19.82,23.14,19.83,23.15Z"/><path class="cls-1" d="M17.82,22.61s0-.09,0,0v.05C17.8,22.57,17.81,22.54,17.82,22.61Z"/><path class="cls-1" d="M17.1,22.42v.09l0,0Z"/><path class="cls-1" d="M2.51,20.73c0-.11.06-.23.09-.34C2.52,20.65,2.4,20.65,2.51,20.73Z"/><path class="cls-1" d="M27.11,26.38l0,.05h0A.1.1,0,0,0,27.11,26.38Z"/><path class="cls-1" d="M16.92,25.82l-.1-.09A.18.18,0,0,0,16.92,25.82Z"/><path class="cls-1" d="M7.57,22.59l0,0S7.55,22.63,7.57,22.59Z"/><path class="cls-1" d="M16.46,25.69a1.06,1.06,0,0,0,0-.3.69.69,0,0,1,0,.1Z"/><path class="cls-1" d="M2.6,20.38h0Z"/><path class="cls-1" d="M1.72,20.5c.08.11.18-.31.27-.51.15,0-.05.33-.09.57.1,0,.29-.35.33-.29a.76.76,0,0,1-.06.18c.19-.27.21.2.46-.19l0,.12c.07-.25.16-.48.22-.65.05,0,.2-.26.1.07,0,0-.07.1-.12.19l.09-.11c-.12.48-.12.11-.23.44.13-.07.38-.39.4-.22-.16.49-.21,0-.28.53l0-.26c-.19.78,0-.11-.25.72.07.27.22-.07.3.17.13-.26.14-.41.27-.67.39-.4-.27,1.29.13.68.16-.32.39-.92.39-.56l-.23.53c.13.1.36-.76.39-.34-.11.21-.18.14-.18.22-.06.46.18-.29.25-.26l-.15.49c.18,0,.48-.31.69-.33a1.37,1.37,0,0,0-.16.44c.31-.16.45.22.57.58L5,21.65a.57.57,0,0,1-.08.28c0,.18.1-.27.2-.42s0,.27-.1.38c.27-.3.68-.62.68-.12l-.07.12c.06.21.43-.81.41-.38l0,.06c.2.27.62,0,.61.68.24-.58.17.36.46-.47,0,.46-.08.6,0,.95,0,.05.26-.5.36-.56l-.15.44.25-.43-.12.54.1-.09a.8.8,0,0,1,0-.34c.17-.17.15.39.08.61L8,22.61a.93.93,0,0,1-.19.32c.28-.4-.13.48.13.1a1.7,1.7,0,0,1,.12-.34c0,.28.11.33.24.25l-.11.29c.15.14.42,0,.62.05a1.46,1.46,0,0,1,.24-.72L8.94,23c.13-.28,0-.2.19-.53a1.5,1.5,0,0,1-.21.69l.14-.13c0,.14-.09.2-.15.38.13-.28,0,.52.23,0l0,.14c.2.07.34-.06.51,0,.13-.4.17-.29.32-.6.08.16.12.52.27.53.17-.17.14-.33.26-.55-.11.36,0,.38-.11.62.2,0,.25,0,.56-.24A1.21,1.21,0,0,1,11,23c.06-.05,0,.18,0,.36l0,0c.42-.47.25,1.25.68.55l0,0,.32-.34c.08.09-.14.26-.14.51.41-.55.33.19.63-.16-.18,1.13.53.07.51.82l.07-.26c.12-.23,0,.17,0,.24.06-.2,0-.25.09-.38.51-.18.76.63,1.12,1,.14.12.47-1.3.49-.63l-.19.46c.48-.48.65.21,1.1-.19-.05.1-.09.25-.12.24,0,.36.24.08.32-.2,0,0-.06.26-.07.41s.28-.4.22,0a.26.26,0,0,1-.07.13c.09-.16.19.1.26-.31.07.22.28-.12.3.14.19-.43.15.27.34-.35-.19.65.06.58.22.29-.08.19,0,.22-.1.49.09,0,.2-.09.28-.43-.06.83.48-.55.3.48a3.06,3.06,0,0,1,.9-.55c-.18.65-.26,0-.43.68.28-.21.55-.74.72-.52s-.1.27-.15.38c.29-.21.4.17.68-.14a.53.53,0,0,1-.08.17s.06.12.13-.18l-.05.07a4.76,4.76,0,0,1,.44-1.09c-.28.83.13.26-.24,1.31a1.14,1.14,0,0,0,.15-.38.7.7,0,0,1-.09.4c.17-.13.21-.45.33-.42a3.31,3.31,0,0,1-.14.36c.14-.26.27-.53.34-.38s0,.2-.07.19c.19,0,.49-.67.61-.35-.21.61,0,.22-.11.77l.15-.14,0-.27c.09,0,.27-.34.31-.15l-.13.21.2-.06L21,25.55c.17-.26.16-.69.25-.51s.09,0,.06.36h0c.08-.16.17-.33.21-.18s-.16.6-.18.72c.16-.45.25-.08.42-.55a3,3,0,0,0-.13.46l.13-.36a.83.83,0,0,1-.05.41c.11.1.12-.7.2-.37,0,0,0,.09-.06.14s.35-.16.44,0c-.09.56-.15.11-.22.58.23-.05.58-.56.74-.38l0-.07c.21-.77.06.42.24.07a1.49,1.49,0,0,0-.1.34c.1.16.31-.12.57-.32l-.07.19c0,.2.19.15.25.26a1.11,1.11,0,0,0,.15-.44c0,1.22.63-.46.67.45,0,0-.11.17-.09.17l.25-.18a1.33,1.33,0,0,0,0-.43c.07-.18.16-.31.2-.3a1.18,1.18,0,0,0-.1.65,2.86,2.86,0,0,1,.07-.28c0,.53.15-.59.21-.22L25,26c.07-.07.16-.25.21-.2,0,.32-.09.14-.15.4.09,0,.29-.56.3-.25-.06.08-.11.07-.16.15,0,.36,0,.27.08.32h0l.11.14,0-.08c.27-.72.25-.14.48-.55-.22.38-.07.23-.14.51a.44.44,0,0,1,0,.23c.11-.22.08.15.24-.16,0,.08.07,0,0,.2.11-.07,0-.13,0-.23.19-.25.26.26.52-.06.2-.12.26-.3.43-.34s-.08.17-.08.17.13.06.22,0,0,.06,0,.1.07-.13.15-.08-.06.1-.1.15a1.05,1.05,0,0,1,.26-.13s-.07.07-.1.11.24-.07.28-.12l-.06,0s0,.05,0,.06-.1,0-.1-.05h.06c0-.16-.22,0-.33,0l.08-.16-.14.12s0-.15.05-.16S27,26.09,27,26s0,0,0,0l-.08,0s0-.15.06-.11c-.1-.18-.25.1-.26-.1h0c-.19,0-.05.17-.24.37l0-.52-.07.2s-.05,0,0-.12c-.1.12,0,.09-.08.22-.05-.23-.28.05-.21-.36-.07.19.05.18-.07.28.07-.45-.13.05-.17-.18s.13-.08.1-.33c-.14.4-.14-.16-.22-.11-.09.36-.18.09-.33.17,0-.13-.16-.3-.23-.52l0-.07c-.12.44-.21.31-.31.38a1.25,1.25,0,0,1,.17-.5l-.07,0a.46.46,0,0,1-.15.26l.1-.37c-.1,0-.3.35-.37,0a4,4,0,0,1-.33,1.3,3.2,3.2,0,0,1,.17-.63s-.08.16-.08.06l.13-.33c0-.17-.09.28-.14.24.07-.3,0-.22.08-.45,0,0,0,.13.06,0a.94.94,0,0,1,0-.49,1.24,1.24,0,0,1-.14.43c-.11,0,0-.36,0-.51-.08.2-.09,0-.2.41,0,0,0-.21,0-.33-.1.18-.26,0-.31.47v.05h0c-.28.39-.31-.33-.53-.19l0-.14c-.15.14-.26,0-.4.33a.93.93,0,0,1,0-.44c-.1.09-.15.25-.21,0,.14-.23,0-.23.13-.16-.08-.15,0-.39-.25,0,.13-.36,0-.49,0-.39V24c-.07,0-.11,0-.15,0l.14-.48c-.06-.64-.62.91-.54-.12-.14.33.06.27-.09.65-.08-.08,0-.8,0-.81-.06-.3-.3.67-.39.46a1.85,1.85,0,0,1-.26.78c-.09-.09.06-.76.15-.88s0,.05,0,.11a.4.4,0,0,0,.11-.32l0,.17c0-.19-.14-.2,0-.48a.4.4,0,0,0-.07.38c-.06-.28-.19-.05-.28-.25a.81.81,0,0,1-.05.3c-.13-.26-.17.3-.31.35,0-.28.18-.62,0-.44a1.23,1.23,0,0,1,.16-.59c-.19.3-.16-.28-.21-.35l.1-.13c-.06.08-.09.07-.12.06l-.05.35a.26.26,0,0,1,0-.22c-.1.22-.12.58-.27.87,0-.19-.19.15-.09-.31.11.19.1-.46.24-.5,0,0-.07,0-.09,0a.23.23,0,0,1,0-.11c0-.45-.2.5-.34.45.08-.25.09-.5.05-.45s-.08.44-.19.62c0-.22-.14.12-.18.09l0,.11c-.09.25-.13.2-.21.27,0-.2.09-.12.09-.22-.19.44,0-.51-.23-.23,0-.19.12-.49.11-.62-.2.31,0-.38-.22-.14a1.13,1.13,0,0,1-.2.59l.26-.19-.26.47c.06,0,.18-.19.21-.12a.92.92,0,0,0-.16.48c.06-.54-.24.26-.24-.12l.22-.85c0-.42-.36.37-.49.1l0,.17c-.12.33-.13,0-.23.14a2.25,2.25,0,0,0,.1-.59c-.06.22-.13,0-.3.52l0-.4c-.11-.2-.39.77-.51.63.13-.3.11-.52.27-.72-.05,0-.08-.07-.13.12,0-.18-.24.35-.21.07-.05.12-.14.42-.19.38a.93.93,0,0,1,0-.14,1.25,1.25,0,0,0-.17.5c.09-.94-.44-.05-.35-.85a1,1,0,0,1-.39.11c0-.08,0-.14.05-.1-.06-.31-.31.79-.37.46.05-.49.14-.23.15-.42.24-.94-.22.08-.17-.5l0,0c0-.34-.28.31-.39.21a.93.93,0,0,0,0-.14,1.34,1.34,0,0,1-.59.66,1.88,1.88,0,0,0,.2-.56c-.07,0-.16.61-.29.68a3.67,3.67,0,0,1,.09-.81h.11c.09-.53-.14,0-.16-.13l.07-.22c-.18,0-.34.59-.5.5l0,.18c-.25.53,0-.34-.2.05l.14-.57a3.39,3.39,0,0,1-.51.56,4.58,4.58,0,0,1,.52-.81c-.06,0-.21,0-.33.25,0,0,.12-.17.11-.08q-.3.64-.48.57c.35-1.09-.23-.36-.06-1.24-.33.34-.36-.3-.63-.31-.17.88-.08,0-.32.89-.08,0-.09,0-.08,0l0-.58c0-.27.11-.18.17-.38-.11-.1.06-.38.05-.64-.08.32-.18.43-.22.29l0,.44c-.31.41.07-.78-.24-.37l.14-.26c-.14.13-.33-.11-.63.57a.9.9,0,0,1,.12-.4c-.18-.18-.7.6-.74.11l.09-.21c-.06.05-.2.38-.18.15a1,1,0,0,0,.07-.22c-.05.06-.23.34-.24.2l.12-.23c-.12-.34-.5.49-.73.58a1.35,1.35,0,0,0,.05-1l0-.09c-.21-.16-.57.39-.88.56.08-.72-.38-.43-.48-.89a1.33,1.33,0,0,1-.22.54c0-.14-.29.39-.09-.19v0c.15-.58,0-.46-.09-.5l-.26.75c.14-1.17-.71.21-.5-.81-.12.17-.18.14-.3.31l.14-.4c-.11-.15-.17-.23-.38-.19L8,18.53c-.09-.06-.52,1.12-.62,1.11L7.57,19c-.18-.05-.18-.64-.54-.15a.81.81,0,0,1,.13-.28c-.08,0-.18-.51-.44.32.19-.54-.16-.11-.34.09l.15-.39c-.25.48-.3.61-.47.71,0-.06.09-.32.09-.21,0-.24-.2.35-.23.11L6,19c-.08-.07-.12.07-.27.35s-.14-.16,0-.52c-.09.21-.24.48-.26.36a1.05,1.05,0,0,1,.11-.25c-.06-.32-.39.38-.36-.05a1.45,1.45,0,0,0,.07-.24c.12.06.21.11.19.14a3.84,3.84,0,0,1,.3-.94c-.17.25-.52.79-.55.59a1.3,1.3,0,0,0,0-.13l0,0s0,0-.08,0,0-.12,0-.14c.1-.3,0-.2-.1-.23-.14.4-.18.31-.23.66,0,0,0-.05.06-.05l0,0,0,0,.13,0c-.11.18-.21.34-.18.1l-.3.62c.13-.58.11-.93.21-1.28-.23.18-.4,0-.76.73-.08.08,0-.24.05-.37s.08,0,.13-.14c-.15.14-.28,0-.49.5,0-.26.24-.48,0-.41l.08-.16c0-.42-.27-.07-.5.18s-.44.44-.46,0a.39.39,0,0,1,0,.15c-.14-.21-.38-.13-.6-.12a.52.52,0,0,1-.56-.2c-.09-.08-.16.07-.26.17l0-.19-.19.19c-.2.07-.15-.4-.45-.2v.08c-.07,0-.25,0-.21-.07s-.05.06-.07,0v0l-.2,0c-.14,0,.06-.11-.16-.1a1.53,1.53,0,0,1-.21,0s.07,0,.07,0l-.06,0s0-.06.07.1l.1.08,0,.06-.08-.09c0,.07.07.09.11.1a.24.24,0,0,0,0,.08.25.25,0,0,0,.12,0s-.06,0,0,.12,0-.13.08-.1,0,.14.07.14,0,.05,0,0,.12.13.18.06c0,.15.17.12.09.31,0,0,.14-.08.19,0-.18.19.16.16,0,.46.16-.21.25.11.42,0,0,0-.05.06-.05,0a.75.75,0,0,1,0,.31c.11-.29.23-.27.36-.44,0,.38-.19.35-.27.66.09-.26.22-.13.28-.39a1.43,1.43,0,0,1-.07.46c.18-.43.08,0,.23-.26,0,.31-.14.47,0,.41A.37.37,0,0,1,1.72,20.5Zm2.68.38H4.34Zm.22.07-.09-.05c0-.14.1-.28.12-.26A.61.61,0,0,0,4.62,21ZM5.15,18c0-.05,0,0,0,.12l-.08,0,0,0A1.72,1.72,0,0,1,5.15,18Z"/><path class="cls-1" d="M4.9,18.54l0,0a.38.38,0,0,0,0,.1l0-.12Z"/><path class="cls-1" d="M23.85,24.73h0v0Z"/><polygon class="cls-1" points="7.27 22.71 7.3 22.61 7.25 22.69 7.27 22.71"/><path class="cls-1" d="M24.74,26.31a.14.14,0,0,0,0,.09Z"/><path class="cls-1" d="M25.26,26.38l.06.11A.27.27,0,0,0,25.26,26.38Z"/><path class="cls-1" d="M25.65,26.51l0-.11h0Z"/><path class="cls-1" d="M19.15,25.89h0C19.07,26,19.1,26,19.15,25.89Z"/><path class="cls-1" d="M21.26,25.4l-.11.18S21.2,25.64,21.26,25.4Z"/><polygon class="cls-1" points="16.93 25.83 16.93 25.82 16.92 25.82 16.93 25.83"/><path class="cls-1" d="M21.06,25.55c0,.09.05.08.09,0S21.11,25.5,21.06,25.55Z"/><polygon class="cls-1" points="27.48 26.38 27.5 26.38 27.5 26.37 27.48 26.38"/><path class="cls-1" d="M27.5,26.37h0Z"/><path class="cls-1" d="M27.58,26.34l0,0Z"/><path class="cls-1" d="M26.92,26.41v.05A.2.2,0,0,0,26.92,26.41Z"/><path class="cls-1" d="M26.75,26.44s.08.1.14.06l0,0C26.86,26.54,26.81,26.35,26.75,26.44Z"/><path class="cls-1" d="M26.25,25.52l.12.11c0-.09,0-.21.05-.2C26.31,25.1,26.41,25.62,26.25,25.52Z"/><path class="cls-1" d="M25.89,25.2c.08,0,0-.15.05-.21A.17.17,0,0,0,25.89,25.2Z"/><path class="cls-1" d="M23,24.18l.09-.37C23,23.85,23.07,24,23,24.18Z"/><polygon class="cls-1" points="21.97 25.98 21.97 26.22 22.08 25.88 21.97 25.98"/><polygon class="cls-1" points="22.29 23.24 22.32 23.19 22.2 23.3 22.29 23.24"/><path class="cls-1" d="M17.33,22.1l-.11.46C17.28,22.48,17.43,22,17.33,22.1Z"/><path class="cls-1" d="M15.08,22c.05-.23,0-.39-.07-.18C15.05,21.83,15,22,15.08,22Z"/><polygon class="cls-1" points="9.01 19.29 9.1 19.16 8.98 19.26 9.01 19.29"/><path class="cls-1" d="M95.19,21.27l0,0,0,0Z"/><path class="cls-1" d="M95,21.32s-.07.1,0,.14,0-.06.06-.12.06,0,0,0,0,0,.06,0a.3.3,0,0,0-.14.05S95,21.33,95,21.32Z"/><path class="cls-1" d="M91.71,21.3l0,.05A.11.11,0,0,0,91.71,21.3Z"/><path class="cls-1" d="M89.72,21.46a.2.2,0,0,0,0-.11A.2.2,0,0,0,89.72,21.46Z"/><path class="cls-1" d="M89.27,21l0,0S89.27,21,89.27,21Z"/><path class="cls-1" d="M91.71,21.3l-.08-.14C91.66,21.32,91.68,21.27,91.71,21.3Z"/><path class="cls-1" d="M94.61,21.74s0,0,0,0l0,0Z"/><path class="cls-1" d="M92.5,20.82h0l0-.17Z"/><path class="cls-1" d="M93.2,20.87a2.26,2.26,0,0,0,0,.4.58.58,0,0,1,0-.2A1.43,1.43,0,0,1,93.2,20.87Z"/><path class="cls-1" d="M94.37,21.3l0,0Z"/><path class="cls-1" d="M92,20.71c0-.06,0-.12,0-.15Z"/><path class="cls-1" d="M74.06,26.3v0S74.05,26.3,74.06,26.3Z"/><polygon class="cls-1" points="73.19 25.81 73.2 25.8 73.2 25.8 73.19 25.81"/><path class="cls-1" d="M88.55,20.6h0C88.56,20.56,88.56,20.57,88.55,20.6Z"/><path class="cls-1" d="M83.1,22.13c.14.35,0,.49.18.88A3.53,3.53,0,0,0,83.1,22.13Z"/><path class="cls-1" d="M94.6,21.74l0,0Z"/><path class="cls-1" d="M83.28,23h0v0Z"/><path class="cls-1" d="M87.22,21.16a1.67,1.67,0,0,1,0,.18A1,1,0,0,0,87.22,21.16Z"/><path class="cls-1" d="M88.38,21.51l0-.05Z"/><path class="cls-1" d="M86.81,21.86s0-.09,0,0,0,0,0,.05S86.78,21.8,86.81,21.86Z"/><path class="cls-1" d="M86.26,22l0,.08,0,0Z"/><path class="cls-1" d="M76,27l-.09-.35C75.92,26.91,75.84,27,76,27Z"/><path class="cls-1" d="M94.6,21.68v0S94.61,21.68,94.6,21.68Z"/><path class="cls-1" d="M87.51,25.11l-.1,0S87.48,25.12,87.51,25.11Z"/><path class="cls-1" d="M80,26.31v.05S80.05,26.35,80,26.31Z"/><path class="cls-1" d="M87.16,25.19a1.74,1.74,0,0,0-.11-.27s0,.06,0,.1Z"/><path class="cls-1" d="M75.86,26.64Z"/><path class="cls-1" d="M75.34,27.15c.1.06,0-.36,0-.57s.1.31.18.53c0-.06,0-.44.09-.4a.9.9,0,0,1,0,.19c0-.33.22.07.22-.39l0,.13c-.06-.25-.1-.5-.13-.68,0,0,0-.32.09,0,0,0,0,.13,0,.23l0-.14c.12.48,0,.16,0,.5.06-.12.08-.53.17-.38.1.5-.12.14,0,.59L76,26.56c.21.77-.07-.07.14.75.17.2.12-.17.27,0,0-.28-.08-.42-.1-.7.08-.53.37,1.26.37.53,0-.35-.14-1,0-.68l.07.58c.13,0-.08-.83.11-.47,0,.22-.06.2,0,.27.17.43,0-.34.06-.35L77,27c.11-.1.18-.49.31-.6a1.7,1.7,0,0,0,.08.45c.13-.28.39,0,.62.26l0-.45a.7.7,0,0,1,.07.28c.09.15,0-.27,0-.45s.1.24.1.37c0-.39.18-.85.39-.41v.13c.13.16-.06-.9.11-.52v.08c.25.15.4-.29.69.33-.1-.63.26.23.1-.64a3,3,0,0,0,.43.83s-.05-.56,0-.66l.09.45,0-.49.15.54,0-.13a1,1,0,0,1-.11-.33c0-.22.26.28.31.51l.12-.42a1.59,1.59,0,0,1,0,.37c0-.48.11.48.12,0a2.46,2.46,0,0,1-.06-.36c.1.27.21.25.26.11l0,.32c.16.05.27-.21.43-.24a1.68,1.68,0,0,1-.15-.74l.12.48c0-.31-.09-.17-.1-.55a1.82,1.82,0,0,1,.15.7l0-.18c0,.14,0,.22.06.4,0-.3.23.46.16-.07l0,.14c.16,0,.19-.21.32-.26a2.75,2.75,0,0,1,0-.67c.12.11.3.41.41.35a2.64,2.64,0,0,0-.07-.6c.08.37.19.31.19.59.12-.09.16-.11.27-.45a1.9,1.9,0,0,1-.11-.34c0-.07.11.14.14.32v0c.08-.6.69,1,.68.18v0l.08-.45c.09.05,0,.29.12.52,0-.67.29,0,.34-.42.36,1.08.38-.16.68.51l-.06-.26c0-.26.08.14.12.19,0-.2-.1-.22-.1-.37.26-.38.75.23,1.14.4.14,0-.23-1.37.06-.78l.07.49c.12-.63.5-.09.64-.63,0,.11,0,.26,0,.26.13.34.2,0,.13-.31,0,0,.07.26.13.4s0-.48.13-.14a.41.41,0,0,1,0,.15c0-.18.16,0,0-.39.13.17.13-.22.26,0-.06-.47.2.18.07-.46.14.66.28.49.27.17,0,.2.09.2.13.48.07,0,.1-.16,0-.5.3.77.1-.69.39.31a2.89,2.89,0,0,1,.38-.87c.14.66-.17.1,0,.8.1-.31.07-.9.27-.78s0,.29,0,.41c.11-.31.33,0,.4-.4a1.15,1.15,0,0,1,0,.18s.09.09,0-.21v.08A5.86,5.86,0,0,1,88.89,23c.15.87.2.18.36,1.28a1.2,1.2,0,0,0,0-.4.79.79,0,0,1,.1.4c.07-.19,0-.5,0-.51,0,.14,0,.2.06.38,0-.3,0-.59.07-.49s0,.2,0,.21.06-.81.27-.57c.1.64.1.2.23.74l0-.18L90,23.57c.07,0,.05-.41.15-.25v.24l.11-.13-.12-.2c0-.29-.16-.69,0-.55s.07,0,.18.3h0c0-.18,0-.37.07-.25s.13.61.16.73c-.07-.47.14-.17.07-.66,0,.11.08.4.09.46l0-.38a1.05,1.05,0,0,1,.12.4c.12,0-.18-.69,0-.41a.53.53,0,0,1,0,.14c.15.13.17-.28.32-.12.15.54-.06.15.07.61.14-.14.18-.73.36-.64l0-.05c-.15-.78.19.36.19,0,0,.06.07.43,0,.35.13.1.17-.24.27-.52l0,.2c.1.17.18.07.26.15a1.53,1.53,0,0,0-.06-.47c.45,1.13.26-.66.62.17,0,0,0,.2,0,.19l.1-.26a1.82,1.82,0,0,0-.14-.4c0-.2,0-.35,0-.36a1.55,1.55,0,0,0,.17.64l-.06-.29c.19.49-.11-.59.07-.27l0,.15c0-.09,0-.29.08-.26.08.3,0,.16,0,.42.05-.05,0-.62.11-.34,0,.09,0,.1,0,.2.13.33.12.23.17.26h0l.13.09,0-.07c-.08-.75.12-.21.13-.68,0,.43,0,.24.09.52a.47.47,0,0,1,.1.2c0-.24.11.11.11-.23,0,.08,0,0,.08.18,0-.11,0-.13-.06-.23,0-.3.27.15.34-.24.09-.18.07-.37.17-.47a.21.21,0,0,1,0,.18c.08,0,.12,0,.17-.06a.1.1,0,0,0,0,.1s0-.15.07-.12,0,.11,0,.17a.69.69,0,0,1,.13-.21s0,.08,0,.13.15-.15.15-.2h0s0,.05,0,.07-.08,0-.09,0l0,0c-.08-.14-.16.07-.23.11v-.17l-.06.16s-.06-.14,0-.17,0,.07-.12,0v0l-.05.07c0-.05,0-.15,0-.12-.14-.13-.14.18-.22,0v0c-.13.1,0,.18,0,.43l-.18-.49,0,.21s-.05,0-.06-.11c0,.16,0,.1,0,.24-.12-.2-.18.15-.28-.25,0,.2.1.14.06.28-.12-.44-.08.09-.19-.11s.06-.11,0-.33c0,.42-.15-.1-.19,0,.07.37-.1.15-.16.29,0-.14-.23-.22-.36-.4v-.07c.08.45,0,.36-.08.47a1.77,1.77,0,0,1-.06-.53h-.06a.56.56,0,0,1,0,.29l-.06-.37c-.08,0-.08.43-.24.16a5.13,5.13,0,0,1,.25,1.32,4.76,4.76,0,0,1-.11-.64s0,.17,0,.09l0-.36c-.08-.14,0,.3,0,.27-.06-.3-.07-.2-.12-.44,0,0,.06.12,0,0a1.27,1.27,0,0,1-.21-.43,1.57,1.57,0,0,1,.07.44c-.08.05-.1-.34-.18-.48,0,.21-.07,0,0,.46a1.77,1.77,0,0,1-.11-.32c0,.2-.18.1,0,.55l0,0v0h0c0,.46-.33-.18-.43,0l0-.14c0,.18-.15.13-.14.46a1.16,1.16,0,0,1-.15-.43c0,.12,0,.29-.15.07,0-.27-.07-.22,0-.2-.11-.11-.18-.34-.18.08,0-.38-.16-.46-.17-.34l.11.26c0,.06-.07,0-.12,0l-.09-.49c-.29-.56-.07,1.07-.41.11,0,.35.14.22.19.63-.09-.05-.32-.74-.35-.73-.16-.25.06.73-.08.57a2.49,2.49,0,0,1,.12.81,2.13,2.13,0,0,1-.24-.86s0,0,0,.1a.49.49,0,0,0,0-.33l0,.17c-.07-.17-.17-.13-.21-.42a.52.52,0,0,0,.1.38c-.15-.24-.15,0-.29-.13a.93.93,0,0,1,.08.3c-.19-.18,0,.34-.07.44-.12-.25-.12-.64-.17-.39a1.38,1.38,0,0,1-.12-.61c0,.36-.22-.18-.29-.23l0-.15c0,.09,0,.09-.06.1l.11.34a.28.28,0,0,1-.1-.2c0,.24.15.58.16.9-.08-.17-.07.21-.19-.24.16.13-.11-.46,0-.56,0,.06,0,.06-.07,0a.34.34,0,0,1,0-.13c-.2-.39.07.53,0,.55,0-.26-.14-.49-.14-.43a2,2,0,0,1,.12.64c-.12-.19,0,.17-.1.15l.07.09c0,.26,0,.24,0,.33,0-.2,0-.15,0-.24,0,.47-.23-.44-.25-.11-.07-.17-.11-.49-.17-.6,0,.35-.17-.34-.21,0a1.31,1.31,0,0,1,.1.61l.1-.28,0,.53s0-.24.09-.18a1.21,1.21,0,0,0,.09.49c-.18-.51-.06.33-.21,0l-.19-.86c-.2-.36-.1.49-.3.3l.08.14c.06.35-.08.07-.09.22a3.08,3.08,0,0,0-.18-.56c.06.21-.11,0,0,.58l-.15-.37c-.15-.13.05.86-.08.78a3.31,3.31,0,0,1-.11-.75s-.09,0,0,.16c-.06-.18,0,.41-.11.14,0,.13.07.44,0,.42a.7.7,0,0,1,0-.14,1.75,1.75,0,0,0,.09.52c-.32-.88-.31.14-.59-.61-.06.11-.13.23-.2.26s0-.14,0-.11c-.17-.25.12.84-.07.57-.16-.46,0-.27-.07-.44-.22-1-.11.16-.31-.38v-.06c-.14-.31-.07.4-.18.35s0-.08,0-.14a1.54,1.54,0,0,1-.11.84,2.27,2.27,0,0,0-.1-.58c0,.06.14.6.08.73a5.42,5.42,0,0,1-.27-.76l.08,0c-.16-.52-.1,0-.16,0L84.88,22c-.1.1,0,.67-.12.66l0,.17c.06.59-.13-.31-.11.13l-.15-.57a3.38,3.38,0,0,1-.1.72,5.72,5.72,0,0,1,0-.95s-.15.08-.11.37c0-.06,0-.21,0-.12,0,.47,0,.71-.08.72-.23-1.13-.31-.23-.57-1.09-.07.45-.36-.1-.54,0,.26.86,0,0,.15.93,0,.07,0,.06-.06,0l-.26-.5c-.08-.26,0-.21,0-.41s-.13-.37-.24-.59c.08.31.06.46,0,.35l.17.4c0,.51-.28-.73-.32-.23l0-.29c0,.18-.26.05-.17.79a1.14,1.14,0,0,1-.09-.42c-.19-.07-.21.85-.44.44l0-.23c0,.07,0,.43-.06.21a.66.66,0,0,0,0-.23c0,.08,0,.41-.07.29l0-.26c-.22-.25-.12.66-.23.84a1.56,1.56,0,0,0-.4-.92v-.09c-.21,0-.22.6-.34.89-.26-.68-.44-.22-.69-.57a2.05,2.05,0,0,1,.08.57c-.07-.12,0,.48-.14-.12h0c-.16-.58-.21-.4-.28-.41l.15.78c-.41-1.09-.38.51-.68-.48,0,.2,0,.21,0,.41L79,22.82c-.13-.08-.2-.12-.33,0l0-.31c-.08,0,.14,1.23.07,1.27l-.15-.62c-.14,0-.39-.48-.42.11a1.24,1.24,0,0,1,0-.3c-.07,0-.34-.37-.15.48-.11-.56-.15,0-.18.23l-.07-.41a2.35,2.35,0,0,1,0,.84c0-.05-.08-.32,0-.22-.11-.21,0,.4-.11.19v-.27c-.08,0,0,.13,0,.44s-.16-.08-.25-.45c0,.23.05.54,0,.44a1.12,1.12,0,0,1,0-.27c-.18-.25-.1.51-.26.13a.87.87,0,0,0-.06-.25c.1,0,.19,0,.18,0a4.49,4.49,0,0,1-.19-1c0,.3,0,.94-.12.77a.86.86,0,0,1,0-.13v0s0,0,0,.07-.06-.1-.08-.1c-.07-.31-.12-.15-.17-.16a3.86,3.86,0,0,0,.13.69.08.08,0,0,1,0-.08s0,0,0,0v0a.19.19,0,0,1,.09-.05c0,.22,0,.4-.08.18,0,.27.06.55.07.68-.16-.57-.32-.87-.4-1.22a1.28,1.28,0,0,0-.2,1c0,.1-.08-.23-.11-.35s0-.07,0-.19c0,.2-.19.11-.11.67-.13-.21,0-.53-.14-.39V24.1c-.19-.37-.21.06-.25.39s-.11.59-.31.21a.31.31,0,0,1,.06.14c-.18-.13-.3.05-.44.16s-.28.2-.45.08-.07.14-.1.28l0-.19,0,.25c-.1.16-.27-.28-.37,0l0,.07c-.06,0-.17.11-.17,0s0,.07,0,.05v0a.68.68,0,0,1-.12.12c-.11,0,0-.12-.15,0s-.15.13-.13.12l.06,0,0,0s-.06,0,.09.05l.1,0,0,0-.09,0c0,.05.08.05.11,0l0,.06a.12.12,0,0,0,.08,0s0,.06,0,.12-.06-.12,0-.13.06.12.1.09,0,.06,0,.06.13.06.14,0c.07.13.16,0,.19.23,0,0,.06-.14.11-.14,0,.26.17.08.2.4,0-.26.21,0,.29-.17,0,0,0,.08,0,.06a.82.82,0,0,1,.16.26c-.05-.31,0-.35,0-.55.13.35,0,.38.1.7,0-.27.09-.22,0-.47a1.85,1.85,0,0,1,.15.44c-.07-.47,0-.06,0-.34.12.27.1.48.17.36A.49.49,0,0,1,75.34,27.15Zm1.91-.9h0l0,0Zm.17,0a.11.11,0,0,0-.08,0c0-.15,0-.29,0-.29A.81.81,0,0,0,77.42,26.21Zm-.89-2.81c0-.06,0,0,.06.1a.15.15,0,0,0,0,.06v.05Q76.54,23.49,76.53,23.4Z"/><path class="cls-1" d="M76.58,24v0l0,.09V24Z"/><path class="cls-1" d="M91.75,21.36h0l0,.06Z"/><polygon class="cls-1" points="79.89 26.55 79.87 26.44 79.88 26.54 79.89 26.55"/><path class="cls-1" d="M93,22.48l0,.08Z"/><path class="cls-1" d="M93.33,22.35l.08.08A.28.28,0,0,0,93.33,22.35Z"/><path class="cls-1" d="M93.64,22.32s0-.08,0-.11h0Z"/><path class="cls-1" d="M89,24.26a0,0,0,0,0,0,0C89,24.37,89,24.33,89,24.26Z"/><path class="cls-1" d="M90.24,23v.21S90.29,23.22,90.24,23Z"/><polygon class="cls-1" points="87.53 25.12 87.52 25.11 87.51 25.11 87.53 25.12"/><path class="cls-1" d="M90.17,23.2c0,.07.06.05.07,0S90.18,23.13,90.17,23.2Z"/><polygon class="cls-1" points="94.86 21.55 94.87 21.54 94.87 21.53 94.86 21.55"/><path class="cls-1" d="M94.87,21.53v0S94.87,21.52,94.87,21.53Z"/><path class="cls-1" d="M94.91,21.47l0,0S94.91,21.49,94.91,21.47Z"/><path class="cls-1" d="M94.49,21.78v0Z"/><path class="cls-1" d="M94.38,21.87s.09.06.11,0v0C94.49,21.92,94.38,21.77,94.38,21.87Z"/><path class="cls-1" d="M93.7,21.19l.12.06c0-.08-.08-.19,0-.2C93.59,20.78,93.85,21.23,93.7,21.19Z"/><path class="cls-1" d="M93.33,21s0-.15,0-.21A.21.21,0,0,0,93.33,21Z"/><path class="cls-1" d="M91,21.19l-.08-.38C90.85,20.88,90.91,21,91,21.19Z"/><polygon class="cls-1" points="90.95 23.22 91.04 23.45 90.98 23.1 90.95 23.22"/><polygon class="cls-1" points="90.1 20.61 90.11 20.55 90.06 20.7 90.1 20.61"/><path class="cls-1" d="M86.27,21.6l.12.46C86.4,22,86.29,21.45,86.27,21.6Z"/><path class="cls-1" d="M84.72,22.44c-.07-.23-.15-.37-.13-.13C84.64,22.33,84.71,22.5,84.72,22.44Z"/><polygon class="cls-1" points="79.59 22.75 79.59 22.58 79.55 22.73 79.59 22.75"/><path class="cls-1" d="M61,26.42s0,0,0,0l0,0Z"/><path class="cls-1" d="M60.77,26.42s-.08.09-.06.13,0-.05.08-.11.06,0,.05,0l.06,0a.25.25,0,0,0-.14,0S60.76,26.43,60.77,26.42Z"/><path class="cls-1" d="M57.86,25.72l0,.06A.08.08,0,0,0,57.86,25.72Z"/><path class="cls-1" d="M56.07,25.45a.54.54,0,0,0,0-.11A.15.15,0,0,0,56.07,25.45Z"/><path class="cls-1" d="M55.76,24.9l0,0C55.77,24.89,55.76,24.86,55.76,24.9Z"/><path class="cls-1" d="M57.86,25.72l0-.15C57.81,25.73,57.84,25.69,57.86,25.72Z"/><path class="cls-1" d="M60.37,26.76l0-.05,0,0Z"/><path class="cls-1" d="M58.66,25.42h0c0-.05,0-.11,0-.18Z"/><path class="cls-1" d="M59.27,25.62a2.29,2.29,0,0,0,0,.39.78.78,0,0,1,0-.19Z"/><path class="cls-1" d="M60.23,26.28l0,0Z"/><path class="cls-1" d="M58.22,25.2v0Z"/><path class="cls-1" d="M41.2,27v0Z"/><polygon class="cls-1" points="40.5 26.42 40.51 26.42 40.51 26.41 40.5 26.42"/><path class="cls-1" d="M55.2,24.36h0C55.21,24.32,55.21,24.33,55.2,24.36Z"/><path class="cls-1" d="M50,24.67c.06.38-.1.49,0,.91A4.53,4.53,0,0,0,50,24.67Z"/><path class="cls-1" d="M60.35,26.75h0Z"/><path class="cls-1" d="M50,25.58h0v0Z"/><path class="cls-1" d="M53.9,24.62v.18A1.36,1.36,0,0,0,53.9,24.62Z"/><path class="cls-1" d="M54.87,25.22l0-.06A.1.1,0,0,0,54.87,25.22Z"/><path class="cls-1" d="M53.4,25.21s0-.09,0,0v.05C53.38,25.17,53.39,25.14,53.4,25.21Z"/><path class="cls-1" d="M52.88,25.21v.09l0,0Z"/><path class="cls-1" d="M42.79,28l0-.36C42.77,28,42.7,28,42.79,28Z"/><path class="cls-1" d="M60.37,26.69s0,0,0,.06l0,0Z"/><path class="cls-1" d="M53.38,28.54l-.08-.07C53.32,28.52,53.35,28.54,53.38,28.54Z"/><path class="cls-1" d="M46.53,28.13l0,.05S46.52,28.18,46.53,28.13Z"/><path class="cls-1" d="M53.05,28.54a1,1,0,0,0,0-.29.38.38,0,0,1,0,.1Z"/><path class="cls-1" d="M42.76,27.68Z"/><path class="cls-1" d="M42.22,28.09c.08.08,0-.36.05-.57.1-.06,0,.32.08.56.06-.06.1-.43.14-.39a.66.66,0,0,1,0,.2c.06-.32.18.11.25-.34v.13c0-.26,0-.51,0-.69,0,0,.07-.31.08,0,0,0,0,.12,0,.22l0-.14c0,.5,0,.15,0,.5.08-.11.16-.5.22-.34,0,.51-.13.11-.06.59l-.09-.23c.07.79-.05-.09,0,.76.12.22.13-.15.24.05,0-.28,0-.43,0-.72.16-.5.12,1.31.24.6,0-.35,0-1,.13-.66l0,.57c.11.06.06-.83.18-.44,0,.23-.09.19-.07.26.07.46,0-.33.11-.33v.51c.11-.08.24-.45.37-.54a1.85,1.85,0,0,0,0,.47c.16-.26.35.06.51.36l0-.44a.77.77,0,0,1,0,.29c.06.16,0-.28,0-.45s0,.25,0,.38c.11-.37.31-.8.42-.33l0,.13c.09.18.1-.9.18-.49v.08c.19.19.4-.22.55.45,0-.64.19.28.2-.6a3.93,3.93,0,0,0,.23.89s.06-.56.11-.65v.46l.07-.48,0,.55,0-.12a1.08,1.08,0,0,1,0-.34c.08-.21.18.33.18.56l.18-.39a1.14,1.14,0,0,1-.06.37c.1-.47,0,.49.11.05a2.14,2.14,0,0,1,0-.36c0,.27.14.28.21.16v.32c.13.08.27-.15.42-.15a2.08,2.08,0,0,1,0-.75l0,.49c0-.31-.05-.19,0-.56a1.89,1.89,0,0,1,0,.72l.06-.17c0,.14,0,.22,0,.41,0-.31.11.49.15,0v.14c.14,0,.21-.16.33-.18a3.72,3.72,0,0,1,.08-.67c.09.13.19.46.3.43a2.9,2.9,0,0,0,.05-.61c0,.38.11.35.06.62.12-.06.16-.07.32-.39a1.46,1.46,0,0,1,0-.35c0-.07.07.16.07.34v0c.18-.57.41,1.12.56.32v0l.15-.42c.07.07,0,.29,0,.53.16-.64.25.09.39-.33.1,1.13.36-.08.5.64v-.27c0-.26,0,.16.07.22a3,3,0,0,1,0-.39c.31-.32.63.39.94.63.11.08.06-1.38.21-.74l0,.5c.22-.6.46,0,.69-.49,0,.12,0,.26,0,.26.05.36.18,0,.18-.27a2.87,2.87,0,0,1,0,.41c.05.21.12-.46.14-.1a.26.26,0,0,1,0,.14c0-.17.15.05.12-.37.08.2.16-.18.22.07,0-.47.15.22.16-.44,0,.68.15.55.2.23,0,.21,0,.21,0,.5.06,0,.12-.14.1-.49.12.81.23-.65.29.39a2.82,2.82,0,0,1,.51-.77c0,.68-.18.07-.17.78.15-.28.24-.86.4-.7s0,.29,0,.41c.15-.28.3.06.43-.31a1.11,1.11,0,0,1,0,.19s.06.1.06-.21l0,.08A7.75,7.75,0,0,1,55,26.74c0,.88.14.22.06,1.34a1.53,1.53,0,0,0,0-.41,1,1,0,0,1,0,.41c.09-.16.06-.49.15-.48s0,.2,0,.38c.05-.29.09-.58.16-.46s0,.21,0,.21.21-.78.35-.5c0,.65.05.22.06.78l.07-.17,0-.27c.07,0,.13-.4.18-.22l0,.23.13-.1-.07-.21c.06-.29,0-.71.08-.56s.06,0,.1.34h0c0-.18.06-.36.11-.23s0,.62,0,.74c0-.47.15-.13.19-.63,0,.12,0,.42,0,.48l0-.39a1.23,1.23,0,0,1,0,.42c.09.07,0-.71.08-.4a1.15,1.15,0,0,1,0,.14c.11.16.21-.24.31-.05,0,.56-.09.13-.05.61.14-.1.29-.68.43-.54l0-.06c0-.8.1.39.17,0a2.46,2.46,0,0,0,0,.36c.09.12.19-.2.34-.45l0,.2c.06.19.15.11.21.2A1.53,1.53,0,0,0,58,27c.19,1.19.36-.6.53.29a.45.45,0,0,0,0,.18l.15-.23a3.23,3.23,0,0,0-.05-.42c0-.19.06-.34.09-.34a1.59,1.59,0,0,0,0,.66v-.29c.08.51,0-.61.12-.26v.15c0-.08.07-.28.11-.24,0,.32,0,.15,0,.42.06,0,.11-.61.17-.31,0,.09-.06.1-.09.19.06.35.07.25.11.29h0l.1.11,0-.08c.07-.75.14-.18.24-.63-.09.42,0,.24,0,.52a.56.56,0,0,1,.05.23c0-.24.07.12.14-.21,0,.08,0,0,0,.19.06-.09,0-.13,0-.24.09-.27.21.21.35-.16.11-.16.13-.34.24-.42a.26.26,0,0,1,0,.18c.06.06.1,0,.15,0a.15.15,0,0,0,0,.11s0-.15.09-.11a1.42,1.42,0,0,1,0,.16.93.93,0,0,1,.16-.18s0,.08,0,.13.15-.12.17-.17l0,0s0,.05,0,.07-.08,0-.08,0l0,0c0-.15-.15,0-.23.06l0-.16-.08.14s0-.15,0-.17,0,.06-.09-.05,0,0,0,0l0,0s0-.15,0-.11c-.1-.16-.15.14-.19,0v0c-.13.06,0,.18-.11.41l-.07-.51v.21s0,0,0-.12c0,.15,0,.1,0,.24-.07-.22-.18.1-.2-.31,0,.2.07.16,0,.29,0-.45-.09.08-.15-.14s.08-.1,0-.34c0,.42-.12-.13-.17-.07,0,.37-.11.13-.19.25,0-.14-.16-.27-.24-.46v-.08c0,.46-.1.35-.16.44a1.82,1.82,0,0,1,0-.52l-.06,0a.5.5,0,0,1-.07.28l0-.38c-.08,0-.15.41-.25.11a5.86,5.86,0,0,1,0,1.34,3.28,3.28,0,0,1,0-.66s0,.18,0,.09l0-.36c0-.16,0,.3-.06.26,0-.3,0-.21,0-.45,0,0,0,.12,0,0a1.32,1.32,0,0,1-.1-.47,1.69,1.69,0,0,1,0,.45c-.07,0,0-.36-.07-.51,0,.22-.06,0-.06.45,0,0,0-.21,0-.33,0,.2-.18.06-.13.53v.05h0c-.13.44-.26-.25-.39-.06v-.15c-.07.17-.16.1-.22.42a1.37,1.37,0,0,1,0-.45c-.06.11-.06.28-.15,0s0-.23.06-.19c-.07-.13-.09-.37-.17,0,0-.38,0-.48-.09-.37l0,.27c0,.06-.07,0-.11,0l0-.5c-.15-.6-.27,1-.39,0,0,.35.08.25,0,.65-.07-.06-.14-.78-.17-.78-.09-.28-.09.73-.19.54a2.26,2.26,0,0,1,0,.82,2.35,2.35,0,0,1,0-.89s0,0,0,.1a.59.59,0,0,0,0-.33v.18c0-.18-.13-.17-.11-.46a.55.55,0,0,0,0,.39c-.09-.26-.14,0-.23-.18a1.06,1.06,0,0,1,0,.3c-.14-.22-.06.34-.15.42,0-.27,0-.65-.08-.42a1.58,1.58,0,0,1,0-.62c-.09.34-.16-.23-.21-.29l0-.14c0,.08,0,.08-.07.08l0,.35a.3.3,0,0,1,0-.21c0,.24,0,.6,0,.91,0-.18-.11.2-.12-.27.11.16,0-.48.08-.55s0,.05-.06,0a.25.25,0,0,1,0-.13c-.11-.42-.05.54-.16.53,0-.27,0-.51,0-.45a1.77,1.77,0,0,1,0,.64c-.07-.2-.08.16-.11.14l0,.09c0,.27,0,.23-.1.32,0-.21,0-.15,0-.24-.06.47-.12-.48-.2-.17,0-.18,0-.5,0-.62-.09.35-.09-.36-.18-.08a1.61,1.61,0,0,1,0,.62l.14-.25-.09.52s.09-.22.12-.16a1.2,1.2,0,0,0,0,.5c-.06-.54-.12.31-.19-.05v-.89c-.1-.39-.18.46-.32.23l0,.16c0,.35-.08.05-.12.19a3.81,3.81,0,0,0-.05-.59c0,.22-.09,0-.11.57L53.74,25c-.11-.16-.12.84-.23.74a5.21,5.21,0,0,1,.06-.76s-.07-.06-.07.15c0-.19-.1.4-.13.12,0,.13,0,.44-.06.41V25.5a2.1,2.1,0,0,0,0,.52c-.1-.92-.3.07-.39-.72a.63.63,0,0,1-.24.21c0-.08,0-.14,0-.11-.09-.28,0,.85-.16.54-.06-.48,0-.26,0-.44,0-1-.13.13-.21-.44l0,0c0-.33-.13.37-.23.3v-.15a1.54,1.54,0,0,1-.27.8,2.88,2.88,0,0,0,0-.59c0,.05,0,.62-.07.73a6.45,6.45,0,0,1-.09-.81l.08,0c0-.53-.1,0-.14-.07V25c-.11.08-.11.67-.23.63v.17c-.07.59-.06-.32-.12.11l0-.59A4.53,4.53,0,0,1,51,26a6,6,0,0,1,.2-.92c-.05,0-.15,0-.17.33,0-.05,0-.2,0-.11q-.07.7-.21.69c0-1.15-.23-.29-.29-1.18-.15.42-.31-.19-.49-.12.07.9-.05,0,0,.94,0,.06-.06.05-.06,0L49.9,25c0-.27,0-.2,0-.41s0-.39-.1-.63c0,.33,0,.47-.08.34l.07.43c-.13.49-.11-.77-.24-.29l0-.29c-.07.17-.24,0-.31.73a1.47,1.47,0,0,1,0-.42c-.16-.11-.35.78-.47.33V24.6c0,.06,0,.42-.09.19a1.65,1.65,0,0,0,0-.23c0,.07-.08.39-.12.26l0-.25c-.15-.3-.23.61-.36.76a1.8,1.8,0,0,0-.18-1v-.09c-.18-.08-.31.55-.47.81-.11-.72-.36-.3-.52-.71a2.09,2.09,0,0,1,0,.58c0-.13-.1.46-.1-.14h0c0-.6-.11-.44-.18-.45v.79c-.16-1.15-.42.42-.51-.61,0,.2-.09.19-.13.39v-.42c-.11-.11-.16-.16-.3-.06l0-.31c-.08,0-.1,1.23-.17,1.25l0-.63c-.13,0-.27-.55-.4,0a1.1,1.1,0,0,1,0-.3c-.06,0-.24-.43-.22.44,0-.57-.14-.06-.21.19V24.7c-.06.54-.06.68-.15.83,0-.05,0-.33,0-.23-.07-.22-.05.4-.13.18l0-.27c-.07,0-.06.11-.1.42s-.13-.1-.14-.48c0,.23,0,.54-.09.43a1,1,0,0,1,0-.28c-.12-.28-.18.49-.26.08a1.36,1.36,0,0,0,0-.25c.09,0,.17,0,.16.06a6,6,0,0,1,0-1c-.05.29-.16.92-.23.74a.62.62,0,0,0,0-.13v-.05s0,0,0,.06,0-.11-.06-.11c0-.32-.08-.17-.12-.19a5.41,5.41,0,0,0,0,.7.06.06,0,0,1,0-.06s0,0,0-.05v0l.09,0c0,.21-.06.39-.1.16L43.8,26c0-.59-.15-.9-.16-1.27a1.3,1.3,0,0,0-.34.94c0,.1,0-.24,0-.37s0-.06,0-.17c-.06.18-.19.07-.2.64-.08-.24,0-.53-.07-.41l0-.18c-.11-.39-.2,0-.29.35s-.19.56-.31.15a.29.29,0,0,1,0,.14c-.14-.15-.28,0-.42.09a.29.29,0,0,1-.42,0c-.08,0-.09.13-.13.26l0-.19-.08.24c-.12.14-.2-.32-.34,0v.07s-.16.09-.15,0,0,.07,0,.05v-.05a.63.63,0,0,1-.13.11c-.1,0,0-.12-.13,0a.71.71,0,0,1-.13.09s.06,0,.06,0h-.05s0,0,.07.06l.09,0,0,.05-.07-.06c0,.06.07.06.1.06a.11.11,0,0,0,0,.07.11.11,0,0,0,.08,0c0,.05,0,.05,0,.12s0-.12,0-.12,0,.13.07.11,0,.06,0,.06.11.07.14,0c0,.13.14.05.13.25,0,0,.08-.12.12-.12-.07.25.14.1.12.43.05-.25.19,0,.28-.12s0,.07,0,.05a1,1,0,0,1,.1.28,1.77,1.77,0,0,1,.13-.53c.06.37,0,.39,0,.71,0-.28.11-.2.09-.46a2.13,2.13,0,0,1,.07.45c0-.46,0,0,.08-.32.07.29,0,.49.1.38A.5.5,0,0,1,42.22,28.09Zm1.84-.55h0l0,0Zm.16,0h-.07a.92.92,0,0,1,0-.29A1.22,1.22,0,0,0,44.22,27.53Zm-.33-2.92c0-.06,0,0,0,.11l0,.05v.05C43.88,24.74,43.89,24.67,43.89,24.61Z"/><path class="cls-1" d="M43.84,25.17a0,0,0,0,1,0,0s0,.06,0,.09v-.13Z"/><path class="cls-1" d="M57.89,25.79h0v0Z"/><polygon class="cls-1" points="46.35 28.34 46.35 28.23 46.34 28.33 46.35 28.34"/><path class="cls-1" d="M58.74,27.14a.28.28,0,0,0,0,.09S58.74,27.17,58.74,27.14Z"/><path class="cls-1" d="M59.11,27.09l0,.09A.58.58,0,0,0,59.11,27.09Z"/><path class="cls-1" d="M59.39,27.13a.41.41,0,0,1,0-.12h0Z"/><path class="cls-1" d="M54.89,28l0,0C54.85,28.14,54.87,28.1,54.89,28Z"/><path class="cls-1" d="M56.23,27.05a1.93,1.93,0,0,1,0,.2S56.23,27.29,56.23,27.05Z"/><polygon class="cls-1" points="53.39 28.54 53.39 28.54 53.38 28.54 53.39 28.54"/><path class="cls-1" d="M56.12,27.24c0,.09,0,.07.06,0S56.14,27.18,56.12,27.24Z"/><polygon class="cls-1" points="60.62 26.62 60.63 26.61 60.63 26.6 60.62 26.62"/><path class="cls-1" d="M60.63,26.6h0Z"/><path class="cls-1" d="M60.68,26.56l0,0S60.67,26.58,60.68,26.56Z"/><path class="cls-1" d="M60.24,26.77v0Z"/><path class="cls-1" d="M60.13,26.83s.07.08.11,0v0C60.22,26.9,60.16,26.73,60.13,26.83Z"/><path class="cls-1" d="M59.65,26l.1.09c0-.09,0-.21,0-.21C59.63,25.61,59.78,26.1,59.65,26Z"/><path class="cls-1" d="M59.36,25.8s0-.15,0-.21A.22.22,0,0,0,59.36,25.8Z"/><path class="cls-1" d="M57.22,25.45v-.38C57.18,25.13,57.22,25.22,57.22,25.45Z"/><polygon class="cls-1" points="56.81 27.44 56.85 27.68 56.87 27.32 56.81 27.44"/><polygon class="cls-1" points="56.57 24.7 56.58 24.65 56.52 24.79 56.57 24.7"/><path class="cls-1" d="M53,24.84v.47C53,25.23,53,24.7,53,24.84Z"/><path class="cls-1" d="M51.42,25.32c0-.24-.06-.39-.09-.15C51.37,25.2,51.4,25.38,51.42,25.32Z"/><polygon class="cls-1" points="46.77 24.55 46.8 24.39 46.74 24.52 46.77 24.55"/><path class="cls-1" d="M125,9.2s0,0,0,0v0Z"/><path class="cls-1" d="M124.88,9.32a.11.11,0,0,0,0,.13.56.56,0,0,1,0-.13s0,0,0,0,0,0,0-.05-.07,0-.09.09S124.88,9.33,124.88,9.32Z"/><path class="cls-1" d="M122.27,10.28l0,0Z"/><path class="cls-1" d="M120.74,10.93l0-.1A.13.13,0,0,0,120.74,10.93Z"/><path class="cls-1" d="M120.22,10.61l0,0S120.2,10.58,120.22,10.61Z"/><path class="cls-1" d="M122.27,10.28l-.12-.1C122.24,10.31,122.23,10.27,122.27,10.28Z"/><path class="cls-1" d="M124.77,9.81a.13.13,0,0,0,0-.06v.06Z"/><path class="cls-1" d="M122.71,9.63h0a.85.85,0,0,0-.09-.15Z"/><path class="cls-1" d="M123.28,9.48a2.8,2.8,0,0,0,.21.33.43.43,0,0,1-.09-.17Z"/><path class="cls-1" d="M124.39,9.5v0Z"/><path class="cls-1" d="M122.26,9.67l-.09-.12Z"/><path class="cls-1" d="M108.64,17.67v0A0,0,0,0,0,108.64,17.67Z"/><polygon class="cls-1" points="107.85 17.21 107.86 17.21 107.86 17.21 107.85 17.21"/><path class="cls-1" d="M119.51,10.4Z"/><path class="cls-1" d="M115.55,12.78c.2.32.12.48.36.83A4.35,4.35,0,0,0,115.55,12.78Z"/><path class="cls-1" d="M124.75,9.81v0S124.75,9.82,124.75,9.81Z"/><path class="cls-1" d="M115.91,13.61h0l0,0Z"/><path class="cls-1" d="M118.62,11.19l.1.15Z"/><path class="cls-1" d="M119.68,11.29l-.05,0Z"/><path class="cls-1" d="M118.51,11.93s-.06-.07,0,0l0,.05C118.47,11.9,118.47,11.88,118.51,11.93Z"/><path class="cls-1" d="M118.09,12.15l0,.07v0Z"/><path class="cls-1" d="M110.35,18.24c0-.1-.08-.22-.12-.34C110.32,18.17,110.26,18.23,110.35,18.24Z"/><path class="cls-1" d="M124.73,9.75a.1.1,0,0,1,0,.06v0Z"/><path class="cls-1" d="M120.06,14.87H120S120,14.89,120.06,14.87Z"/><path class="cls-1" d="M113.82,17.22v.05S113.83,17.27,113.82,17.22Z"/><path class="cls-1" d="M119.78,15l-.18-.24,0,.1Z"/><path class="cls-1" d="M110.23,17.9Z"/><path class="cls-1" d="M109.84,18.44c.09,0-.06-.36-.1-.57s.12.31.21.52c0-.07,0-.43,0-.4a1,1,0,0,1,.05.18c0-.33.2.06.15-.39l0,.12c-.08-.24-.15-.49-.19-.66,0,0,0-.32.08,0,0,0,0,.12,0,.22v-.14c.17.47,0,.16.09.49,0-.12,0-.52.1-.38.15.49-.09.14.11.58l-.14-.2c.28.75-.07-.07.21.73.17.19.08-.17.24,0,0-.28-.12-.41-.18-.69,0-.53.48,1.22.39.49-.07-.34-.24-1-.07-.66l.14.56c.12,0-.18-.81,0-.47,0,.22,0,.2,0,.26.19.42,0-.32,0-.34l.16.48c.09-.1.1-.49.19-.62a1.81,1.81,0,0,0,.14.45c.07-.29.33,0,.57.2l-.08-.44a.66.66,0,0,1,.1.27c.11.14-.08-.27-.11-.44s.12.23.14.36c0-.39,0-.86.28-.44l0,.13c.14.14-.19-.89,0-.52v.07c.24.13.3-.32.65.26-.18-.61.27.21,0-.63a3.56,3.56,0,0,0,.51.76s-.13-.54-.12-.64l.16.43-.1-.48.22.51v-.13a1,1,0,0,1-.15-.3c0-.22.28.24.36.46l0-.42a1.49,1.49,0,0,1,.07.36c-.08-.47.19.45.12,0,0-.1-.09-.26-.13-.35.14.25.23.21.25.08l.1.3c.15,0,.2-.24.34-.29a1.88,1.88,0,0,1-.27-.7l.19.45c-.09-.29-.11-.16-.19-.52a2,2,0,0,1,.26.66v-.18c.06.14.07.21.14.39-.09-.29.28.41.12-.09l.06.13c.14-.05.13-.23.23-.29a3.49,3.49,0,0,1-.17-.65c.13.09.34.36.42.29a2.94,2.94,0,0,0-.18-.58c.15.35.23.28.29.55.09-.1.11-.13.13-.48a1.91,1.91,0,0,1-.16-.32c0-.07.12.13.19.3v0c-.07-.6.81.87.62.08v0l0-.44c.08,0,.08.28.22.48-.12-.65.26,0,.2-.46.56,1,.29-.22.72.38L117.5,16c-.08-.25.1.13.15.17-.09-.19-.14-.2-.18-.34.13-.41.71.09,1.1.18.13,0-.55-1.27-.15-.76l.18.46c-.06-.63.43-.18.39-.73,0,.11.11.24.09.25.2.3.16-.07,0-.33,0,0,.12.23.21.36s-.11-.46.08-.16a.6.6,0,0,1,0,.14c-.06-.17.14,0-.08-.38.17.14.06-.23.23-.05-.18-.43.23.14-.07-.45.32.6.39.42.28.11.08.19.14.17.26.43.05,0,0-.18-.14-.48.48.66-.12-.68.43.21a2.92,2.92,0,0,1,.06-.91c.32.59-.12.14.23.76,0-.32-.21-.87,0-.8a1.67,1.67,0,0,1,.17.38c0-.32.28-.09.21-.48a1.34,1.34,0,0,1,.07.18s.1,0-.06-.21l0,.08a6.89,6.89,0,0,1-.49-1.06c.4.78.22.12.72,1.12a1.27,1.27,0,0,0-.18-.37.93.93,0,0,1,.22.35c0-.19-.2-.45-.12-.49.07.13.09.19.17.34-.11-.27-.22-.54-.1-.47s.11.18.09.19-.21-.77,0-.6c.3.58.15.16.45.64l0-.18-.16-.22c.06,0-.11-.4,0-.28l.08.23,0-.16-.17-.14c-.09-.28-.37-.6-.22-.52s.06,0,.26.24h0c-.07-.16-.14-.34,0-.25s.31.54.38.63c-.22-.41.06-.18-.17-.63.05.11.21.36.24.41l-.18-.34a1.4,1.4,0,0,1,.25.34c.11,0-.4-.59-.15-.38,0,0,0,.07.06.13.17.08,0-.31.22-.2.32.46,0,.16.28.54.07-.15-.12-.72.06-.68l0,0c-.42-.68.29.28.15-.07,0,.06.22.38.17.3.15.06.06-.26,0-.55l.1.18c.15.13.18,0,.28.06a1.91,1.91,0,0,0-.24-.41c.81.9,0-.67.58,0a.38.38,0,0,0,.08.17l0-.27a2.59,2.59,0,0,0-.27-.32c-.1-.17-.15-.31-.12-.33a1.51,1.51,0,0,0,.39.52l-.16-.24c.35.39-.34-.5-.06-.27l.08.13c0-.09-.1-.27,0-.26.2.25.06.15.21.37,0-.06-.26-.56-.05-.34,0,.08,0,.11,0,.19.24.26.19.18.25.19h0l.15,0-.07-.05c-.37-.66,0-.23-.18-.65.17.39.13.2.29.44a.49.49,0,0,1,.17.15c-.1-.22.13.07,0-.24,0,.06,0,0,.14.13,0-.11-.09-.1-.14-.18-.1-.28.28,0,.16-.33,0-.19-.09-.35-.06-.48.07,0,.08.16.08.16s.1,0,.1-.1a.14.14,0,0,0,.08.07s-.07-.13,0-.13a.67.67,0,0,1,.06.15,1.62,1.62,0,0,1,0-.23s0,.09,0,.13,0-.18,0-.23h0s0,0,0,.06-.06,0-.08,0l0,0c-.12-.1-.09.11-.13.18l-.08-.15,0,.16s-.11-.11-.1-.15,0,.08-.09,0l0,0v.07s-.1-.12,0-.11c-.16-.07,0,.21-.17.07h0c-.06.12.09.15.16.39L124,9.53l.12.18s0,0-.1-.08c0,.15.06.08.13.21-.18-.14-.08.18-.33-.14.09.17.14.09.16.24-.28-.36,0,.1-.19,0s0-.12-.18-.28c.21.36-.17,0-.17,0,.21.31,0,.17,0,.3-.07-.11-.27-.13-.44-.25l0-.06c.24.38.12.34.13.45a2,2,0,0,1-.26-.46h-.06a.57.57,0,0,1,.11.27l-.2-.32c-.07,0,.11.41-.12.21a6.33,6.33,0,0,1,.72,1.13,5,5,0,0,1-.35-.55s.08.15,0,.09l-.16-.31c-.13-.12.14.25.1.24-.17-.25-.14-.17-.27-.37,0,0,.09.09,0,0a1.49,1.49,0,0,1-.33-.34,2.07,2.07,0,0,1,.23.39c0,.06-.22-.29-.34-.39.1.19-.05,0,.2.41,0,0-.14-.16-.21-.26.08.18-.11.14.19.51l0,0v0c.14.43-.34-.08-.33.15l-.09-.13c0,.18-.07.17.06.46a1.42,1.42,0,0,1-.27-.35c0,.12.1.27-.1.1s-.13-.18,0-.19c-.13-.07-.27-.26-.11.12-.19-.34-.3-.38-.27-.27l.19.21c0,.06,0,0-.09,0l-.26-.43c-.43-.44.34,1-.29.2.16.31.2.17.38.53-.09,0-.52-.6-.53-.59-.22-.19.31.67.13.55a3,3,0,0,1,.39.73,2.46,2.46,0,0,1-.5-.74s0,0,.08.07a.77.77,0,0,0-.16-.29l.09.15c-.12-.14-.19-.07-.32-.33a.58.58,0,0,0,.21.32c-.2-.18-.11.06-.27,0,.06.08.18.25.16.26-.22-.13.13.31.1.42-.18-.21-.32-.56-.28-.32a2,2,0,0,1-.3-.54c.11.33-.24-.12-.31-.16l0-.14c0,.09,0,.09,0,.1l.2.3a.32.32,0,0,1-.14-.16c.09.21.31.5.43.8-.12-.14,0,.21-.23-.19.17.09-.25-.4-.21-.51,0,.06,0,.06-.06,0a.21.21,0,0,1,0-.11c-.3-.32.23.48.14.52a1.31,1.31,0,0,0-.26-.37,1.94,1.94,0,0,1,.31.57c-.16-.14,0,.17,0,.17l.08.06c.12.24.07.23.08.32-.11-.18,0-.14-.1-.21.19.43-.33-.37-.24-.06-.11-.14-.25-.44-.33-.53.1.34-.25-.28-.18,0a1.48,1.48,0,0,1,.28.56v-.29l.18.5s0-.24,0-.2a1.13,1.13,0,0,0,.23.45c-.32-.45,0,.32-.18,0l-.43-.77c-.27-.3.07.48-.14.34l.11.12c.15.31,0,.08,0,.22a4,4,0,0,0-.32-.5c.11.2-.09,0,.19.55l-.24-.31c-.16-.1.31.79.17.75a5.39,5.39,0,0,1-.31-.69s-.08,0,0,.16c-.1-.16.11.39-.05.16.05.12.2.39.15.39l-.07-.13a2.57,2.57,0,0,0,.23.48c-.52-.77-.22.19-.66-.48a.61.61,0,0,1-.1.29c0-.08-.06-.13,0-.11-.2-.2.34.78.11.56-.26-.41-.07-.26-.18-.4-.45-.87,0,.17-.36-.31v-.06c-.2-.27,0,.39,0,.37l-.07-.14a1.75,1.75,0,0,1,.14.83,2.92,2.92,0,0,0-.25-.54c0,.07.29.55.27.68a5.29,5.29,0,0,1-.43-.68l0-.05c-.26-.47-.07.05-.14,0l-.1-.21c-.06.12.2.65.08.66l.09.15c.19.55-.19-.27-.06.15l-.27-.53a4.66,4.66,0,0,1,.1.71,7.43,7.43,0,0,1-.24-.91s-.1.1,0,.37c0-.06-.06-.2,0-.12.16.44.2.67.12.7-.47-1-.31-.17-.74-1,0,.44-.32-.05-.44.08.42.79,0,0,.35.87,0,.07,0,.06-.06,0l-.33-.45c-.13-.23,0-.2-.13-.39-.11,0-.19-.34-.34-.54.14.3.16.44.07.35l.23.36c.09.49-.4-.67-.31-.18l-.08-.28c0,.19-.2.09,0,.79a1.4,1.4,0,0,1-.17-.39c-.17-.05,0,.84-.26.47l-.08-.22c0,.07.12.41,0,.22a1.5,1.5,0,0,0-.09-.22c0,.07.08.39,0,.28l-.07-.24c-.24-.22,0,.65,0,.83a1.94,1.94,0,0,0-.52-.84l0-.09c-.18,0,0,.61-.1.9-.35-.63-.4-.16-.69-.48a2,2,0,0,1,.18.55c-.08-.11.07.46-.14-.1h0c-.23-.54-.24-.37-.3-.37l.27.75c-.54-1-.22.53-.65-.41,0,.19,0,.21,0,.41l-.14-.4c-.13-.07-.19-.11-.27,0l-.08-.3c-.07,0,.33,1.19.27,1.23l-.22-.59c-.11.05-.41-.44-.34.14a1.67,1.67,0,0,1-.07-.29c-.06,0-.34-.34,0,.48-.18-.54-.13,0-.11.24l-.12-.4a2.93,2.93,0,0,1,.13.83s-.12-.31-.07-.22c-.12-.19.08.39-.06.21l0-.27c-.07,0,0,.13,0,.43s-.15-.06-.27-.42c.06.23.12.53,0,.44a1.5,1.5,0,0,1-.07-.27c-.18-.24,0,.51-.19.14a1.33,1.33,0,0,0-.09-.23c.09,0,.16,0,.16,0a5.73,5.73,0,0,1-.31-.94c0,.29.14.92,0,.77a.55.55,0,0,0,0-.13v0s0,0,0,.07-.07-.1-.09-.09c-.1-.31-.12-.15-.16-.15a4.89,4.89,0,0,0,.21.67.06.06,0,0,1,0-.07s0,0,0-.05v0l.07,0c0,.21.07.39,0,.17.07.27.13.54.16.67-.22-.55-.39-.83-.51-1.17a1.38,1.38,0,0,0,0,1c0,.11-.09-.22-.14-.34s0-.07,0-.18c0,.2-.14.12,0,.67-.13-.21-.1-.52-.17-.38l0-.17c-.21-.35-.17.08-.16.4s0,.59-.23.22a1,1,0,0,1,.06.14c-.16-.12-.25.06-.35.19s-.22.2-.37.1,0,.14-.06.27l-.06-.18v.25c-.07.17-.26-.27-.32.06l0,.06s-.13.12-.14.05,0,.07,0,.05v0l-.09.13c-.09,0,0-.12-.12,0a.59.59,0,0,1-.1.11l.05,0-.05,0s0,0,.09.05l.08,0,0,0-.08,0a.13.13,0,0,0,.1,0l0,.05s0,0,.06,0,0,.05,0,.11-.06-.11,0-.12.05.12.09.08,0,.06,0,.07.12,0,.12,0c.07.12.14,0,.19.21,0,0,0-.13.07-.13,0,.25.16.06.22.38,0-.26.18,0,.23-.18,0,0,0,.08,0,.05s.11.17.17.26a1.83,1.83,0,0,1,0-.56c.16.34.07.39.17.7-.08-.27.05-.23,0-.47a1.93,1.93,0,0,1,.18.42c-.11-.45,0-.05,0-.33.13.26.14.46.18.34A.53.53,0,0,1,109.84,18.44Zm1.55-1h0l0,0Zm.14-.05a.08.08,0,0,0-.07,0c0-.14-.09-.28-.07-.28A1,1,0,0,0,111.53,17.37Zm-1.16-2.7c0-.07,0,0,.06.09l0,.06v0C110.4,14.79,110.38,14.72,110.37,14.67Z"/><path class="cls-1" d="M110.49,15.21s0,0,0,0a.59.59,0,0,1,0,.08l0-.12Z"/><path class="cls-1" d="M122.33,10.33h0l0,0Z"/><polygon class="cls-1" points="113.73 17.47 113.7 17.37 113.72 17.46 113.73 17.47"/><path class="cls-1" d="M123.74,11a.22.22,0,0,0,.06.07Z"/><path class="cls-1" d="M124,10.77l.09.05A.21.21,0,0,0,124,10.77Z"/><path class="cls-1" d="M124.24,10.65l-.06-.1h0Z"/><path class="cls-1" d="M121.1,13.73a0,0,0,0,0,0,0C121.12,13.83,121.11,13.79,121.1,13.73Z"/><path class="cls-1" d="M121.7,12.22c0,.08,0,.15.06.2S121.82,12.43,121.7,12.22Z"/><polygon class="cls-1" points="120.07 14.88 120.07 14.87 120.06 14.87 120.07 14.88"/><path class="cls-1" d="M121.71,12.44c.06.06.07,0,.05,0S121.69,12.38,121.71,12.44Z"/><polygon class="cls-1" points="124.88 9.56 124.89 9.54 124.88 9.53 124.88 9.56"/><path class="cls-1" d="M124.88,9.53v0Z"/><path class="cls-1" d="M124.89,9.47v0S124.9,9.49,124.89,9.47Z"/><path class="cls-1" d="M124.69,9.88l0,0Z"/><path class="cls-1" d="M124.64,10s.1,0,.09,0l0,0C124.75,10,124.6,9.91,124.64,10Z"/><path class="cls-1" d="M123.81,9.61l.12,0c-.06-.06-.15-.15-.12-.17C123.55,9.28,123.94,9.6,123.81,9.61Z"/><path class="cls-1" d="M123.45,9.57c0-.05-.09-.12-.12-.17A.22.22,0,0,0,123.45,9.57Z"/><path class="cls-1" d="M121.63,10.38l-.2-.32C121.43,10.12,121.51,10.18,121.63,10.38Z"/><polygon class="cls-1" points="122.37 12.26 122.53 12.44 122.35 12.14 122.37 12.26"/><polygon class="cls-1" points="120.73 10.06 120.72 10.01 120.74 10.15 120.73 10.06"/><path class="cls-1" d="M118,11.78l.23.41C118.2,12.11,118,11.64,118,11.78Z"/><path class="cls-1" d="M117,12.84c-.11-.2-.21-.32-.14-.1C116.86,12.75,117,12.9,117,12.84Z"/><polygon class="cls-1" points="112.79 13.78 112.76 13.63 112.76 13.77 112.79 13.78"/><path class="cls-1" d="M130,21.16s0,0,0-.05v.05Z"/><path class="cls-1" d="M130.1,20.79c0-.06-.06-.15-.11-.11a1.19,1.19,0,0,1,.08.16c0,.06,0,.1,0,.09s0,.08,0,.11a.65.65,0,0,0,0-.25S130.09,20.79,130.1,20.79Z"/><path class="cls-1" d="M131.67,15.62l-.07,0Z"/><path class="cls-1" d="M132.48,12.39s.05,0,.1,0A.19.19,0,0,0,132.48,12.39Z"/><path class="cls-1" d="M133.11,11.92l0,0C133.12,11.94,133.14,11.93,133.11,11.92Z"/><path class="cls-1" d="M131.67,15.62l.16-.06C131.68,15.53,131.71,15.58,131.67,15.62Z"/><path class="cls-1" d="M129.89,20a.21.21,0,0,0,0,.06l0-.05Z"/><path class="cls-1" d="M131.73,17.12v0l.17.05Z"/><path class="cls-1" d="M131.36,18.19a2.36,2.36,0,0,0-.39-.11c.12,0,.17.07.18.09Z"/><path class="cls-1" d="M130.4,19.84v0Z"/><path class="cls-1" d="M132.07,16.36h0Z"/><path class="cls-1" d="M114.26,2.37v0S114.25,2.37,114.26,2.37Z"/><polygon class="cls-1" points="113.01 1.64 113.03 1.64 113.03 1.64 113.01 1.64"/><path class="cls-1" d="M133.81,11h0S133.84,11,133.81,11Z"/><path class="cls-1" d="M130.71,1.32c.1.39-.23.47-.09.9C130.59,2.05,130.91,1.58,130.71,1.32Z"/><path class="cls-1" d="M129.9,20v0S129.9,20,129.9,20Z"/><path class="cls-1" d="M130.62,2.22h0l0,0Z"/><path class="cls-1" d="M134,8.58h0Z"/><path class="cls-1" d="M133.07,10.24l.06,0Z"/><path class="cls-1" d="M133.52,7.58s.09,0,0-.06h-.05C133.56,7.54,133.59,7.56,133.52,7.58Z"/><path class="cls-1" d="M133.67,6.63h-.09l0,0Z"/><path class="cls-1" d="M117.1,3.6a2.11,2.11,0,0,1,0-.36C117.07,3.52,116.93,3.56,117.1,3.6Z"/><path class="cls-1" d="M130,20a.1.1,0,0,1,0,0v0S129.94,20,130,20Z"/><path class="cls-1" d="M130.24,7l.09-.14A.24.24,0,0,0,130.24,7Z"/><path class="cls-1" d="M124,4.25l0,0S124,4.29,124,4.25Z"/><path class="cls-1" d="M130.34,6.4a1.34,1.34,0,0,0,.3,0l-.1,0Z"/><path class="cls-1" d="M117.08,3.24Z"/><path class="cls-1" d="M116,3.6c.14.09.1-.36.15-.58.18,0,0,.34.09.58.11-.05.23-.42.3-.37a.41.41,0,0,1,0,.19c.14-.32.33.13.5-.31a.62.62,0,0,1,0,.13,6.43,6.43,0,0,1,0-.69c.06,0,.14-.3.14,0,0,0-.05.11-.08.21l.08-.13c0,.5-.11.15-.14.5.15-.11.33-.49.42-.32,0,.51-.25.1-.15.58l-.14-.24c.06.8-.09-.09,0,.76.19.24.24-.13.43.08.07-.27,0-.43.09-.71.34-.48.13,1.33.4.63.09-.34.16-1,.29-.64l-.1.57c.19.07.18-.82.36-.41-.06.22-.18.17-.15.24.1.47.12-.31.23-.31l0,.52c.22-.07.48-.42.73-.49a1.06,1.06,0,0,0,0,.47c.32-.23.63.11.9.43l.14-.42s0,.2,0,.28,0-.28.1-.45.06.26,0,.39c.23-.35.63-.75.8-.27l0,.13c.15.19.26-.89.37-.46l0,.07c.34.22.76-.15,1,.53.11-.62.33.31.42-.57.17.46.1.61.36.93.07,0,.16-.54.26-.63l0,.46.17-.47,0,.56.1-.11a.66.66,0,0,1,0-.35c.15-.2.31.35.29.58l.36-.36a.88.88,0,0,1-.13.36c.21-.46,0,.49.18.07a1.5,1.5,0,0,1,0-.37c0,.29.23.31.38.2l-.06.31c.24.1.52-.11.79-.08a1.14,1.14,0,0,1,.07-.75V4.4c.08-.3-.07-.19.07-.55.1.06,0,.56,0,.71L126,4.4c0,.15,0,.22-.06.41.07-.3.17.5.28,0v.15c.27,0,.41-.13.63-.14,0-.42.11-.32.21-.65.15.14.3.49.5.47.15-.2.07-.35.15-.6,0,.39.18.37,0,.63a.94.94,0,0,0,.63-.34.9.9,0,0,1,0-.36c.06-.05.11.17.09.36l0,0c.38-.55.67,1.17,1,.4v0l.3-.4c.13.08-.09.28,0,.53.35-.62.46.13.74-.28,0,.57,0,.49.05.39s.15-.23,0,.1l.11-.24c.13-.23-.05.14-.08.2.1-.19.1-.22.18-.35s.22,0,.14.12a1.27,1.27,0,0,1-.44.45c-.07,0,1.4-.69.75-.31l-.5.2c.3-.11.28,0,.26,0s-.12.07.08.14l-.24,0c-.18,0-.21,0-.16,0s.21.14.36.15c-.05.06-.27,0-.42,0s.42.29,0,.28a.32.32,0,0,1-.13-.07c.16.09-.09.26.33.27-.22.12.13.33-.13.41.45.15-.26.22.38.36-.67-.12-.58.18-.29.33-.19-.07-.22,0-.49,0,0,.11.1.24.44.27-.83.07.58.52-.47.46a3.59,3.59,0,0,1,.61,1.06c-.66-.12,0-.34-.71-.44.22.32.77.58.56.83-.1.06-.28-.09-.39-.13.23.33-.15.53.17.84a.53.53,0,0,1-.17-.08s-.12.1.19.14l-.08-.06c.46,0,.89.35,1.12.4-.85-.23-.26.21-1.33-.11a.77.77,0,0,0,.39.13c-.07,0-.19,0-.41-.05.13.2.47.19.43.35a2.45,2.45,0,0,1-.37-.11c.28.13.55.26.4.37s-.2,0-.19-.06c0,.24.7.52.38.73-.63-.18-.23,0-.78,0l.14.16h.28c0,.12.35.29.16.37l-.22-.13.07.24.23-.09c.27.17.7.1.52.24-.05-.05,0,.11-.36.12h0c.16.09.34.18.19.25s-.61-.12-.73-.13c.45.14.08.31.56.46a2.45,2.45,0,0,0-.46-.09l.37.11a.77.77,0,0,1-.42,0c-.1.16.71.07.37.21,0,0-.08,0-.13-.06-.19.17.17.42,0,.58-.57,0-.11-.19-.59-.2.05.28.57.65.4.89l.07,0c.78.16-.42.12-.07.32a1.36,1.36,0,0,0-.34-.1c-.16.16.13.39.33.7l-.19-.07c-.2.08-.15.26-.26.35.19.07.15.13.45.14-1.24.14.48.75-.45.91,0,0-.17-.12-.17-.09l.18.29a1.55,1.55,0,0,0,.44,0c.18.06.31.16.3.22-.19-.15-.49-.08-.66-.06.1,0,.2.05.29.06-.54.05.6.12.22.25l-.15,0c.07.08.26.18.2.25-.32,0-.14-.1-.4-.15,0,.11.57.31.25.35-.08-.06-.07-.12-.15-.18-.37,0-.27.07-.33.14h0l-.15.15.09,0c.73.26.13.3.56.55-.4-.24-.24-.07-.52-.13-.08,0-.17.09-.25.06.23.12-.15.11.17.29-.08,0,0,.09-.21,0,.08.12.14,0,.25,0,.25.21-.27.36.06.66.13.24.31.3.36.51-.09,0-.18-.08-.18-.08a.26.26,0,0,0,0,.28s-.06,0-.1,0,.13.07.08.17l-.15-.1a1.37,1.37,0,0,1,.13.31c-.05,0-.07-.07-.11-.12,0,.12.07.31.12.35l0-.07s-.05,0-.06,0,0-.13.05-.13v.07c.16-.05,0-.28,0-.43l.16.09-.12-.17s.15,0,.17.05c.11-.09-.05-.1.07-.17s0,0,0,0l0-.11s.15,0,.1.07c.19-.15-.09-.31.11-.34v0c0-.26-.18-.06-.38-.28l.54,0-.21-.06s0-.07.13-.05c-.13-.12-.1,0-.24-.08.24-.08-.05-.34.37-.3-.19-.08-.18.09-.29-.06.47,0,0-.16.19-.24.25.08.08.16.34.09-.41-.14.16-.2.11-.3-.37-.07-.09-.22-.18-.4.13,0,.3-.25.52-.36l.08,0c-.45-.1-.33-.24-.4-.36a1,1,0,0,1,.51.17l0-.1c-.15-.05-.22-.09-.26-.17l.37.09c0-.13-.36-.34,0-.47-.39-.07-1.08,0-1.32-.26a2.56,2.56,0,0,1,.65.14s-.16-.08-.07-.1l.34.13c.17-.05-.29-.09-.24-.15.3,0,.22,0,.45,0,0,0-.13,0,0,.08a.8.8,0,0,1,.49-.11c-.17,0-.4-.07-.43-.13s.36,0,.52,0c-.21-.07,0-.12-.42-.2,0,0,.21,0,.33,0-.18-.11,0-.34-.48-.34h-.05c-.4-.3.33-.44.18-.7l.14,0c-.14-.17,0-.32-.34-.47,0,0,.28,0,.45,0-.09-.12-.25-.16,0-.27.24.15.23,0,.17.14.15-.11.39-.11,0-.32.37.11.49,0,.39-.1l-.28.05c-.05-.09,0-.14,0-.2l.49.11c.64-.17-.94-.66.1-.71-.33-.13-.27.11-.66,0,.09-.12.82-.13.82-.17.31-.13-.69-.28-.47-.44a1.44,1.44,0,0,1-.8-.22c.09-.12.77,0,.89.07s-.05,0-.1,0,.12.12.32.1l-.18,0c.19,0,.2-.21.49-.12a.32.32,0,0,0-.39,0c.28-.12.05-.25.25-.39-.1,0-.31,0-.31,0,.26-.21-.31-.16-.36-.34.28-.05.63.14.44-.07a.91.91,0,0,1,.6.12c-.31-.21.27-.25.35-.32l.13.1c-.08-.06-.07-.1-.06-.14h-.36c.07,0,.08-.08.22-.06a5.44,5.44,0,0,1-.89-.2c.19,0-.16-.23.31-.17-.19.17.48.05.52.23q-.07-.06,0-.12l.12,0c.45-.12-.51-.17-.47-.37.26.07.51,0,.46,0s-.45,0-.64-.14c.23-.09-.13-.16-.09-.23l-.11.06c-.26-.07-.21-.12-.28-.22.2,0,.13.1.22.08-.44-.17.52-.14.23-.33.19,0,.49.08.62,0-.31-.21.39-.1.13-.31a.82.82,0,0,1-.6-.16l.21.3L133,9.45c0,.08.2.2.13.24a.71.71,0,0,0-.49-.11c.55,0-.27-.27.11-.34l.87.15c.42-.12-.39-.41-.13-.62l-.17.05c-.34-.09,0-.16-.15-.26a2.1,2.1,0,0,0,.6,0c-.22,0,0-.18-.53-.3l.4,0c.19-.18-.8-.37-.67-.54.31.11.53,0,.74.22,0-.06.08-.11-.13-.15.19,0-.36-.24-.07-.25-.13,0-.43-.11-.4-.18l.15,0c-.15,0-.18-.15-.51-.14.94,0,0-.56.83-.6a1.37,1.37,0,0,1-.14-.47c.09,0,.15,0,.11,0,.3-.13-.82-.24-.48-.39.49,0,.24.15.43.11,1,.16-.09-.3.51-.46l.05,0c.37-.17-.3-.41-.19-.64H134a1.21,1.21,0,0,1-.76-.49c.39-.06.21,0,.6-.13-.05-.08-.64.22-.73.09a7.78,7.78,0,0,1,.8-.51L134,4c.54-.31,0-.24,0-.37l.23-.09c-.13-.26-.66,0-.7-.25l-.14.12c-.54.19.23-.31-.2-.19l.45-.39a7.77,7.77,0,0,0-.91.09,1.88,1.88,0,0,1,1-.32.41.41,0,0,0-.58-.07c.08,0,.23-.09.2,0-.45.23-.74.34-.91.29.81-.93-.27-.37,0-1.21-.64.3-.86-.29-1.51-.28.06.9-.17,0-.25.92-.11,0-.15,0-.15,0l-.19-.56c0-.27.09-.2.1-.4-.16-.09,0-.4-.13-.65,0,.33-.09.47-.18.33l.1.44c-.28.46-.14-.79-.42-.33l.1-.28c-.14.16-.45,0-.63.68a.83.83,0,0,1,0-.42c-.28-.13-.71.73-.9.26l0-.22c-.06.06-.13.41-.18.18s0-.22,0-.23-.17.38-.23.24l.08-.25c-.26-.31-.49.58-.74.71a1.14,1.14,0,0,0-.26-1l0-.09c-.33-.11-.61.5-.94.73-.13-.73-.62-.35-.89-.78a1.18,1.18,0,0,1-.11.58c-.06-.14-.24.44-.18-.17l0,0c0-.6-.17-.45-.28-.48l-.09.79c-.2-1.17-.82.36-.9-.68-.09.19-.18.18-.27.37l0-.42a.52.52,0,0,0-.55-.11l.08-.3c-.14,0-.28,1.21-.41,1.22V.77c-.24,0-.45-.59-.73,0,0-.1,0-.28.07-.3s-.41-.46-.44.41c0-.57-.25-.08-.4.16l0-.42c-.15.53-.17.67-.33.81,0-.06,0-.34,0-.23-.1-.23-.13.39-.26.16l.08-.27c-.13,0-.13.1-.22.41-.1.16-.23-.13-.22-.5,0,.22-.13.53-.2.41a.59.59,0,0,1,.06-.27c-.19-.3-.36.46-.47,0a.8.8,0,0,0,0-.25c.17,0,.3.06.29.08,0-.38-.1-.46,0-1-.13.28-.37.9-.49.7V.53s0,0-.09,0-.06-.11-.1-.12c0-.32-.14-.19-.2-.21,0,.42-.12.35-.06.7,0,0,0,0,.06-.06s0,0,0,0v0l.17,0c-.07.21-.14.39-.2.15l-.15.67c0-.6-.2-.93-.19-1.29-.23.22-.5.1-.7.88-.06.1,0-.24-.06-.37s.08-.06.11-.17c-.13.18-.36,0-.43.61-.13-.25.13-.52-.09-.42l0-.17c-.16-.41-.36,0-.55.29s-.39.54-.58.1a.26.26,0,0,1,0,.15c-.24-.17-.51,0-.78,0a.87.87,0,0,1-.77-.07c-.14-.05-.17.12-.27.25v-.2l-.17.24c-.22.12-.34-.35-.63-.07l0,.07c-.1,0-.31.06-.29,0s0,.06-.07,0v0l-.25.08c-.18,0,0-.12-.23-.05a1.77,1.77,0,0,1-.25.07s.1,0,.1,0H113s-.08,0,.13.08l.15.05,0,.05-.13-.07a.32.32,0,0,0,.17.08l.06.07a.47.47,0,0,0,.16,0c0,.05-.08.05,0,.13s-.06-.13.06-.12,0,.13.13.12,0,.05,0,.05.2.09.25,0c.07.14.26.08.23.28a.32.32,0,0,1,.22-.1c-.15.24.26.13.19.46.12-.25.35,0,.53-.08,0,0,0,.08,0,.05a.92.92,0,0,1,.16.31c0-.31.19-.33.29-.53.09.39-.1.4-.09.74,0-.29.22-.2.2-.47a1.19,1.19,0,0,1,.09.47c0-.48.08,0,.18-.32.11.3,0,.5.15.4A.33.33,0,0,1,116,3.6Zm3.44-.31h0l-.07,0Zm.28,0a.21.21,0,0,0-.12,0c0-.15,0-.29.06-.28S119.73,3.18,119.76,3.31Zm-.36-3c0-.06.06,0,.06.11l-.09,0V.55A1,1,0,0,1,119.4.35Z"/><path class="cls-1" d="M119.27.89s0,0,0,0,0,.07,0,.1l0-.13Z"/><path class="cls-1" d="M131.59,15.65h0Z"/><polygon class="cls-1" points="123.64 4.43 123.64 4.32 123.61 4.41 123.64 4.43"/><path class="cls-1" d="M130,17h0Z"/><path class="cls-1" d="M129.93,17.66l-.11.08A.38.38,0,0,0,129.93,17.66Z"/><path class="cls-1" d="M129.8,18.17l.12,0h0Z"/><path class="cls-1" d="M130.28,9.82a0,0,0,0,0,0,0Z"/><path class="cls-1" d="M130.85,12.42a1.6,1.6,0,0,1-.19-.11S130.61,12.38,130.85,12.42Z"/><polygon class="cls-1" points="130.23 7.01 130.24 7.01 130.24 6.99 130.23 7.01"/><path class="cls-1" d="M130.69,12.2c-.09,0-.08.07,0,.11S130.75,12.25,130.69,12.2Z"/><polygon class="cls-1" points="129.95 20.49 129.95 20.52 129.96 20.52 129.95 20.49"/><path class="cls-1" d="M130,20.52v0A0,0,0,0,0,130,20.52Z"/><path class="cls-1" d="M130,20.62l0-.07A.14.14,0,0,0,130,20.62Z"/><path class="cls-1" d="M129.91,19.79l0,0Z"/><path class="cls-1" d="M129.88,19.57c0,.05-.1.11,0,.19h0C129.78,19.72,130,19.63,129.88,19.57Z"/><path class="cls-1" d="M130.83,18.83l-.11.16c.09,0,.22,0,.21.05C131.26,18.87,130.72,19.05,130.83,18.83Z"/><path class="cls-1" d="M131.16,18.33c0,.1.15,0,.21,0S131.27,18.28,131.16,18.33Z"/><path class="cls-1" d="M132.12,14.49l.38.07C132.46,14.48,132.36,14.54,132.12,14.49Z"/><polygon class="cls-1" points="130.29 13.42 130.04 13.45 130.39 13.54 130.29 13.42"/><polygon class="cls-1" points="133.06 13.43 133.11 13.47 132.99 13.32 133.06 13.43"/><path class="cls-1" d="M134,6.86l-.47-.06C133.62,6.86,134.14,7,134,6.86Z"/><path class="cls-1" d="M133.78,3.17c.19-.16.26-.36,0-.28C133.84,3,133.71,3.17,133.78,3.17Z"/><polygon class="cls-1" points="124.7 0.71 124.77 0.56 124.65 0.68 124.7 0.71"/></g></g></svg>