<svg xmlns="http://www.w3.org/2000/svg" xmlns:xlink="http://www.w3.org/1999/xlink" viewBox="0 0 305.55 270.41"><defs><style>.cls-1{fill:url(#linear-gradient);}.cls-2{fill:url(#linear-gradient-2);}.cls-3{fill:url(#linear-gradient-3);}.cls-4{fill:url(#linear-gradient-4);}.cls-5{fill:url(#linear-gradient-5);}.cls-6{fill:url(#linear-gradient-6);}.cls-7{fill:url(#linear-gradient-7);}.cls-8{fill:url(#linear-gradient-8);}</style><linearGradient id="linear-gradient" x1="292.06" y1="164.36" x2="69.47" y2="-71.47" gradientUnits="userSpaceOnUse"><stop offset="0" stop-color="#657aee"/><stop offset="1" stop-color="#4660ec"/></linearGradient><linearGradient id="linear-gradient-2" x1="120.57" y1="-155.29" x2="530.99" y2="265.06" gradientUnits="userSpaceOnUse"><stop offset="0" stop-color="#657aee"/><stop offset="1" stop-color="#a0b6ff"/></linearGradient><linearGradient id="linear-gradient-3" x1="50.96" y1="-87.33" x2="461.39" y2="333.03" xlink:href="#linear-gradient-2"/><linearGradient id="linear-gradient-4" x1="-18.69" y1="-19.32" x2="391.73" y2="401.04" xlink:href="#linear-gradient-2"/><linearGradient id="linear-gradient-5" x1="209.66" y1="242.13" x2="-12.93" y2="6.3" xlink:href="#linear-gradient"/><linearGradient id="linear-gradient-6" x1="-43.68" y1="5.08" x2="366.74" y2="425.44" xlink:href="#linear-gradient-2"/><linearGradient id="linear-gradient-7" x1="201.54" y1="249.79" x2="-21.05" y2="13.96" xlink:href="#linear-gradient"/><linearGradient id="linear-gradient-8" x1="171.26" y1="278.37" x2="-51.33" y2="42.54" gradientUnits="userSpaceOnUse"><stop offset="0" stop-color="#657aee"/><stop offset="0.77" stop-color="#4d66ec"/><stop offset="1" stop-color="#4660ec"/></linearGradient></defs><title>designing</title><g id="Layer_2" data-name="Layer 2"><g id="Layer_1-2" data-name="Layer 1"><path class="cls-1" d="M305.41,9a8.81,8.81,0,0,0-8-8.64,142.89,142.89,0,0,0-17.56,0c-4.3.28-7.48,4.19-7.79,8.51-.07,1.06-.09,2.12-.14,3.22H169.45c0-1.1,0-2,0-2.88-.25-4.75-3.62-8.68-8.37-8.95a140.47,140.47,0,0,0-16.67,0c-4.77.27-8.11,4.19-8.37,9-.05,1-.1,1.92-.14,2.87H33.57C33,2.8,30.14.12,20.86.12c-2.68,0-5.38.18-8,0C7-.43,2.58,1.58,0,7V26.7c2.57,5.44,6.94,7.46,12.79,7a59.46,59.46,0,0,1,8.65,0c6.84.46,12.51-3.13,12.08-11.55,0-.16.16-.34.31-.65h76.45c-5.15,3.2-10.46,5.93-15.09,9.55-5.78,4.5-11.07,9.65-16.39,14.69a4.29,4.29,0,0,0,0,6.39c1.87,1.77,4.3,1.68,6.4-.25a16.74,16.74,0,0,0,1.23-1.3,86.32,86.32,0,0,1,31.72-22.22c5.64-2.26,11.55-3.86,17.44-5.8,1.25,7.63,4.16,10.81,9.95,11,4.77.19,9.55.18,14.32,0,5.53-.22,9-3.64,9.57-9.13a15.2,15.2,0,0,1,.35-1.49c2.1.48,4,.87,5.95,1.37a90.14,90.14,0,0,1,66.56,79.9c.17,2.29-.33,3.39-2.65,4.37a17.5,17.5,0,0,0-10.15,19.56,17.89,17.89,0,0,0,34.8,1.46c2.24-8.08-1.22-16.93-8.79-20.43-3.53-1.63-4.75-3.61-4.38-7.14a6,6,0,0,0-.08-1.18q-6.91-52.32-53.22-77.64l-3.09-1.71H272c0,1.09,0,2,0,2.85.22,4.68,3.35,8.63,8,8.94a125.5,125.5,0,0,0,17.56,0,8.66,8.66,0,0,0,7.8-8.48C305.6,19.56,305.59,14.28,305.41,9ZM24.31,24.46H9.09V9.4H24.31Zm136,0H145.11V9.32H160.3ZM256,124.85a8.89,8.89,0,0,1-8.93,8.86,8.89,8.89,0,1,1,8.93-8.86ZM296.32,24.43H281.11v-15h15.21Z"/><rect class="cls-2" x="281.11" y="9.41" width="15.2" height="15.02"/><rect class="cls-3" x="145.11" y="9.32" width="15.18" height="15.11"/><rect class="cls-4" x="9.09" y="9.4" width="15.22" height="15.06"/><path class="cls-5" d="M217.42,135.53c-5.93-8.1-11.93-16.14-17.9-24.2-1.31-1.76-2.54-3.58-4-5.23a4.26,4.26,0,0,0-6.09-.93c-2,1.45-2.43,4-1,6.34a23.69,23.69,0,0,0,1.39,1.94c6.73,9.1,13.5,18.19,20.21,27.32,3.45,4.69,3.25,8.87-.56,13.24-7.18,8.24-14.35,16.5-21.66,24.63a6,6,0,0,1-4,1.87q-31.47.18-62.93,0a6,6,0,0,1-4-1.84c-7.12-7.9-14.09-15.94-21.09-23.94-4.72-5.4-4.84-9-.52-14.88Q115.74,112.4,136.06,85c.61-.83,1.29-1.59,2.37-2.9v2.74c0,9.93,0,19.88-.08,29.82a4.36,4.36,0,0,1-1.55,2.61,22.72,22.72,0,0,0-7.25,16.16,22.87,22.87,0,0,0,42.39,12.52,22.56,22.56,0,0,0-3.06-27.75A5.82,5.82,0,0,1,167,113.5c.09-5,0-9.94,0-14.91V82.82c.9,1.07,1.33,1.55,1.73,2.08,2.66,3.59,5.26,7.23,8,10.77,1.75,2.26,4.26,2.65,6.3,1.21a4.32,4.32,0,0,0,1-6.32c-6.69-9.14-13.23-18.42-20.34-27.22-5.93-7.35-16.82-7-23,.28-1.16,1.36-2.19,2.83-3.25,4.26q-25,33.8-50,67.59c-5.88,8-5.52,16.82.9,24.28,1.16,1.36,2.36,2.69,3.54,4l15.78,18.06c-5.23,3.09-8.26,7.29-8.33,13.17-.1,7.36-.15,14.71,0,22.07a13.68,13.68,0,0,0,8.09,12.61c1.85.91,2.25,2,2.3,3.89.29,10.43.69,20.86,1.08,31.29.14,3.74,1.84,5.69,4.75,5.51,2.73-.16,4.33-2.26,4.22-5.76-.25-7.65-.6-15.3-.83-22.94-.1-3.35,0-6.7,0-10.17h67.73c0,1.33,0,2.5,0,3.67-.36,9.75-.74,19.48-1.07,29.22-.13,3.71,1.46,5.86,4.27,6s4.56-1.82,4.69-5.59c.39-10.63.71-21.26,1.19-31.88a4.17,4.17,0,0,1,1.55-3.05c5.72-3.2,8.27-8,8.22-14.47-.06-5.87-.16-11.74,0-17.6.2-6.8-1.94-12.28-8.48-15.92,6.63-7.56,13-14.78,19.31-22.06C222.88,152.36,223.25,143.49,217.42,135.53Zm-73.1-12.73a6.87,6.87,0,0,0,3.13-6.26c-.09-14.72,0-29.43,0-44.14,0-3.42,1.64-5.18,4.9-5.26a5.28,5.28,0,0,1,5.76,5.36c0,7.56,0,15.11,0,22.66,0,7.26.07,14.52-.05,21.78a7,7,0,0,0,2.87,6.12,13.59,13.59,0,0,1,4.25,16.57,14,14,0,0,1-14.57,8.15,13.79,13.79,0,0,1-11.91-12A13.05,13.05,0,0,1,144.32,122.8Zm52.19,92.85c0,4.69-2.1,6.71-6.78,6.72-12.43,0-24.86,0-37.28,0h-36.7c-5.47,0-7.37-1.88-7.39-7.32,0-6.27,0-12.53,0-18.8,0-4.71,2-6.69,6.78-6.69h74.58c4.72,0,6.73,2,6.78,6.69Q196.6,206,196.51,215.65Z"/><path class="cls-6" d="M196.51,215.65c0,4.69-2.1,6.71-6.78,6.72-12.43,0-24.86,0-37.28,0h-36.7c-5.47,0-7.37-1.88-7.39-7.32,0-6.27,0-12.53,0-18.8,0-4.71,2-6.69,6.78-6.69h74.58c4.72,0,6.73,2,6.78,6.69Q196.6,206,196.51,215.65Z"/><path class="cls-7" d="M40.52,125.66c0-8.07,4.11-14.51,11-17.28a3.77,3.77,0,0,0,2.74-3.89A94.93,94.93,0,0,1,66,64c.67-1.24,1.72-2.84,2.89-3.12a6.62,6.62,0,0,1,4.82.84c1.81,1.24,1.71,3.34.81,5.39-2.57,5.79-5.62,11.46-7.39,17.49-1.94,6.61-2.64,13.58-3.94,20.39-.36,1.92.45,2.72,2.18,3.46a17.58,17.58,0,0,1,10.59,19.85,17.89,17.89,0,0,1-35.08.21A22.3,22.3,0,0,1,40.52,125.66Zm17.82,8.05a8.89,8.89,0,1,0-8.85-8.94A9,9,0,0,0,58.34,133.71Z"/><path class="cls-8" d="M152.54,242c2.08,0,4.17-.08,6.25,0a11.85,11.85,0,0,1,11.73,11.23c.24,4.16.14,8.35,0,12.52a4.47,4.47,0,0,1-4.42,4.67c-2.63,0-4.44-1.84-4.5-4.84-.06-3.47,0-6.95,0-10.43,0-3.14-1-4.14-4.05-4.19q-5.07-.07-10.14,0c-3.1,0-4.1,1-4.15,4.09-.05,3.48,0,7,0,10.43-.05,3-1.78,4.9-4.4,4.93s-4.47-1.89-4.53-4.86c-.08-4-.14-8,0-11.92A11.88,11.88,0,0,1,146,242C148.16,241.9,150.35,242,152.54,242Z"/></g></g></svg>