<svg xmlns="http://www.w3.org/2000/svg" viewBox="0 0 538.42 472.74"><defs><style>.cls-1{fill:#e1e1e1;}.cls-2{fill:#fff;}.cls-3{fill:#fafafa;}.cls-4{fill:#1a2e35;}.cls-5{fill:#4551e8;}.cls-6{fill:#354ac4;}.cls-7{opacity:0.1;}.cls-8{fill:#3b90ff;}.cls-9{opacity:0.2;}.cls-10{opacity:0.3;}.cls-11{fill:#778cff;}.cls-12{fill:#375a64;}.cls-13{fill:none;}.cls-14{fill:#ffc19d;}.cls-15{fill:#ff9c6a;}.cls-16{opacity:0.6;}</style></defs><title>game-development-in-india</title><g id="Layer_2" data-name="Layer 2"><g id="Layer_1-2" data-name="Layer 1"><path class="cls-1" d="M347,172.49l.3.93a4,4,0,0,0,2.68,2.64l1.31.41a.41.41,0,0,1,0,.79l-1.26.4a4,4,0,0,0-2.66,2.64l-.3.93a.42.42,0,0,1-.79,0l-.36-1a4.07,4.07,0,0,0-2.65-2.54l-1.4-.44a.41.41,0,0,1,0-.79l1.36-.42a4,4,0,0,0,2.63-2.53l.36-1A.42.42,0,0,1,347,172.49Z"/><path class="cls-1" d="M149.42,70.14l-2.94-.65a9.32,9.32,0,0,0-4,0l-3.47.77a9.27,9.27,0,0,1-4.35-.1l-2.19-.59a9.17,9.17,0,0,0-5.34.18l-.34.12a9.32,9.32,0,0,1-5.18.22l-2.73-.68a9.22,9.22,0,0,0-4.55,0l-2.12.56a9.23,9.23,0,0,1-5.48-.24l-1.09-.4a9.13,9.13,0,0,0-6.31,0l-.49.19a2.29,2.29,0,0,1-3.18-1.94V36.34c0-14.17,12.62-25.66,28.18-25.66h0c15.57,0,28.18,11.49,28.18,25.66V68.26A2.08,2.08,0,0,1,149.42,70.14Z"/><ellipse class="cls-2" cx="110.82" cy="35.01" rx="3.97" ry="3.62"/><ellipse class="cls-2" cx="136.35" cy="35.01" rx="3.97" ry="3.62"/><path class="cls-2" d="M120.72,35.63a4,4,0,0,0,7.94,0Z"/><path class="cls-1" d="M115.93,97l.8,2.49a10.93,10.93,0,0,0,7.2,7.12l3.54,1.09a1.11,1.11,0,0,1,0,2.12l-3.4,1.07a10.94,10.94,0,0,0-7.16,7.11l-.8,2.51a1.13,1.13,0,0,1-2.13,0l-1-2.74a10.92,10.92,0,0,0-7.13-6.83l-3.77-1.16a1.11,1.11,0,0,1,0-2.12l3.64-1.13a11,11,0,0,0,7.09-6.82l1-2.77A1.12,1.12,0,0,1,115.93,97Z"/><path class="cls-1" d="M46.32,50.76l.45,1.44a6.34,6.34,0,0,0,4.17,4.12L53,57a.64.64,0,0,1,0,1.22l-2,.62a6.35,6.35,0,0,0-4.15,4.12l-.46,1.45a.65.65,0,0,1-1.23,0l-.56-1.59a6.32,6.32,0,0,0-4.12-3.95l-2.19-.67a.64.64,0,0,1,0-1.23l2.1-.66a6.31,6.31,0,0,0,4.1-3.95l.56-1.6A.66.66,0,0,1,46.32,50.76Z"/><path class="cls-1" d="M513.32,194l.46,1.44a6.35,6.35,0,0,0,4.17,4.13l2,.63a.64.64,0,0,1,0,1.23l-2,.61a6.33,6.33,0,0,0-4.14,4.12l-.47,1.45a.65.65,0,0,1-1.23,0l-.55-1.58a6.34,6.34,0,0,0-4.13-4l-2.19-.67a.64.64,0,0,1,0-1.23l2.11-.65a6.35,6.35,0,0,0,4.1-3.95l.56-1.6A.65.65,0,0,1,513.32,194Z"/><path class="cls-1" d="M191.76,34.51l.33,1a4.51,4.51,0,0,0,3,3l1.46.45a.46.46,0,0,1,0,.88l-1.4.44a4.52,4.52,0,0,0-3,2.94l-.33,1a.46.46,0,0,1-.88,0l-.4-1.13a4.53,4.53,0,0,0-2.94-2.83L186,39.81a.45.45,0,0,1,0-.87l1.51-.47a4.55,4.55,0,0,0,2.93-2.82l.4-1.15A.46.46,0,0,1,191.76,34.51Z"/><path class="cls-1" d="M46.1,114.87l.3,1a4.22,4.22,0,0,0,2.78,2.75l1.37.43a.43.43,0,0,1,0,.82l-1.31.41A4.24,4.24,0,0,0,46.47,123l-.31,1a.43.43,0,0,1-.82,0L45,122.91a4.19,4.19,0,0,0-2.75-2.64l-1.46-.45a.43.43,0,0,1,0-.82l1.4-.44a4.2,4.2,0,0,0,2.74-2.63l.37-1.07A.44.44,0,0,1,46.1,114.87Z"/><path class="cls-1" d="M432.63,305.07l.19.6a2.61,2.61,0,0,0,1.74,1.71l.85.27a.26.26,0,0,1,0,.51l-.82.26a2.6,2.6,0,0,0-1.72,1.71l-.19.61a.28.28,0,0,1-.52,0l-.23-.66a2.59,2.59,0,0,0-1.72-1.64l-.91-.28a.27.27,0,0,1,0-.52l.88-.27a2.66,2.66,0,0,0,1.71-1.64l.23-.67A.27.27,0,0,1,432.63,305.07Z"/><path class="cls-1" d="M468.94,207.31l-2.23-.5a7,7,0,0,0-3,0l-2.63.58a7,7,0,0,1-3.31-.08l-1.66-.45A6.94,6.94,0,0,0,452,207l-.26.09a7,7,0,0,1-3.93.17l-2.08-.52a7,7,0,0,0-3.46,0l-1.6.42a6.87,6.87,0,0,1-4.16-.19l-.83-.3a7,7,0,0,0-4.79,0l-.38.14a1.74,1.74,0,0,1-2.41-1.47V181.63c0-10.77,9.58-19.49,21.4-19.49h0c11.83,0,21.41,8.72,21.41,19.49v24.25A1.59,1.59,0,0,1,468.94,207.31Z"/><path class="cls-2" d="M442.64,180.62a3,3,0,1,1-3-2.75A2.89,2.89,0,0,1,442.64,180.62Z"/><ellipse class="cls-2" cx="459.01" cy="180.62" rx="3.02" ry="2.75"/><path class="cls-2" d="M447.14,181.09a3,3,0,0,0,6,0Z"/><path class="cls-1" d="M510.16,145.89l-1.52-.33a4.58,4.58,0,0,0-2.05,0l-1.79.4a4.93,4.93,0,0,1-2.26,0l-1.13-.31a4.84,4.84,0,0,0-2.77.09l-.17.07a4.79,4.79,0,0,1-2.68.11l-1.42-.35a4.68,4.68,0,0,0-2.35,0l-1.1.29a4.79,4.79,0,0,1-2.83-.13l-.57-.21a4.75,4.75,0,0,0-3.26,0l-.26.1a1.19,1.19,0,0,1-1.64-1V128.4c0-7.34,6.53-13.28,14.58-13.28h0c8.06,0,14.59,5.94,14.59,13.28v16.52A1.08,1.08,0,0,1,510.16,145.89Z"/><ellipse class="cls-2" cx="490.19" cy="127.71" rx="2.05" ry="1.87"/><ellipse class="cls-2" cx="503.4" cy="127.71" rx="2.05" ry="1.87"/><path class="cls-2" d="M495.31,128a2.06,2.06,0,0,0,4.11,0Z"/><path class="cls-1" d="M435.9,118.13l.19.6a2.62,2.62,0,0,0,1.73,1.71l.86.27a.27.27,0,0,1,0,.51l-.82.25a2.65,2.65,0,0,0-1.73,1.72l-.19.6a.27.27,0,0,1-.51,0l-.23-.66a2.67,2.67,0,0,0-1.72-1.65l-.91-.28a.26.26,0,0,1,0-.51l.87-.27a2.64,2.64,0,0,0,1.71-1.64l.23-.67A.28.28,0,0,1,435.9,118.13Z"/><path class="cls-1" d="M485.16,249.05l.53,1.69a7.42,7.42,0,0,0,4.88,4.82l2.39.74a.75.75,0,0,1,0,1.43l-2.31.72a7.41,7.41,0,0,0-4.84,4.81l-.54,1.71a.76.76,0,0,1-1.44,0l-.65-1.86a7.42,7.42,0,0,0-4.83-4.62l-2.55-.79a.74.74,0,0,1,0-1.43l2.46-.77a7.39,7.39,0,0,0,4.8-4.62l.66-1.87A.76.76,0,0,1,485.16,249.05Z"/><path class="cls-1" d="M494.27,27.21l.54,1.69a7.37,7.37,0,0,0,4.87,4.81l2.4.74a.75.75,0,0,1,0,1.44l-2.3.72a7.42,7.42,0,0,0-4.85,4.81l-.54,1.7a.76.76,0,0,1-1.44,0l-.65-1.86a7.42,7.42,0,0,0-4.83-4.62l-2.55-.79a.75.75,0,0,1,0-1.44l2.46-.76a7.4,7.4,0,0,0,4.79-4.62l.66-1.87A.76.76,0,0,1,494.27,27.21Z"/><path class="cls-1" d="M28.93,378.33a39.41,39.41,0,0,0-15.81-4.95c-2.58-.25-5.41-.18-7.48,1.25-.44.3-.87.75-.77,1.24a1.54,1.54,0,0,0,.73.85c6.43,4.47,16.17,5,23.33,1.61"/><path class="cls-1" d="M28.52,377.92a74.69,74.69,0,0,1-10.21-8.18A23,23,0,0,1,11.91,359a4,4,0,0,1,.51-3.61c8.14,5.79,14.53,13.28,16.1,22.57"/><path class="cls-1" d="M28.85,378.28A30.6,30.6,0,0,1,29,366.07,16.51,16.51,0,0,1,36.18,356c1.4,3,.8,6.44-.19,9.57a45,45,0,0,1-7.08,13.58"/><path class="cls-1" d="M36.82,391.3a24.19,24.19,0,0,0-12.67,5.84,21.51,21.51,0,0,0-7.26,11.34c4.75-.27,8.78-3.32,11.71-6.74s4.95-7.18,8.16-10.38"/><path class="cls-1" d="M38.56,393.38a26.37,26.37,0,0,1,3.61-26.94,31.65,31.65,0,0,1-3.61,26.94"/><path class="cls-1" d="M49.1,404.81a24.57,24.57,0,0,0-12.68,2.71,21.64,21.64,0,0,0-8.94,8.63c-.27.48-.51,1.1-.15,1.54a1.73,1.73,0,0,0,1.44.38c4.26-.25,8-2.58,11.15-5.24s5.83-5.73,9.28-8"/><path class="cls-1" d="M48.76,404.19a33.66,33.66,0,0,1-.4-20.49c.79-2.63,2.13-5.41,4.8-6.65a1.07,1.07,0,0,1,.74-.11.92.92,0,0,1,.46.49,11.36,11.36,0,0,1,1.13,5.87,32.61,32.61,0,0,1-1,5.95c-.84,3.64-1.29,7.55-3.48,10.68a20.71,20.71,0,0,0-1.39,2.35c-.42.8-.42,1.08-.8,1.71"/><path class="cls-1" d="M76.67,408c-2.07-7.17.13-15.85,5.08-21.72a1.87,1.87,0,0,1,1.45-.85c.91.08,1.15,1.19,1.11,2A37,37,0,0,1,76.67,408"/><path class="cls-1" d="M79.19,409.54a37.41,37.41,0,0,0,28.46-5.27,25.13,25.13,0,0,0-15.41-1.72c-5.14,1.07-9.85,3.17-13,7"/><path class="cls-1" d="M81.31,404.77c5.35-7.94,15.61-13.13,25.83-13.6-1.17,3.79-4.59,6.73-8.45,8.51s-8.15,2.55-12.4,3.3c-1.65.29-3.91.61-5,1.79"/><path class="cls-1" d="M77.2,381.63c1.45-4.52,2.91-9.08,3.31-13.78a21.19,21.19,0,0,0-3-13.62c-5,8.8-5.5,19.1-.44,27.87"/><path class="cls-1" d="M94,373.89c5.85-9.68,17.78-17.41,29.84-18.49C119.22,366,106.52,374.11,94,373.89"/><path class="cls-1" d="M90.36,375.78c8.71,1.21,16.14,6.28,24.29,9.36a11.8,11.8,0,0,0,5.49.95c1.87-.22,3.72-1.36,4.14-3a4.14,4.14,0,0,0-1.45-3.88,12,12,0,0,0-4-2.21c-8.87-3.36-18.39-3.44-27.73-1.4"/><path class="cls-1" d="M85.31,381.35c2,.51,2.65,1.45,4.21,2.66a47.2,47.2,0,0,0,18.42,8.62c.71.15,1.63.22,2-.36s-.08-1.12-.48-1.57a25.63,25.63,0,0,0-11.12-6.88c-4.25-1.44-7.93-3.18-13-2.8"/><path class="cls-1" d="M79.62,347.72A37.06,37.06,0,0,0,106.35,356a1.91,1.91,0,0,0,1.21-.4c.68-.66-.13-1.69-.92-2.25a33.08,33.08,0,0,0-27-5.63"/><path class="cls-1" d="M86.37,345.47a40.25,40.25,0,0,1,33.35-5c-4.2,3.77-10,5.79-15.89,6.35a55.13,55.13,0,0,1-17.46-1.34"/><path class="cls-1" d="M83.68,330c-.77-7.14-.27-12.78-.81-19.95,0-.58-.18-1.27-.77-1.47-.82-.29-1.5.63-1.77,1.39a21.19,21.19,0,0,0,3.34,19.88"/><path class="cls-1" d="M83.12,330.8a44.19,44.19,0,0,0,13-11.5c2.57-3.19,4.73-7,4.15-10.95a12.86,12.86,0,0,0-9.37,4.24,23,23,0,0,0-4.78,8.75c-1,3.14-1.77,6.37-3,9.46"/><path class="cls-1" d="M95.89,327.57a107.39,107.39,0,0,0,32-17.17c-3.82-1.4-8.19-.56-12,.84-8.72,3.21-15.85,8.63-20.13,16.26"/><path class="cls-1" d="M86.71,334.71c5.9.59,11.9,1,17.75.08s11.2-3,16.58-5a1.94,1.94,0,0,0,1.13-.77,1.14,1.14,0,0,0-.41-1.3,3.57,3.57,0,0,0-1.41-.6c-5.85-1.49-12.16-.79-17.91,1a86.56,86.56,0,0,0-15.73,6.63"/><path class="cls-1" d="M53,348c-4-7.4-3.76-16-.28-23.67,2.45,3.4,2.75,7.73,2.3,11.77s-1.8,8.21-1.89,12.27"/><path class="cls-1" d="M36.92,340.57A38.06,38.06,0,0,0,10,351a27.29,27.29,0,0,0,14.75-2.49,75.92,75.92,0,0,0,12.64-7.7"/><path class="cls-1" d="M26.1,337.28c-4.92-.36-9.65-.92-14.38.4s-9,4.32-11,8.46a28.1,28.1,0,0,0,13.48-2.31,79,79,0,0,0,11.86-6.55"/><path class="cls-1" d="M42.12,337.43c-4.43-2.64-9-5.33-14.13-6.42s-11.12-.29-14.71,3.25c4.17,2.23,9.23,2.49,14.07,2.49s10.76-.06,15.32,1.41"/><path class="cls-1" d="M42.14,337.64c-7.56-6.76-10.43-18.92-7.39-28.16a39.91,39.91,0,0,1,7.39,28.16"/><path class="cls-1" d="M62.94,318.48c1.43-3,2.43-6.2,3.71-9.27a26.1,26.1,0,0,1,5.29-8.54,14.43,14.43,0,0,1,9.37-4.42c-2.25,9.3-9,17.62-18.18,22.27"/><path class="cls-1" d="M59.18,322.47c-2.36-3-5.09-7-8.29-9.19s-7.37-3.54-11.28-2.69c4,6.47,11.48,11,19.57,11.88"/><path class="cls-1" d="M59.93,318.72a47.92,47.92,0,0,1-3.73-11,15.87,15.87,0,0,1,1.89-11.2c4.15,7.15,5.49,14.83,2,22.28"/><path class="cls-1" d="M63,296.52c2.35-7.08,9.48-12.3,17.17-14.69a6.91,6.91,0,0,1,3-.42,2.57,2.57,0,0,1,2.22,1.69c.28,1.21-.81,2.29-1.84,3.09A60.33,60.33,0,0,1,63,296.52"/><path class="cls-1" d="M63.07,290.73c.3-4.57.61-9.21,2.24-13.54s4.78-8.39,9.35-10.28c.78,4.61-1.45,9.21-4.15,13.18s-6,7.72-7.57,12.15"/><path class="cls-1" d="M62.94,293.87c-1.94-5.16-2.14-11.72-5.54-16.22-2.37-3.15-6.17-5.29-8.22-8.62a12,12,0,0,0,.48,9.79A28.67,28.67,0,0,0,55.94,287c2.52,2.44,4.67,4.28,7,6.86"/><path class="cls-1" d="M63,446c-.15,0-.28-34.45-.29-76.94s.1-76.95.25-76.95.29,34.45.3,76.95S63.13,446,63,446Z"/><path class="cls-1" d="M96,342.76a7.26,7.26,0,0,1-1.42.49l-3.91,1.2c-3.31,1-7.84,2.51-12.76,4.35s-9.47,3.44-12.09,5.51a8.18,8.18,0,0,0-2.42,2.93c-.38.8-.45,1.3-.5,1.29s0-.13,0-.36a4.75,4.75,0,0,1,.28-1,7.8,7.8,0,0,1,2.37-3.12,21.13,21.13,0,0,1,5.24-3c2.1-.89,4.42-1.82,6.89-2.74,4.94-1.85,9.51-3.28,12.85-4.22,1.66-.48,3-.83,4-1.06A9.76,9.76,0,0,1,96,342.76Z"/><path class="cls-1" d="M106.88,318.52s-.13.15-.4.39l-1.21,1-4.54,3.75L85.65,335.93c-5.89,4.77-11,9.33-14.5,12.77-1.77,1.71-3.16,3.13-4.11,4.12L66,354a2.82,2.82,0,0,1-.41.38s.09-.16.32-.44.56-.69,1-1.2c.9-1,2.25-2.49,4-4.24a183.79,183.79,0,0,1,14.43-12.9c5.9-4.76,11.28-9,15.19-12.13l4.65-3.63,1.28-1A2.57,2.57,0,0,1,106.88,318.52Z"/><path class="cls-1" d="M79.29,340.78c-.15-.06,1.08-2.65,2.3-5.92s1.82-6,2-6A18.49,18.49,0,0,1,82.11,335a35.49,35.49,0,0,1-1.83,4.14A5.8,5.8,0,0,1,79.29,340.78Z"/><path class="cls-1" d="M63,361.64a6.53,6.53,0,0,1-.91-1L59.78,358c-2-2.3-4.65-5.47-7.67-8.94s-5.81-6.59-7.83-8.84l-2.37-2.68a6.11,6.11,0,0,1-.82-1,6.46,6.46,0,0,1,1,.9c.61.59,1.46,1.47,2.51,2.57,2.09,2.2,4.92,5.28,8,8.76s5.68,6.69,7.55,9c.94,1.18,1.69,2.14,2.19,2.81A6.33,6.33,0,0,1,63,361.64Z"/><path class="cls-1" d="M55.77,353.16a11.83,11.83,0,0,1-3-5.18,13.51,13.51,0,0,1-.69-5.22l.24,0c-.1.4-.18.61-.23.6s0-.22,0-.63h.24a22.29,22.29,0,0,0,1,5.08A35.51,35.51,0,0,0,55.77,353.16Z"/><path class="cls-1" d="M46.41,342.44a9.67,9.67,0,0,0-2.12-1.12,15.55,15.55,0,0,0-5.89-.43,40.91,40.91,0,0,0-5.93.87,19.5,19.5,0,0,1-2.44.54,8.89,8.89,0,0,1,2.34-.88,30.09,30.09,0,0,1,6-1,14,14,0,0,1,6.07.59A3.66,3.66,0,0,1,46.41,342.44Z"/><path class="cls-1" d="M44.19,339.84c0,.08-1.23-.45-3.25-1.08a37,37,0,0,0-8.1-1.51,36.46,36.46,0,0,0-8.27.38c-2.09.34-3.36.7-3.39.61a3.42,3.42,0,0,1,.86-.33,23.43,23.43,0,0,1,2.46-.63,31.8,31.8,0,0,1,8.38-.53,31.32,31.32,0,0,1,8.19,1.68,21.67,21.67,0,0,1,2.32,1A3.13,3.13,0,0,1,44.19,339.84Z"/><path class="cls-1" d="M62.94,328.86a60.53,60.53,0,0,1-2.37-7.5,54.94,54.94,0,0,1-1.83-7.62,59.58,59.58,0,0,1,2.36,7.5A54.2,54.2,0,0,1,62.94,328.86Z"/><path class="cls-1" d="M63.09,328.86a33.44,33.44,0,0,0-2.62-4.49,20.36,20.36,0,0,0-3.87-3.63,3.64,3.64,0,0,1,1.5.7,11.65,11.65,0,0,1,2.82,2.64A9.39,9.39,0,0,1,63.09,328.86Z"/><path class="cls-1" d="M63,427.6c-.06,0-.17-.83-.6-2.29a30.79,30.79,0,0,0-2.52-6c-2.62-4.86-7.37-11-13.42-17.21-3-3.11-5.9-6.05-8.36-8.87a62.09,62.09,0,0,1-6-7.85,35.84,35.84,0,0,1-3-5.83c-.28-.72-.49-1.28-.6-1.67a2.24,2.24,0,0,1-.15-.6c.05,0,.32.79.94,2.2a42.41,42.41,0,0,0,3.16,5.72,65.63,65.63,0,0,0,6,7.75c2.48,2.78,5.39,5.7,8.39,8.83,6,6.19,10.8,12.44,13.35,17.38a28.45,28.45,0,0,1,2.38,6.07,16.84,16.84,0,0,1,.34,1.73A2.55,2.55,0,0,1,63,427.6Z"/><path class="cls-1" d="M92.86,396.87a15.06,15.06,0,0,1-1.57.8,35.52,35.52,0,0,0-4.06,2.44,46.08,46.08,0,0,0-5.33,4.43c-1.88,1.81-3.8,3.9-5.77,6.14-3.94,4.49-7.62,8.47-9.82,11.65-1.12,1.57-1.93,2.9-2.47,3.83A11.89,11.89,0,0,1,63,427.6s0-.15.15-.41.27-.64.52-1.11A36.91,36.91,0,0,1,66,422.14c2.14-3.25,5.79-7.28,9.72-11.77,2-2.25,3.92-4.34,5.83-6.14a42.49,42.49,0,0,1,5.47-4.4,29.3,29.3,0,0,1,4.19-2.33c.52-.24.94-.38,1.22-.49S92.85,396.85,92.86,396.87Z"/><path class="cls-1" d="M93.44,406.84a25.9,25.9,0,0,1-3.31.44,48.29,48.29,0,0,0-7.85,1.4,24.45,24.45,0,0,0-7,3.36c-1.62,1.14-2.39,2.09-2.46,2s.13-.27.49-.69A11.22,11.22,0,0,1,75,411.77a21.83,21.83,0,0,1,7.11-3.56,38.24,38.24,0,0,1,8-1.28A19.09,19.09,0,0,1,93.44,406.84Z"/><path class="cls-1" d="M73.76,413c-.17-.09,1.32-2.17,2.48-5s1.34-5.28,1.53-5.26a4.39,4.39,0,0,1,0,1.62,15.85,15.85,0,0,1-1,3.81,17.35,17.35,0,0,1-1.92,3.49A5.29,5.29,0,0,1,73.76,413Z"/><path class="cls-1" d="M102.53,370.11a2.74,2.74,0,0,1-.53.25l-1.55.65c-.68.26-1.51.6-2.44,1.05s-2,.89-3.17,1.51l-1.8.93c-.63.33-1.25.72-1.9,1.1-1.34.73-2.67,1.64-4.09,2.56A75.59,75.59,0,0,0,78.52,385a69.86,69.86,0,0,0-7.21,8c-1,1.32-1.92,2.57-2.68,3.8-.39.62-.8,1.19-1.13,1.78l-1,1.67c-.64,1.06-1.1,2.06-1.55,2.93s-.8,1.63-1.07,2.26l-.65,1.43a1.93,1.93,0,0,1-.27.49,3.05,3.05,0,0,1,.16-.52c.15-.39.34-.88.56-1.47a24.84,24.84,0,0,1,1-2.3c.43-.88.86-1.91,1.49-3l.94-1.7c.33-.59.73-1.17,1.11-1.79.75-1.26,1.69-2.52,2.65-3.86a68.86,68.86,0,0,1,7.23-8.09,72.5,72.5,0,0,1,8.63-6.86c1.44-.92,2.79-1.82,4.14-2.54.67-.37,1.3-.76,1.94-1.08l1.83-.91c1.15-.6,2.26-1,3.22-1.45s1.79-.74,2.48-1l1.6-.56A2.39,2.39,0,0,1,102.53,370.11Z"/><path class="cls-1" d="M78.89,384.53a3.4,3.4,0,0,1,1.3-1.76,8.65,8.65,0,0,1,5.24-1.83,15.73,15.73,0,0,1,5.51,1,8.18,8.18,0,0,1,2.08.92,13.3,13.3,0,0,1-2.21-.59,18,18,0,0,0-5.37-.81,9.05,9.05,0,0,0-5,1.6A15.25,15.25,0,0,0,78.89,384.53Z"/><path class="cls-1" d="M75.35,387.85a16.42,16.42,0,0,0,1.49-4.4,16.6,16.6,0,0,0-.33-4.6c.06,0,.36.44.61,1.28a8.17,8.17,0,0,1,.26,3.37,8.41,8.41,0,0,1-1.1,3.23C75.81,387.49,75.41,387.89,75.35,387.85Z"/><path class="cls-1" d="M36.85,432.54c.82,13.16,5.17,26.55,11.88,40.09H77.87c6.39-13.4,10.44-26.77,11.16-40.09Z"/><path class="cls-3" d="M84.31,453.84c0,.14-9.59.25-21.43.25s-21.43-.11-21.43-.25,9.6-.25,21.43-.25S84.31,453.7,84.31,453.84Z"/><path class="cls-3" d="M83.66,458.61c0,.14-9,.25-20.09.25s-20.09-.11-20.09-.25,9-.25,20.09-.25S83.66,458.47,83.66,458.61Z"/><path class="cls-3" d="M49.2,441.18a69.38,69.38,0,0,1,0,12.23,66.91,66.91,0,0,1,0-12.23Z"/><path class="cls-3" d="M64.81,441.18a74.34,74.34,0,0,1,0,12.66,74.34,74.34,0,0,1,0-12.66Z"/><path class="cls-3" d="M79.47,441.07a77.42,77.42,0,0,1,0,12.92,74.66,74.66,0,0,1,0-12.92Z"/><path class="cls-3" d="M88.11,441.18c0,.14-11.25.25-25.13.25s-25.14-.11-25.14-.25,11.25-.25,25.14-.25S88.11,441,88.11,441.18Z"/><path class="cls-4" d="M538.42,472.21c0,.15-120.54.27-269.2.27S0,472.36,0,472.21s120.51-.28,269.22-.28S538.42,472.05,538.42,472.21Z"/><path class="cls-4" d="M399,68.64c.12.1-5.47,5.36-12.49,11.74s-12.8,11.46-12.92,11.35S379.08,86.37,386.1,80,398.91,68.53,399,68.64Z"/><path class="cls-4" d="M342.83,77.15c-.17,0-.31-6.67-.31-14.91s.14-14.91.31-14.91.3,6.67.3,14.91S343,77.15,342.83,77.15Z"/><path class="cls-4" d="M301.43,117.64a90.5,90.5,0,0,1-9.91.29,90.68,90.68,0,0,1-9.9-.27,89.05,89.05,0,0,1,9.9-.28A89.6,89.6,0,0,1,301.43,117.64Z"/><ellipse class="cls-4" cx="342.83" cy="47.25" rx="1.67" ry="1.53"/><ellipse class="cls-4" cx="398.29" cy="69.77" rx="1.67" ry="1.53"/><path class="cls-4" d="M321.73,160.38a1.68,1.68,0,1,1-1.67-1.52A1.61,1.61,0,0,1,321.73,160.38Z"/><path class="cls-4" d="M281.07,69.77c.1-.12,7.28,4.7,16,10.76s15.77,11.08,15.67,11.2S305.49,87,296.74,81,281,69.89,281.07,69.77Z"/><path class="cls-4" d="M279.66,70.1a1.68,1.68,0,1,0,1.68-1.52A1.61,1.61,0,0,0,279.66,70.1Z"/><path class="cls-4" d="M283.43,118.8a1.8,1.8,0,0,1-2.37,0,1.43,1.43,0,0,1,0-2.16,1.79,1.79,0,0,1,2.36,0A1.43,1.43,0,0,1,283.43,118.8Z"/><path class="cls-4" d="M327.55,140.4a17.55,17.55,0,0,1-.87,2.95c-.61,1.8-1.48,4.27-2.49,7s-2,5.16-2.74,6.91a13.26,13.26,0,0,1-1.39,2.78,19.48,19.48,0,0,1,1-2.91l2.56-7c1-2.72,1.95-5.17,2.66-6.94A15.68,15.68,0,0,1,327.55,140.4Z"/><ellipse class="cls-2" cx="341.15" cy="109.69" rx="29.36" ry="26.73"/><path class="cls-4" d="M370.51,109.69a2.55,2.55,0,0,1-.06-.43c0-.31-.06-.73-.1-1.27,0-.28,0-.59-.07-.93s-.12-.72-.19-1.12a17.74,17.74,0,0,0-.62-2.75,24.13,24.13,0,0,0-3.26-7.07,27.47,27.47,0,0,0-7.43-7.52,30.28,30.28,0,0,0-12.26-4.94,31.89,31.89,0,0,0-15.27,1.16,31.54,31.54,0,0,0-3.79,1.52,29.72,29.72,0,0,0-3.57,2.09A32.15,32.15,0,0,0,320.6,91a30.65,30.65,0,0,0-2.85,3.07,24.87,24.87,0,0,0-4.15,7.29,24,24,0,0,0,0,16.7,24.87,24.87,0,0,0,4.15,7.29,30.65,30.65,0,0,0,2.85,3.07,32.15,32.15,0,0,0,3.29,2.55,29.72,29.72,0,0,0,3.57,2.09,31.54,31.54,0,0,0,3.79,1.52,31.9,31.9,0,0,0,15.27,1.16,30.16,30.16,0,0,0,12.26-4.94,27.47,27.47,0,0,0,7.43-7.52,24.13,24.13,0,0,0,3.26-7.07,17.74,17.74,0,0,0,.62-2.75c.07-.41.15-.78.19-1.12s.05-.65.07-.93c0-.54.08-1,.1-1.27a2.55,2.55,0,0,1,.06-.43,2.35,2.35,0,0,1,0,.43c0,.32,0,.74,0,1.28,0,.28,0,.59,0,.94s-.11.71-.17,1.12a16.37,16.37,0,0,1-.57,2.78,23.86,23.86,0,0,1-3.2,7.18,27.55,27.55,0,0,1-7.46,7.67,30.55,30.55,0,0,1-12.42,5.08A32.45,32.45,0,0,1,331.06,135a32.81,32.81,0,0,1-3.87-1.54,32.26,32.26,0,0,1-3.64-2.12,34,34,0,0,1-3.37-2.6,31.9,31.9,0,0,1-2.91-3.13,25.44,25.44,0,0,1-4.25-7.44,26.35,26.35,0,0,1-1.53-8.52,26.63,26.63,0,0,1,1.54-8.52,25.19,25.19,0,0,1,4.24-7.44,31.9,31.9,0,0,1,2.91-3.13,35.16,35.16,0,0,1,3.37-2.6,32.26,32.26,0,0,1,3.64-2.12,32.81,32.81,0,0,1,3.87-1.54,32.41,32.41,0,0,1,15.55-1.13A30.54,30.54,0,0,1,359,88.29,27.55,27.55,0,0,1,366.5,96a23.86,23.86,0,0,1,3.2,7.18,16.37,16.37,0,0,1,.57,2.78c.06.41.13.78.17,1.12s0,.66,0,.94c0,.54,0,1,0,1.28A2.35,2.35,0,0,1,370.51,109.69Z"/><path class="cls-5" d="M375.47,121.66,374.73,107c-.39-7.7-7.13-13.75-15.34-13.75H322.91c-8.2,0-15,6-15.35,13.75l-.74,14.64s-.72,9.85,9,9.85c0,0,4.52,1,7.95-3.57l6.14-7.48,11.2-.17,11.2.17,6.15,7.48c3.43,4.59,7.94,3.57,7.94,3.57C376.21,131.51,375.47,121.66,375.47,121.66ZM321,101.36a.87.87,0,0,1,.92-.83l3.5,0a.88.88,0,0,1,.92.84v2.47a.85.85,0,0,1-.34.65L323.69,106l-2.26-1.52a.82.82,0,0,1-.4-.7Zm-2.11,9h-2.71a.89.89,0,0,1-.92-.84v-3.19a.88.88,0,0,1,.92-.84h2.71a.94.94,0,0,1,.71.31l1.72,2.12L319.68,110A1,1,0,0,1,318.92,110.39Zm7.45,3.91a.88.88,0,0,1-.92.84H322a.87.87,0,0,1-.92-.84v-2.47a.83.83,0,0,1,.33-.65l2.33-1.56,2.27,1.51a.81.81,0,0,1,.41.69Zm4.37-3.91H328a1,1,0,0,1-.71-.32L325.6,108l1.66-2.06a.94.94,0,0,1,.77-.37h2.7a.88.88,0,0,1,.92.83v3.19A.87.87,0,0,1,330.74,110.39Zm25.18-9a.88.88,0,0,1,.92-.83l3.51,0a.88.88,0,0,1,.92.84v2.47a.85.85,0,0,1-.34.65L358.59,106l-2.26-1.52a.83.83,0,0,1-.41-.7Zm-2.11,9h-2.7a.88.88,0,0,1-.92-.84v-3.19a.88.88,0,0,1,.92-.84h2.71a.94.94,0,0,1,.71.31l1.72,2.12L354.57,110A.94.94,0,0,1,353.81,110.39Zm7.46,3.91a.88.88,0,0,1-.92.84h-3.51a.88.88,0,0,1-.92-.84v-2.47a.82.82,0,0,1,.34-.65l2.33-1.56,2.27,1.51a.83.83,0,0,1,.41.69Zm4.37-3.91h-2.71a.93.93,0,0,1-.71-.32L360.5,108l1.66-2.06a.94.94,0,0,1,.77-.37h2.7a.88.88,0,0,1,.92.83v3.19A.89.89,0,0,1,365.64,110.39Z"/><path class="cls-6" d="M359.44,13.56c.84,8.21-5.79,15.5-14.82,16.27s-17-5.27-17.87-13.49S332.54.84,341.56.07,358.59,5.34,359.44,13.56Z"/><g class="cls-7"><path class="cls-2" d="M341.56.07c-9,.77-15.65,8-14.81,16.27,0,0,11.53-.51,13.86-5S341.56.07,341.56.07Z"/></g><path class="cls-8" d="M355.23,13.68c.65,6.24-4.39,11.78-11.26,12.37S331,22,330.39,15.8,334.78,4,341.65,3.42,354.59,7.43,355.23,13.68Z"/><g class="cls-9"><path d="M355.23,13.68c.65,6.24-4.39,11.78-11.26,12.37S331,22,330.39,15.8,334.78,4,341.65,3.42,354.59,7.43,355.23,13.68Z"/></g><path class="cls-5" d="M355.15,13.77C355.78,19.94,350.81,25.4,344,26S331.27,22,330.63,15.86,335,4.23,341.74,3.66,354.51,7.61,355.15,13.77Z"/><path class="cls-6" d="M343.77,14.15l-.3-2.85h0a6.79,6.79,0,0,1,1.7.25,5.64,5.64,0,0,1,.83.38l0-.09.38-1.07.09-.25L345.9,10l-.25.13a6.51,6.51,0,0,0-2.34-.4l-.16-1.57-.57-.35,0,.39-.74.07L342,9.9c-2.4.42-3.42,1.78-3.27,3.22.2,2,2.1,2.32,3.87,2.56l.29,2.83a6.48,6.48,0,0,1-3.22-.81l-.55,1.49a7.47,7.47,0,0,0,3.93.85l.12,1.18-.61.06.65.33,1.27-.11-.16-1.59c2.41-.43,3.45-1.78,3.3-3.22C347.46,14.72,345.53,14.39,343.77,14.15ZM342.46,14c-.93-.17-1.63-.42-1.7-1.1s.35-1.17,1.44-1.42Zm1-2.67Zm.73,7.07-.26-2.5c1,.16,1.68.42,1.75,1.12S345.32,18.12,344.2,18.37Z"/><g class="cls-10"><path d="M343.64,14l-.29-2.85h0a6.87,6.87,0,0,1,1.71.25,5.64,5.64,0,0,1,.83.38l0-.09.38-1.07.09-.24-.62-.49-.25.13a6.51,6.51,0,0,0-2.34-.4L343,8l-.58-.35,0,.39-.73.07.16,1.6c-2.4.41-3.42,1.77-3.27,3.21.2,2,2.1,2.32,3.86,2.56l.3,2.83a6.45,6.45,0,0,1-3.22-.81L339,19a7.45,7.45,0,0,0,3.92.85l.13,1.18-.61.06.64.33,1.28-.11-.16-1.59c2.41-.43,3.45-1.78,3.3-3.22C347.34,14.55,345.41,14.22,343.64,14Zm-1.3-.18c-.93-.17-1.63-.42-1.7-1.1s.35-1.17,1.44-1.42Zm1-2.67Zm.73,7.07-.26-2.5c1,.16,1.67.42,1.74,1.12S345.2,18,344.08,18.2Z"/></g><path class="cls-11" d="M343.79,19.57l.16,1.58-1.27.11-.16-1.57a7.3,7.3,0,0,1-3.93-.85l.55-1.49a6.38,6.38,0,0,0,3.22.81l-.29-2.83c-1.76-.23-3.67-.58-3.87-2.55-.15-1.44.87-2.8,3.28-3.22L341.31,8l1.28-.11.16,1.57A7.19,7.19,0,0,1,346,10l-.49,1.48a7.06,7.06,0,0,0-2.6-.55l.3,2.86c1.76.23,3.69.57,3.9,2.54C347.25,17.79,346.21,19.13,343.79,19.57Zm-1.9-6-.26-2.52c-1.08.25-1.5.8-1.43,1.42S341,13.46,341.89,13.62Zm3.23,3c-.07-.69-.79-1-1.75-1.12l.26,2.51C344.75,17.77,345.18,17.25,345.12,16.64Z"/><path class="cls-2" d="M339.39,13.87a1,1,0,0,1-.4-.29,1.71,1.71,0,0,1-.46-1,1.69,1.69,0,0,1,.33-1.09,1,1,0,0,1,.35-.33s-.13.13-.28.38a1.8,1.8,0,0,0-.28,1,1.84,1.84,0,0,0,.41,1C339.24,13.75,339.4,13.86,339.39,13.87Z"/><path class="cls-2" d="M341.71,9.3s-.08-.2-.1-.46a1,1,0,0,1,0-.47,1.11,1.11,0,0,1,.11.46C341.75,9.09,341.75,9.3,341.71,9.3Z"/><path class="cls-2" d="M342.74,3a1.79,1.79,0,0,1-.4,0l-.47,0c-.18,0-.39,0-.62.05l-.74.09c-.27,0-.55.09-.85.15a16,16,0,0,0-1.88.54,14,14,0,0,0-1.77.8c-.26.14-.51.28-.73.42l-.61.4-.48.36a4.26,4.26,0,0,0-.35.28,2.48,2.48,0,0,1-.31.24s.1-.1.28-.27a3.77,3.77,0,0,1,.34-.3c.13-.11.29-.24.47-.37s.38-.28.6-.42.47-.28.73-.43a13.39,13.39,0,0,1,1.78-.81,14.67,14.67,0,0,1,1.91-.54c.3,0,.58-.11.85-.14s.52-.06.75-.08l.63,0h.47Z"/><path class="cls-4" d="M322.85,41.1a3,3,0,0,1-1.65.63v1h-1v-1a5.77,5.77,0,0,1-1.34-.22,3.67,3.67,0,0,1-1-.47l.52-1.06a3.72,3.72,0,0,0,.85.4,4.35,4.35,0,0,0,1,.21V39.16a8,8,0,0,1-1.14-.33,2,2,0,0,1-.78-.54,1.33,1.33,0,0,1-.32-.93,1.61,1.61,0,0,1,.58-1.24,2.8,2.8,0,0,1,1.66-.63v-1h1v.95a4.63,4.63,0,0,1,1.94.53l-.48,1.07a4,4,0,0,0-1.46-.45V38.1a6.83,6.83,0,0,1,1.13.32,1.94,1.94,0,0,1,.78.53,1.32,1.32,0,0,1,.32.92A1.6,1.6,0,0,1,322.85,41.1Zm-3.13-3.45a1.58,1.58,0,0,0,.52.23V36.65a1,1,0,0,0-.53.24.58.58,0,0,0-.17.4A.45.45,0,0,0,319.72,37.65Zm2,2.7a.5.5,0,0,0,.17-.37.43.43,0,0,0-.18-.36,1.74,1.74,0,0,0-.51-.24v1.2A1.09,1.09,0,0,0,321.72,40.35Z"/><path class="cls-4" d="M329.35,35.57v6.09H327.8v-5h-1.34V35.57Z"/><path class="cls-4" d="M332.06,40.27a.76.76,0,0,1,.26.6,1.34,1.34,0,0,1-.05.35,3.09,3.09,0,0,1-.21.52L331.52,43h-.95l.42-1.39a.76.76,0,0,1-.38-.28.78.78,0,0,1-.14-.46.74.74,0,0,1,.27-.6,1.06,1.06,0,0,1,1.32,0Z"/><path class="cls-4" d="M334.28,41.39a2.51,2.51,0,0,1-1-1.09,4,4,0,0,1,0-3.38,2.54,2.54,0,0,1,1-1.08,2.88,2.88,0,0,1,1.48-.38,2.94,2.94,0,0,1,1.48.38,2.58,2.58,0,0,1,1,1.08,4,4,0,0,1,0,3.38,2.54,2.54,0,0,1-1,1.09,2.93,2.93,0,0,1-1.48.37A2.88,2.88,0,0,1,334.28,41.39Zm2.44-1.3a3.3,3.3,0,0,0,0-3,1.13,1.13,0,0,0-1-.47,1.1,1.1,0,0,0-.95.47,2.49,2.49,0,0,0-.35,1.48,2.47,2.47,0,0,0,.35,1.48,1.11,1.11,0,0,0,.95.48A1.14,1.14,0,0,0,336.72,40.09Z"/><path class="cls-4" d="M344.31,40.51v1.15h-5.05v-.92l2.58-2.21a2.55,2.55,0,0,0,.55-.62,1,1,0,0,0,.15-.51.65.65,0,0,0-.27-.56,1.39,1.39,0,0,0-.8-.19,2,2,0,0,0-.8.15,1.46,1.46,0,0,0-.59.46L339,36.59a2.64,2.64,0,0,1,1.07-.83,3.94,3.94,0,0,1,1.58-.3,3.43,3.43,0,0,1,1.3.23,1.84,1.84,0,0,1,.87.62,1.51,1.51,0,0,1,.31.95,2,2,0,0,1-.22.93,3.79,3.79,0,0,1-.89,1l-1.54,1.32Z"/><path class="cls-4" d="M349.42,38.64a1.55,1.55,0,0,1,.47,1.16,1.68,1.68,0,0,1-.3,1,2.16,2.16,0,0,1-.93.72,3.9,3.9,0,0,1-1.54.27,5.94,5.94,0,0,1-1.39-.17,3.71,3.71,0,0,1-1.16-.48l.6-1.08a3,3,0,0,0,.89.4,3.5,3.5,0,0,0,1,.15,1.72,1.72,0,0,0,.92-.21.63.63,0,0,0,.33-.57c0-.5-.41-.75-1.25-.75h-.7v-.93l1.37-1.42h-2.84V35.57h4.68v.91l-1.51,1.57A2.28,2.28,0,0,1,349.42,38.64Z"/><path class="cls-4" d="M352.16,40.27a.76.76,0,0,1,.25.6,1.34,1.34,0,0,1,0,.35c0,.12-.11.29-.21.52L351.61,43h-.94l.42-1.39a.72.72,0,0,1-.38-.28.78.78,0,0,1-.14-.46.76.76,0,0,1,.26-.6,1.08,1.08,0,0,1,1.33,0Z"/><path class="cls-4" d="M357.66,36.24a3,3,0,0,1,.79,2.24,3.48,3.48,0,0,1-.43,1.78,2.8,2.8,0,0,1-1.19,1.12,4.06,4.06,0,0,1-1.79.38,4.76,4.76,0,0,1-1-.11,2.61,2.61,0,0,1-.83-.31l.57-1a2.34,2.34,0,0,0,1.25.3,1.93,1.93,0,0,0,1.35-.45,1.82,1.82,0,0,0,.53-1.32,2.39,2.39,0,0,1-1.66.55,2.74,2.74,0,0,1-1.16-.24,2.14,2.14,0,0,1-.84-.66,1.71,1.71,0,0,1-.3-1,1.79,1.79,0,0,1,.33-1.07,2.2,2.2,0,0,1,.92-.71,3.28,3.28,0,0,1,1.28-.25A3,3,0,0,1,357.66,36.24Zm-1.26,1.84a.81.81,0,0,0,.32-.66.79.79,0,0,0-.31-.65,1.3,1.3,0,0,0-.85-.25,1.28,1.28,0,0,0-.81.24.78.78,0,0,0-.31.66.81.81,0,0,0,.31.67,1.31,1.31,0,0,0,.82.24A1.28,1.28,0,0,0,356.4,38.08Z"/><path class="cls-4" d="M364.53,39.05a1.42,1.42,0,0,1,.26.84,1.52,1.52,0,0,1-.35,1,2.26,2.26,0,0,1-1,.65,4.42,4.42,0,0,1-1.48.23,4.36,4.36,0,0,1-1.47-.23,2.19,2.19,0,0,1-1-.65,1.46,1.46,0,0,1-.35-1,1.35,1.35,0,0,1,.26-.84,1.74,1.74,0,0,1,.75-.59,1.54,1.54,0,0,1-.57-.53,1.28,1.28,0,0,1-.21-.73,1.39,1.39,0,0,1,.33-.92,2.07,2.07,0,0,1,.91-.6,3.67,3.67,0,0,1,1.33-.22,3.84,3.84,0,0,1,1.36.22,2.07,2.07,0,0,1,.91.6,1.43,1.43,0,0,1,.32.92,1.27,1.27,0,0,1-.2.73,1.57,1.57,0,0,1-.58.53A1.83,1.83,0,0,1,364.53,39.05Zm-1.64,1.44a.77.77,0,0,0,.34-.64.76.76,0,0,0-.34-.64A1.68,1.68,0,0,0,362,39a1.58,1.58,0,0,0-.9.23.77.77,0,0,0,0,1.28,1.5,1.5,0,0,0,.9.24A1.6,1.6,0,0,0,362.89,40.49Zm-1.67-3.79a.67.67,0,0,0-.29.56.64.64,0,0,0,.28.55,1.21,1.21,0,0,0,.75.2,1.28,1.28,0,0,0,.77-.2.63.63,0,0,0,.29-.55.67.67,0,0,0-.29-.56,1.35,1.35,0,0,0-.77-.2A1.25,1.25,0,0,0,361.22,36.7Z"/><path class="cls-4" d="M370.73,35.57v.91l-2.48,5.18h-1.68l2.4-4.94h-2.22v1h-1.37V35.57Z"/><path class="cls-4" d="M330.2,201.09c0,.15-10.84.28-24.21.28s-24.21-.13-24.21-.28,10.83-.27,24.21-.27S330.2,200.94,330.2,201.09Z"/><path class="cls-6" d="M308.39,174.08H288.9a3.3,3.3,0,0,0-3.45,3.13v11.72a3.3,3.3,0,0,0,3.45,3.13h14.63l4.37,3.55-.39-3.55h.36a3.3,3.3,0,0,0,3.44-3.13v-12.2A2.79,2.79,0,0,0,308.39,174.08Zm-16.2,10.76a1.86,1.86,0,1,1,2-1.85A1.94,1.94,0,0,1,292.19,184.84Zm6,0a1.86,1.86,0,1,1,2-1.85A1.94,1.94,0,0,1,298.18,184.84Zm6.39,0a1.86,1.86,0,1,1,2-1.85A1.94,1.94,0,0,1,304.57,184.84Z"/><path class="cls-5" d="M323.28,166.64H304.65a3.46,3.46,0,0,0-3.61,3.28v2.59a.17.17,0,0,0,.18.15h8.29a3.47,3.47,0,0,1,3.61,3.29v8.51a.17.17,0,0,0,.17.16H319a.21.21,0,0,1,.12,0l4,3.24a.17.17,0,0,0,.28-.14l-.33-3a.16.16,0,0,1,.17-.17h0a3.46,3.46,0,0,0,3.61-3.29V169.92A3.46,3.46,0,0,0,323.28,166.64Z"/><path class="cls-6" d="M253.92,119.39a5.53,5.53,0,0,0,3.62-5.12,5.7,5.7,0,0,0-11.4,0,5.53,5.53,0,0,0,3.63,5.17c-8.77,1.21-8.37,9.89-8.37,9.89l20.75.09S262.62,120.59,253.92,119.39Z"/><path class="cls-5" d="M269,120.39a5,5,0,0,0,3.26-4.61,5.13,5.13,0,0,0-10.26,0,5,5,0,0,0,3.27,4.65,12.59,12.59,0,0,0-3.86,1.25c3.35,2.51,2.95,7.28,2.94,7.68l12.05.05S276.8,121.47,269,120.39Z"/><path class="cls-4" d="M254.66,142.94a2,2,0,0,1,.83.67,1.62,1.62,0,0,1,.31,1,1.73,1.73,0,0,1-.34,1.07,2,2,0,0,1-.91.71,3.11,3.11,0,0,1-1.28.25,2.73,2.73,0,0,1-3-3,3.41,3.41,0,0,1,.43-1.77,2.73,2.73,0,0,1,1.2-1.13,4,4,0,0,1,1.78-.38,4.83,4.83,0,0,1,1,.11,2.67,2.67,0,0,1,.84.31l-.57,1a2.39,2.39,0,0,0-1.25-.3,1.93,1.93,0,0,0-1.35.45,1.82,1.82,0,0,0-.54,1.31,2.43,2.43,0,0,1,1.66-.53A2.76,2.76,0,0,1,254.66,142.94Zm-.67,2.39a.86.86,0,0,0,0-1.32,1.26,1.26,0,0,0-.83-.25,1.3,1.3,0,0,0-.83.25.8.8,0,0,0-.32.66.77.77,0,0,0,.31.65,1.34,1.34,0,0,0,.86.26A1.3,1.3,0,0,0,254,145.33Z"/><path class="cls-4" d="M257.75,146.25a2.48,2.48,0,0,1-1-1.08,4,4,0,0,1,0-3.38,2.48,2.48,0,0,1,1-1.08,2.88,2.88,0,0,1,1.48-.38,2.94,2.94,0,0,1,1.48.38,2.52,2.52,0,0,1,1,1.08,4,4,0,0,1,0,3.38,2.52,2.52,0,0,1-1,1.08,2.94,2.94,0,0,1-1.48.38A2.88,2.88,0,0,1,257.75,146.25Zm2.44-1.29a3.3,3.3,0,0,0,0-3,1.14,1.14,0,0,0-1-.48,1.11,1.11,0,0,0-1,.48,3.3,3.3,0,0,0,0,3,1.11,1.11,0,0,0,1,.48A1.14,1.14,0,0,0,260.19,145Z"/><path class="cls-4" d="M263.2,143.27a1.67,1.67,0,0,1-.47-1.23,1.64,1.64,0,0,1,.47-1.22,1.61,1.61,0,0,1,1.19-.45,1.65,1.65,0,0,1,1.2.45,1.68,1.68,0,0,1,.46,1.22,1.7,1.7,0,0,1-.46,1.23,1.65,1.65,0,0,1-1.2.45A1.61,1.61,0,0,1,263.2,143.27Zm1.71-.5a1.25,1.25,0,0,0,.18-.73,1.21,1.21,0,0,0-.18-.72.63.63,0,0,0-.52-.24.59.59,0,0,0-.5.25,1.11,1.11,0,0,0-.19.71,1.13,1.13,0,0,0,.19.72.59.59,0,0,0,.5.25A.63.63,0,0,0,264.91,142.77Zm3.47-2.33h1.13L265,146.52h-1.14Zm-.3,5.95a1.4,1.4,0,0,1-.59-.59,2,2,0,0,1,0-1.77,1.4,1.4,0,0,1,.59-.59,1.7,1.7,0,0,1,.85-.2,1.65,1.65,0,0,1,1.2.45,1.64,1.64,0,0,1,.46,1.22,1.57,1.57,0,0,1-1.66,1.68A1.7,1.7,0,0,1,268.08,146.39Zm1.36-.76a1.13,1.13,0,0,0,.19-.72,1.11,1.11,0,0,0-.19-.71.58.58,0,0,0-.51-.25.63.63,0,0,0-.51.24,1.48,1.48,0,0,0,0,1.45.63.63,0,0,0,.51.24A.58.58,0,0,0,269.44,145.63Z"/><path class="cls-4" d="M283.92,136.28c0,.16-10.84.28-24.21.28s-24.21-.12-24.21-.28,10.83-.27,24.21-.27S283.92,136.13,283.92,136.28Z"/><path class="cls-5" d="M258.92,29.25l2.44,4.51a1.64,1.64,0,0,0,1.24.82l5.46.72a1.47,1.47,0,0,1,.92,2.56l-4,3.51a1.44,1.44,0,0,0-.47,1.33l.93,4.95a1.62,1.62,0,0,1-2.39,1.58l-4.88-2.34a1.8,1.8,0,0,0-1.54,0l-4.88,2.34a1.62,1.62,0,0,1-2.39-1.58l.93-4.95a1.41,1.41,0,0,0-.47-1.33l-4-3.51a1.47,1.47,0,0,1,.92-2.56l5.46-.72a1.64,1.64,0,0,0,1.24-.82L256,29.25A1.73,1.73,0,0,1,258.92,29.25Z"/><path class="cls-4" d="M253.53,64.92a1.35,1.35,0,0,1,.26.84,1.46,1.46,0,0,1-.35,1,2.29,2.29,0,0,1-1,.65,4.88,4.88,0,0,1-3,0,2.19,2.19,0,0,1-1-.65,1.46,1.46,0,0,1-.35-1,1.42,1.42,0,0,1,.26-.84,1.87,1.87,0,0,1,.75-.59,1.54,1.54,0,0,1-.57-.53,1.27,1.27,0,0,1-.2-.73,1.43,1.43,0,0,1,.32-.92,2.07,2.07,0,0,1,.91-.6,3.92,3.92,0,0,1,1.34-.22,4,4,0,0,1,1.35.22,2.07,2.07,0,0,1,.91.6,1.38,1.38,0,0,1,.32.92,1.27,1.27,0,0,1-.2.73,1.5,1.5,0,0,1-.58.53A1.77,1.77,0,0,1,253.53,64.92Zm-1.64,1.44a.77.77,0,0,0,0-1.28,1.67,1.67,0,0,0-.92-.23,1.59,1.59,0,0,0-.91.23.76.76,0,0,0-.34.64.75.75,0,0,0,.34.64,1.51,1.51,0,0,0,.91.24A1.59,1.59,0,0,0,251.89,66.36Zm-1.67-3.79a.68.68,0,0,0-.29.57.64.64,0,0,0,.28.54,1.24,1.24,0,0,0,.76.2,1.26,1.26,0,0,0,.76-.2.62.62,0,0,0,.29-.54.68.68,0,0,0-.29-.57,1.34,1.34,0,0,0-.76-.2A1.26,1.26,0,0,0,250.22,62.57Z"/><path class="cls-4" d="M255.89,67.26a2.54,2.54,0,0,1-1-1.08,3.61,3.61,0,0,1-.37-1.7,3.57,3.57,0,0,1,.37-1.69,2.54,2.54,0,0,1,1-1.08,2.88,2.88,0,0,1,1.48-.38,2.94,2.94,0,0,1,1.48.38,2.58,2.58,0,0,1,1,1.08,3.57,3.57,0,0,1,.37,1.69,3.61,3.61,0,0,1-.37,1.7,2.58,2.58,0,0,1-1,1.08,2.93,2.93,0,0,1-1.48.37A2.88,2.88,0,0,1,255.89,67.26Zm2.44-1.3a3.39,3.39,0,0,0,0-3,1.16,1.16,0,0,0-1-.47,1.11,1.11,0,0,0-.95.47,3.3,3.3,0,0,0,0,3,1.1,1.1,0,0,0,.95.48A1.14,1.14,0,0,0,258.33,66Z"/><path class="cls-4" d="M261.33,64.27a1.85,1.85,0,0,1,0-2.44,1.8,1.8,0,0,1,2.4,0,1.71,1.71,0,0,1-2.4,2.44Zm1.71-.5a1.46,1.46,0,0,0,0-1.44.58.58,0,0,0-.51-.25.6.6,0,0,0-.5.25,1.14,1.14,0,0,0-.19.72,1.16,1.16,0,0,0,.19.72.59.59,0,0,0,.5.24A.6.6,0,0,0,263,63.77Zm3.48-2.33h1.13l-4.56,6.09H262Zm-.31,6a1.41,1.41,0,0,1-.58-.58,1.86,1.86,0,0,1-.21-.89,1.83,1.83,0,0,1,.21-.89,1.5,1.5,0,0,1,.58-.59,1.88,1.88,0,0,1,.86-.2,1.73,1.73,0,0,1,1.2,2.9,1.66,1.66,0,0,1-1.2.46A1.77,1.77,0,0,1,266.21,67.39Zm1.37-.75a1.46,1.46,0,0,0,0-1.44.65.65,0,0,0-1,0,1.46,1.46,0,0,0,0,1.44.63.63,0,0,0,.51.24A.6.6,0,0,0,267.58,66.64Z"/><path class="cls-4" d="M281.83,57.29c0,.15-10.84.28-24.2.28s-24.21-.13-24.21-.28S244.25,57,257.63,57,281.83,57.14,281.83,57.29Z"/><rect class="cls-5" x="408.75" y="51.35" width="10.69" height="18.69"/><rect class="cls-5" x="424.93" y="45.06" width="10.69" height="24.98"/><rect class="cls-5" x="440.82" y="39.83" width="10.69" height="30.21"/><path class="cls-4" d="M426,83.23v.92l-2.49,5.17h-1.68l2.4-4.94h-2.22v1h-1.37V83.23Z"/><path class="cls-4" d="M427.92,89.05a2.54,2.54,0,0,1-1-1.08,4,4,0,0,1,0-3.38,2.51,2.51,0,0,1,1-1.09,2.88,2.88,0,0,1,1.48-.37,2.93,2.93,0,0,1,1.48.37,2.54,2.54,0,0,1,1,1.09,4,4,0,0,1,0,3.38,2.58,2.58,0,0,1-1,1.08,2.94,2.94,0,0,1-1.48.38A2.88,2.88,0,0,1,427.92,89.05Zm2.44-1.29a3.3,3.3,0,0,0,0-3,1.13,1.13,0,0,0-1-.48,1.11,1.11,0,0,0-.95.48,3.3,3.3,0,0,0,0,3,1.13,1.13,0,0,0,.95.47A1.14,1.14,0,0,0,430.36,87.76Z"/><path class="cls-4" d="M433.37,86.06a1.82,1.82,0,0,1,0-2.44,1.58,1.58,0,0,1,1.19-.46,1.6,1.6,0,0,1,1.2.46,1.85,1.85,0,0,1,0,2.44,1.6,1.6,0,0,1-1.2.46A1.58,1.58,0,0,1,433.37,86.06Zm1.71-.5a1.53,1.53,0,0,0,0-1.44.63.63,0,0,0-.52-.24.62.62,0,0,0-.5.24,1.46,1.46,0,0,0,0,1.44.63.63,0,0,0,.5.25A.61.61,0,0,0,435.08,85.56Zm3.47-2.33h1.13l-4.56,6.09H434Zm-.3,6a1.46,1.46,0,0,1-.59-.59,1.83,1.83,0,0,1-.21-.89,1.86,1.86,0,0,1,.21-.89,1.38,1.38,0,0,1,.59-.58,1.7,1.7,0,0,1,.85-.21,1.66,1.66,0,0,1,1.2.46,1.68,1.68,0,0,1-1.2,2.9A1.81,1.81,0,0,1,438.25,89.19Zm1.36-.76a1.46,1.46,0,0,0,0-1.44.6.6,0,0,0-.51-.24.63.63,0,0,0-.51.24,1.46,1.46,0,0,0,0,1.44.65.65,0,0,0,1,0Z"/><path class="cls-4" d="M449.53,76.3c0,.15-8.62.27-19.25.27S411,76.45,411,76.3s8.62-.28,19.26-.28S449.53,76.15,449.53,76.3Z"/><path class="cls-4" d="M442.25,30.27a9.65,9.65,0,0,1-1.07.94l-3.05,2.43c-2.59,2-6.18,4.84-10.16,7.92l-.61.46-.15.12-.15-.12-4.52-3.83h.28l-6.64,5-1.93,1.41a5.74,5.74,0,0,1-.71.47,3.21,3.21,0,0,1,.63-.57L416,43l6.54-5.1.14-.11.14.12,4.54,3.8h-.3l.6-.46c4-3.07,7.61-5.84,10.25-7.82l3.14-2.34A10.22,10.22,0,0,1,442.25,30.27Z"/><path class="cls-4" d="M442.25,37.15a9.87,9.87,0,0,1-.15-2c-.05-1.27-.07-3-.07-5l.22.21h-.39c-2.24,0-4.27,0-5.74-.06a13.19,13.19,0,0,1-2.38-.15,13.19,13.19,0,0,1,2.38-.15c1.47,0,3.5-.06,5.74-.06h.62v.21c0,2,0,3.72-.07,5A8.66,8.66,0,0,1,442.25,37.15Z"/><path class="cls-4" d="M491.37,361.2v111h-174s-4.52-81.75,22-111Z"/><path class="cls-12" d="M363.86,472.21a1,1,0,0,1,0-.3c0-.23,0-.51,0-.86q0-1.21.09-3.33c.11-2.89.23-7.07.48-12.23a398.75,398.75,0,0,1,4.33-40.18c2.61-15.59,6.33-29.54,10.35-39.23a72.79,72.79,0,0,1,5.53-11.16,32,32,0,0,1,1.95-2.82c.25-.3.44-.54.58-.69s.21-.22.22-.21-.05.09-.17.25-.32.42-.53.72c-.44.64-1.1,1.58-1.84,2.86a77.44,77.44,0,0,0-5.33,11.19c-3.9,9.69-7.54,23.61-10.15,39.18s-3.71,29.82-4.51,40.11c-.28,5.13-.51,9.29-.67,12.22-.09,1.41-.16,2.52-.21,3.32,0,.35-.05.64-.07.86A1.4,1.4,0,0,1,363.86,472.21Z"/><path class="cls-1" d="M480.47,371.07v94.67H373.25s5.16-78.61,20.63-94.67Z"/><path class="cls-12" d="M327.4,404.73c0-.16,7-.28,15.65-.28s15.65.12,15.65.28-7,.28-15.65.28S327.4,404.88,327.4,404.73Z"/><path class="cls-12" d="M331.65,398.72c0-.16,6.3-.28,14.06-.28s14.05.12,14.05.28-6.29.28-14.05.28S331.65,398.87,331.65,398.72Z"/><path class="cls-5" d="M323.14,441.19a.9.9,0,0,1,0-.28v-.81a22.24,22.24,0,0,1,.24-3.09A21.79,21.79,0,0,1,328,426.44a16.61,16.61,0,0,1,2.9-2.75,13.74,13.74,0,0,1,4-2,12.31,12.31,0,0,1,4.87-.45,13.28,13.28,0,0,1,4.87,1.62,17.52,17.52,0,0,1,6.89,7.77,24.93,24.93,0,0,1,0,21.09,17.55,17.55,0,0,1-6.89,7.78,13.26,13.26,0,0,1-4.87,1.61,12.5,12.5,0,0,1-4.87-.44,13.76,13.76,0,0,1-4-2,16.61,16.61,0,0,1-2.9-2.75,21.8,21.8,0,0,1-4.59-10.56,22.36,22.36,0,0,1-.24-3.1v-.81a.8.8,0,0,1,0-.27,1.14,1.14,0,0,1,0,.27c0,.22,0,.48.06.8a26.83,26.83,0,0,0,.36,3.08,22.12,22.12,0,0,0,4.69,10.35,15.88,15.88,0,0,0,2.86,2.65,12.74,12.74,0,0,0,3.86,1.89,11.75,11.75,0,0,0,4.64.4,12.64,12.64,0,0,0,4.63-1.56,17.07,17.07,0,0,0,6.65-7.56,24.62,24.62,0,0,0,0-20.65,17.07,17.07,0,0,0-6.65-7.56,12.83,12.83,0,0,0-4.63-1.56,11.75,11.75,0,0,0-4.64.4,13.22,13.22,0,0,0-3.86,1.89,16.26,16.26,0,0,0-2.86,2.66A22,22,0,0,0,323.6,437a26.46,26.46,0,0,0-.36,3.07c0,.32-.05.59-.06.8A1.33,1.33,0,0,1,323.14,441.19Z"/><path class="cls-12" d="M143.82,263.53c-4.25-18.11-8.08-43.58-14.81-52.76-5.47-7.46-18.81-15.3-22.24-29.07-1.84-7.35-3.73-13.19-5.1-17a8.2,8.2,0,0,0-7.84-5.19h-39c-4.24,0-7.6,3.25-7.33,7.1.58,8.2,1.17,21.16-.56,26.1C44.38,200,40.19,213.56,41.8,220c.64,2.54,11,30.5,16.84,46.91A117.14,117.14,0,0,1,64.5,291l6.42,48.35,92.93-1.85S147,277.11,143.82,263.53Zm-69-60.17c-.57.4-1.36,0-1.92-.42a29.28,29.28,0,0,1-9.6-11.4,25.89,25.89,0,0,1-1.68-8.62,30.56,30.56,0,0,1,.16-9,11.24,11.24,0,0,1,5-7.46,4.22,4.22,0,0,1,3.87-.53c1.34.65,1.7,2.22,1.91,3.59L74.49,190c.22,3.88.59,8.42.72,12A1.39,1.39,0,0,1,74.8,203.36Zm21.46-12.62a28,28,0,0,1-7.58,12.6c-.48.47-1.2,1-1.82.68a1.42,1.42,0,0,1-.63-1.22c-.47-3.58-.86-8.12-1.3-12L83.44,170.3c0-1.38.07-3,1.28-3.81a4.27,4.27,0,0,1,3.92,0,11.8,11.8,0,0,1,6.2,6.69A31.13,31.13,0,0,1,96.49,182,25.69,25.69,0,0,1,96.26,190.74Z"/><path class="cls-4" d="M148.66,263.53c-4.24-18.11-8.08-43.58-14.81-52.76-5.46-7.46-18.8-15.3-22.24-29.07-1.84-7.35-3.73-13.19-5.1-17a8.19,8.19,0,0,0-7.84-5.19h-39c-4.24,0-7.6,3.25-7.33,7.1.58,8.2,1.17,21.16-.56,26.1C49.22,200,45,213.56,46.65,220c.63,2.54,11,30.5,16.83,46.91A117.14,117.14,0,0,1,69.34,291l6.43,48.35,92.92-1.85S151.84,277.11,148.66,263.53Zm-69-60.17c-.56.4-1.36,0-1.91-.42a29.11,29.11,0,0,1-9.6-11.4,25.9,25.9,0,0,1-1.69-8.62,30.91,30.91,0,0,1,.16-9,11.31,11.31,0,0,1,5-7.46,4.24,4.24,0,0,1,3.88-.53c1.33.65,1.69,2.22,1.9,3.59l2,20.48c.21,3.88.58,8.42.71,12A1.39,1.39,0,0,1,79.64,203.36Zm21.47-12.62a28,28,0,0,1-7.59,12.6c-.48.47-1.2,1-1.82.68a1.44,1.44,0,0,1-.62-1.22c-.47-3.58-.86-8.12-1.3-12l-1.5-20.52c0-1.38.07-3,1.28-3.81a4.27,4.27,0,0,1,3.92,0,11.76,11.76,0,0,1,6.2,6.69,30.78,30.78,0,0,1,1.65,8.83A25.69,25.69,0,0,1,101.11,190.74Z"/><path class="cls-12" d="M139.35,241c0,.16-18.79.28-42,.28s-42-.12-42-.28,18.79-.28,42-.28S139.35,240.8,139.35,241Z"/><path class="cls-13" d="M171.49,348.94s-19.5-71.6-22.68-85.17c-4.24-18.11-8.07-43.59-14.8-52.77-5.47-7.45-18.81-15.3-22.25-29.06-1.83-7.36-3.73-13.2-5.1-17.05a8.2,8.2,0,0,0-7.83-5.19"/><path class="cls-12" d="M98.83,159.7h.58a8.12,8.12,0,0,1,1.69.25,8.24,8.24,0,0,1,5.08,3.65c2.18,4.83,4.09,12.19,6.68,21.13a34.48,34.48,0,0,0,3.36,6.55,51.79,51.79,0,0,0,5.09,6.34c1.93,2.08,4.07,4.12,6.28,6.22a61.62,61.62,0,0,1,6.47,6.8,34,34,0,0,1,4.32,8.62c1.13,3.05,2.08,6.23,2.93,9.48,1.74,6.51,3.15,13.31,4.62,20.27s2.85,13.75,4.55,20.25S153.81,282,155.36,288c3.18,11.93,6,22.67,8.44,31.71l5.68,21.37c.66,2.51,1.17,4.46,1.52,5.82.17.65.29,1.15.38,1.52a4,4,0,0,1,.11.52l-.17-.51-.44-1.5-1.63-5.8c-1.39-5.06-3.4-12.34-5.88-21.33l-8.56-31.68c-1.56-6-3.21-12.25-4.92-18.75s-3.1-13.31-4.56-20.27-2.88-13.75-4.6-20.24c-.85-3.24-1.79-6.41-2.91-9.44a33.44,33.44,0,0,0-4.23-8.5,62.07,62.07,0,0,0-6.39-6.75c-2.21-2.11-4.35-4.16-6.28-6.26a51.13,51.13,0,0,1-5.11-6.42,34.34,34.34,0,0,1-3.36-6.65c-.78-2.23-1.26-4.4-1.8-6.43s-1.08-3.94-1.61-5.72-1.05-3.43-1.55-4.94a25.82,25.82,0,0,0-1.53-4.06,8.08,8.08,0,0,0-4.89-3.64A11.63,11.63,0,0,0,98.83,159.7Z"/><path class="cls-13" d="M166.51,348.94s-19.73-71.6-22.91-85.17c-4.24-18.11-8.08-43.59-14.81-52.77-5.46-7.45-18.8-15.3-22.24-29.06-1.84-7.36-3.73-13.2-5.1-17.05a8.2,8.2,0,0,0-7.83-5.19"/><rect class="cls-1" x="171.49" y="367.02" width="8.95" height="89.77"/><rect class="cls-1" x="167.39" y="385.45" width="16.79" height="64.65"/><path class="cls-1" d="M81,352.52s54.34,15.83,93.58,15.83,84.5-15.83,84.5-15.83H78.57"/><path class="cls-4" d="M70.15,330.76v16.35c0,3.59,3.21,6.51,7.16,6.51H255.7c4,0,7.16-2.92,7.16-6.51v-7.83c0-3.57-3.15-6.47-7.07-6.52l-185.64-2"/><path class="cls-4" d="M90.21,451.91S126,421,176.63,421.68s85.1,30.23,85.1,30.23l-5,5.09s-40.39-21.06-83.11-19.36S94.51,457,94.51,457Z"/><path class="cls-12" d="M100.73,456.08c8.61,10.29-4.16,21.92-15.47,14.08C76.66,459.87,89.43,448.24,100.73,456.08Z"/><path class="cls-12" d="M186.32,462.58c0,5.31-4.73,9.61-10.56,9.61s-10.55-4.3-10.55-9.61,4.72-9.62,10.55-9.62S186.32,457.27,186.32,462.58Z"/><path class="cls-12" d="M275,462.58c0,5.31-4.72,9.61-10.55,9.61s-10.56-4.3-10.56-9.61,4.73-9.62,10.56-9.62S275,457.27,275,462.58Z"/><path class="cls-4" d="M143.2,282.37l1.16,4.6H251.29a4.22,4.22,0,0,0,4.26-3.29h0a3.86,3.86,0,0,0-2.46-4.21c-6.79-2.83-25.48-9-58.85-8.63-47.3.51-51,7.28-51,7.28Z"/><path class="cls-4" d="M219.5,283.19c-.21,1.48-17.89,56.16-17.89,56.16H183.33L201,283.19Z"/><path class="cls-12" d="M253.12,287c0,.15-24.05.28-53.71.28s-53.72-.13-53.72-.28,24-.28,53.72-.28S253.12,286.82,253.12,287Z"/><path class="cls-4" d="M255.79,353.62l-.42.16-1.24.4-4.79,1.51c-4.15,1.33-10.23,3.08-17.8,5.06-3.81.92-7.95,2-12.48,2.91-2.27.45-4.58,1-7,1.4l-7.49,1.25a207.92,207.92,0,0,1-33.78,2.16c-3-.07-6-.1-8.9-.35l-4.35-.3-2.15-.15-2.12-.23-8.28-.92-7.9-1.19c-2.58-.35-5.06-.84-7.48-1.29l-7-1.32c-4.5-1-8.71-1.86-12.52-2.75l-10.27-2.5c-3-.76-5.59-1.47-7.7-2l-4.86-1.32L86,353.76a2.26,2.26,0,0,1-.42-.14,2.49,2.49,0,0,1,.44.09l1.28.3,4.89,1.22,7.73,1.94,10.28,2.42c3.81.86,8,1.71,12.52,2.67l7,1.3c2.41.44,4.89.92,7.47,1.26l7.88,1.17,8.27.91,2.11.23,2.14.14,4.34.29c2.91.26,5.87.29,8.87.35a210.46,210.46,0,0,0,33.68-2.11l7.47-1.22c2.43-.37,4.74-.93,7-1.37,4.53-.85,8.67-1.94,12.48-2.84,7.58-1.93,13.67-3.62,17.84-4.89l4.83-1.4,1.26-.36Z"/><path class="cls-4" d="M184.18,385.45a62.16,62.16,0,0,1-8.4.28,62.07,62.07,0,0,1-8.39-.28,64.1,64.1,0,0,1,8.39-.28A64.19,64.19,0,0,1,184.18,385.45Z"/><ellipse class="cls-12" cx="208.69" cy="135.41" rx="13.13" ry="11.95"/><path class="cls-4" d="M183.53,90c.3-4.73,3.88-5.06,6.52-4.28a9.87,9.87,0,0,1,11.21,1.53,9,9,0,0,1,8,.82,7.33,7.33,0,0,1,3.35,6.69,7,7,0,0,1,6.62,4.1,6.06,6.06,0,0,1-2.19,7,6,6,0,0,1,3.36,7.42c-1.09,2.76-4.65,4.5-7.77,3.79l-29.76-22C181.18,93.1,183.37,92.56,183.53,90Z"/><path class="cls-14" d="M213.48,118.06c.72-13.22-9.82-24.73-24.23-26.45l-1.44-.17c-15.55-1-25.2,10.44-25.89,24.63l-4.51,47.09-.83,8.94,34.69,10.76,2.31-18.59s15.14-.33,17.27-13.83C211.88,143.93,212.8,130.35,213.48,118.06Z"/><path class="cls-15" d="M193.7,164.26a38.34,38.34,0,0,1-18.69-7.5s3.17,10.27,18.15,10.82Z"/><path class="cls-4" d="M208.68,129.69a2.1,2.1,0,0,1-2.33,1.71,1.93,1.93,0,0,1-1.93-2,2.1,2.1,0,0,1,2.32-1.71A1.94,1.94,0,0,1,208.68,129.69Z"/><path class="cls-4" d="M209.4,125c-.3.22-1.75-1-4-1.32s-4.1.58-4.31.29c-.11-.12.23-.55,1-.94a6.38,6.38,0,0,1,3.5-.55,5.85,5.85,0,0,1,3.16,1.37C209.37,124.41,209.55,124.9,209.4,125Z"/><path class="cls-4" d="M188.47,127.39a2.1,2.1,0,0,1-2.32,1.7,1.93,1.93,0,0,1-1.94-2,2.09,2.09,0,0,1,2.32-1.7A1.92,1.92,0,0,1,188.47,127.39Z"/><path class="cls-4" d="M187.63,122.1c-.3.22-1.76-1-4-1.32s-4.1.57-4.31.29c-.1-.13.23-.55,1-.95a6.46,6.46,0,0,1,3.5-.54A5.92,5.92,0,0,1,187,121C187.6,121.52,187.77,122,187.63,122.1Z"/><path class="cls-4" d="M192.92,138.39a17,17,0,0,1,3.79-.17c.59,0,1.16,0,1.31-.37a2.53,2.53,0,0,0-.16-1.62c-.37-1.35-.75-2.76-1.15-4.25-1.56-6-2.61-11-2.34-11s1.75,4.79,3.31,10.83l1.07,4.26a2.84,2.84,0,0,1,0,2.11,1.44,1.44,0,0,1-1.07.66,4.3,4.3,0,0,1-1,0A16.22,16.22,0,0,1,192.92,138.39Z"/><path class="cls-4" d="M186,139c.37,0,.05,2.28,1.94,4.14s4.56,1.92,4.54,2.23c0,.15-.65.37-1.77.27a6.49,6.49,0,0,1-3.8-1.74,4.67,4.67,0,0,1-1.47-3.45C185.48,139.52,185.83,139,186,139Z"/><path class="cls-4" d="M188.51,116.17c-.35.51-2.24-.21-4.64-.46s-4.44,0-4.61-.6c-.07-.27.4-.71,1.3-1.07a7.89,7.89,0,0,1,3.67-.43,7.3,7.3,0,0,1,3.38,1.24C188.36,115.4,188.67,115.93,188.51,116.17Z"/><path class="cls-4" d="M209.7,119.24c-.43.45-2-.11-3.88-.22s-3.54.17-3.88-.34c-.15-.25.13-.72.86-1.14a5.88,5.88,0,0,1,3.2-.64,5.65,5.65,0,0,1,3.05,1.1C209.7,118.51,209.89,119,209.7,119.24Z"/><path class="cls-4" d="M212.94,111.69s-2.69-8.93-6.89-11.44c-5.08-3-8.2,2.1-13.18.17s-9.83-4.85-15.64-1.84c-6.35,3.29-4,6.41-5.27,12.37-5,24.13-10.81,30.43-10.55,18.81,0-1.27-3.65-2.73-3.45-8.09.25-7,1.16-15.35,3.55-20,2-3.94,5-6.48,10.06-9.06,8-4.07,18-3,24.73-1.55S215.09,101.17,212.94,111.69Z"/><path class="cls-14" d="M162.41,129.51a3.83,3.83,0,0,0-3.84-4.06c-2.8-.09-6.09,1-6.66,6.2-1,9.28,9.43,8.29,9.48,8S162,133.39,162.41,129.51Z"/><path class="cls-15" d="M159.55,136s-.19.1-.5.2a2,2,0,0,1-1.33-.1c-1-.45-1.78-2.09-1.64-3.77a5,5,0,0,1,.74-2.27,2,2,0,0,1,1.47-1.12.92.92,0,0,1,1,.54c.11.27,0,.45.08.47s.23-.13.19-.52a1,1,0,0,0-.33-.62,1.48,1.48,0,0,0-1-.33,2.53,2.53,0,0,0-2,1.28,5.26,5.26,0,0,0-.9,2.53c-.13,1.87.73,3.72,2.16,4.24a2.1,2.1,0,0,0,1.65-.1C159.51,136.21,159.59,136,159.55,136Z"/><path class="cls-4" d="M165.19,111.63a10,10,0,0,0,4,2.32c1.57.33,3.51-.28,4-1.68.21-.63.15-1.4.68-1.84s1.64-.22,2.48,0a6.71,6.71,0,0,0,7.33-3.42c.6,1.11,2.36,1.28,3.6.75a14.74,14.74,0,0,0,3.15-2.36,4.41,4.41,0,0,1,3.71-1.17,11.38,11.38,0,0,0,2.14.7c1.35,0,2.21-1.29,2.58-2.47s.73-2.57,2-3.09,2.44,0,3.64.35,2.82.23,3.29-.82a2,2,0,0,0-.21-1.73,6.85,6.85,0,0,0-7.43-3.19,8.75,8.75,0,0,0-6.77-6.67A9.7,9.7,0,0,0,184,90.41a9.72,9.72,0,0,0-7.8-2.89,9.37,9.37,0,0,0-7.08,4.17A7.26,7.26,0,0,0,162,93a5.77,5.77,0,0,0-1.48,6.5c-2,.73-3.76,2.2-4.08,4.1a3.4,3.4,0,0,0,3.56,3.8,3.24,3.24,0,0,0,.81,4.51,4.05,4.05,0,0,0,5-.46"/><path class="cls-12" d="M159.21,107.27a2.06,2.06,0,0,0,.38,1.85,3.21,3.21,0,0,0,1.87,1.35,3.82,3.82,0,0,0,3-.42l-.42-.11a9,9,0,0,0,1.7,2.55,5.79,5.79,0,0,0,1.69,1.26,4.89,4.89,0,0,0,5.17-.76,5.34,5.34,0,0,0,1.1-1.82c.17-.46.22-.73.18-.74s-.16.23-.39.66a6.35,6.35,0,0,1-1.2,1.64,4.43,4.43,0,0,1-6.11-.6,8.94,8.94,0,0,1-1.62-2.39l-.14-.29-.28.18a3.35,3.35,0,0,1-2.55.42,3,3,0,0,1-1.71-1.1A4.25,4.25,0,0,1,159.21,107.27Z"/><path class="cls-4" d="M250.77,417.05l-10.33,28.3s28.13,19.07,26.78,24.47l-61-16.26,14.1-44.71Z"/><g class="cls-10"><path d="M250.77,417.05l-10.33,28.3s28.13,19.07,26.78,24.47l-61-16.26,14.1-44.71Z"/></g><path class="cls-1" d="M222.35,437.92a2.52,2.52,0,0,0-2.55,2.13,2.36,2.36,0,0,0,2.3,2.32c1.27,0,2.76-1.11,2.69-2.27a2.51,2.51,0,0,0-2.68-2.17"/><g class="cls-16"><path class="cls-2" d="M206.23,453.56l1.61-4.46,57.87,17.26s2.37,1.8,1.51,3.46Z"/></g><path class="cls-1" d="M241.52,445.33c-.1.27-1.63,0-3.37.48s-2.9,1.41-3.13,1.23.7-1.63,2.83-2.18S241.66,445.1,241.52,445.33Z"/><path class="cls-1" d="M247.14,449.45c0,.28-1.45.4-2.83,1.27s-2.07,2-2.36,1.93,0-1.68,1.75-2.74S247.22,449.19,247.14,449.45Z"/><path class="cls-1" d="M248.53,457.39c-.29,0-.27-1.48,1-2.76s2.82-1.5,2.88-1.24-1.07.82-2.07,1.89S248.84,457.44,248.53,457.39Z"/><path class="cls-1" d="M243.09,438.64c-.21.22-1.45-.52-3.17-.86s-3.18-.22-3.26-.49,1.49-.9,3.5-.47S243.3,438.47,243.09,438.64Z"/><path class="cls-4" d="M260.48,424.36l-1.29,29.81s32.84,11.2,33.19,16.73l-63.55-.2-.09-46.52Z"/><path class="cls-1" d="M239.55,451.6a2.35,2.35,0,0,0-1.8,2.69,2.51,2.51,0,0,0,2.91,1.65c1.24-.28,2.31-1.76,1.9-2.86a2.68,2.68,0,0,0-3.24-1.41"/><g class="cls-16"><path class="cls-2" d="M228.83,470.7,229,466,289.88,468s2.83,1.13,2.5,2.95Z"/></g><path class="cls-2" d="M260.22,453.87c0,.29-1.56.41-3.09,1.31s-2.35,2.09-2.63,2,.18-1.74,2.05-2.81S260.29,453.62,260.22,453.87Z"/><path class="cls-2" d="M266.88,456.41c.07.27-1.28.75-2.33,1.94s-1.37,2.45-1.68,2.44-.5-1.61.85-3.07S266.87,456.14,266.88,456.41Z"/><path class="cls-2" d="M270.64,463.68c-.28.06-.71-1.35.09-2.9s2.26-2.15,2.39-1.92-.77,1.06-1.41,2.34S271,463.66,270.64,463.68Z"/><path class="cls-2" d="M259.69,447.05c-.13.26-1.55-.13-3.31,0s-3.12.6-3.28.36,1.16-1.25,3.22-1.34S259.84,446.83,259.69,447.05Z"/><path class="cls-12" d="M183.32,276.21s74.51,15.73,84,27.74c8,10.15-14.55,122.25-14.55,122.25l-41-2.66,5.49-98.4-85.34-24.7,12.9-29.84Z"/><path class="cls-12" d="M189.81,286.84s77.87,17.23,85.74,29.47c3.67,5.71,1.26,24.47-.11,33.33-.92,6-14.69,89.43-14.69,89.43H227.09l.74-94.28h0l-80.91-14.85s-43.43,3-45.11-13.86l18.12-22.37,42.78-19.25Z"/><path class="cls-4" d="M183.88,284.67s.39.08,1.13.27l3.31.84L201,289c5.52,1.41,12.26,3.12,20.06,5.24s16.64,4.65,26.22,8q7.2,2.44,14.86,5.58l3.86,1.59a39.78,39.78,0,0,1,3.8,1.92,25.54,25.54,0,0,1,3.54,2.43,11.94,11.94,0,0,1,2.83,3.22c2.63,10.87,1,22.74-.91,34.88-.85,6.12-1.94,12.36-3,18.74l-3.21,19.53c-2.18,13.26-4.44,27-6.75,41.07-.44,2.66-.87,5.31-1.31,7.94l0,.22H226.81v-.26c.3-35.74.58-68.09.8-94.28l.17.2-57.47-10.64-15.69-2.94-4.09-.78-1.39-.28s.48.06,1.4.22l4.1.73,15.72,2.83,57.51,10.47.18,0v.16c-.18,26.19-.41,58.55-.67,94.28l-.28-.25h33.66l-.28.22q.64-3.94,1.3-7.94c2.32-14.07,4.58-27.8,6.76-41.06q1.65-10,3.22-19.53c1-6.38,2.14-12.62,3-18.73.45-3,.9-6.07,1.34-9a74.45,74.45,0,0,0,.85-8.83q.17-4.36,0-8.61c-.07-1.41-.16-2.81-.29-4.19a9.5,9.5,0,0,0-.89-4A11.44,11.44,0,0,0,273,314a24.29,24.29,0,0,0-3.47-2.39,39.81,39.81,0,0,0-3.74-1.9l-3.85-1.6c-5.09-2.08-10-4-14.83-5.6-9.55-3.32-18.39-5.86-26.16-8s-14.52-3.89-20-5.32l-12.67-3.33L185,285C184.26,284.79,183.88,284.67,183.88,284.67Z"/><path class="cls-6" d="M194.71,178s9.7,3.6,15.23,15.83c3.88,8.59,25.47,35.73,25.47,35.73l57.41,11.61,2,16.67L203,257.19l-12.76-37Z"/><path class="cls-5" d="M192.43,173.42l8.86,8.8L182.93,268l7.84,9.81-89,38.23s-6.79-35-3.38-58.59c3.38-23.44,12.17-50,21.89-70.52,4-8.56,16.1-16.84,25.53-20.45l13-3.25L191.75,180Z"/><path class="cls-4" d="M198.25,183.88a3.84,3.84,0,0,1-.08.76c-.09.55-.2,1.26-.35,2.16-.31,1.88-.81,4.58-1.46,7.92-1.29,6.68-3.25,15.87-5.57,26s-4.54,19.27-6.19,25.88c-.83,3.26-1.5,5.92-2,7.82-.24.88-.43,1.59-.57,2.12a3.51,3.51,0,0,1-.24.73,4.23,4.23,0,0,1,.13-.75c.11-.54.27-1.25.46-2.14.44-1.91,1-4.58,1.8-7.86,1.56-6.67,3.68-15.81,6-25.9s4.34-19.3,5.73-26c.68-3.28,1.24-6,1.64-7.88.19-.89.34-1.61.45-2.14A5.21,5.21,0,0,1,198.25,183.88Z"/><path class="cls-4" d="M120.32,298.74a2.9,2.9,0,0,1,.51-.48l1.54-1.29c.67-.56,1.51-1.24,2.51-2s2.11-1.63,3.4-2.53c2.55-1.85,5.69-3.93,9.28-6.11s7.66-4.39,12.06-6.52,8.73-3.89,12.72-5.39,7.66-2.65,10.78-3.52c1.55-.47,3-.81,4.22-1.13s2.32-.57,3.21-.76l2-.43a4,4,0,0,1,.72-.12,4.19,4.19,0,0,1-.7.22l-2,.53c-.88.21-2,.48-3.18.84s-2.65.71-4.19,1.2c-3.09.91-6.72,2.13-10.7,3.62s-8.26,3.31-12.65,5.4-8.43,4.34-12,6.46-6.74,4.19-9.32,6c-1.31.88-2.44,1.74-3.45,2.47s-1.87,1.38-2.56,1.91l-1.61,1.22A4,4,0,0,1,120.32,298.74Z"/><path class="cls-4" d="M164.55,269.13c.07.12-8.31,4.41-18.72,9.58s-18.91,9.24-19,9.12,8.3-4.42,18.72-9.58S164.47,269,164.55,269.13Z"/><g class="cls-10"><path d="M134.27,207.14c5.35,21.05,21.7,39.91,43.47,48.5A481.77,481.77,0,0,1,134.27,207.14Z"/></g><g class="cls-10"><path d="M196.88,191.11c2.11,8.92.54,20-4.37,28l-1.22-2.31c1.73-6.69,4.21-18.58,5.59-25.68"/></g><path class="cls-14" d="M291.72,242c.49-.68,6.93-7.44,8.66-7.44s3.71,1.8,3.71,1.8a7,7,0,0,1,3.71-.45c1.49.45,8.42,5.86,8.42,7.89v3.38a8.27,8.27,0,0,1,0,2.7c-.25,1.58-4.46,4.28-4.46,4.28H288s-4.54-2.78-4-5.4S291.72,242,291.72,242Z"/><path class="cls-15" d="M304.09,236.39a10.57,10.57,0,0,1,1.48.77l3.93,2.25a14.15,14.15,0,0,1,1.3.81,3.28,3.28,0,0,1,1,1.35,6.37,6.37,0,0,1,.21,1.67c0,.56.07,1.13.1,1.72.13,2.36.26,4.95.41,7.66q0,.63.06,1.23v.22l-.23.05-1.45.33h-.08a3.3,3.3,0,0,1-1.86-.63,5.09,5.09,0,0,1-1.2-1.31,10.84,10.84,0,0,1-1.24-2.91,23.62,23.62,0,0,1-.82-5.2l.13.16-4.15-1.49a10.1,10.1,0,0,1-1.49-.61,10.41,10.41,0,0,1,1.57.42l4.21,1.34.12,0v.12a25.17,25.17,0,0,0,.91,5.1,10.9,10.9,0,0,0,1.22,2.77,3.25,3.25,0,0,0,2.6,1.68h-.07l1.45-.33-.21.27c0-.41-.05-.82-.07-1.23-.12-2.72-.25-5.3-.36-7.67,0-.59-.05-1.16-.07-1.72a5.78,5.78,0,0,0-.17-1.56,2.67,2.67,0,0,0-.8-1.18,14.23,14.23,0,0,0-1.22-.8l-3.83-2.39A8.88,8.88,0,0,1,304.09,236.39Z"/><path class="cls-15" d="M288,253.42a9.07,9.07,0,0,1,1.59-.19l4.32-.32H294c1.41.3,3.07.59,4.89.8.91.11,1.87.19,2.85.21a3.38,3.38,0,0,0,2.61-.68,1.94,1.94,0,0,0,.42-1.32c0-.49-.08-1-.1-1.52a1.8,1.8,0,0,0-.65-1.11,4.67,4.67,0,0,0-1.17-.8,9.63,9.63,0,0,0-5.09-.82,4.2,4.2,0,0,1-3.37-1.23c-.52-.67-.47-1.17-.44-1.16a3.27,3.27,0,0,0,.62,1,4,4,0,0,0,3.18,1,9.83,9.83,0,0,1,5.35.77,5.39,5.39,0,0,1,1.32.87,2.25,2.25,0,0,1,.81,1.46c0,.46.12,1,.11,1.53a2.44,2.44,0,0,1-.54,1.64,2.6,2.6,0,0,1-1.49.77,7.12,7.12,0,0,1-1.58.09c-1,0-2-.12-2.91-.23a47.35,47.35,0,0,1-4.93-.91H294l-4.34.14A8.29,8.29,0,0,1,288,253.42Z"/><path class="cls-15" d="M312.22,253.33a36.11,36.11,0,0,1,1.92-3.93c1.06-2.15,2-3.88,2.19-3.81a17.55,17.55,0,0,1-1.67,4A11.94,11.94,0,0,1,312.22,253.33Z"/><path class="cls-6" d="M133,205.6s41.86,51.89,48.4,51.89h61.15v-21.1l-46.24-9.93S173.55,183.55,168.52,178,150,165.15,139.94,173.4,133,205.6,133,205.6Z"/><path class="cls-14" d="M242.53,238.43l10-.73s.21-3.39,2.4-4.58,2-3.78,3.28-3.59a6.26,6.26,0,0,0,2.19,0l8.31-6.36,7-4.18,5.47-1s3.28.8,0,3.59l-3.5,1.79-3.07,2.79,7-3.13a2.57,2.57,0,0,1,2.07,0,30.52,30.52,0,0,1,5.37,2.74,1.3,1.3,0,0,1,0,2l3.06,2.39s.66,3.19-2.84,2.39l-2.85-.6-3.71,3.39s12.68-2.39,13.56-2,2,2.19,0,3.78-9.63,1.2-11.38,2.79S271.6,251.1,268.75,251.7s-26.18,5.79-26.18,5.79Z"/><path class="cls-15" d="M292.13,230.13a14,14,0,0,1-1.72-1.11c-.52-.35-1.15-.76-1.86-1.2q-.53-.33-1.11-.66a2.77,2.77,0,0,0-1.18-.44,7.47,7.47,0,0,0-2.44.93c-.75.37-1.42.72-2,1a10.84,10.84,0,0,1-1.85.93,6.24,6.24,0,0,1,1.63-1.24c.54-.34,1.19-.73,1.94-1.13.37-.2.77-.4,1.19-.61a4,4,0,0,1,1.49-.42,1.54,1.54,0,0,1,.46.05,3.35,3.35,0,0,1,.38.14l.65.33c.4.24.78.47,1.13.71.7.46,1.31.91,1.8,1.3C291.66,229.5,292.2,230.08,292.13,230.13Z"/><path class="cls-15" d="M261.41,228.76c.1.13-1,.94-2.15,2s-2.21,1.95-2.34,1.84a7,7,0,0,1,1.94-2.22A6.65,6.65,0,0,1,261.41,228.76Z"/><path class="cls-4" d="M168.52,178a25.11,25.11,0,0,1,2.42,3.22c1.45,2.17,3.48,5.42,5.94,9.63,4.93,8.42,11.71,20.62,19.66,35.47l-.16-.11,46.26,9.89.22.05v21.56H239.8l-52,0h-5.92a5.3,5.3,0,0,1-.77,0,3,3,0,0,1-.75-.22,9.65,9.65,0,0,1-1.27-.7,24,24,0,0,1-2.23-1.67,104.47,104.47,0,0,1-7.63-7.26c-4.69-4.87-8.85-9.56-12.62-13.86-7.52-8.61-13.39-15.73-17.43-20.66l-4.62-5.7-1.18-1.49c-.26-.34-.39-.53-.39-.53l.44.49c.28.35.69.84,1.22,1.47l4.7,5.64c4.1,4.89,10,12,17.58,20.55,3.78,4.29,8,9,12.66,13.8a101.3,101.3,0,0,0,7.61,7.2,22.16,22.16,0,0,0,2.18,1.64,8.2,8.2,0,0,0,1.2.65,2.65,2.65,0,0,0,1.3.21h5.92l52,0h2.77l-.28.26v-21.1l.22.25-46.24-10-.11,0,0-.1c-7.9-14.87-14.62-27.09-19.48-35.54-2.41-4.23-4.41-7.49-5.81-9.69-.73-1.08-1.26-1.93-1.7-2.45S168.52,178,168.52,178Z"/><path class="cls-4" d="M162.43,174.65c0,.09-1.43-.42-3.77-.91a31.91,31.91,0,0,0-4.17-.57,32,32,0,0,0-10.21.88,32.49,32.49,0,0,0-4,1.27c-2.2.88-3.46,1.62-3.52,1.54a3.8,3.8,0,0,1,.84-.59,22.11,22.11,0,0,1,2.51-1.29,29.53,29.53,0,0,1,4-1.4,30.07,30.07,0,0,1,10.41-.89,27.58,27.58,0,0,1,4.21.69,21.32,21.32,0,0,1,2.74.84A4.12,4.12,0,0,1,162.43,174.65Z"/><path class="cls-4" d="M187.91,236.05a14.7,14.7,0,0,1,3.12-4.9,15.81,15.81,0,0,1,4.56-3.86c.11.12-2,1.76-4.11,4.19S188.07,236.13,187.91,236.05Z"/><path class="cls-4" d="M186.51,229.59a9.31,9.31,0,0,1,4-2.15,10,10,0,0,1,4.56-.63c0,.15-2,.35-4.36,1.13S186.6,229.72,186.51,229.59Z"/><path class="cls-12" d="M159.17,121.45l0,1h3.78c3.31-30.29,21.16-32.28,20.77-32.55a4,4,0,0,1,1.47-3.58C160.08,89,159,121,159.17,121.45Z"/><ellipse class="cls-12" cx="157.95" cy="131.4" rx="13.13" ry="11.95"/><path class="cls-4" d="M165.13,131.07c-.06,0,0-.54-.32-1.45a6.05,6.05,0,0,0-2.43-3.2,6.94,6.94,0,0,0-6.06-.79,5.63,5.63,0,0,0,0,10.88,7,7,0,0,0,6.06-.79,6.09,6.09,0,0,0,2.43-3.2c.27-.91.26-1.45.32-1.45s0,.13,0,.39a4.4,4.4,0,0,1-.13,1.11,6,6,0,0,1-2.4,3.46,7.41,7.41,0,0,1-6.51,1,6.78,6.78,0,0,1-3.23-2.19,5.91,5.91,0,0,1-1.36-3.73,6,6,0,0,1,1.36-3.74,6.83,6.83,0,0,1,3.23-2.18,7.35,7.35,0,0,1,6.51,1,6,6,0,0,1,2.4,3.46,4.31,4.31,0,0,1,.13,1.11C165.16,130.94,165.15,131.07,165.13,131.07Z"/><path class="cls-4" d="M83.15,282.37l1.16,4.6H191.24a4.21,4.21,0,0,0,4.25-3.29h0a3.86,3.86,0,0,0-2.46-4.21c-6.79-2.83-25.48-9-58.84-8.63-47.3.51-51,7.28-51,7.28Z"/><path class="cls-4" d="M159.44,283.19c-.2,1.48-17.88,56.16-17.88,56.16H123.28l17.65-56.16Z"/><path class="cls-12" d="M193.07,287c0,.15-24,.28-53.72.28s-53.72-.13-53.72-.28,24.05-.28,53.72-.28S193.07,286.82,193.07,287Z"/><path class="cls-1" d="M393.79,187.94c-.12.58,20.3,68.82,20.3,68.82l-32.6.09-.15,3.11h39.12L398.25,180.8Z"/><path class="cls-4" d="M393.79,187.94s.08-.16.26-.47l.82-1.37,3.28-5.35.14-.22.07.25c3.76,13.29,12.12,42.86,22.38,79.12l.1.33H381l0-.29.15-3.11v-.26h.29l32.59-.07-.27.32c-6-20.19-11-37.39-14.63-49.56l-4.07-14.22c-.45-1.64-.79-2.91-1-3.79-.12-.43-.19-.77-.23-1s-.06-.34-.06-.33c.33,1.08,2.18,7.34,5.72,19.25l14.85,49.51.09.32h-.36l-32.6.11.3-.26c-.05,1-.1,2.06-.15,3.11l-.3-.29h39.12l-.29.34c-10.1-36.3-18.33-65.89-22-79.2l.21,0L395,186.14l-.87,1.35C393.91,187.79,393.79,187.94,393.79,187.94Z"/><polygon class="cls-1" points="372.52 230.87 380.45 233.13 422.59 110.15 414.67 107.89 372.52 230.87"/><path class="cls-4" d="M372.52,230.87s.05-.2.19-.61l.6-1.83,2.38-7.08c2.1-6.19,5.13-15.12,8.88-26.19,7.58-22.21,18.08-53,29.81-87.35l.09-.26.29.08,7.92,2.25h0l.29.08-.09.26c-19.71,57.51-36.51,106.27-42.34,122.92l0,.08-.09,0-6-1.76L373,231l-.46-.15.51.13,1.48.4,6,1.64-.12.06c5.61-16.72,22.25-65.53,41.95-123l.2.34h0l-7.93-2.25L415,108c-11.79,34.25-22.35,64.94-30,87.09-3.83,11.07-6.93,20-9.07,26.19-1.07,3.08-1.91,5.47-2.48,7.12-.29.8-.51,1.42-.66,1.85S372.52,230.87,372.52,230.87Z"/><rect class="cls-1" x="262.3" y="254.19" width="83.88" height="5.66"/><path class="cls-4" d="M346.18,259.85s0-.13,0-.38,0-.62,0-1.08c0-1,0-2.37-.07-4.2l.11.1c-12.78.11-45.53.18-83.87.18h0l.31-.28h0v5.64l-.31-.27,59.43.11,17.87.08,4.86,0,1.28,0a3.94,3.94,0,0,1,.44,0,2.78,2.78,0,0,1-.4,0l-1.24,0-4.79,0L322,260l-59.65.12H262v-5.92h0l.3-.27h0c38.34,0,71.09.07,83.87.17h.11v.09c0,1.86-.05,3.27-.06,4.26,0,.45,0,.8,0,1.06A1.17,1.17,0,0,1,346.18,259.85Z"/><path class="cls-4" d="M317.23,260.13a13.64,13.64,0,0,1,0-5.69,13.21,13.21,0,0,1,0,5.69Z"/><rect class="cls-12" x="134.86" y="272.83" width="13" height="199.29"/><path class="cls-4" d="M147.86,472.12s0-.36,0-1,0-1.69,0-3c0-2.65,0-6.53,0-11.53,0-10-.05-24.51-.09-42.48,0-35.91-.08-85.69-.13-141.24l.31.27h-13l.31-.27C135.07,366,135,445,135,472.12l-.1-.09,9.77.05,2.42,0,.81,0h-.78l-2.4,0-9.82.06h-.09v-.09c0-27.14-.12-106.14-.21-199.29v-.28h13.62v.28c-.06,55.63-.1,105.49-.13,141.45,0,17.93-.07,32.41-.1,42.41,0,5,0,8.83,0,11.46,0,1.3,0,2.29,0,3S147.86,472.12,147.86,472.12Z"/><rect class="cls-12" x="384.25" y="268.87" width="13" height="203.25"/><path class="cls-4" d="M397.25,472.12s0-.37,0-1.06,0-1.73,0-3.06c0-2.7,0-6.66,0-11.76,0-10.22-.05-25-.09-43.32,0-36.62-.08-87.39-.13-144l.31.28h-13l.31-.28c-.1,95-.18,175.57-.21,203.25l-.1-.09,9.77.05,2.42,0c.53,0,.81,0,.81,0h-.78l-2.4,0-9.82.06h-.09v-.09c0-27.68-.12-108.25-.21-203.25v-.29h13.62v.28c-.06,56.74-.1,107.58-.13,144.25,0,18.3-.07,33.06-.1,43.26,0,5.07,0,9,0,11.69,0,1.32,0,2.33,0,3S397.25,472.12,397.25,472.12Z"/><rect class="cls-12" x="41.41" y="259.85" width="409.24" height="12.42"/><path class="cls-4" d="M450.65,272.27c0-.45,0-4-.07-12.42l.07.07-409.22.21h0l.31-.28v12.42l-.31-.28,289.8.12,87.4.08,23.74,0,6.18,0,2.12,0-2.08,0-6.13,0-23.67,0-87.34.08-290,.12h-.3v-13h.32l409.22.2h.07v.07c0,4.26,0,7.37,0,9.42S450.65,272.27,450.65,272.27Z"/><path class="cls-4" d="M242,271.91c-.17,0-.31-2.7-.31-6s.14-6,.31-6a31.09,31.09,0,0,1,.3,6A31.09,31.09,0,0,1,242,271.91Z"/></g></g></svg>