<svg xmlns="http://www.w3.org/2000/svg" xmlns:xlink="http://www.w3.org/1999/xlink" viewBox="0 0 538.42 472.74" xmlns:v="https://vecta.io/nano"><style><![CDATA[.Q{fill:#1a2e35}.R{fill:#375a64}.S{fill:#e1e1e1}.T{fill:#fff}.U{fill:#4551e8}.V{fill:#354ac4}.W{fill:#ffc19d}.X{fill:#ff9c6a}]]></style><path d="M347 172.49l.3.93a4 4 0 0 0 2.68 2.64l1.31.41a.41.41 0 0 1 0 .79l-1.26.4a4 4 0 0 0-2.66 2.64l-.3.93a.42.42 0 0 1-.79 0l-.36-1a4.07 4.07 0 0 0-2.65-2.54l-1.4-.44a.41.41 0 0 1 0-.79l1.36-.42a4 4 0 0 0 2.63-2.53l.36-1a.42.42 0 0 1 .78-.02zM149.42 70.14l-2.94-.65a9.32 9.32 0 0 0-4 0l-3.47.77a9.27 9.27 0 0 1-4.35-.1l-2.19-.59a9.17 9.17 0 0 0-5.34.18l-.34.12a9.32 9.32 0 0 1-5.18.22l-2.73-.68a9.22 9.22 0 0 0-4.55 0l-2.12.56a9.23 9.23 0 0 1-5.48-.24l-1.09-.4a9.13 9.13 0 0 0-6.31 0l-.49.19a2.29 2.29 0 0 1-3.18-1.94V36.34c0-14.17 12.62-25.66 28.18-25.66h0c15.57 0 28.18 11.49 28.18 25.66v31.92a2.08 2.08 0 0 1-2.6 1.88z" class="S"/><g class="T"><ellipse cx="110.82" cy="35.01" rx="3.97" ry="3.62"/><ellipse cx="136.35" cy="35.01" rx="3.97" ry="3.62"/><path d="M120.72,35.63a4,4,0,0,0,7.94,0Z"/></g><path d="M115.93 97l.8 2.49a10.93 10.93 0 0 0 7.2 7.12l3.54 1.09a1.11 1.11 0 0 1 0 2.12l-3.4 1.07a10.94 10.94 0 0 0-7.16 7.11l-.8 2.51a1.13 1.13 0 0 1-2.13 0l-1-2.74a10.92 10.92 0 0 0-7.13-6.83l-3.77-1.16a1.11 1.11 0 0 1 0-2.12l3.64-1.13a11 11 0 0 0 7.09-6.82l1-2.77a1.12 1.12 0 0 1 2.12.06zM46.32 50.76l.45 1.44a6.34 6.34 0 0 0 4.17 4.12L53 57a.64.64 0 0 1 0 1.22l-2 .62a6.35 6.35 0 0 0-4.15 4.12l-.46 1.45a.65.65 0 0 1-1.23 0l-.56-1.59a6.32 6.32 0 0 0-4.12-3.95l-2.19-.67a.64.64 0 0 1 0-1.23l2.1-.66a6.31 6.31 0 0 0 4.1-3.95l.56-1.6a.66.66 0 0 1 1.27 0zm467 143.24l.46 1.44a6.35 6.35 0 0 0 4.17 4.13l2 .63a.64.64 0 0 1 0 1.23l-2 .61a6.33 6.33 0 0 0-4.14 4.12l-.47 1.45a.65.65 0 0 1-1.23 0l-.55-1.58a6.34 6.34 0 0 0-4.13-4l-2.19-.67a.64.64 0 0 1 0-1.23l2.11-.65a6.35 6.35 0 0 0 4.1-3.95l.56-1.6a.656.656 0 0 1 1.31.07zM191.76 34.51l.33 1a4.51 4.51 0 0 0 3 3l1.46.45a.46.46 0 0 1 0 .88l-1.4.44a4.52 4.52 0 0 0-3 2.94l-.33 1a.46.46 0 0 1-.88 0l-.4-1.13a4.53 4.53 0 0 0-2.94-2.83l-1.6-.45a.45.45 0 0 1 0-.87l1.51-.47a4.55 4.55 0 0 0 2.93-2.82l.4-1.15a.46.46 0 0 1 .92.01zM46.1 114.87l.3 1a4.22 4.22 0 0 0 2.78 2.75l1.37.43a.43.43 0 0 1 0 .82l-1.31.41a4.24 4.24 0 0 0-2.77 2.72l-.31 1a.43.43 0 0 1-.82 0l-.34-1.09a4.19 4.19 0 0 0-2.75-2.64l-1.46-.45a.43.43 0 0 1 0-.82l1.4-.44a4.2 4.2 0 0 0 2.74-2.63l.37-1.07a.44.44 0 0 1 .8.01zm386.53 190.2l.19.6a2.61 2.61 0 0 0 1.74 1.71l.85.27a.26.26 0 0 1 0 .51l-.82.26a2.6 2.6 0 0 0-1.72 1.71l-.19.61a.28.28 0 0 1-.52 0l-.23-.66a2.59 2.59 0 0 0-1.72-1.64l-.91-.28a.27.27 0 0 1 0-.52l.88-.27a2.66 2.66 0 0 0 1.71-1.64l.23-.67a.27.27 0 0 1 .51.01zm36.31-97.76l-2.23-.5a7 7 0 0 0-3 0l-2.63.58a7 7 0 0 1-3.31-.08l-1.66-.45a6.94 6.94 0 0 0-4.11.14l-.26.09a7 7 0 0 1-3.93.17l-2.08-.52a7 7 0 0 0-3.46 0l-1.6.42a6.87 6.87 0 0 1-4.16-.19l-.83-.3a7 7 0 0 0-4.79 0l-.38.14a1.74 1.74 0 0 1-2.41-1.47v-23.71c0-10.77 9.58-19.49 21.4-19.49h0c11.83 0 21.41 8.72 21.41 19.49v24.25a1.59 1.59 0 0 1-1.97 1.43z" class="S"/><g class="T"><path d="M442.64 180.62a3 3 0 1 1-3-2.75 2.89 2.89 0 0 1 3 2.75z"/><ellipse cx="459.01" cy="180.62" rx="3.02" ry="2.75"/><path d="M447.14,181.09a3,3,0,0,0,6,0Z"/></g><path d="M510.16 145.89l-1.52-.33a4.58 4.58 0 0 0-2.05 0l-1.79.4a4.93 4.93 0 0 1-2.26 0l-1.13-.31a4.84 4.84 0 0 0-2.77.09l-.17.07a4.79 4.79 0 0 1-2.68.11l-1.42-.35a4.68 4.68 0 0 0-2.35 0l-1.1.29a4.79 4.79 0 0 1-2.83-.13l-.57-.21a4.75 4.75 0 0 0-3.26 0l-.26.1a1.19 1.19 0 0 1-1.64-1V128.4c0-7.34 6.53-13.28 14.58-13.28h0c8.06 0 14.59 5.94 14.59 13.28v16.52a1.08 1.08 0 0 1-1.37.97z" class="S"/><g class="T"><ellipse cx="490.19" cy="127.71" rx="2.05" ry="1.87"/><ellipse cx="503.4" cy="127.71" rx="2.05" ry="1.87"/><path d="M495.31,128a2.06,2.06,0,0,0,4.11,0Z"/></g><g class="S"><path d="M435.9 118.13l.19.6a2.62 2.62 0 0 0 1.73 1.71l.86.27a.27.27 0 0 1 0 .51l-.82.25a2.65 2.65 0 0 0-1.73 1.72l-.19.6a.27.27 0 0 1-.51 0l-.23-.66a2.67 2.67 0 0 0-1.72-1.65l-.91-.28a.26.26 0 0 1 0-.51l.87-.27a2.64 2.64 0 0 0 1.71-1.64l.23-.67a.28.28 0 0 1 .52.02zm49.26 130.92l.53 1.69a7.42 7.42 0 0 0 4.88 4.82l2.39.74a.75.75 0 0 1 0 1.43l-2.31.72a7.41 7.41 0 0 0-4.84 4.81l-.54 1.71a.76.76 0 0 1-1.44 0l-.65-1.86a7.42 7.42 0 0 0-4.83-4.62l-2.55-.79a.74.74 0 0 1 0-1.43l2.46-.77a7.39 7.39 0 0 0 4.8-4.62l.66-1.87a.76.76 0 0 1 1.44.04zm9.11-221.84l.54 1.69a7.37 7.37 0 0 0 4.87 4.81l2.4.74a.75.75 0 0 1 0 1.44l-2.3.72a7.42 7.42 0 0 0-4.85 4.81l-.54 1.7a.76.76 0 0 1-1.44 0l-.65-1.86a7.42 7.42 0 0 0-4.83-4.62l-2.55-.79a.75.75 0 0 1 0-1.44l2.46-.76a7.4 7.4 0 0 0 4.79-4.62l.66-1.87a.76.76 0 0 1 1.44.05zM28.93 378.33a39.41 39.41 0 0 0-15.81-4.95c-2.58-.25-5.41-.18-7.48 1.25-.44.3-.87.75-.77 1.24a1.54 1.54 0 0 0 .73.85c6.43 4.47 16.17 5 23.33 1.61m-.41-.41a74.69 74.69 0 0 1-10.21-8.18 23 23 0 0 1-6.4-10.74 4 4 0 0 1 .51-3.61c8.14 5.79 14.53 13.28 16.1 22.57m.33.32a30.6 30.6 0 0 1 .15-12.21A16.51 16.51 0 0 1 36.18 356c1.4 3 .8 6.44-.19 9.57a45 45 0 0 1-7.08 13.58m7.91 12.15a24.19 24.19 0 0 0-12.67 5.84 21.51 21.51 0 0 0-7.26 11.34c4.75-.27 8.78-3.32 11.71-6.74s4.95-7.18 8.16-10.38m1.8 2.02a26.37 26.37 0 0 1 3.61-26.94 31.65 31.65 0 0 1-3.61 26.94m10.54 11.43a24.57 24.57 0 0 0-12.68 2.71 21.64 21.64 0 0 0-8.94 8.63c-.27.48-.51 1.1-.15 1.54a1.73 1.73 0 0 0 1.44.38c4.26-.25 8-2.58 11.15-5.24s5.83-5.73 9.28-8m-.44-.64a33.66 33.66 0 0 1-.4-20.49c.79-2.63 2.13-5.41 4.8-6.65a1.07 1.07 0 0 1 .74-.11.92.92 0 0 1 .46.49 11.36 11.36 0 0 1 1.13 5.87 32.61 32.61 0 0 1-1 5.95c-.84 3.64-1.29 7.55-3.48 10.68a20.71 20.71 0 0 0-1.39 2.35c-.42.8-.42 1.08-.8 1.71M76.67 408c-2.07-7.17.13-15.85 5.08-21.72a1.87 1.87 0 0 1 1.45-.85c.91.08 1.15 1.19 1.11 2A37 37 0 0 1 76.67 408m2.52 1.54a37.41 37.41 0 0 0 28.46-5.27 25.13 25.13 0 0 0-15.41-1.72c-5.14 1.07-9.85 3.17-13 7m2.07-4.78c5.35-7.94 15.61-13.13 25.83-13.6-1.17 3.79-4.59 6.73-8.45 8.51s-8.15 2.55-12.4 3.3c-1.65.29-3.91.61-5 1.79m-4.09-23.14c1.45-4.52 2.91-9.08 3.31-13.78a21.19 21.19 0 0 0-3-13.62c-5 8.8-5.5 19.1-.44 27.87M94 373.89c5.85-9.68 17.78-17.41 29.84-18.49-4.62 10.6-17.32 18.71-29.84 18.49m-3.64 1.89c8.71 1.21 16.14 6.28 24.29 9.36a11.8 11.8 0 0 0 5.49.95c1.87-.22 3.72-1.36 4.14-3a4.14 4.14 0 0 0-1.45-3.88 12 12 0 0 0-4-2.21c-8.87-3.36-18.39-3.44-27.73-1.4"/><path d="M85.31 381.35c2 .51 2.65 1.45 4.21 2.66a47.2 47.2 0 0 0 18.42 8.62c.71.15 1.63.22 2-.36s-.08-1.12-.48-1.57a25.63 25.63 0 0 0-11.12-6.88c-4.25-1.44-7.93-3.18-13-2.8m-5.72-33.3a37.06 37.06 0 0 0 26.73 8.28 1.91 1.91 0 0 0 1.21-.4c.68-.66-.13-1.69-.92-2.25a33.08 33.08 0 0 0-27-5.63m6.73-2.25a40.25 40.25 0 0 1 33.35-5c-4.2 3.77-10 5.79-15.89 6.35a55.13 55.13 0 0 1-17.46-1.34M83.68 330c-.77-7.14-.27-12.78-.81-19.95 0-.58-.18-1.27-.77-1.47-.82-.29-1.5.63-1.77 1.39a21.19 21.19 0 0 0 3.34 19.88"/><path d="M83.12 330.8a44.19 44.19 0 0 0 13-11.5c2.57-3.19 4.73-7 4.15-10.95a12.86 12.86 0 0 0-9.37 4.24 23 23 0 0 0-4.78 8.75c-1 3.14-1.77 6.37-3 9.46m12.77-3.23a107.39 107.39 0 0 0 32-17.17c-3.82-1.4-8.19-.56-12 .84-8.72 3.21-15.85 8.63-20.13 16.26"/><path d="M86.71 334.71c5.9.59 11.9 1 17.75.08s11.2-3 16.58-5a1.94 1.94 0 0 0 1.13-.77 1.14 1.14 0 0 0-.41-1.3 3.57 3.57 0 0 0-1.41-.6c-5.85-1.49-12.16-.79-17.91 1a86.56 86.56 0 0 0-15.73 6.63M53 348c-4-7.4-3.76-16-.28-23.67 2.45 3.4 2.75 7.73 2.3 11.77s-1.8 8.21-1.89 12.27m-16.21-7.8A38.06 38.06 0 0 0 10 351a27.29 27.29 0 0 0 14.75-2.49 75.92 75.92 0 0 0 12.64-7.7m-11.29-3.53c-4.92-.36-9.65-.92-14.38.4s-9 4.32-11 8.46a28.1 28.1 0 0 0 13.48-2.31 79 79 0 0 0 11.86-6.55m16.06.15c-4.43-2.64-9-5.33-14.13-6.42s-11.12-.29-14.71 3.25c4.17 2.23 9.23 2.49 14.07 2.49s10.76-.06 15.32 1.41"/><path d="M42.14 337.64c-7.56-6.76-10.43-18.92-7.39-28.16a39.91 39.91 0 0 1 7.39 28.16m20.8-19.16c1.43-3 2.43-6.2 3.71-9.27a26.1 26.1 0 0 1 5.29-8.54 14.43 14.43 0 0 1 9.37-4.42c-2.25 9.3-9 17.62-18.18 22.27m-3.95 3.95c-2.36-3-5.09-7-8.29-9.19s-7.37-3.54-11.28-2.69c4 6.47 11.48 11 19.57 11.88m.75-3.75a47.92 47.92 0 0 1-3.73-11 15.87 15.87 0 0 1 1.89-11.2c4.15 7.15 5.49 14.83 2 22.28"/><path d="M63 296.52c2.35-7.08 9.48-12.3 17.17-14.69a6.91 6.91 0 0 1 3-.42 2.57 2.57 0 0 1 2.22 1.69c.28 1.21-.81 2.29-1.84 3.09A60.33 60.33 0 0 1 63 296.52m.07-5.79c.3-4.57.61-9.21 2.24-13.54s4.78-8.39 9.35-10.28c.78 4.61-1.45 9.21-4.15 13.18s-6 7.72-7.57 12.15"/><path d="M62.94 293.87c-1.94-5.16-2.14-11.72-5.54-16.22-2.37-3.15-6.17-5.29-8.22-8.62a12 12 0 0 0 .48 9.79 28.67 28.67 0 0 0 6.28 8.18c2.52 2.44 4.67 4.28 7 6.86M63 446c-.15 0-.28-34.45-.29-76.94l.25-76.95c.15 0 .29 34.45.3 76.95L63 446z"/><path d="M96,342.76a7.26,7.26,0,0,1-1.42.49l-3.91,1.2c-3.31,1-7.84,2.51-12.76,4.35s-9.47,3.44-12.09,5.51a8.18,8.18,0,0,0-2.42,2.93c-.38.8-.45,1.3-.5,1.29s0-.13,0-.36a4.75,4.75,0,0,1,.28-1,7.8,7.8,0,0,1,2.37-3.12,21.13,21.13,0,0,1,5.24-3c2.1-.89,4.42-1.82,6.89-2.74,4.94-1.85,9.51-3.28,12.85-4.22,1.66-.48,3-.83,4-1.06A9.76,9.76,0,0,1,96,342.76Z"/><path d="M106.88 318.52s-.13.15-.4.39l-1.21 1-4.54 3.75-15.08 12.27c-5.89 4.77-11 9.33-14.5 12.77-1.77 1.71-3.16 3.13-4.11 4.12L66 354a2.82 2.82 0 0 1-.41.38s.09-.16.32-.44l1-1.2c.9-1 2.25-2.49 4-4.24a183.79 183.79 0 0 1 14.43-12.9l15.19-12.13 4.65-3.63 1.28-1a2.57 2.57 0 0 1 .42-.32z"/><path d="M79.29 340.78c-.15-.06 1.08-2.65 2.3-5.92l2-6a18.49 18.49 0 0 1-1.48 6.14 35.49 35.49 0 0 1-1.83 4.14 5.8 5.8 0 0 1-.99 1.64zM63 361.64a6.53 6.53 0 0 1-.91-1L59.78 358l-7.67-8.94-7.83-8.84-2.37-2.68a6.11 6.11 0 0 1-.82-1 6.46 6.46 0 0 1 1 .9l2.51 2.57c2.09 2.2 4.92 5.28 8 8.76s5.68 6.69 7.55 9l2.19 2.81a6.33 6.33 0 0 1 .66 1.06z"/><path d="M55.77 353.16a11.83 11.83 0 0 1-3-5.18 13.51 13.51 0 0 1-.69-5.22h.24c-.1.4-.18.61-.23.6s0-.22 0-.63h.24a22.29 22.29 0 0 0 1 5.08 35.51 35.51 0 0 0 2.44 5.35zm-9.36-10.72a9.67 9.67 0 0 0-2.12-1.12 15.55 15.55 0 0 0-5.89-.43 40.91 40.91 0 0 0-5.93.87 19.5 19.5 0 0 1-2.44.54 8.89 8.89 0 0 1 2.34-.88 30.09 30.09 0 0 1 6-1 14 14 0 0 1 6.07.59 3.66 3.66 0 0 1 1.97 1.43zm-2.22-2.6c0 .08-1.23-.45-3.25-1.08a37 37 0 0 0-8.1-1.51 36.46 36.46 0 0 0-8.27.38l-3.39.61a3.42 3.42 0 0 1 .86-.33 23.43 23.43 0 0 1 2.46-.63 31.8 31.8 0 0 1 8.38-.53 31.32 31.32 0 0 1 8.19 1.68 21.67 21.67 0 0 1 2.32 1 3.13 3.13 0 0 1 .8.41zm18.75-10.98a60.53 60.53 0 0 1-2.37-7.5 54.94 54.94 0 0 1-1.83-7.62 59.58 59.58 0 0 1 2.36 7.5 54.2 54.2 0 0 1 1.84 7.62z"/><path d="M63.09 328.86a33.44 33.44 0 0 0-2.62-4.49 20.36 20.36 0 0 0-3.87-3.63 3.64 3.64 0 0 1 1.5.7 11.65 11.65 0 0 1 2.82 2.64 9.39 9.39 0 0 1 2.17 4.78zM63 427.6c-.06 0-.17-.83-.6-2.29a30.79 30.79 0 0 0-2.52-6c-2.62-4.86-7.37-11-13.42-17.21-3-3.11-5.9-6.05-8.36-8.87a62.09 62.09 0 0 1-6-7.85 35.84 35.84 0 0 1-3-5.83c-.28-.72-.49-1.28-.6-1.67a2.24 2.24 0 0 1-.15-.6c.05 0 .32.79.94 2.2a42.41 42.41 0 0 0 3.16 5.72 65.63 65.63 0 0 0 6 7.75c2.48 2.78 5.39 5.7 8.39 8.83 6 6.19 10.8 12.44 13.35 17.38a28.45 28.45 0 0 1 2.38 6.07 16.84 16.84 0 0 1 .34 1.73 2.55 2.55 0 0 1 .09.64z"/><path d="M92.86 396.87a15.06 15.06 0 0 1-1.57.8 35.52 35.52 0 0 0-4.06 2.44 46.08 46.08 0 0 0-5.33 4.43l-5.77 6.14c-3.94 4.49-7.62 8.47-9.82 11.65a48.31 48.31 0 0 0-2.47 3.83 11.89 11.89 0 0 1-.84 1.44s0-.15.15-.41.27-.64.52-1.11a36.91 36.91 0 0 1 2.33-3.94c2.14-3.25 5.79-7.28 9.72-11.77 2-2.25 3.92-4.34 5.83-6.14a42.49 42.49 0 0 1 5.47-4.4 29.3 29.3 0 0 1 4.19-2.33c.52-.24.94-.38 1.22-.49s.42-.16.43-.14z"/><path d="M93.44 406.84a25.9 25.9 0 0 1-3.31.44 48.29 48.29 0 0 0-7.85 1.4 24.45 24.45 0 0 0-7 3.36c-1.62 1.14-2.39 2.09-2.46 2s.13-.27.49-.69a11.22 11.22 0 0 1 1.69-1.58 21.83 21.83 0 0 1 7.11-3.56 38.24 38.24 0 0 1 8-1.28 19.09 19.09 0 0 1 3.33-.09z"/><path d="M73.76 413c-.17-.09 1.32-2.17 2.48-5s1.34-5.28 1.53-5.26a4.39 4.39 0 0 1 0 1.62 15.85 15.85 0 0 1-1 3.81 17.35 17.35 0 0 1-1.92 3.49 5.29 5.29 0 0 1-1.09 1.34zm28.77-42.89a2.74 2.74 0 0 1-.53.25l-1.55.65-2.44 1.05-3.17 1.51-1.8.93-1.9 1.1c-1.34.73-2.67 1.64-4.09 2.56a75.59 75.59 0 0 0-8.53 6.84 69.86 69.86 0 0 0-7.21 8l-2.68 3.8-1.13 1.78-1 1.67c-.64 1.06-1.1 2.06-1.55 2.93l-1.07 2.26-.65 1.43a1.93 1.93 0 0 1-.27.49 3.05 3.05 0 0 1 .16-.52l.56-1.47a24.84 24.84 0 0 1 1-2.3l1.49-3 .94-1.7 1.11-1.79c.75-1.26 1.69-2.52 2.65-3.86a68.86 68.86 0 0 1 7.23-8.09 72.5 72.5 0 0 1 8.63-6.86l4.14-2.54 1.94-1.08 1.83-.91c1.15-.6 2.26-1 3.22-1.45s1.79-.74 2.48-1l1.6-.56a2.39 2.39 0 0 1 .59-.12z"/><path d="M78.89 384.53a3.4 3.4 0 0 1 1.3-1.76 8.65 8.65 0 0 1 5.24-1.83 15.73 15.73 0 0 1 5.51 1 8.18 8.18 0 0 1 2.08.92 13.3 13.3 0 0 1-2.21-.59 18 18 0 0 0-5.37-.81 9.05 9.05 0 0 0-5 1.6 15.25 15.25 0 0 0-1.55 1.47zm-3.54 3.32a16.42 16.42 0 0 0 1.49-4.4 16.6 16.6 0 0 0-.33-4.6c.06 0 .36.44.61 1.28a8.17 8.17 0 0 1 .26 3.37 8.41 8.41 0 0 1-1.1 3.23c-.47.76-.87 1.16-.93 1.12zm-38.5 44.69c.82 13.16 5.17 26.55 11.88 40.09h29.14c6.39-13.4 10.44-26.77 11.16-40.09z"/></g><g fill="#fafafa"><path d="M84.31 453.84c0 .14-9.59.25-21.43.25s-21.43-.11-21.43-.25 9.6-.25 21.43-.25l21.43.25zm-.65 4.77c0 .14-9 .25-20.09.25s-20.09-.11-20.09-.25 9-.25 20.09-.25l20.09.25z"/><path d="M49.2 441.18a69.38 69.38 0 0 1 0 12.23 66.91 66.91 0 0 1 0-12.23zm15.61 0a74.34 74.34 0 0 1 0 12.66 74.34 74.34 0 0 1 0-12.66zm14.66-.11a77.42 77.42 0 0 1 0 12.92 74.66 74.66 0 0 1 0-12.92z"/><path d="M88.11 441.18c0 .14-11.25.25-25.13.25s-25.14-.11-25.14-.25 11.25-.25 25.14-.25l25.13.25z"/></g><g class="Q"><path d="M538.42 472.21c0 .15-120.54.27-269.2.27S0 472.36 0 472.21s120.51-.28 269.22-.28l269.2.28zM399 68.64c.12.1-5.47 5.36-12.49 11.74s-12.8 11.46-12.92 11.35 5.49-5.36 12.51-11.73 12.81-11.47 12.9-11.36zm-56.17 8.51c-.17 0-.31-6.67-.31-14.91s.14-14.91.31-14.91.3 6.67.3 14.91-.13 14.91-.3 14.91zm-41.4 40.49a90.5 90.5 0 0 1-9.91.29 90.68 90.68 0 0 1-9.9-.27 89.05 89.05 0 0 1 9.9-.28 89.6 89.6 0 0 1 9.91.26z"/><ellipse cx="342.83" cy="47.25" rx="1.67" ry="1.53"/><ellipse cx="398.29" cy="69.77" rx="1.67" ry="1.53"/><path d="M321.73 160.38a1.68 1.68 0 1 1-1.67-1.52 1.61 1.61 0 0 1 1.67 1.52zm-40.66-90.61c.1-.12 7.28 4.7 16 10.76l15.67 11.2c-.1.12-7.25-4.73-16-10.73S281 69.89 281.07 69.77z"/><path d="M279.66 70.1a1.68 1.68 0 1 0 1.68-1.52 1.61 1.61 0 0 0-1.68 1.52zm3.77 48.7a1.8 1.8 0 0 1-2.37 0 1.43 1.43 0 0 1 0-2.16 1.79 1.79 0 0 1 2.36 0 1.43 1.43 0 0 1 .01 2.16zm44.12 21.6a17.55 17.55 0 0 1-.87 2.95l-2.49 7-2.74 6.91a13.26 13.26 0 0 1-1.39 2.78 19.48 19.48 0 0 1 1-2.91l2.56-7 2.66-6.94a15.68 15.68 0 0 1 1.27-2.79z"/></g><ellipse cx="341.15" cy="109.69" rx="29.36" ry="26.73" class="T"/><path d="M370.51 109.69a2.55 2.55 0 0 1-.06-.43c0-.31-.06-.73-.1-1.27 0-.28 0-.59-.07-.93l-.19-1.12a17.74 17.74 0 0 0-.62-2.75 24.13 24.13 0 0 0-3.26-7.07 27.47 27.47 0 0 0-7.43-7.52 30.28 30.28 0 0 0-12.26-4.94 31.89 31.89 0 0 0-15.27 1.16 31.54 31.54 0 0 0-3.79 1.52 29.72 29.72 0 0 0-3.57 2.09A32.15 32.15 0 0 0 320.6 91a30.65 30.65 0 0 0-2.85 3.07 24.87 24.87 0 0 0-4.15 7.29 24 24 0 0 0 0 16.7 24.87 24.87 0 0 0 4.15 7.29 30.65 30.65 0 0 0 2.85 3.07 32.15 32.15 0 0 0 3.29 2.55 29.72 29.72 0 0 0 3.57 2.09 31.54 31.54 0 0 0 3.79 1.52 31.9 31.9 0 0 0 15.27 1.16 30.16 30.16 0 0 0 12.26-4.94 27.47 27.47 0 0 0 7.43-7.52 24.13 24.13 0 0 0 3.26-7.07 17.74 17.74 0 0 0 .62-2.75l.19-1.12.07-.93c0-.54.08-1 .1-1.27a2.55 2.55 0 0 1 .06-.43 2.35 2.35 0 0 1 0 .43v1.28.94c0 .35-.11.71-.17 1.12a16.37 16.37 0 0 1-.57 2.78 23.86 23.86 0 0 1-3.2 7.18 27.55 27.55 0 0 1-7.46 7.67 30.55 30.55 0 0 1-12.42 5.08 32.45 32.45 0 0 1-15.63-1.19 32.81 32.81 0 0 1-3.87-1.54 32.26 32.26 0 0 1-3.64-2.12 34 34 0 0 1-3.37-2.6 31.9 31.9 0 0 1-2.91-3.13 25.44 25.44 0 0 1-4.25-7.44 26.35 26.35 0 0 1-1.53-8.52 26.63 26.63 0 0 1 1.54-8.52 25.19 25.19 0 0 1 4.24-7.44 31.9 31.9 0 0 1 2.91-3.13 35.16 35.16 0 0 1 3.37-2.6 32.26 32.26 0 0 1 3.64-2.12 32.81 32.81 0 0 1 3.87-1.54 32.41 32.41 0 0 1 15.55-1.13A30.54 30.54 0 0 1 359 88.29a27.55 27.55 0 0 1 7.5 7.71 23.86 23.86 0 0 1 3.2 7.18 16.37 16.37 0 0 1 .57 2.78l.17 1.12c.04.34 0 .66 0 .94v1.28a2.35 2.35 0 0 1 .07.39z" class="Q"/><path d="M375.47 121.66l-.74-14.66c-.39-7.7-7.13-13.75-15.34-13.75h-36.48c-8.2 0-15 6-15.35 13.75l-.74 14.64s-.72 9.85 9 9.85c0 0 4.52 1 7.95-3.57l6.14-7.48 11.2-.17 11.2.17 6.15 7.48c3.43 4.59 7.94 3.57 7.94 3.57 9.81.02 9.07-9.83 9.07-9.83zM321 101.36a.87.87 0 0 1 .92-.83h3.5a.88.88 0 0 1 .92.84v2.47a.85.85 0 0 1-.34.65l-2.31 1.51-2.26-1.52a.82.82 0 0 1-.4-.7zm-2.11 9h-2.71a.89.89 0 0 1-.92-.84v-3.19a.88.88 0 0 1 .92-.84h2.71a.94.94 0 0 1 .71.31l1.72 2.12-1.64 2.08a1 1 0 0 1-.76.39zm7.45 3.91a.88.88 0 0 1-.92.84H322a.87.87 0 0 1-.92-.84v-2.47a.83.83 0 0 1 .33-.65l2.33-1.56 2.27 1.51a.81.81 0 0 1 .41.69zm4.37-3.91H328a1 1 0 0 1-.71-.32L325.6 108l1.66-2.06a.94.94 0 0 1 .77-.37h2.7a.88.88 0 0 1 .92.83v3.19a.87.87 0 0 1-.91.8zm25.18-9a.88.88 0 0 1 .92-.83h3.51a.88.88 0 0 1 .92.84v2.47a.85.85 0 0 1-.34.65l-2.31 1.51-2.26-1.52a.83.83 0 0 1-.41-.7zm-2.11 9h-2.7a.88.88 0 0 1-.92-.84v-3.19a.88.88 0 0 1 .92-.84h2.71a.94.94 0 0 1 .71.31l1.72 2.12-1.65 2.08a.94.94 0 0 1-.76.39zm7.46 3.91a.88.88 0 0 1-.92.84h-3.51a.88.88 0 0 1-.92-.84v-2.47a.82.82 0 0 1 .34-.65l2.33-1.56 2.27 1.51a.83.83 0 0 1 .41.69zm4.37-3.91h-2.71a.93.93 0 0 1-.71-.32L360.5 108l1.66-2.06a.94.94 0 0 1 .77-.37h2.7a.88.88 0 0 1 .92.83v3.19a.89.89 0 0 1-.91.8z" class="U"/><path d="M359.44 13.56c.84 8.21-5.79 15.5-14.82 16.27s-17-5.27-17.87-13.49S332.54.84 341.56.07s17.03 5.27 17.88 13.49z" class="V"/><path d="M341.56.07c-9 .77-15.65 8-14.81 16.27 0 0 11.53-.51 13.86-5s.95-11.27.95-11.27z" opacity=".1" class="T"/><use xlink:href="#B" fill="#3b90ff"/><use xlink:href="#B" opacity=".2"/><path d="M355.15 13.77c.63 6.17-4.34 11.63-11.15 12.23s-12.73-4-13.37-10.14S335 4.23 341.74 3.66s12.77 3.95 13.41 10.11z" class="U"/><path d="M343.77 14.15l-.3-2.85h0a6.79 6.79 0 0 1 1.7.25 5.64 5.64 0 0 1 .83.38v-.09l.38-1.07.09-.25-.57-.52-.25.13a6.51 6.51 0 0 0-2.34-.4l-.16-1.57-.57-.35v.39l-.74.07.16 1.63c-2.4.42-3.42 1.78-3.27 3.22.2 2 2.1 2.32 3.87 2.56l.29 2.83a6.48 6.48 0 0 1-3.22-.81l-.55 1.49a7.47 7.47 0 0 0 3.93.85l.12 1.18-.61.06.65.33 1.27-.11-.16-1.59c2.41-.43 3.45-1.78 3.3-3.22-.16-1.97-2.09-2.3-3.85-2.54zm-1.31-.15c-.93-.17-1.63-.42-1.7-1.1s.35-1.17 1.44-1.42zm1-2.67zm.73 7.07l-.26-2.5c1 .16 1.68.42 1.75 1.12s-.36 1.1-1.48 1.35z" class="V"/><path d="M343.64 14l-.29-2.85h0a6.87 6.87 0 0 1 1.71.25 5.64 5.64 0 0 1 .83.38v-.09l.38-1.07.09-.24-.62-.49-.25.13a6.51 6.51 0 0 0-2.34-.4L343 8l-.58-.35v.39l-.73.07.16 1.6c-2.4.41-3.42 1.77-3.27 3.21.2 2 2.1 2.32 3.86 2.56l.3 2.83a6.45 6.45 0 0 1-3.22-.81L339 19a7.45 7.45 0 0 0 3.92.85l.13 1.18-.61.06.64.33 1.28-.11-.16-1.59c2.41-.43 3.45-1.78 3.3-3.22-.16-1.95-2.09-2.28-3.86-2.5zm-1.3-.18c-.93-.17-1.63-.42-1.7-1.1s.35-1.17 1.44-1.42zm1-2.67zm.73 7.07l-.26-2.5c1 .16 1.67.42 1.74 1.12s-.35 1.16-1.47 1.36z" opacity=".3"/><path d="M343.79 19.57l.16 1.58-1.27.11-.16-1.57a7.3 7.3 0 0 1-3.93-.85l.55-1.49a6.38 6.38 0 0 0 3.22.81l-.29-2.83c-1.76-.23-3.67-.58-3.87-2.55-.15-1.44.87-2.8 3.28-3.22L341.31 8l1.28-.11.16 1.57A7.19 7.19 0 0 1 346 10l-.49 1.48a7.06 7.06 0 0 0-2.6-.55l.3 2.86c1.76.23 3.69.57 3.9 2.54.14 1.46-.9 2.8-3.32 3.24zm-1.9-6l-.26-2.52c-1.08.25-1.5.8-1.43 1.42s.8.99 1.69 1.15zm3.23 3c-.07-.69-.79-1-1.75-1.12l.26 2.51c1.12-.19 1.55-.71 1.49-1.32z" fill="#778cff"/><path d="M339.39 13.87a1 1 0 0 1-.4-.29 1.71 1.71 0 0 1-.46-1 1.69 1.69 0 0 1 .33-1.09 1 1 0 0 1 .35-.33s-.13.13-.28.38a1.8 1.8 0 0 0-.28 1 1.84 1.84 0 0 0 .41 1c.18.21.34.32.33.33zm2.32-4.57s-.08-.2-.1-.46a1 1 0 0 1 0-.47 1.11 1.11 0 0 1 .11.46c.03.26.03.47-.01.47zm1.03-6.3a1.79 1.79 0 0 1-.4 0h-.47c-.18 0-.39 0-.62.05l-.74.09c-.27 0-.55.09-.85.15a16 16 0 0 0-1.88.54 14 14 0 0 0-1.77.8l-.73.42-.61.4-.48.36a4.26 4.26 0 0 0-.35.28 2.48 2.48 0 0 1-.31.24l.28-.27a3.77 3.77 0 0 1 .34-.3l.47-.37.6-.42.73-.43a13.39 13.39 0 0 1 1.78-.81 14.67 14.67 0 0 1 1.91-.54c.3 0 .58-.11.85-.14l.75-.08h.63.47z" class="T"/><path d="M322.85 41.1a3 3 0 0 1-1.65.63v1h-1v-1a5.77 5.77 0 0 1-1.34-.22 3.67 3.67 0 0 1-1-.47l.52-1.06a3.72 3.72 0 0 0 .85.4 4.35 4.35 0 0 0 1 .21v-1.43a8 8 0 0 1-1.14-.33 2 2 0 0 1-.78-.54 1.33 1.33 0 0 1-.32-.93 1.61 1.61 0 0 1 .58-1.24 2.8 2.8 0 0 1 1.66-.63v-1h1v.95a4.63 4.63 0 0 1 1.94.53l-.48 1.07a4 4 0 0 0-1.46-.45v1.51a6.83 6.83 0 0 1 1.13.32 1.94 1.94 0 0 1 .78.53 1.32 1.32 0 0 1 .32.92 1.6 1.6 0 0 1-.61 1.23zm-3.13-3.45a1.58 1.58 0 0 0 .52.23v-1.23a1 1 0 0 0-.53.24.58.58 0 0 0-.17.4.45.45 0 0 0 .18.36zm2 2.7a.5.5 0 0 0 .17-.37.43.43 0 0 0-.18-.36 1.74 1.74 0 0 0-.51-.24v1.2a1.09 1.09 0 0 0 .52-.23zm7.63-4.78v6.09h-1.55v-5h-1.34v-1.09zm2.71 4.7a.76.76 0 0 1 .26.6 1.34 1.34 0 0 1-.05.35 3.09 3.09 0 0 1-.21.52l-.54 1.26h-.95l.42-1.39a.76.76 0 0 1-.38-.28.78.78 0 0 1-.14-.46.74.74 0 0 1 .27-.6 1.06 1.06 0 0 1 1.32 0zm2.22 1.12a2.51 2.51 0 0 1-1-1.09 4 4 0 0 1 0-3.38 2.54 2.54 0 0 1 1-1.08 2.88 2.88 0 0 1 1.48-.38 2.94 2.94 0 0 1 1.48.38 2.58 2.58 0 0 1 1 1.08 4 4 0 0 1 0 3.38 2.54 2.54 0 0 1-1 1.09 2.93 2.93 0 0 1-1.48.37 2.88 2.88 0 0 1-1.48-.37zm2.44-1.3a3.3 3.3 0 0 0 0-3 1.13 1.13 0 0 0-1-.47 1.1 1.1 0 0 0-.95.47 2.49 2.49 0 0 0-.35 1.48 2.47 2.47 0 0 0 .35 1.48 1.11 1.11 0 0 0 .95.48 1.14 1.14 0 0 0 1-.44zm7.59.42v1.15h-5.05v-.92l2.58-2.21a2.55 2.55 0 0 0 .55-.62 1 1 0 0 0 .15-.51.65.65 0 0 0-.27-.56 1.39 1.39 0 0 0-.8-.19 2 2 0 0 0-.8.15 1.46 1.46 0 0 0-.59.46l-1.08-.67a2.64 2.64 0 0 1 1.07-.83 3.94 3.94 0 0 1 1.58-.3 3.43 3.43 0 0 1 1.3.23 1.84 1.84 0 0 1 .87.62 1.51 1.51 0 0 1 .31.95 2 2 0 0 1-.22.93 3.79 3.79 0 0 1-.89 1l-1.54 1.32zm5.11-1.87a1.55 1.55 0 0 1 .47 1.16 1.68 1.68 0 0 1-.3 1 2.16 2.16 0 0 1-.93.72 3.9 3.9 0 0 1-1.54.27 5.94 5.94 0 0 1-1.39-.17 3.71 3.71 0 0 1-1.16-.48l.6-1.08a3 3 0 0 0 .89.4 3.5 3.5 0 0 0 1 .15 1.72 1.72 0 0 0 .92-.21.63.63 0 0 0 .33-.57c0-.5-.41-.75-1.25-.75h-.7v-.93l1.37-1.42h-2.84v-1.16h4.68v.91l-1.51 1.57a2.28 2.28 0 0 1 1.36.59zm2.74 1.63a.76.76 0 0 1 .25.6 1.34 1.34 0 0 1 0 .35c0 .12-.11.29-.21.52l-.59 1.26h-.94l.42-1.39a.72.72 0 0 1-.38-.28.78.78 0 0 1-.14-.46.76.76 0 0 1 .26-.6 1.08 1.08 0 0 1 1.33 0zm5.5-4.03a3 3 0 0 1 .79 2.24 3.48 3.48 0 0 1-.43 1.78 2.8 2.8 0 0 1-1.19 1.12 4.06 4.06 0 0 1-1.79.38 4.76 4.76 0 0 1-1-.11 2.61 2.61 0 0 1-.83-.31l.57-1a2.34 2.34 0 0 0 1.25.3 1.93 1.93 0 0 0 1.35-.45 1.82 1.82 0 0 0 .53-1.32 2.39 2.39 0 0 1-1.66.55 2.74 2.74 0 0 1-1.16-.24 2.14 2.14 0 0 1-.84-.66 1.71 1.71 0 0 1-.3-1 1.79 1.79 0 0 1 .33-1.07 2.2 2.2 0 0 1 .92-.71 3.28 3.28 0 0 1 1.28-.25 3 3 0 0 1 2.18.75zm-1.26 1.84a.81.81 0 0 0 .32-.66.79.79 0 0 0-.31-.65 1.3 1.3 0 0 0-.85-.25 1.28 1.28 0 0 0-.81.24.78.78 0 0 0-.31.66.81.81 0 0 0 .31.67 1.31 1.31 0 0 0 .82.24 1.28 1.28 0 0 0 .83-.25zm8.13.97a1.42 1.42 0 0 1 .26.84 1.52 1.52 0 0 1-.35 1 2.26 2.26 0 0 1-1 .65 4.42 4.42 0 0 1-1.48.23 4.36 4.36 0 0 1-1.47-.23 2.19 2.19 0 0 1-1-.65 1.46 1.46 0 0 1-.35-1 1.35 1.35 0 0 1 .26-.84 1.74 1.74 0 0 1 .75-.59 1.54 1.54 0 0 1-.57-.53 1.28 1.28 0 0 1-.21-.73 1.39 1.39 0 0 1 .33-.92 2.07 2.07 0 0 1 .91-.6 3.67 3.67 0 0 1 1.33-.22 3.84 3.84 0 0 1 1.36.22 2.07 2.07 0 0 1 .91.6 1.43 1.43 0 0 1 .32.92 1.27 1.27 0 0 1-.2.73 1.57 1.57 0 0 1-.58.53 1.83 1.83 0 0 1 .78.59zm-1.64 1.44a.77.77 0 0 0 .34-.64.76.76 0 0 0-.34-.64A1.68 1.68 0 0 0 362 39a1.58 1.58 0 0 0-.9.23.77.77 0 0 0 0 1.28 1.5 1.5 0 0 0 .9.24 1.6 1.6 0 0 0 .89-.26zm-1.67-3.79a.67.67 0 0 0-.29.56.64.64 0 0 0 .28.55 1.21 1.21 0 0 0 .75.2 1.28 1.28 0 0 0 .77-.2.63.63 0 0 0 .29-.55.67.67 0 0 0-.29-.56 1.35 1.35 0 0 0-.77-.2 1.25 1.25 0 0 0-.74.2zm9.51-1.13v.91l-2.48 5.18h-1.68l2.4-4.94h-2.22v1h-1.37v-2.15zM330.2 201.09c0 .15-10.84.28-24.21.28s-24.21-.13-24.21-.28 10.83-.27 24.21-.27l24.21.27z" class="Q"/><path d="M308.39 174.08H288.9a3.3 3.3 0 0 0-3.45 3.13v11.72a3.3 3.3 0 0 0 3.45 3.13h14.63l4.37 3.55-.39-3.55h.36a3.3 3.3 0 0 0 3.44-3.13v-12.2a2.79 2.79 0 0 0-2.92-2.65zm-16.2 10.76a1.86 1.86 0 1 1 2-1.85 1.94 1.94 0 0 1-2 1.85zm6 0a1.86 1.86 0 1 1 2-1.85 1.94 1.94 0 0 1-2.01 1.85zm6.39 0a1.86 1.86 0 1 1 2-1.85 1.94 1.94 0 0 1-2.01 1.85z" class="V"/><path d="M323.28 166.64h-18.63a3.46 3.46 0 0 0-3.61 3.28v2.59a.17.17 0 0 0 .18.15h8.29a3.47 3.47 0 0 1 3.61 3.29v8.51a.17.17 0 0 0 .17.16H319a.21.21 0 0 1 .12 0l4 3.24a.17.17 0 0 0 .28-.14l-.33-3a.16.16 0 0 1 .17-.17h0a3.46 3.46 0 0 0 3.61-3.29v-11.34a3.46 3.46 0 0 0-3.57-3.28z" class="U"/><path d="M253.92 119.39a5.53 5.53 0 0 0 3.62-5.12 5.7 5.7 0 0 0-11.4 0 5.53 5.53 0 0 0 3.63 5.17c-8.77 1.21-8.37 9.89-8.37 9.89l20.75.09s.47-8.83-8.23-10.03z" class="V"/><path d="M269 120.39a5 5 0 0 0 3.26-4.61 5.13 5.13 0 0 0-10.26 0 5 5 0 0 0 3.27 4.65 12.59 12.59 0 0 0-3.86 1.25c3.35 2.51 2.95 7.28 2.94 7.68l12.05.05s.4-7.94-7.4-9.02z" class="U"/><path d="M254.66 142.94a2 2 0 0 1 .83.67 1.62 1.62 0 0 1 .31 1 1.73 1.73 0 0 1-.34 1.07 2 2 0 0 1-.91.71 3.11 3.11 0 0 1-1.28.25 2.73 2.73 0 0 1-3-3 3.41 3.41 0 0 1 .43-1.77 2.73 2.73 0 0 1 1.2-1.13 4 4 0 0 1 1.78-.38 4.83 4.83 0 0 1 1 .11 2.67 2.67 0 0 1 .84.31l-.57 1a2.39 2.39 0 0 0-1.25-.3 1.93 1.93 0 0 0-1.35.45 1.82 1.82 0 0 0-.54 1.31 2.43 2.43 0 0 1 1.66-.53 2.76 2.76 0 0 1 1.19.23zm-.67 2.39a.86.86 0 0 0 0-1.32 1.26 1.26 0 0 0-.83-.25 1.3 1.3 0 0 0-.83.25.8.8 0 0 0-.32.66.77.77 0 0 0 .31.65 1.34 1.34 0 0 0 .86.26 1.3 1.3 0 0 0 .82-.25zm3.76.92a2.48 2.48 0 0 1-1-1.08 4 4 0 0 1 0-3.38 2.48 2.48 0 0 1 1-1.08 2.88 2.88 0 0 1 1.48-.38 2.94 2.94 0 0 1 1.48.38 2.52 2.52 0 0 1 1 1.08 4 4 0 0 1 0 3.38 2.52 2.52 0 0 1-1 1.08 2.94 2.94 0 0 1-1.48.38 2.88 2.88 0 0 1-1.48-.38zm2.44-1.29a3.3 3.3 0 0 0 0-3 1.14 1.14 0 0 0-1-.48 1.11 1.11 0 0 0-1 .48 3.3 3.3 0 0 0 0 3 1.11 1.11 0 0 0 1 .48 1.14 1.14 0 0 0 1-.44zm3.01-1.69a1.67 1.67 0 0 1-.47-1.23 1.64 1.64 0 0 1 .47-1.22 1.61 1.61 0 0 1 1.19-.45 1.65 1.65 0 0 1 1.2.45 1.68 1.68 0 0 1 .46 1.22 1.7 1.7 0 0 1-.46 1.23 1.65 1.65 0 0 1-1.2.45 1.61 1.61 0 0 1-1.19-.45zm1.71-.5a1.25 1.25 0 0 0 .18-.73 1.21 1.21 0 0 0-.18-.72.63.63 0 0 0-.52-.24.59.59 0 0 0-.5.25 1.11 1.11 0 0 0-.19.71 1.13 1.13 0 0 0 .19.72.59.59 0 0 0 .5.25.63.63 0 0 0 .52-.24zm3.47-2.33h1.13l-4.51 6.08h-1.14zm-.3 5.95a1.4 1.4 0 0 1-.59-.59 2 2 0 0 1 0-1.77 1.4 1.4 0 0 1 .59-.59 1.7 1.7 0 0 1 .85-.2 1.65 1.65 0 0 1 1.2.45 1.64 1.64 0 0 1 .46 1.22 1.57 1.57 0 0 1-1.66 1.68 1.7 1.7 0 0 1-.85-.2zm1.36-.76a1.13 1.13 0 0 0 .19-.72 1.11 1.11 0 0 0-.19-.71.58.58 0 0 0-.51-.25.63.63 0 0 0-.51.24 1.48 1.48 0 0 0 0 1.45.63.63 0 0 0 .51.24.58.58 0 0 0 .51-.25zm14.48-9.35c0 .16-10.84.28-24.21.28s-24.21-.12-24.21-.28 10.83-.27 24.21-.27l24.21.27z" class="Q"/><path d="M258.92 29.25l2.44 4.51a1.64 1.64 0 0 0 1.24.82l5.46.72a1.47 1.47 0 0 1 .92 2.56l-4 3.51a1.44 1.44 0 0 0-.47 1.33l.93 4.95a1.62 1.62 0 0 1-2.39 1.58l-4.88-2.34a1.8 1.8 0 0 0-1.54 0l-4.88 2.34a1.62 1.62 0 0 1-2.39-1.58l.93-4.95a1.41 1.41 0 0 0-.47-1.33l-4-3.51a1.47 1.47 0 0 1 .92-2.56l5.46-.72a1.64 1.64 0 0 0 1.24-.82l2.56-4.51a1.73 1.73 0 0 1 2.92 0z" class="U"/><path d="M253.53 64.92a1.35 1.35 0 0 1 .26.84 1.46 1.46 0 0 1-.35 1 2.29 2.29 0 0 1-1 .65 4.88 4.88 0 0 1-3 0 2.19 2.19 0 0 1-1-.65 1.46 1.46 0 0 1-.35-1 1.42 1.42 0 0 1 .26-.84 1.87 1.87 0 0 1 .75-.59 1.54 1.54 0 0 1-.57-.53 1.27 1.27 0 0 1-.2-.73 1.43 1.43 0 0 1 .32-.92 2.07 2.07 0 0 1 .91-.6 3.92 3.92 0 0 1 1.34-.22 4 4 0 0 1 1.35.22 2.07 2.07 0 0 1 .91.6 1.38 1.38 0 0 1 .32.92 1.27 1.27 0 0 1-.2.73 1.5 1.5 0 0 1-.58.53 1.77 1.77 0 0 1 .83.59zm-1.64 1.44a.77.77 0 0 0 0-1.28 1.67 1.67 0 0 0-.92-.23 1.59 1.59 0 0 0-.91.23.76.76 0 0 0-.34.64.75.75 0 0 0 .34.64 1.51 1.51 0 0 0 .91.24 1.59 1.59 0 0 0 .92-.24zm-1.67-3.79a.68.68 0 0 0-.29.57.64.64 0 0 0 .28.54 1.24 1.24 0 0 0 .76.2 1.26 1.26 0 0 0 .76-.2.62.62 0 0 0 .29-.54.68.68 0 0 0-.29-.57 1.34 1.34 0 0 0-.76-.2 1.26 1.26 0 0 0-.75.2zm5.67 4.69a2.54 2.54 0 0 1-1-1.08 3.61 3.61 0 0 1-.37-1.7 3.57 3.57 0 0 1 .37-1.69 2.54 2.54 0 0 1 1-1.08 2.88 2.88 0 0 1 1.48-.38 2.94 2.94 0 0 1 1.48.38 2.58 2.58 0 0 1 1 1.08 3.57 3.57 0 0 1 .37 1.69 3.61 3.61 0 0 1-.37 1.7 2.58 2.58 0 0 1-1 1.08 2.93 2.93 0 0 1-1.48.37 2.88 2.88 0 0 1-1.48-.37zm2.44-1.3a3.39 3.39 0 0 0 0-3 1.16 1.16 0 0 0-1-.47 1.11 1.11 0 0 0-.95.47 3.3 3.3 0 0 0 0 3 1.1 1.1 0 0 0 .95.48 1.14 1.14 0 0 0 1-.44zm3-1.69a1.85 1.85 0 0 1 0-2.44 1.8 1.8 0 0 1 2.4 0 1.711 1.711 0 0 1-2.4 2.44zm1.71-.5a1.46 1.46 0 0 0 0-1.44.58.58 0 0 0-.51-.25.6.6 0 0 0-.5.25 1.14 1.14 0 0 0-.19.72 1.16 1.16 0 0 0 .19.72.59.59 0 0 0 .5.24.6.6 0 0 0 .47-.24zm3.48-2.33h1.13l-4.56 6.09H262zm-.31 6a1.41 1.41 0 0 1-.58-.58 1.86 1.86 0 0 1-.21-.89 1.83 1.83 0 0 1 .21-.89 1.5 1.5 0 0 1 .58-.59 1.88 1.88 0 0 1 .86-.2 1.73 1.73 0 0 1 1.2 2.9 1.66 1.66 0 0 1-1.2.46 1.77 1.77 0 0 1-.86-.26zm1.37-.75a1.46 1.46 0 0 0 0-1.44.65.65 0 0 0-1 0 1.46 1.46 0 0 0 0 1.44.63.63 0 0 0 .51.24.6.6 0 0 0 .49-.29zm14.25-9.4c0 .15-10.84.28-24.2.28s-24.21-.13-24.21-.28 10.83-.29 24.21-.29l24.2.29z" class="Q"/><path d="M408.75 51.35h10.69v18.69h-10.69zm16.18-6.29h10.69v24.98h-10.69zm15.89-5.23h10.69v30.21h-10.69z" class="U"/><g class="Q"><path d="M426 83.23v.92l-2.49 5.17h-1.68l2.4-4.94h-2.22v1h-1.37v-2.15zm1.92 5.82a2.54 2.54 0 0 1-1-1.08 4 4 0 0 1 0-3.38 2.51 2.51 0 0 1 1-1.09 2.88 2.88 0 0 1 1.48-.37 2.93 2.93 0 0 1 1.48.37 2.54 2.54 0 0 1 1 1.09 4 4 0 0 1 0 3.38 2.58 2.58 0 0 1-1 1.08 2.94 2.94 0 0 1-1.48.38 2.88 2.88 0 0 1-1.48-.38zm2.44-1.29a3.3 3.3 0 0 0 0-3 1.13 1.13 0 0 0-1-.48 1.11 1.11 0 0 0-.95.48 3.3 3.3 0 0 0 0 3 1.13 1.13 0 0 0 .95.47 1.14 1.14 0 0 0 1-.47zm3.01-1.7a1.82 1.82 0 0 1 0-2.44 1.58 1.58 0 0 1 1.19-.46 1.6 1.6 0 0 1 1.2.46 1.85 1.85 0 0 1 0 2.44 1.6 1.6 0 0 1-1.2.46 1.58 1.58 0 0 1-1.19-.46zm1.71-.5a1.53 1.53 0 0 0 0-1.44.63.63 0 0 0-.52-.24.62.62 0 0 0-.5.24 1.46 1.46 0 0 0 0 1.44.63.63 0 0 0 .5.25.61.61 0 0 0 .52-.25zm3.47-2.33h1.13l-4.56 6.09H434zm-.3 6a1.46 1.46 0 0 1-.59-.59 1.83 1.83 0 0 1-.21-.89 1.86 1.86 0 0 1 .21-.89 1.38 1.38 0 0 1 .59-.58 1.7 1.7 0 0 1 .85-.21 1.66 1.66 0 0 1 1.2.46 1.68 1.68 0 0 1-1.2 2.9 1.81 1.81 0 0 1-.85-.24zm1.36-.76a1.46 1.46 0 0 0 0-1.44.6.6 0 0 0-.51-.24.63.63 0 0 0-.51.24 1.46 1.46 0 0 0 0 1.44.65.65 0 0 0 1 0zm9.92-12.17c0 .15-8.62.27-19.25.27S411 76.45 411 76.3s8.62-.28 19.26-.28 19.27.13 19.27.28zm-7.28-46.03a9.65 9.65 0 0 1-1.07.94l-3.05 2.43-10.16 7.92-.61.46-.15.12-.15-.12-4.52-3.83h.28l-6.64 5-1.93 1.41a5.74 5.74 0 0 1-.71.47 3.21 3.21 0 0 1 .63-.57L416 43l6.54-5.1.14-.11.14.12 4.54 3.8h-.3l.6-.46 10.25-7.82 3.14-2.34a10.22 10.22 0 0 1 1.2-.82z"/><path d="M442.25 37.15a9.87 9.87 0 0 1-.15-2l-.07-5 .22.21h-.39c-2.24 0-4.27 0-5.74-.06a13.19 13.19 0 0 1-2.38-.15 13.19 13.19 0 0 1 2.38-.15l5.74-.06h.62v.21l-.07 5a8.66 8.66 0 0 1-.16 2zm49.12 324.05v111h-174s-4.52-81.75 22-111z"/></g><path d="M363.86 472.21a1 1 0 0 1 0-.3v-.86q0-1.21.09-3.33l.48-12.23a398.75 398.75 0 0 1 4.33-40.18c2.61-15.59 6.33-29.54 10.35-39.23a72.79 72.79 0 0 1 5.53-11.16 32 32 0 0 1 1.95-2.82c.25-.3.44-.54.58-.69s.21-.22.22-.21-.05.09-.17.25-.32.42-.53.72c-.44.64-1.1 1.58-1.84 2.86a77.44 77.44 0 0 0-5.33 11.19c-3.9 9.69-7.54 23.61-10.15 39.18s-3.71 29.82-4.51 40.11l-.67 12.22-.21 3.32c0 .35-.05.64-.07.86a1.4 1.4 0 0 1-.05.3z" class="R"/><path d="M480.47,371.07v94.67H373.25s5.16-78.61,20.63-94.67Z" class="S"/><path d="M327.4 404.73c0-.16 7-.28 15.65-.28s15.65.12 15.65.28-7 .28-15.65.28-15.65-.13-15.65-.28zm4.25-6.01c0-.16 6.3-.28 14.06-.28s14.05.12 14.05.28-6.29.28-14.05.28-14.06-.13-14.06-.28z" class="R"/><path d="M323.14 441.19a.9.9 0 0 1 0-.28v-.81a22.24 22.24 0 0 1 .24-3.09 21.79 21.79 0 0 1 4.62-10.57 16.61 16.61 0 0 1 2.9-2.75 13.74 13.74 0 0 1 4-2 12.31 12.31 0 0 1 4.87-.45 13.28 13.28 0 0 1 4.87 1.62 17.52 17.52 0 0 1 6.89 7.77 24.93 24.93 0 0 1 0 21.09 17.55 17.55 0 0 1-6.89 7.78 13.26 13.26 0 0 1-4.87 1.61 12.5 12.5 0 0 1-4.87-.44 13.76 13.76 0 0 1-4-2 16.61 16.61 0 0 1-2.9-2.75 21.8 21.8 0 0 1-4.59-10.56 22.36 22.36 0 0 1-.24-3.1v-.81a.8.8 0 0 1 0-.27 1.14 1.14 0 0 1 0 .27 4.07 4.07 0 0 0 .06.8 26.83 26.83 0 0 0 .36 3.08 22.12 22.12 0 0 0 4.69 10.35 15.88 15.88 0 0 0 2.86 2.65 12.74 12.74 0 0 0 3.86 1.89 11.75 11.75 0 0 0 4.64.4 12.64 12.64 0 0 0 4.63-1.56 17.07 17.07 0 0 0 6.65-7.56 24.62 24.62 0 0 0 0-20.65 17.07 17.07 0 0 0-6.65-7.56 12.83 12.83 0 0 0-4.63-1.56 11.75 11.75 0 0 0-4.64.4 13.22 13.22 0 0 0-3.86 1.89 16.26 16.26 0 0 0-2.86 2.66A22 22 0 0 0 323.6 437a26.46 26.46 0 0 0-.36 3.07c0 .32-.05.59-.06.8a1.33 1.33 0 0 1-.04.32z" class="U"/><path d="M143.82 263.53c-4.25-18.11-8.08-43.58-14.81-52.76-5.47-7.46-18.81-15.3-22.24-29.07-1.84-7.35-3.73-13.19-5.1-17a8.2 8.2 0 0 0-7.84-5.19h-39c-4.24 0-7.6 3.25-7.33 7.1.58 8.2 1.17 21.16-.56 26.1-2.56 7.29-6.75 20.85-5.14 27.29.64 2.54 11 30.5 16.84 46.91A117.14 117.14 0 0 1 64.5 291l6.42 48.35 92.93-1.85-20.03-73.97zm-69-60.17c-.57.4-1.36 0-1.92-.42a29.28 29.28 0 0 1-9.6-11.4 25.89 25.89 0 0 1-1.68-8.62 30.56 30.56 0 0 1 .16-9 11.24 11.24 0 0 1 5-7.46 4.22 4.22 0 0 1 3.87-.53c1.34.65 1.7 2.22 1.91 3.59L74.49 190l.72 12a1.39 1.39 0 0 1-.41 1.36zm21.46-12.62a28 28 0 0 1-7.58 12.6c-.48.47-1.2 1-1.82.68a1.42 1.42 0 0 1-.63-1.22c-.47-3.58-.86-8.12-1.3-12l-1.51-20.5c0-1.38.07-3 1.28-3.81a4.27 4.27 0 0 1 3.92 0 11.8 11.8 0 0 1 6.2 6.69 31.13 31.13 0 0 1 1.65 8.82 25.69 25.69 0 0 1-.23 8.74z" class="R"/><path d="M148.66 263.53c-4.24-18.11-8.08-43.58-14.81-52.76-5.46-7.46-18.8-15.3-22.24-29.07-1.84-7.35-3.73-13.19-5.1-17a8.19 8.19 0 0 0-7.84-5.19h-39c-4.24 0-7.6 3.25-7.33 7.1.58 8.2 1.17 21.16-.56 26.1C49.22 200 45 213.56 46.65 220c.63 2.54 11 30.5 16.83 46.91A117.14 117.14 0 0 1 69.34 291l6.43 48.35 92.92-1.85-20.03-73.97zm-69-60.17c-.56.4-1.36 0-1.91-.42a29.11 29.11 0 0 1-9.6-11.4 25.9 25.9 0 0 1-1.69-8.62 30.91 30.91 0 0 1 .16-9 11.31 11.31 0 0 1 5-7.46 4.24 4.24 0 0 1 3.88-.53c1.33.65 1.69 2.22 1.9 3.59l2 20.48.71 12a1.39 1.39 0 0 1-.47 1.36zm21.47-12.62a28 28 0 0 1-7.59 12.6c-.48.47-1.2 1-1.82.68a1.44 1.44 0 0 1-.62-1.22c-.47-3.58-.86-8.12-1.3-12l-1.5-20.52c0-1.38.07-3 1.28-3.81a4.27 4.27 0 0 1 3.92 0 11.76 11.76 0 0 1 6.2 6.69 30.78 30.78 0 0 1 1.65 8.83 25.69 25.69 0 0 1-.24 8.75z" class="Q"/><path d="M139.35 241c0 .16-18.79.28-42 .28s-42-.12-42-.28 18.79-.28 42-.28l42 .28zm-40.52-81.3h.58a8.12 8.12 0 0 1 1.69.25 8.24 8.24 0 0 1 5.08 3.65c2.18 4.83 4.09 12.19 6.68 21.13a34.48 34.48 0 0 0 3.36 6.55 51.79 51.79 0 0 0 5.09 6.34c1.93 2.08 4.07 4.12 6.28 6.22a61.62 61.62 0 0 1 6.47 6.8 34 34 0 0 1 4.32 8.62c1.13 3.05 2.08 6.23 2.93 9.48 1.74 6.51 3.15 13.31 4.62 20.27s2.85 13.75 4.55 20.25l4.88 18.74 8.44 31.71 5.68 21.37 1.52 5.82.38 1.52a4 4 0 0 1 .11.52l-.17-.51-.44-1.5-1.63-5.8-5.88-21.33-8.56-31.68-4.92-18.75c-1.71-6.5-3.1-13.31-4.56-20.27s-2.88-13.75-4.6-20.24c-.85-3.24-1.79-6.41-2.91-9.44a33.44 33.44 0 0 0-4.23-8.5 62.07 62.07 0 0 0-6.39-6.75c-2.21-2.11-4.35-4.16-6.28-6.26a51.13 51.13 0 0 1-5.11-6.42 34.34 34.34 0 0 1-3.36-6.65c-.78-2.23-1.26-4.4-1.8-6.43l-1.61-5.72-1.55-4.94a25.82 25.82 0 0 0-1.53-4.06 8.08 8.08 0 0 0-4.89-3.64 11.63 11.63 0 0 0-2.24-.35z" class="R"/><g class="S"><path d="M171.49 367.02h8.95v89.77h-8.95z"/><path d="M167.39 385.45h16.79v64.65h-16.79zM81 352.52s54.34 15.83 93.58 15.83 84.5-15.83 84.5-15.83H78.57"/></g><path d="M70.15 330.76v16.35c0 3.59 3.21 6.51 7.16 6.51H255.7c4 0 7.16-2.92 7.16-6.51v-7.83c0-3.57-3.15-6.47-7.07-6.52l-185.64-2m20.06 121.15S126 421 176.63 421.68s85.1 30.23 85.1 30.23l-5 5.09s-40.39-21.06-83.11-19.36S94.51 457 94.51 457z" class="Q"/><path d="M100.73 456.08c8.61 10.29-4.16 21.92-15.47 14.08-8.6-10.29 4.17-21.92 15.47-14.08zm85.59 6.5c0 5.31-4.73 9.61-10.56 9.61s-10.55-4.3-10.55-9.61 4.72-9.62 10.55-9.62 10.56 4.31 10.56 9.62zm88.68 0c0 5.31-4.72 9.61-10.55 9.61s-10.56-4.3-10.56-9.61 4.73-9.62 10.56-9.62 10.55 4.31 10.55 9.62z" class="R"/><g class="Q"><path d="M143.2,282.37l1.16,4.6H251.29a4.22,4.22,0,0,0,4.26-3.29h0a3.86,3.86,0,0,0-2.46-4.21c-6.79-2.83-25.48-9-58.85-8.63-47.3.51-51,7.28-51,7.28Z"/><path d="M219.5,283.19c-.21,1.48-17.89,56.16-17.89,56.16H183.33L201,283.19Z"/></g><path d="M253.12 287c0 .15-24.05.28-53.71.28s-53.72-.13-53.72-.28 24-.28 53.72-.28l53.71.28z" class="R"/><path d="M255.79 353.62l-.42.16-1.24.4-4.79 1.51c-4.15 1.33-10.23 3.08-17.8 5.06-3.81.92-7.95 2-12.48 2.91-2.27.45-4.58 1-7 1.4l-7.49 1.25a207.92 207.92 0 0 1-33.78 2.16c-3-.07-6-.1-8.9-.35l-4.35-.3-2.15-.15-2.12-.23-8.28-.92-7.9-1.19c-2.58-.35-5.06-.84-7.48-1.29l-7-1.32-12.52-2.75-10.27-2.5-7.7-2-4.86-1.32-1.26-.39a2.26 2.26 0 0 1-.42-.14 2.49 2.49 0 0 1 .44.09l1.28.3 4.89 1.22 7.73 1.94 10.28 2.42 12.52 2.67 7 1.3c2.41.44 4.89.92 7.47 1.26l7.88 1.17 8.27.91 2.11.23 2.14.14 4.34.29c2.91.26 5.87.29 8.87.35a210.46 210.46 0 0 0 33.68-2.11l7.47-1.22c2.43-.37 4.74-.93 7-1.37 4.53-.85 8.67-1.94 12.48-2.84 7.58-1.93 13.67-3.62 17.84-4.89l4.83-1.4 1.26-.36zm-71.61 31.83a62.16 62.16 0 0 1-8.4.28 62.07 62.07 0 0 1-8.39-.28 64.1 64.1 0 0 1 8.39-.28 64.19 64.19 0 0 1 8.4.28z" class="Q"/><ellipse cx="208.69" cy="135.41" rx="13.13" ry="11.95" class="R"/><path d="M183.53 90c.3-4.73 3.88-5.06 6.52-4.28a9.87 9.87 0 0 1 11.21 1.53 9 9 0 0 1 8 .82 7.33 7.33 0 0 1 3.35 6.69 7 7 0 0 1 6.62 4.1 6.06 6.06 0 0 1-2.19 7 6 6 0 0 1 3.36 7.42c-1.09 2.76-4.65 4.5-7.77 3.79l-29.76-22c-1.69-1.97.5-2.51.66-5.07z" class="Q"/><path d="M213.48 118.06c.72-13.22-9.82-24.73-24.23-26.45l-1.44-.17c-15.55-1-25.2 10.44-25.89 24.63l-4.51 47.09-.83 8.94 34.69 10.76 2.31-18.59s15.14-.33 17.27-13.83c1.03-6.51 1.95-20.09 2.63-32.38z" class="W"/><path d="M193.7,164.26a38.34,38.34,0,0,1-18.69-7.5s3.17,10.27,18.15,10.82Z" class="X"/><path d="M208.68 129.69a2.1 2.1 0 0 1-2.33 1.71 1.93 1.93 0 0 1-1.93-2 2.1 2.1 0 0 1 2.32-1.71 1.94 1.94 0 0 1 1.94 2zm.72-4.69c-.3.22-1.75-1-4-1.32s-4.1.58-4.31.29c-.11-.12.23-.55 1-.94a6.38 6.38 0 0 1 3.5-.55 5.85 5.85 0 0 1 3.16 1.37c.62.56.8 1.05.65 1.15zm-20.93 2.39a2.1 2.1 0 0 1-2.32 1.7 1.93 1.93 0 0 1-1.94-2 2.09 2.09 0 0 1 2.32-1.7 1.92 1.92 0 0 1 1.94 2zm-.84-5.29c-.3.22-1.76-1-4-1.32s-4.1.57-4.31.29c-.1-.13.23-.55 1-.95a6.46 6.46 0 0 1 3.5-.54A5.92 5.92 0 0 1 187 121c.6.52.77 1 .63 1.1zm5.29 16.29a17 17 0 0 1 3.79-.17c.59 0 1.16 0 1.31-.37a2.53 2.53 0 0 0-.16-1.62l-1.15-4.25c-1.56-6-2.61-11-2.34-11s1.75 4.79 3.31 10.83l1.07 4.26a2.84 2.84 0 0 1 0 2.11 1.44 1.44 0 0 1-1.07.66 4.3 4.3 0 0 1-1 0 16.22 16.22 0 0 1-3.76-.45zM186 139c.37 0 .05 2.28 1.94 4.14s4.56 1.92 4.54 2.23c0 .15-.65.37-1.77.27a6.49 6.49 0 0 1-3.8-1.74 4.67 4.67 0 0 1-1.47-3.45c.04-.93.39-1.45.56-1.45zm2.51-22.83c-.35.51-2.24-.21-4.64-.46s-4.44 0-4.61-.6c-.07-.27.4-.71 1.3-1.07a7.89 7.89 0 0 1 3.67-.43 7.3 7.3 0 0 1 3.38 1.24c.75.55 1.06 1.08.9 1.32zm21.19 3.07c-.43.45-2-.11-3.88-.22s-3.54.17-3.88-.34c-.15-.25.13-.72.86-1.14a5.88 5.88 0 0 1 3.2-.64 5.65 5.65 0 0 1 3.05 1.1c.65.51.84 1 .65 1.24zm3.24-7.55s-2.69-8.93-6.89-11.44c-5.08-3-8.2 2.1-13.18.17s-9.83-4.85-15.64-1.84c-6.35 3.29-4 6.41-5.27 12.37-5 24.13-10.81 30.43-10.55 18.81 0-1.27-3.65-2.73-3.45-8.09.25-7 1.16-15.35 3.55-20 2-3.94 5-6.48 10.06-9.06 8-4.07 18-3 24.73-1.55s18.79 10.11 16.64 20.63z" class="Q"/><path d="M162.41 129.51a3.83 3.83 0 0 0-3.84-4.06c-2.8-.09-6.09 1-6.66 6.2-1 9.28 9.43 8.29 9.48 8s.61-6.26 1.02-10.14z" class="W"/><path d="M159.55 136s-.19.1-.5.2a2 2 0 0 1-1.33-.1c-1-.45-1.78-2.09-1.64-3.77a5 5 0 0 1 .74-2.27 2 2 0 0 1 1.47-1.12.92.92 0 0 1 1 .54c.11.27 0 .45.08.47s.23-.13.19-.52a1 1 0 0 0-.33-.62 1.48 1.48 0 0 0-1-.33 2.53 2.53 0 0 0-2 1.28 5.26 5.26 0 0 0-.9 2.53c-.13 1.87.73 3.72 2.16 4.24a2.1 2.1 0 0 0 1.65-.1c.37-.22.45-.43.41-.43z" class="X"/><path d="M165.19 111.63a10 10 0 0 0 4 2.32c1.57.33 3.51-.28 4-1.68.21-.63.15-1.4.68-1.84s1.64-.22 2.48 0a6.71 6.71 0 0 0 7.33-3.42c.6 1.11 2.36 1.28 3.6.75a14.74 14.74 0 0 0 3.15-2.36 4.41 4.41 0 0 1 3.71-1.17 11.38 11.38 0 0 0 2.14.7c1.35 0 2.21-1.29 2.58-2.47s.73-2.57 2-3.09 2.44 0 3.64.35 2.82.23 3.29-.82a2 2 0 0 0-.21-1.73 6.85 6.85 0 0 0-7.43-3.19 8.75 8.75 0 0 0-6.77-6.67 9.7 9.7 0 0 0-9.38 3.1 9.72 9.72 0 0 0-7.8-2.89 9.37 9.37 0 0 0-7.08 4.17A7.26 7.26 0 0 0 162 93a5.77 5.77 0 0 0-1.48 6.5c-2 .73-3.76 2.2-4.08 4.1a3.4 3.4 0 0 0 3.56 3.8 3.24 3.24 0 0 0 .81 4.51 4.05 4.05 0 0 0 5-.46" class="Q"/><path d="M159.21 107.27a2.06 2.06 0 0 0 .38 1.85 3.21 3.21 0 0 0 1.87 1.35 3.82 3.82 0 0 0 3-.42l-.42-.11a9 9 0 0 0 1.7 2.55 5.79 5.79 0 0 0 1.69 1.26 4.89 4.89 0 0 0 5.17-.76 5.34 5.34 0 0 0 1.1-1.82c.17-.46.22-.73.18-.74s-.16.23-.39.66a6.35 6.35 0 0 1-1.2 1.64 4.43 4.43 0 0 1-6.11-.6 8.94 8.94 0 0 1-1.62-2.39l-.14-.29-.28.18a3.35 3.35 0 0 1-2.55.42 3 3 0 0 1-1.71-1.1 4.25 4.25 0 0 1-.67-1.68z" class="R"/><path d="M250.77,417.05l-10.33,28.3s28.13,19.07,26.78,24.47l-61-16.26,14.1-44.71Z" class="Q"/><path d="M250.77,417.05l-10.33,28.3s28.13,19.07,26.78,24.47l-61-16.26,14.1-44.71Z" opacity=".3"/><path d="M222.35,437.92a2.52,2.52,0,0,0-2.55,2.13,2.36,2.36,0,0,0,2.3,2.32c1.27,0,2.76-1.11,2.69-2.27a2.51,2.51,0,0,0-2.68-2.17" class="S"/><path d="M206.23,453.56l1.61-4.46,57.87,17.26s2.37,1.8,1.51,3.46Z" opacity=".6" class="T"/><path d="M241.52 445.33c-.1.27-1.63 0-3.37.48s-2.9 1.41-3.13 1.23.7-1.63 2.83-2.18 3.81.24 3.67.47zm5.62 4.12c0 .28-1.45.4-2.83 1.27s-2.07 2-2.36 1.93 0-1.68 1.75-2.74 3.52-.72 3.44-.46zm1.39 7.94c-.29 0-.27-1.48 1-2.76s2.82-1.5 2.88-1.24-1.07.82-2.07 1.89-1.5 2.16-1.81 2.11zm-5.44-18.75c-.21.22-1.45-.52-3.17-.86s-3.18-.22-3.26-.49 1.49-.9 3.5-.47 3.14 1.65 2.93 1.82z" class="S"/><path d="M260.48,424.36l-1.29,29.81s32.84,11.2,33.19,16.73l-63.55-.2-.09-46.52Z" class="Q"/><path d="M239.55,451.6a2.35,2.35,0,0,0-1.8,2.69,2.51,2.51,0,0,0,2.91,1.65c1.24-.28,2.31-1.76,1.9-2.86a2.68,2.68,0,0,0-3.24-1.41" class="S"/><g class="T"><path d="M228.83 470.7l.17-4.7 60.88 2s2.83 1.13 2.5 2.95z" opacity=".6"/><path d="M260.22 453.87c0 .29-1.56.41-3.09 1.31s-2.35 2.09-2.63 2 .18-1.74 2.05-2.81 3.74-.75 3.67-.5zm6.66 2.54c.07.27-1.28.75-2.33 1.94s-1.37 2.45-1.68 2.44-.5-1.61.85-3.07 3.15-1.58 3.16-1.31zm3.76 7.27c-.28.06-.71-1.35.09-2.9s2.26-2.15 2.39-1.92-.77 1.06-1.41 2.34-.71 2.46-1.07 2.48zm-10.95-16.63c-.13.26-1.55-.13-3.31 0s-3.12.6-3.28.36 1.16-1.25 3.22-1.34 3.52.76 3.37.98z"/></g><g class="R"><path d="M183.32,276.21s74.51,15.73,84,27.74c8,10.15-14.55,122.25-14.55,122.25l-41-2.66,5.49-98.4-85.34-24.7,12.9-29.84Z"/><path d="M189.81 286.84s77.87 17.23 85.74 29.47c3.67 5.71 1.26 24.47-.11 33.33l-14.69 89.43h-33.66l.74-94.28h0l-80.91-14.85s-43.43 3-45.11-13.86l18.12-22.37 42.78-19.25z"/></g><path d="M183.88 284.67l1.13.27 3.31.84L201 289l20.06 5.24c7.8 2.12 16.64 4.65 26.22 8q7.2 2.44 14.86 5.58l3.86 1.59a39.78 39.78 0 0 1 3.8 1.92 25.54 25.54 0 0 1 3.54 2.43 11.94 11.94 0 0 1 2.83 3.22c2.63 10.87 1 22.74-.91 34.88-.85 6.12-1.94 12.36-3 18.74l-3.21 19.53-6.75 41.07-1.31 7.94v.22h-34.18v-.26l.8-94.28.17.2-57.47-10.64-15.69-2.94-4.09-.78-1.39-.28s.48.06 1.4.22l4.1.73 15.72 2.83 57.51 10.47h.18v.16l-.67 94.28-.28-.25h33.66l-.28.22q.64-3.94 1.3-7.94l6.76-41.06q1.65-10 3.22-19.53l3-18.73 1.34-9a74.45 74.45 0 0 0 .85-8.83q.17-4.36 0-8.61a94.96 94.96 0 0 0-.29-4.19 9.5 9.5 0 0 0-.89-4A11.44 11.44 0 0 0 273 314a24.29 24.29 0 0 0-3.47-2.39 39.81 39.81 0 0 0-3.74-1.9l-3.85-1.6c-5.09-2.08-10-4-14.83-5.6-9.55-3.32-18.39-5.86-26.16-8l-20-5.32-12.67-3.33L185 285l-1.12-.33z" class="Q"/><path d="M194.71 178s9.7 3.6 15.23 15.83c3.88 8.59 25.47 35.73 25.47 35.73l57.41 11.61 2 16.67-91.82-.65-12.76-37z" class="V"/><path d="M192.43,173.42l8.86,8.8L182.93,268l7.84,9.81-89,38.23s-6.79-35-3.38-58.59c3.38-23.44,12.17-50,21.89-70.52,4-8.56,16.1-16.84,25.53-20.45l13-3.25L191.75,180Z" class="U"/><path d="M198.25 183.88a3.84 3.84 0 0 1-.08.76l-.35 2.16-1.46 7.92c-1.29 6.68-3.25 15.87-5.57 26l-6.19 25.88-2 7.82-.57 2.12a3.51 3.51 0 0 1-.24.73 4.23 4.23 0 0 1 .13-.75l.46-2.14 1.8-7.86 6-25.9 5.73-26 1.64-7.88.45-2.14a5.21 5.21 0 0 1 .25-.72zm-77.93 114.86a2.9 2.9 0 0 1 .51-.48l1.54-1.29 2.51-2 3.4-2.53c2.55-1.85 5.69-3.93 9.28-6.11s7.66-4.39 12.06-6.52 8.73-3.89 12.72-5.39 7.66-2.65 10.78-3.52c1.55-.47 3-.81 4.22-1.13s2.32-.57 3.21-.76l2-.43a4 4 0 0 1 .72-.12 4.19 4.19 0 0 1-.7.22l-2 .53a52.43 52.43 0 0 0-3.18.84c-1.18.36-2.65.71-4.19 1.2-3.09.91-6.72 2.13-10.7 3.62s-8.26 3.31-12.65 5.4-8.43 4.34-12 6.46-6.74 4.19-9.32 6c-1.31.88-2.44 1.74-3.45 2.47s-1.87 1.38-2.56 1.91l-1.61 1.22a4 4 0 0 1-.59.41zm44.23-29.61c.07.12-8.31 4.41-18.72 9.58l-19 9.12c-.09-.12 8.3-4.42 18.72-9.58l19-9.12z" class="Q"/><path d="M134.27 207.14c5.35 21.05 21.7 39.91 43.47 48.5a481.77 481.77 0 0 1-43.47-48.5zm62.61-16.03c2.11 8.92.54 20-4.37 28l-1.22-2.31c1.73-6.69 4.21-18.58 5.59-25.68" opacity=".3"/><path d="M291.72 242c.49-.68 6.93-7.44 8.66-7.44s3.71 1.8 3.71 1.8a7 7 0 0 1 3.71-.45c1.49.45 8.42 5.86 8.42 7.89v3.38a8.27 8.27 0 0 1 0 2.7c-.25 1.58-4.46 4.28-4.46 4.28H288s-4.54-2.78-4-5.4 7.72-6.76 7.72-6.76z" class="W"/><g class="X"><path d="M304.09 236.39a10.57 10.57 0 0 1 1.48.77l3.93 2.25a14.15 14.15 0 0 1 1.3.81 3.28 3.28 0 0 1 1 1.35 6.37 6.37 0 0 1 .21 1.67c0 .56.07 1.13.1 1.72l.41 7.66q0 .63.06 1.23v.22l-.23.05-1.45.33h-.08a3.3 3.3 0 0 1-1.86-.63 5.09 5.09 0 0 1-1.2-1.31 10.84 10.84 0 0 1-1.24-2.91 23.62 23.62 0 0 1-.82-5.2l.13.16-4.15-1.49a10.1 10.1 0 0 1-1.49-.61 10.41 10.41 0 0 1 1.57.42l4.21 1.34h.12v.12a25.17 25.17 0 0 0 .91 5.1 10.9 10.9 0 0 0 1.22 2.77 3.25 3.25 0 0 0 2.6 1.68h-.07l1.45-.33-.21.27c0-.41-.05-.82-.07-1.23l-.36-7.67-.07-1.72a5.78 5.78 0 0 0-.17-1.56 2.67 2.67 0 0 0-.8-1.18 14.23 14.23 0 0 0-1.22-.8l-3.83-2.39a8.88 8.88 0 0 1-1.38-.89zM288 253.42a9.07 9.07 0 0 1 1.59-.19l4.32-.32h.09l4.89.8 2.85.21a3.38 3.38 0 0 0 2.61-.68 1.94 1.94 0 0 0 .42-1.32c0-.49-.08-1-.1-1.52a1.8 1.8 0 0 0-.65-1.11 4.67 4.67 0 0 0-1.17-.8 9.63 9.63 0 0 0-5.09-.82 4.2 4.2 0 0 1-3.37-1.23c-.52-.67-.47-1.17-.44-1.16a3.27 3.27 0 0 0 .62 1 4 4 0 0 0 3.18 1 9.83 9.83 0 0 1 5.35.77 5.39 5.39 0 0 1 1.32.87 2.25 2.25 0 0 1 .81 1.46c0 .46.12 1 .11 1.53a2.44 2.44 0 0 1-.54 1.64 2.6 2.6 0 0 1-1.49.77 7.12 7.12 0 0 1-1.58.09c-1 0-2-.12-2.91-.23a47.35 47.35 0 0 1-4.93-.91h.11l-4.34.14a8.29 8.29 0 0 1-1.66.01z"/><path d="M312.22 253.33a36.11 36.11 0 0 1 1.92-3.93c1.06-2.15 2-3.88 2.19-3.81a17.55 17.55 0 0 1-1.67 4 11.94 11.94 0 0 1-2.44 3.74z"/></g><path d="M133 205.6s41.86 51.89 48.4 51.89h61.15v-21.1l-46.24-9.93s-22.76-42.91-27.79-48.46-18.52-12.85-28.58-4.6-6.94 32.2-6.94 32.2z" class="V"/><path d="M242.53 238.43l10-.73s.21-3.39 2.4-4.58 2-3.78 3.28-3.59a6.26 6.26 0 0 0 2.19 0l8.31-6.36 7-4.18 5.47-1s3.28.8 0 3.59l-3.5 1.79-3.07 2.79 7-3.13a2.57 2.57 0 0 1 2.07 0 30.52 30.52 0 0 1 5.37 2.74 1.3 1.3 0 0 1 0 2l3.06 2.39s.66 3.19-2.84 2.39l-2.85-.6-3.71 3.39s12.68-2.39 13.56-2 2 2.19 0 3.78-9.63 1.2-11.38 2.79-13.29 11.19-16.14 11.79l-26.18 5.79z" class="W"/><path d="M292.13 230.13a14 14 0 0 1-1.72-1.11l-1.86-1.2q-.53-.33-1.11-.66a2.77 2.77 0 0 0-1.18-.44 7.47 7.47 0 0 0-2.44.93l-2 1a10.84 10.84 0 0 1-1.85.93 6.24 6.24 0 0 1 1.63-1.24l1.94-1.13 1.19-.61a4 4 0 0 1 1.49-.42 1.54 1.54 0 0 1 .46.05 3.35 3.35 0 0 1 .38.14l.65.33 1.13.71 1.8 1.3c1.02.79 1.56 1.37 1.49 1.42zm-30.72-1.37c.1.13-1 .94-2.15 2s-2.21 1.95-2.34 1.84a7 7 0 0 1 1.94-2.22 6.65 6.65 0 0 1 2.55-1.62z" class="X"/><path d="M168.52 178a25.11 25.11 0 0 1 2.42 3.22c1.45 2.17 3.48 5.42 5.94 9.63 4.93 8.42 11.71 20.62 19.66 35.47l-.16-.11 46.26 9.89.22.05v21.56h-3.06-52-5.92a5.3 5.3 0 0 1-.77 0 3 3 0 0 1-.75-.22 9.65 9.65 0 0 1-1.27-.7 24 24 0 0 1-2.23-1.67 104.47 104.47 0 0 1-7.63-7.26c-4.69-4.87-8.85-9.56-12.62-13.86-7.52-8.61-13.39-15.73-17.43-20.66l-4.62-5.7-1.18-1.49c-.26-.34-.39-.53-.39-.53l.44.49c.28.35.69.84 1.22 1.47l4.7 5.64 17.58 20.55c3.78 4.29 8 9 12.66 13.8a101.3 101.3 0 0 0 7.61 7.2 22.16 22.16 0 0 0 2.18 1.64 8.2 8.2 0 0 0 1.2.65 2.65 2.65 0 0 0 1.3.21h5.92 52 2.77l-.28.26v-21.1l.22.25-46.24-10h-.11v-.1l-19.48-35.54c-2.41-4.23-4.41-7.49-5.81-9.69-.73-1.08-1.26-1.93-1.7-2.45s-.65-.9-.65-.9zm-6.09-3.35c0 .09-1.43-.42-3.77-.91a31.91 31.91 0 0 0-4.17-.57 32 32 0 0 0-10.21.88 32.49 32.49 0 0 0-4 1.27l-3.52 1.54a3.8 3.8 0 0 1 .84-.59 22.11 22.11 0 0 1 2.51-1.29 29.53 29.53 0 0 1 4-1.4 30.07 30.07 0 0 1 10.41-.89 27.58 27.58 0 0 1 4.21.69 21.32 21.32 0 0 1 2.74.84 4.12 4.12 0 0 1 .96.43zm25.48 61.4a14.7 14.7 0 0 1 3.12-4.9 15.81 15.81 0 0 1 4.56-3.86c.11.12-2 1.76-4.11 4.19s-3.41 4.65-3.57 4.57zm-1.4-6.46a9.31 9.31 0 0 1 4-2.15 10 10 0 0 1 4.56-.63c0 .15-2 .35-4.36 1.13s-4.11 1.78-4.2 1.65z" class="Q"/><g class="R"><path d="M159.17 121.45v1h3.78c3.31-30.29 21.16-32.28 20.77-32.55a4 4 0 0 1 1.47-3.58C160.08 89 159 121 159.17 121.45z"/><ellipse cx="157.95" cy="131.4" rx="13.13" ry="11.95"/></g><g class="Q"><path d="M165.13 131.07c-.06 0 0-.54-.32-1.45a6.05 6.05 0 0 0-2.43-3.2 6.94 6.94 0 0 0-6.06-.79 5.63 5.63 0 0 0 0 10.88 7 7 0 0 0 6.06-.79 6.09 6.09 0 0 0 2.43-3.2c.27-.91.26-1.45.32-1.45s0 .13 0 .39a4.4 4.4 0 0 1-.13 1.11 6 6 0 0 1-2.4 3.46 7.41 7.41 0 0 1-6.51 1 6.78 6.78 0 0 1-3.23-2.19 5.91 5.91 0 0 1-1.36-3.73 6 6 0 0 1 1.36-3.74 6.83 6.83 0 0 1 3.23-2.18 7.35 7.35 0 0 1 6.51 1 6 6 0 0 1 2.4 3.46 4.31 4.31 0 0 1 .13 1.11c.03.18.02.31 0 .31zm-81.98 151.3l1.16 4.6h106.93a4.21 4.21 0 0 0 4.25-3.29h0a3.86 3.86 0 0 0-2.46-4.21c-6.79-2.83-25.48-9-58.84-8.63-47.3.51-51 7.28-51 7.28z"/><path d="M159.44,283.19c-.2,1.48-17.88,56.16-17.88,56.16H123.28l17.65-56.16Z"/></g><path d="M193.07 287c0 .15-24 .28-53.72.28s-53.72-.13-53.72-.28 24.05-.28 53.72-.28l53.72.28z" class="R"/><path d="M393.79,187.94c-.12.58,20.3,68.82,20.3,68.82l-32.6.09-.15,3.11h39.12L398.25,180.8Z" class="S"/><path d="M393.79 187.94l.26-.47.82-1.37 3.28-5.35.14-.22.07.25 22.38 79.12.1.33H381v-.29l.15-3.11v-.26h.29l32.59-.07-.27.32-14.63-49.56-4.07-14.22-1-3.79-.23-1-.06-.33 5.72 19.25 14.85 49.51.09.32h-.36l-32.6.11.3-.26-.15 3.11-.3-.29h39.12l-.29.34-22-79.2h.21l-3.36 5.33-.87 1.35-.34.45z" class="Q"/><path d="M372.52 230.87l7.93 2.26 42.14-122.98-7.92-2.26-42.15 122.98z" class="S"/><path d="M372.52 230.87s.05-.2.19-.61l.6-1.83 2.38-7.08 8.88-26.19 29.81-87.35.09-.26.29.08 7.92 2.25h0l.29.08-.09.26-42.34 122.92v.08h-.09l-6-1.76L373 231l-.46-.15.51.13 1.48.4 6 1.64-.12.06 41.95-123 .2.34h0l-7.93-2.25.37-.17-30 87.09-9.07 26.19-2.48 7.12-.66 1.85c-.15.43-.27.62-.27.62z" class="Q"/><path d="M262.3 254.19h83.88v5.66H262.3z" class="S"/><g class="Q"><path d="M346.18 259.85v-.38-1.08l-.07-4.2.11.1-83.87.18h0l.31-.28h0v5.64l-.31-.27 59.43.11 17.87.08h4.86 1.28a3.94 3.94 0 0 1 .44 0 2.78 2.78 0 0 1-.4 0h-1.24-4.79L322 260l-59.65.12H262v-5.92h0l.3-.27h0l83.87.17h.11v.09l-.06 4.26v1.06a1.17 1.17 0 0 1-.04.34z"/><path d="M317.23,260.13a13.64,13.64,0,0,1,0-5.69,13.21,13.21,0,0,1,0,5.69Z"/></g><path d="M134.86 272.83h13v199.29h-13z" class="R"/><path d="M147.86 472.12v-1-3-11.53l-.09-42.48-.13-141.24.31.27h-13l.31-.27-.26 199.25-.1-.09 9.77.05h2.42.81-.78-2.4l-9.82.06h-.09v-.09l-.21-199.29v-.28h13.62v.28l-.13 141.45-.1 42.41v11.46 3c0 .71-.13 1.04-.13 1.04z" class="Q"/><path d="M384.25 268.87h13v203.25h-13z" class="R"/><path d="M397.25 472.12v-1.06V468v-11.76l-.09-43.32-.13-144 .31.28h-13l.31-.28-.21 203.25-.1-.09 9.77.05h2.42.81-.78-2.4l-9.82.06h-.09v-.09l-.21-203.25v-.29h13.62v.28l-.13 144.25-.1 43.26v11.69 3c0 .67-.18 1.08-.18 1.08z" class="Q"/><path d="M41.41 259.85h409.24v12.42H41.41z" class="R"/><g class="Q"><path d="M450.65 272.27l-.07-12.42.07.07-409.22.21h0l.31-.28v12.42l-.31-.28 289.8.12 87.4.08h23.74 6.18 2.12-2.08-6.13-23.67l-87.34.08-290 .12h-.3v-13h.32l409.22.2h.07v.07 9.42l-.11 3.19z"/><path d="M242 271.91c-.17 0-.31-2.7-.31-6s.14-6 .31-6a31.09 31.09 0 0 1 .3 6 31.09 31.09 0 0 1-.3 6z"/></g><defs ><path id="B" d="M355.23 13.68c.65 6.24-4.39 11.78-11.26 12.37S331 22 330.39 15.8 334.78 4 341.65 3.42s12.94 4.01 13.58 10.26z"/></defs></svg>