<svg xmlns="http://www.w3.org/2000/svg" viewBox="0 0 57.17 57.18"><defs><style>.cls-1{fill:#fff;}</style></defs><title>game_development_in_india</title><g id="Layer_2" data-name="Layer 2"><g id="Layer_1-2" data-name="Layer 1"><path class="cls-1" d="M28.59,57.18H2c-1.66,0-2-.35-2-2V2.05C0,.32.33,0,2.08,0h53c1.79,0,2.09.31,2.09,2.13v53c0,1.72-.33,2-2.08,2Zm26-2.59V12.65H2.62V54.59ZM2.58,10h52V2.63h-52Z"/><path class="cls-1" d="M35.07,40.12H22.12c-.15.48-.29,1-.46,1.44a7.77,7.77,0,0,1-15-4.07C7.35,34.57,8.11,31.66,9,28.8a10.31,10.31,0,0,1,9.73-7.09q9.82-.11,19.67,0a10.48,10.48,0,0,1,10,7.87q1,3.64,1.95,7.29a7.8,7.8,0,1,1-15,4.12C35.25,40.73,35.17,40.47,35.07,40.12ZM9,38.91a5.43,5.43,0,0,0,4.53,5.31,5.26,5.26,0,0,0,5.73-3.62c.15-.46.26-.93.39-1.4.4-1.48.63-1.66,2.14-1.66H34.39c2.68,0,2.64-.15,3.34,2.57a5.23,5.23,0,0,0,6.45,4,5.33,5.33,0,0,0,3.7-6.64q-.93-3.66-2-7.29a7.93,7.93,0,0,0-7.73-5.91q-9.62,0-19.22,0a7.92,7.92,0,0,0-7.68,5.86c-.71,2.44-1.35,4.91-2,7.37C9.16,37.94,9.11,38.43,9,38.91Z"/><path class="cls-1" d="M9.11,6.32a1.59,1.59,0,1,1-3.18-.09,1.59,1.59,0,0,1,3.18.09Z"/><path class="cls-1" d="M15.45,6.31A1.62,1.62,0,0,1,13.79,7.9a1.64,1.64,0,0,1-1.58-1.66,1.62,1.62,0,0,1,3.24.07Z"/><path class="cls-1" d="M20.15,4.7a1.6,1.6,0,1,1-1.6,1.61A1.58,1.58,0,0,1,20.15,4.7Z"/><path class="cls-1" d="M19.62,30.06c.67,0,1.24,0,1.81,0a1.26,1.26,0,0,1,1.32,1.32,1.23,1.23,0,0,1-1.33,1.22h-1.8c0,.67,0,1.24,0,1.81a1.28,1.28,0,0,1-1.31,1.33c-.75,0-1.2-.52-1.23-1.4,0-.51,0-1,0-1.54,0,0,0-.05-.13-.2H15.3a1.27,1.27,0,1,1,0-2.54c.57,0,1.14,0,1.8,0,0-.67,0-1.24,0-1.81A1.18,1.18,0,0,1,18.3,27a1.19,1.19,0,0,1,1.3,1.23C19.66,28.77,19.62,29.37,19.62,30.06Z"/><path class="cls-1" d="M33.84,31.25a1.26,1.26,0,0,1,1.33-1.17A1.26,1.26,0,1,1,35,32.6,1.23,1.23,0,0,1,33.84,31.25Z"/><path class="cls-1" d="M40.27,30.07a1.26,1.26,0,0,1,1.27,1.26,1.23,1.23,0,0,1-1.23,1.27A1.28,1.28,0,0,1,39,31.36,1.31,1.31,0,0,1,40.27,30.07Z"/><path class="cls-1" d="M39,33.92a1.27,1.27,0,1,1-1.3-1.22A1.26,1.26,0,0,1,39,33.92Z"/><path class="cls-1" d="M37.73,27.49A1.26,1.26,0,0,1,39,28.78,1.31,1.31,0,0,1,37.65,30a1.3,1.3,0,0,1-1.23-1.31A1.26,1.26,0,0,1,37.73,27.49Z"/></g></g></svg>