<svg xmlns="http://www.w3.org/2000/svg" viewBox="0 0 521.35 390.08"><defs><style>.cls-1,.cls-16{fill:#fff;}.cls-2{fill:#9fc5f3;}.cls-10,.cls-18,.cls-20,.cls-21,.cls-22,.cls-3{fill:none;}.cls-16,.cls-18,.cls-3{stroke:#2a1e17;}.cls-10,.cls-16,.cls-18,.cls-20,.cls-22,.cls-3{stroke-linecap:round;stroke-linejoin:round;}.cls-4{fill:#2a1e17;}.cls-5{fill:#f8855f;}.cls-6{fill:#2a1e33;}.cls-7{fill:#7594eb;}.cls-8{fill:#ff8966;}.cls-9{fill:#fff6c8;}.cls-10{stroke:#2a1e33;}.cls-11{fill:#ff6d66;}.cls-12{fill:#f9d7af;}.cls-13{fill:#c5caca;}.cls-14{fill:#fff6db;}.cls-15{fill:#ffe0bf;}.cls-17{fill:#90b982;}.cls-18{stroke-width:0.67px;}.cls-19{fill:#95bc88;}.cls-20{stroke:#ff6d66;}.cls-21{stroke:#f9d7af;stroke-miterlimit:10;}.cls-22{stroke:#9fc5f3;}</style></defs><title>hero</title><g id="Layer_2" data-name="Layer 2"><g id="Layer_1-2" data-name="Layer 1"><path class="cls-1" d="M360.66,114.17C324.38,80.05,281.75,71.48,271,69.8c7.56-20.41,19.34-51,22.16-55.19a41.81,41.81,0,0,1,5.77-.34c8.21,0,25.76,1.7,51.15,13.13C386.9,44,396.75,62.81,398.61,67.18Z"/><path class="cls-2" d="M299,16.27c8,0,25.28,1.68,50.33,13,33.72,15.17,44.31,32.19,47,37.67l-35.83,44.35a178.4,178.4,0,0,0-60.26-35.93,166.12,166.12,0,0,0-26.43-7.1c8.46-22.75,17.71-46.27,20.67-51.74,1-.1,2.52-.2,4.54-.2m0-4a37.31,37.31,0,0,0-6.74.47c-2.61.87-23.93,58.7-23.93,58.7s50.62,5.16,92.56,45.67l40-49.56s-6.68-22.5-49.95-42c-25.35-11.4-43-13.3-52-13.3Z"/><path class="cls-3" d="M275.73,75.93s49.77,5,80.44,33.18"/><polygon class="cls-2" points="318.71 73.5 337.27 37.4 356.36 75.05 318.71 73.5"/><polygon class="cls-3" points="322.32 72.99 340.88 36.89 359.97 74.53 322.32 72.99"/><path class="cls-3" d="M304.89,10.07s55.8,5,90.49,46.25"/><path class="cls-4" d="M333.4,170.06c-3.06-2.26-5.07-3.77-5.07-3.77.84-1.13,14.27-15.44,22.05-27C350.38,139.33,334.65,171,333.4,170.06Z"/><path class="cls-3" d="M143.13,65.78c1.49,2.49,2.16,1.5,6.48,1.16s10.47,2.83,12.63,8.15,1.49,6.14.33,6.81-9.47,1.66-9.8,3.32"/><polygon class="cls-5" points="255.07 336.23 251.2 329.69 237.46 352.58 241.07 355.35 255.07 336.23"/><path class="cls-5" d="M163.88,279.47s-7.12-11.58-4.07-17.24l22.71,2.42Z"/><path d="M163.88,279.47l1.36,3.12L161,299a5.6,5.6,0,0,0,1.77,5.63h0l20.76-30.7a7.15,7.15,0,0,0-1-9.23l-4.64-4.31Z"/><path class="cls-6" d="M152.77,85.22c6.5-.15,14.74-.56,13.09-5.51S158,62.41,144,66.12c0,0-4.94,4.12,1.24,11.53S152.77,85.22,152.77,85.22Z"/><path class="cls-7" d="M185.67,264.93s-11.09-32.77-1.7-47.16c7.75-11.87,33.07,7.44,36.54,10l18.12-32.72s-4.18-5.86-14.45-11.6-52.69-22.94-72.63,8.51c-7.37,11.63-7.48,61.51,6.65,80.63Z"/><path class="cls-3" d="M185.67,264.93s-11.09-32.77-1.7-47.16c7.75-11.87,33.07,7.44,36.54,10"/><path class="cls-7" d="M238.63,195.09c-8.24,8.68-32.67,50.93-38.17,71.13-7.35,27-4.58,49.42,35.81,93.29l19.52-28.44s-13.73-20.84-11.16-40.49c3.7-28.43,23.93-56,34.17-73.47Z"/><polygon class="cls-4" points="241.73 198.76 274.21 224.25 283.91 209.5 241.73 198.76"/><path class="cls-8" d="M428.26,172q7.61,1.62,11.58,5.78c2.65,2.78,1.44,4.22.48,5.07s-4.7-.12-8-3S428.26,172,428.26,172Z"/><path class="cls-5" d="M328.33,166.29c.84-1.13,14.27-15.44,22.05-27,0,0,23.5,26.33,26.05,27.18.94.31,6.7.24,13.86.16,12.09-.12,28.16-.24,31.72,1.54,5.66,2.83,9.06,4.24,10.47,8.21s2,6.55-1.41,6.79c-4,.28-6.51-4.81-6.51-4.81A79.81,79.81,0,0,1,413,183.49s-30.11,11.69-50.24,6C357.21,188,328.33,166.29,328.33,166.29Z"/><path class="cls-5" d="M145.79,61.13c-2.59,1-4.16,2.16-2.66,4.65s2.16,1.5,6.48,1.16,10.47,2.83,12.63,8.15,1.49,6.14.33,6.81-9.47,1.66-9.8,3.32,3.36,6.57,11,6.24l1.82-.34s16.08,15.7,18.4,18,19.43,13.91,28.84,16.26c7.16,1.79,21.66-.52,30.38-2.22,4.23-.82,7.1-1.5,7.1-1.5s-6.54-11.78-7.87-29.9c0,0-15.65,2.52-26,4.8,0,0-24.26-13.53-36.06-19.51,0,0-10.3-12.63-15.12-14.29S149.28,59.8,145.79,61.13Z"/><path class="cls-4" d="M243.22,123.19c4.23-.82,7.1-1.5,7.1-1.5s-7.91-10-9.24-28.09c0,0-3.58,3.86-2.46,14.11C240,120.61,243.22,123.19,243.22,123.19Z"/><path class="cls-9" d="M240.7,91.57s.22,22.14,6.15,31.37l2.12-.85s-27.94,32.69-37,54c-1.48,3.5,58,41.5,66.81,41,0,0,29-44.24,38.9-57.36L328.36,168s20.9-21.17,22-28.68c0,0-20.19-24.57-36.7-31.76s-31.28-19.51-49-19.18C249.31,88.68,240.7,91.57,240.7,91.57Z"/><polygon class="cls-4" points="328.36 168.01 317.7 159.75 319.4 155.13 328.36 168.01"/><path class="cls-5" d="M344.56,80.49c-1.86,5.8-7.25,22.59-13.26,24.66s-12.27-.53-12.27-.53l-6.4,3.28c-.71,2.14-5.76,4-12.29,4.24-4.83.18-7.77-6-6.34-10.51.66-2.06,3.11-12.23,3.11-12.23s5.18-19.06,9.95-23,9.24-7.84,22-2.7C348.5,71.58,344.56,80.49,344.56,80.49Z"/><path class="cls-6" d="M306,81.32c-.86,3.56-4.56,10.68-7,9.4s-3.28-4.56-1.57-10.83,3.14-20.52,8-23.09,7,.43,7,.43-2.14-10.4,4.13-11.83c0,0,2.14-1,1.29,6.13A9.53,9.53,0,0,1,328,45.83c7.84.85,10.54,11.83,10.54,11.83a4,4,0,0,1,4.14-3c3.56,0,9,5.28,7.69,11.12,0,0,9.12-2.85,14,4.42s4.28,15.25-7.41,18.38c-12.22,3.28-12.12-11-14-12.82s-3.85-4-10.69-1.43-14-5-14-5-1.14,9.13-2.28,10-3.43,2-2.86-2.28,1.29-3.85.86-5-2.36-4.74-6.41-1.57C303.1,74.05,306,81.32,306,81.32Z"/><path class="cls-10" d="M307.89,82.91c-2.72-2.28-4.61-6.31-2.21-10.33s6.3-4.57,7.5-3,1.66,4.09.53,7.13"/><path d="M241.07,355.35l1.36,3.13-4.19,16.35a5.59,5.59,0,0,0,1.76,5.63h0l20.76-30.69a7.13,7.13,0,0,0-1.05-9.23l-4.64-4.31Z"/><path class="cls-10" d="M312.36,57.23s-1.59-5.17-6.36-6.53"/><line class="cls-3" x1="211.34" y1="174.58" x2="268.86" y2="94.23"/><path class="cls-3" d="M292.57,99.85c-2.07,2.69-3,14.29,6.52,15a25.77,25.77,0,0,0,15.63-3.43"/><path class="cls-3" d="M165.23,62.79s6.57,8.7,7.61,11.8"/><path class="cls-3" d="M411.41,179.46s4.4,3.62,13.15-1.06c3.17-1.7.91-5.72-3.11-4.71s-8.78-.5-8.78-.5"/><path class="cls-3" d="M429.77,172.47s4.21,4.91,4.1,7.83"/><path class="cls-3" d="M367.74,171.93s3.81-5.08,8.69-5.42"/><path class="cls-3" d="M207.05,104.79s2.23-6.93,9.36-8.2"/><path class="cls-3" d="M226.37,210l-8.5,16.27s-28,47.45-18.53,78.1"/><path class="cls-3" d="M251.21,264.4l27.59-47.29s36.16-52.44,39.86-59.84l12.76-23.61"/><path class="cls-3" d="M215.19,179.62s49.06,35.77,63.61,37.49"/><path class="cls-3" d="M240.7,91.57s0,22.45,6,31.65"/><path class="cls-3" d="M348.8,135.77c-1.54,9.25-22,28.68-22,28.68"/><circle class="cls-4" cx="195.99" cy="248.08" r="2.91"/><polygon class="cls-3" points="469.31 310.68 467.7 299.54 477.2 305.85 472.23 306.94 469.31 310.68"/><path class="cls-3" d="M154.12,120.46c-18-15.89-47.77,23.74,61.13,149.86,62.82,72.76,112.17,79.28,118.86,54,12-45.41-31.33-56.89-15.21-39.11,23.44,25.87,90.11,31.33,139.79,7.2,49-23.82,18.89-60.8,15.85-63"/><circle class="cls-4" cx="459.48" cy="292.15" r="2.91"/><line class="cls-3" x1="417.09" y1="315.93" x2="503.44" y2="267.26"/><circle class="cls-4" cx="155.91" cy="122.82" r="2.91"/><circle class="cls-11" cx="230.19" cy="62.67" r="6.25"/><path class="cls-2" d="M116.78,15a2.75,2.75,0,1,0,2.75,2.74A2.74,2.74,0,0,0,116.78,15Z"/><circle class="cls-12" cx="484.92" cy="353.49" r="2.75"/><path class="cls-6" d="M435.83,229.41l-29.54-13.86a3.07,3.07,0,0,1,.07-5.58l54.95-24.18a3,3,0,0,1,2.44,0L501.49,202Z"/><path class="cls-13" d="M434,183.86c.07,12.22,1.83,45.55,1.83,45.55L501.49,202,500,155.6a4,4,0,0,0-5.64-3.5l-56.54,25.76A6.54,6.54,0,0,0,434,183.86Z"/><path class="cls-3" d="M435.83,229.41,501.49,202,500,155.6s-.44-5.07-5.64-3.5"/><line class="cls-3" x1="467.61" y1="196.07" x2="472.05" y2="185.59"/><line class="cls-3" x1="472.05" y1="196.07" x2="476.48" y2="185.59"/><circle class="cls-11" cx="128.63" cy="307.64" r="2.75"/><circle class="cls-11" cx="360.27" cy="321.25" r="3.82"/><path class="cls-14" d="M157.1,348.37a81.48,81.48,0,0,0,34.69,7.44,1.56,1.56,0,0,1,1.55,1.76l-2.39,19a1.57,1.57,0,0,1-1.27,1.34c-4.86.92-24.46,3.6-39.12-8.83a1.56,1.56,0,0,1-.49-1.59l4.85-18.14A1.56,1.56,0,0,1,157.1,348.37Z"/><path class="cls-3" d="M158.82,354s8.47,11.9,11.49,13.61,19.33-8,19.33-8"/><line class="cls-3" x1="178.3" y1="365.91" x2="187.19" y2="375.06"/><line class="cls-3" x1="165.94" y1="364.15" x2="155.53" y2="366.98"/><rect class="cls-15" x="419.59" y="123.32" width="9.94" height="9.94"/><polygon class="cls-2" points="420.94 257.4 423.89 262.51 426.85 267.63 420.94 267.63 415.03 267.63 417.98 262.51 420.94 257.4"/><path class="cls-3" d="M182,30.7l.77-23.24c-.08-2.16.81-2.85,2.14-3.15,6.31-1.4,25.5-5.67,46.36.5,2.7.79,2.61,2.22,2.57,3.5l-.75,22.15A3,3,0,0,1,229.48,33a161.37,161.37,0,0,0-22.79-1.1,129.11,129.11,0,0,0-21.86,1.76C182.76,34.05,182,32.51,182,30.7Z"/><path class="cls-3" d="M189.06,27.3l12.15-14.22,13.44,13.27C210,24.84,189.06,27.3,189.06,27.3Z"/><polyline class="cls-3" points="208.65 19.66 218.47 11.81 226.74 17.71 227.05 26.94 214.65 26.35"/><ellipse class="cls-3" cx="191.97" cy="11.8" rx="2.03" ry="2.39" transform="matrix(0.1, -0.99, 0.99, 0.1, 160.93, 201.61)"/><path class="cls-3" d="M416.87,332.51,425,347.56c.86,1.34.55,2.11-.19,2.8-3.49,3.23-14.08,13.08-29.63,16.91-2,.5-2.48-.44-2.93-1.27l-7.76-14.35a2.2,2.2,0,0,1,1.38-3,119.19,119.19,0,0,0,14.88-7.77A94.27,94.27,0,0,0,414,331.67C415.17,330.65,416.23,331.34,416.87,332.51Z"/><path class="cls-3" d="M413.67,337.28l-2.43,13.55-13.47-3.43C401.28,346.63,413.67,337.28,413.67,337.28Z"/><polyline class="cls-3" points="404.07 349.41 400.75 358.05 393.3 357.38 389.67 351.63 397.77 347.4"/><ellipse class="cls-3" cx="417.59" cy="348.21" rx="1.76" ry="1.49" transform="translate(-106.96 205.11) rotate(-24.56)"/><path class="cls-16" d="M377.21,75.71,410.31,101a1.63,1.63,0,0,0,2.31-.33l5-6.77a1.64,1.64,0,0,0-.3-2.25L384.69,65.58a1.64,1.64,0,0,0-2.34.32l-5.47,7.55A1.64,1.64,0,0,0,377.21,75.71Z"/><polygon class="cls-11" points="379.66 74.58 387.69 80.21 392.43 74.56 384.4 67.86 379.66 74.58"/><polygon class="cls-12" points="390.71 82.41 398.75 88.78 403.06 83.48 394.97 76.92 390.71 82.41"/><polygon class="cls-2" points="401.45 91.23 409.48 96.86 413.3 91.95 405.7 85.59 401.45 91.23"/><path class="cls-16" d="M443.25,40.29l7.55,63.38a2.5,2.5,0,0,0,2.82,2.19l12.77-1.75a2.5,2.5,0,0,0,2.15-2.72l-6.19-63.7a2.51,2.51,0,0,0-2.85-2.24l-14.12,2.07A2.51,2.51,0,0,0,443.25,40.29Z"/><polygon class="cls-11" points="447.11 41.77 449.5 56.6 460.76 55.76 459.54 39.8 447.11 41.77"/><polygon class="cls-17" points="450.32 62.26 451.9 77.89 462.32 76.96 460.88 61.07 450.32 62.26"/><polygon class="cls-12" points="452.1 83.47 454.49 98.3 463.96 97.25 462.83 82.11 452.1 83.47"/><path class="cls-16" d="M426.79,53.79l20.89,61.39a2,2,0,0,0,2.56,1.23l13.08-4.71a2,2,0,0,0,1.22-2.47l-19.61-62A2,2,0,0,0,442.34,46L428,51.28A2,2,0,0,0,426.79,53.79Z"/><polygon class="cls-2" points="431.03 54.91 436.45 68.91 447.29 65.75 442.78 50.39 431.03 54.91"/><polygon class="cls-5" points="438.43 74.28 443.23 89.24 453.22 86.16 448.52 70.91 438.43 74.28"/><polygon class="cls-12" points="444.58 94.66 450 108.66 459.05 105.66 454.79 91.09 444.58 94.66"/><rect class="cls-7" x="157.82" y="131.33" width="117.65" height="26.45" rx="5.48"/><rect class="cls-1" x="170.36" y="139.12" width="61.52" height="4.02" rx="1.81"/><line class="cls-3" x1="170.93" y1="148.36" x2="268.68" y2="148.36"/><path class="cls-17" d="M117.46,82h2.66a1.7,1.7,0,0,1,1.7,1.7v4.07a1.7,1.7,0,0,1-1.7,1.7h-2.66a0,0,0,0,1,0,0V82A0,0,0,0,1,117.46,82Z" transform="translate(102.23 -60.43) rotate(47.59)"/><rect class="cls-3" x="106.49" y="74.35" width="13.81" height="9.52" rx="0.98" transform="matrix(-0.67, -0.74, 0.74, -0.67, 131.45, 216.19)"/><rect class="cls-11" x="87.91" y="117.05" width="9.85" height="9"/><polyline class="cls-3" points="87.91 111.26 87.91 117.05 82.01 117.05"/><rect class="cls-12" x="412.55" y="15.44" width="9.85" height="9"/><polyline class="cls-3" points="412.55 9.65 412.55 15.44 406.66 15.44"/><path class="cls-3" d="M145.85,71.05c-102.16-42.34-180.8,39.22,11.77,164.1C172.78,245,196,248.44,196,248.44"/><circle class="cls-4" cx="51.89" cy="73.9" r="2.91"/><polygon class="cls-3" points="33.35 57.91 36.54 54.85 43.87 59.05 47.55 70.41 36.31 65.7 33.35 57.91"/><polygon class="cls-3" points="36.54 54.85 33.35 57.91 31.57 55.75 34.63 52.81 36.54 54.85"/><line class="cls-3" x1="47.56" y1="70.41" x2="40.24" y2="62.38"/><path class="cls-16" d="M65.26,274.34l7.94,40.92a1.64,1.64,0,0,0,2,1.29l8.23-1.75a1.63,1.63,0,0,0,1.27-1.88l-7.07-41.18a1.64,1.64,0,0,0-2-1.32l-9.1,2A1.63,1.63,0,0,0,65.26,274.34Z"/><polygon class="cls-11" points="67.85 275.12 70.11 284.67 77.41 283.58 75.84 273.24 67.85 275.12"/><polygon class="cls-12" points="70.91 288.31 72.69 298.42 79.43 297.31 77.74 287.03 70.91 288.31"/><polygon class="cls-2" points="73.09 302.04 75.35 311.58 81.47 310.45 80.01 300.64 73.09 302.04"/><polygon class="cls-3" points="292.64 376.89 326.19 367.91 327.47 371.54 293.54 380.35 292.64 376.89"/><line class="cls-3" x1="287.98" y1="372.2" x2="288.95" y2="375.24"/><line class="cls-3" x1="287.04" y1="374.18" x2="289.87" y2="373.21"/><line class="cls-3" x1="286.35" y1="383.83" x2="288.18" y2="389.58"/><line class="cls-3" x1="284.8" y1="387.48" x2="289.84" y2="385.87"/><line class="cls-3" x1="278.68" y1="374.35" x2="281.07" y2="381.96"/><line class="cls-3" x1="276.32" y1="379.09" x2="283.38" y2="376.83"/><polygon class="cls-18" points="47.96 12.35 26.72 2.77 27.6 0.34 48.96 10.17 47.96 12.35"/><line class="cls-18" x1="48.38" y1="16.77" x2="49.17" y2="14.77"/><line class="cls-18" x1="49.72" y1="16.14" x2="47.83" y2="15.44"/><line class="cls-18" x1="54.17" y1="11.42" x2="55.66" y2="7.66"/><line class="cls-18" x1="56.52" y1="10.19" x2="53.23" y2="8.88"/><line class="cls-18" x1="54.12" y1="19.6" x2="56.12" y2="14.64"/><line class="cls-18" x1="57.36" y1="18.14" x2="52.74" y2="16.31"/><path class="cls-12" d="M127.32,191.69c-15-10.78-29.68-27.52-23.23-44.73,0,0,10.32-6.88,26.67,1.72l16.34,8.6Z"/><path class="cls-1" d="M120.61,263.7c-6.48-3-35.68-18.07-40.85-43.92-4.49-22.45,12.95-52.8,21.31-65.7-1,17.66,16.83,32.68,25.37,38.83a90.55,90.55,0,0,0,23.72,12.5Z"/><path class="cls-12" d="M99.74,159c2.07,16.15,17.86,29.41,25.82,35.14a90.17,90.17,0,0,0,22.51,12.1l-28.14,55.5c-8.22-4.05-33.95-18.48-38.7-42.23-4-19.85,9.75-46.23,18.51-60.51m4.35-12s-31.82,43-25.8,73.11,43,45.59,43,45.59l31-61.07c-9.68-3.55-16-6.43-24.94-12.9-15-10.78-29.68-27.52-23.23-44.73Z"/><path class="cls-3" d="M95.72,172a36.91,36.91,0,0,0,19.13,26.53"/><line class="cls-3" x1="124.11" y1="204.66" x2="141.38" y2="213.91"/><path class="cls-3" d="M98.19,196.64S103.74,209,121.64,217"/><path class="cls-3" d="M84,198.49s.62,12.95,9.26,17.27"/><path class="cls-3" d="M103.74,153.45s-1.6,16.64,23.58,38.24"/><path class="cls-3" d="M113,156.53s8-.62,19.74,8"/><path class="cls-3" d="M75.28,209.66c-.52,8.25.52,38.16,43.84,57.24"/><path class="cls-17" d="M351.91,193l-18.37,36.82s12.46,4.59,2.72,18.88c0,0,23,9.55,38.11-15.26S351.91,193,351.91,193Z"/><path class="cls-1" d="M309.86,305.73c-9.37,0-19.26-3.84-29.41-11.41L315,237.1l20.58,13,.11,0A31.57,31.57,0,0,0,346.79,252a30.65,30.65,0,0,0,18.57-6.14l-25.52,43.67c-.07.1-10.93,16.17-30,16.17Z"/><path class="cls-19" d="M315.48,239.18l19.18,12.08.22.13.23.1a33.13,33.13,0,0,0,11.68,2,32.3,32.3,0,0,0,14.27-3.25l-22.47,38.44c-.7,1-11.07,15.51-28.73,15.51-8.71,0-17.92-3.47-27.42-10.31l33-54.74m58.89-5.72c-8.52,14-19.58,17.07-27.58,17.07a30.06,30.06,0,0,1-10.53-1.81L314.5,235l-36,59.69c12.06,9.3,22.59,12.53,31.39,12.53,20.13,0,31.27-16.91,31.27-16.91l33.24-56.86Z"/><path class="cls-3" d="M333.54,229.84s13.7,4.84,2.72,18.88"/><path class="cls-3" d="M314.07,233.73s18.67,17.1,29,17,22.46-2.58,29.61-14.91"/><path class="cls-3" d="M316.36,255.86s12.81,11.38,27.14,7.72"/><path class="cls-3" d="M329.82,272.86s6.72,5,16.12.27"/><path class="cls-3" d="M298.89,279.87s15.51,15.43,39.93,5.25"/><path class="cls-3" d="M307.33,264.82s6.33,4.53,10.3,6"/><path class="cls-3" d="M355.07,203.71s14.16,4.63,15.86,23.32"/><path class="cls-3" d="M362.19,226.8s6.52,10.09-4.5,20.18"/><path class="cls-3" d="M279.78,297.51s35.56,30.46,61.37-5.16"/><line class="cls-20" x1="23.08" y1="181.52" x2="31.37" y2="181.52"/><line class="cls-20" x1="484.92" y1="81.8" x2="493.21" y2="81.8"/><line class="cls-21" x1="262.59" y1="24.92" x2="270.88" y2="24.92"/><line class="cls-21" x1="500.75" y1="124.81" x2="508.9" y2="126.27"/><line class="cls-22" x1="175.07" y1="331.67" x2="183.36" y2="331.67"/><circle class="cls-17" cx="518.61" cy="228.32" r="2.75"/><circle class="cls-17" cx="2.75" cy="96.55" r="2.75"/></g></g></svg>