<svg xmlns="http://www.w3.org/2000/svg" xmlns:xlink="http://www.w3.org/1999/xlink" viewBox="0 0 333.55 98.66"><defs><style>.cls-1{isolation:isolate;}.cls-2{opacity:0.17;mix-blend-mode:multiply;}.cls-3{fill:url(#linear-gradient);}.cls-4{fill:url(#linear-gradient-2);}.cls-5{fill:url(#linear-gradient-3);}.cls-6{fill:url(#linear-gradient-4);}.cls-7{fill:url(#linear-gradient-5);}.cls-8{fill:url(#linear-gradient-6);}.cls-9{fill:url(#linear-gradient-7);}.cls-10{fill:url(#linear-gradient-8);}.cls-11{fill:url(#linear-gradient-9);}.cls-12{fill:url(#linear-gradient-10);}.cls-13{fill:url(#linear-gradient-11);}.cls-14{fill:url(#linear-gradient-12);}.cls-15{fill:url(#linear-gradient-13);}.cls-16{fill:url(#linear-gradient-14);}.cls-17{fill:url(#linear-gradient-15);}.cls-18{fill:url(#linear-gradient-16);}.cls-19{fill:url(#linear-gradient-17);}.cls-20{fill:url(#linear-gradient-18);}.cls-21{fill:url(#linear-gradient-19);}.cls-22{fill:url(#linear-gradient-20);}</style><linearGradient id="linear-gradient" x1="-21.75" y1="13.36" x2="286.21" y2="192.58" gradientUnits="userSpaceOnUse"><stop offset="0" stop-color="#657aee"/><stop offset="1" stop-color="#4660ec"/></linearGradient><linearGradient id="linear-gradient-2" x1="18.65" y1="53.46" x2="89.43" y2="53.46" xlink:href="#linear-gradient"/><linearGradient id="linear-gradient-3" x1="-16.38" y1="4.14" x2="291.57" y2="183.36" xlink:href="#linear-gradient"/><linearGradient id="linear-gradient-4" x1="123.31" y1="36.88" x2="363.31" y2="121.4" xlink:href="#linear-gradient"/><linearGradient id="linear-gradient-5" x1="125.58" y1="30.43" x2="365.58" y2="114.96" xlink:href="#linear-gradient"/><linearGradient id="linear-gradient-6" x1="129.74" y1="18.62" x2="369.74" y2="103.14" xlink:href="#linear-gradient"/><linearGradient id="linear-gradient-7" x1="130.19" y1="17.35" x2="370.19" y2="101.87" xlink:href="#linear-gradient"/><linearGradient id="linear-gradient-8" x1="134.94" y1="3.86" x2="374.94" y2="88.38" xlink:href="#linear-gradient"/><linearGradient id="linear-gradient-9" x1="137.68" y1="-3.93" x2="377.68" y2="80.6" xlink:href="#linear-gradient"/><linearGradient id="linear-gradient-10" x1="138" y1="-4.84" x2="378" y2="79.68" xlink:href="#linear-gradient"/><linearGradient id="linear-gradient-11" x1="143.33" y1="-19.97" x2="383.33" y2="64.56" xlink:href="#linear-gradient"/><linearGradient id="linear-gradient-12" x1="110.92" y1="72.07" x2="350.92" y2="156.59" xlink:href="#linear-gradient"/><linearGradient id="linear-gradient-13" x1="112.16" y1="68.54" x2="352.16" y2="153.06" xlink:href="#linear-gradient"/><linearGradient id="linear-gradient-14" x1="113.59" y1="64.47" x2="353.59" y2="149" xlink:href="#linear-gradient"/><linearGradient id="linear-gradient-15" x1="115.69" y1="58.53" x2="355.69" y2="143.05" xlink:href="#linear-gradient"/><linearGradient id="linear-gradient-16" x1="117.61" y1="53.07" x2="357.61" y2="137.59" xlink:href="#linear-gradient"/><linearGradient id="linear-gradient-17" x1="118.83" y1="49.6" x2="358.83" y2="134.12" xlink:href="#linear-gradient"/><linearGradient id="linear-gradient-18" x1="119.48" y1="47.74" x2="359.48" y2="132.27" xlink:href="#linear-gradient"/><linearGradient id="linear-gradient-19" x1="121.19" y1="42.9" x2="361.19" y2="127.42" xlink:href="#linear-gradient"/><linearGradient id="linear-gradient-20" x1="123.12" y1="37.43" x2="363.12" y2="121.95" xlink:href="#linear-gradient"/></defs><title>iconAsset 2final</title><g class="cls-1"><g id="Layer_2" data-name="Layer 2"><g id="Layer_1-2" data-name="Layer 1"><g class="cls-2"><path d="M43.55,6.08C35,12.9,21.62,26.34,16.11,47.48a76.76,76.76,0,0,0-1.29,32.4,1.43,1.43,0,0,1-2.67.93A93,93,0,0,1,.55,32.6a1.45,1.45,0,0,1,.33-.85A88.18,88.18,0,0,1,42.22,3.58,1.44,1.44,0,0,1,43.55,6.08Z"/></g><path class="cls-3" d="M43.05,5.58C34.48,12.4,21.12,25.84,15.61,47a76.76,76.76,0,0,0-1.29,32.4,1.43,1.43,0,0,1-2.67.93A93,93,0,0,1,.05,32.1a1.45,1.45,0,0,1,.33-.85A88.18,88.18,0,0,1,41.72,3.08,1.44,1.44,0,0,1,43.05,5.58Z"/><g class="cls-2"><path d="M89.93,71.5a1.39,1.39,0,0,1-.63,1.23A174.28,174.28,0,0,1,60.16,88.3a174.74,174.74,0,0,1-33.8,10.33,1.39,1.39,0,0,1-1.59-.86,76.75,76.75,0,0,1-5-38.16c3.14-24.73,17.65-40.35,23-45.52a1.41,1.41,0,0,1,1-.39L56,9.26a1.44,1.44,0,0,1,1,2.44C51.65,17.29,43.23,27,40.59,30.91c-2.35,3.46-5.05,7.47-7.57,12a1.12,1.12,0,0,1,0,.21c.22,3,2,5,4.8,5.32,3,.3,5.15-1.27,5.93-4.31a1.4,1.4,0,0,1,2.48-.42,12.45,12.45,0,0,1,2.27,8.24,11,11,0,0,1-20.95,3,51.61,51.61,0,0,0-2.81,20.15,51.08,51.08,0,0,0,3.14,14.5,1.41,1.41,0,0,0,1.8.84A75.55,75.55,0,0,0,59.9,70.57C73,56.3,75.16,33.31,76.67,23.16a1.83,1.83,0,0,1,3.54-.29c1.59,5,5.37,17.36,6.61,23.38A158.19,158.19,0,0,1,89.93,71.5Z"/></g><path class="cls-4" d="M89.43,71a1.39,1.39,0,0,1-.63,1.23A174.28,174.28,0,0,1,59.66,87.8a174.74,174.74,0,0,1-33.8,10.33,1.39,1.39,0,0,1-1.59-.86,76.75,76.75,0,0,1-5-38.16c3.14-24.73,17.65-40.35,23-45.52a1.41,1.41,0,0,1,1-.39L55.47,8.76a1.44,1.44,0,0,1,1,2.44c-5.32,5.59-13.74,15.31-16.38,19.21-2.35,3.46-5.05,7.47-7.57,12a1.12,1.12,0,0,1,0,.21c.22,3,2,5,4.8,5.32,3,.3,5.15-1.27,5.93-4.31a1.4,1.4,0,0,1,2.48-.42A12.45,12.45,0,0,1,48,51.44a11,11,0,0,1-20.95,3,51.61,51.61,0,0,0-2.81,20.15,51.08,51.08,0,0,0,3.14,14.5,1.41,1.41,0,0,0,1.8.84A75.55,75.55,0,0,0,59.4,70.07C72.54,55.8,74.66,32.81,76.17,22.66a1.83,1.83,0,0,1,3.54-.29c1.59,5,5.37,17.36,6.61,23.38A158.19,158.19,0,0,1,89.43,71Z"/><g class="cls-2"><path d="M47.14,75.27a61.73,61.73,0,0,1-13.55,9.1,1.44,1.44,0,0,1-1.86-.56l0,0a1.43,1.43,0,0,1,.59-2A52.76,52.76,0,0,0,42,75.37c9.58-8,13.69-17.24,16.42-23.44a76.42,76.42,0,0,0,6.49-27A75.15,75.15,0,0,0,63.1,4.54a1.42,1.42,0,0,1,.06-.84c.29-.76.59-1.53.89-2.29a1.43,1.43,0,0,1,2.57-.2L68,3.58c.58,1,1.17,2,1.76,3a1.32,1.32,0,0,1,.19.6C70.66,15.52,72.65,52.66,47.14,75.27Z"/></g><path class="cls-5" d="M46.64,74.77a61.73,61.73,0,0,1-13.55,9.1,1.44,1.44,0,0,1-1.86-.56l0,0a1.43,1.43,0,0,1,.59-2,52.76,52.76,0,0,0,9.72-6.39c9.58-8,13.69-17.24,16.42-23.44a76.42,76.42,0,0,0,6.49-27A75.15,75.15,0,0,0,62.6,4a1.42,1.42,0,0,1,.06-.84c.29-.76.59-1.53.89-2.29a1.43,1.43,0,0,1,2.57-.2l1.41,2.37c.58,1,1.17,2,1.76,3a1.32,1.32,0,0,1,.19.6C70.16,15,72.15,52.16,46.64,74.77Z"/><path class="cls-6" d="M109,20.89h28.43v7.78H128V56.05h-9.77V28.67H109Z"/><path class="cls-7" d="M141,19.14h9.77V32.06a10.17,10.17,0,0,1,8.63-4.24c6.39,0,10.42,4.59,10.42,11.92V56.05h-9.77V41c0-3.24-1.8-5.14-4.59-5.14S150.8,37.8,150.8,41v15H141Z"/><path class="cls-8" d="M174.45,20.49c0-2.84,2.24-5.09,5.73-5.09s5.69,2.25,5.69,5.09-2.25,5-5.69,5S174.45,23.28,174.45,20.49Zm.79,7.58H185v28h-9.78Z"/><path class="cls-9" d="M200.38,56.05h-9.77v-28h9.77V33a11.1,11.1,0,0,1,9-5.19V38.24h-2.75c-4,0-6.28,1.3-6.28,5.59Z"/><path class="cls-10" d="M223.27,27.72a9.18,9.18,0,0,1,8.13,4.19V19.14h9.83V56.05H231.4V52.16c-1.44,2.49-4.24,4.24-8.18,4.24C216.59,56.4,211.3,51,211.3,42S216.59,27.72,223.27,27.72Zm3.09,8.53c-2.79,0-5.08,2-5.08,5.78s2.29,5.84,5.08,5.84,5.09-2,5.09-5.84S229.11,36.25,226.36,36.25Z"/><path class="cls-11" d="M269.31,28.72H256.59v5.73h11.22v7.43H256.59v6.34h12.72v7.83h-22.5V20.89h22.5Z"/><path class="cls-12" d="M293.55,28.07h10.72L286.51,69.36H275.89l6.68-14.51L271.1,28.07H282l5.88,15.86Z"/><path class="cls-13" d="M319.43,56.4c-8.28,0-14.21-5.44-14.21-14.37s5.83-14.31,14.21-14.31,14.12,5.34,14.12,14a17.76,17.76,0,0,1-.15,2.3H314.89c.2,3.24,1.95,4.54,4.14,4.54a3.63,3.63,0,0,0,3.49-2.2H333C331.65,52.11,326.41,56.4,319.43,56.4Zm-4.49-17.11h8.63c0-2.49-1.94-3.84-4.19-3.84A4.23,4.23,0,0,0,314.94,39.29Z"/><path class="cls-14" d="M117.63,66.23a7.6,7.6,0,0,1,7.47,4.88h-2.52a5.08,5.08,0,0,0-5-3c-3.37,0-5.89,2.45-5.89,6.4s2.52,6.38,5.89,6.38a5.08,5.08,0,0,0,5-3h2.52a7.58,7.58,0,0,1-7.47,4.83,8.23,8.23,0,0,1,0-16.46Z"/><path class="cls-15" d="M132.63,82.55h-2.1V69.89h2.1v2a4.26,4.26,0,0,1,4.09-2.29v2.18h-.56c-2,0-3.53.9-3.53,3.83Z"/><path class="cls-16" d="M146.93,82.76c-3.6,0-6.26-2.54-6.26-6.57s2.57-6.51,6.26-6.51a5.8,5.8,0,0,1,6.08,6,10.58,10.58,0,0,1-.07,1.27H142.82a4,4,0,0,0,4.11,4,3.47,3.47,0,0,0,3.56-2.34h2.27A5.69,5.69,0,0,1,146.93,82.76Zm-4.09-7.47h8a3.72,3.72,0,0,0-4-3.83A3.92,3.92,0,0,0,142.84,75.29Z"/><path class="cls-17" d="M163.32,69.68A5.24,5.24,0,0,1,168,72.2V69.89h2.13V82.55H168V80.19a5.27,5.27,0,0,1-4.73,2.57c-3.38,0-6-2.66-6-6.59S159.92,69.68,163.32,69.68Zm.42,1.82c-2.32,0-4.28,1.69-4.28,4.67s2,4.74,4.28,4.74S168,79.18,168,76.19,166.05,71.5,163.74,71.5Z"/><path class="cls-18" d="M176.49,71.62h-1.64V69.89h1.64V66.7h2.11v3.19h3.3v1.73h-3.3v7.46c0,1.25.46,1.69,1.75,1.69h1.55v1.78H180c-2.25,0-3.52-.92-3.52-3.47Z"/><path class="cls-19" d="M186.41,66.4a1.41,1.41,0,1,1,1.43,1.43A1.41,1.41,0,0,1,186.41,66.4Zm.34,3.49h2.11V82.55h-2.11Z"/><path class="cls-20" d="M200.27,82.76c-3.58,0-6.31-2.54-6.31-6.57a6.41,6.41,0,1,1,12.81,0A6.28,6.28,0,0,1,200.27,82.76Zm0-1.85c2.2,0,4.35-1.5,4.35-4.72s-2.1-4.69-4.28-4.69-4.23,1.51-4.23,4.69S198.08,80.91,200.27,80.91Z"/><path class="cls-21" d="M221.12,75.39c0-2.59-1.41-3.91-3.54-3.91S214,72.82,214,75.55v7h-2.11V69.89H214v1.8a4.66,4.66,0,0,1,4.06-2c2.94,0,5.18,1.81,5.18,5.44v7.46h-2.08Z"/><path class="cls-22" d="M233.44,82.76c-3,0-5-1.62-5.18-3.93h2.17c.12,1.22,1.21,2.15,3,2.15s2.59-.83,2.59-1.87c0-2.82-7.49-1.18-7.49-5.9,0-1.94,1.83-3.53,4.65-3.53s4.65,1.5,4.78,4h-2.1c-.09-1.27-1.06-2.19-2.75-2.19s-2.47.74-2.47,1.75c0,3,7.35,1.37,7.44,5.9C238.06,81.19,236.23,82.76,233.44,82.76Z"/></g></g></g></svg>