<svg xmlns="http://www.w3.org/2000/svg" viewBox="0 0 55.14 38.8"><defs><style>.cls-1{fill:#fff;}</style></defs><title>mail</title><g id="Layer_2" data-name="Layer 2"><g id="Layer_1-2" data-name="Layer 1"><path class="cls-1" d="M55.14,34.59,54.7,36c-5.57-5.52-11.1-11-16.65-16.5L54.72,2.94l.42,1.28Z"/><path class="cls-1" d="M51.26.45l-.38.41L29.06,22.75a1.85,1.85,0,0,1-3,0Q15.18,11.81,4.27.87L3.82.39C4.43.25,5,.12,5.48,0a3.6,3.6,0,0,1,.57,0h43A4.63,4.63,0,0,1,51.26.45Z"/><path class="cls-1" d="M35.58,21.73,52.39,38.38c-.67.15-1.21.29-1.75.39a4.1,4.1,0,0,1-.7,0H5.19a5,5,0,0,1-2.32-.46l16.66-16.5.31.29,4,4a5.12,5.12,0,0,0,7.45,0c1.35-1.32,2.67-2.66,4-4A2.76,2.76,0,0,0,35.58,21.73Z"/><path class="cls-1" d="M.47,2.86,17.1,19.35.43,35.86a4.35,4.35,0,0,1-.43-2V5.14A5,5,0,0,1,.47,2.86Z"/></g></g></svg>