<svg xmlns="http://www.w3.org/2000/svg" viewBox="0 0 593.61 366.47"><defs><style>.cls-1{fill:#474747;}</style></defs><title>mesh2</title><g id="Layer_2" data-name="Layer 2"><g id="Layer_1-2" data-name="Layer 1"><line class="cls-1" x1="196.65" y1="247.69" x2="201.36" y2="280.54"/><polygon class="cls-1" points="201.22 280.56 196.51 247.71 196.79 247.67 201.5 280.51 201.22 280.56"/><line class="cls-1" x1="196.65" y1="247.69" x2="201.36" y2="280.54"/><polygon class="cls-1" points="201.22 280.56 196.51 247.71 196.79 247.67 201.5 280.51 201.22 280.56"/><line class="cls-1" x1="206.6" y1="354.3" x2="196.65" y2="247.69"/><polygon class="cls-1" points="206.33 354.33 196.38 247.72 196.92 247.67 206.87 354.28 206.33 354.33"/><line class="cls-1" x1="206.6" y1="354.3" x2="201.36" y2="280.54"/><polygon class="cls-1" points="206.39 354.32 201.15 280.55 201.57 280.52 206.81 354.29 206.39 354.32"/><line class="cls-1" x1="206.6" y1="354.3" x2="201.36" y2="280.54"/><polygon class="cls-1" points="206.39 354.32 201.15 280.55 201.57 280.52 206.81 354.29 206.39 354.32"/><line class="cls-1" x1="304.99" y1="288.01" x2="201.36" y2="280.54"/><polygon class="cls-1" points="304.96 288.27 201.34 280.8 201.38 280.27 305 287.75 304.96 288.27"/><line class="cls-1" x1="304.99" y1="288.01" x2="201.36" y2="280.54"/><polygon class="cls-1" points="304.96 288.27 201.34 280.8 201.38 280.27 305 287.75 304.96 288.27"/><line class="cls-1" x1="331.34" y1="257.97" x2="304.99" y2="288.01"/><rect class="cls-1" x="298.18" y="272.84" width="39.96" height="0.31" transform="translate(-96.65 333.69) rotate(-48.95)"/><line class="cls-1" x1="292.85" y1="219.42" x2="331.34" y2="257.97"/><polygon class="cls-1" points="331.22 258.1 292.73 219.54 292.98 219.29 331.47 257.85 331.22 258.1"/><line class="cls-1" x1="292.85" y1="219.42" x2="304.99" y2="288.01"/><rect class="cls-1" x="298.72" y="218.88" width="0.41" height="69.66" transform="translate(-39.62 55.94) rotate(-10.03)"/><line class="cls-1" x1="292.85" y1="219.42" x2="196.65" y2="247.69"/><rect class="cls-1" x="194.62" y="233.3" width="100.27" height="0.52" transform="translate(-55.91 78.45) rotate(-16.37)"/><line class="cls-1" x1="292.85" y1="219.42" x2="201.36" y2="280.54"/><polygon class="cls-1" points="201.51 280.76 201.21 280.31 292.7 219.19 293.01 219.65 201.51 280.76"/><line class="cls-1" x1="292.85" y1="219.42" x2="201.36" y2="280.54"/><polygon class="cls-1" points="201.51 280.76 201.21 280.31 292.7 219.19 293.01 219.65 201.51 280.76"/><line class="cls-1" x1="177.46" y1="232.96" x2="196.65" y2="247.69"/><polygon class="cls-1" points="196.57 247.79 177.39 233.06 177.54 232.86 196.73 247.59 196.57 247.79"/><line class="cls-1" x1="177.46" y1="232.96" x2="201.36" y2="280.54"/><polygon class="cls-1" points="201.2 280.62 177.3 233.04 177.62 232.88 201.51 280.46 201.2 280.62"/><line class="cls-1" x1="177.46" y1="232.96" x2="201.36" y2="280.54"/><polygon class="cls-1" points="201.2 280.62 177.3 233.04 177.62 232.88 201.51 280.46 201.2 280.62"/><line class="cls-1" x1="170.2" y1="311.71" x2="177.46" y2="232.96"/><polygon class="cls-1" points="170.42 311.73 169.98 311.69 177.24 232.94 177.68 232.98 170.42 311.73"/><line class="cls-1" x1="170.2" y1="311.71" x2="206.6" y2="354.3"/><polygon class="cls-1" points="206.47 354.42 170.06 311.82 170.34 311.59 206.74 354.19 206.47 354.42"/><line class="cls-1" x1="170.2" y1="311.71" x2="196.65" y2="247.69"/><rect class="cls-1" x="148.79" y="279.5" width="69.26" height="0.41" transform="translate(-145.36 341.15) rotate(-67.33)"/><line class="cls-1" x1="170.2" y1="311.71" x2="201.36" y2="280.54"/><rect class="cls-1" x="163.74" y="295.96" width="44.07" height="0.32" transform="translate(-155.25 219.3) rotate(-45.2)"/><line class="cls-1" x1="170.2" y1="311.71" x2="201.36" y2="280.54"/><rect class="cls-1" x="163.74" y="295.96" width="44.07" height="0.32" transform="translate(-155.25 219.3) rotate(-45.2)"/><line class="cls-1" x1="170.2" y1="311.71" x2="177.46" y2="232.96"/><polygon class="cls-1" points="170.42 311.73 169.98 311.69 177.24 232.94 177.68 232.98 170.42 311.73"/><line class="cls-1" x1="170.2" y1="311.71" x2="206.6" y2="354.3"/><polygon class="cls-1" points="206.47 354.42 170.06 311.82 170.34 311.59 206.74 354.19 206.47 354.42"/><line class="cls-1" x1="170.2" y1="311.71" x2="196.65" y2="247.69"/><rect class="cls-1" x="148.79" y="279.5" width="69.26" height="0.41" transform="translate(-145.36 341.15) rotate(-67.33)"/><line class="cls-1" x1="170.2" y1="311.71" x2="201.36" y2="280.54"/><rect class="cls-1" x="163.74" y="295.96" width="44.07" height="0.32" transform="translate(-155.25 219.3) rotate(-45.2)"/><line class="cls-1" x1="170.2" y1="311.71" x2="201.36" y2="280.54"/><rect class="cls-1" x="163.74" y="295.96" width="44.07" height="0.32" transform="translate(-155.25 219.3) rotate(-45.2)"/><path class="cls-1" d="M56.85,297.4l-49.25.18"/><polygon class="cls-1" points="0.14 297.79 0.14 297.43 56.85 297.22 56.85 297.59 0.14 297.79"/><line class="cls-1" x1="304.89" y1="321.99" x2="292.85" y2="219.42"/><polygon class="cls-1" points="304.63 322.02 292.59 219.45 293.11 219.39 305.16 321.95 304.63 322.02"/><line class="cls-1" x1="304.89" y1="321.99" x2="331.34" y2="257.97"/><rect class="cls-1" x="283.49" y="289.77" width="69.26" height="0.41" transform="translate(-70.89 474.26) rotate(-67.7)"/><line class="cls-1" x1="304.89" y1="321.99" x2="304.99" y2="288.01"/><polygon class="cls-1" points="305.04 321.99 304.75 321.99 304.84 288.01 305.13 288.01 305.04 321.99"/><line class="cls-1" x1="304.89" y1="321.99" x2="206.6" y2="354.3"/><rect class="cls-1" x="204.01" y="337.88" width="103.47" height="0.53" transform="translate(-92.75 96.7) rotate(-18.18)"/><line class="cls-1" x1="228.79" y1="169.16" x2="177.46" y2="232.96"/><polygon class="cls-1" points="177.64 233.1 177.29 232.82 228.62 169.02 228.97 169.3 177.64 233.1"/><line class="cls-1" x1="228.79" y1="169.16" x2="292.85" y2="219.42"/><rect class="cls-1" x="260.6" y="153.58" width="0.45" height="81.42" transform="translate(-53.03 279.56) rotate(-51.88)"/><line class="cls-1" x1="228.79" y1="169.16" x2="196.65" y2="247.69"/><rect class="cls-1" x="170.29" y="208.2" width="84.86" height="0.46" transform="translate(-60.73 326.38) rotate(-67.75)"/><line class="cls-1" x1="411.64" y1="301.87" x2="495.41" y2="263.85"/><rect class="cls-1" x="407.53" y="282.62" width="91.99" height="0.49" transform="translate(-76.39 212.94) rotate(-24.43)"/><line class="cls-1" x1="411.64" y1="301.87" x2="304.89" y2="321.99"/><polygon class="cls-1" points="304.94 322.25 304.84 321.72 411.59 301.6 411.69 302.13 304.94 322.25"/><line class="cls-1" x1="411.64" y1="301.87" x2="331.34" y2="257.97"/><rect class="cls-1" x="371.25" y="234.17" width="0.49" height="91.51" transform="translate(-52.32 471.61) rotate(-61.34)"/><line class="cls-1" x1="411.64" y1="301.87" x2="304.99" y2="288.01"/><polygon class="cls-1" points="411.6 302.13 304.95 288.28 305.02 287.74 411.67 301.6 411.6 302.13"/><line class="cls-1" x1="453.98" y1="184.94" x2="454.58" y2="148.82"/><rect class="cls-1" x="436.22" y="166.74" width="36.13" height="0.29" transform="translate(280 618.38) rotate(-89.06)"/><line class="cls-1" x1="453.98" y1="184.94" x2="495.41" y2="263.85"/><rect class="cls-1" x="474.46" y="179.84" width="0.48" height="89.12" transform="translate(-49.91 246.37) rotate(-27.7)"/><line class="cls-1" x1="423.37" y1="237.78" x2="453.98" y2="184.94"/><polygon class="cls-1" points="423.54 237.87 423.21 237.68 453.82 184.85 454.15 185.04 423.54 237.87"/><line class="cls-1" x1="423.37" y1="237.78" x2="411.64" y2="301.87"/><rect class="cls-1" x="384.93" y="269.62" width="65.16" height="0.39" transform="translate(78.04 632.97) rotate(-79.8)"/><line class="cls-1" x1="423.37" y1="237.78" x2="454.58" y2="148.82"/><rect class="cls-1" x="391.84" y="193.05" width="94.27" height="0.5" transform="translate(111.21 543.49) rotate(-70.66)"/><line class="cls-1" x1="423.37" y1="237.78" x2="495.41" y2="263.85"/><polygon class="cls-1" points="495.33 264.06 423.3 237.98 423.45 237.57 495.48 263.65 495.33 264.06"/><line class="cls-1" x1="423.37" y1="237.78" x2="331.34" y2="257.97"/><polygon class="cls-1" points="331.4 258.21 331.29 257.73 423.32 237.53 423.43 238.02 331.4 258.21"/><line class="cls-1" x1="479.95" y1="247.74" x2="423.37" y2="237.78"/><polygon class="cls-1" points="479.92 247.92 423.34 237.96 423.4 237.6 479.98 247.56 479.92 247.92"/><line class="cls-1" x1="479.95" y1="247.74" x2="453.98" y2="184.94"/><polygon class="cls-1" points="479.76 247.81 453.8 185.02 454.17 184.87 480.13 247.66 479.76 247.81"/><line class="cls-1" x1="479.95" y1="247.74" x2="411.64" y2="301.87"/><rect class="cls-1" x="402.21" y="274.57" width="87.16" height="0.47" transform="translate(-74.25 336.5) rotate(-38.42)"/><line class="cls-1" x1="479.95" y1="247.74" x2="454.58" y2="148.82"/><polygon class="cls-1" points="479.7 247.8 454.33 148.89 454.83 148.76 480.2 247.67 479.7 247.8"/><line class="cls-1" x1="479.95" y1="247.74" x2="495.41" y2="263.85"/><polygon class="cls-1" points="495.32 263.94 479.86 247.82 480.04 247.65 495.5 263.77 495.32 263.94"/><path class="cls-1" d="M579.69,314.42c-28.17-16.35-56.76-32.23-84.28-50.57"/><polygon class="cls-1" points="585.6 318.28 495.27 264.08 495.55 263.63 585.87 317.82 585.6 318.28"/><line class="cls-1" x1="378.94" y1="358.74" x2="411.64" y2="301.87"/><polygon class="cls-1" points="379.11 358.84 378.77 358.64 411.46 301.77 411.81 301.96 379.11 358.84"/><line class="cls-1" x1="378.94" y1="358.74" x2="304.89" y2="321.99"/><rect class="cls-1" x="341.69" y="299.03" width="0.45" height="82.66" transform="translate(-114.97 495.3) rotate(-63.6)"/><line class="cls-1" x1="378.94" y1="358.74" x2="304.99" y2="288.01"/><polygon class="cls-1" points="378.76 358.93 304.8 288.2 305.17 287.82 379.12 358.55 378.76 358.93"/><line class="cls-1" x1="222.51" y1="363.72" x2="304.89" y2="321.99"/><rect class="cls-1" x="217.52" y="342.61" width="92.36" height="0.49" transform="translate(-126.31 155.83) rotate(-26.82)"/><line class="cls-1" x1="222.51" y1="363.72" x2="170.2" y2="311.71"/><rect class="cls-1" x="196.14" y="300.83" width="0.42" height="73.77" transform="translate(-181.57 238.82) rotate(-45.16)"/><line class="cls-1" x1="222.51" y1="363.72" x2="170.2" y2="311.71"/><rect class="cls-1" x="196.14" y="300.83" width="0.42" height="73.77" transform="translate(-181.57 238.82) rotate(-45.16)"/><line class="cls-1" x1="222.51" y1="363.72" x2="206.6" y2="354.3"/><polygon class="cls-1" points="222.45 363.82 206.54 354.4 206.66 354.2 222.57 363.63 222.45 363.82"/><line class="cls-1" x1="222.51" y1="363.72" x2="201.36" y2="280.54"/><rect class="cls-1" x="211.7" y="279.21" width="0.47" height="85.84" transform="translate(-72.84 62.15) rotate(-14.26)"/><line class="cls-1" x1="222.51" y1="363.72" x2="201.36" y2="280.54"/><rect class="cls-1" x="211.7" y="279.21" width="0.47" height="85.84" transform="translate(-72.84 62.15) rotate(-14.26)"/><line class="cls-1" x1="438.68" y1="364.91" x2="378.94" y2="358.74"/><polygon class="cls-1" points="438.66 365.1 378.92 358.93 378.96 358.55 438.7 364.73 438.66 365.1"/><line class="cls-1" x1="438.68" y1="364.91" x2="411.64" y2="301.87"/><rect class="cls-1" x="424.95" y="299.09" width="0.41" height="68.6" transform="translate(-96.99 194.57) rotate(-23.21)"/><path class="cls-1" d="M555.8,320.05l24.06-1.61"/><polygon class="cls-1" points="555.81 320.18 555.79 319.91 585.72 317.92 585.74 318.19 555.81 320.18"/><line class="cls-1" x1="555.8" y1="320.05" x2="479.95" y2="247.74"/><polygon class="cls-1" points="555.62 320.24 479.76 247.93 480.13 247.55 555.98 319.85 555.62 320.24"/><line class="cls-1" x1="555.8" y1="320.05" x2="495.41" y2="263.85"/><rect class="cls-1" x="525.38" y="250.71" width="0.45" height="82.49" transform="translate(-46.18 477.86) rotate(-47.06)"/><path class="cls-1" d="M579.79,290.12l-24,29.93"/><polygon class="cls-1" points="593.61 272.53 555.63 319.91 555.97 320.18 593.61 273.21 593.61 272.53"/><polygon class="cls-1" points="593.61 290.86 585.56 318 585.91 318.1 593.61 292.16 593.61 290.86"/><path class="cls-1" d="M579.61,262.33c-28.09,2.39-55.09-.79-84.2,1.52"/><polygon class="cls-1" points="593.61 261.81 495.4 263.58 495.41 264.12 593.61 262.35 593.61 261.81"/><path class="cls-1" d="M540,214.32l39.94,30.46"/><polygon class="cls-1" points="593.61 254.95 540.11 214.14 539.84 214.49 593.61 255.5 593.61 254.95"/><line class="cls-1" x1="539.97" y1="214.32" x2="555.8" y2="320.05"/><polygon class="cls-1" points="555.53 320.09 539.71 214.36 540.24 214.28 556.07 320.01 555.53 320.09"/><line class="cls-1" x1="539.97" y1="214.32" x2="479.95" y2="247.74"/><polygon class="cls-1" points="480.05 247.92 479.85 247.56 539.87 214.14 540.07 214.5 480.05 247.92"/><path class="cls-1" d="M540,214.32l39.46-.52"/><rect class="cls-1" x="539.97" y="213.72" width="53.64" height="0.5" transform="translate(-2.75 7.42) rotate(-0.75)"/><path class="cls-1" d="M540,214.32l39.46-.52"/><rect class="cls-1" x="539.97" y="213.72" width="53.64" height="0.5" transform="translate(-2.75 7.42) rotate(-0.75)"/><line class="cls-1" x1="539.97" y1="214.32" x2="453.98" y2="184.94"/><polygon class="cls-1" points="539.89 214.55 453.9 185.17 454.06 184.72 540.05 214.09 539.89 214.55"/><path class="cls-1" d="M540,214.32l39.65.62"/><polygon class="cls-1" points="593.61 214.92 539.98 214.07 539.97 214.56 593.61 215.41 593.61 214.92"/><line class="cls-1" x1="539.97" y1="214.32" x2="454.58" y2="148.82"/><rect class="cls-1" x="497.01" y="127.76" width="0.54" height="107.62" transform="translate(50.56 465.64) rotate(-52.51)"/><path class="cls-1" d="M540,214.32,579.87,191"/><polygon class="cls-1" points="593.61 182.73 539.87 214.15 540.07 214.49 593.61 183.18 593.61 182.73"/><line class="cls-1" x1="539.97" y1="214.32" x2="495.41" y2="263.85"/><polygon class="cls-1" points="495.56 263.99 495.26 263.72 539.82 214.18 540.12 214.45 495.56 263.99"/><line class="cls-1" x1="73.28" y1="285.42" x2="56.85" y2="297.4"/><rect class="cls-1" x="54.9" y="291.29" width="20.34" height="0.24" transform="translate(-159.44 94.56) rotate(-36.17)"/><line class="cls-1" x1="73.28" y1="285.42" x2="170.2" y2="311.71"/><polygon class="cls-1" points="170.13 311.96 73.21 285.67 73.35 285.17 170.27 311.46 170.13 311.96"/><line class="cls-1" x1="73.28" y1="285.42" x2="170.2" y2="311.71"/><polygon class="cls-1" points="170.13 311.96 73.21 285.67 73.35 285.17 170.27 311.46 170.13 311.96"/><path class="cls-1" d="M73.28,285.42c-22.05,4.71-42.7,6.3-65.6,10.93"/><polygon class="cls-1" points="0.18 297.82 0.1 297.4 73.25 285.21 73.32 285.63 0.18 297.82"/><line class="cls-1" x1="87.81" y1="353.45" x2="73.28" y2="285.42"/><rect class="cls-1" x="80.34" y="284.65" width="0.41" height="69.56" transform="translate(-64.95 23.87) rotate(-12.06)"/><line class="cls-1" x1="87.81" y1="353.45" x2="56.85" y2="297.4"/><polygon class="cls-1" points="87.64 353.54 56.68 297.5 57.02 297.31 87.98 353.35 87.64 353.54"/><line class="cls-1" x1="87.81" y1="353.45" x2="170.2" y2="311.71"/><rect class="cls-1" x="82.83" y="332.33" width="92.36" height="0.49" transform="translate(-136.16 93.96) rotate(-26.82)"/><line class="cls-1" x1="87.81" y1="353.45" x2="170.2" y2="311.71"/><rect class="cls-1" x="82.83" y="332.33" width="92.36" height="0.49" transform="translate(-136.16 93.96) rotate(-26.82)"/><path class="cls-1" d="M87.81,353.45c-25.46-17.26-52.46-33.14-80-51"/><polygon class="cls-1" points="87.67 353.67 0 297.83 0.28 297.39 87.96 353.22 87.67 353.67"/><line class="cls-1" x1="116.95" y1="249.27" x2="87.81" y2="353.45"/><polygon class="cls-1" points="88.08 353.52 87.55 353.37 116.69 249.2 117.21 249.34 88.08 353.52"/><line class="cls-1" x1="116.95" y1="249.27" x2="73.28" y2="285.42"/><polygon class="cls-1" points="73.4 285.56 73.17 285.28 116.83 249.13 117.07 249.41 73.4 285.56"/><line class="cls-1" x1="116.95" y1="249.27" x2="56.85" y2="297.4"/><polygon class="cls-1" points="56.99 297.57 56.72 297.24 116.81 249.1 117.08 249.44 56.99 297.57"/><line class="cls-1" x1="116.95" y1="249.27" x2="170.2" y2="311.71"/><polygon class="cls-1" points="170.03 311.85 116.78 249.42 117.12 249.12 170.37 311.56 170.03 311.85"/><line class="cls-1" x1="116.95" y1="249.27" x2="170.2" y2="311.71"/><polygon class="cls-1" points="170.03 311.85 116.78 249.42 117.12 249.12 170.37 311.56 170.03 311.85"/><line class="cls-1" x1="116.95" y1="249.27" x2="177.46" y2="232.96"/><polygon class="cls-1" points="117 249.46 116.9 249.08 177.41 232.78 177.51 233.15 117 249.46"/><line class="cls-1" x1="116.95" y1="249.27" x2="196.65" y2="247.69"/><rect class="cls-1" x="116.94" y="248.26" width="79.72" height="0.44" transform="matrix(1, -0.02, 0.02, 1, -5.21, 3.37)"/><line class="cls-1" x1="116.95" y1="249.27" x2="201.36" y2="280.54"/><polygon class="cls-1" points="201.28 280.76 116.87 249.49 117.03 249.04 201.44 280.31 201.28 280.76"/><line class="cls-1" x1="116.95" y1="249.27" x2="201.36" y2="280.54"/><polygon class="cls-1" points="201.28 280.76 116.87 249.49 117.03 249.04 201.44 280.31 201.28 280.76"/><line class="cls-1" x1="331.48" y1="166.21" x2="228.79" y2="169.16"/><rect class="cls-1" x="228.77" y="167.42" width="102.73" height="0.53" transform="translate(-4.84 8.36) rotate(-1.7)"/><line class="cls-1" x1="331.48" y1="166.21" x2="292.85" y2="219.42"/><polygon class="cls-1" points="293.01 219.53 292.69 219.3 331.32 166.1 331.64 166.33 293.01 219.53"/><line class="cls-1" x1="331.48" y1="166.21" x2="331.34" y2="257.97"/><polygon class="cls-1" points="331.59 257.97 331.1 257.97 331.24 166.21 331.73 166.21 331.59 257.97"/><line class="cls-1" x1="410.62" y1="162.24" x2="331.48" y2="166.21"/><polygon class="cls-1" points="331.5 166.43 331.47 165.99 410.61 162.01 410.63 162.46 331.5 166.43"/><line class="cls-1" x1="410.62" y1="162.24" x2="479.95" y2="247.74"/><rect class="cls-1" x="445.01" y="149.95" width="0.55" height="110.08" transform="translate(-29.69 326.22) rotate(-39.04)"/><line class="cls-1" x1="410.62" y1="162.24" x2="423.37" y2="237.78"/><polygon class="cls-1" points="423.16 237.81 410.4 162.27 410.83 162.2 423.59 237.74 423.16 237.81"/><line class="cls-1" x1="410.62" y1="162.24" x2="453.98" y2="184.94"/><polygon class="cls-1" points="453.9 185.09 410.54 162.38 410.69 162.09 454.06 184.79 453.9 185.09"/><line class="cls-1" x1="410.62" y1="162.24" x2="454.58" y2="148.82"/><polygon class="cls-1" points="410.66 162.39 410.57 162.08 454.53 148.66 454.63 148.98 410.66 162.39"/><line class="cls-1" x1="372.49" y1="213.29" x2="410.62" y2="162.24"/><polygon class="cls-1" points="372.65 213.41 372.34 213.18 410.46 162.12 410.77 162.35 372.65 213.41"/><line class="cls-1" x1="372.49" y1="213.29" x2="331.48" y2="166.21"/><polygon class="cls-1" points="372.35 213.42 331.34 166.34 331.63 166.09 372.64 213.17 372.35 213.42"/><line class="cls-1" x1="372.49" y1="213.29" x2="423.37" y2="237.78"/><polygon class="cls-1" points="423.29 237.94 372.41 213.46 372.57 213.13 423.45 237.61 423.29 237.94"/><line class="cls-1" x1="372.49" y1="213.29" x2="453.98" y2="184.94"/><polygon class="cls-1" points="372.57 213.51 372.42 213.07 453.9 184.72 454.06 185.16 372.57 213.51"/><line class="cls-1" x1="372.49" y1="213.29" x2="411.64" y2="301.87"/><polygon class="cls-1" points="411.41 301.97 372.26 213.4 372.72 213.19 411.87 301.76 411.41 301.97"/><line class="cls-1" x1="372.49" y1="213.29" x2="454.58" y2="148.82"/><polygon class="cls-1" points="372.66 213.5 372.33 213.09 454.42 148.61 454.74 149.03 372.66 213.5"/><line class="cls-1" x1="372.49" y1="213.29" x2="292.85" y2="219.42"/><rect class="cls-1" x="292.73" y="216.13" width="79.88" height="0.44" transform="matrix(1, -0.08, 0.08, 1, -15.62, 26.17)"/><line class="cls-1" x1="372.49" y1="213.29" x2="331.34" y2="257.97"/><polygon class="cls-1" points="331.48 258.1 331.2 257.84 372.36 213.17 372.63 213.42 331.48 258.1"/><line class="cls-1" x1="372.49" y1="213.29" x2="304.99" y2="288.01"/><polygon class="cls-1" points="305.18 288.18 304.79 287.84 372.3 213.12 372.68 213.47 305.18 288.18"/><line class="cls-1" x1="487.85" y1="319.86" x2="555.8" y2="320.05"/><polygon class="cls-1" points="555.8 320.25 487.85 320.07 487.85 319.66 555.8 319.85 555.8 320.25"/><line class="cls-1" x1="487.85" y1="319.86" x2="438.68" y2="364.91"/><rect class="cls-1" x="429.92" y="342.19" width="66.69" height="0.4" transform="translate(-109.62 402.8) rotate(-42.49)"/><path class="cls-1" d="M487.85,319.86c30.32-1.14,62.08-1.14,91.87-1.7"/><rect class="cls-1" x="487.84" y="318.7" width="97.9" height="0.51" transform="translate(-5.78 9.94) rotate(-1.06)"/><line class="cls-1" x1="487.85" y1="319.86" x2="479.95" y2="247.74"/><polygon class="cls-1" points="487.64 319.89 479.74 247.76 480.16 247.72 488.06 319.84 487.64 319.89"/><line class="cls-1" x1="487.85" y1="319.86" x2="423.37" y2="237.78"/><polygon class="cls-1" points="487.64 320.03 423.16 237.94 423.58 237.61 488.06 319.7 487.64 320.03"/><line class="cls-1" x1="487.85" y1="319.86" x2="411.64" y2="301.87"/><polygon class="cls-1" points="487.8 320.08 411.59 302.08 411.69 301.65 487.9 319.65 487.8 320.08"/><line class="cls-1" x1="487.85" y1="319.86" x2="495.41" y2="263.85"/><polygon class="cls-1" points="488.03 319.89 487.67 319.84 495.23 263.83 495.59 263.88 488.03 319.89"/><path class="cls-1" d="M579.51,313l-23.71,7.08"/><polygon class="cls-1" points="593.61 308.5 555.73 319.81 555.87 320.28 593.61 309.01 593.61 308.5"/><polygon class="cls-1" points="593.61 314.56 585.66 317.87 585.81 318.23 593.61 314.98 593.61 314.56"/><line class="cls-1" x1="521.52" y1="153.3" x2="539.97" y2="214.32"/><polygon class="cls-1" points="539.79 214.37 521.33 153.35 521.7 153.24 540.16 214.26 539.79 214.37"/><line class="cls-1" x1="521.52" y1="153.3" x2="479.95" y2="247.74"/><rect class="cls-1" x="449.14" y="200.25" width="103.19" height="0.53" transform="matrix(0.4, -0.91, 0.91, 0.4, 114.89, 577.44)"/><line class="cls-1" x1="521.52" y1="153.3" x2="453.98" y2="184.94"/><polygon class="cls-1" points="454.07 185.14 453.89 184.75 521.43 153.1 521.61 153.49 454.07 185.14"/><line class="cls-1" x1="521.52" y1="153.3" x2="454.58" y2="148.82"/><polygon class="cls-1" points="521.51 153.5 454.57 149.02 454.6 148.62 521.53 153.1 521.51 153.5"/><path class="cls-1" d="M521.52,153.3c18.88,8.19,39.53,14.54,58.28,22.72"/><polygon class="cls-1" points="593.61 181.17 521.6 153.09 521.44 153.5 593.61 181.65 593.61 181.17"/><line class="cls-1" x1="136.19" y1="350.14" x2="116.95" y2="249.27"/><rect class="cls-1" x="126.31" y="248.36" width="0.53" height="102.69" transform="translate(-53.92 29.03) rotate(-10.8)"/><line class="cls-1" x1="136.19" y1="350.14" x2="87.81" y2="353.45"/><polygon class="cls-1" points="87.82 353.61 87.8 353.28 136.18 349.97 136.2 350.31 87.82 353.61"/><line class="cls-1" x1="136.19" y1="350.14" x2="73.28" y2="285.42"/><rect class="cls-1" x="104.5" y="272.65" width="0.48" height="90.26" transform="translate(-191.86 162.91) rotate(-44.19)"/><line class="cls-1" x1="136.19" y1="350.14" x2="222.51" y2="363.72"/><polygon class="cls-1" points="222.47 363.96 136.15 350.37 136.23 349.9 222.55 363.49 222.47 363.96"/><line class="cls-1" x1="136.19" y1="350.14" x2="56.85" y2="297.4"/><rect class="cls-1" x="96.27" y="276.14" width="0.5" height="95.27" transform="matrix(0.55, -0.83, 0.83, 0.55, -226.55, 224.94)"/><line class="cls-1" x1="136.19" y1="350.14" x2="170.2" y2="311.71"/><rect class="cls-1" x="127.54" y="330.75" width="51.32" height="0.34" transform="translate(-195.73 224.96) rotate(-48.27)"/><line class="cls-1" x1="136.19" y1="350.14" x2="170.2" y2="311.71"/><rect class="cls-1" x="127.54" y="330.75" width="51.32" height="0.34" transform="translate(-195.73 224.96) rotate(-48.27)"/><line class="cls-1" x1="136.19" y1="350.14" x2="206.6" y2="354.3"/><rect class="cls-1" x="171.19" y="316.95" width="0.41" height="70.54" transform="translate(-190.33 502.53) rotate(-86.62)"/><line class="cls-1" x1="136.19" y1="350.14" x2="201.36" y2="280.54"/><polygon class="cls-1" points="136.37 350.31 136.01 349.97 201.18 280.37 201.54 280.71 136.37 350.31"/><line class="cls-1" x1="136.19" y1="350.14" x2="201.36" y2="280.54"/><polygon class="cls-1" points="136.37 350.31 136.01 349.97 201.18 280.37 201.54 280.71 136.37 350.31"/><path class="cls-1" d="M202.91,280.54a1.55,1.55,0,1,1-1.55-1.56A1.55,1.55,0,0,1,202.91,280.54Z"/><path class="cls-1" d="M198.2,247.69a1.55,1.55,0,1,1-1.55-1.55A1.54,1.54,0,0,1,198.2,247.69Z"/><path class="cls-1" d="M202.91,280.54a1.55,1.55,0,1,1-1.55-1.56A1.55,1.55,0,0,1,202.91,280.54Z"/><path class="cls-1" d="M198.2,247.69a1.55,1.55,0,1,1-1.55-1.55A1.54,1.54,0,0,1,198.2,247.69Z"/><path class="cls-1" d="M198.2,247.69a1.55,1.55,0,1,1-1.55-1.55A1.54,1.54,0,0,1,198.2,247.69Z"/><path class="cls-1" d="M208.15,354.3a1.55,1.55,0,1,1-1.55-1.55A1.54,1.54,0,0,1,208.15,354.3Z"/><path class="cls-1" d="M202.91,280.54a1.55,1.55,0,1,1-1.55-1.56A1.55,1.55,0,0,1,202.91,280.54Z"/><path class="cls-1" d="M208.15,354.3a1.55,1.55,0,1,1-1.55-1.55A1.54,1.54,0,0,1,208.15,354.3Z"/><path class="cls-1" d="M202.91,280.54a1.55,1.55,0,1,1-1.55-1.56A1.55,1.55,0,0,1,202.91,280.54Z"/><path class="cls-1" d="M208.15,354.3a1.55,1.55,0,1,1-1.55-1.55A1.54,1.54,0,0,1,208.15,354.3Z"/><path class="cls-1" d="M202.91,280.54a1.55,1.55,0,1,1-1.55-1.56A1.55,1.55,0,0,1,202.91,280.54Z"/><path class="cls-1" d="M306.54,288a1.56,1.56,0,1,1-1.55-1.55A1.55,1.55,0,0,1,306.54,288Z"/><path class="cls-1" d="M202.91,280.54a1.55,1.55,0,1,1-1.55-1.56A1.55,1.55,0,0,1,202.91,280.54Z"/><path class="cls-1" d="M306.54,288a1.56,1.56,0,1,1-1.55-1.55A1.55,1.55,0,0,1,306.54,288Z"/><path class="cls-1" d="M306.54,288a1.56,1.56,0,1,1-1.55-1.55A1.55,1.55,0,0,1,306.54,288Z"/><path class="cls-1" d="M332.89,258a1.55,1.55,0,1,1-1.55-1.55A1.54,1.54,0,0,1,332.89,258Z"/><path class="cls-1" d="M332.89,258a1.55,1.55,0,1,1-1.55-1.55A1.54,1.54,0,0,1,332.89,258Z"/><path class="cls-1" d="M294.4,219.42a1.55,1.55,0,1,1-1.55-1.55A1.55,1.55,0,0,1,294.4,219.42Z"/><path class="cls-1" d="M306.54,288a1.56,1.56,0,1,1-1.55-1.55A1.55,1.55,0,0,1,306.54,288Z"/><path class="cls-1" d="M294.4,219.42a1.55,1.55,0,1,1-1.55-1.55A1.55,1.55,0,0,1,294.4,219.42Z"/><path class="cls-1" d="M198.2,247.69a1.55,1.55,0,1,1-1.55-1.55A1.54,1.54,0,0,1,198.2,247.69Z"/><path class="cls-1" d="M294.4,219.42a1.55,1.55,0,1,1-1.55-1.55A1.55,1.55,0,0,1,294.4,219.42Z"/><path class="cls-1" d="M202.91,280.54a1.55,1.55,0,1,1-1.55-1.56A1.55,1.55,0,0,1,202.91,280.54Z"/><path class="cls-1" d="M294.4,219.42a1.55,1.55,0,1,1-1.55-1.55A1.55,1.55,0,0,1,294.4,219.42Z"/><path class="cls-1" d="M202.91,280.54a1.55,1.55,0,1,1-1.55-1.56A1.55,1.55,0,0,1,202.91,280.54Z"/><path class="cls-1" d="M294.4,219.42a1.55,1.55,0,1,1-1.55-1.55A1.55,1.55,0,0,1,294.4,219.42Z"/><path class="cls-1" d="M198.2,247.69a1.55,1.55,0,1,1-1.55-1.55A1.54,1.54,0,0,1,198.2,247.69Z"/><path class="cls-1" d="M179,233a1.55,1.55,0,1,1-1.55-1.55A1.54,1.54,0,0,1,179,233Z"/><path class="cls-1" d="M202.91,280.54a1.55,1.55,0,1,1-1.55-1.56A1.55,1.55,0,0,1,202.91,280.54Z"/><path class="cls-1" d="M179,233a1.55,1.55,0,1,1-1.55-1.55A1.54,1.54,0,0,1,179,233Z"/><path class="cls-1" d="M202.91,280.54a1.55,1.55,0,1,1-1.55-1.56A1.55,1.55,0,0,1,202.91,280.54Z"/><path class="cls-1" d="M179,233a1.55,1.55,0,1,1-1.55-1.55A1.54,1.54,0,0,1,179,233Z"/><path class="cls-1" d="M179,233a1.55,1.55,0,1,1-1.55-1.55A1.54,1.54,0,0,1,179,233Z"/><path class="cls-1" d="M171.75,311.71a1.55,1.55,0,1,1-1.55-1.55A1.55,1.55,0,0,1,171.75,311.71Z"/><path class="cls-1" d="M208.15,354.3a1.55,1.55,0,1,1-1.55-1.55A1.54,1.54,0,0,1,208.15,354.3Z"/><path class="cls-1" d="M171.75,311.71a1.55,1.55,0,1,1-1.55-1.55A1.55,1.55,0,0,1,171.75,311.71Z"/><path class="cls-1" d="M198.2,247.69a1.55,1.55,0,1,1-1.55-1.55A1.54,1.54,0,0,1,198.2,247.69Z"/><path class="cls-1" d="M171.75,311.71a1.55,1.55,0,1,1-1.55-1.55A1.55,1.55,0,0,1,171.75,311.71Z"/><path class="cls-1" d="M202.91,280.54a1.55,1.55,0,1,1-1.55-1.56A1.55,1.55,0,0,1,202.91,280.54Z"/><path class="cls-1" d="M171.75,311.71a1.55,1.55,0,1,1-1.55-1.55A1.55,1.55,0,0,1,171.75,311.71Z"/><path class="cls-1" d="M202.91,280.54a1.55,1.55,0,1,1-1.55-1.56A1.55,1.55,0,0,1,202.91,280.54Z"/><path class="cls-1" d="M171.75,311.71a1.55,1.55,0,1,1-1.55-1.55A1.55,1.55,0,0,1,171.75,311.71Z"/><path class="cls-1" d="M179,233a1.55,1.55,0,1,1-1.55-1.55A1.54,1.54,0,0,1,179,233Z"/><path class="cls-1" d="M171.75,311.71a1.55,1.55,0,1,1-1.55-1.55A1.55,1.55,0,0,1,171.75,311.71Z"/><path class="cls-1" d="M208.15,354.3a1.55,1.55,0,1,1-1.55-1.55A1.54,1.54,0,0,1,208.15,354.3Z"/><path class="cls-1" d="M171.75,311.71a1.55,1.55,0,1,1-1.55-1.55A1.55,1.55,0,0,1,171.75,311.71Z"/><path class="cls-1" d="M198.2,247.69a1.55,1.55,0,1,1-1.55-1.55A1.54,1.54,0,0,1,198.2,247.69Z"/><path class="cls-1" d="M171.75,311.71a1.55,1.55,0,1,1-1.55-1.55A1.55,1.55,0,0,1,171.75,311.71Z"/><path class="cls-1" d="M202.91,280.54a1.55,1.55,0,1,1-1.55-1.56A1.55,1.55,0,0,1,202.91,280.54Z"/><path class="cls-1" d="M171.75,311.71a1.55,1.55,0,1,1-1.55-1.55A1.55,1.55,0,0,1,171.75,311.71Z"/><path class="cls-1" d="M202.91,280.54a1.55,1.55,0,1,1-1.55-1.56A1.55,1.55,0,0,1,202.91,280.54Z"/><path class="cls-1" d="M171.75,311.71a1.55,1.55,0,1,1-1.55-1.55A1.55,1.55,0,0,1,171.75,311.71Z"/><path class="cls-1" d="M58.4,297.4a1.55,1.55,0,1,1-1.55-1.55A1.55,1.55,0,0,1,58.4,297.4Z"/><path class="cls-1" d="M294.4,219.42a1.55,1.55,0,1,1-1.55-1.55A1.55,1.55,0,0,1,294.4,219.42Z"/><path class="cls-1" d="M306.44,322a1.55,1.55,0,1,1-1.55-1.55A1.55,1.55,0,0,1,306.44,322Z"/><path class="cls-1" d="M332.89,258a1.55,1.55,0,1,1-1.55-1.55A1.54,1.54,0,0,1,332.89,258Z"/><path class="cls-1" d="M306.44,322a1.55,1.55,0,1,1-1.55-1.55A1.55,1.55,0,0,1,306.44,322Z"/><path class="cls-1" d="M306.54,288a1.56,1.56,0,1,1-1.55-1.55A1.55,1.55,0,0,1,306.54,288Z"/><path class="cls-1" d="M306.44,322a1.55,1.55,0,1,1-1.55-1.55A1.55,1.55,0,0,1,306.44,322Z"/><path class="cls-1" d="M208.15,354.3a1.55,1.55,0,1,1-1.55-1.55A1.54,1.54,0,0,1,208.15,354.3Z"/><path class="cls-1" d="M306.44,322a1.55,1.55,0,1,1-1.55-1.55A1.55,1.55,0,0,1,306.44,322Z"/><path class="cls-1" d="M179,233a1.55,1.55,0,1,1-1.55-1.55A1.54,1.54,0,0,1,179,233Z"/><path class="cls-1" d="M230.35,169.16a1.56,1.56,0,1,1-1.56-1.55A1.55,1.55,0,0,1,230.35,169.16Z"/><path class="cls-1" d="M294.4,219.42a1.55,1.55,0,1,1-1.55-1.55A1.55,1.55,0,0,1,294.4,219.42Z"/><path class="cls-1" d="M230.35,169.16a1.56,1.56,0,1,1-1.56-1.55A1.55,1.55,0,0,1,230.35,169.16Z"/><path class="cls-1" d="M198.2,247.69a1.55,1.55,0,1,1-1.55-1.55A1.54,1.54,0,0,1,198.2,247.69Z"/><path class="cls-1" d="M230.35,169.16a1.56,1.56,0,1,1-1.56-1.55A1.55,1.55,0,0,1,230.35,169.16Z"/><path class="cls-1" d="M497,263.85a1.55,1.55,0,1,1-1.55-1.55A1.56,1.56,0,0,1,497,263.85Z"/><path class="cls-1" d="M413.19,301.87a1.56,1.56,0,1,1-1.55-1.55A1.56,1.56,0,0,1,413.19,301.87Z"/><path class="cls-1" d="M306.44,322a1.55,1.55,0,1,1-1.55-1.55A1.55,1.55,0,0,1,306.44,322Z"/><path class="cls-1" d="M413.19,301.87a1.56,1.56,0,1,1-1.55-1.55A1.56,1.56,0,0,1,413.19,301.87Z"/><path class="cls-1" d="M332.89,258a1.55,1.55,0,1,1-1.55-1.55A1.54,1.54,0,0,1,332.89,258Z"/><path class="cls-1" d="M413.19,301.87a1.56,1.56,0,1,1-1.55-1.55A1.56,1.56,0,0,1,413.19,301.87Z"/><path class="cls-1" d="M306.54,288a1.56,1.56,0,1,1-1.55-1.55A1.55,1.55,0,0,1,306.54,288Z"/><path class="cls-1" d="M413.19,301.87a1.56,1.56,0,1,1-1.55-1.55A1.56,1.56,0,0,1,413.19,301.87Z"/><path class="cls-1" d="M456.13,148.82a1.55,1.55,0,1,1-1.55-1.55A1.54,1.54,0,0,1,456.13,148.82Z"/><path class="cls-1" d="M455.53,184.94a1.55,1.55,0,1,1-1.55-1.55A1.54,1.54,0,0,1,455.53,184.94Z"/><path class="cls-1" d="M497,263.85a1.55,1.55,0,1,1-1.55-1.55A1.56,1.56,0,0,1,497,263.85Z"/><path class="cls-1" d="M455.53,184.94a1.55,1.55,0,1,1-1.55-1.55A1.54,1.54,0,0,1,455.53,184.94Z"/><path class="cls-1" d="M455.53,184.94a1.55,1.55,0,1,1-1.55-1.55A1.54,1.54,0,0,1,455.53,184.94Z"/><path class="cls-1" d="M424.92,237.78a1.55,1.55,0,1,1-1.55-1.56A1.55,1.55,0,0,1,424.92,237.78Z"/><path class="cls-1" d="M413.19,301.87a1.56,1.56,0,1,1-1.55-1.55A1.56,1.56,0,0,1,413.19,301.87Z"/><path class="cls-1" d="M424.92,237.78a1.55,1.55,0,1,1-1.55-1.56A1.55,1.55,0,0,1,424.92,237.78Z"/><path class="cls-1" d="M456.13,148.82a1.55,1.55,0,1,1-1.55-1.55A1.54,1.54,0,0,1,456.13,148.82Z"/><path class="cls-1" d="M424.92,237.78a1.55,1.55,0,1,1-1.55-1.56A1.55,1.55,0,0,1,424.92,237.78Z"/><path class="cls-1" d="M497,263.85a1.55,1.55,0,1,1-1.55-1.55A1.56,1.56,0,0,1,497,263.85Z"/><path class="cls-1" d="M424.92,237.78a1.55,1.55,0,1,1-1.55-1.56A1.55,1.55,0,0,1,424.92,237.78Z"/><path class="cls-1" d="M332.89,258a1.55,1.55,0,1,1-1.55-1.55A1.54,1.54,0,0,1,332.89,258Z"/><path class="cls-1" d="M424.92,237.78a1.55,1.55,0,1,1-1.55-1.56A1.55,1.55,0,0,1,424.92,237.78Z"/><path class="cls-1" d="M424.92,237.78a1.55,1.55,0,1,1-1.55-1.56A1.55,1.55,0,0,1,424.92,237.78Z"/><circle class="cls-1" cx="479.95" cy="247.74" r="1.55"/><path class="cls-1" d="M455.53,184.94a1.55,1.55,0,1,1-1.55-1.55A1.54,1.54,0,0,1,455.53,184.94Z"/><circle class="cls-1" cx="479.95" cy="247.74" r="1.55"/><path class="cls-1" d="M413.19,301.87a1.56,1.56,0,1,1-1.55-1.55A1.56,1.56,0,0,1,413.19,301.87Z"/><circle class="cls-1" cx="479.95" cy="247.74" r="1.55"/><path class="cls-1" d="M456.13,148.82a1.55,1.55,0,1,1-1.55-1.55A1.54,1.54,0,0,1,456.13,148.82Z"/><circle class="cls-1" cx="479.95" cy="247.74" r="1.55"/><path class="cls-1" d="M497,263.85a1.55,1.55,0,1,1-1.55-1.55A1.56,1.56,0,0,1,497,263.85Z"/><circle class="cls-1" cx="479.95" cy="247.74" r="1.55"/><path class="cls-1" d="M497,263.85a1.55,1.55,0,1,1-1.55-1.55A1.56,1.56,0,0,1,497,263.85Z"/><path class="cls-1" d="M587.28,318.05a1.55,1.55,0,1,1-1.55-1.55A1.54,1.54,0,0,1,587.28,318.05Z"/><path class="cls-1" d="M413.19,301.87a1.56,1.56,0,1,1-1.55-1.55A1.56,1.56,0,0,1,413.19,301.87Z"/><path class="cls-1" d="M380.49,358.74a1.55,1.55,0,1,1-1.55-1.55A1.55,1.55,0,0,1,380.49,358.74Z"/><path class="cls-1" d="M306.44,322a1.55,1.55,0,1,1-1.55-1.55A1.55,1.55,0,0,1,306.44,322Z"/><path class="cls-1" d="M380.49,358.74a1.55,1.55,0,1,1-1.55-1.55A1.55,1.55,0,0,1,380.49,358.74Z"/><path class="cls-1" d="M306.54,288a1.56,1.56,0,1,1-1.55-1.55A1.55,1.55,0,0,1,306.54,288Z"/><path class="cls-1" d="M380.49,358.74a1.55,1.55,0,1,1-1.55-1.55A1.55,1.55,0,0,1,380.49,358.74Z"/><path class="cls-1" d="M306.44,322a1.55,1.55,0,1,1-1.55-1.55A1.55,1.55,0,0,1,306.44,322Z"/><path class="cls-1" d="M224.06,363.72a1.55,1.55,0,1,1-1.55-1.55A1.54,1.54,0,0,1,224.06,363.72Z"/><path class="cls-1" d="M171.75,311.71a1.55,1.55,0,1,1-1.55-1.55A1.55,1.55,0,0,1,171.75,311.71Z"/><path class="cls-1" d="M224.06,363.72a1.55,1.55,0,1,1-1.55-1.55A1.54,1.54,0,0,1,224.06,363.72Z"/><path class="cls-1" d="M171.75,311.71a1.55,1.55,0,1,1-1.55-1.55A1.55,1.55,0,0,1,171.75,311.71Z"/><path class="cls-1" d="M224.06,363.72a1.55,1.55,0,1,1-1.55-1.55A1.54,1.54,0,0,1,224.06,363.72Z"/><path class="cls-1" d="M208.15,354.3a1.55,1.55,0,1,1-1.55-1.55A1.54,1.54,0,0,1,208.15,354.3Z"/><path class="cls-1" d="M224.06,363.72a1.55,1.55,0,1,1-1.55-1.55A1.54,1.54,0,0,1,224.06,363.72Z"/><path class="cls-1" d="M202.91,280.54a1.55,1.55,0,1,1-1.55-1.56A1.55,1.55,0,0,1,202.91,280.54Z"/><path class="cls-1" d="M224.06,363.72a1.55,1.55,0,1,1-1.55-1.55A1.54,1.54,0,0,1,224.06,363.72Z"/><path class="cls-1" d="M202.91,280.54a1.55,1.55,0,1,1-1.55-1.56A1.55,1.55,0,0,1,202.91,280.54Z"/><path class="cls-1" d="M224.06,363.72a1.55,1.55,0,1,1-1.55-1.55A1.54,1.54,0,0,1,224.06,363.72Z"/><path class="cls-1" d="M380.49,358.74a1.55,1.55,0,1,1-1.55-1.55A1.55,1.55,0,0,1,380.49,358.74Z"/><path class="cls-1" d="M440.23,364.91a1.56,1.56,0,1,1-1.55-1.55A1.55,1.55,0,0,1,440.23,364.91Z"/><path class="cls-1" d="M413.19,301.87a1.56,1.56,0,1,1-1.55-1.55A1.56,1.56,0,0,1,413.19,301.87Z"/><path class="cls-1" d="M440.23,364.91a1.56,1.56,0,1,1-1.55-1.55A1.55,1.55,0,0,1,440.23,364.91Z"/><path class="cls-1" d="M587.28,318.05a1.55,1.55,0,1,1-1.55-1.55A1.54,1.54,0,0,1,587.28,318.05Z"/><path class="cls-1" d="M557.35,320.05a1.55,1.55,0,1,1-1.55-1.56A1.56,1.56,0,0,1,557.35,320.05Z"/><circle class="cls-1" cx="479.95" cy="247.74" r="1.55"/><path class="cls-1" d="M557.35,320.05a1.55,1.55,0,1,1-1.55-1.56A1.56,1.56,0,0,1,557.35,320.05Z"/><path class="cls-1" d="M497,263.85a1.55,1.55,0,1,1-1.55-1.55A1.56,1.56,0,0,1,497,263.85Z"/><path class="cls-1" d="M557.35,320.05a1.55,1.55,0,1,1-1.55-1.56A1.56,1.56,0,0,1,557.35,320.05Z"/><path class="cls-1" d="M557.35,320.05a1.55,1.55,0,1,1-1.55-1.56A1.56,1.56,0,0,1,557.35,320.05Z"/><path class="cls-1" d="M587.28,318.05a1.55,1.55,0,1,1-1.55-1.55A1.54,1.54,0,0,1,587.28,318.05Z"/><path class="cls-1" d="M497,263.85a1.55,1.55,0,1,1-1.55-1.55A1.56,1.56,0,0,1,497,263.85Z"/><path class="cls-1" d="M541.52,214.32a1.55,1.55,0,1,1-1.55-1.55A1.55,1.55,0,0,1,541.52,214.32Z"/><path class="cls-1" d="M557.35,320.05a1.55,1.55,0,1,1-1.55-1.56A1.56,1.56,0,0,1,557.35,320.05Z"/><path class="cls-1" d="M541.52,214.32a1.55,1.55,0,1,1-1.55-1.55A1.55,1.55,0,0,1,541.52,214.32Z"/><circle class="cls-1" cx="479.95" cy="247.74" r="1.55"/><path class="cls-1" d="M541.52,214.32a1.55,1.55,0,1,1-1.55-1.55A1.55,1.55,0,0,1,541.52,214.32Z"/><path class="cls-1" d="M541.52,214.32a1.55,1.55,0,1,1-1.55-1.55A1.55,1.55,0,0,1,541.52,214.32Z"/><path class="cls-1" d="M541.52,214.32a1.55,1.55,0,1,1-1.55-1.55A1.55,1.55,0,0,1,541.52,214.32Z"/><path class="cls-1" d="M455.53,184.94a1.55,1.55,0,1,1-1.55-1.55A1.54,1.54,0,0,1,455.53,184.94Z"/><path class="cls-1" d="M541.52,214.32a1.55,1.55,0,1,1-1.55-1.55A1.55,1.55,0,0,1,541.52,214.32Z"/><path class="cls-1" d="M541.52,214.32a1.55,1.55,0,1,1-1.55-1.55A1.55,1.55,0,0,1,541.52,214.32Z"/><path class="cls-1" d="M456.13,148.82a1.55,1.55,0,1,1-1.55-1.55A1.54,1.54,0,0,1,456.13,148.82Z"/><path class="cls-1" d="M541.52,214.32a1.55,1.55,0,1,1-1.55-1.55A1.55,1.55,0,0,1,541.52,214.32Z"/><path class="cls-1" d="M541.52,214.32a1.55,1.55,0,1,1-1.55-1.55A1.55,1.55,0,0,1,541.52,214.32Z"/><path class="cls-1" d="M497,263.85a1.55,1.55,0,1,1-1.55-1.55A1.56,1.56,0,0,1,497,263.85Z"/><path class="cls-1" d="M541.52,214.32a1.55,1.55,0,1,1-1.55-1.55A1.55,1.55,0,0,1,541.52,214.32Z"/><path class="cls-1" d="M58.4,297.4a1.55,1.55,0,1,1-1.55-1.55A1.55,1.55,0,0,1,58.4,297.4Z"/><path class="cls-1" d="M74.83,285.42a1.55,1.55,0,1,1-1.55-1.55A1.54,1.54,0,0,1,74.83,285.42Z"/><path class="cls-1" d="M171.75,311.71a1.55,1.55,0,1,1-1.55-1.55A1.55,1.55,0,0,1,171.75,311.71Z"/><path class="cls-1" d="M74.83,285.42a1.55,1.55,0,1,1-1.55-1.55A1.54,1.54,0,0,1,74.83,285.42Z"/><path class="cls-1" d="M171.75,311.71a1.55,1.55,0,1,1-1.55-1.55A1.55,1.55,0,0,1,171.75,311.71Z"/><path class="cls-1" d="M74.83,285.42a1.55,1.55,0,1,1-1.55-1.55A1.54,1.54,0,0,1,74.83,285.42Z"/><path class="cls-1" d="M74.83,285.42a1.55,1.55,0,1,1-1.55-1.55A1.54,1.54,0,0,1,74.83,285.42Z"/><path class="cls-1" d="M74.83,285.42a1.55,1.55,0,1,1-1.55-1.55A1.54,1.54,0,0,1,74.83,285.42Z"/><path class="cls-1" d="M89.37,353.45a1.56,1.56,0,1,1-1.56-1.55A1.56,1.56,0,0,1,89.37,353.45Z"/><path class="cls-1" d="M58.4,297.4a1.55,1.55,0,1,1-1.55-1.55A1.55,1.55,0,0,1,58.4,297.4Z"/><path class="cls-1" d="M89.37,353.45a1.56,1.56,0,1,1-1.56-1.55A1.56,1.56,0,0,1,89.37,353.45Z"/><path class="cls-1" d="M171.75,311.71a1.55,1.55,0,1,1-1.55-1.55A1.55,1.55,0,0,1,171.75,311.71Z"/><path class="cls-1" d="M89.37,353.45a1.56,1.56,0,1,1-1.56-1.55A1.56,1.56,0,0,1,89.37,353.45Z"/><path class="cls-1" d="M171.75,311.71a1.55,1.55,0,1,1-1.55-1.55A1.55,1.55,0,0,1,171.75,311.71Z"/><path class="cls-1" d="M89.37,353.45a1.56,1.56,0,1,1-1.56-1.55A1.56,1.56,0,0,1,89.37,353.45Z"/><path class="cls-1" d="M89.37,353.45a1.56,1.56,0,1,1-1.56-1.55A1.56,1.56,0,0,1,89.37,353.45Z"/><path class="cls-1" d="M89.37,353.45a1.56,1.56,0,1,1-1.56-1.55A1.56,1.56,0,0,1,89.37,353.45Z"/><path class="cls-1" d="M118.5,249.27a1.55,1.55,0,1,1-1.55-1.55A1.55,1.55,0,0,1,118.5,249.27Z"/><path class="cls-1" d="M74.83,285.42a1.55,1.55,0,1,1-1.55-1.55A1.54,1.54,0,0,1,74.83,285.42Z"/><path class="cls-1" d="M118.5,249.27a1.55,1.55,0,1,1-1.55-1.55A1.55,1.55,0,0,1,118.5,249.27Z"/><path class="cls-1" d="M58.4,297.4a1.55,1.55,0,1,1-1.55-1.55A1.55,1.55,0,0,1,58.4,297.4Z"/><path class="cls-1" d="M118.5,249.27a1.55,1.55,0,1,1-1.55-1.55A1.55,1.55,0,0,1,118.5,249.27Z"/><path class="cls-1" d="M171.75,311.71a1.55,1.55,0,1,1-1.55-1.55A1.55,1.55,0,0,1,171.75,311.71Z"/><path class="cls-1" d="M118.5,249.27a1.55,1.55,0,1,1-1.55-1.55A1.55,1.55,0,0,1,118.5,249.27Z"/><path class="cls-1" d="M171.75,311.71a1.55,1.55,0,1,1-1.55-1.55A1.55,1.55,0,0,1,171.75,311.71Z"/><path class="cls-1" d="M118.5,249.27a1.55,1.55,0,1,1-1.55-1.55A1.55,1.55,0,0,1,118.5,249.27Z"/><path class="cls-1" d="M179,233a1.55,1.55,0,1,1-1.55-1.55A1.54,1.54,0,0,1,179,233Z"/><path class="cls-1" d="M118.5,249.27a1.55,1.55,0,1,1-1.55-1.55A1.55,1.55,0,0,1,118.5,249.27Z"/><path class="cls-1" d="M198.2,247.69a1.55,1.55,0,1,1-1.55-1.55A1.54,1.54,0,0,1,198.2,247.69Z"/><path class="cls-1" d="M118.5,249.27a1.55,1.55,0,1,1-1.55-1.55A1.55,1.55,0,0,1,118.5,249.27Z"/><path class="cls-1" d="M202.91,280.54a1.55,1.55,0,1,1-1.55-1.56A1.55,1.55,0,0,1,202.91,280.54Z"/><path class="cls-1" d="M118.5,249.27a1.55,1.55,0,1,1-1.55-1.55A1.55,1.55,0,0,1,118.5,249.27Z"/><path class="cls-1" d="M202.91,280.54a1.55,1.55,0,1,1-1.55-1.56A1.55,1.55,0,0,1,202.91,280.54Z"/><path class="cls-1" d="M118.5,249.27a1.55,1.55,0,1,1-1.55-1.55A1.55,1.55,0,0,1,118.5,249.27Z"/><path class="cls-1" d="M230.35,169.16a1.56,1.56,0,1,1-1.56-1.55A1.55,1.55,0,0,1,230.35,169.16Z"/><path class="cls-1" d="M333,166.21a1.55,1.55,0,1,1-1.55-1.55A1.54,1.54,0,0,1,333,166.21Z"/><path class="cls-1" d="M294.4,219.42a1.55,1.55,0,1,1-1.55-1.55A1.55,1.55,0,0,1,294.4,219.42Z"/><path class="cls-1" d="M333,166.21a1.55,1.55,0,1,1-1.55-1.55A1.54,1.54,0,0,1,333,166.21Z"/><path class="cls-1" d="M332.89,258a1.55,1.55,0,1,1-1.55-1.55A1.54,1.54,0,0,1,332.89,258Z"/><path class="cls-1" d="M333,166.21a1.55,1.55,0,1,1-1.55-1.55A1.54,1.54,0,0,1,333,166.21Z"/><path class="cls-1" d="M333,166.21a1.55,1.55,0,1,1-1.55-1.55A1.54,1.54,0,0,1,333,166.21Z"/><path class="cls-1" d="M412.17,162.24a1.56,1.56,0,1,1-1.55-1.56A1.56,1.56,0,0,1,412.17,162.24Z"/><circle class="cls-1" cx="479.95" cy="247.74" r="1.55"/><path class="cls-1" d="M412.17,162.24a1.56,1.56,0,1,1-1.55-1.56A1.56,1.56,0,0,1,412.17,162.24Z"/><path class="cls-1" d="M424.92,237.78a1.55,1.55,0,1,1-1.55-1.56A1.55,1.55,0,0,1,424.92,237.78Z"/><path class="cls-1" d="M412.17,162.24a1.56,1.56,0,1,1-1.55-1.56A1.56,1.56,0,0,1,412.17,162.24Z"/><path class="cls-1" d="M455.53,184.94a1.55,1.55,0,1,1-1.55-1.55A1.54,1.54,0,0,1,455.53,184.94Z"/><path class="cls-1" d="M412.17,162.24a1.56,1.56,0,1,1-1.55-1.56A1.56,1.56,0,0,1,412.17,162.24Z"/><path class="cls-1" d="M456.13,148.82a1.55,1.55,0,1,1-1.55-1.55A1.54,1.54,0,0,1,456.13,148.82Z"/><path class="cls-1" d="M412.17,162.24a1.56,1.56,0,1,1-1.55-1.56A1.56,1.56,0,0,1,412.17,162.24Z"/><path class="cls-1" d="M412.17,162.24a1.56,1.56,0,1,1-1.55-1.56A1.56,1.56,0,0,1,412.17,162.24Z"/><path class="cls-1" d="M374,213.29a1.55,1.55,0,1,1-1.55-1.55A1.55,1.55,0,0,1,374,213.29Z"/><path class="cls-1" d="M333,166.21a1.55,1.55,0,1,1-1.55-1.55A1.54,1.54,0,0,1,333,166.21Z"/><path class="cls-1" d="M374,213.29a1.55,1.55,0,1,1-1.55-1.55A1.55,1.55,0,0,1,374,213.29Z"/><path class="cls-1" d="M424.92,237.78a1.55,1.55,0,1,1-1.55-1.56A1.55,1.55,0,0,1,424.92,237.78Z"/><path class="cls-1" d="M374,213.29a1.55,1.55,0,1,1-1.55-1.55A1.55,1.55,0,0,1,374,213.29Z"/><path class="cls-1" d="M455.53,184.94a1.55,1.55,0,1,1-1.55-1.55A1.54,1.54,0,0,1,455.53,184.94Z"/><path class="cls-1" d="M374,213.29a1.55,1.55,0,1,1-1.55-1.55A1.55,1.55,0,0,1,374,213.29Z"/><path class="cls-1" d="M413.19,301.87a1.56,1.56,0,1,1-1.55-1.55A1.56,1.56,0,0,1,413.19,301.87Z"/><path class="cls-1" d="M374,213.29a1.55,1.55,0,1,1-1.55-1.55A1.55,1.55,0,0,1,374,213.29Z"/><path class="cls-1" d="M456.13,148.82a1.55,1.55,0,1,1-1.55-1.55A1.54,1.54,0,0,1,456.13,148.82Z"/><path class="cls-1" d="M374,213.29a1.55,1.55,0,1,1-1.55-1.55A1.55,1.55,0,0,1,374,213.29Z"/><path class="cls-1" d="M294.4,219.42a1.55,1.55,0,1,1-1.55-1.55A1.55,1.55,0,0,1,294.4,219.42Z"/><path class="cls-1" d="M374,213.29a1.55,1.55,0,1,1-1.55-1.55A1.55,1.55,0,0,1,374,213.29Z"/><path class="cls-1" d="M332.89,258a1.55,1.55,0,1,1-1.55-1.55A1.54,1.54,0,0,1,332.89,258Z"/><path class="cls-1" d="M374,213.29a1.55,1.55,0,1,1-1.55-1.55A1.55,1.55,0,0,1,374,213.29Z"/><path class="cls-1" d="M306.54,288a1.56,1.56,0,1,1-1.55-1.55A1.55,1.55,0,0,1,306.54,288Z"/><path class="cls-1" d="M374,213.29a1.55,1.55,0,1,1-1.55-1.55A1.55,1.55,0,0,1,374,213.29Z"/><path class="cls-1" d="M557.35,320.05a1.55,1.55,0,1,1-1.55-1.56A1.56,1.56,0,0,1,557.35,320.05Z"/><path class="cls-1" d="M489.4,319.86a1.56,1.56,0,1,1-1.55-1.55A1.55,1.55,0,0,1,489.4,319.86Z"/><path class="cls-1" d="M440.23,364.91a1.56,1.56,0,1,1-1.55-1.55A1.55,1.55,0,0,1,440.23,364.91Z"/><path class="cls-1" d="M489.4,319.86a1.56,1.56,0,1,1-1.55-1.55A1.55,1.55,0,0,1,489.4,319.86Z"/><path class="cls-1" d="M587.28,318.05a1.55,1.55,0,1,1-1.55-1.55A1.54,1.54,0,0,1,587.28,318.05Z"/><path class="cls-1" d="M489.4,319.86a1.56,1.56,0,1,1-1.55-1.55A1.55,1.55,0,0,1,489.4,319.86Z"/><circle class="cls-1" cx="479.95" cy="247.74" r="1.55"/><path class="cls-1" d="M489.4,319.86a1.56,1.56,0,1,1-1.55-1.55A1.55,1.55,0,0,1,489.4,319.86Z"/><path class="cls-1" d="M424.92,237.78a1.55,1.55,0,1,1-1.55-1.56A1.55,1.55,0,0,1,424.92,237.78Z"/><path class="cls-1" d="M489.4,319.86a1.56,1.56,0,1,1-1.55-1.55A1.55,1.55,0,0,1,489.4,319.86Z"/><path class="cls-1" d="M413.19,301.87a1.56,1.56,0,1,1-1.55-1.55A1.56,1.56,0,0,1,413.19,301.87Z"/><path class="cls-1" d="M489.4,319.86a1.56,1.56,0,1,1-1.55-1.55A1.55,1.55,0,0,1,489.4,319.86Z"/><path class="cls-1" d="M497,263.85a1.55,1.55,0,1,1-1.55-1.55A1.56,1.56,0,0,1,497,263.85Z"/><path class="cls-1" d="M489.4,319.86a1.56,1.56,0,1,1-1.55-1.55A1.55,1.55,0,0,1,489.4,319.86Z"/><path class="cls-1" d="M557.35,320.05a1.55,1.55,0,1,1-1.55-1.56A1.56,1.56,0,0,1,557.35,320.05Z"/><path class="cls-1" d="M587.28,318.05a1.55,1.55,0,1,1-1.55-1.55A1.54,1.54,0,0,1,587.28,318.05Z"/><path class="cls-1" d="M541.52,214.32a1.55,1.55,0,1,1-1.55-1.55A1.55,1.55,0,0,1,541.52,214.32Z"/><path class="cls-1" d="M523.07,153.3a1.55,1.55,0,1,1-1.55-1.55A1.56,1.56,0,0,1,523.07,153.3Z"/><circle class="cls-1" cx="479.95" cy="247.74" r="1.55"/><path class="cls-1" d="M523.07,153.3a1.55,1.55,0,1,1-1.55-1.55A1.56,1.56,0,0,1,523.07,153.3Z"/><path class="cls-1" d="M455.53,184.94a1.55,1.55,0,1,1-1.55-1.55A1.54,1.54,0,0,1,455.53,184.94Z"/><path class="cls-1" d="M523.07,153.3a1.55,1.55,0,1,1-1.55-1.55A1.56,1.56,0,0,1,523.07,153.3Z"/><path class="cls-1" d="M456.13,148.82a1.55,1.55,0,1,1-1.55-1.55A1.54,1.54,0,0,1,456.13,148.82Z"/><path class="cls-1" d="M523.07,153.3a1.55,1.55,0,1,1-1.55-1.55A1.56,1.56,0,0,1,523.07,153.3Z"/><path class="cls-1" d="M523.07,153.3a1.55,1.55,0,1,1-1.55-1.55A1.56,1.56,0,0,1,523.07,153.3Z"/><path class="cls-1" d="M118.5,249.27a1.55,1.55,0,1,1-1.55-1.55A1.55,1.55,0,0,1,118.5,249.27Z"/><path class="cls-1" d="M137.74,350.14a1.55,1.55,0,1,1-1.55-1.55A1.55,1.55,0,0,1,137.74,350.14Z"/><path class="cls-1" d="M89.37,353.45a1.56,1.56,0,1,1-1.56-1.55A1.56,1.56,0,0,1,89.37,353.45Z"/><path class="cls-1" d="M137.74,350.14a1.55,1.55,0,1,1-1.55-1.55A1.55,1.55,0,0,1,137.74,350.14Z"/><path class="cls-1" d="M74.83,285.42a1.55,1.55,0,1,1-1.55-1.55A1.54,1.54,0,0,1,74.83,285.42Z"/><path class="cls-1" d="M137.74,350.14a1.55,1.55,0,1,1-1.55-1.55A1.55,1.55,0,0,1,137.74,350.14Z"/><path class="cls-1" d="M224.06,363.72a1.55,1.55,0,1,1-1.55-1.55A1.54,1.54,0,0,1,224.06,363.72Z"/><path class="cls-1" d="M137.74,350.14a1.55,1.55,0,1,1-1.55-1.55A1.55,1.55,0,0,1,137.74,350.14Z"/><path class="cls-1" d="M58.4,297.4a1.55,1.55,0,1,1-1.55-1.55A1.55,1.55,0,0,1,58.4,297.4Z"/><path class="cls-1" d="M137.74,350.14a1.55,1.55,0,1,1-1.55-1.55A1.55,1.55,0,0,1,137.74,350.14Z"/><path class="cls-1" d="M171.75,311.71a1.55,1.55,0,1,1-1.55-1.55A1.55,1.55,0,0,1,171.75,311.71Z"/><path class="cls-1" d="M137.74,350.14a1.55,1.55,0,1,1-1.55-1.55A1.55,1.55,0,0,1,137.74,350.14Z"/><path class="cls-1" d="M171.75,311.71a1.55,1.55,0,1,1-1.55-1.55A1.55,1.55,0,0,1,171.75,311.71Z"/><path class="cls-1" d="M137.74,350.14a1.55,1.55,0,1,1-1.55-1.55A1.55,1.55,0,0,1,137.74,350.14Z"/><path class="cls-1" d="M208.15,354.3a1.55,1.55,0,1,1-1.55-1.55A1.54,1.54,0,0,1,208.15,354.3Z"/><path class="cls-1" d="M137.74,350.14a1.55,1.55,0,1,1-1.55-1.55A1.55,1.55,0,0,1,137.74,350.14Z"/><path class="cls-1" d="M202.91,280.54a1.55,1.55,0,1,1-1.55-1.56A1.55,1.55,0,0,1,202.91,280.54Z"/><path class="cls-1" d="M137.74,350.14a1.55,1.55,0,1,1-1.55-1.55A1.55,1.55,0,0,1,137.74,350.14Z"/><path class="cls-1" d="M202.91,280.54a1.55,1.55,0,1,1-1.55-1.56A1.55,1.55,0,0,1,202.91,280.54Z"/><path class="cls-1" d="M137.74,350.14a1.55,1.55,0,1,1-1.55-1.55A1.55,1.55,0,0,1,137.74,350.14Z"/><polygon class="cls-1" points="396.57 280.32 468.4 312.66 468.19 313.15 396.36 280.81 396.57 280.32"/><polygon class="cls-1" points="593.61 128.14 577.38 142.88 577.9 143.45 593.61 129.17 593.61 128.14"/><polygon class="cls-1" points="593.61 158.31 577.9 142.9 577.38 143.43 593.61 159.35 593.61 158.31"/><polygon class="cls-1" points="319.84 251.82 396.56 280.31 396.37 280.82 319.65 252.33 319.84 251.82"/><rect class="cls-1" x="393.61" y="202.23" width="0.82" height="160.53" transform="translate(-16.72 540.06) rotate(-67.73)"/><polygon class="cls-1" points="593.61 143.4 577.65 142.83 577.63 143.5 593.61 144.07 593.61 143.4"/><rect class="cls-1" x="356.32" y="228.47" width="0.54" height="81.13" transform="translate(-36.92 480.43) rotate(-65.28)"/><rect class="cls-1" x="391.84" y="283.14" width="6.22" height="0.28" transform="translate(-44.77 490.35) rotate(-60.87)"/><polygon class="cls-1" points="393.53 285.74 468.39 312.65 468.21 313.16 393.35 286.25 393.53 285.74"/><rect class="cls-1" x="356.32" y="228.47" width="0.54" height="81.13" transform="translate(-36.92 480.43) rotate(-65.28)"/><rect class="cls-1" x="391.84" y="283.14" width="6.22" height="0.28" transform="translate(-44.77 490.35) rotate(-60.87)"/><polygon class="cls-1" points="393.53 285.74 468.39 312.65 468.21 313.16 393.35 286.25 393.53 285.74"/><polygon class="cls-1" points="593.61 151.56 577.73 143 577.55 143.33 593.61 151.99 593.61 151.56"/><rect class="cls-1" x="496.96" y="42.07" width="0.83" height="164.82" transform="translate(263.36 580.68) rotate(-76.89)"/><polygon class="cls-1" points="460.66 88.26 460.82 88.66 417.19 105.99 417.04 105.59 460.66 88.26"/><polygon class="cls-1" points="593.61 152.15 460.92 88.08 460.56 88.83 593.61 153.07 593.61 152.15"/><polygon class="cls-1" points="460.89 88.13 577.79 142.84 577.49 143.49 460.59 88.78 460.89 88.13"/><polygon class="cls-1" points="460.43 88.34 461.05 88.57 419.56 197.5 418.93 197.26 460.43 88.34"/><rect class="cls-1" x="417.89" y="105.78" width="0.58" height="91.61" transform="translate(-3.53 10.11) rotate(-1.38)"/><rect class="cls-1" x="360.19" y="241.39" width="92.3" height="0.58" transform="translate(59.25 562.7) rotate(-73.51)"/><rect class="cls-1" x="360.19" y="241.39" width="92.3" height="0.58" transform="translate(59.25 562.7) rotate(-73.51)"/><polygon class="cls-1" points="419.09 197.09 419.4 197.66 319.9 252.36 319.59 251.78 419.09 197.09"/><polygon class="cls-1" points="418.97 197.3 419.51 197.45 396.73 280.64 396.19 280.49 418.97 197.3"/><rect class="cls-1" x="443.42" y="192.38" width="0.7" height="125.51" transform="translate(-64.42 193.72) rotate(-23.01)"/><rect class="cls-1" x="414.73" y="169.85" width="167.42" height="0.84" transform="translate(-28.28 170.37) rotate(-18.87)"/><polygon class="cls-1" points="419.36 197.05 535.16 238 534.93 238.65 419.13 197.7 419.36 197.05"/><polygon class="cls-1" points="461.12 88.27 535.42 238.13 534.67 238.51 460.36 88.64 461.12 88.27"/><polygon class="cls-1" points="593.61 175.13 534.81 238.1 535.27 238.54 593.61 176.05 593.61 175.13"/><polygon class="cls-1" points="534.92 237.95 535.17 238.69 393.56 286.37 393.31 285.63 534.92 237.95"/><polygon class="cls-1" points="534.92 237.95 535.17 238.69 393.56 286.37 393.31 285.63 534.92 237.95"/><polygon class="cls-1" points="593.61 238.97 535.05 237.94 535.04 238.7 593.61 239.72 593.61 238.97"/><rect class="cls-1" x="393.32" y="259.06" width="144.87" height="0.77" transform="translate(-55.41 147.07) rotate(-16.95)"/><polygon class="cls-1" points="593.61 258.76 535.18 237.92 534.9 238.72 593.61 259.66 593.61 258.76"/><polygon class="cls-1" points="534.82 238.12 535.27 238.53 468.52 313.11 468.07 312.7 534.82 238.12"/><polygon class="cls-1" points="577.36 143.04 577.92 143.29 535.33 238.45 534.76 238.19 577.36 143.04"/><polygon class="cls-1" points="460.64 88.16 561.93 55.82 562.12 56.42 460.84 88.76 460.64 88.16"/><polygon class="cls-1" points="593.61 0 561.76 55.97 562.3 56.28 593.61 1.26 593.61 0"/><polygon class="cls-1" points="561.9 55.75 562.16 56.5 417.25 106.17 416.99 105.42 561.9 55.75"/><polygon class="cls-1" points="593.61 125.9 562.33 55.99 561.73 56.26 593.61 127.51 593.61 125.9"/><polygon class="cls-1" points="593.61 76.92 562.26 55.78 561.79 56.47 593.61 77.92 593.61 76.92"/><polygon class="cls-1" points="593.61 53.25 562 55.78 562.05 56.47 593.61 53.94 593.61 53.25"/><polygon class="cls-1" points="561.75 56.17 562.31 56.08 577.92 143.12 577.36 143.22 561.75 56.17"/><polygon class="cls-1" points="341.03 170.48 419.33 197.12 419.15 197.63 340.86 171 341.03 170.48"/><rect class="cls-1" x="328.18" y="129.22" width="145.33" height="0.77" transform="translate(-2.85 250.04) rotate(-34.53)"/><polygon class="cls-1" points="416.92 105.56 417.32 106.03 341.14 170.97 340.75 170.51 416.92 105.56"/><polygon class="cls-1" points="341.26 170.6 393.76 285.85 393.12 286.14 340.63 170.89 341.26 170.6"/><polygon class="cls-1" points="341.26 170.6 393.76 285.85 393.12 286.14 340.63 170.89 341.26 170.6"/><polygon class="cls-1" points="340.68 170.67 341.21 170.81 320.01 252.14 319.48 252 340.68 170.67"/><rect class="cls-1" x="368.36" y="164.12" width="0.69" height="123.05" transform="translate(-62.15 190.62) rotate(-26.82)"/><path class="cls-1" d="M178.41,303.18l68.06-24.61"/><rect class="cls-1" x="173.93" y="277.23" width="150.29" height="0.78" transform="translate(-79.49 101.11) rotate(-19.86)"/><rect class="cls-1" x="563.12" y="229.46" width="0.61" height="99.75" transform="matrix(0.82, -0.57, 0.57, 0.82, -58.84, 370.25)"/><polygon class="cls-1" points="593.61 298.86 591.39 320.3 592.21 320.39 593.61 306.87 593.61 298.86"/><polygon class="cls-1" points="468.32 312.56 591.82 320 591.78 320.69 468.27 313.25 468.32 312.56"/><path class="cls-1" d="M246.58,321.56l-68.17-18.38"/><rect class="cls-1" x="227.64" y="265.23" width="0.62" height="102.62" transform="translate(-137 454.26) rotate(-74.92)"/><rect class="cls-1" x="223.55" y="249.89" width="171.33" height="0.86" transform="translate(-37.85 444.79) rotate(-68.25)"/><rect class="cls-1" x="273.48" y="307.6" width="123.97" height="0.69" transform="translate(-87.34 138.82) rotate(-20.75)"/><rect class="cls-1" x="273.48" y="307.6" width="123.97" height="0.69" transform="translate(-87.34 138.82) rotate(-20.75)"/><rect class="cls-1" x="254.34" y="290.69" width="88.55" height="0.57" transform="translate(-99.63 414.43) rotate(-61.48)"/><polygon class="cls-1" points="396.33 280.23 396.6 280.89 277.63 330.22 277.36 329.56 396.33 280.23"/><path class="cls-1" d="M466,313.65a2.42,2.42,0,1,1,3.05,1.56A2.41,2.41,0,0,1,466,313.65Z"/><path class="cls-1" d="M394.15,281.3a2.43,2.43,0,1,1,3.06,1.57A2.42,2.42,0,0,1,394.15,281.3Z"/><path class="cls-1" d="M575.33,143.91a2.43,2.43,0,1,1,3,1.56A2.42,2.42,0,0,1,575.33,143.91Z"/><path class="cls-1" d="M575.33,143.91a2.43,2.43,0,1,1,3,1.56A2.42,2.42,0,0,1,575.33,143.91Z"/><path class="cls-1" d="M394.15,281.3a2.43,2.43,0,1,1,3.06,1.57A2.42,2.42,0,0,1,394.15,281.3Z"/><path class="cls-1" d="M317.43,252.81a2.43,2.43,0,1,1,3.06,1.57A2.43,2.43,0,0,1,317.43,252.81Z"/><path class="cls-1" d="M466,313.65a2.42,2.42,0,1,1,3.05,1.56A2.41,2.41,0,0,1,466,313.65Z"/><path class="cls-1" d="M317.43,252.81a2.43,2.43,0,1,1,3.06,1.57A2.43,2.43,0,0,1,317.43,252.81Z"/><path class="cls-1" d="M575.33,143.91a2.43,2.43,0,1,1,3,1.56A2.42,2.42,0,0,1,575.33,143.91Z"/><path class="cls-1" d="M317.43,252.81a2.43,2.43,0,1,1,3.06,1.57A2.43,2.43,0,0,1,317.43,252.81Z"/><path class="cls-1" d="M391.13,286.74a2.42,2.42,0,1,1,3.05,1.57A2.41,2.41,0,0,1,391.13,286.74Z"/><path class="cls-1" d="M394.15,281.3a2.43,2.43,0,1,1,3.06,1.57A2.42,2.42,0,0,1,394.15,281.3Z"/><path class="cls-1" d="M391.13,286.74a2.42,2.42,0,1,1,3.05,1.57A2.41,2.41,0,0,1,391.13,286.74Z"/><path class="cls-1" d="M466,313.65a2.42,2.42,0,1,1,3.05,1.56A2.41,2.41,0,0,1,466,313.65Z"/><path class="cls-1" d="M391.13,286.74a2.42,2.42,0,1,1,3.05,1.57A2.41,2.41,0,0,1,391.13,286.74Z"/><path class="cls-1" d="M317.43,252.81a2.43,2.43,0,1,1,3.06,1.57A2.43,2.43,0,0,1,317.43,252.81Z"/><path class="cls-1" d="M391.13,286.74a2.42,2.42,0,1,1,3.05,1.57A2.41,2.41,0,0,1,391.13,286.74Z"/><path class="cls-1" d="M394.15,281.3a2.43,2.43,0,1,1,3.06,1.57A2.42,2.42,0,0,1,394.15,281.3Z"/><path class="cls-1" d="M391.13,286.74a2.42,2.42,0,1,1,3.05,1.57A2.41,2.41,0,0,1,391.13,286.74Z"/><path class="cls-1" d="M466,313.65a2.42,2.42,0,1,1,3.05,1.56A2.41,2.41,0,0,1,466,313.65Z"/><path class="cls-1" d="M391.13,286.74a2.42,2.42,0,1,1,3.05,1.57A2.41,2.41,0,0,1,391.13,286.74Z"/><path class="cls-1" d="M575.33,143.91a2.43,2.43,0,1,1,3,1.56A2.42,2.42,0,0,1,575.33,143.91Z"/><path class="cls-1" d="M575.33,143.91a2.43,2.43,0,1,1,3,1.56A2.42,2.42,0,0,1,575.33,143.91Z"/><path class="cls-1" d="M414.81,106.54a2.42,2.42,0,1,1,4.61-1.49,2.42,2.42,0,1,1-4.61,1.49Z"/><path class="cls-1" d="M414.81,106.54a2.42,2.42,0,1,1,4.61-1.49,2.42,2.42,0,1,1-4.61,1.49Z"/><path class="cls-1" d="M458.43,89.2a2.43,2.43,0,1,1,3.05,1.57A2.42,2.42,0,0,1,458.43,89.2Z"/><path class="cls-1" d="M458.43,89.2a2.43,2.43,0,1,1,3.05,1.57A2.42,2.42,0,0,1,458.43,89.2Z"/><path class="cls-1" d="M575.33,143.91a2.43,2.43,0,1,1,3,1.56A2.42,2.42,0,0,1,575.33,143.91Z"/><path class="cls-1" d="M458.43,89.2a2.43,2.43,0,1,1,3.05,1.57A2.42,2.42,0,0,1,458.43,89.2Z"/><path class="cls-1" d="M458.43,89.2a2.43,2.43,0,1,1,3.05,1.57A2.42,2.42,0,0,1,458.43,89.2Z"/><path class="cls-1" d="M416.93,198.12a2.43,2.43,0,1,1,3.06,1.56A2.42,2.42,0,0,1,416.93,198.12Z"/><path class="cls-1" d="M414.81,106.54a2.42,2.42,0,1,1,4.61-1.49,2.42,2.42,0,1,1-4.61,1.49Z"/><path class="cls-1" d="M416.93,198.12a2.43,2.43,0,1,1,3.06,1.56A2.42,2.42,0,0,1,416.93,198.12Z"/><path class="cls-1" d="M391.13,286.74a2.42,2.42,0,1,1,3.05,1.57A2.41,2.41,0,0,1,391.13,286.74Z"/><path class="cls-1" d="M416.93,198.12a2.43,2.43,0,1,1,3.06,1.56A2.42,2.42,0,0,1,416.93,198.12Z"/><path class="cls-1" d="M391.13,286.74a2.42,2.42,0,1,1,3.05,1.57A2.41,2.41,0,0,1,391.13,286.74Z"/><path class="cls-1" d="M416.93,198.12a2.43,2.43,0,1,1,3.06,1.56A2.42,2.42,0,0,1,416.93,198.12Z"/><path class="cls-1" d="M317.43,252.81a2.43,2.43,0,1,1,3.06,1.57A2.43,2.43,0,0,1,317.43,252.81Z"/><path class="cls-1" d="M416.93,198.12a2.43,2.43,0,1,1,3.06,1.56A2.42,2.42,0,0,1,416.93,198.12Z"/><path class="cls-1" d="M394.15,281.3a2.43,2.43,0,1,1,3.06,1.57A2.42,2.42,0,0,1,394.15,281.3Z"/><path class="cls-1" d="M416.93,198.12a2.43,2.43,0,1,1,3.06,1.56A2.42,2.42,0,0,1,416.93,198.12Z"/><path class="cls-1" d="M466,313.65a2.42,2.42,0,1,1,3.05,1.56A2.41,2.41,0,0,1,466,313.65Z"/><path class="cls-1" d="M416.93,198.12a2.43,2.43,0,1,1,3.06,1.56A2.42,2.42,0,0,1,416.93,198.12Z"/><path class="cls-1" d="M575.33,143.91a2.43,2.43,0,1,1,3,1.56A2.42,2.42,0,0,1,575.33,143.91Z"/><path class="cls-1" d="M416.93,198.12a2.43,2.43,0,1,1,3.06,1.56A2.42,2.42,0,0,1,416.93,198.12Z"/><path class="cls-1" d="M416.93,198.12a2.43,2.43,0,1,1,3.06,1.56A2.42,2.42,0,0,1,416.93,198.12Z"/><path class="cls-1" d="M532.73,239.07a2.43,2.43,0,1,1,3.06,1.56A2.43,2.43,0,0,1,532.73,239.07Z"/><path class="cls-1" d="M458.43,89.2a2.43,2.43,0,1,1,3.05,1.57A2.42,2.42,0,0,1,458.43,89.2Z"/><path class="cls-1" d="M532.73,239.07a2.43,2.43,0,1,1,3.06,1.56A2.43,2.43,0,0,1,532.73,239.07Z"/><path class="cls-1" d="M532.73,239.07a2.43,2.43,0,1,1,3.06,1.56A2.43,2.43,0,0,1,532.73,239.07Z"/><path class="cls-1" d="M391.13,286.74a2.42,2.42,0,1,1,3.05,1.57A2.41,2.41,0,0,1,391.13,286.74Z"/><path class="cls-1" d="M532.73,239.07a2.43,2.43,0,1,1,3.06,1.56A2.43,2.43,0,0,1,532.73,239.07Z"/><path class="cls-1" d="M391.13,286.74a2.42,2.42,0,1,1,3.05,1.57A2.41,2.41,0,0,1,391.13,286.74Z"/><path class="cls-1" d="M532.73,239.07a2.43,2.43,0,1,1,3.06,1.56A2.43,2.43,0,0,1,532.73,239.07Z"/><path class="cls-1" d="M532.73,239.07a2.43,2.43,0,1,1,3.06,1.56A2.43,2.43,0,0,1,532.73,239.07Z"/><path class="cls-1" d="M394.15,281.3a2.43,2.43,0,1,1,3.06,1.57A2.42,2.42,0,0,1,394.15,281.3Z"/><path class="cls-1" d="M532.73,239.07a2.43,2.43,0,1,1,3.06,1.56A2.43,2.43,0,0,1,532.73,239.07Z"/><path class="cls-1" d="M532.73,239.07a2.43,2.43,0,1,1,3.06,1.56A2.43,2.43,0,0,1,532.73,239.07Z"/><path class="cls-1" d="M466,313.65a2.42,2.42,0,1,1,3.05,1.56A2.41,2.41,0,0,1,466,313.65Z"/><path class="cls-1" d="M532.73,239.07a2.43,2.43,0,1,1,3.06,1.56A2.43,2.43,0,0,1,532.73,239.07Z"/><path class="cls-1" d="M575.33,143.91a2.43,2.43,0,1,1,3,1.56A2.42,2.42,0,0,1,575.33,143.91Z"/><path class="cls-1" d="M532.73,239.07a2.43,2.43,0,1,1,3.06,1.56A2.43,2.43,0,0,1,532.73,239.07Z"/><path class="cls-1" d="M458.43,89.2a2.43,2.43,0,1,1,3.05,1.57A2.42,2.42,0,0,1,458.43,89.2Z"/><path class="cls-1" d="M559.72,56.87a2.43,2.43,0,1,1,3,1.56A2.43,2.43,0,0,1,559.72,56.87Z"/><path class="cls-1" d="M559.72,56.87a2.43,2.43,0,1,1,3,1.56A2.43,2.43,0,0,1,559.72,56.87Z"/><path class="cls-1" d="M414.81,106.54a2.42,2.42,0,1,1,4.61-1.49,2.42,2.42,0,1,1-4.61,1.49Z"/><path class="cls-1" d="M559.72,56.87a2.43,2.43,0,1,1,3,1.56A2.43,2.43,0,0,1,559.72,56.87Z"/><path class="cls-1" d="M559.72,56.87a2.43,2.43,0,1,1,3,1.56A2.43,2.43,0,0,1,559.72,56.87Z"/><path class="cls-1" d="M559.72,56.87a2.43,2.43,0,1,1,3,1.56A2.43,2.43,0,0,1,559.72,56.87Z"/><path class="cls-1" d="M559.72,56.87a2.43,2.43,0,1,1,3,1.56A2.43,2.43,0,0,1,559.72,56.87Z"/><path class="cls-1" d="M575.33,143.91a2.43,2.43,0,1,1,3,1.56A2.42,2.42,0,0,1,575.33,143.91Z"/><path class="cls-1" d="M559.72,56.87a2.43,2.43,0,1,1,3,1.56A2.43,2.43,0,0,1,559.72,56.87Z"/><path class="cls-1" d="M416.93,198.12a2.43,2.43,0,1,1,3.06,1.56A2.42,2.42,0,0,1,416.93,198.12Z"/><path class="cls-1" d="M338.63,171.48a2.43,2.43,0,1,1,3.06,1.57A2.42,2.42,0,0,1,338.63,171.48Z"/><path class="cls-1" d="M458.43,89.2a2.43,2.43,0,1,1,3.05,1.57A2.42,2.42,0,0,1,458.43,89.2Z"/><path class="cls-1" d="M338.63,171.48a2.43,2.43,0,1,1,3.06,1.57A2.42,2.42,0,0,1,338.63,171.48Z"/><path class="cls-1" d="M414.81,106.54a2.42,2.42,0,1,1,4.61-1.49,2.42,2.42,0,1,1-4.61,1.49Z"/><path class="cls-1" d="M338.63,171.48a2.43,2.43,0,1,1,3.06,1.57A2.42,2.42,0,0,1,338.63,171.48Z"/><path class="cls-1" d="M391.13,286.74a2.42,2.42,0,1,1,3.05,1.57A2.41,2.41,0,0,1,391.13,286.74Z"/><path class="cls-1" d="M338.63,171.48a2.43,2.43,0,1,1,3.06,1.57A2.42,2.42,0,0,1,338.63,171.48Z"/><path class="cls-1" d="M391.13,286.74a2.42,2.42,0,1,1,3.05,1.57A2.41,2.41,0,0,1,391.13,286.74Z"/><path class="cls-1" d="M338.63,171.48a2.43,2.43,0,1,1,3.06,1.57A2.42,2.42,0,0,1,338.63,171.48Z"/><path class="cls-1" d="M317.43,252.81a2.43,2.43,0,1,1,3.06,1.57A2.43,2.43,0,0,1,317.43,252.81Z"/><path class="cls-1" d="M338.63,171.48a2.43,2.43,0,1,1,3.06,1.57A2.42,2.42,0,0,1,338.63,171.48Z"/><path class="cls-1" d="M394.15,281.3a2.43,2.43,0,1,1,3.06,1.57A2.42,2.42,0,0,1,394.15,281.3Z"/><path class="cls-1" d="M338.63,171.48a2.43,2.43,0,1,1,3.06,1.57A2.42,2.42,0,0,1,338.63,171.48Z"/><path class="cls-1" d="M317.43,252.81a2.43,2.43,0,1,1,3.06,1.57A2.43,2.43,0,0,1,317.43,252.81Z"/><path class="cls-1" d="M176.1,303.93a2.43,2.43,0,1,1,3.06,1.56A2.43,2.43,0,0,1,176.1,303.93Z"/><path class="cls-1" d="M532.73,239.07a2.43,2.43,0,1,1,3.06,1.56A2.43,2.43,0,0,1,532.73,239.07Z"/><path class="cls-1" d="M593.61,318.73a2.43,2.43,0,1,0-1.06,3.92,2.35,2.35,0,0,0,1.06-.7Z"/><path class="cls-1" d="M593.61,318.73a2.43,2.43,0,1,0-1.06,3.92,2.35,2.35,0,0,0,1.06-.7Z"/><path class="cls-1" d="M593.61,318.73a2.43,2.43,0,1,0-1.06,3.92,2.35,2.35,0,0,0,1.06-.7Z"/><path class="cls-1" d="M593.61,318.73a2.43,2.43,0,1,0-1.06,3.92,2.35,2.35,0,0,0,1.06-.7Z"/><path class="cls-1" d="M466,313.65a2.42,2.42,0,1,1,3.05,1.56A2.41,2.41,0,0,1,466,313.65Z"/><path class="cls-1" d="M593.61,318.73a2.43,2.43,0,1,0-1.06,3.92,2.35,2.35,0,0,0,1.06-.7Z"/><path class="cls-1" d="M176.1,303.93a2.43,2.43,0,1,1,3.06,1.56A2.43,2.43,0,0,1,176.1,303.93Z"/><path class="cls-1" d="M275.18,330.63a2.43,2.43,0,1,1,3.06,1.57A2.42,2.42,0,0,1,275.18,330.63Z"/><path class="cls-1" d="M338.63,171.48a2.43,2.43,0,1,1,3.06,1.57A2.42,2.42,0,0,1,338.63,171.48Z"/><path class="cls-1" d="M275.18,330.63a2.43,2.43,0,1,1,3.06,1.57A2.42,2.42,0,0,1,275.18,330.63Z"/><path class="cls-1" d="M391.13,286.74a2.42,2.42,0,1,1,3.05,1.57A2.41,2.41,0,0,1,391.13,286.74Z"/><path class="cls-1" d="M275.18,330.63a2.43,2.43,0,1,1,3.06,1.57A2.42,2.42,0,0,1,275.18,330.63Z"/><path class="cls-1" d="M391.13,286.74a2.42,2.42,0,1,1,3.05,1.57A2.41,2.41,0,0,1,391.13,286.74Z"/><path class="cls-1" d="M275.18,330.63a2.43,2.43,0,1,1,3.06,1.57A2.42,2.42,0,0,1,275.18,330.63Z"/><path class="cls-1" d="M317.43,252.81a2.43,2.43,0,1,1,3.06,1.57A2.43,2.43,0,0,1,317.43,252.81Z"/><path class="cls-1" d="M275.18,330.63a2.43,2.43,0,1,1,3.06,1.57A2.42,2.42,0,0,1,275.18,330.63Z"/><path class="cls-1" d="M394.15,281.3a2.43,2.43,0,1,1,3.06,1.57A2.42,2.42,0,0,1,394.15,281.3Z"/><path class="cls-1" d="M275.18,330.63a2.43,2.43,0,1,1,3.06,1.57A2.42,2.42,0,0,1,275.18,330.63Z"/></g></g></svg>