<svg xmlns="http://www.w3.org/2000/svg" xmlns:xlink="http://www.w3.org/1999/xlink" viewBox="0 0 593.61 366.47" xmlns:v="https://vecta.io/nano"><g fill="#474747"><path d="M196.65 247.69l4.71 32.85"/><path d="M201.22 280.56l-4.71-32.85.28-.04 4.71 32.84-.28.05z"/><path d="M196.65 247.69l4.71 32.85"/><path d="M201.22 280.56l-4.71-32.85.28-.04 4.71 32.84-.28.05z"/><path d="M206.6 354.3l-9.95-106.61"/><path d="M206.33 354.33l-9.95-106.61.54-.05 9.95 106.61-.54.05z"/><path d="M206.6 354.3l-5.24-73.76"/><path d="M206.39 354.32l-5.24-73.77.42-.03 5.24 73.77-.42.03z"/><path d="M206.6 354.3l-5.24-73.76"/><path d="M206.39 354.32l-5.24-73.77.42-.03 5.24 73.77-.42.03z"/><path d="M304.99 288.01l-103.63-7.47"/><path d="M304.96 288.27l-103.62-7.47.04-.53L305 287.75l-.04.52z"/><path d="M304.99 288.01l-103.63-7.47"/><path d="M304.96 288.27l-103.62-7.47.04-.53L305 287.75l-.04.52zm26.38-30.3l-26.35 30.04"/><path d="M304.929 288l26.242-30.135.234.204-26.242 30.135zm-12.079-68.58l38.49 38.55"/><path d="M331.22 258.1l-38.49-38.56.25-.25 38.49 38.56-.25.25z"/><path d="M292.85 219.42l12.14 68.59"/><path d="M292.656 219.449l.404-.071 12.132 68.595-.404.071z"/><path d="M292.85 219.42l-96.2 28.27"/><path d="M196.573 247.441l96.205-28.26.147.499-96.205 28.26z"/><path d="M292.85 219.42l-91.49 61.12"/><path d="M201.51 280.76l-.3-.45 91.49-61.12.31.46-91.5 61.11z"/><path d="M292.85 219.42l-91.49 61.12"/><path d="M201.51 280.76l-.3-.45 91.49-61.12.31.46-91.5 61.11zm-24.05-47.8l19.19 14.73"/><path d="M196.57 247.79l-19.18-14.73.15-.2 19.19 14.73-.16.2z"/><path d="M177.46 232.96l23.9 47.58"/><path d="M201.2 280.62l-23.9-47.58.32-.16 23.89 47.58-.31.16z"/><path d="M177.46 232.96l23.9 47.58"/><path d="M201.2 280.62l-23.9-47.58.32-.16 23.89 47.58-.31.16z"/><path d="M170.2 311.71l7.26-78.75"/><path d="M170.42 311.73l-.44-.04 7.26-78.75.44.04-7.26 78.75z"/><path d="M170.2 311.71l36.4 42.59"/><path d="M206.47 354.42l-36.41-42.6.28-.23 36.4 42.6-.27.23z"/><path d="M170.2 311.71l26.45-64.02"/><path d="M169.893 311.581l26.694-63.909.378.158-26.694 63.909z"/><path d="M170.2 311.71l31.16-31.17"/><use xlink:href="#B"/><path d="M170.2 311.71l31.16-31.17"/><use xlink:href="#B"/><path d="M170.2 311.71l7.26-78.75"/><path d="M170.42 311.73l-.44-.04 7.26-78.75.44.04-7.26 78.75z"/><path d="M170.2 311.71l36.4 42.59"/><path d="M206.47 354.42l-36.41-42.6.28-.23 36.4 42.6-.27.23z"/><path d="M170.2 311.71l26.45-64.02"/><path d="M169.893 311.581l26.694-63.909.378.158-26.694 63.909z"/><path d="M170.2 311.71l31.16-31.17"/><use xlink:href="#B"/><path d="M170.2 311.71l31.16-31.17"/><use xlink:href="#B"/><path d="M56.85,297.4l-49.25.18"/><path d="M.14 297.79v-.36l56.71-.21v.37l-56.71.2zm304.75 24.2l-12.04-102.57"/><path d="M304.63 322.02l-12.04-102.57.52-.06 12.05 102.56-.53.07z"/><path d="M304.89 321.99l26.45-64.02"/><path d="M304.78 321.927l26.281-64.08.379.156-26.281 64.08z"/><path d="M304.89 321.99l.1-33.98"/><path d="M305.04 321.99h-.29l.09-33.98h.29l-.09 33.98z"/><path d="M304.89 321.99L206.6 354.3"/><path d="M206.496 354.062l98.305-32.283.165.504-98.305 32.283zM228.79 169.16l-51.33 63.8"/><path d="M177.64 233.1l-.35-.28 51.33-63.8.35.28-51.33 63.8z"/><path d="M228.79 169.16l64.06 50.26"/><path d="M228.666 169.347l.278-.354 64.055 50.261-.278.354z"/><path d="M228.79 169.16l-32.14 78.53"/><path d="M196.448 247.604l32.132-78.541.426.174-32.132 78.541zM411.64 301.87l83.77-38.02"/><path d="M411.539 301.709l83.754-38.045.203.446-83.754 38.045z"/><path d="M411.64 301.87l-106.75 20.12"/><path d="M304.94 322.25l-.1-.53 106.75-20.12.1.53-106.75 20.12z"/><path d="M411.64 301.87l-80.3-43.9"/><path d="M331.215 258.156l.235-.43 80.298 43.889-.235.43z"/><path d="M411.64 301.87l-106.65-13.86"/><path d="M411.6 302.13l-106.65-13.85.07-.54 106.65 13.86-.07.53zm42.38-117.19l.6-36.12"/><path d="M453.874 184.954l.593-36.125.29.005-.593 36.125z"/><path d="M453.98 184.94l41.43 78.91"/><path d="M453.771 185.05l.425-.223 41.427 78.906-.425.223z"/><path d="M423.37 237.78l30.61-52.84"/><path d="M423.54 237.87l-.33-.19 30.61-52.83.33.19-30.61 52.83z"/><path d="M423.37 237.78l-11.73 64.09"/><path d="M411.564 301.869l11.539-64.13.384.069-11.539 64.13z"/><path d="M423.37 237.78l31.21-88.96"/><path d="M423.133 237.695l31.22-88.95.472.166-31.22 88.95z"/><path d="M423.37 237.78l72.04 26.07"/><path d="M495.33 264.06l-72.03-26.08.15-.41 72.03 26.08-.15.41z"/><path d="M423.37 237.78l-92.03 20.19"/><path d="M331.4 258.21l-.11-.48 92.03-20.2.11.49-92.03 20.19z"/><path d="M479.95 247.74l-56.58-9.96"/><path d="M479.92 247.92l-56.58-9.96.06-.36 56.58 9.96-.06.36z"/><path d="M479.95 247.74l-25.97-62.8"/><path d="M479.76 247.81l-25.96-62.79.37-.15 25.96 62.79-.37.15z"/><path d="M479.95 247.74l-68.31 54.13"/><path d="M411.496 301.677l68.288-54.163.292.368-68.288 54.163z"/><path d="M479.95 247.74l-25.37-98.92"/><path d="M479.7 247.8l-25.37-98.91.5-.13 25.37 98.91-.5.13z"/><path d="M479.95 247.74l15.46 16.11"/><path d="M495.32 263.94l-15.46-16.12.18-.17 15.46 16.12-.18.17z"/><path d="M579.69,314.42c-28.17-16.35-56.76-32.23-84.28-50.57"/><path d="M585.6 318.28l-90.33-54.2.28-.45 90.32 54.19-.27.46zm-206.66 40.46l32.7-56.87"/><path d="M379.11 358.84l-.34-.2 32.69-56.87.35.19-32.7 56.88z"/><path d="M378.94 358.74l-74.05-36.75"/><path d="M304.802 322.204l.2-.403 74.04 36.754-.2.403z"/><path d="M378.94 358.74l-73.95-70.73"/><path d="M378.76 358.93L304.8 288.2l.37-.38 73.95 70.73-.36.38zm-156.25 4.79l82.38-41.73"/><path d="M222.393 363.442l82.425-41.672.221.437-82.425 41.672zm.117.278l-52.31-52.01"/><path d="M170.046 311.865l.296-.298 52.309 52.017-.296.298z"/><path d="M222.51 363.72l-52.31-52.01"/><path d="M170.046 311.865l.296-.298 52.309 52.017-.296.298z"/><path d="M222.51 363.72l-15.91-9.42"/><path d="M222.45 363.82l-15.91-9.42.12-.2 15.91 9.43-.12.19z"/><path d="M222.51 363.72l-21.15-83.18"/><path d="M201.113 280.61l.456-.116 21.144 83.195-.456.116z"/><path d="M222.51 363.72l-21.15-83.18"/><path d="M201.113 280.61l.456-.116 21.144 83.195-.456.116zm237.567 84.3l-59.74-6.17"/><path d="M438.66 365.1l-59.74-6.17.04-.38 59.74 6.18-.04.37z"/><path d="M438.68 364.91l-27.04-63.04"/><path d="M411.439 301.98l.377-.162 27.035 63.048-.377.162zM555.8 320.05l24.06-1.61"/><path d="M555.81 320.18l-.02-.27 29.93-1.99.02.27-29.93 1.99z"/><path d="M555.8 320.05l-75.85-72.31"/><path d="M555.62 320.24l-75.86-72.31.37-.38 75.85 72.3-.36.39z"/><path d="M555.8 320.05l-60.39-56.2"/><path d="M495.262 264.038l.307-.329 60.388 56.195-.307.329z"/><path d="M579.79,290.12l-24,29.93"/><path d="M593.61 272.53l-37.98 47.38.34.27 37.64-46.97v-.68zm0 18.33L585.56 318l.35.1 7.7-25.94v-1.3zm-14-28.53c-28.09 2.39-55.09-.79-84.2 1.52"/><path d="M593.61 261.81l-98.21 1.77.01.54 98.2-1.77v-.54zM540 214.32l39.94 30.46"/><path d="M593.61 254.95l-53.5-40.81-.27.35 53.77 41.01v-.55z"/><path d="M539.97 214.32l15.83 105.73"/><path d="M555.53 320.09l-15.82-105.73.53-.08 15.83 105.73-.54.08z"/><path d="M539.97 214.32l-60.02 33.42"/><path d="M480.05 247.92l-.2-.36 60.02-33.42.2.36-60.02 33.42zm59.95-33.6l39.46-.52"/><path d="M539.971 214.054l53.635-.702.007.5-53.635.702z"/><path d="M540,214.32l39.46-.52"/><path d="M539.971 214.054l53.635-.702.007.5-53.635.702z"/><path d="M539.97 214.32l-85.99-29.38"/><path d="M539.89 214.55l-85.99-29.38.16-.45 85.99 29.37-.16.46zm.11-.23l39.65.62"/><path d="M593.61 214.92l-53.63-.85-.01.49 53.64.85v-.49z"/><path d="M539.97 214.32l-85.39-65.5"/><path d="M454.424 149.04l.329-.428 85.392 65.5-.329.428zM540 214.32L579.87 191"/><path d="M593.61 182.73l-53.74 31.42.2.34 53.54-31.31v-.45z"/><path d="M539.97 214.32l-44.56 49.53"/><path d="M495.56 263.99l-.3-.27 44.56-49.54.3.27-44.56 49.54zM73.28 285.42L56.85 297.4"/><path d="M56.794 297.308l16.42-12.004.142.194-16.42 12.004z"/><path d="M73.28 285.42l96.92 26.29"/><path d="M170.13 311.96l-96.92-26.29.14-.5 96.92 26.29-.14.5z"/><path d="M73.28 285.42l96.92 26.29"/><path d="M170.13 311.96l-96.92-26.29.14-.5 96.92 26.29-.14.5z"/><path d="M73.28,285.42c-22.05,4.71-42.7,6.3-65.6,10.93"/><path d="M.18 297.82l-.08-.42 73.15-12.19.07.42L.18 297.82z"/><path d="M87.81 353.45l-14.53-68.03"/><path d="M73.09 285.452l.401-.086 14.534 68.025-.401.086z"/><path d="M87.81 353.45L56.85 297.4"/><path d="M87.64 353.54L56.68 297.5l.34-.19 30.96 56.04-.34.19z"/><path d="M87.81 353.45l82.39-41.74"/><path d="M87.704 353.169l82.425-41.672.221.437-82.425 41.672z"/><path d="M87.81 353.45l82.39-41.74"/><path d="M87.704 353.169l82.425-41.672.221.437-82.425 41.672z"/><path d="M87.81,353.45c-25.46-17.26-52.46-33.14-80-51"/><path d="M87.67 353.67L0 297.83l.28-.44 87.68 55.83-.29.45z"/><path d="M116.95 249.27L87.81 353.45"/><path d="M88.08 353.52l-.53-.15 29.14-104.17.52.14-29.13 104.18z"/><path d="M116.95 249.27l-43.67 36.15"/><path d="M73.4 285.56l-.23-.28 43.66-36.15.24.28-43.67 36.15z"/><path d="M116.95 249.27l-60.1 48.13"/><path d="M56.99 297.57l-.27-.33 60.09-48.14.27.34-60.09 48.13z"/><path d="M116.95 249.27l53.25 62.44"/><path d="M170.03 311.85l-53.25-62.43.34-.3 53.25 62.44-.34.29z"/><path d="M116.95 249.27l53.25 62.44"/><path d="M170.03 311.85l-53.25-62.43.34-.3 53.25 62.44-.34.29z"/><path d="M116.95 249.27l60.51-16.31"/><path d="M117 249.46l-.1-.38 60.51-16.3.1.37L117 249.46z"/><path d="M116.95 249.27l79.7-1.58m-79.955 1.601l79.72-1.594.009.44-79.72 1.594z"/><path d="M116.95 249.27l84.41 31.27"/><path d="M201.28 280.76l-84.41-31.27.16-.45 84.41 31.27-.16.45z"/><path d="M116.95 249.27l84.41 31.27"/><path d="M201.28 280.76l-84.41-31.27.16-.45 84.41 31.27-.16.45zm130.2-114.55l-102.69 2.95"/><path d="M228.796 168.92l102.685-3.048.016.53-102.685 3.048z"/><path d="M331.48 166.21l-38.63 53.21"/><path d="M293.01 219.53l-.32-.23 38.63-53.2.32.23-38.63 53.2z"/><path d="M331.48 166.21l-.14 91.76"/><path d="M331.59 257.97h-.49l.14-91.76h.49l-.14 91.76z"/><path d="M410.62 162.24l-79.14 3.97"/><path d="M331.5 166.43l-.03-.44 79.14-3.98.02.45-79.13 3.97z"/><path d="M410.62 162.24l69.33 85.5"/><path d="M410.4 162.392l.427-.346 69.335 85.5-.427.346z"/><path d="M410.62 162.24l12.75 75.54"/><path d="M423.16 237.81l-12.76-75.54.43-.07 12.76 75.54-.43.07z"/><path d="M410.62 162.24l43.36 22.7"/><path d="M453.9 185.09l-43.36-22.71.15-.29 43.37 22.7-.16.3z"/><path d="M410.62 162.24l43.96-13.42"/><path d="M410.66 162.39l-.09-.31 43.96-13.42.1.32-43.97 13.41z"/><path d="M372.49 213.29l38.13-51.05"/><path d="M372.65 213.41l-.31-.23 38.12-51.06.31.23-38.12 51.06z"/><path d="M372.49 213.29l-41.01-47.08"/><path d="M372.35 213.42l-41.01-47.08.29-.25 41.01 47.08-.29.25z"/><path d="M372.49 213.29l50.88 24.49"/><path d="M423.29 237.94l-50.88-24.48.16-.33 50.88 24.48-.16.33z"/><path d="M372.49 213.29l81.49-28.35"/><path d="M372.57 213.51l-.15-.44 81.48-28.35.16.44-81.49 28.35z"/><path d="M372.49 213.29l39.15 88.58"/><path d="M411.41 301.97l-39.15-88.57.46-.21 39.15 88.57-.46.21z"/><path d="M372.49 213.29l82.09-64.47"/><path d="M372.66 213.5l-.33-.41 82.09-64.48.32.42-82.08 64.47z"/><path d="M372.49 213.29l-79.64 6.13"/><path d="M294.4 218.882l79.88-6.39.035.44-79.88 6.39zm78.09-5.592l-41.15 44.68"/><path d="M331.48 258.1l-.28-.26 41.16-44.67.27.25-41.15 44.68z"/><path d="M372.49 213.29l-67.5 74.72"/><path d="M305.18 288.18l-.39-.34 67.51-74.72.38.35-67.5 74.71zm182.67 31.68l67.95.19"/><path d="M555.8 320.25l-67.95-.18v-.41l67.95.19v.4z"/><path d="M487.85 319.86l-49.17 45.05"/><path d="M438.537 364.735l49.177-45.047.27.295-49.177 45.047z"/><path d="M487.85,319.86c30.32-1.14,62.08-1.14,91.87-1.7"/><path d="M487.872 319.561l97.883-1.811.009.51-97.883 1.811zm-.022.299l-7.9-72.12"/><path d="M487.64 319.89l-7.9-72.13.42-.04 7.9 72.12-.42.05z"/><path d="M487.85 319.86l-64.48-82.08"/><path d="M487.64 320.03l-64.48-82.09.42-.33 64.48 82.09-.42.33z"/><path d="M487.85 319.86l-76.21-17.99"/><path d="M487.8 320.08l-76.21-18 .1-.43 76.21 18-.1.43z"/><path d="M487.85 319.86l7.56-56.01"/><path d="M488.03 319.89l-.36-.05 7.56-56.01.36.05-7.56 56.01zm91.48-6.89l-23.71 7.08"/><path d="M593.61 308.5l-37.88 11.31.14.47 37.74-11.27v-.51zm0 6.06l-7.95 3.31.15.36 7.8-3.25v-.42zM521.52 153.3l18.45 61.02"/><path d="M539.79 214.37l-18.46-61.02.37-.11 18.46 61.02-.37.11z"/><path d="M521.52 153.3l-41.57 94.44m-3.176 1.083l41.276-93.903.482.212-41.276 93.903z"/><path d="M521.52 153.3l-67.54 31.64"/><path d="M454.07 185.14l-.18-.39 67.54-31.65.18.39-67.54 31.65z"/><path d="M521.52 153.3l-66.94-4.48"/><path d="M521.51 153.5l-66.94-4.48.03-.4 66.93 4.48-.02.4z"/><path d="M521.52,153.3c18.88,8.19,39.53,14.54,58.28,22.72"/><path d="M593.61 181.17l-72.01-28.08-.16.41 72.17 28.15v-.48zM136.19 350.14l-19.24-100.87"/><path d="M116.691 249.323l.521-.099 19.242 100.871-.521.099z"/><path d="M136.19 350.14l-48.38 3.31"/><path d="M87.82 353.61l-.02-.33 48.38-3.31.02.34-48.38 3.3z"/><path d="M136.19 350.14l-62.91-64.72"/><path d="M73.118 285.568l.344-.335 62.915 64.719-.344.335z"/><path d="M136.19 350.14l86.32 13.58"/><path d="M222.47 363.96l-86.32-13.59.08-.47 86.32 13.59-.08.47z"/><path d="M136.19 350.14L56.85 297.4"/><path d="M55.595 296.913l.275-.415 79.074 52.398-.275.415zm80.595 53.227l34.01-38.43"/><path d="M135.999 349.932l34.16-38.3.254.226-34.16 38.3z"/><path d="M136.19 350.14l34.01-38.43"/><path d="M135.999 349.932l34.16-38.3.254.226-34.16 38.3z"/><path d="M136.19 350.14l70.41 4.16"/><path d="M136.162 350.325l.024-.409 70.417 4.159-.024.409z"/><path d="M136.19 350.14l65.17-69.6"/><path d="M136.37 350.31l-.36-.34 65.17-69.6.36.34-65.17 69.6z"/><path d="M136.19 350.14l65.17-69.6"/><path d="M136.37 350.31l-.36-.34 65.17-69.6.36.34-65.17 69.6z"/><use xlink:href="#C"/><use xlink:href="#D"/><use xlink:href="#C"/><use xlink:href="#D"/><use xlink:href="#D"/><use xlink:href="#D" x="9.95" y="106.61"/><use xlink:href="#C"/><use xlink:href="#D" x="9.95" y="106.61"/><use xlink:href="#C"/><use xlink:href="#D" x="9.95" y="106.61"/><use xlink:href="#C"/><use xlink:href="#E"/><use xlink:href="#C"/><use xlink:href="#E"/><use xlink:href="#E"/><use xlink:href="#D" x="134.69" y="10.31"/><use xlink:href="#D" x="134.69" y="10.31"/><use xlink:href="#F"/><use xlink:href="#E"/><use xlink:href="#F"/><use xlink:href="#D"/><use xlink:href="#F"/><use xlink:href="#C"/><use xlink:href="#F"/><use xlink:href="#C"/><use xlink:href="#F"/><use xlink:href="#D"/><use xlink:href="#G"/><use xlink:href="#C"/><use xlink:href="#G"/><use xlink:href="#C"/><use xlink:href="#G"/><use xlink:href="#G"/><use xlink:href="#F" x="-122.65" y="92.29"/><use xlink:href="#D" x="9.95" y="106.61"/><use xlink:href="#F" x="-122.65" y="92.29"/><use xlink:href="#D"/><use xlink:href="#F" x="-122.65" y="92.29"/><use xlink:href="#C"/><use xlink:href="#F" x="-122.65" y="92.29"/><use xlink:href="#C"/><use xlink:href="#F" x="-122.65" y="92.29"/><use xlink:href="#G"/><use xlink:href="#F" x="-122.65" y="92.29"/><use xlink:href="#D" x="9.95" y="106.61"/><use xlink:href="#F" x="-122.65" y="92.29"/><use xlink:href="#D"/><use xlink:href="#F" x="-122.65" y="92.29"/><use xlink:href="#C"/><use xlink:href="#F" x="-122.65" y="92.29"/><use xlink:href="#C"/><use xlink:href="#F" x="-122.65" y="92.29"/><use xlink:href="#F" x="-236" y="77.98"/><use xlink:href="#F"/><use xlink:href="#F" x="12.04" y="102.58"/><use xlink:href="#D" x="134.69" y="10.31"/><use xlink:href="#F" x="12.04" y="102.58"/><use xlink:href="#E"/><use xlink:href="#F" x="12.04" y="102.58"/><use xlink:href="#D" x="9.95" y="106.61"/><use xlink:href="#F" x="12.04" y="102.58"/><use xlink:href="#G"/><use xlink:href="#H"/><use xlink:href="#F"/><use xlink:href="#H"/><use xlink:href="#D"/><use xlink:href="#H"/><use xlink:href="#I"/><use xlink:href="#J"/><use xlink:href="#F" x="12.04" y="102.58"/><use xlink:href="#J"/><use xlink:href="#D" x="134.69" y="10.31"/><use xlink:href="#J"/><use xlink:href="#E"/><use xlink:href="#J"/><use xlink:href="#D" x="257.93" y="-98.87"/><use xlink:href="#D" x="257.33" y="-62.75"/><use xlink:href="#I"/><use xlink:href="#D" x="257.33" y="-62.75"/><use xlink:href="#D" x="257.33" y="-62.75"/><use xlink:href="#C" x="222.01" y="-42.76"/><use xlink:href="#J"/><use xlink:href="#C" x="222.01" y="-42.76"/><use xlink:href="#D" x="257.93" y="-98.87"/><use xlink:href="#C" x="222.01" y="-42.76"/><use xlink:href="#I"/><use xlink:href="#C" x="222.01" y="-42.76"/><use xlink:href="#D" x="134.69" y="10.31"/><use xlink:href="#C" x="222.01" y="-42.76"/><use xlink:href="#C" x="222.01" y="-42.76"/><circle cx="479.95" cy="247.74" r="1.55"/><use xlink:href="#D" x="257.33" y="-62.75"/><circle cx="479.95" cy="247.74" r="1.55"/><use xlink:href="#J"/><circle cx="479.95" cy="247.74" r="1.55"/><use xlink:href="#D" x="257.93" y="-98.87"/><circle cx="479.95" cy="247.74" r="1.55"/><use xlink:href="#I"/><circle cx="479.95" cy="247.74" r="1.55"/><use xlink:href="#I"/><use xlink:href="#D" x="389.08" y="70.36"/><use xlink:href="#J"/><use xlink:href="#F" x="86.09" y="139.32"/><use xlink:href="#F" x="12.04" y="102.58"/><use xlink:href="#F" x="86.09" y="139.32"/><use xlink:href="#E"/><use xlink:href="#F" x="86.09" y="139.32"/><use xlink:href="#F" x="12.04" y="102.58"/><use xlink:href="#D" x="25.86" y="116.03"/><use xlink:href="#F" x="-122.65" y="92.29"/><use xlink:href="#D" x="25.86" y="116.03"/><use xlink:href="#F" x="-122.65" y="92.29"/><use xlink:href="#D" x="25.86" y="116.03"/><use xlink:href="#D" x="9.95" y="106.61"/><use xlink:href="#D" x="25.86" y="116.03"/><use xlink:href="#C"/><use xlink:href="#D" x="25.86" y="116.03"/><use xlink:href="#C"/><use xlink:href="#D" x="25.86" y="116.03"/><use xlink:href="#F" x="86.09" y="139.32"/><use xlink:href="#E" x="133.69" y="76.91"/><use xlink:href="#J"/><use xlink:href="#E" x="133.69" y="76.91"/><use xlink:href="#D" x="389.08" y="70.36"/><use xlink:href="#K"/><circle cx="479.95" cy="247.74" r="1.55"/><use xlink:href="#K"/><use xlink:href="#I"/><use xlink:href="#K"/><use xlink:href="#K"/><use xlink:href="#D" x="389.08" y="70.36"/><use xlink:href="#I"/><use xlink:href="#F" x="247.12" y="-5.1"/><use xlink:href="#K"/><use xlink:href="#F" x="247.12" y="-5.1"/><circle cx="479.95" cy="247.74" r="1.55"/><use xlink:href="#F" x="247.12" y="-5.1"/><use xlink:href="#F" x="247.12" y="-5.1"/><use xlink:href="#F" x="247.12" y="-5.1"/><use xlink:href="#D" x="257.33" y="-62.75"/><use xlink:href="#F" x="247.12" y="-5.1"/><use xlink:href="#F" x="247.12" y="-5.1"/><use xlink:href="#D" x="257.93" y="-98.87"/><use xlink:href="#F" x="247.12" y="-5.1"/><use xlink:href="#F" x="247.12" y="-5.1"/><use xlink:href="#I"/><use xlink:href="#F" x="247.12" y="-5.1"/><use xlink:href="#F" x="-236" y="77.98"/><use xlink:href="#D" x="-123.37" y="37.73"/><use xlink:href="#F" x="-122.65" y="92.29"/><use xlink:href="#D" x="-123.37" y="37.73"/><use xlink:href="#F" x="-122.65" y="92.29"/><use xlink:href="#D" x="-123.37" y="37.73"/><use xlink:href="#D" x="-123.37" y="37.73"/><use xlink:href="#D" x="-123.37" y="37.73"/><use xlink:href="#L"/><use xlink:href="#F" x="-236" y="77.98"/><use xlink:href="#L"/><use xlink:href="#F" x="-122.65" y="92.29"/><use xlink:href="#L"/><use xlink:href="#F" x="-122.65" y="92.29"/><use xlink:href="#L"/><use xlink:href="#L"/><use xlink:href="#L"/><use xlink:href="#F" x="-175.9" y="29.85"/><use xlink:href="#D" x="-123.37" y="37.73"/><use xlink:href="#F" x="-175.9" y="29.85"/><use xlink:href="#F" x="-236" y="77.98"/><use xlink:href="#F" x="-175.9" y="29.85"/><use xlink:href="#F" x="-122.65" y="92.29"/><use xlink:href="#F" x="-175.9" y="29.85"/><use xlink:href="#F" x="-122.65" y="92.29"/><use xlink:href="#F" x="-175.9" y="29.85"/><use xlink:href="#G"/><use xlink:href="#F" x="-175.9" y="29.85"/><use xlink:href="#D"/><use xlink:href="#F" x="-175.9" y="29.85"/><use xlink:href="#C"/><use xlink:href="#F" x="-175.9" y="29.85"/><use xlink:href="#C"/><use xlink:href="#F" x="-175.9" y="29.85"/><use xlink:href="#H"/><use xlink:href="#D" x="134.8" y="-81.48"/><use xlink:href="#F"/><use xlink:href="#D" x="134.8" y="-81.48"/><use xlink:href="#D" x="134.69" y="10.31"/><use xlink:href="#D" x="134.8" y="-81.48"/><use xlink:href="#D" x="134.8" y="-81.48"/><use xlink:href="#M"/><circle cx="479.95" cy="247.74" r="1.55"/><use xlink:href="#M"/><use xlink:href="#C" x="222.01" y="-42.76"/><use xlink:href="#M"/><use xlink:href="#D" x="257.33" y="-62.75"/><use xlink:href="#M"/><use xlink:href="#D" x="257.93" y="-98.87"/><use xlink:href="#M"/><use xlink:href="#M"/><use xlink:href="#F" x="79.6" y="-6.13"/><use xlink:href="#D" x="134.8" y="-81.48"/><use xlink:href="#F" x="79.6" y="-6.13"/><use xlink:href="#C" x="222.01" y="-42.76"/><use xlink:href="#F" x="79.6" y="-6.13"/><use xlink:href="#D" x="257.33" y="-62.75"/><use xlink:href="#F" x="79.6" y="-6.13"/><use xlink:href="#J"/><use xlink:href="#F" x="79.6" y="-6.13"/><use xlink:href="#D" x="257.93" y="-98.87"/><use xlink:href="#F" x="79.6" y="-6.13"/><use xlink:href="#F"/><use xlink:href="#F" x="79.6" y="-6.13"/><use xlink:href="#D" x="134.69" y="10.31"/><use xlink:href="#F" x="79.6" y="-6.13"/><use xlink:href="#E"/><use xlink:href="#F" x="79.6" y="-6.13"/><use xlink:href="#K"/><use xlink:href="#E" x="182.86" y="31.86"/><use xlink:href="#E" x="133.69" y="76.91"/><use xlink:href="#E" x="182.86" y="31.86"/><use xlink:href="#D" x="389.08" y="70.36"/><use xlink:href="#E" x="182.86" y="31.86"/><circle cx="479.95" cy="247.74" r="1.55"/><use xlink:href="#E" x="182.86" y="31.86"/><use xlink:href="#C" x="222.01" y="-42.76"/><use xlink:href="#E" x="182.86" y="31.86"/><use xlink:href="#J"/><use xlink:href="#E" x="182.86" y="31.86"/><use xlink:href="#I"/><use xlink:href="#E" x="182.86" y="31.86"/><use xlink:href="#K"/><use xlink:href="#D" x="389.08" y="70.36"/><use xlink:href="#F" x="247.12" y="-5.1"/><use xlink:href="#I" x="26.07" y="-110.55"/><circle cx="479.95" cy="247.74" r="1.55"/><use xlink:href="#I" x="26.07" y="-110.55"/><use xlink:href="#D" x="257.33" y="-62.75"/><use xlink:href="#I" x="26.07" y="-110.55"/><use xlink:href="#D" x="257.93" y="-98.87"/><use xlink:href="#I" x="26.07" y="-110.55"/><use xlink:href="#I" x="26.07" y="-110.55"/><use xlink:href="#F" x="-175.9" y="29.85"/><use xlink:href="#F" x="-156.66" y="130.72"/><use xlink:href="#L"/><use xlink:href="#F" x="-156.66" y="130.72"/><use xlink:href="#D" x="-123.37" y="37.73"/><use xlink:href="#F" x="-156.66" y="130.72"/><use xlink:href="#D" x="25.86" y="116.03"/><use xlink:href="#F" x="-156.66" y="130.72"/><use xlink:href="#F" x="-236" y="77.98"/><use xlink:href="#F" x="-156.66" y="130.72"/><use xlink:href="#F" x="-122.65" y="92.29"/><use xlink:href="#F" x="-156.66" y="130.72"/><use xlink:href="#F" x="-122.65" y="92.29"/><use xlink:href="#F" x="-156.66" y="130.72"/><use xlink:href="#D" x="9.95" y="106.61"/><use xlink:href="#F" x="-156.66" y="130.72"/><use xlink:href="#C"/><use xlink:href="#F" x="-156.66" y="130.72"/><use xlink:href="#C"/><use xlink:href="#F" x="-156.66" y="130.72"/><path d="M396.57 280.32l71.83 32.34-.21.49-71.83-32.34.21-.49zm197.04-152.18l-16.23 14.74.52.57 15.71-14.28v-1.03z"/><path d="M593.61 158.31L577.9 142.9l-.52.53 16.23 15.92v-1.04zm-273.77 93.51l76.72 28.49-.19.51-76.72-28.49.19-.51z"/><path d="M319.592 252.45l.311-.759 148.556 60.836-.311.759zM593.61 143.4l-15.96-.57-.02.67 15.98.57v-.67z"/><path d="M319.621 252.305l.226-.491 73.695 33.927-.226.491z"/><path d="M393.303 285.901l3.028-5.433.245.136-3.028 5.433z"/><path d="M393.53 285.74l74.86 26.91-.18.51-74.86-26.91.18-.51z"/><path d="M319.621 252.305l.226-.491 73.695 33.927-.226.491z"/><path d="M393.303 285.901l3.028-5.433.245.136-3.028 5.433z"/><path d="M393.53 285.74l74.86 26.91-.18.51-74.86-26.91.18-.51zm200.08-134.18L577.73 143l-.18.33 16.06 8.66v-.43z"/><path d="M417.055 106.215l.188-.808 160.524 37.385-.188.808z"/><path d="M460.66 88.26l.16.4-43.63 17.33-.15-.4 43.62-17.33z"/><path d="M593.61 152.15L460.92 88.08l-.36.75 133.05 64.24v-.92z"/><path d="M460.89 88.13l116.9 54.71-.3.65-116.9-54.71.3-.65z"/><path d="M460.43 88.34l.62.23-41.49 108.93-.63-.24 41.5-108.92z"/><path d="M416.786 105.795l.58-.014 2.206 91.583-.58.014z"/><path d="M392.951 285.843l26.199-88.504.556.165-26.199 88.504z"/><path d="M392.951 285.843l26.199-88.504.556.165-26.199 88.504z"/><path d="M419.09 197.09l.31.57-99.5 54.7-.31-.58 99.5-54.69z"/><path d="M418.97 197.3l.54.15-22.78 83.19-.54-.15 22.78-83.19z"/><path d="M418.92 197.464l.644-.274 49.061 115.524-.644.274z"/><path d="M419.094 196.959l158.422-54.147.272.795-158.422 54.147z"/><path d="M419.36 197.05L535.16 238l-.23.65-115.8-40.95.23-.65z"/><path d="M461.12 88.27l74.3 149.86-.75.38-74.31-149.87.76-.37z"/><path d="M593.61 175.13l-58.8 62.97.46.44 58.34-62.49v-.92z"/><path d="M534.92 237.95l.25.74-141.61 47.68-.25-.74 141.61-47.68z"/><path d="M534.92 237.95l.25.74-141.61 47.68-.25-.74 141.61-47.68z"/><path d="M593.61 238.97l-58.56-1.03-.01.76 58.57 1.02v-.75z"/><path d="M396.35 280.209l138.577-42.235.224.737-138.577 42.235z"/><path d="M593.61 258.76l-58.43-20.84-.28.8 58.71 20.94v-.9z"/><path d="M534.82 238.12l.45.41-66.75 74.58-.45-.41 66.75-74.58z"/><path d="M577.36 143.04l.56.25-42.59 95.16-.57-.26 42.6-95.15zM460.64 88.16l101.29-32.34.19.6-101.28 32.34-.2-.6z"/><path d="M593.61 0l-31.85 55.97.54.31 31.31-55.02V0z"/><path d="M561.9 55.75l.26.75-144.91 49.67-.26-.75L561.9 55.75z"/><path d="M593.61 125.9l-31.28-69.91-.6.27 31.88 71.25v-1.61z"/><path d="M593.61 76.92l-31.35-21.14-.47.69 31.82 21.45v-1z"/><path d="M593.61 53.25L562 55.78l.05.69 31.56-2.53v-.69z"/><path d="M561.75 56.17l.56-.09 15.61 87.04-.56.1-15.61-87.05zM341.03 170.48l78.3 26.64-.18.51L340.86 171l.17-.52z"/><path d="M340.761 170.47l119.727-82.379.436.634-119.727 82.379z"/><path d="M416.92 105.56l.4.47-76.18 64.94-.39-.46 76.17-64.95z"/><path d="M341.26 170.6l52.5 115.25-.64.29-52.49-115.25.63-.29z"/><path d="M341.26 170.6l52.5 115.25-.64.29-52.49-115.25.63-.29z"/><path d="M340.68 170.67l.53.14-21.2 81.33-.53-.14 21.2-81.33z"/><path d="M340.634 170.885l.616-.311 55.519 109.813-.616.311zM178.41 303.18l68.06-24.61"/><path d="M178.277 302.764l141.352-51.057.265.734-141.352 51.057zm355.434-65.335l.5-.348 56.858 81.795-.5.348zm59.899 61.431l-2.22 21.44.82.09 1.4-13.52v-8.01z"/><path d="M468.32 312.56l123.5 7.44-.04.69-123.51-7.44.05-.69zm-221.74 9l-68.17-18.38"/><path d="M178.321 303.463l.161-.599 99.086 26.698-.161.599z"/><path d="M277.088 329.753l63.488-159.133.799.319-63.488 159.133z"/><path d="M277.381 329.576l115.929-43.921.244.645-115.929 43.921z"/><path d="M277.381 329.576l115.929-43.921.244.645-115.929 43.921z"/><path d="M277.223 329.748l42.28-77.805.501.272-42.28 77.805z"/><path d="M396.33 280.23l.27.66-118.97 49.33-.27-.66 118.97-49.33z"/><use xlink:href="#N"/><use xlink:href="#O"/><use xlink:href="#P"/><use xlink:href="#P"/><use xlink:href="#O"/><use xlink:href="#Q"/><use xlink:href="#N"/><use xlink:href="#Q"/><use xlink:href="#P"/><use xlink:href="#Q"/><use xlink:href="#R"/><use xlink:href="#O"/><use xlink:href="#R"/><use xlink:href="#N"/><use xlink:href="#R"/><use xlink:href="#Q"/><use xlink:href="#R"/><use xlink:href="#O"/><use xlink:href="#R"/><use xlink:href="#N"/><use xlink:href="#R"/><use xlink:href="#P"/><use xlink:href="#P"/><use xlink:href="#S"/><use xlink:href="#S"/><use xlink:href="#T"/><use xlink:href="#T"/><use xlink:href="#P"/><use xlink:href="#T"/><use xlink:href="#T"/><use xlink:href="#U"/><use xlink:href="#S"/><use xlink:href="#U"/><use xlink:href="#R"/><use xlink:href="#U"/><use xlink:href="#R"/><use xlink:href="#U"/><use xlink:href="#Q"/><use xlink:href="#U"/><use xlink:href="#O"/><use xlink:href="#U"/><use xlink:href="#N"/><use xlink:href="#U"/><use xlink:href="#P"/><use xlink:href="#U"/><use xlink:href="#U"/><use xlink:href="#V"/><use xlink:href="#T"/><use xlink:href="#V"/><use xlink:href="#V"/><use xlink:href="#R"/><use xlink:href="#V"/><use xlink:href="#R"/><use xlink:href="#V"/><use xlink:href="#V"/><use xlink:href="#O"/><use xlink:href="#V"/><use xlink:href="#V"/><use xlink:href="#N"/><use xlink:href="#V"/><use xlink:href="#P"/><use xlink:href="#V"/><use xlink:href="#T"/><use xlink:href="#W"/><use xlink:href="#W"/><use xlink:href="#S"/><use xlink:href="#W"/><use xlink:href="#W"/><use xlink:href="#W"/><use xlink:href="#W"/><use xlink:href="#P"/><use xlink:href="#W"/><use xlink:href="#U"/><use xlink:href="#O" x="-55.52" y="-109.82"/><use xlink:href="#T"/><use xlink:href="#O" x="-55.52" y="-109.82"/><use xlink:href="#S"/><use xlink:href="#O" x="-55.52" y="-109.82"/><use xlink:href="#R"/><use xlink:href="#O" x="-55.52" y="-109.82"/><use xlink:href="#R"/><use xlink:href="#O" x="-55.52" y="-109.82"/><use xlink:href="#Q"/><use xlink:href="#O" x="-55.52" y="-109.82"/><use xlink:href="#O"/><use xlink:href="#O" x="-55.52" y="-109.82"/><use xlink:href="#Q"/><use xlink:href="#V" x="-356.63" y="64.86"/><use xlink:href="#V"/><use xlink:href="#X"/><use xlink:href="#X"/><use xlink:href="#X"/><use xlink:href="#X"/><use xlink:href="#N"/><use xlink:href="#X"/><use xlink:href="#V" x="-356.63" y="64.86"/><use xlink:href="#O" x="-118.97" y="49.33"/><use xlink:href="#O" x="-55.52" y="-109.82"/><use xlink:href="#O" x="-118.97" y="49.33"/><use xlink:href="#R"/><use xlink:href="#O" x="-118.97" y="49.33"/><use xlink:href="#R"/><use xlink:href="#O" x="-118.97" y="49.33"/><use xlink:href="#Q"/><use xlink:href="#O" x="-118.97" y="49.33"/><use xlink:href="#O"/><use xlink:href="#O" x="-118.97" y="49.33"/></g><defs ><path id="B" d="M170.131 311.658l31.053-31.271.227.225-31.053 31.271z"/><path id="C" d="M202.91 280.54a1.55 1.55 0 1 1-1.55-1.56 1.55 1.55 0 0 1 1.55 1.56z"/><path id="D" d="M198.2 247.69a1.55 1.55 0 1 1-1.55-1.55 1.54 1.54 0 0 1 1.55 1.55z"/><path id="E" d="M306.54 288a1.56 1.56 0 1 1-1.55-1.55 1.55 1.55 0 0 1 1.55 1.55z"/><path id="F" d="M294.4 219.42a1.55 1.55 0 1 1-1.55-1.55 1.55 1.55 0 0 1 1.55 1.55z"/><path id="G" d="M179,233a1.55,1.55,0,1,1-1.55-1.55A1.54,1.54,0,0,1,179,233Z"/><path id="H" d="M230.35 169.16a1.56 1.56 0 1 1-1.56-1.55 1.55 1.55 0 0 1 1.56 1.55z"/><path id="I" d="M497 263.85a1.55 1.55 0 1 1-1.55-1.55 1.56 1.56 0 0 1 1.55 1.55z"/><path id="J" d="M413.19 301.87a1.56 1.56 0 1 1-1.55-1.55 1.56 1.56 0 0 1 1.55 1.55z"/><path id="K" d="M557.35 320.05a1.55 1.55 0 1 1-1.55-1.56 1.56 1.56 0 0 1 1.55 1.56z"/><path id="L" d="M89.37 353.45a1.56 1.56 0 1 1-1.56-1.55 1.56 1.56 0 0 1 1.56 1.55z"/><path id="M" d="M412.17 162.24a1.56 1.56 0 1 1-1.55-1.56 1.56 1.56 0 0 1 1.55 1.56z"/><path id="N" d="M466 313.65a2.42 2.42 0 1 1 3.05 1.56 2.41 2.41 0 0 1-3.05-1.56z"/><path id="O" d="M394.15 281.3a2.43 2.43 0 1 1 3.06 1.57 2.42 2.42 0 0 1-3.06-1.57z"/><path id="P" d="M575.33 143.91a2.43 2.43 0 1 1 3 1.56 2.42 2.42 0 0 1-3-1.56z"/><path id="Q" d="M317.43 252.81a2.43 2.43 0 1 1 3.06 1.57 2.43 2.43 0 0 1-3.06-1.57z"/><path id="R" d="M391.13 286.74a2.42 2.42 0 1 1 3.05 1.57 2.41 2.41 0 0 1-3.05-1.57z"/><path id="S" d="M414.81,106.54a2.42,2.42,0,1,1,4.61-1.49,2.42,2.42,0,1,1-4.61,1.49Z"/><path id="T" d="M458.43 89.2a2.43 2.43 0 1 1 3.05 1.57 2.42 2.42 0 0 1-3.05-1.57z"/><path id="U" d="M416.93 198.12a2.43 2.43 0 1 1 3.06 1.56 2.42 2.42 0 0 1-3.06-1.56z"/><path id="V" d="M532.73 239.07a2.43 2.43 0 1 1 3.06 1.56 2.43 2.43 0 0 1-3.06-1.56z"/><path id="W" d="M559.72 56.87a2.43 2.43 0 1 1 3 1.56 2.43 2.43 0 0 1-3-1.56z"/><path id="X" d="M593.61,318.73a2.43,2.43,0,1,0-1.06,3.92,2.35,2.35,0,0,0,1.06-.7Z"/></defs></svg>