<svg xmlns="http://www.w3.org/2000/svg" xmlns:xlink="http://www.w3.org/1999/xlink" viewBox="0 0 529.46 326.86" xmlns:v="https://vecta.io/nano"><g opacity=".18" fill="#474747"><path d="M354.06 105.94l-4.2-29.3"/><path d="M349.99 76.63l4.2 29.29-.25.03-4.2-29.29.25-.03z"/><path d="M354.06 105.94l-4.2-29.3"/><path d="M349.99 76.63l4.2 29.29-.25.03-4.2-29.29.25-.03z"/><path d="M345.18 10.85l8.88 95.09"/><path d="M345.43 10.83l8.87 95.09-.48.04-8.87-95.09.48-.04z"/><path d="M345.18 10.85l4.68 65.79"/><path d="M345.37 10.84l4.68 65.79-.38.03-4.67-65.8.37-.02z"/><path d="M345.18 10.85l4.68 65.79"/><path d="M345.37 10.84l4.68 65.79-.38.03-4.67-65.8.37-.02z"/><path d="M257.43 69.98l92.43 6.66"/><path d="M257.45 69.74l92.43 6.67-.03.47-92.43-6.67.03-.47z"/><path d="M257.43 69.98l92.43 6.66"/><path d="M257.45 69.74l92.43 6.67-.03.47-92.43-6.67.03-.47zm-23.53 27.03l23.51-26.79"/><path d="M233.884 96.738l23.405-26.877.204.177-23.405 26.877z"/><path d="M268.25 131.16l-34.33-34.39"/><path d="M234.04 96.66l34.33 34.38-.23.23-34.33-34.39.23-.22z"/><path d="M268.25 131.16l-10.82-61.18"/><path d="M257.25 70.002l.354-.063 10.821 61.18-.354.063z"/><path d="M268.25 131.16l85.81-25.22"/><path d="M268.186 130.94L354 105.733l.13.441-85.814 25.208z"/><path d="M268.25 131.16l81.61-54.52"/><path d="M349.72 76.44l.28.41-81.61 54.51-.27-.41 81.6-54.51z"/><path d="M268.25 131.16l81.61-54.52"/><path d="M349.72 76.44l.28.41-81.61 54.51-.27-.41 81.6-54.51zm21.46 42.64l-17.12-13.14"/><path d="M354.13 105.85l17.11 13.14-.13.17-17.12-13.13.14-.18z"/><path d="M371.18 119.08l-21.32-42.44"/><path d="M350 76.57L371.32 119l-.29.15-21.31-42.44.28-.14z"/><path d="M371.18 119.08l-21.32-42.44"/><path d="M350 76.57L371.32 119l-.29.15-21.31-42.44.28-.14z"/><path d="M377.65 48.84l-6.47 70.24"/><path d="M377.46 48.82l.39.04-6.48 70.23-.39-.03 6.48-70.24z"/><path d="M377.65 48.84l-32.47-37.99"/><path d="M345.31 10.74l32.47 38-.25.21-32.47-38 .25-.21z"/><path d="M377.65 48.84l-23.59 57.1"/><path d="M353.79 105.818l23.811-57.007.332.139-23.811 57.007z"/><path d="M377.65 48.84l-27.79 27.8"/><use xlink:href="#B"/><path d="M377.65 48.84l-27.79 27.8"/><use xlink:href="#B"/><path d="M377.65 48.84l-6.47 70.24"/><path d="M377.46 48.82l.39.04-6.48 70.23-.39-.03 6.48-70.24z"/><path d="M377.65 48.84l-32.47-37.99"/><path d="M345.31 10.74l32.47 38-.25.21-32.47-38 .25-.21z"/><path d="M377.65 48.84l-23.59 57.1"/><path d="M353.79 105.818l23.811-57.007.332.139-23.811 57.007z"/><path d="M377.65 48.84l-27.79 27.8"/><use xlink:href="#B"/><path d="M377.65 48.84l-27.79 27.8"/><use xlink:href="#B"/><path d="M478.75,61.6l43.93-.16"/><path d="M529.33 61.25v.33l-50.58.18v-.32l50.58-.19zM257.52 39.67l10.73 91.49"/><path d="M257.75 39.65l10.74 91.48-.47.05-10.74-91.48.47-.05z"/><path d="M257.52 39.67l-23.6 57.1"/><path d="M233.83 96.725l23.443-57.159.333.137-23.443 57.159z"/><path d="M257.52 39.67l-.09 30.31"/><path d="M257.39 39.67h.25l-.08 30.31h-.25l.08-30.31z"/><path d="M257.52 39.67l87.66-28.82"/><path d="M257.45 39.454l87.683-28.795.147.447-87.683 28.795zm67.94 136.526l45.79-56.9"/><path d="M371.02 118.95l.31.25-45.78 56.91-.32-.25 45.79-56.91z"/><path d="M325.39 175.98l-57.14-44.82"/><path d="M268.137 131.329l.247-.315 57.132 44.829-.247.315z"/><path d="M325.39 175.98l28.67-70.04"/><path d="M325.196 175.903l28.66-70.054.379.155-28.66 70.054zM162.31 57.62l-74.72 33.9"/><path d="M87.496 91.346L162.2 57.411l.178.392-74.704 33.934zM162.31 57.62l95.21-17.95"/><path d="M257.47 39.43l.09.48-95.21 17.95-.09-.48 95.21-17.95z"/><path d="M162.31 57.62l71.61 39.15"/><path d="M162.188 57.795l.206-.377 71.62 39.146-.206.377z"/><path d="M162.31 57.62l95.12 12.36"/><path d="M162.34 57.38l95.13 12.36-.07.48-95.12-12.36.06-.48zm-37.8 104.53l-.53 32.21"/><path d="M123.89 194.133l.529-32.216.26.004-.529 32.216z"/><path d="M124.54 161.91L87.59 91.52"/><path d="M87.396 91.619l.381-.2 36.95 70.38-.381.2z"/><path d="M151.84 114.78l-27.3 47.13"/><path d="M151.69 114.7l.3.17-27.3 47.12-.3-.17 27.3-47.12z"/><path d="M151.84 114.78l10.47-57.16"/><path d="M151.761 114.776l10.29-57.192.344.062-10.29 57.192z"/><path d="M151.84 114.78l-27.83 79.34"/><path d="M123.79 194.047l27.845-79.335.415.146-27.845 79.335z"/><path d="M151.84 114.78L87.59 91.52"/><path d="M87.66 91.34l64.25 23.26-.14.37L87.52 91.7l.14-.36z"/><path d="M151.84 114.78l82.08-18.01"/><path d="M233.88 96.55l.09.43L151.89 115l-.1-.43 82.09-18.02z"/><path d="M101.38 105.9l50.46 8.88"/><path d="M101.41 105.73l50.46 8.89-.06.32-50.46-8.88.06-.33z"/><path d="M101.38 105.9l23.16 56.01"/><path d="M101.54 105.83l23.16 56.01-.33.13-23.16-56 .33-.14z"/><path d="M101.38 105.9l60.93-48.28"/><path d="M101.257 105.749l60.907-48.309.261.329-60.907 48.309z"/><path d="M101.38 105.9l22.63 88.22"/><path d="M101.6 105.84l22.63 88.23-.45.11-22.63-88.23.45-.11z"/><path d="M101.38 105.9L87.59 91.52"/><path d="M87.67 91.45l13.79 14.37-.16.15L87.51 91.6l.16-.15z"/><path d="M12.42,46.42C37.54,61,63,75.17,87.59,91.52"/><path d="M7.15 42.98l80.56 48.34-.24.41L6.9 43.39l.25-.41zM191.47 6.89l-29.16 50.73"/><path d="M191.32 6.8l.3.18-29.16 50.73-.31-.18L191.32 6.8z"/><path d="M191.47 6.89l66.05 32.78"/><path d="M191.393 7.083l.178-.358 66.041 32.783-.178.358z"/><path d="M191.47 6.89l65.96 63.09"/><path d="M191.63 6.72l65.97 63.09-.33.33-65.96-63.08.32-.34zM331 2.45l-73.48 37.22"/><path d="M257.39 39.426l73.509-37.164.199.393-73.509 37.164zM331 2.45l46.65 46.39"/><path d="M330.867 2.578l.268-.269 46.657 46.398-.268.269z"/><path d="M331 2.45l46.65 46.39"/><path d="M330.867 2.578l.268-.269 46.657 46.398-.268.269z"/><path d="M331 2.45l14.18 8.4"/><path d="M331.05 2.36l14.19 8.4-.11.18-14.19-8.41.11-.17z"/><path d="M331 2.45l18.86 74.19"/><path d="M330.797 2.517l.407-.103 18.858 74.201-.407.103z"/><path d="M331 2.45l18.86 74.19"/><path d="M330.797 2.517l.407-.103 18.858 74.201-.407.103zM138.19 1.38l53.28 5.51"/><path d="M138.21 1.22l53.28 5.51-.04.33-53.28-5.51.04-.33z"/><path d="M138.19 1.38l24.12 56.24"/><path d="M138.035 1.465l.331-.142 24.115 56.238-.331.142zM33.73 41.4l-21.47 1.43"/><path d="M33.72 41.28l.01.24-26.7 1.78-.01-.24 26.7-1.78z"/><path d="M33.73 41.4l67.65 64.5"/><path d="M33.89 41.23l67.65 64.49-.32.35-67.66-64.49.33-.35z"/><path d="M33.73 41.4l53.86 50.12"/><path d="M33.588 41.555l.279-.3 53.858 50.118-.279.3z"/><path d="M12.33,68.09,33.73,41.4"/><path d="M0 83.78l33.88-42.26-.3-.24L0 83.17v.61zm0-16.34l7.18-24.21-.31-.1L0 66.28v1.16zm12.49 25.44c25-2.13 49.13.7 75.1-1.36"/><path d="M0 93.34l87.59-1.58v-.48L0 92.86v.48zm47.84 42.37l-35.62-27.17"/><path d="M0 99.47l47.72 36.39.24-.31L0 98.97v.5z"/><path d="M47.84 135.71L33.73 41.4"/><path d="M33.96 41.37l14.12 94.3-.48.07-14.11-94.3.47-.07z"/><path d="M47.84 135.71l53.54-29.81"/><path d="M101.29 105.74l.18.32-53.54 29.8-.17-.31 53.53-29.81zm-53.45 29.97l-35.19.46"/><path d="M.008 136.108l47.846-.626.006.45-47.846.626z"/><path d="M47.84,135.71l-35.19.46"/><path d="M.008 136.108l47.846-.626.006.45-47.846.626z"/><path d="M47.84 135.71l76.7 26.2"/><path d="M47.91 135.5l76.7 26.2-.14.41-76.7-26.2.14-.41z"/><path d="M47.84,135.71l-35.36-.56"/><path d="M0 135.17l47.84.75.01-.43L0 134.73v.44z"/><path d="M47.84 135.71l76.17 58.41"/><path d="M47.688 135.897l.292-.381 76.164 58.422-.292.381z"/><path d="M47.84,135.71,12.25,156.52"/><path d="M0 163.88l47.93-28.02-.17-.3L0 163.48v.4z"/><path d="M47.84 135.71l39.75-44.19"/><path d="M87.46 91.4l.26.24-39.75 44.18-.26-.23L87.46 91.4zM464.1 72.29l14.65-10.69"/><path d="M464.039 72.207l14.644-10.706.124.17-14.644 10.706z"/><path d="M464.1 72.29l-86.45-23.45"/><path d="M377.71 48.62l86.45 23.45-.12.44-86.45-23.45.12-.44z"/><path d="M464.1 72.29l-86.45-23.45"/><path d="M377.71 48.62l86.45 23.45-.12.44-86.45-23.45.12-.44z"/><path d="M464.1,72.29c19.67-4.21,38.08-5.62,58.51-9.76"/><path d="M529.3 61.23l.07.37-65.24 10.87-.06-.37 65.23-10.87z"/><path d="M451.13 11.61l12.97 60.68"/><path d="M450.948 11.625l.352-.075 12.962 60.671-.352.075z"/><path d="M451.13 11.61l27.62 49.99"/><path d="M451.29 11.53l27.61 49.98-.3.17-27.62-49.98.31-.17z"/><path d="M451.13 11.61l-73.48 37.23"/><path d="M377.533 48.584l73.518-37.169.199.393-73.518 37.169z"/><path d="M451.13 11.61l-73.48 37.23"/><path d="M377.533 48.584l73.518-37.169.199.393-73.518 37.169z"/><path d="M451.13,11.61c22.72,15.39,46.8,29.56,71.41,45.48"/><path d="M451.26 11.41l78.2 49.81-.25.39-78.2-49.8.25-.4z"/><path d="M425.15 104.53l25.98-92.92"/><path d="M450.9 11.55l.47.13-25.99 92.92-.47-.13 25.99-92.92z"/><path d="M425.15 104.53l38.95-32.24"/><path d="M464 72.16l.2.25-38.95 32.25-.21-.25L464 72.16z"/><path d="M425.15 104.53l53.6-42.93"/><path d="M478.63 61.45l.24.3-53.6 42.93-.24-.3 53.6-42.93z"/><path d="M425.15 104.53l-47.5-55.69"/><path d="M377.81 48.71l47.49 55.69-.31.26-47.49-55.69.31-.26z"/><path d="M425.15 104.53l-47.5-55.69"/><path d="M377.81 48.71l47.49 55.69-.31.26-47.49-55.69.31-.26z"/><path d="M425.15 104.53l-53.97 14.55"/><path d="M425.1 104.37l.09.33-53.97 14.54-.09-.33 53.97-14.54z"/><path d="M425.15 104.53l-71.09 1.41"/><path d="M354.049 105.79l71.084-1.501.008.4-71.084 1.501z"/><path d="M425.15 104.53l-75.29-27.89"/><path d="M349.93 76.44l75.29 27.89-.15.4-75.28-27.89.14-.4z"/><path d="M425.15 104.53l-75.29-27.89"/><path d="M349.93 76.44l75.29 27.89-.15.4-75.28-27.89.14-.4zM233.8 178.61l91.59-2.63"/><path d="M233.81 178.397l91.59-2.718.014.47-91.59 2.718z"/><path d="M233.8 178.61l34.45-47.45"/><path d="M268.11 131.05l.29.21-34.46 47.46-.28-.21 34.45-47.46z"/><path d="M233.8 178.61l.12-81.84"/><path d="M233.71 96.77h.43l-.13 81.84h-.43l.13-81.84z"/><path d="M163.22 182.16l70.58-3.55"/><path d="M233.79 178.42l.02.39-70.58 3.55-.02-.4 70.58-3.54z"/><path d="M163.22 182.16l-61.84-76.26"/><path d="M101.183 106.047l.381-.309 61.84 76.257-.381.309z"/><path d="M163.22 182.16l-11.38-67.38"/><path d="M152.03 114.75l11.38 67.38-.38.06-11.38-67.38.38-.06z"/><path d="M163.22 182.16l-38.68-20.25"/><path d="M124.61 161.77l38.68 20.26-.14.26-38.68-20.25.14-.27z"/><path d="M163.22 182.16l-39.21 11.96"/><path d="M163.18 182.02l.08.28-39.21 11.96-.09-.27 39.22-11.97z"/><path d="M197.22 136.62l-34 45.54"/><path d="M197.08 136.51l.28.21-34 45.54-.28-.2 34-45.55z"/><path d="M197.22 136.62l36.58 41.99"/><path d="M197.35 136.51l36.58 41.99-.26.22-36.58-41.99.26-.22z"/><path d="M197.22 136.62l-45.38-21.84"/><path d="M151.91 114.64l45.38 21.83-.14.29-45.38-21.83.14-.29z"/><path d="M197.22 136.62l-72.68 25.29"/><path d="M197.15 136.42l.14.4-72.68 25.28-.14-.39 72.68-25.29z"/><path d="M197.22 136.62l-34.91-79"/><path d="M162.51 57.53l34.92 79-.42.18-34.91-79 .41-.18z"/><path d="M197.22 136.62l-73.21 57.5"/><path d="M197.08 136.43l.29.38-73.22 57.5-.29-.37 73.22-57.51z"/><path d="M197.22 136.62l71.03-5.46"/><path d="M197.206 136.433l71.03-5.465.031.399-71.03 5.465z"/><path d="M197.22 136.62l36.7-39.85"/><path d="M233.8 96.66l.25.22-36.71 39.85-.24-.23 36.7-39.84z"/><path d="M197.22 136.62l60.21-66.64"/><path d="M257.26 69.82l.34.31-60.21 66.64-.34-.31 60.21-66.64zM94.33 41.57l-60.6-.17"/><path d="M33.73 41.22l60.6.17v.35l-60.6-.16v-.36z"/><path d="M94.33 41.57l43.86-40.19"/><path d="M94.207 41.426l43.86-40.176.243.265-43.86 40.176z"/><path d="M94.33,41.57c-27,1-55.37,1-81.94,1.51"/><path d="M7.029 42.953l87.305-1.615.008.45-87.305 1.615z"/><path d="M94.33 41.57l7.05 64.33"/><path d="M94.52 41.55l7.04 64.33-.37.04-7.04-64.33.37-.04z"/><path d="M94.33 41.57l57.51 73.21"/><path d="M94.52 41.42l57.51 73.22-.38.29-57.5-73.22.37-.29z"/><path d="M94.33 41.57l67.98 16.05"/><path d="M94.38 41.37l67.97 16.06-.09.38-67.97-16.05.09-.39z"/><path d="M94.33 41.57l-6.74 49.95"/><path d="M94.17 41.54l.33.05-6.75 49.95-.32-.04 6.74-49.96zm-81.59 6.18l21.15-6.32"/><path d="M0 51.7l33.79-10.09-.13-.42L0 51.24v.46zm0-5.41l7.09-2.95-.13-.32L0 45.92v.37zm64.3 143.84l-16.46-54.42"/><path d="M48.01 135.66l16.46 54.42-.33.1-16.47-54.42.34-.1z"/><path d="M64.3 190.13l37.08-84.23"/><path d="M64.019 190.018l37.212-84.171.43.19-37.212 84.171z"/><path d="M64.3 190.13l60.24-28.22"/><path d="M124.46 161.73l.16.35-60.24 28.22-.16-.34 60.24-28.23z"/><path d="M64.3 190.13l59.71 3.99"/><path d="M64.31 189.95l59.71 4-.03.35-59.7-3.99.02-.36z"/><path d="M64.3,190.13c-16.84-7.3-35.26-13-52-20.27"/><path d="M0 165.27l64.23 25.05.14-.37L0 164.84v.43zM407.99 14.56l17.16 89.97"/><path d="M407.752 14.604l.462-.088 17.162 89.968-.462.088z"/><path d="M407.99 14.56l43.14-2.95"/><path d="M451.13 11.46l.02.3L408 14.71l-.02-.3 43.15-2.95z"/><path d="M407.99 14.56l56.11 57.73"/><path d="M407.814 14.692l.308-.3 56.112 57.721-.308.3z"/><path d="M407.99 14.56L331 2.45"/><path d="M331.03 2.24l76.99 12.12-.07.41-76.99-12.12.07-.41zm76.96 12.32l70.76 47.04"/><path d="M407.857 14.743l.249-.375 70.765 47.034-.249.375z"/><path d="M407.99 14.56l-30.34 34.28"/><path d="M377.449 48.665l30.465-34.158.231.206-30.465 34.158z"/><path d="M407.99 14.56l-30.34 34.28"/><path d="M377.449 48.665l30.465-34.158.231.206-30.465 34.158z"/><path d="M407.99 14.56l-62.81-3.71"/><path d="M345.154 11.039l.022-.369 62.801 3.709-.022.369z"/><path d="M407.99 14.56l-58.13 62.08"/><path d="M407.82 14.41l.33.3-58.13 62.09-.32-.31 58.12-62.08z"/><path d="M407.99 14.56l-58.13 62.08"/><path d="M407.82 14.41l.33.3-58.13 62.09-.32-.31 58.12-62.08z"/><use xlink:href="#C"/><use xlink:href="#D"/><use xlink:href="#C"/><use xlink:href="#D"/><use xlink:href="#D"/><use xlink:href="#D" x="-8.88" y="-95.09"/><use xlink:href="#C"/><use xlink:href="#D" x="-8.88" y="-95.09"/><use xlink:href="#C"/><use xlink:href="#D" x="-8.88" y="-95.09"/><use xlink:href="#C"/><use xlink:href="#E"/><use xlink:href="#C"/><use xlink:href="#E"/><use xlink:href="#E"/><use xlink:href="#D" x="-120.14" y="-9.17"/><use xlink:href="#D" x="-120.14" y="-9.17"/><use xlink:href="#D" x="-85.81" y="25.22"/><use xlink:href="#E"/><use xlink:href="#D" x="-85.81" y="25.22"/><use xlink:href="#D"/><use xlink:href="#D" x="-85.81" y="25.22"/><use xlink:href="#C"/><use xlink:href="#D" x="-85.81" y="25.22"/><use xlink:href="#C"/><use xlink:href="#D" x="-85.81" y="25.22"/><use xlink:href="#D"/><use xlink:href="#F"/><use xlink:href="#C"/><use xlink:href="#F"/><use xlink:href="#C"/><use xlink:href="#F"/><use xlink:href="#F"/><use xlink:href="#D" x="23.59" y="-57.1"/><use xlink:href="#D" x="-8.88" y="-95.09"/><use xlink:href="#D" x="23.59" y="-57.1"/><use xlink:href="#D"/><use xlink:href="#D" x="23.59" y="-57.1"/><use xlink:href="#C"/><use xlink:href="#D" x="23.59" y="-57.1"/><use xlink:href="#C"/><use xlink:href="#D" x="23.59" y="-57.1"/><use xlink:href="#F"/><use xlink:href="#D" x="23.59" y="-57.1"/><use xlink:href="#D" x="-8.88" y="-95.09"/><use xlink:href="#D" x="23.59" y="-57.1"/><use xlink:href="#D"/><use xlink:href="#D" x="23.59" y="-57.1"/><use xlink:href="#C"/><use xlink:href="#D" x="23.59" y="-57.1"/><use xlink:href="#C"/><use xlink:href="#D" x="23.59" y="-57.1"/><use xlink:href="#G"/><use xlink:href="#D" x="-85.81" y="25.22"/><use xlink:href="#H"/><use xlink:href="#D" x="-120.14" y="-9.17"/><use xlink:href="#H"/><use xlink:href="#E"/><use xlink:href="#H"/><use xlink:href="#D" x="-8.88" y="-95.09"/><use xlink:href="#H"/><use xlink:href="#F"/><use xlink:href="#I"/><use xlink:href="#D" x="-85.81" y="25.22"/><use xlink:href="#I"/><use xlink:href="#D"/><use xlink:href="#I"/><use xlink:href="#J"/><use xlink:href="#F" x="-208.87" y="-61.46"/><use xlink:href="#H"/><use xlink:href="#F" x="-208.87" y="-61.46"/><use xlink:href="#D" x="-120.14" y="-9.17"/><use xlink:href="#F" x="-208.87" y="-61.46"/><use xlink:href="#E"/><use xlink:href="#F" x="-208.87" y="-61.46"/><use xlink:href="#H" x="-133.51" y="154.45"/><use xlink:href="#K"/><use xlink:href="#J"/><use xlink:href="#K"/><use xlink:href="#K"/><use xlink:href="#J" x="64.25" y="23.26"/><use xlink:href="#F" x="-208.87" y="-61.46"/><use xlink:href="#J" x="64.25" y="23.26"/><use xlink:href="#H" x="-133.51" y="154.45"/><use xlink:href="#J" x="64.25" y="23.26"/><use xlink:href="#J"/><use xlink:href="#J" x="64.25" y="23.26"/><use xlink:href="#D" x="-120.14" y="-9.17"/><use xlink:href="#J" x="64.25" y="23.26"/><use xlink:href="#J" x="64.25" y="23.26"/><circle cx="101.38" cy="105.9" r="1.38"/><use xlink:href="#K"/><circle cx="101.38" cy="105.9" r="1.38"/><use xlink:href="#F" x="-208.87" y="-61.46"/><circle cx="101.38" cy="105.9" r="1.38"/><use xlink:href="#H" x="-133.51" y="154.45"/><circle cx="101.38" cy="105.9" r="1.38"/><use xlink:href="#J"/><circle cx="101.38" cy="105.9" r="1.38"/><use xlink:href="#J"/><use xlink:href="#L"/><use xlink:href="#F" x="-208.87" y="-61.46"/><use xlink:href="#J" x="103.88" y="-84.63"/><use xlink:href="#H"/><use xlink:href="#J" x="103.88" y="-84.63"/><use xlink:href="#E"/><use xlink:href="#J" x="103.88" y="-84.63"/><use xlink:href="#H"/><use xlink:href="#M"/><use xlink:href="#D" x="23.59" y="-57.1"/><use xlink:href="#M"/><use xlink:href="#D" x="23.59" y="-57.1"/><use xlink:href="#M"/><use xlink:href="#D" x="-8.88" y="-95.09"/><use xlink:href="#M"/><use xlink:href="#C"/><use xlink:href="#M"/><use xlink:href="#C"/><use xlink:href="#M"/><use xlink:href="#J" x="103.88" y="-84.63"/><use xlink:href="#J" x="50.6" y="-90.14"/><use xlink:href="#F" x="-208.87" y="-61.46"/><use xlink:href="#J" x="50.6" y="-90.14"/><use xlink:href="#L"/><use xlink:href="#H" x="-223.79" y="1.73"/><circle cx="101.38" cy="105.9" r="1.38"/><use xlink:href="#H" x="-223.79" y="1.73"/><use xlink:href="#J"/><use xlink:href="#H" x="-223.79" y="1.73"/><use xlink:href="#H" x="-223.79" y="1.73"/><use xlink:href="#L"/><use xlink:href="#J"/><use xlink:href="#K" x="-76.7" y="-26.2"/><use xlink:href="#H" x="-223.79" y="1.73"/><use xlink:href="#K" x="-76.7" y="-26.2"/><circle cx="101.38" cy="105.9" r="1.38"/><use xlink:href="#K" x="-76.7" y="-26.2"/><use xlink:href="#K" x="-76.7" y="-26.2"/><use xlink:href="#K" x="-76.7" y="-26.2"/><use xlink:href="#K"/><use xlink:href="#K" x="-76.7" y="-26.2"/><use xlink:href="#K" x="-76.7" y="-26.2"/><use xlink:href="#H" x="-133.51" y="154.45"/><use xlink:href="#K" x="-76.7" y="-26.2"/><use xlink:href="#K" x="-76.7" y="-26.2"/><use xlink:href="#J"/><use xlink:href="#K" x="-76.7" y="-26.2"/><use xlink:href="#G"/><use xlink:href="#F" x="92.92" y="-46.79"/><use xlink:href="#D" x="23.59" y="-57.1"/><use xlink:href="#F" x="92.92" y="-46.79"/><use xlink:href="#D" x="23.59" y="-57.1"/><use xlink:href="#F" x="92.92" y="-46.79"/><use xlink:href="#F" x="92.92" y="-46.79"/><use xlink:href="#F" x="92.92" y="-46.79"/><use xlink:href="#N"/><use xlink:href="#G"/><use xlink:href="#N"/><use xlink:href="#D" x="23.59" y="-57.1"/><use xlink:href="#N"/><use xlink:href="#D" x="23.59" y="-57.1"/><use xlink:href="#N"/><use xlink:href="#N"/><use xlink:href="#N"/><use xlink:href="#O"/><use xlink:href="#F" x="92.92" y="-46.79"/><use xlink:href="#O"/><use xlink:href="#G"/><use xlink:href="#O"/><use xlink:href="#D" x="23.59" y="-57.1"/><use xlink:href="#O"/><use xlink:href="#D" x="23.59" y="-57.1"/><use xlink:href="#O"/><use xlink:href="#F"/><use xlink:href="#O"/><use xlink:href="#D"/><use xlink:href="#O"/><use xlink:href="#C"/><use xlink:href="#O"/><use xlink:href="#C"/><use xlink:href="#O"/><use xlink:href="#I"/><use xlink:href="#J" x="146.21" y="87.09"/><use xlink:href="#D" x="-85.81" y="25.22"/><use xlink:href="#J" x="146.21" y="87.09"/><use xlink:href="#D" x="-120.14" y="-9.17"/><use xlink:href="#J" x="146.21" y="87.09"/><use xlink:href="#J" x="146.21" y="87.09"/><use xlink:href="#K" x="38.68" y="20.25"/><circle cx="101.38" cy="105.9" r="1.38"/><use xlink:href="#K" x="38.68" y="20.25"/><use xlink:href="#J" x="64.25" y="23.26"/><use xlink:href="#K" x="38.68" y="20.25"/><use xlink:href="#K"/><use xlink:href="#K" x="38.68" y="20.25"/><use xlink:href="#H" x="-133.51" y="154.45"/><use xlink:href="#K" x="38.68" y="20.25"/><use xlink:href="#K" x="38.68" y="20.25"/><use xlink:href="#D" x="-156.84" y="30.68"/><use xlink:href="#J" x="146.21" y="87.09"/><use xlink:href="#D" x="-156.84" y="30.68"/><use xlink:href="#J" x="64.25" y="23.26"/><use xlink:href="#D" x="-156.84" y="30.68"/><use xlink:href="#K"/><use xlink:href="#D" x="-156.84" y="30.68"/><use xlink:href="#F" x="-208.87" y="-61.46"/><use xlink:href="#D" x="-156.84" y="30.68"/><use xlink:href="#H" x="-133.51" y="154.45"/><use xlink:href="#D" x="-156.84" y="30.68"/><use xlink:href="#D" x="-85.81" y="25.22"/><use xlink:href="#D" x="-156.84" y="30.68"/><use xlink:href="#D" x="-120.14" y="-9.17"/><use xlink:href="#D" x="-156.84" y="30.68"/><use xlink:href="#E"/><use xlink:href="#D" x="-156.84" y="30.68"/><use xlink:href="#H" x="-223.79" y="1.73"/><use xlink:href="#P"/><use xlink:href="#J" x="50.6" y="-90.14"/><use xlink:href="#P"/><use xlink:href="#L"/><use xlink:href="#P"/><circle cx="101.38" cy="105.9" r="1.38"/><use xlink:href="#P"/><use xlink:href="#J" x="64.25" y="23.26"/><use xlink:href="#P"/><use xlink:href="#F" x="-208.87" y="-61.46"/><use xlink:href="#P"/><use xlink:href="#J"/><use xlink:href="#P"/><use xlink:href="#H" x="-223.79" y="1.73"/><use xlink:href="#L"/><use xlink:href="#K" x="-76.7" y="-26.2"/><use xlink:href="#K" x="-60.24" y="28.22"/><circle cx="101.38" cy="105.9" r="1.38"/><use xlink:href="#K" x="-60.24" y="28.22"/><use xlink:href="#K"/><use xlink:href="#K" x="-60.24" y="28.22"/><use xlink:href="#H" x="-133.51" y="154.45"/><use xlink:href="#K" x="-60.24" y="28.22"/><use xlink:href="#K" x="-60.24" y="28.22"/><use xlink:href="#O"/><use xlink:href="#Q"/><use xlink:href="#N"/><use xlink:href="#Q"/><use xlink:href="#F" x="92.92" y="-46.79"/><use xlink:href="#Q"/><use xlink:href="#M"/><use xlink:href="#Q"/><use xlink:href="#G"/><use xlink:href="#Q"/><use xlink:href="#D" x="23.59" y="-57.1"/><use xlink:href="#Q"/><use xlink:href="#D" x="23.59" y="-57.1"/><use xlink:href="#Q"/><use xlink:href="#D" x="-8.88" y="-95.09"/><use xlink:href="#Q"/><use xlink:href="#C"/><use xlink:href="#Q"/><use xlink:href="#C"/><use xlink:href="#Q"/><path d="M175.74 76.84l-64.07-28.85.2-.44 64.07 28.85-.2.44zM0 212.57l14.47-13.15-.45-.5L0 211.65v.92z"/><path d="M0 185.66l14.01 13.74.47-.47L0 184.73v.93zm244.18-83.4l-68.42-25.41.17-.46 68.42 25.42-.17.45z"/><path d="M111.627 48.116l.277-.676 132.5 54.261-.277.676zM0 198.96l14.23.51.02-.6L0 198.36v.6z"/><path d="M178.426 71.991l.201-.436 65.729 30.26-.201.436z"/><path d="M175.728 76.548l2.702-4.848.218.122-2.702 4.848z"/><path d="M178.46 72l-66.77-24 .16-.45 66.77 24-.16.45z"/><path d="M178.426 71.991l.201-.436 65.729 30.26-.201.436z"/><path d="M175.728 76.548l2.702-4.848.218.122-2.702 4.848z"/><path d="M178.46 72l-66.77-24 .16-.45 66.77 24-.16.45zM0 191.68l14.16 7.64.16-.3L0 191.3v.38z"/><path d="M14.155 199.541l.168-.721 143.169 33.343-.168.721z"/><path d="M118.58 248.14l-.14-.35 38.91-15.46.14.35-38.91 15.46z"/><path d="M0 191.16l118.35 57.14.32-.67L0 190.33v.83z"/><path d="M118.38 248.25L14.11 199.46l.27-.58 104.26 48.8-.26.57z"/><path d="M118.79 248.07l-.56-.21 37.02-97.15.55.21-37.01 97.15z"/><path d="M155.227 150.824l.52-.013 1.968 81.686-.52.013z"/><path d="M155.101 150.686l23.369-78.944.499.148-23.369 78.944z"/><path d="M155.101 150.686l23.369-78.944.499.148-23.369 78.944z"/><path d="M155.66 151.07l-.28-.51 88.75-48.78.28.51-88.75 48.78z"/><path d="M155.76 150.88l-.48-.13 20.32-74.2.48.14-20.32 74.19z"/><path d="M111.484 47.882l.571-.242 43.76 103.043-.571.242z"/><path d="M14.107 198.79l141.295-48.293.243.71-141.295 48.293z"/><path d="M155.42 151.11L52.13 114.58l.21-.58 103.29 36.53-.21.58z"/><path d="M118.17 248.13L51.9 114.46l.67-.33 66.28 133.67-.68.33z"/><path d="M0 170.66l52.44-56.17-.41-.39L0 169.84v.82z"/><path d="M52.35 114.63l-.23-.66 126.31-42.53.22.66-126.3 42.53z"/><path d="M52.35 114.63l-.23-.66 126.31-42.53.22.66-126.3 42.53z"/><path d="M0 113.72l52.23.91.01-.67L0 113.04v.68z"/><path d="M52.134 113.977L175.74 76.305l.198.65-123.607 37.672z"/><path d="M0 96.06l52.11 18.59.26-.71L0 95.26v.8z"/><path d="M52.44 114.48l-.4-.37 59.53-66.52.4.36-59.53 66.53z"/><path d="M14.5 199.28l-.51-.23 37.99-84.87.51.23-37.99 84.87zm104.1 48.95l-90.35 28.84-.17-.53 90.34-28.84.18.53z"/><path d="M0 326.86l28.41-49.92-.48-.27L0 325.74v1.12z"/><path d="M28.29 277.14l-.24-.67 129.25-44.3.24.67-129.25 44.3z"/><path d="M0 214.57l27.9 62.35.54-.23L0 213.13v1.44z"/><path d="M0 258.25l27.96 18.86.42-.61L0 257.36v.89z"/><path d="M0 279.36l28.19-2.25-.05-.61L0 278.75v.61z"/><path d="M28.42 276.76l-.5.09-13.93-77.64.5-.09 13.93 77.64zM225.28 174.8l-69.84-23.75.16-.46 69.84 23.75-.16.46z"/><path d="M118.352 247.731l106.793-73.479.385.56-106.793 73.479z"/><path d="M157.59 232.71l-.35-.41 67.94-57.93.36.41-67.95 57.93z"/><path d="M225.07 174.7L178.26 71.9l.57-.26 46.82 102.8-.58.26z"/><path d="M225.07 174.7L178.26 71.9l.57-.26 46.82 102.8-.58.26z"/><path d="M225.6 174.63l-.48-.12 18.91-72.54.48.12-18.91 72.54z"/><path d="M175.563 76.764l.553-.28 49.523 97.953-.553.28zM370.33 56.44l-60.7 22"/><path d="M244.141 101.663l126.077-45.54.238.658-126.077 45.54zM1.383 41.293l.444-.307L52.45 114.15l-.444.307z"/><path d="M0 60.3l1.98-19.13-.73-.07L0 53.16v7.14z"/><path d="M111.75 48.08L1.59 41.45l.04-.62 110.16 6.63-.04.62zm197.78-8.03l60.8 16.39"/><path d="M281.863 32.882l.143-.531 88.378 23.813-.143.531z"/><path d="M225.003 174.437l56.625-141.931.715.285-56.625 141.931z"/><path d="M178.435 71.487l103.398-39.174.22.58-103.398 39.174z"/><path d="M178.435 71.487l103.398-39.174.22.58-103.398 39.174z"/><path d="M244.032 101.91l37.71-69.396.448.244-37.71 69.396z"/><path d="M175.96 76.91l-.24-.58 106.11-44 .25.59-106.12 43.99z"/><use xlink:href="#R"/><use xlink:href="#S"/><use xlink:href="#T"/><use xlink:href="#T"/><use xlink:href="#S"/><use xlink:href="#U"/><use xlink:href="#R"/><use xlink:href="#U"/><use xlink:href="#T"/><use xlink:href="#U"/><use xlink:href="#R" x="66.77" y="24"/><use xlink:href="#S"/><use xlink:href="#R" x="66.77" y="24"/><use xlink:href="#R"/><use xlink:href="#R" x="66.77" y="24"/><use xlink:href="#U"/><use xlink:href="#R" x="66.77" y="24"/><use xlink:href="#S"/><use xlink:href="#R" x="66.77" y="24"/><use xlink:href="#R"/><use xlink:href="#R" x="66.77" y="24"/><use xlink:href="#T"/><use xlink:href="#T"/><use xlink:href="#V"/><use xlink:href="#V"/><use xlink:href="#W"/><use xlink:href="#W"/><use xlink:href="#T"/><use xlink:href="#W"/><use xlink:href="#W"/><use xlink:href="#T" x="141.28" y="-48.35"/><use xlink:href="#V"/><use xlink:href="#T" x="141.28" y="-48.35"/><use xlink:href="#R" x="66.77" y="24"/><use xlink:href="#T" x="141.28" y="-48.35"/><use xlink:href="#R" x="66.77" y="24"/><use xlink:href="#T" x="141.28" y="-48.35"/><use xlink:href="#U"/><use xlink:href="#T" x="141.28" y="-48.35"/><use xlink:href="#S"/><use xlink:href="#T" x="141.28" y="-48.35"/><use xlink:href="#R"/><use xlink:href="#T" x="141.28" y="-48.35"/><use xlink:href="#T"/><use xlink:href="#T" x="141.28" y="-48.35"/><use xlink:href="#T" x="141.28" y="-48.35"/><use xlink:href="#X"/><use xlink:href="#W"/><use xlink:href="#X"/><use xlink:href="#X"/><use xlink:href="#R" x="66.77" y="24"/><use xlink:href="#X"/><use xlink:href="#R" x="66.77" y="24"/><use xlink:href="#X"/><use xlink:href="#X"/><use xlink:href="#S"/><use xlink:href="#X"/><use xlink:href="#X"/><use xlink:href="#R"/><use xlink:href="#X"/><use xlink:href="#T"/><use xlink:href="#X"/><use xlink:href="#W"/><use xlink:href="#Y"/><use xlink:href="#Y"/><use xlink:href="#V"/><use xlink:href="#Y"/><use xlink:href="#Y"/><use xlink:href="#Y"/><use xlink:href="#Y"/><use xlink:href="#T"/><use xlink:href="#Y"/><use xlink:href="#T" x="141.28" y="-48.35"/><use xlink:href="#V" x="67.94" y="-57.93"/><use xlink:href="#W"/><use xlink:href="#V" x="67.94" y="-57.93"/><use xlink:href="#V"/><use xlink:href="#V" x="67.94" y="-57.93"/><use xlink:href="#R" x="66.77" y="24"/><use xlink:href="#V" x="67.94" y="-57.93"/><use xlink:href="#R" x="66.77" y="24"/><use xlink:href="#V" x="67.94" y="-57.93"/><use xlink:href="#U"/><use xlink:href="#V" x="67.94" y="-57.93"/><use xlink:href="#S"/><use xlink:href="#V" x="67.94" y="-57.93"/><use xlink:href="#U"/><use xlink:href="#U" x="126.06" y="-45.59"/><use xlink:href="#X"/><use xlink:href="#Z"/><use xlink:href="#Z"/><use xlink:href="#Z"/><use xlink:href="#Z"/><use xlink:href="#R"/><use xlink:href="#Z"/><use xlink:href="#U" x="126.06" y="-45.59"/><use xlink:href="#a"/><use xlink:href="#V" x="67.94" y="-57.93"/><use xlink:href="#a"/><use xlink:href="#R" x="66.77" y="24"/><use xlink:href="#a"/><use xlink:href="#R" x="66.77" y="24"/><use xlink:href="#a"/><use xlink:href="#U"/><use xlink:href="#a"/><use xlink:href="#S"/><use xlink:href="#a"/></g><defs ><path id="B" d="M349.814 76.597l27.699-27.893.206.204-27.699 27.893z"/><path id="C" d="M348.48 76.64a1.39 1.39 0 1 1 1.38 1.36 1.38 1.38 0 0 1-1.38-1.36z"/><path id="D" d="M352.68 105.94a1.39 1.39 0 1 1 1.38 1.38 1.38 1.38 0 0 1-1.38-1.38z"/><path id="E" d="M256.05,70a1.39,1.39,0,1,1,1.38,1.38A1.38,1.38,0,0,1,256.05,70Z"/><path id="F" d="M369.79 119.08a1.39 1.39 0 1 1 1.39 1.38 1.39 1.39 0 0 1-1.39-1.38z"/><path id="G" d="M477.37 61.6a1.38 1.38 0 1 1 1.38 1.4 1.38 1.38 0 0 1-1.38-1.4z"/><path id="H" d="M256.13 39.67a1.39 1.39 0 1 1 1.39 1.39 1.38 1.38 0 0 1-1.39-1.39z"/><path id="I" d="M324,176a1.38,1.38,0,1,1,1.38,1.39A1.38,1.38,0,0,1,324,176Z"/><path id="J" d="M86.21 91.52a1.38 1.38 0 1 1 1.38 1.39 1.38 1.38 0 0 1-1.38-1.39z"/><path id="K" d="M123.16 161.91a1.38 1.38 0 1 1 1.38 1.38 1.38 1.38 0 0 1-1.38-1.38z"/><path id="L" d="M5.64 43.18A1.39 1.39 0 1 1 7 44.57a1.38 1.38 0 0 1-1.36-1.39z"/><path id="M" d="M329.61 2.45A1.39 1.39 0 1 1 331 3.83a1.39 1.39 0 0 1-1.39-1.38z"/><path id="N" d="M449.75 11.61a1.39 1.39 0 1 1 1.38 1.39 1.38 1.38 0 0 1-1.38-1.39z"/><path id="O" d="M423.76 104.53a1.39 1.39 0 1 1 1.39 1.38 1.38 1.38 0 0 1-1.39-1.38z"/><path id="P" d="M93,41.57A1.39,1.39,0,1,1,94.33,43,1.38,1.38,0,0,1,93,41.57Z"/><path id="Q" d="M406.6 14.56A1.39 1.39 0 1 1 408 16a1.38 1.38 0 0 1-1.4-1.44z"/><path id="R" d="M113.83 47.11a2.16 2.16 0 1 1-2.72-1.4 2.16 2.16 0 0 1 2.72 1.4z"/><path id="S" d="M177.9,76a2.16,2.16,0,1,1-2.72-1.4A2.16,2.16,0,0,1,177.9,76Z"/><path id="T" d="M16.3 198.5a2.16 2.16 0 1 1-2.72-1.39 2.16 2.16 0 0 1 2.72 1.39z"/><path id="U" d="M246.33 101.37a2.16 2.16 0 1 1-2.73-1.4 2.16 2.16 0 0 1 2.73 1.4z"/><path id="V" d="M159.48 231.84a2.16 2.16 0 1 1-2.72-1.4 2.15 2.15 0 0 1 2.72 1.4z"/><path id="W" d="M120.57 247.3a2.16 2.16 0 1 1-2.72-1.4 2.17 2.17 0 0 1 2.72 1.4z"/><path id="X" d="M54.3,113.63A2.16,2.16,0,1,1,50.18,115a2.16,2.16,0,0,1,4.12-1.33Z"/><path id="Y" d="M30.23 276.14a2.16 2.16 0 1 1-2.72-1.39 2.15 2.15 0 0 1 2.72 1.39z"/><path id="Z" d="M0 42.58a2.16 2.16 0 1 0 1-3.5 2.13 2.13 0 0 0-1 .62z"/><path id="a" d="M284,32a2.16,2.16,0,1,1-2.73-1.4A2.16,2.16,0,0,1,284,32Z"/></defs></svg>