<svg xmlns="http://www.w3.org/2000/svg" viewBox="0 0 60.78 60.78"><defs><style>.cls-1{fill:#fff;}</style></defs><title>mobile_app_development_in_india</title><g id="Layer_2" data-name="Layer 2"><g id="Layer_1-2" data-name="Layer 1"><path class="cls-1" d="M9.05,15.69h5.66V15c0-3.29,0-6.58,0-9.87A4.9,4.9,0,0,1,19.86,0h25A4.91,4.91,0,0,1,50,5.16V17.94a13.76,13.76,0,0,1,0,26.87V55.57a4.92,4.92,0,0,1-5.22,5.21H20a4.92,4.92,0,0,1-5.26-5.29V41.18h-.6c-1.45,0-2.9,0-4.35,0-.6,0-.83-.18-.92-.73s-.25-1.06-.4-1.64L6.44,40,1.18,34.73l1.17-2c-.68-.17-1.32-.31-1.93-.51a.66.66,0,0,1-.4-.45c0-2.33,0-4.66,0-7l2.36-.62L1.09,22c.41-.39.83-.77,1.23-1.17C3.55,19.6,4.79,18.38,6,17.14a.51.51,0,0,1,.77-.1c.53.35,1.08.65,1.67,1ZM44.1,13.77H20.64V47H44.08V44.77a13.71,13.71,0,0,1-8.31-5.61,13.53,13.53,0,0,1-2.3-9.76H22.59V15.73h19.6v2.8l1.91-.59ZM16.69,50.94H48V45.1H46.06V49H18.67V11.81H46.1v5.83H48V9.84H16.69ZM57.53,36.62a11.73,11.73,0,1,0-20.93,0A5.37,5.37,0,0,1,41,33.34c1.07-.21,2.11-.52,3.17-.78l.18-.28a2.17,2.17,0,0,1-.55-.27,4.69,4.69,0,0,1-1.57-3.22,17.52,17.52,0,0,1,0-2.51,5,5,0,0,1,4.64-4.7,4.85,4.85,0,0,1,5.08,4.25A16.81,16.81,0,0,1,52,28.39a4.86,4.86,0,0,1-1.65,3.69c-.12.11-.22.25-.41.45,1.28.32,2.43.66,3.6.9A5.23,5.23,0,0,1,57.53,36.62ZM48,34.1c0-.77,0-1.49,0-2.2a.93.93,0,0,1,.52-1A2.79,2.79,0,0,0,50,28.33V26.56a3,3,0,0,0-2.65-3A2.89,2.89,0,0,0,44.22,26a14.61,14.61,0,0,0-.1,2.2A3,3,0,0,0,45.71,31a.73.73,0,0,1,.35.43c0,.87,0,1.74,0,2.63l-5.34,1.33a2.94,2.94,0,0,0-2.49,3.15,1.37,1.37,0,0,0,.25.82,11.7,11.7,0,0,0,17.11,0,1.07,1.07,0,0,0,.26-.63,3,3,0,0,0-2.55-3.35ZM48,7.82V5A3,3,0,0,0,45,2H19.79a2.88,2.88,0,0,0-3.07,2.49,31.51,31.51,0,0,0,0,3.37ZM16.67,53c0,1,0,2,0,2.94a2.92,2.92,0,0,0,2.94,2.92H45.1A2.82,2.82,0,0,0,48,56.39,30.14,30.14,0,0,0,48,53ZM40.15,17.69H24.54V27.4a1,1,0,0,0,.2.05c2.94,0,5.88,0,8.82,0,.37,0,.42-.22.5-.47a12.62,12.62,0,0,1,5-6.66,2.28,2.28,0,0,0,1.16-2.54A.43.43,0,0,0,40.15,17.69ZM6.78,19.34l-3.14,3.1.48.8c.18.29.36.59.53.89A1.27,1.27,0,0,1,4,25.75l-2,.51V30.6l2,.51a1.25,1.25,0,0,1,.69,1.65c-.34.58-.69,1.15-1,1.64l3.1,3.13,1.42-.85a1.21,1.21,0,0,1,2,.78c.16.58.3,1.17.44,1.72h4.11V35.06c-3.87.42-6.21-.46-7.74-3a6.45,6.45,0,0,1,0-7.28c1.81-2.78,4.46-3.65,7.68-3V17.67H10.57c-.17.67-.33,1.32-.5,2a1.25,1.25,0,0,1-1.65.69C7.84,20,7.27,19.63,6.78,19.34Zm7.93,9.12c0-1.3,0-2.61,0-3.91a.68.68,0,0,0-.58-.81,4.9,4.9,0,1,0,.12,9.35.56.56,0,0,0,.45-.65C14.69,31.11,14.71,29.79,14.71,28.46Z"/><path class="cls-1" d="M10.78,56.85h-2V56.2c0-2.28,0-4.57,0-6.85a.67.67,0,0,0-.4-.72A2.83,2.83,0,0,1,7,45.33a2.93,2.93,0,0,1,5.67,0,2.85,2.85,0,0,1-1.45,3.31.68.68,0,0,0-.41.71c0,2.26,0,4.53,0,6.79Zm0-10.75a1,1,0,1,0-1.95,0,1,1,0,0,0,1.95,0Z"/><path class="cls-1" d="M53.92,4h2v.66c0,2.26,0,4.52,0,6.79a.71.71,0,0,0,.43.76,2.83,2.83,0,0,1,1.44,3.25,2.92,2.92,0,0,1-5.68,0,2.84,2.84,0,0,1,1.42-3.27.75.75,0,0,0,.45-.81C53.91,8.91,53.92,6.47,53.92,4ZM55.87,14.7a1,1,0,1,0-1,1A1,1,0,0,0,55.87,14.7Z"/><path class="cls-1" d="M55.85,0V1.92H54V0Z"/><path class="cls-1" d="M10.74,60.75H8.86V58.87h1.88Z"/><path class="cls-1" d="M31.34,31.42V33.3H22.6V31.42Z"/><path class="cls-1" d="M31.34,35.34v1.88H22.6V35.34Z"/><path class="cls-1" d="M22.58,41.13V39.25h8.74v1.88Z"/><path class="cls-1" d="M22.58,45.05V43.17h8.74v1.88Z"/><path class="cls-1" d="M34.28,4V5.85H26.52V4Z"/><path class="cls-1" d="M38.2,5.86H36.32V4H38.2Z"/><path class="cls-1" d="M36.25,54.94v1.89H28.48V54.94Z"/><path class="cls-1" d="M20.64,54.92h1.87v1.91H20.64Z"/><path class="cls-1" d="M42.17,56.82V55h1.9v1.87Z"/></g></g></svg>