<svg xmlns="http://www.w3.org/2000/svg" xmlns:xlink="http://www.w3.org/1999/xlink" viewBox="0 0 241.73 281.95"><defs><style>.cls-1{fill:url(#linear-gradient);}.cls-2{fill:url(#linear-gradient-2);}.cls-3{fill:url(#linear-gradient-3);}.cls-4{fill:url(#linear-gradient-4);}.cls-5{fill:url(#linear-gradient-5);}.cls-6{fill:url(#linear-gradient-6);}.cls-7{fill:url(#linear-gradient-7);}.cls-8{fill:url(#linear-gradient-8);}.cls-9{fill:url(#linear-gradient-9);}.cls-10{fill:url(#linear-gradient-10);}</style><linearGradient id="linear-gradient" x1="-85.06" y1="-46.16" x2="305.4" y2="371.88" gradientUnits="userSpaceOnUse"><stop offset="0" stop-color="#657aee"/><stop offset="1" stop-color="#4660ec"/></linearGradient><linearGradient id="linear-gradient-2" x1="117.37" y1="86.82" x2="223.68" y2="292.54" gradientUnits="userSpaceOnUse"><stop offset="0" stop-color="#657aee"/><stop offset="1" stop-color="#a0b6ff"/></linearGradient><linearGradient id="linear-gradient-3" x1="43.46" y1="-2.64" x2="136.93" y2="58.65" xlink:href="#linear-gradient-2"/><linearGradient id="linear-gradient-4" x1="51.27" y1="223.79" x2="163.13" y2="24.58" xlink:href="#linear-gradient"/><linearGradient id="linear-gradient-5" x1="59.09" y1="228.17" x2="170.95" y2="28.97" xlink:href="#linear-gradient"/><linearGradient id="linear-gradient-6" x1="76.24" y1="237.81" x2="188.1" y2="38.6" xlink:href="#linear-gradient"/><linearGradient id="linear-gradient-7" x1="53.08" y1="224.8" x2="164.94" y2="25.6" xlink:href="#linear-gradient"/><linearGradient id="linear-gradient-8" x1="27.63" y1="210.51" x2="139.49" y2="11.31" xlink:href="#linear-gradient"/><linearGradient id="linear-gradient-9" x1="1.92" y1="196.07" x2="113.78" y2="-3.13" xlink:href="#linear-gradient"/><linearGradient id="linear-gradient-10" x1="73.2" y1="236.1" x2="185.06" y2="36.89" xlink:href="#linear-gradient"/></defs><title>planning</title><g id="Layer_2" data-name="Layer 2"><g id="Layer_1-2" data-name="Layer 1"><path class="cls-1" d="M130.52,242.54q35.35-43.8,70.47-87.81,18.15-22.65,36.34-45.3c3.77-4.68,5.33-9.84,3.83-15.66a15.88,15.88,0,0,0-12.51-12.2c-7.15-1.64-12.94.89-17.48,6.56-29.77,37.16-59.33,74.5-89.44,111.39C109.19,214.88,97.59,230.64,90,249.06c-.79,1.92-2,2.42-4,2.4-18-.08-36,0-54,0-4,0-4.14-.21-4.14-4.24q0-101.48,0-202.93V41.32H55C56.2,51.89,58.82,54.2,69.29,54.2H142a35.38,35.38,0,0,0,3.57-.11,10,10,0,0,0,9-8c.34-1.58.41-3.22.6-4.83H182.1v3.17q0,28.77,0,57.54a12.69,12.69,0,0,0,.27,3.27,3.73,3.73,0,0,0,4.07,3,3.78,3.78,0,0,0,3.84-3.61,22.74,22.74,0,0,0,.07-2.74V41.07c2.15,0,4-.06,5.77,0,3.92.14,5.66,1.92,5.68,5.86,0,6.14,0,12.29,0,18.44,0,4.68-.16,9.37.11,14a5.23,5.23,0,0,0,2.25,3.66,4.28,4.28,0,0,0,4-.25A6.31,6.31,0,0,0,210,78.58c.15-10.19.08-20.38.08-30.56S205,32.81,194.83,32.81q-19,0-38,0a2.88,2.88,0,0,1-3.2-2.12c-2.92-7-8.26-10.78-15.94-11-2-.06-4,0-6.06,0-3.82,0-4.28-.44-4.61-4.15a15.6,15.6,0,0,0-6.38-11.7c-2.23-1.63-5-2.58-7.47-3.84h-16C88.56,2.53,83.37,7.9,82.86,17.22c-.1,1.83-1.45,2.42-3.08,2.45-2.57,0-5.14-.06-7.71,0-7.43.31-12.67,4-15.52,10.77A3.24,3.24,0,0,1,53,32.84q-19.12-.12-38.27,0C5.25,32.84,0,38.06,0,47.49Q0,157.33,0,267.21C0,276.73,5.33,281.94,14.9,282H195.25c9.53,0,14.82-5.28,14.83-14.81q0-50.81,0-101.59a14,14,0,0,0-.1-2.75c-.44-2-1.82-3.55-3.81-3.24a7.68,7.68,0,0,0-4,2.65c-.58.66-.33,2.11-.33,3.2q0,50.52,0,101c0,5.88-1.39,7.25-7.33,7.25h-179c-.92,0-2,.3-2.72-.09a11.6,11.6,0,0,1-4.07-3.2c-.7-1.07-.45-2.84-.45-4.29q0-107.52-.07-215c0-9.78,1.43-10.4,10.68-9.9.16,0,.31.16.74.38v3.37q0,101.32,0,202.65c0,8.31,3.8,12.11,12.1,12.12q26.16,0,52.32,0c1.59,0,2.57.18,3.25,2a9.63,9.63,0,0,0,14.93,4.53,61.46,61.46,0,0,0,5.58-4.48,7.85,7.85,0,0,1,5.7-2.07c21.57.09,43.14.05,64.7.05,8.42,0,12.15-3.68,12.15-12v-43c0-5.41,0-10.83,0-16.24,0-2.84-1.61-4.55-4-4.57s-4,1.67-4.2,4.47c0,.74,0,1.47,0,2.21v57c0,3.58-.22,3.82-3.67,3.82q-27.52,0-55.07,0a17.21,17.21,0,0,1-2.06-.24C124.55,248.16,128,245.7,130.52,242.54Zm-67-206A8.75,8.75,0,0,1,72.18,28c2.47-.09,4.95,0,7.42,0,6.92-.13,11.07-4.08,11.57-11a8.89,8.89,0,0,1,8.9-8.68c3.3-.07,6.61-.07,9.91,0a8.79,8.79,0,0,1,8.82,8.13c.91,8.16,4.63,11.52,12.76,11.55,1.93,0,3.85,0,5.78,0,5.47.13,9.07,3.67,9.31,9.15.06,1.37,0,2.75,0,4.13,0,4.5-.2,4.71-4.59,4.71q-18.45,0-36.88,0-18.85,0-37.7,0c-3.67,0-4-.31-4-3.87C63.49,40.24,63.46,38.4,63.54,36.57ZM219.43,91.46c2.87-3.15,8.08-2.74,11.24.14a8.51,8.51,0,0,1,1.22,11.24c-4.09,5.4-8.42,10.61-12.79,16.08l-13.46-10.77C210.25,102.52,214.6,96.77,219.43,91.46ZM100.87,256.73a42.37,42.37,0,0,1-3.47,2.69,1.84,1.84,0,0,1-1.7.07c-.44-.41-.51-1.22-.69-1.87-.05-.15.08-.36.16-.52,4.11-8.25,8.23-16.5,12.53-25.12,4.12,3.32,7.89,6.33,11.9,9.56Zm11.25-31.79,88.39-110.3c4.46,3.57,8.81,7,13.42,10.72l-88.4,110.3C121.09,232.12,116.73,228.64,112.12,224.94Z"/><path class="cls-2" d="M213.93,125.36l-88.4,110.3c-4.44-3.54-8.8-7-13.41-10.72l88.39-110.3C205,118.21,209.32,121.69,213.93,125.36Z"/><path class="cls-3" d="M146.66,41.23c0,4.5-.2,4.71-4.59,4.71q-18.45,0-36.88,0-18.85,0-37.7,0c-3.67,0-4-.31-4-3.87,0-1.83,0-3.67,0-5.5A8.75,8.75,0,0,1,72.18,28c2.47-.09,4.95,0,7.42,0,6.92-.13,11.07-4.08,11.57-11a8.89,8.89,0,0,1,8.9-8.68c3.3-.07,6.61-.07,9.91,0a8.79,8.79,0,0,1,8.82,8.13c.91,8.16,4.63,11.52,12.76,11.55,1.93,0,3.85,0,5.78,0,5.47.13,9.07,3.67,9.31,9.15C146.71,38.47,146.66,39.85,146.66,41.23Z"/><path class="cls-4" d="M130.73,86c-9.44,0-18.88,0-28.32,0-3.36,0-5.27-2.06-4.67-4.91.54-2.5,2.41-3.3,4.72-3.32,3.85,0,7.7,0,11.55,0h43.17c.74,0,1.47,0,2.2,0,3,.14,4.83,1.78,4.82,4.19s-1.85,4-4.87,4C149.8,86.06,140.27,86,130.73,86Z"/><path class="cls-5" d="M131,96.23c9.44,0,18.88,0,28.32,0,3,0,4.84,1.63,4.84,4.07s-1.88,4-4.85,4.16c-.73,0-1.46,0-2.2,0h-47c-2.47,0-4.95,0-7.42,0-3.28-.06-5-1.54-5-4.16s1.69-4.07,5-4.08C112.16,96.21,121.6,96.23,131,96.23Z"/><path class="cls-6" d="M130.75,145.14q-13.47,0-26.94,0a12.69,12.69,0,0,1-3.27-.3,3.69,3.69,0,0,1-2.86-4.14,3.64,3.64,0,0,1,3.13-3.64,13.06,13.06,0,0,1,2.73-.17h54.72a13.2,13.2,0,0,1,2.74.17c2.08.43,3.42,2,3.06,3.9-.28,1.43-1.65,2.84-2.88,3.83-.71.57-2.11.34-3.21.35Q144.37,145.16,130.75,145.14Z"/><path class="cls-7" d="M61.25,216,70,203.57c1.42-2,2.78-4.1,4.26-6.07S78.08,195,80,196.23s2.48,3.76.92,6c-4.4,6.41-8.82,12.82-13.38,19.12a7.39,7.39,0,0,1-11.11,1.4c-3-2.51-5.93-5.17-8.83-7.83-2-1.88-2.25-4.31-.68-6.07s4-1.87,6.11-.08C55.75,211.11,58.4,213.5,61.25,216Z"/><path class="cls-8" d="M61.26,156.51c4-5.73,7.92-11.34,11.85-16.95,2.47-3.54,4.55-4.4,6.88-2.86s2.39,4-.12,7.62C76,149.87,72.12,155.43,68.21,161c-3.48,4.94-8.1,5.51-12.59,1.59-2.62-2.29-5.24-4.59-7.81-6.93-2.19-2-2.5-4.43-.89-6.27s4.09-1.83,6.32.08C55.88,151.71,58.46,154,61.26,156.51Z"/><path class="cls-9" d="M61.25,96.18,72.76,79.74c.48-.68.92-1.38,1.43-2,1.71-2.18,4-2.64,6-1.21s2.23,3.69.77,5.87c-2.34,3.5-4.81,6.92-7.23,10.38-2,2.85-3.93,5.76-6,8.55-3,4-7.7,4.62-11.53,1.41-2.95-2.47-5.8-5.06-8.63-7.68-2-1.87-2.18-4.33-.57-6.08s3.93-1.85,6.12,0C55.75,91.23,58.32,93.59,61.25,96.18Z"/><path class="cls-10" d="M116.41,155.22c4.58,0,9.16,0,13.74,0,3,0,4.84,1.6,4.87,4s-1.86,4.16-4.8,4.17q-13.87.07-27.76,0c-3,0-4.78-1.58-4.8-4.11s1.68-4.09,4.73-4.12C107.06,155.19,111.74,155.23,116.41,155.22Z"/></g></g></svg>