<svg xmlns="http://www.w3.org/2000/svg" viewBox="0 0 46.88 51.41"><defs><style>.cls-1{isolation:isolate;}.cls-2{opacity:0.17;mix-blend-mode:multiply;}.cls-3{fill:#fff;}</style></defs><title>thirdeye</title><g class="cls-1"><g id="Layer_2" data-name="Layer 2"><g id="Layer_1-2" data-name="Layer 1"><g class="cls-2"><path d="M22.83,3.39A40.8,40.8,0,0,0,8.6,24.87a39.88,39.88,0,0,0-.68,16.8.74.74,0,0,1-1.38.48,48.28,48.28,0,0,1-6-25A.74.74,0,0,1,.7,16.7,45.59,45.59,0,0,1,22.14,2.1.74.74,0,0,1,22.83,3.39Z"/></g><path class="cls-3" d="M22.33,2.89A40.8,40.8,0,0,0,8.1,24.37a39.88,39.88,0,0,0-.68,16.8A.74.74,0,0,1,6,41.65a48.28,48.28,0,0,1-6-25A.74.74,0,0,1,.2,16.2,45.59,45.59,0,0,1,21.64,1.6.74.74,0,0,1,22.33,2.89Z"/><g class="cls-2"><path d="M46.88,37.32a.71.71,0,0,1-.33.64A90.79,90.79,0,0,1,31.44,46a91,91,0,0,1-17.53,5.35.72.72,0,0,1-.82-.44,39.79,39.79,0,0,1-2.61-19.79A40.49,40.49,0,0,1,22.39,7.55a.67.67,0,0,1,.52-.2L29.27,5a.75.75,0,0,1,.52,1.27,116.72,116.72,0,0,0-8.5,10c-1.22,1.8-2.62,3.87-3.92,6.22,0,0,0,.07,0,.11a2.81,2.81,0,0,0,5.56.52.73.73,0,0,1,1.29-.22,6.43,6.43,0,0,1,1.17,4.28,5.68,5.68,0,0,1-10.86,1.55,26,26,0,0,0,.17,18,.73.73,0,0,0,.94.44,39.18,39.18,0,0,0,15.65-10.3c6.81-7.4,7.91-19.33,8.7-24.59a.94.94,0,0,1,1.83-.15c.82,2.59,2.79,9,3.43,12.13A81.49,81.49,0,0,1,46.88,37.32Z"/></g><path class="cls-3" d="M46.38,36.82a.71.71,0,0,1-.33.64,90.79,90.79,0,0,1-15.11,8.08,91,91,0,0,1-17.53,5.35.72.72,0,0,1-.82-.44A39.79,39.79,0,0,1,10,30.66,40.49,40.49,0,0,1,21.89,7.05a.67.67,0,0,1,.52-.2l6.36-2.31a.75.75,0,0,1,.52,1.27,116.72,116.72,0,0,0-8.5,10c-1.22,1.8-2.62,3.87-3.92,6.22,0,0,0,.07,0,.11a2.81,2.81,0,0,0,5.56.52.73.73,0,0,1,1.29-.22,6.43,6.43,0,0,1,1.17,4.28,5.68,5.68,0,0,1-10.86,1.55,26,26,0,0,0,.17,18,.73.73,0,0,0,.94.44,39.18,39.18,0,0,0,15.65-10.3c6.81-7.4,7.91-19.33,8.7-24.59a.94.94,0,0,1,1.83-.15c.82,2.59,2.79,9,3.43,12.13A81.49,81.49,0,0,1,46.38,36.82Z"/><g class="cls-2"><path d="M24.69,39.28a31.87,31.87,0,0,1-7,4.71.74.74,0,0,1-1-.28v0a.75.75,0,0,1,.31-1,27.59,27.59,0,0,0,5-3.31,30.52,30.52,0,0,0,8.51-12.16,39.71,39.71,0,0,0,3.37-14A38.41,38.41,0,0,0,33,2.6a.82.82,0,0,1,0-.44L33.46,1a.74.74,0,0,1,1.33-.1l.73,1.23.91,1.55a.72.72,0,0,1,.11.32C36.88,8.29,37.92,27.55,24.69,39.28Z"/></g><path class="cls-3" d="M24.19,38.78a31.87,31.87,0,0,1-7,4.71.74.74,0,0,1-1-.28v0a.75.75,0,0,1,.31-1,27.59,27.59,0,0,0,5-3.31A30.52,30.52,0,0,0,30,26.67a39.71,39.71,0,0,0,3.37-14A38.41,38.41,0,0,0,32.46,2.1a.82.82,0,0,1,0-.44L33,.47a.74.74,0,0,1,1.33-.1L35,1.6l.91,1.55a.72.72,0,0,1,.11.32C36.38,7.79,37.42,27.05,24.19,38.78Z"/></g></g></g></svg>