<svg xmlns="http://www.w3.org/2000/svg" xmlns:xlink="http://www.w3.org/1999/xlink" viewBox="0 0 652.73 402.8" xmlns:v="https://vecta.io/nano"><style><![CDATA[.S{fill:#1a2e35}.T{fill:#5d8cfd}.U{fill:#375a64}.V{fill:#e1e1e1}.W{fill:#ffc19d}.X{fill:#fafafa}.Y{opacity:.3}.Z{fill:#ff9c6a}.a{fill:#3663fd}]]></style><g class="V"><path d="M167.54,43.4H124.63V.49h42.91Zm-42-.93h41.05v-41H125.56Z"/><path d="M167.07 1c.1.09-9.22 9.56-20.81 21.15l-21.17 20.78c-.1-.07 9.23-9.56 20.82-21.16L167.07 1z"/><path d="M164.89 43.2a2.68 2.68 0 0 1-.37-.44l-1-1.31-3.69-4.82c-3.14-4-7.63-9.51-12.93-15.26s-10.4-10.65-14.17-14.11l-4.51-4-1.23-1.11c-.32-.29-.42-.39-.41-.41a3.51 3.51 0 0 1 .47.34l1.29 1L133 7a207.64 207.64 0 0 1 14.31 14 200.26 200.26 0 0 1 12.79 15.42 110.7 110.7 0 0 1 3.57 4.92l.93 1.37a1.82 1.82 0 0 1 .29.49zm470.37 115.89h-42.91v-42.91h42.91zm-42-.93h41.05v-41h-41.03z"/><path d="M634.8 116.64c.09.1-9.23 9.57-20.82 21.16l-21.16 20.82c-.09-.1 9.22-9.57 20.82-21.16l21.16-20.82z"/><path d="M632.62 158.89a2.39 2.39 0 0 1-.38-.44l-1-1.31-3.68-4.82c-3.15-4-7.64-9.51-12.93-15.26s-10.4-10.65-14.18-14.11l-4.51-4.06-1.23-1.1a2.57 2.57 0 0 1-.4-.41 2.62 2.62 0 0 1 .47.34l1.28 1c1.12.9 2.7 2.25 4.62 4 3.84 3.39 9 8.28 14.3 14s9.77 11.28 12.85 15.38a103.58 103.58 0 0 1 3.56 4.92l.93 1.36a3 3 0 0 1 .3.51zM49.18 225H6.27v-42.9h42.91zm-42-.93h41V183h-41z"/><path d="M48.72 182.51c.09.1-9.23 9.57-20.82 21.16L6.74 224.49c-.1-.09 9.22-9.57 20.82-21.16l21.16-20.82z"/><path d="M46.54 224.76a3 3 0 0 1-.38-.44l-1-1.31-3.68-4.82c-3.15-4-7.64-9.52-12.93-15.26s-10.4-10.65-14.18-14.11l-4.51-4.06-1.23-1.1a3.22 3.22 0 0 1-.4-.41 2.81 2.81 0 0 1 .47.33l1.28 1c1.12.9 2.7 2.25 4.62 3.95 3.84 3.39 9 8.28 14.31 14s9.76 11.35 12.84 15.47c1.54 2.05 2.76 3.73 3.57 4.92l.92 1.36a3 3 0 0 1 .3.48zm520.8 84.48a31.93 31.93 0 0 0-13.64-4.7c-2.23-.23-4.67-.16-6.46 1.19a1.32 1.32 0 0 0-.66 1.18 1.41 1.41 0 0 0 .63.8 19.51 19.51 0 0 0 20.13 1.53m-.34-.39a67 67 0 0 1-8.81-7.75 22.37 22.37 0 0 1-5.53-10.22 4.13 4.13 0 0 1 .44-3.42c7 5.49 12.55 12.58 13.9 21.39m.27.34a32 32 0 0 1 .16-11.58 15.66 15.66 0 0 1 6.17-9.54c1.21 2.83.69 6.1-.16 9.07a44.28 44.28 0 0 1-6.12 12.86m6.84 11.53c-4.18.5-7.82 2.71-10.95 5.54a20.59 20.59 0 0 0-6.21 10.74c4.1-.25 7.58-3.14 10.1-6.39s4.27-6.8 7-9.83m1.55 1.91a27 27 0 0 1 3.12-25.5c2.38 8.47 1.51 18-3.12 25.53m9.1 10.81a19.51 19.51 0 0 0-18.66 10.74c-.23.46-.43 1.05-.12 1.46a1.38 1.38 0 0 0 1.23.37c3.68-.24 6.94-2.46 9.63-5s5-5.43 8-7.6m-.37-.56a34.77 34.77 0 0 1-.34-19.42c.68-2.5 1.83-5.13 4.14-6.3a.64.64 0 0 1 1 .35 11.55 11.55 0 0 1 1 5.57 34.8 34.8 0 0 1-.87 5.64c-.73 3.45-1.12 7.15-3 10.12a22.72 22.72 0 0 0-1.2 2.23c-.36.75-.36 1-.69 1.62m24.05 3.77c-1.78-6.78.11-15 4.39-20.58.31-.41.73-.85 1.25-.8.78.07 1 1.12.95 1.91a37.14 37.14 0 0 1-6.59 19.47m2.17 1.49a29.92 29.92 0 0 0 24.57-5 19.87 19.87 0 0 0-13.3-1.63c-4.44 1-8.5 3-11.27 6.63m1.83-4.52c4.62-7.53 13.48-12.45 22.3-12.89-1 3.58-4 6.37-7.29 8.06a40.66 40.66 0 0 1-10.7 3.13c-1.43.28-3.38.58-4.31 1.7M609 312.37a64.69 64.69 0 0 0 2.85-13.06 21.7 21.7 0 0 0-2.6-12.92c-4.31 8.35-4.75 18.11-.38 26.42"/><path d="M623.54 305c5-9.18 15.34-16.5 25.75-17.53-4 10-15 17.74-25.75 17.53m-3.18 1.82c7.53 1.15 13.94 5.95 21 8.87a9.45 9.45 0 0 0 4.74.91 3.71 3.71 0 0 0 2.32-6.57 10.16 10.16 0 0 0-3.44-2.09c-7.66-3.19-15.87-3.27-23.94-1.33M616 312.1c1.7.49 2.28 1.37 3.63 2.52a39.24 39.24 0 0 0 15.9 8.17c.61.15 1.41.21 1.71-.34s-.07-1.06-.41-1.49a21.94 21.94 0 0 0-9.6-6.52c-3.67-1.36-6.85-3-11.23-2.66m-4.91-31.56a30 30 0 0 0 23.07 7.85 1.53 1.53 0 0 0 1.05-.37c.59-.64-.11-1.61-.79-2.14-6.78-5.29-15-7.48-23.33-5.34m5.83-2.13a32.18 32.18 0 0 1 28.79-4.75 22.85 22.85 0 0 1-13.72 6 43.31 43.31 0 0 1-15.07-1.27m-2.32-14.63c-.66-6.77-.23-12.11-.7-18.91 0-.55-.15-1.2-.66-1.39-.71-.28-1.3.59-1.53 1.31a21.69 21.69 0 0 0 2.88 18.85"/><path d="M614.12 264.19a39.7 39.7 0 0 0 11.21-10.9c2.22-3 4.08-6.66 3.58-10.38a10.72 10.72 0 0 0-8.09 4 22.62 22.62 0 0 0-4.12 8.3c-.9 3-1.53 6-2.58 9m11.02-3.08a90.25 90.25 0 0 0 27.59-16.27c-3.29-1.33-7.07-.54-10.36.79A32.71 32.71 0 0 0 625 261.06"/><path d="M617.22 267.9c5.09.55 10.27.92 15.32.07s9.66-2.8 14.31-4.75a1.7 1.7 0 0 0 1-.74 1.13 1.13 0 0 0-.35-1.23 3 3 0 0 0-1.22-.57c-5-1.41-10.49-.75-15.46.93a70.81 70.81 0 0 0-13.57 6.29m-29.13 12.56c-3.47-7-3.25-15.21-.24-22.44 2.11 3.22 2.37 7.32 2 11.15s-1.55 7.78-1.63 11.63m-14.01-7.35a31.28 31.28 0 0 0-23.24 9.91 21.76 21.76 0 0 0 12.72-2.36 65.15 65.15 0 0 0 10.91-7.31m-9.73-3.36c-4.24-.34-8.33-.87-12.41.38a14.88 14.88 0 0 0-9.46 8 22.51 22.51 0 0 0 11.64-2.19 66.73 66.73 0 0 0 10.23-6.21m13.83.16c-3.82-2.5-7.75-5.05-12.19-6.09s-9.6-.27-12.7 3.09c3.6 2.11 8 2.36 12.14 2.35s9.29-.05 13.22 1.35"/><path d="M578.75 270.67c-6.53-6.41-9-17.93-6.38-26.69a40.71 40.71 0 0 1 6.38 26.69m17.95-18.16c1.23-2.87 2.1-5.87 3.2-8.78a25.22 25.22 0 0 1 4.57-8.1 12 12 0 0 1 8.09-4.19 32.57 32.57 0 0 1-15.7 21.11m-3.41 3.74c-2-2.8-4.39-6.61-7.15-8.7s-6.36-3.36-9.74-2.56a22.68 22.68 0 0 0 16.89 11.26m.65-3.55a48.61 48.61 0 0 1-3.22-10.43 16.31 16.31 0 0 1 1.63-10.61c3.59 6.78 4.74 14.05 1.78 21.12"/><path d="M596.74 231.7c2-6.71 8.18-11.66 14.82-13.93a5.64 5.64 0 0 1 2.59-.39 2.25 2.25 0 0 1 1.92 1.6c.24 1.14-.7 2.17-1.59 2.93a50.48 50.48 0 0 1-17.74 9.79m.07-5.49c.26-4.33.53-8.72 1.94-12.83s4.12-7.95 8.07-9.75c.67 4.38-1.26 8.73-3.59 12.49s-5.13 7.32-6.53 11.52m0 1.55c-1.68-4.89-1.85-11.11-4.78-15.38-2-3-5.33-5-7.1-8.16a12.42 12.42 0 0 0 .42 9.27 26.68 26.68 0 0 0 5.42 7.76c2.17 2.32 4 4.06 6 6.51"/><path d="M596.74 373.34c-.14 0-.25-32.65-.26-72.92l.22-72.94c.13 0 .25 32.65.25 72.94l-.21 72.92z"/><path d="M625.27 275.53a7.51 7.51 0 0 1-1.27.47l-3.38 1.14c-2.84 1-6.76 2.37-11 4.12s-8.17 3.26-10.43 5.22a7.66 7.66 0 0 0-2.09 2.77c-.33.77-.38 1.24-.43 1.23a1.1 1.1 0 0 1 0-.34 4.34 4.34 0 0 1 .24-.95 7.25 7.25 0 0 1 2-3 18.73 18.73 0 0 1 4.53-2.81c1.81-.84 3.81-1.73 6-2.6 4.26-1.75 8.2-3.11 11.08-4a93.79 93.79 0 0 1 3.43-1 7.18 7.18 0 0 1 1.32-.25z"/><path d="M634.62 252.55s-.1.14-.34.37l-1 1-3.91 3.56-13 11.59c-5.08 4.52-9.47 8.85-12.52 12.1l-3.54 3.91-1 1.08a2.07 2.07 0 0 1-.35.36 2.11 2.11 0 0 1 .28-.42c.2-.26.49-.65.88-1.13.78-1 1.94-2.37 3.44-4A161.53 161.53 0 0 1 616 268.7l13.11-11.49 4-3.44 1.11-.92a2 2 0 0 1 .4-.3z"/><path d="M610.81 273.65c-.13-.06.93-2.51 2-5.61l1.71-5.69a19.32 19.32 0 0 1-1.26 5.84 38.18 38.18 0 0 1-1.58 3.93 6.16 6.16 0 0 1-.87 1.53zm-14.05 19.76a6.21 6.21 0 0 1-.78-.9l-2-2.58-6.63-8.47-6.75-8.38-2.05-2.54a5.4 5.4 0 0 1-.71-1 6.53 6.53 0 0 1 .85.85l2.16 2.44c1.81 2.09 4.25 5 6.87 8.3s4.9 6.34 6.52 8.57c.81 1.12 1.46 2 1.89 2.67a5.83 5.83 0 0 1 .63 1.04z"/><path d="M590.51 285.38a11.37 11.37 0 0 1-2.62-4.9 14 14 0 0 1-.6-5h.21c-.09.38-.16.58-.2.58a1.49 1.49 0 0 1 0-.61h.21a22.65 22.65 0 0 0 .84 4.81 34.71 34.71 0 0 0 2.16 5.12zm-8.08-10.16a8.74 8.74 0 0 0-1.83-1.06 12.31 12.31 0 0 0-5.08-.41 31.25 31.25 0 0 0-5.12.83 17.68 17.68 0 0 1-2.1.51 7.24 7.24 0 0 1 2-.83 23.09 23.09 0 0 1 5.17-1 11.12 11.12 0 0 1 5.25.57 3.26 3.26 0 0 1 1.71 1.39zm-1.91-2.46c0 .07-1.07-.43-2.81-1a28.25 28.25 0 0 0-14.13-1.08l-2.92.59c-.02-.07.25-.15.74-.32a18.57 18.57 0 0 1 2.12-.6 25.1 25.1 0 0 1 14.31 1.09 20 20 0 0 1 2 .91 2.78 2.78 0 0 1 .69.41zm16.18-10.41a59.47 59.47 0 0 1-2-7.11 55.59 55.59 0 0 1-1.59-7.22 58.31 58.31 0 0 1 2 7.11 56.47 56.47 0 0 1 1.59 7.22z"/><path d="M596.83 262.35a34.57 34.57 0 0 0-2.26-4.26 18.69 18.69 0 0 0-3.34-3.44 3.16 3.16 0 0 1 1.29.67 10.19 10.19 0 0 1 2.43 2.5 9.3 9.3 0 0 1 1.88 4.53zm-.09 93.58c-.06 0-.15-.78-.52-2.17a31 31 0 0 0-2.18-5.65 78.16 78.16 0 0 0-11.58-16.31c-2.58-2.95-5.09-5.74-7.22-8.41a58.65 58.65 0 0 1-5.16-7.45 35.18 35.18 0 0 1-2.61-5.52c-.24-.68-.42-1.21-.51-1.58a2.88 2.88 0 0 1-.14-.57s.28.75.82 2.08a41 41 0 0 0 2.72 5.43 63.94 63.94 0 0 0 5.22 7.34c2.14 2.64 4.65 5.41 7.24 8.37 5.23 5.87 9.32 11.79 11.52 16.47a28.48 28.48 0 0 1 2.06 5.76c.15.71.25 1.26.29 1.64a4.76 4.76 0 0 1 .05.57z"/><path d="M622.52 326.81a13.82 13.82 0 0 1-1.35.76 29.49 29.49 0 0 0-3.51 2.31 40.76 40.76 0 0 0-4.6 4.2l-5 5.82c-3.39 4.26-6.57 8-8.47 11-1 1.49-1.67 2.75-2.13 3.63a11.7 11.7 0 0 1-.74 1.36s0-.13.12-.38.24-.61.45-1.06a37.93 37.93 0 0 1 2-3.73 123.36 123.36 0 0 1 8.39-11.16c1.71-2.13 3.39-4.11 5-5.82a37 37 0 0 1 4.71-4.16 24.28 24.28 0 0 1 3.62-2.21c.45-.23.82-.37 1.06-.47s.44-.11.45-.09z"/><path d="M623 336.26a19.82 19.82 0 0 1-2.86.41 37.46 37.46 0 0 0-6.78 1.34 20.35 20.35 0 0 0-6.06 3.18c-1.4 1.08-2.06 2-2.12 1.92s.11-.26.42-.66a11.31 11.31 0 0 1 1.49-1.52 18.36 18.36 0 0 1 6.13-3.37 30.5 30.5 0 0 1 6.89-1.22 15.62 15.62 0 0 1 2.89-.08z"/><path d="M606 342.07c-.15-.08 1.14-2.05 2.14-4.69s1.15-5 1.32-5a4.45 4.45 0 0 1 0 1.53 16 16 0 0 1-.83 3.61 17.15 17.15 0 0 1-1.66 3.31c-.52.82-.88 1.28-.97 1.24zm24.87-40.63a1.81 1.81 0 0 1-.46.25l-1.34.61-2.1 1-2.73 1.44-1.56.88-1.64 1c-1.15.69-2.3 1.55-3.53 2.43a60.47 60.47 0 0 0-13.59 14.06l-2.31 3.61-1 1.68-.83 1.58c-.56 1-.95 2-1.34 2.78s-.69 1.54-.92 2.14l-.57 1.36a3 3 0 0 1-.22.47 1.81 1.81 0 0 1 .13-.5l.49-1.4a21.53 21.53 0 0 1 .85-2.18l1.28-2.82.81-1.61c.29-.56.63-1.11 1-1.7.65-1.19 1.46-2.38 2.29-3.66a65.66 65.66 0 0 1 6.24-7.66 63.37 63.37 0 0 1 7.45-6.5l3.58-2.41 1.66-1 1.59-.87c1-.57 1.95-1 2.77-1.38a22.93 22.93 0 0 1 2.15-.92l1.38-.53a2.74 2.74 0 0 1 .47-.15z"/><path d="M610.46 315.12a3.3 3.3 0 0 1 1.13-1.67 7.09 7.09 0 0 1 4.52-1.74 12.42 12.42 0 0 1 4.76.93 6.67 6.67 0 0 1 1.79.87 10.73 10.73 0 0 1-1.9-.55 14.24 14.24 0 0 0-4.64-.78 7.4 7.4 0 0 0-4.32 1.52 13.43 13.43 0 0 0-1.34 1.42zm-3.05 3.14a12 12 0 0 0 1-8.53c.05 0 .31.42.53 1.21a8.72 8.72 0 0 1 .23 3.2 8.55 8.55 0 0 1-1 3.06c-.36.72-.71 1.1-.76 1.06zm-33.23 42.35c.71 12.48 4.47 25.17 10.25 38h25.15c5.52-12.7 9-25.37 9.64-38z"/></g><g class="X"><path d="M615.15 380.81c0 .13-8.29.23-18.5.23s-18.5-.1-18.5-.23 8.28-.24 18.5-.24l18.5.24zm-.57 4.52c0 .13-7.76.23-17.33.23s-17.34-.1-17.34-.23 7.76-.24 17.34-.24l17.33.24z"/><path d="M584.84 368.81a73 73 0 0 1 0 11.58 70 70 0 0 1 0-11.58zm13.47 0a75.12 75.12 0 0 1 0 12 78.38 78.38 0 0 1 0-12zm12.69-.11a78.15 78.15 0 0 1 0 12.24 81.54 81.54 0 0 1 0-12.24z"/><path d="M618.42 368.81c0 .13-9.71.23-21.69.23s-21.69-.1-21.69-.23 9.71-.24 21.69-.24l21.69.24z"/></g><g class="V"><path d="M601.79 68.24h-6.86v-1.38h6.86zm-13.73 0h-6.87v-1.38h6.87zm-13.74 0h-6.87v-1.38h6.87zm-13.74 0h-6.86v-1.38h6.86zm41.9-1.52h-1.37v-6.87h1.37zM549 66h-1.37v-6.83H549zm53.48-13h-1.37v-6.88h1.37zM549 52.3h-1.37v-6.87H549zm53.44-13h-1.37v-6.92h1.37zM549 38.56h-1.37V31.7H549zm53.44-13h-1.37v-6.92h1.37zM549 24.83h-1.37V18H549zm50.42-10h-6.87v-1.4h6.87zm-13.74 0h-6.87v-1.4h6.87zM572 14.8h-6.86v-1.37H572zm-13.73 0h-6.87v-1.37h6.87z"/><path d="M548.82 19.85a5.06 5.06 0 1 1 5-5.06 5.07 5.07 0 0 1-5 5.06zm0-8.74a3.68 3.68 0 1 0 3.68 3.68 3.69 3.69 0 0 0-3.68-3.68zm52.7 8.74a5.06 5.06 0 1 1 5.05-5.06 5.07 5.07 0 0 1-5.05 5.06zm0-8.74a3.68 3.68 0 1 0 3.68 3.68 3.69 3.69 0 0 0-3.68-3.68zM548.82 74a5.06 5.06 0 1 1 5-5.05 5.06 5.06 0 0 1-5 5.05zm0-8.73A3.68 3.68 0 1 0 552.5 69a3.68 3.68 0 0 0-3.68-3.69zm52.7 8.73a5.06 5.06 0 1 1 5.05-5 5.06 5.06 0 0 1-5.05 5zm0-8.73A3.68 3.68 0 1 0 605.2 69a3.68 3.68 0 0 0-3.68-3.69zM574 31.07h-9.89v-4.69h25.31v4.69h-9.88v25.14H574zM25.06 85.79H10.7L9 89.75A8.81 8.81 0 0 0 8.15 93a2.72 2.72 0 0 0 1.38 2.52 11.61 11.61 0 0 0 4 .72v1.11H0v-1.09a6.05 6.05 0 0 0 3.6-1.82 23.82 23.82 0 0 0 3.47-6.13l14.54-32.43h.57l14.66 33.33q2.1 4.74 3.45 6a4.71 4.71 0 0 0 2.88 1.08v1.11H23.5v-1.14h.81a6.16 6.16 0 0 0 3.33-.66 1.6 1.6 0 0 0 .66-1.38 3.68 3.68 0 0 0-.18-1.11q-.06-.27-.9-2.25zm-1-2.21l-6.06-14-6.24 14z"/></g><path d="M51.39 327.89a20.51 20.51 0 0 1 12.71-1.54c2.3.38 4.71 1.07 6.28 2.8s1.86 4.78.06 6.27a6 6 0 0 1-4 1c-3.36 0-7.09-.63-9.77 1.4-1.53 1.15-2.55 3.07-4.38 3.63a4.32 4.32 0 0 1-4.76-2.12 7.34 7.34 0 0 1-.54-5.45 8.32 8.32 0 0 1 4.4-5.99zm-8.86-17.09c2.37 3.37 7 2.25 9.09.19s3-5 3.85-7.89c1.87-6.51 3.76-13.34 2.37-20a11.16 11.16 0 0 0-2.55-5.43 5.81 5.81 0 0 0-5.49-1.83c-2.32.61-3.76 2.88-4.8 5a47.53 47.53 0 0 0-4.7 20.42c0 3.29.38 6.74 2.23 9.46M36 315.64c2.57-3.05 3.05-7.49 1.91-11.3a21.79 21.79 0 0 0-6.69-9.72 36.27 36.27 0 0 0-12-7.07 12.9 12.9 0 0 0-5.4-.92 5.65 5.65 0 0 0-4.52 2.74c-1.26 2.41 0 5.33 1.25 7.71a92.45 92.45 0 0 0 7.88 12c2.36 3 5.06 6.05 8.66 7.42s7.34 1.21 9.24-1.28" fill="#ebebeb"/><g class="V"><path d="M42.37 361.73a6.92 6.92 0 0 0 .22-1.54l.4-4.19a62 62 0 0 1 .94-6.14 47.86 47.86 0 0 1 2.24-7.24 26.46 26.46 0 0 1 3.7-6.56 13.75 13.75 0 0 1 4.68-3.89 12.89 12.89 0 0 1 3.94-1.23 7.52 7.52 0 0 0 1.52-.22 7.32 7.32 0 0 0-1.55 0 11.73 11.73 0 0 0-4.11 1.06 13.79 13.79 0 0 0-4.93 3.93 25.92 25.92 0 0 0-3.84 6.69 44.5 44.5 0 0 0-2.22 7.37 52.89 52.89 0 0 0-.81 6.21l-.21 4.22a7.9 7.9 0 0 0 .03 1.53z"/><path d="M42.66 358.5a2.76 2.76 0 0 0 0-.71v-2l.09-7.48c.15-6.32.7-13.11 1.75-22.69 1-9 2.32-19.49 3.73-26.31l.9-4.17.73-3.13c.23-.85.35-1.46.47-2a3.6 3.6 0 0 0 .13-.7 2.67 2.67 0 0 0-.25.67l-.59 1.95a81.69 81.69 0 0 0-.84 3.11l-1 4.16a228.7 228.7 0 0 0-3.93 24.41c-1.06 9.6-1.53 18.34-1.57 24.67l.11 7.49c0 .83.09 1.5.12 2a3.13 3.13 0 0 0 .15.73z"/><path d="M42.7 341.65a12.48 12.48 0 0 0 0-2.13c-.08-1.37-.27-3.34-.65-5.76a75.63 75.63 0 0 0-1.88-8.4 69.28 69.28 0 0 0-3.51-9.93 52.82 52.82 0 0 0-10.31-16.05 24.12 24.12 0 0 0-2.42-2.25l-1-.88-.94-.65a12.52 12.52 0 0 0-1.79-1.14 61.49 61.49 0 0 1 5.8 5.23 55.76 55.76 0 0 1 10.05 16 79.6 79.6 0 0 1 3.53 9.84 85.24 85.24 0 0 1 2 8.31l.85 5.71a15.39 15.39 0 0 0 .27 2.1zm-16.29 29.73l1.69 23.15h29.73l1.69-23.15H26.41z"/><path d="M23.54 362.26h39.53v9.12H23.54z"/></g><path d="M23.54 393.64v2.53h1.85 37.02v-2.53H23.54z" fill="#ebebeb"/><path d="M27.21 400.62l-1.82-4.45H61l-2.13 4.45H27.21z" class="V"/><path d="M59 379a1.46 1.46 0 0 1-.14.21l-.45.59-1.76 2.2-.08.09-.07-.1-4.26-5.88h.25L48.3 382l-.13.18L48 382l-5-5.91h.29l-.27.35-4.45 5.57-.15.18-.13-.19-4.19-5.93h.24L29.23 382l-.09.11-.07-.12-1.62-2.72-.41-.72-.13-.26a1.29 1.29 0 0 1 .17.23l.46.7 1.7 2.66h-.16l5.08-5.95.12-.15.12.16 4.23 5.9h-.29l4.44-5.58.27-.35.14-.17.15.17 4.95 5.92H48l4.23-5.9.13-.17.12.17 4.16 6h-.14l1.8-2.16.49-.56q.21-.27.21-.21zm.93-7.77c0 .1-7.45.19-16.64.19s-16.64-.09-16.64-.19 7.45-.18 16.64-.18l16.64.18zm1.5 25.19c0 .1-8.09.19-18.08.19s-18.08-.09-18.08-.19 8.09-.18 18.08-.18l18.08.18z" fill="#f5f5f5"/><path d="M640 400.55c0 .13-141.86.24-316.8.24s-316.8-.11-316.8-.24 141.82-.25 316.83-.25l316.77.25z" class="S"/><path d="M479.06.24H196v264.14h126.03v23.34l20.64-23.34h136.39V.24z" fill="#fff"/><path d="M195.55.24h283.96v19.15H195.55z" class="V"/><path d="M210.83 10.44a4.17 4.17 0 1 1-4.16-4.16 4.17 4.17 0 0 1 4.16 4.16zm11.98 0a4.17 4.17 0 1 1-4.16-4.16 4.17 4.17 0 0 1 4.16 4.16zm11.99 0a4.17 4.17 0 1 1-4.17-4.16 4.17 4.17 0 0 1 4.17 4.16z" fill="#fff"/><path d="M479.06 264.61L478.85.24l.21.21L196 .48l.24-.24V16.8v247.81l-.22-.22h126 .18v.18 23.11l-.3-.12 20.64-22.72v-.05h.07l136.41-.22-136.41.53.12-.05-20.62 22.75-.29.32v-.44-23.11l.18.18H196h-.22v-.22V16.72 0h.22 283.06.2v.2l-.2 264.41z" class="S"/><path d="M211.39 57.67h43.5v6.11h-43.5z" class="V"/><path d="M298.23 79.34c0 .13-19.41.24-43.34.24s-43.35-.11-43.35-.24 19.4-.24 43.35-.24l43.34.24zM272.27 105c0 .14-13.59.24-30.36.24s-30.37-.1-30.37-.24 13.59-.24 30.37-.24l30.36.24zm25.96-13.85c0 .14-19.41.25-43.34.25s-43.35-.11-43.35-.25 19.4-.24 43.35-.24l43.34.24z" class="S"/><path d="M330.13 229.17h-35v-35h35zm-34-.93h33.1v-33.11H296.1zm-31.77.93h-35v-35h35zm-34-.93h33.1v-33.11h-33.1z" class="T"/><path d="M265.81 236.91c0 .14-8.47.25-18.93.25s-18.94-.11-18.94-.25 8.48-.24 18.94-.24l18.93.24zm-3.26 7.76c0 .14-7.35.24-16.42.24s-16.42-.1-16.42-.24 7.35-.24 16.42-.24 16.42.11 16.42.24zm69.98-7.76c0 .14-8.48.25-18.93.25s-18.94-.11-18.94-.25 8.48-.24 18.94-.24l18.93.24zm-3.26 7.76c0 .14-7.35.24-16.42.24s-16.42-.1-16.42-.24 7.35-.24 16.42-.24 16.42.11 16.42.24z" class="S"/><g class="T"><path d="M329.67 194.67c.09.09-7.45 7.79-16.85 17.19l-17.19 16.84c-.1-.1 7.45-7.79 16.85-17.19l17.19-16.84z"/><path d="M327.9 228.92a1.79 1.79 0 0 1-.31-.35l-.82-1.06-3-3.89c-2.55-3.28-6.2-7.71-10.49-12.36s-8.43-8.64-11.48-11.45l-3.65-3.3-1-.9a1.83 1.83 0 0 1-.32-.34s.14.08.38.26l1 .83c.91.73 2.2 1.82 3.76 3.19a162.13 162.13 0 0 1 11.61 11.38c4.3 4.67 7.91 9.15 10.4 12.48 1.25 1.66 2.23 3 2.88 4l.75 1.12c.2.31.31.38.29.39zm-64.72-32.18c.09.09-7.38 7.29-16.68 16.07l-17 15.72c-.09-.1 7.38-7.29 16.68-16.07l17-15.72z"/><path d="M262.8 228.55s-.13-.11-.33-.35l-.86-1-3.14-3.85c-2.68-3.22-6.5-7.58-11-12.14s-8.8-8.43-12-11.15l-3.8-3.2-1-.87a1.83 1.83 0 0 1-.34-.33 3.74 3.74 0 0 0 .4.25l1.09.8c.94.7 2.27 1.75 3.9 3.08a163.55 163.55 0 0 1 12.11 11.08 158 158 0 0 1 10.9 12.27c1.31 1.64 2.35 3 3 3.94l.79 1.1a1.84 1.84 0 0 1 .28.37zm190.41.1h-35v-35h35zm-34-.93h33.11v-33.11h-33.15zm-27.11.93h-35v-35h35zm-34-.93h33.1v-33.11h-33.1z"/></g><path d="M393.55 236.39c0 .14-8.47.25-18.93.25s-18.94-.11-18.94-.25 8.48-.24 18.94-.24l18.93.24zm-3.26 7.76c0 .13-7.35.24-16.42.24s-16.42-.11-16.42-.24 7.35-.24 16.42-.24 16.42.09 16.42.24zm65.32-7.76c0 .14-8.48.25-18.94.25s-18.94-.11-18.94-.25 8.48-.24 18.94-.24l18.94.24zm-3.27 7.76c0 .13-7.35.24-16.42.24s-16.42-.11-16.42-.24 7.35-.24 16.42-.24 16.42.09 16.42.24z" class="S"/><g class="T"><path d="M452.74 194.15c.1.09-7.45 7.79-16.84 17.19l-17.2 16.84c-.1-.1 7.45-7.79 16.85-17.19l17.19-16.84z"/><path d="M451 228.4s-.13-.11-.32-.35l-.82-1.06-3-3.9c-2.55-3.27-6.19-7.7-10.49-12.36s-8.42-8.63-11.48-11.44l-3.65-3.3-1-.9a1.83 1.83 0 0 1-.32-.34 2.83 2.83 0 0 0 .39.26l1.05.83c.9.73 2.19 1.82 3.75 3.19a162.13 162.13 0 0 1 11.61 11.38 160.19 160.19 0 0 1 10.41 12.48c1.24 1.66 2.23 3 2.88 4l.74 1.12a1.82 1.82 0 0 1 .25.39zm-60.08-32.18c.09.09-7.38 7.29-16.68 16.07l-17 15.72c-.09-.1 7.37-7.29 16.67-16.07l17.01-15.72z"/><path d="M390.54 228s-.13-.1-.33-.34l-.86-1-3.14-3.85c-2.68-3.22-6.5-7.58-11-12.14s-8.8-8.43-12-11.15l-3.8-3.2-1-.88c-.24-.2-.35-.31-.34-.33a2.06 2.06 0 0 1 .4.26l1.09.8c.94.7 2.28 1.75 3.9 3.08a163.55 163.55 0 0 1 12.11 11.08 158 158 0 0 1 10.9 12.27c1.31 1.64 2.35 3 3 3.94l.79 1.1a2 2 0 0 1 .28.36zm60.87-72.43H332.89V37.05h118.52zm-117.59-.94h116.66V38H333.82zm112.11-4.55H338.11V42.27h107.82zM339 149.15h106V43.2H339zm1.53-.53l-.74-.56 31.71-42.19 21.98 12.21 27.77-42.14.78.51-28.25 42.86-22.02-12.23-31.23 41.54z"/><path d="M388.41 88a14.21 14.21 0 1 1 14.2-14.2 14.22 14.22 0 0 1-14.2 14.2zm0-27.48a13.28 13.28 0 1 0 13.27 13.28 13.3 13.3 0 0 0-13.27-13.27zm-17.66 45.08h1.76v1.76h-1.76zm21.89 12.11h1.76v1.76h-1.76zm28.12-42.15h1.76v1.76h-1.76z"/><path d="M387.53 86.67h1.76v1.76h-1.76zm0-27.58h1.76v1.76h-1.76zm13.79 15.59v-1.76h1.76v1.76zm-27.58 0v-1.76h1.76v1.76zm-34.46 72.78h1.76v1.76h-1.76zm82.36-52.17c-.14 0-.24-8.05-.24-18l.24-18c.14 0 .24 8 .24 18l-.24 18z"/><path d="M422.29 59.34a.65.65 0 1 1-.65-.65.65.65 0 0 1 .65.65z"/><circle cx="421.64" cy="95.68" r=".65"/></g><path d="M467.29 177c0 .14-48.41.24-108.11.24s-108.12-.1-108.12-.24 48.4-.24 108.12-.24l108.11.24z" class="V"/><path d="M500.56 316.64l1.55 70.5-76.62 1.08-1.54-70.51 76.61-1.07z" class="X"/><path d="M500.56 316.64h-.37-1.07l-4.16.09-15.69.28-55.32.89.2-.23 1.56 70.5h0l-.23-.25 76.62-1-.18.21-1-51.13-.27-14.3-.06-3.77s0-1.3 0-1.3 0 .42.05 1.26.06 2.1.11 3.73l.35 14.24 1.22 51.27v.21h-.18l-76.62 1.12h-.22v-.25h0l-1.51-70.49v-.23h.2l55.46-.66 15.64-.16h4.12 1.4z" class="S"/><path d="M428.03 384.7l71.24-1-1.35-61.62-71.23 1 1.34 61.62z" class="T"/><path d="M428.03 384.7l24.04-38.65 15.94 23.75 10.17-12.96 21.09 26.86-71.24 1zm45.9-43.22c.08 3.56-2.37 6.49-5.47 6.53s-5.67-2.81-5.75-6.38 2.37-6.49 5.47-6.53 5.67 2.81 5.75 6.38z" class="Y"/><path d="M481.4 310.07l1.54 70.5-76.62 1.08-1.54-70.5 76.62-1.08z" class="X"/><path d="M481.4 310.07h-.37-1.07l-4.17.08-15.68.28-55.32.9.19-.24 1.56 70.5h0l-.23-.26 76.62-1-.18.21-1-51.13-.27-14.29-.06-3.77v-1.31s0 .42.05 1.26.06 2.11.1 3.73l.36 14.24 1.22 51.27v.21H483l-76.62 1.12h-.22v-.26h0l-1.52-70.49v-.23h.2l55.45-.67 15.64-.16h4.13 1.4z" class="S"/><g class="U"><path d="M408.87 377.17l71.23-1-1.34-61.62-71.24 1 1.35 61.62z"/><path d="M408.87 377.17l24.04-38.65 15.94 23.75 10.17-12.96 21.08 26.86-71.23 1z"/><use xlink:href="#B"/></g><path d="M408.87 377.17l24.04-38.65 15.94 23.75 10.17-12.96 21.08 26.86-71.23 1z" class="Y"/><use xlink:href="#B" class="Y"/><path d="M473.09 301.11l1.54 70.5-76.62 1.08-1.54-70.5 76.62-1.08z" class="X"/><path d="M473.09 301.11h-.37-1.08l-4.16.08-15.68.28-55.32.9.19-.24 1.56 70.5h0l-.22-.26 76.62-1-.18.21-1-51.13-.26-14.29-.06-3.77v-1.31s0 .42.05 1.26.06 2.11.1 3.73l.36 14.24 1.22 51.27v.21h-.18L398 373h-.22v-.26h0l-1.52-70.49V302h.2l55.45-.67 15.64-.16h4.13 1.4z" class="S"/><path d="M400.56 369.18l71.23-1-1.34-61.63-71.24 1 1.35 61.63z" class="T"/><path d="M400.56 369.18l24.04-38.66 15.94 23.75 10.17-12.96 21.08 26.87-71.23 1zM446.45 326c.08 3.56-2.37 6.49-5.46 6.53s-5.68-2.81-5.75-6.37 2.37-6.49 5.46-6.54 5.68 2.76 5.75 6.38z" class="Y"/><path d="M464.18 310.19l1.66 70.51-82.81 1.07-1.67-70.5 82.82-1.08z" class="X"/><path d="M464.18 310.19h-.4-1.17l-4.49.09-17 .28-59.79.89.21-.23 1.69 70.49h0l-.25-.25 82.82-1-.2.22-1.1-51.14-.29-14.29-.06-3.77v-1.31a23.99 23.99 0 0 0 .05 1.27l.11 3.73.39 14.24 1.31 51.26v.22h-.2L383 382h-.24v-.25h0l-1.64-70.5v-.22h.22l59.94-.66 16.9-.16h4.46 1.52z" class="S"/><path d="M385.78 377.3l76.99-1-1.45-61.63-77 1 1.46 61.63z" class="T"/><path d="M385.78 377.3l25.99-38.66 17.22 23.75 11-12.96 22.78 26.87-76.99 1zm49.61-43.66a6.2 6.2 0 0 1-5.91 6.54 6.36 6.36 0 0 1-6.22-6.38 6.2 6.2 0 0 1 5.91-6.54 6.37 6.37 0 0 1 6.22 6.38z" class="Y"/><path d="M425.27 352.43h78.01v47.82h-78.01z" class="S"/><path d="M377.61 352.43h85.52v47.82h-85.52zM110.43 102.1h38.93l-.67 24.7-31.28 7.13-6.98-31.83z" class="U"/><path d="M103.26,367.07,96,384.69s15.47,13.3,14.44,16.69L75.76,388.52,86,360.6Z" fill="#003689"/><path d="M85.83,379.21a1.52,1.52,0,0,0-1.58,1.25A1.45,1.45,0,0,0,85.48,382a1.59,1.59,0,0,0,1.66-1.34c0-.74-.72-1.59-1.46-1.49" class="V"/><path d="M75.76 388.52l1.14-2.78 32.82 13.37s1.29 1.25.71 2.27zm20.86-3.8c-.07.17-1-.07-2 .17s-1.74.78-1.87.66.48-1 1.74-1.28 2.22.31 2.13.45zm3.08 2.86c0 .17-.87.19-1.71.69s-1.29 1.2-1.45 1.13.08-1.07 1.14-1.67 2.07-.32 2.02-.15zm.45 5.11c-.17 0-.09-.95.69-1.72s1.7-.84 1.72-.67-.65.48-1.28 1.12-.96 1.32-1.13 1.27zm-2.32-12.17c-.13.13-.82-.39-1.8-.68s-1.84-.27-1.87-.44.9-.52 2-.16 1.84 1.18 1.67 1.28z" class="S"/><path d="M85.68,370.07l-.57,20.08s20.22,7.33,20.47,11.05l-39,.29-.39-31.33Z" class="T"/><path d="M73.05,388.55A1.6,1.6,0,0,0,72,390.38a1.53,1.53,0,0,0,1.8,1.09,1.69,1.69,0,0,0,1.14-1.94,1.6,1.6,0,0,0-2-.93" class="V"/><g class="S"><path d="M66.59 402.31v-3h37.49s1.74.74 1.55 2zM85.74 390c0 .19-1 .29-1.89.9s-1.42 1.43-1.6 1.35.1-1.17 1.24-1.9 2.29-.57 2.25-.35zm4.1 1.61c0 .19-.78.52-1.42 1.33s-.82 1.66-1 1.65-.32-1.08.5-2.07 1.91-1.09 1.92-.91zm2.36 4.88c-.17 0-.45-.91 0-1.95s1.37-1.47 1.45-1.31-.46.71-.84 1.58-.42 1.66-.61 1.68zm-6.84-11.13c-.08.17-1-.08-2 0s-1.91.43-2 .26.7-.84 2-.92 2.1.51 2 .66zm36.17-193.25s15.91 64.19 18.52 84.79c1.83 14.35-1.77 23.78-2.2 26.65a7.88 7.88 0 0 1-.94 2.75l-34.35 66.63-23.73-8.24 21.68-62.37 4.37-7.78-34.62-87.69z"/><path d="M104.67,206c.44,1.76-20.42,105-20.42,105l2.68,73.94-21.94.6s-11.23-40.29-11.67-64.06,2.25-27.83.3-42.67c-2-15.65-14.6-47.88-8.91-69.75,4.76-18.28,17-27.07,17-27.07Z"/></g><path d="M87 385.5a2.21 2.21 0 0 0 0-.38v-1.11l-.1-4.3-.46-15.88-1.78-53.25v.07l1.59-7.92 11.32-57.62 3.36-17.47.89-4.76.21-1.24a2.26 2.26 0 0 0 .06-.42 2.56 2.56 0 0 0-.12.41l-.27 1.23-1 4.74-3.55 17.43-11.49 57.59-1.58 7.92v.07l2 53.23.65 15.88.2 4.29c0 .47 0 .84.07 1.11a1.34 1.34 0 0 0 0 .38zm17.69-92.38a10.79 10.79 0 0 0 7.52 5.71c.06-.17-2-.87-4.06-2.46s-3.31-3.37-3.46-3.25z" class="U"/><path d="M61.36 41.89a8.71 8.71 0 0 0-9.52-.75A12.64 12.64 0 0 0 45.92 49a10.48 10.48 0 0 0-.24 5.18 6.15 6.15 0 0 0 3 4.09 4.42 4.42 0 0 1 1.92 1.23c.8 1.25-.47 2.93-.07 4.36a2.59 2.59 0 0 0 3 1.54 6.26 6.26 0 0 0 3.07-1.94 23.69 23.69 0 0 0 6.65-14 6.94 6.94 0 0 0-1.89-7.57z" class="S"/><path d="M205.75 367.32l-65.46-2.38a13.21 13.21 0 0 1-12.88-13.65L138 103a13.41 13.41 0 0 1 14-12.67l65.46 2.38a13.21 13.21 0 0 1 12.88 13.65l-10.59 248.29a13.41 13.41 0 0 1-14 12.67z" class="X"/><path d="M205.75 367.32h.47a12.48 12.48 0 0 0 1.39-.09 13.54 13.54 0 0 0 10.95-8 14.1 14.1 0 0 0 1.09-5.38l.25-6.33 3.09-75.81 4.69-112.43q.67-15.87 1.37-32.5.34-8.31.7-16.78c.09-2.83.49-5.68-.55-8.3a12.71 12.71 0 0 0-5.12-6.47 13 13 0 0 0-3.89-1.71 19.79 19.79 0 0 0-4.32-.46l-8.93-.32-18.07-.66L152 90.74a13.48 13.48 0 0 0-8.47 2.64 13 13 0 0 0-4.8 7.27 22.16 22.16 0 0 0-.42 4.42l-.2 4.5-.38 9q-.75 17.83-1.49 35.12l-2.85 66.4-4.85 112.44q-.27 6-.52 11.71l-.24 5.63a15.49 15.49 0 0 0 .37 5.37 13 13 0 0 0 6.31 7.9 13.35 13.35 0 0 0 4.75 1.52c1.63.17 3.31.16 4.93.24l33.29 1.28 21 .84 5.47.24c1.24 0 1.87.1 1.87.1h-1.87l-5.47-.16-21-.69-33.29-1.15-5-.23a14.14 14.14 0 0 1-4.92-1.56 13.47 13.47 0 0 1-6.56-8.17 15.75 15.75 0 0 1-.4-5.52l.23-5.63q.24-5.71.48-11.71l4.69-112.44 2.8-66.41q.74-17.26 1.48-35.12.19-4.47.38-9l.19-4.5a23.13 23.13 0 0 1 .45-4.57 13.79 13.79 0 0 1 5.04-7.73 14.4 14.4 0 0 1 9-2.8l36.92 1.35L207 92l8.93.33a20.75 20.75 0 0 1 4.48.48 13.75 13.75 0 0 1 9.54 8.66 12.45 12.45 0 0 1 .74 4.31l-.15 4.27q-.36 8.48-.71 16.78-.72 16.6-1.4 32.49l-4.86 112.43-3.34 75.8q-.15 3.36-.29 6.33a14.18 14.18 0 0 1-1.14 5.46 13.34 13.34 0 0 1-5.93 6.4 13.11 13.11 0 0 1-5.23 1.57 10.62 10.62 0 0 1-1.39 0z" class="S"/><g fill="#ff735d"><path d="M224.58 153.42l-84.92-3.09 1.8-42.62 84.93 3.09-1.81 42.62z"/><use xlink:href="#C"/><path d="M219.45 274.15l-84.92-3.09 1.81-42.62 84.92 3.09-1.81 42.62z"/><use xlink:href="#C" x="-5.12" y="120.73"/></g><g class="T"><path d="M224.58 153.42l-84.92-3.09 1.8-42.62 84.93 3.09-1.81 42.62z"/><use xlink:href="#C"/><path d="M219.45 274.15l-84.92-3.09 1.81-42.62 84.92 3.09-1.81 42.62z"/></g><use xlink:href="#C" x="-5.12" y="120.73" opacity=".4"/><path d="M204.5 368.05l-63.5.66c-6.8.07-12.37-5.7-12.44-12.88l-2.39-256.59c-.07-7.18 5.39-13.06 12.2-13.13l63.49-.66c6.8-.07 12.37 5.69 12.44 12.88l2.39 256.58c.07 7.19-5.39 13.09-12.19 13.14z" class="X"/><path d="M204.5 368.05s.61 0 1.77-.21a11.69 11.69 0 0 0 4.8-2 12.79 12.79 0 0 0 5-7 16.79 16.79 0 0 0 .52-5.64l-.08-6.52-.85-78.12-1.16-115.86q-.15-16.35-.32-33.49-.09-8.55-.17-17.29l-.08-4.36a13.39 13.39 0 0 0-.93-4.13 12.66 12.66 0 0 0-5.43-6.18 11.46 11.46 0 0 0-3.89-1.3 28.74 28.74 0 0 0-4.17-.11l-8.54.09-17.26.18-35.28.37a11.74 11.74 0 0 0-7.88 3.24 12.75 12.75 0 0 0-3.87 7.87c-.15 1.48-.07 3-.07 4.6v4.64l.09 9.22q.17 18.39.33 36.2l.62 68.43 1 115.87q0 6.18.1 12.07l.05 5.8a15.61 15.61 0 0 0 .69 5.49 12.63 12.63 0 0 0 6.67 7.53c3 1.47 6.32.91 9.4 1l31.82-.26 20.11-.14h5.23 1.78l-1.78.06-5.23.09-20.11.29-31.81.39-4.74.05a11.78 11.78 0 0 1-4.84-1 13 13 0 0 1-7-7.8 16 16 0 0 1-.73-5.64l-.06-5.81q-.06-5.88-.13-12.07l-1.16-115.87-.66-68.42q-.17-17.81-.34-36.2l-.09-9.23v-4.63a43.58 43.58 0 0 1 .07-4.7 13.54 13.54 0 0 1 4.11-8.39 12.42 12.42 0 0 1 8.37-3.45l35.28-.36 17.27-.18 8.53-.09a28.13 28.13 0 0 1 4.29.12 12.18 12.18 0 0 1 4.12 1.39 13.39 13.39 0 0 1 5.76 6.56 14.3 14.3 0 0 1 1 4.38l.07 4.4q.09 8.73.16 17.3.15 17.11.3 33.48l1 115.86.61 78.12.05 6.53-.05 3-.19 1.4c-.06.46-.2.9-.32 1.33a13 13 0 0 1-5.09 7.06 11.67 11.67 0 0 1-4.88 1.93 8 8 0 0 1-1.28.06z" class="S"/><path d="M211.22 147.44l-81.05.85-.41-43.86 81.05-.85.41 43.86z" class="T"/><g fill="#ff735d"><path d="M211.8 209.57l-81.05.85-.41-43.86 81.05-.85.41 43.86z"/><use xlink:href="#D"/><use xlink:href="#D" x="0.58" y="62.13"/></g><g fill="#96b4fd"><path d="M211.8 209.57l-81.05.85-.41-43.86 81.05-.85.41 43.86z"/><use xlink:href="#D"/><use xlink:href="#D" x="0.58" y="62.13"/></g><path d="M206.49 355.52a10.3 10.3 0 1 1-7.83-12.29 10.29 10.29 0 0 1 7.83 12.29z" class="U"/><path d="M206.49 355.52c-.08 0 .15-.91.08-2.52a10.3 10.3 0 0 0-2.49-6.18 10 10 0 0 0-8.93-3.38 9.79 9.79 0 0 0-5.24 2.4 9.87 9.87 0 0 0-2.54 11.44 9.9 9.9 0 0 0 3.74 4.39 10 10 0 0 0 9.52.71 10.29 10.29 0 0 0 4.87-4.55c.74-1.43.91-2.34 1-2.31a2 2 0 0 1-.1.65 7.84 7.84 0 0 1-.62 1.8 10.25 10.25 0 0 1-4.91 4.91 10.37 10.37 0 0 1-4.77 1 10.57 10.57 0 0 1-5.37-1.62 10.44 10.44 0 0 1-4.06-4.69 10.61 10.61 0 0 1 2.74-12.34 10.62 10.62 0 0 1 11.21-1.73 10.35 10.35 0 0 1 3.89 2.94 10.21 10.21 0 0 1 2.37 6.53 7.83 7.83 0 0 1-.19 1.89 2.21 2.21 0 0 1-.2.66z" class="S"/><g class="W"><path d="M148.34,152.62l-.92.78a.53.53,0,0,1-.35.17.45.45,0,0,1-.37-.31,2.16,2.16,0,0,1-.06-1.71,3.64,3.64,0,0,1,1-1.42,1.06,1.06,0,0,1,.72-.34,1.16,1.16,0,0,1,.68.41c.25.26.49.54.72.83a.6.6,0,0,1,.18.48.61.61,0,0,1-.24.31c-.41.33-1,.47-1.39.8"/><path d="M141.54 137c1.32-.05 7.26-.66 7.26-.66l9.94 2.39a3.47 3.47 0 0 1-2.85 1.77l-6.36-.33-1.18.69s4.51 3 4.56 3.64a2.69 2.69 0 0 1-.32 1.26 4.64 4.64 0 0 1 .13 3.29l-.15 4.24-4.28 2.95a3.39 3.39 0 0 1-.34-2.29c.29-1.2 1.93-1.89 1.93-1.89l-1-1.77-1.5-.53s-9.82 2.74-12.11 2.58l-7.84 3.9-1.09-11.49s13.88-7.75 15.2-7.75z"/></g><path d="M147.46 145.91c0 .12 1.21.63 2.61 1.5l2.52 1.65a6.48 6.48 0 0 0-2.3-2 6.73 6.73 0 0 0-2.83-1.15zm-.77-3.32a28.79 28.79 0 0 0 2.85 1.62 29.57 29.57 0 0 0 2.83 1.65 8.45 8.45 0 0 0-2.63-2 8.59 8.59 0 0 0-3.05-1.27zm-3.05-4.81a17.52 17.52 0 0 0 2.33 1.76 8.07 8.07 0 0 0 2.56 1.46 15 15 0 0 0-2.31-1.8 7.27 7.27 0 0 0-2.58-1.42z" class="U"/><path d="M175.41 85.78a13.16 13.16 0 0 0-1.92-3 2.54 2.54 0 0 0-2.53-.48l-.6.36s-2.44-1.73-3.9-1.06c0 0-2.31-1.71-3.8-.58 0 0-1.7-1.66-2.75-.71a4.63 4.63 0 0 0-1.13 3.89c.21 1 .3 4.49.87 4.66 0 0 1.53.48 1.91-.32l.55-1.19s0 3.1.69 3.39 2.07.49 2.38-.81c0 0 .47 1.12 1.18 1s1.61-.48 1.7-1.3l.24-1.64s.12 1.25.76 1.12 1.23 0 1.76-.91l1.77-2.74z" class="W"/><path d="M168.36 87.86a8.16 8.16 0 0 0-.09-.9 4.94 4.94 0 0 1 .33-2.08 4.86 4.86 0 0 1 1.2-1.74l.68-.59a1.8 1.8 0 0 0-.8.45 4.32 4.32 0 0 0-1.33 1.78 4.37 4.37 0 0 0-.26 2.2 1.85 1.85 0 0 0 .27.88zm-2.07-6.32a4.19 4.19 0 0 0-.58 1.11 11.83 11.83 0 0 0-.77 2.92 11.54 11.54 0 0 0 0 3 4.09 4.09 0 0 0 .27 1.22 21.31 21.31 0 0 1 0-4.2 20.61 20.61 0 0 1 1.08-4.05zm-3.7-.54a9.91 9.91 0 0 0-.66 3.15 9.69 9.69 0 0 0 .14 3.22c.08 0 0-1.44.12-3.2s.48-3.17.4-3.17z" class="S"/><g class="U"><path d="M118.55 126.22l-.08-.63.08.63z"/><path d="M118.47 125.59h0zm.1.78v-.15z"/><path d="M118.68 165.21a125.09 125.09 0 0 0 13.39-7.85l-4.28-14.3-6 1c-.55-6.23-2.46-12.25-3.18-17.66l-7.33-24.27-16-1.45-19.47-1.46L63.44 101c-6.8 1-14.72 4.72-18 10.76-1.16 2.16-1.93 7-2.21 9.75-1 10.35 2.83 41.89 13.62 53.13l-5.47 16.28c-7.81 24.36 72.53 14.11 71.83 4.68l-5.28-23.57zm-.22-39.66z"/></g><path d="M77.47,151.1a24.71,24.71,0,0,0-4,4.1,24.75,24.75,0,0,0-2.5,5.17,11.58,11.58,0,0,1,6.52-9.27Z" class="S"/><path d="M57.2 174.71c1.59 3.38 5 5.62 8.64 6.56a30.42 30.42 0 0 0 11.14.3c14.85-1.74 39.94-16.46 39.52-16.18-18.8 10.61-51.91 14.7-59.3 9.32z" class="Y"/><path d="M132.07 157.36l-.17.13-.52.34-2.06 1.25-7.74 4.29a145.93 145.93 0 0 1-27 10.94 63.5 63.5 0 0 1-8.19 1.59l-7.71.82-7 .45a46.63 46.63 0 0 1-6.18-.17 19.18 19.18 0 0 1-8.47-2.5 10.23 10.23 0 0 1-1.86-1.5l-.41-.48c-.11-.13-.13-.17-.12-.17a13.87 13.87 0 0 0 2.49 2 19.47 19.47 0 0 0 8.4 2.32 46.57 46.57 0 0 0 6.08.08l7-.49 7.69-.85a68.05 68.05 0 0 0 8.13-1.58 156 156 0 0 0 27-10.78l7.79-4.16 2.11-1.17.55-.29.19-.07zm-4.28-14.3l-.21.06-.64.12-2.44.44-9 1.52-29.79 4.8-8.2 1.3h-.18l-.08-.17-9.42-22.65-2.73-6.68-.71-1.8a4.22 4.22 0 0 1-.22-.64 3.63 3.63 0 0 1 .3.6l.79 1.78 2.86 6.62L77.69 151l-.25-.14 8.19-1.31 29.8-4.69 9-1.37 2.46-.34.64-.08c.19-.02.26-.02.26-.01zm-13.91-29.73a23.39 23.39 0 0 0 1.09 3l2.51 7.19 1.93 7.36a23.68 23.68 0 0 0 .75 3.08 13.59 13.59 0 0 0-.35-3.16 63.15 63.15 0 0 0-1.78-7.45 61.9 61.9 0 0 0-2.68-7.17 14.39 14.39 0 0 0-1.47-2.85zm-2.05-17.56a3.14 3.14 0 0 1-1.19 1.7 2.72 2.72 0 0 1-2.31.44 2.86 2.86 0 0 1-2-2.3 2.62 2.62 0 0 1 .37-1.76 5.54 5.54 0 0 1 1.39-1.48c1.11-.87 2.64-1.59 3.53-3.11a6.42 6.42 0 0 0 .6-5.15 7.59 7.59 0 0 0-1.22-2.48 10.68 10.68 0 0 0-2.1-1.93 14.85 14.85 0 0 1-2.1-1.79 3.66 3.66 0 0 1-1-2.3 4.67 4.67 0 0 1 .69-2.38 9 9 0 0 1 1.56-1.9 18.75 18.75 0 0 0 3.21-3.43 7 7 0 0 0 1-4 8.94 8.94 0 0 0-.9-3.27 17.53 17.53 0 0 1-.9-2.35 5 5 0 0 1-.12-2.11l-.06.13a2.1 2.1 0 0 0-.08.41 4 4 0 0 0 .09 1.61 15.8 15.8 0 0 0 .83 2.41 8.69 8.69 0 0 1 .81 3.18 6.77 6.77 0 0 1-1 3.77 18.64 18.64 0 0 1-3.24 3.32 9.46 9.46 0 0 0-1.64 2 5 5 0 0 0-.76 2.61 4.12 4.12 0 0 0 1.12 2.6 16 16 0 0 0 2.17 1.85 10.54 10.54 0 0 1 2 1.85 6.93 6.93 0 0 1 1.23 2.32 6 6 0 0 1-.53 4.8c-.79 1.4-2.24 2.11-3.4 3a6 6 0 0 0-1.46 1.6 3 3 0 0 0-.39 2 3.13 3.13 0 0 0 2.21 2.5 2.86 2.86 0 0 0 2.48-.55 2.82 2.82 0 0 0 1-1.29 1.64 1.64 0 0 0 .11-.52z" class="S"/><path d="M64.87 48.6a2.86 2.86 0 0 1 .6 2.08 15.55 15.55 0 0 1-1 5.11 2.94 2.94 0 0 1-1.36 1.69c-.63.27-1.47 0-2.14-1a4.89 4.89 0 0 1-.74-1.82 6.36 6.36 0 0 1 0-2.38 6.48 6.48 0 0 1 .89-2.2 5 5 0 0 1 1.38-1.4c1-.62 1.89-.57 2.37-.08z" fill="#96b4fd"/><path d="M57.28,74.07c-.89-2.53-.07-5.35,1.13-7.75s2.82-4.62,3.65-7.17c.9-2.76.84-5.79,1.94-8.48a10.64,10.64,0,0,1,6.4-6c1.73-.57,3.65-.72,5.14-1.76s2.34-2.9,3.51-4.38c1.9-2.39,3.71-4.45,6.53-5.62,3.21-1.35,7.92-1.84,11.14-.53a9.32,9.32,0,0,1,4.58,4.48,19.67,19.67,0,0,1,1.76,6.27c3.29.63,5.2,4,6.66,7a13.42,13.42,0,0,1,1.73,5.34c.07,2.11-1.74,9.33-2.76,11.17-5.26,9.51-13.09,11.52-22.6,16.78-3.68,2-6,6.7-10.14,6.54-4.89-.19-9.65-.38-12.48-4.36S57.44,77.91,57,73" class="S"/><path d="M107.6 59c-.26-6.81-4.57-15.27-11.37-14.71l-21.3 4.85a4 4 0 0 0-3.66 4l1 51.1h-.15s4.45 14.52 18.56 10.49c2.79-.8 4.14-3.8 4.77-6.91h.14v-1.07a33.24 33.24 0 0 0 .27-7h0l.19-5.77c0 .04 8.72-1.23 10.79-12.53 1.16-5.6 1.06-14.86.76-22.45z" class="W"/><path d="M90.32 67.55A1.45 1.45 0 0 1 88.88 69a1.39 1.39 0 0 1-1.47-1.34 1.46 1.46 0 0 1 1.44-1.44 1.4 1.4 0 0 1 1.47 1.33zm14.97 0a1.44 1.44 0 0 1-1.44 1.45 1.39 1.39 0 0 1-1.47-1.34 1.47 1.47 0 0 1 1.44-1.44 1.4 1.4 0 0 1 1.47 1.33zm.78-3.55c-.18.25-1.44-.73-3.15-.66s-2.9 1.12-3.1.89.08-.55.6-1a4 4 0 0 1 2.47-1 3.82 3.82 0 0 1 2.52.83c.59.39.75.82.66.94zm-15.78.22c-.22.22-1.45-.87-3.27-1s-3.2.79-3.38.54.14-.53.75-.95a4.48 4.48 0 0 1 2.73-.72 4.34 4.34 0 0 1 2.58 1.07c.53.52.7.96.59 1.06zm5.21 11.24a9.93 9.93 0 0 1 2.55-.4c.4 0 .78-.11.85-.38a2 2 0 0 0-.24-1.19l-1.11-3.07-2.46-8c.18 0 1.57 3.43 3.1 7.8l1.06 3.09a2.32 2.32 0 0 1 .17 1.58 1 1 0 0 1-.67.57 2.42 2.42 0 0 1-.68.07 10.8 10.8 0 0 1-2.57-.07z" class="S"/><path d="M96.14,94A28.91,28.91,0,0,1,81,89.59s3.63,8.13,15,7.34Z" class="Z"/><g class="S"><path d="M90.86 76.43c.26 0 .22 1.69 1.65 2.93s3.24 1.1 3.24 1.33-.41.32-1.17.33a4.31 4.31 0 0 1-2.72-1 3.71 3.71 0 0 1-1.26-2.46c-.05-.73.15-1.14.26-1.13zm-.19-17.52c-.16.43-1.72.19-3.56.37s-3.34.64-3.57.25c-.11-.18.16-.58.77-1a6.23 6.23 0 0 1 5.43-.47c.67.31 1 .65.93.85z"/><path d="M105 59.24c-.32.35-1.55-.05-3-.1s-2.74.17-3-.21c-.12-.18.08-.53.64-.85a4.89 4.89 0 0 1 4.87.24c.49.38.64.75.49.92zm-34.79-8.92c1.2-1.5 3.15-2.13 5-2.64A104 104 0 0 1 99.68 44c.85 1.77-.32 4-2 5s-3.68 1.38-5.55 1.88-3.89 1.37-4.83 3.12-.55 4.19-1.45 6.07c-1.55 3.25-6.37 3.87-7.91 7.12-1.16 2.47-.4 1.9-.3 4.63.11 3.08-1.78 3.55-4.22 5.44-1.93 1.49-5.64 3.2-8.06 3 .42-9.73 2.94-14.41 3.36-24.14.08-2.04.22-4.22 1.49-5.8z"/></g><path d="M83.82 34.84l.2-.14a5.33 5.33 0 0 1 .61-.38 9.93 9.93 0 0 1 2.47-.92 10.75 10.75 0 0 1 3.9-.18 10 10 0 0 1 7.65 5.29 10.87 10.87 0 0 1 1.21 3.72 9.54 9.54 0 0 1 0 2.64 6 6 0 0 1-.13.7c0 .16-.06.25-.07.24a12.21 12.21 0 0 0 0-3.55 10.91 10.91 0 0 0-1.24-3.64A9.93 9.93 0 0 0 91 33.45a10.93 10.93 0 0 0-3.84.12 12.8 12.8 0 0 0-3.34 1.27zM72.91 44h.33a3.87 3.87 0 0 0 .93-.08 5.57 5.57 0 0 0 1.38-.5 11.08 11.08 0 0 0 1.64-1l1.88-1.47a11.85 11.85 0 0 1 2.32-1.49 12.85 12.85 0 0 1 6.16-1.21 12.36 12.36 0 0 1 6 1.88 12.76 12.76 0 0 1 3.7 3.55 12.18 12.18 0 0 1 1.56 3.1l.26.91.06.32-.41-1.2a13.07 13.07 0 0 0-1.62-3 12.75 12.75 0 0 0-3.68-3.47 12.35 12.35 0 0 0-5.87-1.82 12.66 12.66 0 0 0-6.05 1.17 12.06 12.06 0 0 0-2.29 1.44l-1.9 1.45a10.76 10.76 0 0 1-1.69 1 5.21 5.21 0 0 1-1.43.46 4.14 4.14 0 0 1-.94 0 1.23 1.23 0 0 1-.34-.04zm-9.55 12.16a20.65 20.65 0 0 0 .6 2.78 12.57 12.57 0 0 0 9.69 8.66 21.61 21.61 0 0 0 2.83.28h-.2-.57a11.25 11.25 0 0 1-2.09-.17 12.48 12.48 0 0 1-6.19-3A12.67 12.67 0 0 1 63.78 59a11.26 11.26 0 0 1-.39-2.06v-.57a.63.63 0 0 1-.03-.21zM74.12 73a4.85 4.85 0 0 1-.77-.12 19.33 19.33 0 0 1-2-.53A15.63 15.63 0 0 1 65.21 69a10.14 10.14 0 0 1-3.14-6.16 7.26 7.26 0 0 1 .07-2.12c0-.25.11-.44.14-.57a.82.82 0 0 1 .07-.19 10 10 0 0 0-.11 2.86 10.31 10.31 0 0 0 3.15 6 16.17 16.17 0 0 0 6 3.41l2 .6a4.44 4.44 0 0 1 .73.17z" class="U"/><g class="S"><path d="M109.71 42.22a14.13 14.13 0 0 0-3.71.07 13.82 13.82 0 0 0-3.48 1.3 3.25 3.25 0 0 1 .9-.64 8.55 8.55 0 0 1 5.21-1 3.48 3.48 0 0 1 1.08.27z"/><path d="M105.17 36.35a3.93 3.93 0 0 1 .09 1.19 10.69 10.69 0 0 1-.49 2.84A10.23 10.23 0 0 1 103.5 43a4.35 4.35 0 0 1-.76.92 17.43 17.43 0 0 0 1.79-3.59 16.87 16.87 0 0 0 .64-3.98z"/></g><path d="M74.23 68.5c-.18-.09-7.1-2.42-7.16 4.73s7.12 5.75 7.14 5.54.02-10.27.02-10.27z" class="W"/><path d="M72.05 76s-.13.09-.34.18a1.22 1.22 0 0 1-.93 0 3.08 3.08 0 0 1-1.4-2.78 4.08 4.08 0 0 1 .37-1.78 1.45 1.45 0 0 1 .94-1 .63.63 0 0 1 .73.35c.1.2 0 .35.09.36s.15-.12.1-.42a.8.8 0 0 0-.28-.45.93.93 0 0 0-.69-.18 1.74 1.74 0 0 0-1.31 1.09 4.29 4.29 0 0 0-.45 2c0 1.44.76 2.8 1.79 3.11a1.34 1.34 0 0 0 1.14-.18c.19-.09.26-.24.24-.3z" class="S"/><path d="M68.21 77.22a1.5 1.5 0 0 1-.33.2c-.21.14-.55.3-.95.56a6.74 6.74 0 0 0-2.52 3.08 6.69 6.69 0 0 0 .3 5.76 6.66 6.66 0 0 0 6 3.52 6.61 6.61 0 0 0 1.89-.3 6.19 6.19 0 0 0 1.67-.77 6.75 6.75 0 0 0-.06-11.36 10.1 10.1 0 0 0-1.33-.69 5.1 5.1 0 0 1 1.38.6 6.87 6.87 0 0 1 2.7 3 7 7 0 0 1 .6 2.77 6.82 6.82 0 0 1-.75 3.17 6.87 6.87 0 0 1-4.14 3.49 6.73 6.73 0 0 1-1.95.3 6.89 6.89 0 0 1-6.18-3.66 7 7 0 0 1-.81-3.15 6.84 6.84 0 0 1 .51-2.74 6.75 6.75 0 0 1 2.64-3.09c.41-.25.75-.4 1-.52a2.73 2.73 0 0 1 .33-.17z" fill="#fff"/><path d="M62.79 55.4v.35a6.51 6.51 0 0 1-.1 1 14.11 14.11 0 0 1-1 3.54c-.61 1.44-1.51 3.06-2.45 4.88a27.12 27.12 0 0 0-1.34 2.92 13.71 13.71 0 0 0-.88 3.3 12.1 12.1 0 0 0 1 6.47 13.53 13.53 0 0 0 1.47 2.48l1.55 2 2.36 2.82.66.75a1.82 1.82 0 0 1 .22.27s-.09-.07-.26-.23l-.69-.73-2.43-2.77-1.58-2a13.25 13.25 0 0 1-1.51-2.51 12.22 12.22 0 0 1-1-6.59 13.51 13.51 0 0 1 .9-3.36A28.61 28.61 0 0 1 59 65.05l2.5-4.84a15.52 15.52 0 0 0 1.12-3.48 9.94 9.94 0 0 0 .14-1 1.66 1.66 0 0 1 .03-.33z" class="U"/><path d="M525.65 195.41l-1.08-.32c-5.06 2.09-8.4 7.07-10.14 12.25s-2.17 10.7-3.19 16.08-2.76 10.84-6.56 14.78a60.44 60.44 0 0 0 7.86 5.72 6.14 6.14 0 0 0 2.92 1.14c1.69.07 3.13-1.14 4.28-2.37 5.69-6.07 6.39-17 7-25.3s1.26-13.99-1.09-21.98z" class="T"/><path d="M521.59,198.55S509.23,241.76,510,242.3s3.24,2,3.24,2l11.27-45.21Z" opacity=".2"/><path d="M529.69,187.94a3.71,3.71,0,0,0-3.33-3.29,5.29,5.29,0,0,0-4.48,2,9.59,9.59,0,0,0-2,4.65c-.39,2.36-.07,5.14,1.88,6.51a4.73,4.73,0,0,0,5.16-.07,7,7,0,0,0,2.87-4.49,13.44,13.44,0,0,0-.18-5.43" class="T"/><path d="M525.59 195.1a3.56 3.56 0 0 1-.61-1.5 9.17 9.17 0 0 1-.07-3.92 9.38 9.38 0 0 1 1.54-3.59 3.76 3.76 0 0 1 1.13-1.16 9.83 9.83 0 0 1-.84 1.35 10.79 10.79 0 0 0-1.42 7.25 11.43 11.43 0 0 1 .27 1.57zm-1.81 3.99c0 .06-.24.2-.69.22a2.53 2.53 0 0 1-2.53-2.09c-.07-.45 0-.72.08-.72s.18 1.09 1.1 1.86a4.83 4.83 0 0 0 2.04.73z" class="S"/><path d="M588.63 139.53l9.27 20.02-20.63-11.87 11.36-8.15z" class="W"/><path d="M421.31 75.91l27.91 36.75 12.04-3.2 6.06 3.44 10.48-19.27-6.3-3.31-4.67-11.83-45.52-2.58z" class="X"/><g class="S"><path d="M421.31 75.91l45.53 2.44h.1v.08l4.67 11.82-.07-.08 6.31 3.31.14.07-.08.14-5.35 9.84-5.13 9.43-.08.15-.14-.08-6.05-3.45h.11l-12 3.19h-.09l-.06-.08-27.8-36.83 28 36.66h-.15l12-3.2h.06 0l6.06 3.44-.21.06q2.51-4.62 5.13-9.44l5.35-9.83.06.21-6.3-3.32h-.05v-.05l-4.57-11.84.12.09zm33.5 10.7a6.57 6.57 0 0 1 2.7 9 6.82 6.82 0 0 1-9.12 2.8 6.57 6.57 0 0 1-2.69-9 6.81 6.81 0 0 1 9.11-2.8z"/><path d="M421.31 75.91c0-.07 6.87 3.29 15.27 7.51l15.12 7.79c-.04.08-6.88-3.29-15.27-7.51l-15.12-7.79z"/></g><g class="T"><path d="M639.49 188.43h0a10.87 10.87 0 0 1-14.49 4.49l-151.83-77.53 10.23-18.81 151.74 77.48a10.48 10.48 0 0 1 4.35 14.37z"/><path d="M485.24 95.55l-12.03 22.12-7.69-4.04 12.03-22.12 7.69 4.04z"/></g><path d="M474.03 116.16l10.23-18.81 2.87 1.49-12.08 17.85-1.02-.53z" class="Y"/><path d="M468.81 107.57l11.13-2.76 1.79-2.81-11.43 2.83-1.49 2.74z" fill="#fff" opacity=".5"/><path d="M578.06,145.62a22.59,22.59,0,0,1,.56,23.86Z" opacity=".2"/><path d="M550 383c.09.18 1-.12 2.13-.06s2 .39 2.12.21-.76-.87-2.09-.91-2.3.55-2.16.76zm-2.54-15.51c.16.12.81-.59 1.82-1.11s1.94-.66 1.94-.86-1.09-.38-2.27.25-1.66 1.64-1.49 1.72z" class="S"/><path d="M549.17,366.91l1.2,21.06s-21,8.3-21.17,12.21l40.93-.86-.52-32.9Z" class="a"/><path d="M563,385.93a1.68,1.68,0,0,1,1.19,1.89,1.6,1.6,0,0,1-1.85,1.2,1.76,1.76,0,0,1-1.26-2,1.68,1.68,0,0,1,2.07-1" class="V"/><path d="M570.19 400.38V396l-39.41 2.08s-1.81.83-1.58 2.11zm-20.49-12.6c0 .2 1 .27 2 .89s1.54 1.45 1.72 1.37-.14-1.23-1.36-2-2.41-.44-2.36-.26zm-4.25 1.86c-.05.2.83.52 1.52 1.35s.91 1.72 1.11 1.71.31-1.15-.58-2.16-2.05-1.09-2.05-.9zm-2.33 5.19c.18 0 .44-1-.1-2.05s-1.48-1.5-1.56-1.33.51.74.93 1.64.53 1.73.73 1.74zm34.12-214.4s9.35 16.07 10.63 30.45c1.17 13-7.06 27.91-7.06 27.91l-14.21 53.52 4.19 91.5-22.73 1.19L535 280.08l4-97.64z" class="S"/><path d="M538.8,354l11.51,17.68S536.2,389.29,538,392.76l35.09-21.08-16.8-28.29Z" class="a"/><path d="M560.25,363.61a1.67,1.67,0,0,1,2,1,1.61,1.61,0,0,1-1,2,1.77,1.77,0,0,1-2.09-1.11,1.67,1.67,0,0,1,1.28-1.93" class="V"/><path d="M573.1 371.68l-1.81-2.78-33 21.25s-1.15 1.62-.31 2.61zm-23.47.14c.11.16 1-.27 2.19-.23s2.06.5 2.17.33-.73-1-2.15-1-2.34.76-2.21.9zm-2.76 3.73c.06.19 1 0 2 .41s1.65 1 1.81.93-.3-1.14-1.58-1.59-2.33.08-2.23.25zm.55 5.66c.18-.06-.1-1.06-1.1-1.73s-2-.57-2-.38.82.39 1.63 1 1.29 1.2 1.47 1.11zm-19.59-194.37s-27.65 99.49-21.71 110.63 36.45 73.15 36.45 73.15l25.62-14.12-29.28-68.39 22.26-49s10.66-9.29 14.78-22.28-3-34.43-3-34.43h-44.5z" class="S"/><g class="U"><path d="M577.24 203.1a6.48 6.48 0 0 1 .17.76l.38 2.28a55.77 55.77 0 0 1 .54 8.75 35.8 35.8 0 0 1-.69 6.26 18.94 18.94 0 0 1-1 3.44 22.42 22.42 0 0 1-1.79 3.42 28.62 28.62 0 0 1-13.57 11.35l.14-.12-22.22 49V288l1.27 3 27.93 65.45.07.16-.16.08-18.79 10.26-5.12 2.76-1.34.7-.46.23.43-.28 1.32-.75 5.07-2.85 18.71-10.4-.09.24-28.07-65.39-1.28-3v-.11-.11l22.3-48.93v-.09h.1a28.3 28.3 0 0 0 13.4-11.12 22.34 22.34 0 0 0 1.79-3.36 19.52 19.52 0 0 0 1-3.38 34.39 34.39 0 0 0 .74-6.19 58.61 58.61 0 0 0-.42-8.73l-.3-2.28-.06-.81zm-38.33 1.64a2.73 2.73 0 0 1 .52-.05l1.56-.12 6-.4 21.29-1.32h.26v.26 20.77.12l-.1.09-3.2 2.74-10.92 9.32-.13.11-.16-.08-14.19-7.08-.12-.06v-.14l-.63-17.6-.15-4.87v-1.26-.42a2.84 2.84 0 0 1 .05.47 8.33 8.33 0 0 0 .08 1.3l.27 4.91.85 17.45-.12-.19 14.22 7H554l10.9-9.34 3.21-2.74-.1.21v-20.77l.26.24-21.15 1.06-6 .28-1.61.06z"/><path d="M568.17 207a5.14 5.14 0 0 1-1.14.23l-3.12.43c-2.64.32-6.3.68-10.35.93s-7.73.35-10.38.36h-3.15a4.69 4.69 0 0 1-1.16-.1 5.68 5.68 0 0 1 1.15-.11l3.15-.14 10.36-.51 10.34-.77L567 207a4.52 4.52 0 0 1 1.17 0zm-39.66-70.8a37 37 0 0 0-2.9 17.8c.42 3.9 2.72 13.83 2.72 13.83l-.32 19 50.4-3.88c-.04-.11.55-23.94.09-40.7s-7.82-34-7.82-34-6.71-3.87-11.75-3.45-26.13 2.79-26.13 2.79z"/><path d="M532 108.21s-8.43 1.22-16.24 13.49L504 139.61l23 15s12.67-19.11 14.26-23.21 3.32-23.57-9.26-23.19zm33.69-1.28s7.28 2.88 10.29 7.51c2 3 14 24.15 14 24.15l-13.84 9.64-10.45-29.35z"/></g><path d="M525.19,157.31l2.66,1.2s12.58-16.66,13.07-26.06l-13.81,21.4-2.32-1.23Z" opacity=".2"/><g class="S"><path d="M576.6 121.7a2.32 2.32 0 0 1 .1.47l.21 1.36.62 5c.47 4.24 1 10.12 1.32 16.63s.45 12.42.48 16.68v5.06 1.38a.24.24 0 1 1-.1 0q0-.56-.06-1.38c0-1.26-.08-3-.14-5l-.62-16.66c-.34-6.5-.79-12.38-1.17-16.63l-.47-5-.12-1.37a1.48 1.48 0 0 1-.05-.54zm-3.68-38.15c-1-5.37-3.26-10.43-4.95-15.64-2-6.06-3.49-12.78-8.38-16.86-3.23-2.7-7.46-3.81-11.59-4.65-3.73-.76-7.6-1.35-11.33-.57-1.86.38-3.64 1.1-5.49 1.55-2.15.52-4.41.68-6.41 1.6-4.15 1.91-6.26 6.64-6.89 11.16s-.1 9.14-.75 13.66a62.23 62.23 0 0 1-1.42 6.41c-1.91 4.12-4 8.25-3.7 12.66.21 3.2 1.68 6.16 2.39 9.29s.41 6.88-2.11 8.85a4.81 4.81 0 0 0 5.88.31A4.72 4.72 0 0 0 520 108a3.31 3.31 0 0 0 1.27 1.05 8 8 0 0 0 4.12.32c4-.38 8.19-.85 11.68-2.79l19.66-1.68c5.07 2 11.2-.79 14.11-5.42s3.16-10.56 2.08-15.93z"/><path d="M533.06 50c-1.91.38-3.91.1-5.78.62a9.34 9.34 0 0 0-5.75 5.76 27.85 27.85 0 0 0-1.44 8.28l-.53 7.54a23.43 23.43 0 0 1-.67 4.8c-.5 1.74-1.85 6.36-1.93 8.62a24.37 24.37 0 0 0 5.61 17c1.74 2 9.81 2 12.38 2.53 1.13-1 4-1 5.09-2 .2-.17-8.21-6.6-8.11-6.83a1.79 1.79 0 0 0-.11-1.22 60.13 60.13 0 0 1 2.53-44.76"/></g><path d="M555.81 107.57l2.94-46.21h0a3.88 3.88 0 0 0-3.45-3.93l-20.52-5.23c-6.58-.71-11 7.37-11.4 14-.48 7.33-.77 16.3.09 21.77 1.72 11 10.15 12.42 10.15 12.42l.69 7.39s5.34-.94 9.28-1.37c8.75-.97 12.22 1.16 12.22 1.16z" class="W"/><path d="M525.93 74.39a1.4 1.4 0 0 0 1.35 1.42 1.34 1.34 0 0 0 1.46-1.27 1.4 1.4 0 0 0-1.35-1.42 1.34 1.34 0 0 0-1.46 1.27zm.07-3.23c.17.18 1.24-.61 2.76-.6s2.63.77 2.79.58-.09-.41-.58-.76a3.81 3.81 0 0 0-2.23-.7 3.66 3.66 0 0 0-2.2.71c-.54.35-.68.69-.54.77zm13.87 3.41a1.41 1.41 0 0 0 1.36 1.43 1.35 1.35 0 0 0 1.45-1.27 1.41 1.41 0 0 0-1.35-1.43 1.36 1.36 0 0 0-1.46 1.27zm1-3.41c.17.18 1.25-.61 2.76-.6s2.63.77 2.8.58-.1-.41-.58-.76a3.84 3.84 0 0 0-2.24-.7 3.66 3.66 0 0 0-2.2.71c-.47.35-.63.69-.54.77zm-5.54 11.24a10.37 10.37 0 0 0-2.46-.45c-.39 0-.75-.12-.82-.38a2 2 0 0 1 .26-1.15l1.16-3 2.59-7.71c-.17-.06-1.61 3.29-3.21 7.49l-1.1 3a2.21 2.21 0 0 0-.21 1.52 1 1 0 0 0 .64.57 2.36 2.36 0 0 0 .66.09 9.41 9.41 0 0 0 2.49.02z" class="S"/><path d="M533.62 100.36A29.62 29.62 0 0 0 549 96.47s-4 8.37-15 7.31zm6.83-14.75a2.85 2.85 0 0 0-2-1.07 3.16 3.16 0 0 0-2.83 1.16l-.08.06a.59.59 0 0 0 0 .65 1.9 1.9 0 0 0 .5.52 6.61 6.61 0 0 0 2.24 1.35 2.13 2.13 0 0 0 2.3-.58 1.83 1.83 0 0 0-.13-2.09z" class="Z"/><path d="M539.8 83.46c-.25 0-.25 1.64-1.67 2.8s-3.16 1-3.18 1.21.39.33 1.13.35a4.18 4.18 0 0 0 2.66-.92 3.6 3.6 0 0 0 1.26-2.35c.1-.69-.09-1.1-.2-1.09zm.14-17.73c.15.42 1.67.22 3.45.44s3.22.71 3.45.34c.11-.18-.14-.57-.72-1a6.05 6.05 0 0 0-5.26-.59c-.65.29-.98.62-.92.81zm-14.01.6c.26.34 1.31 0 2.57 0s2.32.24 2.56-.12c.11-.17-.06-.52-.52-.85a3.72 3.72 0 0 0-4.14.12c-.4.33-.59.68-.47.85z" class="S"/><path d="M516.64 110a2.81 2.81 0 0 1-.22-.65c-.13-.43-.3-1.07-.47-1.91a34.71 34.71 0 0 1-.74-7.18 38.23 38.23 0 0 1 1.54-10.59c1-3.89 2.63-8 3.35-12.6s.5-9 1.06-13a20.13 20.13 0 0 1 3.74-10 11.71 11.71 0 0 1 5.92-4.07 6.52 6.52 0 0 1 2.63-.27 14 14 0 0 0-2.57.48 11.75 11.75 0 0 0-5.67 4.1 20 20 0 0 0-3.55 9.82c-.53 4-.33 8.41-1 13s-2.34 8.79-3.4 12.65a39 39 0 0 0-1.64 10.46 38.6 38.6 0 0 0 .56 7.14c.14.84.27 1.48.36 1.92a2.82 2.82 0 0 1 .1.7z" class="U"/><path d="M531.69 51.46a2.64 2.64 0 0 1 1.12-1.54 15.68 15.68 0 0 1 12-2.73 27.92 27.92 0 0 1 11.45 5c3 2.09 5.84 4.63 7.37 8a26.65 26.65 0 0 1 1.78 7.51c.87 6.34 2.57 12.69 2.51 19.09 0 2.49.43 6.69 0 9.76-.46 3.28-3.64 7.28-6.87 8l-7.28.72s3.94-13.6 3.63-18.5c-.26-4.3-.22-9-.71-13.28a2.4 2.4 0 0 0-.25-1 2.31 2.31 0 0 0-1-.77l-4.55-2.33a43.82 43.82 0 0 1-4.34-2.39 39.5 39.5 0 0 1-4.3-3l-5.73-4.71a22.86 22.86 0 0 1-3.58-4.29 5.86 5.86 0 0 1-1-4.62" class="S"/><path d="M556.12 76.43a3.21 3.21 0 0 1 4.7-2.73c1.11.64 2 1.94 1.86 4.42-.27 6.63-6.87 5-6.87 4.8l.31-6.49z" class="W"/><path d="M557.94 80.49s.11.08.3.18a1.11 1.11 0 0 0 .86 0 2.84 2.84 0 0 0 1.43-2.5 3.75 3.75 0 0 0-.26-1.67 1.34 1.34 0 0 0-.83-.92.58.58 0 0 0-.69.29c-.1.18-.06.31-.1.32s-.13-.11-.07-.39a.72.72 0 0 1 .28-.4.86.86 0 0 1 .64-.14 1.62 1.62 0 0 1 1.17 1.07 3.93 3.93 0 0 1 .32 1.87 3 3 0 0 1-1.8 2.79 1.23 1.23 0 0 1-1.05-.22c-.2-.12-.23-.27-.2-.28z" class="Z"/><path d="M567.11 66a22.82 22.82 0 0 0-4.59-2.82 34.58 34.58 0 0 0-5.52-1.85l-7-1.85a35.86 35.86 0 0 1-11.63-6.12 30.34 30.34 0 0 1-3-2.66 6.66 6.66 0 0 1-1-1.11 9.72 9.72 0 0 1 1.11.95l3.07 2.52A38.14 38.14 0 0 0 550.14 59l7 1.89a32.21 32.21 0 0 1 5.58 2 15.71 15.71 0 0 1 3.35 2.11 8 8 0 0 1 .8.75l.24.25z" class="U"/><path d="M564.29,57.43c2.53,8.19,6.67,15.68,9.21,21.6,1.18,2.74,2.88,6,3.42,8.9.6,3.22-.78,6.43-1.55,9.61s-.65,7.11,2,9a21.22,21.22,0,0,1-12.51,4.51,3.92,3.92,0,0,1-2.44-.53,1.53,1.53,0,0,1-.37-2.21,10.87,10.87,0,0,1-13.78,1.43c-.3-3.54-.53-7.37,1.42-10.34,1.59-2.42,4.47-4,5.51-6.65.63-1.61-.2-3.64.08-5.34s1.4-4,1.91-4.22h0A8.4,8.4,0,0,0,566.14,77l.14-.52Z" class="S"/><path d="M562.68 104.87a3.43 3.43 0 0 1 .34-.67l1-1.88a47.09 47.09 0 0 0 3.21-7.2 29.43 29.43 0 0 0 1.67-11.45 20.43 20.43 0 0 0-5.36-12.84c-3.51-3.66-8-5.8-12-7.64A90 90 0 0 1 541.09 58a24.79 24.79 0 0 1-6.09-5.13 14.28 14.28 0 0 1-1.27-1.74 5.05 5.05 0 0 1-.38-.66s.58.87 1.81 2.26a26 26 0 0 0 6.12 4.9 95.52 95.52 0 0 0 10.55 5.1c4 1.82 8.53 4 12.14 7.72a20.78 20.78 0 0 1 5.46 13.18 29.2 29.2 0 0 1-1.8 11.62 43.57 43.57 0 0 1-3.39 7.17c-.47.81-.86 1.43-1.13 1.84a5.32 5.32 0 0 1-.43.61z" class="U"/><path d="M542.22 130.09c-.09 0 .56-1.18 1-3.2a15 15 0 0 0-4.46-14.7c-1.53-1.41-2.7-2-2.65-2.08a3.2 3.2 0 0 1 .83.39 12.18 12.18 0 0 1 2 1.44 14.55 14.55 0 0 1 4.57 15 13.42 13.42 0 0 1-.9 2.33 2.84 2.84 0 0 1-.39.82z" class="S"/><path d="M524.62,195l21.65.48a1.84,1.84,0,0,1,1.8,1.91c-.44,10.73-2.42,64,2,64.81,4.92.92,10.12-8.45,17.35-5.19s15.78,6.93,19.81,2.85,7.27-51.3-8.82-77.13l-51.19,2.94Z" class="T"/><path d="M551.29 189.13a4.67 4.67 0 0 1-1.07 0l-2.88-.06-9.51.25-9.46 1.07-2.85.46a4.54 4.54 0 0 1-1 .12 4.55 4.55 0 0 1 1-.31l2.83-.61a82 82 0 0 1 9.47-1.22 80.17 80.17 0 0 1 9.56-.1l2.89.21a4.23 4.23 0 0 1 1.02.19zm10.89 6a9.3 9.3 0 0 1-1.49-.23l-4.06-.74a149.37 149.37 0 0 0-13.49-1.69 147.67 147.67 0 0 0-13.6-.42l-4.12.09a9.85 9.85 0 0 1-1.52 0 8.93 8.93 0 0 1 1.51-.18l4.12-.26a119.92 119.92 0 0 1 13.64.28 117.41 117.41 0 0 1 13.52 1.85l4 .88a9.33 9.33 0 0 1 1.49.42zm8.52 19a7.81 7.81 0 0 1 0 1.39l-.16 3.77a159.35 159.35 0 0 0 0 12.43c.2 4.86.51 9.23.84 12.4l.4 3.75a8.82 8.82 0 0 1 .1 1.38 7.26 7.26 0 0 1-.29-1.35c-.16-.88-.35-2.16-.55-3.74-.42-3.16-.83-7.56-1-12.43s0-9.28.19-12.46c.1-1.59.21-2.88.31-3.77a8.55 8.55 0 0 1 .16-1.37zm7.01 32.69c-.14 0-1-9.54-2-21.32l-1.5-21.36c.14-.01 1 9.53 2 21.32l1.5 21.36z" class="S"/><path d="M506.51 141.22l-1.87 2.49-.64-12.64-12.75-4.29s-3 31.78-2.54 36.71c.5 5.38.61 5.65 2 8.11 1.74 3.14 7.83 5.33 11.3 4.41s7.21-5.66 10-8.48c5.05-5.14 12.84-14.91 12.84-14.91z" class="W"/><path d="M506.51 141.22a14.46 14.46 0 0 1-1.39 2.13l-3.36 5.1-3.07 5.28a16 16 0 0 1-1.27 2.19 11.31 11.31 0 0 1 1-2.35 59.49 59.49 0 0 1 3-5.38 57.54 57.54 0 0 1 3.49-5.05 11.67 11.67 0 0 1 1.6-1.92z" class="Z"/><path d="M491.14 128.4l-5-2.8c-2-1.58-3.83-3.14-4.31-5.65h0l15.64 7.07c1.15.59 6.62 2.8 6.46 5.06z" class="W"/><path d="M543 188.14c5.35-.13 10.72-.1 16.07.24 1.08.07 2.49.49 2.45 1.57a1.45 1.45 0 0 1-1.07 1.22 4.28 4.28 0 0 1-1.71.06l-14.28-1.47a42.88 42.88 0 0 0-19.21 1.4l-.15-1.16s14.9-1.79 17.9-1.86z" opacity=".2"/><path d="M301.27 332.84l16.31-16.12-29.09-49.81a28.07 28.07 0 0 0-11.16-7.76l-10.25-3.9-25.46-4.67-18.08 7.12a10.81 10.81 0 0 0-6.77 11.3l4.73 39.8 2.78 51.84L290 349.29l-6.61-19.18.22-29.89z" class="T"/><path d="M284 328.84c.16 0 .2-10.36.09-23.13l-.47-23.12c-.16 0-.19 10.35-.09 23.13l.47 23.12z" class="S"/><path d="M281.57,336.44l-39.7-16a9.09,9.09,0,0,1-5.66-7.73l-2.9-38.05s.34-16.19-9.77-17L217.79,260c-7.43,3.95-9.27,14.77-8.26,23.12,1.44,11.88,2,28.68,3.64,39,1.32,8.43,6.38,15.1,14.4,18l48.89,10.58Z" class="T"/><g class="S"><path d="M233.88 280.48a5.14 5.14 0 0 1 .12.87l.26 2.51.84 9.23 1.17 13.69.34 4a29.57 29.57 0 0 0 .5 4.07 6.73 6.73 0 0 0 2 3.57 13.38 13.38 0 0 0 3.66 2.28c10.94 4.74 21 8.65 28.36 11.39l8.69 3.2 2.36.87a6.44 6.44 0 0 1 .82.34 4.67 4.67 0 0 1-.85-.23l-2.4-.78c-2.08-.69-5.07-1.72-8.75-3.05a495 495 0 0 1-28.45-11.26 13.57 13.57 0 0 1-3.81-2.38 7.2 7.2 0 0 1-2.11-3.83 29 29 0 0 1-.51-4.14l-.31-4-1.07-13.71-.67-9.24-.15-2.52a5.33 5.33 0 0 1-.04-.88zm-22.75 20.69a1.68 1.68 0 0 1 .08.51c0 .4.08.88.13 1.47l.48 5.4.88 8a75.34 75.34 0 0 0 1.8 9.64 14.17 14.17 0 0 0 1.93 4.59 26.63 26.63 0 0 0 3 3.65 25.44 25.44 0 0 0 6.35 4.76 24.54 24.54 0 0 0 7 2.29 2.45 2.45 0 0 1-.51 0 10 10 0 0 1-1.47-.19 19.39 19.39 0 0 1-5.16-1.74 24.88 24.88 0 0 1-6.53-4.76 27.46 27.46 0 0 1-3.05-3.69 14.77 14.77 0 0 1-2-4.75 70.51 70.51 0 0 1-1.77-9.72l-.78-8-.3-5.42v-1.47a3 3 0 0 1-.08-.57z"/><path d="M228.11 327.8a5.85 5.85 0 0 1 .72-2.11 13.65 13.65 0 0 1 8.06-6.88 5.77 5.77 0 0 1 2.2-.38c0 .09-.82.25-2.08.73a15.94 15.94 0 0 0-4.5 2.68 15.68 15.68 0 0 0-3.35 4l-1.05 1.96z"/></g><path d="M270.16 331.9c-4.25-2.4-8.4-4.24-12.84-6.25s-8.78-4.61-11.69-8.53c-5.48-7.38-4.85-18-10.46-25.32q.56 7.35 1.1 14.7c.33 4.49-.35 8.93 2.54 12 2.44 2.57 7.19 4.54 10.55 5.65 6.76 2.23 14 5.54 20.8 7.77m13.44-46.53l3.43 21.18-3.25-6-.18-15.18z" class="Y"/><path d="M234 275.73c-.09 0-.21-1.34-.95-3.38a17.05 17.05 0 0 0-12-10.81c-2.11-.52-3.47-.5-3.47-.58a3.61 3.61 0 0 1 1 0 14.69 14.69 0 0 1 2.57.33 16.46 16.46 0 0 1 12.25 11 14.61 14.61 0 0 1 .6 2.53 4.23 4.23 0 0 1 0 .91zm47.29-10.79a66.12 66.12 0 0 1 1.4 7.4 65 65 0 0 1 1 7.47 69.59 69.59 0 0 1-1.4-7.4 71.21 71.21 0 0 1-1-7.47z" class="S"/><path d="M325.53 384.29l31.74 8.87c1.84.65 1.53 7.38-1.33 7.28-1.35-.05-23.44.82-26.23.64s-11.2-3.49-11.2-3.49z" class="a"/><g class="S"><path d="M338.24 395.93a29.29 29.29 0 0 1 1.35-3.28 27 27 0 0 1 2.16-2.81 5.38 5.38 0 0 0-2.6 2.56 5.53 5.53 0 0 0-.91 3.53zm-3.18-1.45c.15 0 .46-1.41 1.27-3s1.78-2.71 1.67-2.81a5.73 5.73 0 0 0-2.12 2.58 5.85 5.85 0 0 0-.82 3.23zm-2.98-.79a20.89 20.89 0 0 1 .71-3.23 19.58 19.58 0 0 1 1.67-2.85 4.61 4.61 0 0 0-2.14 2.67 4.66 4.66 0 0 0-.24 3.41z"/><path d="M332.62 389.74a5.15 5.15 0 0 0 .33-2.27 10.81 10.81 0 0 0-.31-2.48 10.54 10.54 0 0 0-.45-1.42 1.83 1.83 0 0 0-.49-.75.83.83 0 0 0-1.05.05 1.38 1.38 0 0 0-.41.87 7.39 7.39 0 0 0 0 .8 7.15 7.15 0 0 0 .19 1.5 9.25 9.25 0 0 0 .94 2.33 6.29 6.29 0 0 0 1.37 1.84c.07 0-.44-.76-1.05-2a10.15 10.15 0 0 1-.8-2.27 7 7 0 0 1-.15-1.39c0-.47 0-1.06.28-1.28a.3.3 0 0 1 .41 0 1.24 1.24 0 0 1 .33.53 11.21 11.21 0 0 1 .46 1.34 12.61 12.61 0 0 1 .41 2.39l-.01 2.21z"/><path d="M332.58 389.43a4.24 4.24 0 0 0-2-.31 9 9 0 0 0-2.17.26 5 5 0 0 0-1.25.46 1.31 1.31 0 0 0-.69 1.4 1.54 1.54 0 0 0 1.1 1.08 2.76 2.76 0 0 0 1.37 0 5.16 5.16 0 0 0 2-1 5.34 5.34 0 0 0 1.42-1.4 13.38 13.38 0 0 0-1.62 1.1 5.35 5.35 0 0 1-1.87.81 2.44 2.44 0 0 1-1.14 0 1 1 0 0 1-.74-.72.79.79 0 0 1 .45-.85 4.82 4.82 0 0 1 1.11-.43 9.72 9.72 0 0 1 2.06-.36l1.97-.04zm10.35 6.82a16.3 16.3 0 0 1 .6-2.75 16.77 16.77 0 0 1 1.5-2.39 4.38 4.38 0 0 0-2.1 5.14zm-21.29 1.41a6.94 6.94 0 0 0 1.18.56 27.1 27.1 0 0 0 3.4 1 48.68 48.68 0 0 0 11.65 1.1c4.57-.05 8.69-.25 11.68-.37l3.53-.19a6.28 6.28 0 0 0 1.3-.14 5.6 5.6 0 0 0-1.3-.06h-3.54l-11.67.23a55 55 0 0 1-11.57-.94c-2.92-.53-4.62-1.28-4.66-1.19z"/><path d="M320.74 398.36c0 .07.88-.42 2.29-1a10.63 10.63 0 0 1 5.77-1 9.14 9.14 0 0 1 5 3 18.83 18.83 0 0 0 1.76 1.8 9 9 0 0 0-1.49-2 12.22 12.22 0 0 0-2-1.9 7.14 7.14 0 0 0-3.15-1.33 10.09 10.09 0 0 0-6 1.13 8.29 8.29 0 0 0-2.18 1.3z"/></g><path d="M289.42 377.2l-29.9 19.69c-1.56 1.17.23 6.77 2.92 5.8 1.27-.46 25.5-7.2 28.11-8.21s9.61-6.73 9.61-6.73z" class="a"/><g class="S"><path d="M280.85 392.15a6.76 6.76 0 0 0-5.18-4.73 32.24 32.24 0 0 1 2.9 2 30.77 30.77 0 0 1 2.28 2.73zm2.59-2.34a5.79 5.79 0 0 0-1.76-2.84 5.62 5.62 0 0 0-2.8-1.81c-.07.13 1.19.89 2.44 2.17s1.99 2.55 2.12 2.48zm2.56-1.66a5.71 5.71 0 0 0-4.11-5.07 20 20 0 0 1 2.45 2.21 20.41 20.41 0 0 1 1.66 2.86z"/><path d="M284.33 384.56c.08 0-.32-.82-.65-2.16a12.15 12.15 0 0 1-.34-2.4 11.38 11.38 0 0 1 0-1.42 1.19 1.19 0 0 1 .16-.61.29.29 0 0 1 .39-.09c.33.13.5.69.66 1.13a7 7 0 0 1 .28 1.38 10.32 10.32 0 0 1-.07 2.4l-.4 2.23a5.89 5.89 0 0 0 .75-2.17 8.76 8.76 0 0 0 .19-2.5 6.12 6.12 0 0 0-.28-1.48 4.67 4.67 0 0 0-.28-.76 1.37 1.37 0 0 0-.65-.7.81.81 0 0 0-1 .27 1.66 1.66 0 0 0-.24.86 9.26 9.26 0 0 0 0 1.49 10.17 10.17 0 0 0 .46 2.46 5.42 5.42 0 0 0 1.02 2.07z"/><path d="M284.27 384.25c0 .07.72-.27 1.88-.55a10.52 10.52 0 0 1 2.07-.29 4.63 4.63 0 0 1 1.18.08.79.79 0 0 1 .69.67 1 1 0 0 1-.49.92 2.47 2.47 0 0 1-1.07.36 5.25 5.25 0 0 1-2-.21 12.85 12.85 0 0 0-1.88-.55 5.55 5.55 0 0 0 1.78.9 5.27 5.27 0 0 0 2.18.33 2.83 2.83 0 0 0 1.31-.42 1.51 1.51 0 0 0 .71-1.37 1.29 1.29 0 0 0-1.08-1.12 5.07 5.07 0 0 0-1.33-.06 9.25 9.25 0 0 0-2.14.41 4.22 4.22 0 0 0-1.81.9zm-18.15 17.38c0 .05.48-.29.7-1.12a4.22 4.22 0 0 0-.54-3.13 11.25 11.25 0 0 0-1-1.44 5.58 5.58 0 0 0-1-1.05 1.77 1.77 0 0 0-.93-.39c-.24 0-.36.05-.36.08a2.71 2.71 0 0 1 1.05.58 6.87 6.87 0 0 1 .84 1.06l.9 1.41a4.51 4.51 0 0 1 .63 2.81 12.09 12.09 0 0 1-.29 1.19z"/><path d="M276.48 393.89a4.35 4.35 0 0 0-3.56-4.26 15.63 15.63 0 0 1 2.15 1.82 16.11 16.11 0 0 1 1.41 2.44zm20.71-5.12a10.2 10.2 0 0 0-1.26.87 37.78 37.78 0 0 1-3.56 2.18 46.52 46.52 0 0 1-5.66 2.51l-7.23 2.34-13.29 3.88-4 1.24a9.45 9.45 0 0 0-1.45.51 8 8 0 0 0 1.5-.32l4.06-1.08 13.33-3.74 7.26-2.39a41 41 0 0 0 5.66-2.64 28.64 28.64 0 0 0 3.5-2.33 8.4 8.4 0 0 0 1.14-1.03z"/><path d="M298.26 389.15a8.32 8.32 0 0 0-2.44-.65 10.14 10.14 0 0 0-6.07.74 7.35 7.35 0 0 0-2.6 2.24 12 12 0 0 0-1.35 2.41 9.17 9.17 0 0 0-.8 2.4 20 20 0 0 0 1.13-2.25 9.12 9.12 0 0 1 3.87-4.34 10.72 10.72 0 0 1 5.79-.84l2.47.29zm51.18-59.22s8.66 3.09 8.7 12.8c.07 18.6-37.59 39.11-37.59 39.11l-50.11-33.2-3.14-1.27S335 322 349.44 329.93z"/></g><g class="U"><path d="M295.82 365.41a8.39 8.39 0 0 0 1.31-.89l3.43-2.59c2.87-2.21 6.77-5.36 11-9s7.9-7 10.52-9.49l3.08-3a8.42 8.42 0 0 0 1.07-1.16 11 11 0 0 0-1.21 1l-3.18 2.87-10.61 9.37-10.87 9.07-3.36 2.78a9.61 9.61 0 0 0-1.18 1.04zm39.48-28.53a12.48 12.48 0 0 0-9.13 2.69c.09.14 1.91-1 4.44-1.76s4.69-.81 4.69-.93z"/><path d="M331 334a7.6 7.6 0 0 0-4.53 5.61c.15.05.69-1.51 2-3.06s2.59-2.47 2.53-2.55z"/></g><path d="M352.2 392.85c0-.06-.6-.18-1.29.39a4.69 4.69 0 0 0-1.45 2.91 5.7 5.7 0 0 0 .46 3.21c.35.76.74 1.12.78 1.08s-.2-.47-.45-1.21a6.65 6.65 0 0 1-.29-3 5.17 5.17 0 0 1 1.19-2.71c.53-.52 1.06-.59 1.05-.67z" class="S"/><path d="M345.86 303.5l-14.26 38.41a5.54 5.54 0 0 1-5.26 3.61l-78.47-1v-6l29.13 1.06 12.36-38.33a3.14 3.14 0 0 1 3-2.17l50.62.15a3.12 3.12 0 0 1 2.88 4.27z" class="V"/><path d="M345.86 303.5v-.12a1.88 1.88 0 0 0 .1-.36 3.08 3.08 0 0 0-1.41-3.29 2.94 2.94 0 0 0-1.42-.45h-1.75-21.12-14.79-8.32-4.36a3.49 3.49 0 0 0-2.09.46 3.05 3.05 0 0 0-1.3 1.71l-12.33 38.27v.09H277l-29.12-1.06.13-.13v6l-.12-.12 49.35.66 21.45.29 4.94.07h2.41a5.64 5.64 0 0 0 2.28-.33 5.39 5.39 0 0 0 3.14-3l1.54-4.09 9.41-25.24 2.56-6.84.91-2.38-.86 2.4-2.52 6.85-9.36 25.11-1.53 4.1a5.63 5.63 0 0 1-3.24 3.14 6.05 6.05 0 0 1-2.35.35h-2.41l-4.94-.06-21.46-.27-49.35-.64h-.12v-6.22h.13l29.13 1.06-.12.09 12.36-38.26a3.22 3.22 0 0 1 1.39-1.82 3.65 3.65 0 0 1 2.2-.49h4.36 8.32l14.79.06 21.12.1h1.75a3.27 3.27 0 0 1 1.46.47 3.16 3.16 0 0 1 1.38 1.9 3 3 0 0 1 0 1.46 2.89 2.89 0 0 1-.15.53z" class="S"/><path d="M311.06,318a3.54,3.54,0,0,1,3.82.4,3.08,3.08,0,0,1,.74,3.38,3.32,3.32,0,0,1-2.86,2,3,3,0,0,1-3-2,3.37,3.37,0,0,1,1.33-3.78" fill="#fff"/><path d="M329 383.93l-73.84-47.08c-2.66-1.51-9.77-5.88-16.77-4s-13.29 8.26-16.39 17.44c-1.8 5.25-2.64 14.2-3 20.91a31 31 0 0 0 7.26 22.11 19.8 19.8 0 0 0 8.83 6.27 26.2 26.2 0 0 0 2.28.6A33.31 33.31 0 0 0 272 385.62l1.65-2.51 47 16.77z" class="S"/><g class="U"><path d="M258.81 339.36s-.07 0-.18-.1l-.5-.34-1.91-1.28a37.07 37.07 0 0 0-7.51-3.82 20.56 20.56 0 0 0-5.65-1.19 16.24 16.24 0 0 0-6.51 1.06 21 21 0 0 0-6.25 3.79 28.61 28.61 0 0 0-2.78 2.73 20.81 20.81 0 0 0-2.3 3.27 33.62 33.62 0 0 0-3.05 7.28l-1.71 7.21a66.23 66.23 0 0 0-1.62 12.41 44.72 44.72 0 0 0 .64 8.41l.44 2.26c0 .24.08.43.11.59a1 1 0 0 1 0 .2s0-.06-.07-.19-.09-.35-.16-.58l-.51-2.25a42.16 42.16 0 0 1-.78-8.44 63.8 63.8 0 0 1 1.54-12.49l1.7-7.24a33 33 0 0 1 3.08-7.38 20.81 20.81 0 0 1 2.34-3.34 29.4 29.4 0 0 1 2.83-2.76 21.25 21.25 0 0 1 6.38-3.84 16.46 16.46 0 0 1 6.66-1.05 20.09 20.09 0 0 1 5.74 1.26 35.39 35.39 0 0 1 7.5 4l1.87 1.35.48.37z"/><path d="M241.41 371.15l.39.17 1.15.46 4.49 1.73 16.68 6.28 25.1 9.26 31.35 11.07.21.07.1-.19 5.53-10.56 2.82-5.39.11-.21-.2-.12-54-34.29-16.23-10.23-4.41-2.75-1.15-.7-.4-.23a4.53 4.53 0 0 0 .38.27l1.12.74 4.36 2.83 16.13 10.37 53.92 34.42-.08-.34-2.82 5.39-5.53 10.57.3-.13-31.35-11-25.14-9.14-16.73-6.14-4.51-1.67-1.18-.41a3 3 0 0 0-.41-.13z"/></g><path d="M245.07,220.86a36,36,0,0,1-3.14-7.52,12.25,12.25,0,0,1,.41-8,47.27,47.27,0,0,0,2.21-4.23c.72-2.07.43-4.51,1.71-6.29,2-2.77,6.29-2.13,9.39-3.58,2.42-1.13,4.1-3.57,6.64-4.39,2.22-.71,4.64,0,6.78.89s4.23,2.08,6.54,2.39a46,46,0,0,0,5,0,6.58,6.58,0,0,1,4.59,1.58c1.17,1.18,1.42,3.36.15,4.44,2.9-.5,5.64,2.4,5.6,5.35s-2.25,5.54-4.93,6.76a17.5,17.5,0,0,1-8.68,1.08c-8.32-.65-16.67-3.81-22.33-9.93" class="S"/><path d="M246.86 210.45l-5.67 41.18a12.36 12.36 0 0 0 11.17 14h0A12.36 12.36 0 0 0 265.69 255l.85-6s10.62.46 12.8-9.81c1.06-5 2.4-15.37 3.51-24.79a19.55 19.55 0 0 0-15.6-21.44l-1-.2c-10.83-1.54-18.18 6.82-19.39 17.69z" class="W"/><path d="M266.59,248.84a24.41,24.41,0,0,1-12.66-6.5s1.69,8,12.15,9.17Z" class="Z"/><path d="M278.23 223.14a1.51 1.51 0 0 1-1.72 1.2 1.45 1.45 0 0 1-1.25-1.63 1.51 1.51 0 0 1 1.72-1.2 1.42 1.42 0 0 1 1.25 1.63zm1.39-4.14c-.22.16-1.17-.89-2.75-1.2s-2.9.25-3 0 .19-.41.76-.68a4.13 4.13 0 0 1 2.48-.25 3.91 3.91 0 0 1 2.14 1.2c.39.48.48.86.37.93zm-16.15 1.59a1.5 1.5 0 0 1-1.71 1.2 1.43 1.43 0 0 1-1.25-1.63 1.5 1.5 0 0 1 1.71-1.2 1.43 1.43 0 0 1 1.25 1.63zm.53-4.41c-.22.16-1.17-.89-2.75-1.2s-2.9.25-3 0 .18-.41.76-.68a4 4 0 0 1 2.48-.25 4 4 0 0 1 2.14 1.19c.37.49.49.87.37.94zm3.41 12.88a11.05 11.05 0 0 1 2.66.05c.42 0 .81 0 .94-.23a2.14 2.14 0 0 0 0-1.25l-.58-3.31-1.08-8.59c.19-.04 1 3.77 1.76 8.48l.53 3.33a2.36 2.36 0 0 1-.11 1.62 1 1 0 0 1-.78.46 2.56 2.56 0 0 1-.7 0 10.93 10.93 0 0 1-2.64-.56zm-4.87.17c.26 0-.08 1.75 1.14 3.26s3.09 1.69 3.06 1.94-.47.25-1.25.11a4.35 4.35 0 0 1-2.57-1.51 3.75 3.75 0 0 1-.85-2.72c.07-.73.35-1.12.47-1.08zm3.12-19.17c-.24.4-1.78-.12-3.68-.27s-3.51.06-3.67-.37c-.08-.21.26-.56.95-.86a6.22 6.22 0 0 1 2.86-.4 6.14 6.14 0 0 1 2.75.89c.62.41.9.82.79 1.01zM280 214.3c-.35.3-1.37-.29-2.68-.57s-2.46-.24-2.64-.67c-.08-.2.17-.53.72-.77a4 4 0 0 1 4.29 1c.31.46.43.86.31 1.01z" class="S"/><path d="M246.18 218.25c-.16-.11-6.66-3.51-7.84 3.57s6.17 6.81 6.22 6.61 1.62-10.18 1.62-10.18z" class="W"/><path d="M242.84 225.39s-.13.06-.36.12a1.22 1.22 0 0 1-.92-.13 3.08 3.08 0 0 1-1-3 4.23 4.23 0 0 1 .64-1.71 1.46 1.46 0 0 1 1.09-.79.64.64 0 0 1 .67.46c.06.22 0 .35 0 .37s.17-.09.16-.4a.8.8 0 0 0-.2-.49 1 1 0 0 0-.66-.29 1.78 1.78 0 0 0-1.47.88 4.35 4.35 0 0 0-.76 1.9c-.19 1.44.32 2.9 1.29 3.36a1.29 1.29 0 0 0 1.16 0c.32-.11.39-.27.36-.28z" class="Z"/><g class="S"><path d="M284.89 204.82c-1.22 2.62-7.47 3.63-12.05 2.24-4.23-1.27-5.76-3.95-8.45-6.29-1.7-1.48-1.7-1.48-4.47-1.76-2.24-.24-4 2-5.74 3.48.94 5.63-1.56 11.21-4 16.37a2.89 2.89 0 0 1-1.14 1.46c-1 .47-2.11-.28-2.68-1.18a8.9 8.9 0 0 1-1-5 29.71 29.71 0 0 1 2.35-11.41 20.17 20.17 0 0 1 7.41-8.87 19.07 19.07 0 0 1 14.09-2.33 23.41 23.41 0 0 1 12.35 7.47 13.79 13.79 0 0 1 3.33 5.84m-14.42 17.1c.06 0 0-.61.33-1.64a6.81 6.81 0 0 1 2.5-3.64 6.65 6.65 0 0 1 6.27-.91 6.53 6.53 0 0 1 3.05 2.31 6.54 6.54 0 0 1 0 7.77 6.51 6.51 0 0 1-3.05 2.3 6.67 6.67 0 0 1-6.27-.9 6.81 6.81 0 0 1-2.5-3.64c-.29-1-.27-1.65-.33-1.65a1.25 1.25 0 0 0 0 .44 5.17 5.17 0 0 0 .14 1.26 6.81 6.81 0 0 0 2.48 3.91 7.09 7.09 0 1 0 0-11.22 6.87 6.87 0 0 0-2.48 3.91 5.17 5.17 0 0 0-.14 1.26 1.25 1.25 0 0 0 0 .44zm-16.8-2.94c.06 0 0-.61.32-1.65a6.88 6.88 0 0 1 2.51-3.64 6.67 6.67 0 0 1 6.27-.9 6.51 6.51 0 0 1 3.05 2.3 6.58 6.58 0 0 1 0 7.77 6.47 6.47 0 0 1-3.05 2.31 6.67 6.67 0 0 1-6.27-.9 6.88 6.88 0 0 1-2.51-3.64c-.28-1-.26-1.65-.32-1.65a1.25 1.25 0 0 0 0 .44 5.17 5.17 0 0 0 .14 1.26 6.78 6.78 0 0 0 2.48 3.91 7.07 7.07 0 0 0 10-1.39 7.06 7.06 0 0 0 0-8.44 7 7 0 0 0-10-1.39 6.75 6.75 0 0 0-2.48 3.91 5.17 5.17 0 0 0-.14 1.26 1.25 1.25 0 0 0 0 .44z"/><path d="M267.51 219.25c.08.14 1-.28 2 0s1.57 1.16 1.71 1.08 0-.3-.2-.66a2.56 2.56 0 0 0-1.34-1 2.49 2.49 0 0 0-1.65.07c-.38.26-.55.44-.52.51zm-23.36-2.06a22.09 22.09 0 0 0 5 .22 22.14 22.14 0 0 0 5-.36 22.41 22.41 0 0 0-5-.21 23.48 23.48 0 0 0-5 .35z"/></g><defs ><path id="B" d="M454.76 333.52c.08 3.56-2.37 6.49-5.46 6.53s-5.68-2.81-5.75-6.38 2.37-6.49 5.46-6.53 5.68 2.86 5.75 6.38z"/><path id="C" d="M222.01 213.78l-84.92-3.09 1.81-42.61 84.92 3.09-1.81 42.61z"/><path id="D" d="M212.38 271.7l-81.05.84-.41-43.86 81.05-.84.41 43.86z"/></defs></svg>