<svg xmlns="http://www.w3.org/2000/svg" viewBox="0 0 64.58 64.59"><defs><style>.cls-1{fill:#fff;}</style></defs><title>ui_designing</title><g id="Layer_2" data-name="Layer 2"><g id="Layer_1-2" data-name="Layer 1"><path class="cls-1" d="M32.26,64.59H3.55C1.24,64.59,0,63.36,0,61.07V24.36c0-2.29,1.24-3.52,3.55-3.52,4.64,0,9.29,0,13.93,0a.82.82,0,0,0,.93-.64q2.18-5.38,4.4-10.77a2.88,2.88,0,0,1,.38-.74c.54-.64,1.43-.42,1.8.45.74,1.78,1.46,3.57,2.19,5.35s1.58,3.8,2.32,5.72a.84.84,0,0,0,.94.63q15.3,0,30.59,0c2.31,0,3.55,1.23,3.55,3.52V61.07a3.16,3.16,0,0,1-3.49,3.52Zm-.33-38.53.3.8c.67,1.62,1.34,3.24,2,4.87a1.06,1.06,0,0,1-1,1.61,7.28,7.28,0,0,0-1,.14,5.22,5.22,0,0,0-3.94,6.11c.3,0,.6,0,.91,0a1,1,0,0,1,1.06,1.08c0,1.36,0,2.73,0,4.1a1,1,0,0,1-1.07,1.06c-.29,0-.59,0-.93,0l.9,13.49H56.2V26.06ZM18.82,59.35l.89-13.51h-.85a1,1,0,0,1-1.15-1.12c0-1.35,0-2.69,0-4a1,1,0,0,1,1.12-1.09c.31,0,.62,0,1,0V39.1c0-3.4-1.81-5.43-5.19-5.76a1,1,0,0,1-.93-1.53c.47-1.21,1-2.41,1.46-3.61.28-.7.57-1.39.86-2.12H5.24V59.35ZM17.21,22.92H3.45c-1,0-1.37.35-1.37,1.37V61.14c0,1,.35,1.36,1.37,1.36H61.13c1,0,1.37-.34,1.37-1.36V24.29c0-1-.35-1.37-1.37-1.37H31.25c-.18,0-.36,0-.54,0,.09.76.42,1,1.19,1,8.33,0,16.67,0,25,0,1.11,0,1.43.33,1.43,1.44V60c0,1.11-.33,1.43-1.43,1.43H4.56c-1.11,0-1.43-.32-1.43-1.43q0-17.33,0-34.63c0-1.11.32-1.43,1.43-1.44,3.82,0,7.64,0,11.45,0C16.79,24,17.11,23.72,17.21,22.92ZM22.92,15l-.13,0L16.1,31.36c4.09,1.27,5.93,4.07,5.8,8.19H26c-.13-4.19,1.75-7,5.79-8.2L25.12,15a.31.31,0,0,0-.12.26c0,4.2,0,8.41,0,12.62,0,.43.23.53.52.69A3.12,3.12,0,0,1,27,32.07a3.12,3.12,0,1,1-4.55-3.5.81.81,0,0,0,.51-.84c0-4.08,0-8.16,0-12.23ZM27,59.35c-.3-4.52-.6-9-.9-13.47H21.8l-.89,13.47ZM19.82,43.71h8.25v-2H19.82ZM25,31.26a1,1,0,1,0-1,1A1,1,0,0,0,25,31.26Z"/><path class="cls-1" d="M34.89,12.47c-.45-3.2-4.48-7.24-7.77-7.78,0,.17,0,.34,0,.5A1,1,0,0,1,26,6.25c-1.35,0-2.69,0-4,0-.81,0-1-.34-1.17-1.53-3.18.56-6.9,3.93-7.78,7.74l.55,0a1,1,0,0,1,1,1.05c0,1.37,0,2.74,0,4.1a1,1,0,0,1-1.06,1.09c-1.38,0-2.77,0-4.16,0a1,1,0,0,1-1-1q0-2.09,0-4.17a1,1,0,0,1,1.05-1h1.34c1.84-4.78,1.84-4.78,5.87-8.34H8.68a.71.71,0,0,0-.75.42A3,3,0,0,1,4.41,6.14,3.11,3.11,0,1,1,8,1.67a.8.8,0,0,0,.55.4c4.07,0,8.15,0,12.33,0,0-.37,0-.7,0-1a1,1,0,0,1,1-1Q24,0,26,0a1,1,0,0,1,1,1c0,.32,0,.64,0,1,.23,0,.42,0,.61,0,3.84,0,7.68,0,11.52,0A.76.76,0,0,0,40,1.63,3,3,0,0,1,43.48.11a3.11,3.11,0,0,1,0,6A3.14,3.14,0,0,1,40,4.66c-.12-.2-.37-.46-.56-.47-2.67,0-5.34,0-8.2,0a13.84,13.84,0,0,1,5.91,8.34h1.29a1,1,0,0,1,1.15,1.11c0,1.34,0,2.69,0,4a1,1,0,0,1-1.1,1.1c-1.33,0-2.65,0-4,0a1,1,0,0,1-1.16-1.17c0-1.26,0-2.52,0-3.78,0-.9.34-1.24,1.24-1.29ZM22.94,4.14h2v-2h-2ZM10.47,14.61v2h2v-2Zm27,2v-2h-2v2ZM5.19,2.1a1,1,0,1,0,1,1A1,1,0,0,0,5.19,2.1Zm38.55,1a1,1,0,1,0-2.07.06,1,1,0,0,0,2.07-.06Z"/><path class="cls-1" d="M51.09,37.51h-3c-.82,0-1.21-.38-1.21-1.19,0-2,0-4,0-5.92,0-.82.38-1.21,1.18-1.21H54c.81,0,1.21.38,1.21,1.18,0,2,0,4,0,5.93,0,.84-.39,1.21-1.25,1.21ZM49,31.28v4.11h4.07V31.28Z"/><path class="cls-1" d="M51.09,38.55H54c.86,0,1.25.38,1.25,1.22,0,1.95,0,3.91,0,5.86,0,.86-.38,1.24-1.22,1.25H48.06a1,1,0,0,1-1.18-1.16c0-2,0-4,0-6,0-.8.4-1.17,1.22-1.18ZM49,40.66v4.09h4.09V40.66Z"/><path class="cls-1" d="M46.87,52c0-1,0-1.91,0-2.86s.38-1.23,1.23-1.24H54c.85,0,1.23.39,1.23,1.24,0,2,0,3.9,0,5.86,0,.85-.38,1.23-1.23,1.23H48.11c-.85,0-1.23-.38-1.23-1.23C46.87,54,46.87,53,46.87,52ZM49,54.13h4.08V50H49Z"/><path class="cls-1" d="M59.4,41.7h2v2h-2Z"/></g></g></svg>