<svg xmlns="http://www.w3.org/2000/svg" xmlns:xlink="http://www.w3.org/1999/xlink" viewBox="0 0 435.11 421.58" xmlns:v="https://vecta.io/nano"><style><![CDATA[.P{fill:#1a2e35}.Q{fill:#3663fd}.R{fill:#fff}.S{fill:#e1e1e1}.T{fill:#375a64}.U{opacity:.3}.V{fill:#ffc19d}]]></style><path d="M47.63 80.06h120.06v80.39H47.63z" class="R"/><g class="S"><path d="M167.69 160.45v-1.46-4.24-16.17l-.09-58.52.17.18h-120 0l.21-.22v80.39l-.2-.2 86.49.1 24.71.05h6.58 0-6.53l-24.67.05-86.62.1h-.2v-.2-80.39-.21h.23 120.05.17v.17l-.09 58.63v16.13 4.21c0 .96-.21 1.6-.21 1.6z"/><path d="M47.63 87.24c0-.12 26.85-.22 60-.22l60 .22c0 .12-26.85.21-60 .21s-60-.09-60-.21z"/><path d="M52.37 83.62a1 1 0 1 1-1-1 1 1 0 0 1 1 1z" class="U"/><circle cx="54.7" cy="83.62" r=".96" class="U"/><path d="M58.91 83.62a1 1 0 1 1-1-1 1 1 0 0 1 1 1z" class="U"/><path d="M57.95 95.62h32.03v32.03H57.95zm93.27 9.05c0 .12-12.49.22-27.89.22s-27.9-.1-27.9-.22 12.49-.21 27.9-.21l27.89.21zm0 5.96c0 .11-12.49.21-27.89.21s-27.9-.1-27.9-.21 12.49-.22 27.9-.22l27.89.22zm0 5.95c0 .12-12.49.21-27.89.21s-27.9-.09-27.9-.21 12.49-.22 27.9-.22l27.89.22zm-22.81 5.95a7.19 7.19 0 0 1-1.3.08l-3.53.07-11.66.06c-4.55 0-8.68 0-11.66-.06l-3.53-.07a7.06 7.06 0 0 1-1.3-.08 7.5 7.5 0 0 1 1.3-.09l3.53-.06 11.66-.07 11.66.07 3.53.06a7.65 7.65 0 0 1 1.3.09zm-68.46 15.91H75v15.05H59.95zm27.3 0h15.05v15.05H87.25zm27.29 0h15.05v15.05h-15.05zm27.3 0h15.05v15.05h-15.05zm244.62-38.03a4.61 4.61 0 0 1-.66 1.36 6.12 6.12 0 0 1-6.15 2.57 6.18 6.18 0 0 1-3-1.41 6 6 0 0 1-1.18-1.36 6.15 6.15 0 0 1-.76-1.71 6.34 6.34 0 0 1 .19-3.89 6.24 6.24 0 0 1 2.47-3 6.29 6.29 0 0 1 3.5-1 6.18 6.18 0 0 1 5.16 3 6.08 6.08 0 0 1 .82 4 4.66 4.66 0 0 1-.42 1.45s.18-.51.28-1.47a6.07 6.07 0 0 0-.89-3.85 6 6 0 0 0-8.3-1.85 5.91 5.91 0 0 0-2.52 6.53 5.49 5.49 0 0 0 .72 1.62 5.34 5.34 0 0 0 1.1 1.3 6 6 0 0 0 8.8-1c.63-.79.8-1.31.84-1.29zm5.72 5.78h.22l.64.08 2.54.34h-.06l2-5.31v.11l-2.86-1.9h0v-.07a13.86 13.86 0 0 0-.11-3.67v-.06h.06l2.74-2v.15L395 88.61l.15.08-3.36.67h-.09l-.05-.07a14 14 0 0 0-2.65-2.51h-.07v-.09l.49-3.39.1.17-5.3-2 .2-.06-1.91 2.85-.05.08h-.1a14.15 14.15 0 0 0-3.66.1h-.1l-.06-.08-2.05-2.75.21.06-5.19 2.3.1-.19.66 3.36v.11l-.09.06a14 14 0 0 0-2.51 2.64h0l-.16.07h-.21-.22l-.42-.07-.85-.12-1.69-.25.18-.11-2 5.3-.06-.21 2.84 1.91.09.06v.1a13.49 13.49 0 0 0 .09 3.65v.11l-.08.06-2.75 2v-.2l2.3 5.19-.18-.09 3.37-.66h.09l.06.08a14 14 0 0 0 2.64 2.52l.08.06v.09l-.5 3.39-.09-.16 5.29 2-.16.05 1.92-2.84v-.06h.08a13.84 13.84 0 0 0 3.66-.09h.07v.06l2 2.75h-.12l5.2-2.28v.09l-.64-3.37h0 0a15.13 15.13 0 0 0 2-1.93l.44-.53a1.45 1.45 0 0 1 .14-.18s0 .07-.12.19a5.83 5.83 0 0 1-.42.55 13.1 13.1 0 0 1-2 2v-.06l.68 3.36v.06h-.06l-5.18 2.32h-.07l-.05-.06-1.86-2.84h.11a13.93 13.93 0 0 1-3.73.1h.12l-1.91 2.85-.05.09h-.1l-5.3-2h-.11v-.11l.49-3.4.06.15a14.09 14.09 0 0 1-2.72-2.58l.16.06-3.37.66h-.12l-.06-.12-2.3-5.18-.06-.12.11-.08 2.75-2-.07.16a14.24 14.24 0 0 1-.09-3.75l.07.17-2.88-2.05-.11-.08v-.13l2-5.29.05-.13h.14l1.69.24.85.13.42.06h.22.1.11l-.17.07h0A14.51 14.51 0 0 1 372 87l-.06.17-.66-3.37v-.13l.13-.06 5.19-2.3.12-.05.08.11 2.05 2.75-.16-.07a14.32 14.32 0 0 1 3.74-.09l-.15.07 1.91-2.84.07-.11h.12l5.29 2h.12v.12l-.5 3.39-.06-.14a14.18 14.18 0 0 1 2.7 2.58l-.14-.05 3.37-.65h.11v.1l2.29 5.2v.09l-.08.06-2.75 2v-.11a14.23 14.23 0 0 1 .08 3.73v-.1l2.84 1.92h.06v.06l-2.07 5.29h0 0l-2.51-.39-.65-.11z"/><path d="M422.36 90.05a11.46 11.46 0 0 1-2.12 2.22l.55 2.8-4.3 1.9-1.7-2.28a11.68 11.68 0 0 1-3.07.08l-1.59 2.36-4.39-1.69.41-2.82a11.71 11.71 0 0 1-2.22-2.11l-2.79.55-1.91-4.3 2.28-1.7a11.26 11.26 0 0 1-.07-3.07l-2.37-1.59 1.7-4.39 2.81.41a11.45 11.45 0 0 1 2.12-2.22l-.55-2.79 4.3-1.91 1.7 2.28a11.65 11.65 0 0 1 3.07-.08l1.58-2.36 4.39 1.66-.41 2.82A11.17 11.17 0 0 1 422 76l2.8-.56 1.91 4.31-2.29 1.7a11.65 11.65 0 0 1 .08 3.07l2.36 1.58-1.69 4.39-2.81-.41zm-4.76-4.8a5 5 0 1 0-6.53 2.9 5 5 0 0 0 6.53-2.9zm-13.79-21.42a17.93 17.93 0 0 1-3.31 3.48l.86 4.38-6.75 3-2.67-3.58a18 18 0 0 1-4.81.13l-2.48 3.7-6.89-2.65.65-4.42a17.74 17.74 0 0 1-3.49-3.32l-4.38.87-3-6.75 3.59-2.67a18 18 0 0 1-.12-4.81l-3.71-2.49 2.7-6.89 4.41.64a18.29 18.29 0 0 1 3.28-3.45l-.86-4.38 6.74-3 2.67 3.58a18 18 0 0 1 4.81-.13l2.48-3.7 6.89 2.63-.64 4.42a17.7 17.7 0 0 1 3.48 3.32l4.38-.87 3 6.75-3.57 2.67a18.4 18.4 0 0 1 .12 4.81l3.7 2.48-2.65 6.89-4.42-.64zm-7.45-7.53a7.92 7.92 0 1 0-10.24 4.54 7.93 7.93 0 0 0 10.24-4.54z" fill-rule="evenodd"/><path d="M336.13 27.28a2.8 2.8 0 0 1 .5-.57l1.46-1.47 4.89-4.73v-.05.25l-4.93-4.64-1.47-1.44c-.34-.34-.52-.54-.5-.56a4.3 4.3 0 0 1 .59.47l1.54 1.35 5 4.57.13.13-.13.12h-.05l-5 4.67-1.53 1.38a5.16 5.16 0 0 1-.5.52zm-14.97-13.21a3 3 0 0 1-.5.58l-1.46 1.46-4.89 4.73v.05-.25l4.92 4.64 1.47 1.44c.34.34.52.54.5.56a4.3 4.3 0 0 1-.59-.47L319 25.46l-5-4.57-.14-.12.13-.13h.05l5-4.67 1.53-1.38a5.16 5.16 0 0 1 .59-.52zM325 30.39c-.08 0 1.49-4.45 3.51-9.87s3.74-9.77 3.83-9.74-1.49 4.45-3.51 9.86-3.74 9.78-3.83 9.75zm28.13 9.44v-.74-2.12-8L353 .17l.14.14h-48.67 0l.16-.17V39.8l-.15-.15 35.15.08h10 2.64 0-2.62-9.93l-35.26.27h-.16v-.15V.19 0h.17 48.67.14v.17l-.07 28.85v8 2.09c0 .48-.08.72-.08.72z"/><path d="M353.51 6.05c0 .1-11 .17-24.53.17s-24.55-.07-24.55-.17 11-.16 24.55-.16l24.53.16zm-45.08-2.89a.67.67 0 0 1-.66.66.66.66 0 0 1 0-1.32.67.67 0 0 1 .66.66z"/><circle cx="310.16" cy="3.16" r=".66"/><path d="M313.21 3.16a.67.67 0 0 1-.66.66.66.66 0 0 1 0-1.32.67.67 0 0 1 .66.66z"/></g><path d="M146.49 19.3h112.55v45.72H146.49z" class="R"/><g class="S"><path d="M259 65v-.82-2.37-9.1l-.07-33.43.13.13-112.55.05h0l.17-.18V65l-.17-.17 80.69.08h23.41 6.27 0-6.23-23.37l-80.81.08h-.17V65 19.28v-.18h.18l112.52.08h.12v.12l-.07 33.51v9.07 2.35c0 .54-.05.77-.05.77z"/><path d="M146.6 25.47c0-.1 25.16-.18 56.18-.18l56.19.18c0 .1-25.15.17-56.19.17s-56.18-.08-56.18-.17z"/></g><g fill="#ebebeb"><path d="M151.31 22.71a.82.82 0 1 1-.82-.82.82.82 0 0 1 .82.82zm2.8 0a.82.82 0 1 1-.82-.82.82.82 0 0 1 .82.82z" class="U"/><circle cx="156.05" cy="22.71" r=".82" class="U"/></g><path d="M156.05 32.9h27.19v27.18h-27.19zm95.2 7.28c0 .1-14 .18-31.24.18s-31.25-.08-31.25-.18S202.75 40 220 40l31.25.18zm0 5.54c0 .1-14 .18-31.24.18s-31.25-.08-31.25-.18 14-.18 31.25-.18l31.24.18zM229 51.26a2.18 2.18 0 0 1-.41 0h-1.17l-4.31.05-14.22.06-14.23-.06-4.31-.05h-1.17a2.18 2.18 0 0 1-.41 0 1.65 1.65 0 0 1 .41 0h1.17l4.31-.06 14.23-.05 14.22.05 4.31.06h1.17a1.65 1.65 0 0 1 .41 0z" class="S"/><path d="M435.11 395.2c0 .14-95.67.25-213.67.25s-213.69-.11-213.69-.25 95.65-.2 213.69-.2l213.67.2z" class="P"/><path d="M264.61 98.27h134.36v109.46H264.61z" class="S"/><path d="M255.06 105.23h134.36v109.46H255.06z" fill="#ebebeb"/><path d="M241.89 112.85h137.94v112.38H241.89z" class="R"/><path d="M379.84 225.23v-2.07-6l-.05-22.77-.11-81.54.21.21H241.96h0l.25-.25v112.38l-.23-.22 99.68.11 28.21.06h7.47 1.93 0-1.9-7.43l-28.15.06-99.83.11h-.22v-.22-112.38-.25h.27 137.93.21v.21l-.1 81.67-.06 22.72v6c0 1.39-.15 2.17-.15 2.17z" class="P"/><path d="M258.71 129.09l-1.48.54 1.48.54v.56l-2.12-.81v-.58l2.12-.8zm3.49-1.01v3.11h-.72v-1.28h-1.41v1.28h-.73v-3.11h.73v1.22h1.41v-1.22zm1.38.58h-1v-.58h2.72v.58h-1v2.53h-.72zm4.93 2.53v-1.87l-.92 1.54h-.32l-.91-1.5v1.83h-.68v-3.11h.6l1.16 1.93 1.15-1.93h.59v3.11zm1.41-3.11h.72v2.52h1.56v.59h-2.28zm4.71 1.26v.58l-2.12.81v-.56l1.48-.54-1.48-.54v-.55z" class="Q"/><path d="M257.45 214.31l-1.48.54 1.48.54v.61l-2.12-.81v-.57l2.12-.81zm1.55-1.64h.62l-1.47 4.19h-.62zm3.68.63v3.11H262v-1.28h-1.41v1.28h-.72v-3.11h.72v1.22H262v-1.22zm1.38.58h-1v-.58h2.71v.58h-1v2.53h-.72zm4.94 2.53v-1.87l-.91 1.54h-.33l-.91-1.5v1.83h-.68v-3.11h.6l1.17 1.93 1.14-1.93h.6v3.11zm1.41-3.11h.72v2.52h1.56v.59h-2.28zm4.7 1.27v.57L273 216v-.56l1.48-.54-1.48-.54v-.55z" fill="#e8505b"/><path d="M268.48 137.61l-1.58.61 1.58.61v.37l-2-.79V138l2-.79zm3.44-.94v3.11h-.45v-1.39h-1.79v1.39h-.44v-3.11h.44V138h1.79v-1.33zm3.19 2.72v.39h-2.26v-3.11H275v.38h-1.75v1h1.56v.38h-1.56v1zm2.7-.39h-1.66l-.34.78h-.46l1.41-3.11h.44l1.42 3.11h-.47zm-.16-.36l-.67-1.52-.67 1.52zm1.42-1.97h1.32a1.56 1.56 0 1 1 0 3.11h-1.32zm1.29 2.72a1.17 1.17 0 1 0 0-2.34h-.84v2.34zm4.21-1.39v.38l-2 .79v-.37l1.58-.61-1.58-.61v-.37zm-16.09 10.28l-1.58.61 1.58.61v.36l-2-.78v-.39l2-.78zm1.38-.56h-1.07v-.39h2.57v.39h-1.06v2.72h-.44zm1.99-.39h.44v3.11h-.44zm1.99.39h-1.07v-.39h2.58v.39h-1.07v2.72h-.44zm1.99-.39h.45v2.73H278v.38h-2.13zm4.9 2.73v.38h-2.26v-3.11h2.2v.39h-1.75v.95h1.56v.38h-1.56v1zm2.54-1.37v.39l-2 .78v-.36l1.58-.61-1.58-.61v-.37zm1.96-1.36h.44v2.73h1.69v.38h-2.13z"/><path d="M287.56 149.26a1.23 1.23 0 1 1 1.22 1.21 1.17 1.17 0 0 1-1.22-1.21zm2 0a.8.8 0 1 0-1.59 0 .8.8 0 1 0 1.59 0zm2.3-1.2v.42h-.1a.71.71 0 0 0-.74.8v1.17h-.42v-2.35h.4v.39a.91.91 0 0 1 .86-.43zm2.63 1.35h-1.92a.81.81 0 0 0 .86.69.91.91 0 0 0 .68-.29l.23.28a1.28 1.28 0 0 1-2.19-.83 1.16 1.16 0 0 1 1.18-1.2 1.13 1.13 0 0 1 1.16 1.22zm-1.92-.31h1.52a.76.76 0 0 0-1.52 0zm6.43-.01v1.35h-.43v-1.31c0-.46-.22-.68-.61-.68a.68.68 0 0 0-.71.78v1.21h-.42v-1.31c0-.46-.23-.68-.61-.68a.68.68 0 0 0-.71.78v1.21h-.43v-2.35h.41v.35a1 1 0 0 1 .82-.38.85.85 0 0 1 .81.44 1.07 1.07 0 0 1 .91-.44.91.91 0 0 1 .97 1.03zm1.9-1.73a.28.28 0 0 1 .29-.28.28.28 0 0 1 .29.27.29.29 0 0 1-.58 0zm.07.73h.43v2.35h-.4zm3.69 1.17a1.15 1.15 0 0 1-1.2 1.21 1 1 0 0 1-.82-.38v1.22h-.43v-3.22h.41v.37a1 1 0 0 1 .84-.4 1.15 1.15 0 0 1 1.2 1.2zm-.44 0a.79.79 0 1 0-.79.84.78.78 0 0 0 .79-.84zm.78.93l.17-.33a1.53 1.53 0 0 0 .83.24c.4 0 .56-.12.56-.32 0-.53-1.49-.07-1.49-1 0-.42.38-.71 1-.71a1.64 1.64 0 0 1 .86.22l-.18.33a1.29 1.29 0 0 0-.68-.18c-.37 0-.56.14-.56.32 0 .56 1.5.1 1.5 1 0 .43-.39.7-1 .7a1.64 1.64 0 0 1-1.01-.27zm4.67-2.1v2.35h-.41v-.35a1 1 0 0 1-.8.38.92.92 0 0 1-1-1v-1.35h.43v1.3c0 .47.23.7.63.7a.7.7 0 0 0 .73-.79v-1.21zm4.72 1v1.35H314v-1.31c0-.46-.22-.68-.6-.68a.68.68 0 0 0-.71.78v1.21h-.43v-1.31c0-.46-.22-.68-.61-.68a.68.68 0 0 0-.71.78v1.21h-.42v-2.35h.41v.35a1 1 0 0 1 .81-.38.87.87 0 0 1 .82.44 1.07 1.07 0 0 1 .91-.44.9.9 0 0 1 .92 1.03zm3.87-.81l-1.58.61 1.58.61v.36l-2-.78v-.39l2-.78zm1.63-1.58h.39l-1.47 4.19h-.38zm1.44 1.02h-1.06v-.39h2.57v.39h-1.07v2.72h-.44zm1.99-.39h.45v3.11h-.45zm2 .39h-1.07v-.39h2.58v.39h-1.07v2.72h-.44zm1.99-.39h.44v2.73h1.69v.38h-2.13zm4.9 2.73v.38H330v-3.11h2.19v.39h-1.75v.95H332v.38h-1.56v1zm2.54-1.37v.39l-2 .78v-.36l1.58-.61-1.58-.61v-.37zm-66.27 10.25l-1.58.61 1.58.61v.37l-2-.79v-.38l2-.79zm1.63-1.58h.39l-1.5 4.19h-.38zm3.37.64v3.12H273v-1.39h-1.78v1.39h-.45V158h.45v1.34H273V158zm3.19 2.72v.39h-2.26V158h2.2v.39h-1.76v1h1.57v.37h-1.57v1zm2.7-.39h-1.65l-.35.78h-.46l1.41-3.12h.44l1.42 3.12h-.47zm-.16-.36l-.67-1.52-.67 1.52zm1.43-1.97H282a1.56 1.56 0 1 1 0 3.12h-1.31zm1.28 2.73a1.17 1.17 0 1 0 0-2.34h-.84v2.34zm4.21-1.37v.38l-2 .79v-.37l1.58-.61-1.58-.61v-.37zm-25.91 8.83l-1.58.61 1.58.61v.37l-2-.79v-.38l2-.79zm3.44 1.33c0 .53-.41.84-1.2.84H261v-3.11h1.4c.71 0 1.11.3 1.11.8a.74.74 0 0 1-.42.7.75.75 0 0 1 .57.77zm-2.24-1.91v1h.92c.45 0 .71-.17.71-.49s-.26-.5-.71-.5zm1.79 1.87c0-.36-.27-.52-.76-.52h-1v1h1c.49.04.76-.12.76-.48zm.88-.68a1.66 1.66 0 1 1 1.66 1.6 1.58 1.58 0 0 1-1.66-1.6zm2.86 0a1.21 1.21 0 0 0-2.42 0 1.21 1.21 0 0 0 2.42 0zm1.12-1.55h1.32a1.56 1.56 0 1 1 0 3.11h-1.32zm1.29 2.72a1.17 1.17 0 1 0 0-2.34h-.84V170zm3.44-.69v1.08h-.44v-1.09l-1.23-2h.47l1 1.64 1-1.64h.4zm3.51-.67v.39l-2 .79v-.37l1.58-.61-1.58-.61v-.37zm-16.09 10.25l-1.58.61 1.58.61v.37l-2-.79v-.38l2-.79zm3.44-.95V181h-.45v-1.38h-1.79V181H261v-3.11h.44v1.34h1.79v-1.34zm1.64 0V181h-.44v-2.7h-.71v-.39zm2.75 1.37v.38l-2 .79v-.37l1.58-.61-1.58-.61v-.37zm2-1.37h.33v2.83h1.74v.26h-2.07z"/><use xlink:href="#B"/><path d="M276.53 178.67v.3h-.08a.75.75 0 0 0-.78.86V181h-.32v-2.34h.3v.46a.89.89 0 0 1 .88-.45zm2.58 1.33h-1.95a.87.87 0 0 0 .92.82.94.94 0 0 0 .71-.31l.18.2a1.15 1.15 0 0 1-.9.39 1.16 1.16 0 0 1-1.23-1.2 1.14 1.14 0 1 1 2.28 0s-.01.02-.01.1zm-1.95-.23h1.66a.83.83 0 0 0-.84-.78.81.81 0 0 0-.82.73zm6.46-.1V181h-.32v-1.3c0-.5-.24-.75-.67-.75a.75.75 0 0 0-.78.85v1.2h-.32v-1.3c0-.5-.24-.75-.67-.75a.75.75 0 0 0-.78.85v1.2h-.32v-2.34h.3v.43a1 1 0 0 1 .86-.44.83.83 0 0 1 .83.49 1 1 0 0 1 .93-.49.88.88 0 0 1 .94 1.02zm1.95-1.67a.23.23 0 0 1 .23-.23.23.23 0 1 1-.23.23zm.07.73h.36V181h-.31zm3.56 1.12a1.13 1.13 0 0 1-1.16 1.2 1 1 0 0 1-.89-.47v1.31h-.32v-3.21h.3v.47a1 1 0 0 1 .91-.48 1.13 1.13 0 0 1 1.16 1.18zm-.31 0a.88.88 0 1 0-.87.92.86.86 0 0 0 .87-.92zm.63.91l.14-.25a1.46 1.46 0 0 0 .83.26c.45 0 .63-.15.63-.38 0-.61-1.52-.13-1.52-1.06 0-.38.33-.66.93-.66a1.65 1.65 0 0 1 .83.21l-.14.26a1.23 1.23 0 0 0-.69-.2c-.42 0-.61.16-.61.38 0 .64 1.52.16 1.52 1.06 0 .4-.36.67-1 .67a1.6 1.6 0 0 1-.92-.29zm4.61-2.08V181h-.31v-.42a.93.93 0 0 1-.84.45.91.91 0 0 1-1-1v-1.36h.31V180a.65.65 0 0 0 .7.75.76.76 0 0 0 .8-.85v-1.23zm4.74.99V181h-.32v-1.3c0-.5-.25-.75-.67-.75a.75.75 0 0 0-.78.85v1.2h-.32v-1.3c0-.5-.25-.75-.67-.75a.76.76 0 0 0-.79.85v1.2H295v-2.34h.3v.43a.94.94 0 0 1 .86-.44.83.83 0 0 1 .83.49 1 1 0 0 1 .93-.49.89.89 0 0 1 .95 1.02zm4.13-1.95V181h-.3v-.46a1 1 0 0 1-.91.49 1.19 1.19 0 0 1 0-2.38 1 1 0 0 1 .89.46v-1.41zm-.31 2.13a.87.87 0 1 0-.87.92.86.86 0 0 0 .89-.92z"/><use xlink:href="#B" x="31.33"/><path d="M306.68,177.72H307V181h-.32Z"/><use xlink:href="#B" x="35.31"/><path d="M311.84 178.67v.3h-.07a.76.76 0 0 0-.79.86V181h-.32v-2.34h.34v.46a.87.87 0 0 1 .84-.45zm1.45 2.09l.14-.25a1.44 1.44 0 0 0 .83.26c.44 0 .63-.15.63-.38 0-.61-1.52-.13-1.52-1.06 0-.38.33-.66.93-.66a1.58 1.58 0 0 1 .82.21l-.14.26a1.2 1.2 0 0 0-.68-.2c-.43 0-.61.16-.61.38 0 .64 1.51.16 1.51 1.06 0 .4-.35.67-1 .67a1.58 1.58 0 0 1-.91-.29zm2.42-2.76a.23.23 0 0 1 .23-.23.22.22 0 0 1 .23.22.22.22 0 0 1-.23.23.22.22 0 0 1-.23-.22zm.07.73h.32V181h-.32zm2.43 2.15a.75.75 0 0 1-.49.17.62.62 0 0 1-.69-.68V179h-.42v-.27h.39v-.51h.32v.51h.71v.27h-.71v1.4a.37.37 0 0 0 .4.42.53.53 0 0 0 .35-.12zm3.5-1.31V181h-.3v-.36a.88.88 0 0 1-.81.39c-.52 0-.85-.28-.85-.68s.23-.67.9-.67h.75v-.14c0-.4-.23-.62-.67-.62a1.17 1.17 0 0 0-.77.28l-.15-.24a1.5 1.5 0 0 1 .95-.31.83.83 0 0 1 .95.92zm-.31.75v-.38h-.74c-.45 0-.6.18-.6.42s.22.44.59.44a.76.76 0 0 0 .75-.48zm5.03-.65V181h-.32v-1.3c0-.5-.25-.75-.67-.75a.75.75 0 0 0-.78.85v1.2h-.32v-1.3c0-.5-.25-.75-.67-.75a.76.76 0 0 0-.79.85v1.2h-.31v-2.34h.3v.43a.94.94 0 0 1 .86-.44.84.84 0 0 1 .83.49 1 1 0 0 1 .92-.49.89.89 0 0 1 .95 1.02zm2.9.33h-2a.87.87 0 0 0 .92.82.94.94 0 0 0 .72-.31l.17.2a1.13 1.13 0 0 1-.9.39 1.16 1.16 0 0 1-1.23-1.2 1.13 1.13 0 0 1 1.15-1.18 1.11 1.11 0 0 1 1.13 1.18zm-2-.23H329a.83.83 0 0 0-1.66 0zm3.88 1.11a.8.8 0 0 1-.5.17.62.62 0 0 1-.68-.68V179h-.42v-.27h.39v-.51h.31v.51h.71v.27h-.71v1.4a.37.37 0 0 0 .41.42.49.49 0 0 0 .34-.12zm.88-.08a.62.62 0 0 1-.06.26l-.19.61h-.21l.15-.64a.24.24 0 0 1 .08-.47.23.23 0 0 1 .23.24z"/><use xlink:href="#C"/><path d="M336.15 179.85a1.19 1.19 0 1 1 1.2 1.2 1.15 1.15 0 0 1-1.2-1.2zm2.06 0a.85.85 0 0 0-.86-.91.92.92 0 1 0 .86.91zm3.12-.18V181H341v-1.3a.65.65 0 0 0-.7-.75.77.77 0 0 0-.82.85v1.2h-.31v-2.34h.3v.44a1 1 0 0 1 .89-.45.89.89 0 0 1 .97 1.02zm.53 1.09l.14-.25a1.46 1.46 0 0 0 .83.26c.45 0 .63-.15.63-.38 0-.61-1.52-.13-1.52-1.06 0-.38.33-.66.93-.66a1.65 1.65 0 0 1 .83.21l-.14.26a1.23 1.23 0 0 0-.69-.2c-.42 0-.61.16-.61.38 0 .64 1.52.16 1.52 1.06 0 .4-.36.67-1 .67a1.58 1.58 0 0 1-.92-.29zm4.53-.76h-1.95a.87.87 0 0 0 .92.82.94.94 0 0 0 .71-.31l.18.2a1.15 1.15 0 0 1-.9.39 1.16 1.16 0 0 1-1.23-1.2 1.14 1.14 0 1 1 2.28 0s-.01.02-.01.1zm-1.95-.23h1.66a.82.82 0 0 0-.84-.78.81.81 0 0 0-.82.73z"/><use xlink:href="#C" x="13.11"/><path d="M350.8 180.88a.77.77 0 0 1-.49.17.62.62 0 0 1-.69-.68V179h-.42v-.27h.42v-.51h.32v.51h.71v.27h-.71v1.4a.37.37 0 0 0 .4.42.53.53 0 0 0 .35-.12zm2.52-.88h-1.95a.87.87 0 0 0 .92.82.92.92 0 0 0 .71-.31l.18.2a1.15 1.15 0 0 1-.9.39 1.16 1.16 0 0 1-1.23-1.2 1.12 1.12 0 0 1 1.14-1.18 1.11 1.11 0 0 1 1.14 1.18s-.01.02-.01.1zm-1.95-.23H353a.82.82 0 0 0-.84-.78.81.81 0 0 0-.79.73zm3.83 1.11a.75.75 0 0 1-.49.17.62.62 0 0 1-.69-.68V179h-.41v-.27h.39v-.51h.32v.51h.71v.27h-.71v1.4a.37.37 0 0 0 .41.42.52.52 0 0 0 .34-.12zm2.68-2.2V181h-.3v-.42a.94.94 0 0 1-.84.45.91.91 0 0 1-1-1v-1.36h.32V180a.65.65 0 0 0 .7.75.76.76 0 0 0 .8-.85v-1.23zm2.92 1.32h-2a.88.88 0 0 0 .93.82.94.94 0 0 0 .71-.31l.18.2a1.15 1.15 0 0 1-.9.39 1.16 1.16 0 0 1-1.23-1.2 1.14 1.14 0 1 1 2.28 0s.03.02.03.1zm-2-.23h1.66a.83.83 0 0 0-1.66 0zm3.83-1.1v.3h-.08a.76.76 0 0 0-.79.86V181h-.31v-2.34h.3v.46a.89.89 0 0 1 .88-.45zm-102.5 6.24v1.44h-.3V186a.88.88 0 0 1-.81.39c-.53 0-.85-.28-.85-.68s.23-.67.9-.67h.75v-.14c0-.4-.23-.62-.67-.62a1.22 1.22 0 0 0-.78.28l-.14-.24a1.5 1.5 0 0 1 .95-.31.83.83 0 0 1 .95.9zm-.31.74v-.38h-.74c-.45 0-.6.18-.6.42s.22.44.59.44a.76.76 0 0 0 .75-.48zm3.31-2.6v3.3h-.3v-.46a1 1 0 0 1-.9.49 1.19 1.19 0 0 1 0-2.38 1 1 0 0 1 .89.46v-1.41zm-.31 2.13a.87.87 0 1 0-.87.92.86.86 0 0 0 .87-.92zm1.12-1.9a.23.23 0 0 1 .23-.23.23.23 0 1 1-.23.23zm.07.74h.31v2.33H264zm3.56 1.16a1.13 1.13 0 0 1-1.16 1.2 1 1 0 0 1-.89-.47v1.31h-.32V184h.31v.46a1 1 0 0 1 .9-.48 1.12 1.12 0 0 1 1.16 1.2zm-.31 0a.87.87 0 1 0-.87.92.86.86 0 0 0 .87-.92zm.88-1.9a.24.24 0 0 1 .24-.23.23.23 0 1 1 0 .45.23.23 0 0 1-.24-.22zm.08.74h.31v2.33h-.31zm.87 2.07l.14-.25a1.39 1.39 0 0 0 .83.26c.45 0 .63-.15.63-.38 0-.61-1.52-.13-1.52-1.06 0-.38.33-.66.93-.66a1.49 1.49 0 0 1 .82.22l-.13.25a1.23 1.23 0 0 0-.69-.2c-.43 0-.61.16-.61.39 0 .63 1.51.15 1.51 1.05 0 .4-.35.67-1 .67a1.58 1.58 0 0 1-.91-.29zm2.26-.91a1.15 1.15 0 0 1 1.2-1.18 1 1 0 0 1 .92.46l-.24.16a.79.79 0 0 0-.68-.35.92.92 0 0 0 0 1.83.79.79 0 0 0 .68-.35l.24.16a1 1 0 0 1-.92.47 1.16 1.16 0 0 1-1.2-1.2zm2.65-1.9a.24.24 0 0 1 .23-.23.23.23 0 0 1 .24.22.24.24 0 0 1-.47 0zm.07.74h.32v2.33h-.32zm3.36.98v1.35h-.31V185a.66.66 0 0 0-.71-.75.76.76 0 0 0-.81.85v1.22h-.32V184h.3v.43a1 1 0 0 1 .89-.45.89.89 0 0 1 .96 1.02zm3.03-1v2a1 1 0 0 1-1.17 1.17 1.66 1.66 0 0 1-1.09-.36l.16-.24a1.41 1.41 0 0 0 .92.32c.6 0 .87-.27.87-.85v-.3a1.06 1.06 0 0 1-.92.46 1.14 1.14 0 1 1 0-2.27 1.06 1.06 0 0 1 .93.46V184zm-.3 1.11a.89.89 0 1 0-.89.86.84.84 0 0 0 .89-.84zm4.39.17h-2a.87.87 0 0 0 .92.82 1 1 0 0 0 .72-.31l.17.2a1.13 1.13 0 0 1-.9.39 1.16 1.16 0 0 1-1.23-1.2 1.13 1.13 0 0 1 1.15-1.18 1.11 1.11 0 0 1 1.13 1.18zm-2-.23h1.66a.83.83 0 0 0-1.66 0zm2.64-2h.32v3.3h-.32zm1.13.23a.23.23 0 0 1 .23-.23.23.23 0 1 1-.23.23zm.07.74h.31v2.33h-.31zm2.43 2.19a.8.8 0 0 1-.5.17.62.62 0 0 1-.68-.68v-1.42h-.42V184h.42v-.52h.36v.52h.71v.26H288v1.4a.38.38 0 0 0 .41.43.49.49 0 0 0 .34-.12zm.88-.08a.78.78 0 0 1-.06.26l-.19.61h-.21l.15-.64a.24.24 0 0 1 .08-.47.23.23 0 0 1 .23.24zm1.51-.04l.14-.25a1.42 1.42 0 0 0 .84.26c.44 0 .62-.15.62-.38 0-.61-1.51-.13-1.51-1.06 0-.38.33-.66.92-.66a1.53 1.53 0 0 1 .83.22l-.14.25a1.21 1.21 0 0 0-.69-.2c-.42 0-.61.16-.61.39 0 .63 1.52.15 1.52 1.05 0 .4-.36.67-1 .67a1.6 1.6 0 0 1-.92-.29zm4.54-.81h-2a.87.87 0 0 0 .92.82.94.94 0 0 0 .72-.31l.17.2a1.13 1.13 0 0 1-.9.39 1.16 1.16 0 0 1-1.23-1.2 1.13 1.13 0 0 1 1.15-1.18 1.11 1.11 0 0 1 1.13 1.18zm-2-.23h1.66a.83.83 0 0 0-1.66 0z"/><path d="M298.53 183.05v3.3h-.3v-.46a1 1 0 0 1-.91.49 1.19 1.19 0 0 1 0-2.38 1 1 0 0 1 .89.46v-1.41zm-.31 2.13a.87.87 0 1 0-.87.92.86.86 0 0 0 .87-.92zm4.48-2.13v3.3h-.3v-.46a1 1 0 0 1-.9.49 1.19 1.19 0 0 1 0-2.38 1 1 0 0 1 .89.46v-1.41zm-.31 2.13a.85.85 0 0 0-.86-.91.92.92 0 1 0 .86.91zm1.12-1.9a.23.23 0 0 1 .23-.23.22.22 0 0 1 .23.22.22.22 0 0 1-.23.23.22.22 0 0 1-.23-.22zm.07.74h.32v2.33h-.32zm2.96.89v1.44h-.3V186a.88.88 0 0 1-.8.39c-.53 0-.86-.28-.86-.68s.23-.67.9-.67h.75v-.14c0-.4-.23-.62-.67-.62a1.17 1.17 0 0 0-.77.28l-.15-.24a1.51 1.51 0 0 1 1-.31.83.83 0 0 1 .9.9zm-.31.74v-.38h-.74c-.45 0-.6.18-.6.42s.22.44.59.44a.76.76 0 0 0 .75-.48zm5.03-.65v1.35h-.32V185c0-.49-.24-.75-.67-.75a.75.75 0 0 0-.78.85v1.22h-.32V185c0-.49-.25-.75-.67-.75a.76.76 0 0 0-.79.85v1.22h-.31V184h.3v.42a1 1 0 0 1 .86-.44.83.83 0 0 1 .83.49 1 1 0 0 1 .93-.49.88.88 0 0 1 .94 1.02zm2.74-.81l-1.58.61 1.58.61v.37l-2-.79v-.38l2-.79zm1.6-1.58h.4l-1.47 4.19h-.39zm3.4.63v3.11h-.45V185h-1.79v1.38h-.44v-3.11h.44v1.34h1.79v-1.34zm1.61 0v3.11h-.44v-2.72h-.7v-.39zm2.75 1.37v.39l-2 .79v-.37l1.59-.61-1.59-.61v-.37zm-63.14 10.24l-1.58.61 1.58.61v.37l-2-.79v-.38l2-.79zm3.27.15c0 .68-.49 1.09-1.3 1.09h-.77v.91H261v-3.11h1.21c.79.02 1.28.42 1.28 1.11zm-.44 0c0-.44-.3-.7-.87-.7h-.76v1.4h.76c.57-.01.87-.26.87-.7zm2.95.27v.38l-2 .79v-.37l1.58-.61-1.58-.61v-.37zm3.79-.42l-1.58.61 1.58.61v.37l-2-.79v-.38l2-.79zm.76-.94h.45V197h-.45zm4.27 3.09v-2.27l-1.12 1.89h-.21l-1.12-1.88V197h-.43v-3.11h.36l1.3 2.18 1.28-2.18h.37V197zm3.51-1.56h.43v1.22a1.86 1.86 0 0 1-1.18.39 1.59 1.59 0 1 1 0-3.18 1.53 1.53 0 0 1 1.19.48l-.27.28a1.23 1.23 0 0 0-.9-.36 1.2 1.2 0 1 0 0 2.39 1.34 1.34 0 0 0 .73-.2zm2.18 1.22l.17-.34a1.66 1.66 0 0 0 1 .36c.53 0 .76-.21.76-.48 0-.76-1.88-.28-1.88-1.44 0-.48.37-.89 1.19-.89a1.81 1.81 0 0 1 1 .28l-.14.35a1.67 1.67 0 0 0-.86-.25c-.53 0-.75.22-.75.49 0 .76 1.88.29 1.88 1.43 0 .47-.38.88-1.2.88a1.87 1.87 0 0 1-1.17-.39zm5.13.34l-.67-1h-1v1h-.44v-3.11h1.21c.81 0 1.3.4 1.3 1.08a1 1 0 0 1-.68 1l.73 1.05zm0-2c0-.44-.3-.7-.87-.7H284v1.4h.76c.57-.01.87-.26.87-.7zm.89.46a1.58 1.58 0 0 1 1.65-1.59 1.56 1.56 0 0 1 1.19.48l-.29.28a1.21 1.21 0 1 0-.88 2 1.15 1.15 0 0 0 .88-.38l.29.28a1.53 1.53 0 0 1-1.19.49 1.58 1.58 0 0 1-1.65-1.56zm3.3-.7h2v.35h-2zm0 1.05h2v.35h-2zm3.76-1.9h.41v1.2h-.32zm.81 0h.37v1.2h-.31zm1.12 0h.48v2.72h1.69v.37h-2.13z"/><path d="M297.85 195.84a1.23 1.23 0 1 1 1.22 1.21 1.17 1.17 0 0 1-1.22-1.21zm2 0a.8.8 0 1 0-.8.83.78.78 0 0 0 .82-.83zm2.3-1.2v.41h-.09a.71.71 0 0 0-.75.79V197h-.43v-2.36h.41v.4a.91.91 0 0 1 .86-.4zm2.63 1.36h-1.92a.8.8 0 0 0 .86.69.9.9 0 0 0 .68-.28l.23.27a1.27 1.27 0 0 1-2.19-.82 1.15 1.15 0 0 1 1.18-1.2 1.13 1.13 0 0 1 1.16 1.21zm-1.92-.3h1.52a.76.76 0 0 0-1.52 0zm6.43-.04V197h-.43v-1.31c0-.46-.22-.69-.61-.69a.68.68 0 0 0-.71.78V197h-.42v-1.31c0-.46-.23-.69-.61-.69a.68.68 0 0 0-.71.78V197h-.43v-2.36h.41v.36a1 1 0 0 1 .82-.37.88.88 0 0 1 .82.43 1.05 1.05 0 0 1 .9-.43.9.9 0 0 1 .97 1.03zm1.9-1.73a.29.29 0 1 1 .29.28.28.28 0 0 1-.29-.28zm.07.73h.43V197h-.43zm3.74 1.18a1.16 1.16 0 0 1-1.2 1.21 1 1 0 0 1-.82-.39v1.22h-.43v-3.22h.41v.34a1 1 0 0 1 .84-.39 1.15 1.15 0 0 1 1.2 1.23zm-.44 0a.79.79 0 1 0-.79.83.78.78 0 0 0 .74-.83zm.68.93l.17-.34a1.54 1.54 0 0 0 .83.25c.4 0 .56-.12.56-.32 0-.53-1.49-.08-1.49-1 0-.43.38-.71 1-.71a1.72 1.72 0 0 1 .85.21l-.18.34a1.21 1.21 0 0 0-.68-.19c-.37 0-.56.14-.56.33 0 .55 1.5.1 1.5 1 0 .42-.39.7-1 .7a1.72 1.72 0 0 1-1-.27zm4.76-2.11V197h-.41v-.36a.94.94 0 0 1-.8.39.93.93 0 0 1-1-1v-1.36h.42V196c0 .46.24.69.64.69a.69.69 0 0 0 .73-.78v-1.22zm4.68 1V197h-.42v-1.31c0-.46-.23-.69-.61-.69a.68.68 0 0 0-.71.78V197h-.43v-1.31c0-.46-.22-.69-.61-.69s-.7.27-.7.78V197h-.43v-2.36h.41v.36a1 1 0 0 1 .81-.37.88.88 0 0 1 .82.43 1.08 1.08 0 0 1 .91-.43.9.9 0 0 1 .96 1.03zm.66-1.75h.37v1.2h-.31zm.8 0h.38v1.2h-.32zm2.95 1.36v.38l-2 .79v-.37l1.59-.61-1.59-.61v-.37zm2.58-.42l-1.58.61 1.58.61v.37l-2-.79v-.38l2-.79zm1.64-1.58h.39l-1.47 4.19h-.39zm3.2 1.73c0 .68-.49 1.09-1.3 1.09h-.77v.91H334v-3.11h1.21c.79.02 1.3.42 1.3 1.11zm-.44 0c0-.44-.3-.7-.87-.7h-.76v1.4h.76c.57-.01.87-.26.87-.7zm2.93.27v.38l-2 .79v-.37l1.58-.61-1.58-.61v-.37zm-78.78 10.25l-1.58.61 1.58.6v.37l-2-.78v-.39l2-.78zm1.63-1.58h.39l-1.47 4.19h-.38zm3.37 2.9c0 .54-.4.84-1.19.84h-1.49v-3.11h1.4c.71 0 1.11.3 1.11.8a.8.8 0 0 0 .17 1.47zm-2.22-1.91v1h.91c.45 0 .71-.16.71-.49s-.26-.5-.71-.5zm1.78 1.88c0-.36-.27-.52-.76-.52h-1v1h1c.48.03.75-.12.75-.48zm.87-.68a1.66 1.66 0 1 1 1.66 1.59 1.58 1.58 0 0 1-1.66-1.59zm2.87 0a1.21 1.21 0 1 0-1.21 1.19 1.18 1.18 0 0 0 1.21-1.19zm1.12-1.56H271a1.56 1.56 0 1 1 0 3.11h-1.31zm1.28 2.72a1.17 1.17 0 1 0 0-2.33h-.84v2.33zm3.45-.68v1.07h-.44v-1.08l-1.24-2h.48l1 1.64 1-1.64h.44zm3.5-.68v.39l-2 .78v-.37l1.58-.6-1.58-.61v-.37z"/><g class="P"><path d="M379.84 122.2c0 .14-30.77.25-68.72.25s-68.73-.11-68.73-.25 30.76-.25 68.73-.25l68.72.25zm-133.33-4.91a.89.89 0 1 1-1.77 0 .89.89 0 0 1 1.77 0z"/><circle cx="249.02" cy="117.29" r=".88"/><path d="M253.3,117.29a.89.89,0,1,1-1.77,0,.89.89,0,0,1,1.77,0Z"/></g><path d="M251.12 226.16c-.14 0-.25-23.33-.25-52.1l.25-52.06c.12 0 .25 23.33.25 52.11l-.25 52.05z" class="S"/><path d="M58.63 20.97h56.81v40.5H58.63z" class="Q"/><g class="R"><path d="M115.89 27c0 .14-12.82.25-28.64.25s-28.64-.14-28.64-.25 12.82-.25 28.64-.25l28.64.25zm-52.62-3a.77.77 0 1 1-.77-.67.72.72 0 0 1 .77.67zm2.79 0a.73.73 0 0 1-.77.67.68.68 0 1 1 0-1.34.73.73 0 0 1 .77.67z"/><ellipse cx="68.08" cy="24.02" rx=".76" ry=".67"/><path d="M79.64 43.13c0 2.43-1.76 3.9-4.66 3.9h-3.07v3.6H70.7V39.21H75c2.88 0 4.64 1.47 4.64 3.92zm-1.2 0c0-1.83-1.21-2.87-3.49-2.87h-3V46h3c2.28 0 3.49-1.08 3.49-2.87zm13.35-3.92v11.42H90.6v-5.27h-7.14v5.27h-1.21V39.21h1.21v5.09h7.14v-5.09zm12.66 3.92c0 2.43-1.76 3.9-4.67 3.9h-3.07v3.6h-1.2V39.21h4.27c2.91 0 4.67 1.47 4.67 3.92zm-1.21 0c0-1.83-1.21-2.87-3.49-2.87h-3V46h3c2.25 0 3.49-1.08 3.49-2.87z"/></g><path d="M367.54 175.84h51.36v36.61h-51.36z" class="Q"/><path d="M384.86 192.84v7.26h-1.68v-3h-3.3v3h-1.68v-7.26h1.68v2.86h3.3v-2.86zm3.23 1.37h-2.32v-1.37h6.33v1.37h-2.33v5.89h-1.68zm4.91-1.37h1.68v5.89h3.65v1.37H393zm12.88 7.26v-4.36l-2.13 3.6H403l-2.13-3.5v4.26h-1.58v-7.26h1.39l2.72 4.51 2.68-4.51h1.38v7.26zm13.42-18.83c0 .09-11.59.16-25.89.16s-25.89-.07-25.89-.16 11.59-.16 25.89-.16l25.89.16zm-47.57-2.67a.7.7 0 0 1-1.38 0 .7.7 0 0 1 1.38 0zm2.52 0a.7.7 0 0 1-1.38 0 .7.7 0 0 1 1.38 0zm2.52 0a.7.7 0 1 1-.69-.61.65.65 0 0 1 .69.61z" class="R"/><path d="M31.37 175.31h37.86v26.99H31.37z" class="Q"/><path d="M69.53 179.32c0 .06-8.55.12-19.09.12s-19.09-.06-19.09-.12 8.55-.12 19.09-.12l19.09.12zm-35.07-1.97a.51.51 0 1 1-.51-.45.48.48 0 0 1 .51.45zm1.86 0a.51.51 0 1 1-.51-.45.48.48 0 0 1 .51.45zm1.86 0a.51.51 0 1 1-.51-.45.48.48 0 0 1 .51.45z" class="R"/><g class="Q"><path d="M257 71.31a7.08 7.08 0 0 1 7.35-7.19 6.8 6.8 0 0 1 5.05 2l-.65.67a6 6 0 0 0-4.36-1.68 6.24 6.24 0 1 0 0 12.48 6 6 0 0 0 4.36-1.7l.65.67a6.81 6.81 0 0 1-5.05 2 7.08 7.08 0 0 1-7.35-7.25zm14.3 5.27l.47-.77a6.76 6.76 0 0 0 4.68 1.78c2.84 0 4.09-1.23 4.09-2.77 0-4.26-8.85-1.71-8.85-6.93 0-2 1.54-3.77 5-3.77a7.64 7.64 0 0 1 4.31 1.27l-.39.83a7 7 0 0 0-3.9-1.22c-2.75 0-4 1.28-4 2.84 0 4.25 8.86 1.74 8.86 6.88 0 2-1.6 3.75-5.11 3.75a7.3 7.3 0 0 1-5.16-1.89zm12.34 0l.47-.77a6.74 6.74 0 0 0 4.68 1.78c2.84 0 4.09-1.23 4.09-2.77 0-4.26-8.85-1.71-8.85-6.93 0-2 1.54-3.77 5-3.77a7.64 7.64 0 0 1 4.28 1.27l-.39.83a7 7 0 0 0-3.87-1.22c-2.75 0-4 1.28-4 2.84 0 4.25 8.86 1.74 8.86 6.88 0 2-1.6 3.75-5.11 3.75a7.3 7.3 0 0 1-5.16-1.89zM306 89.75V89v-2.16l-.05-8.21-.11-29.68.2.2-63.17.05h0l.25-.25v40.8l-.23-.23 45.45.11 13 .07h3.48.91.27a1.23 1.23 0 0 1-.29 0h-.87-3.44l-13 .06-45.6.11h-.23v-.23-40.8-.14h.26H306h.2v.3l-.11 29.81-.05 8.16v2.12c0 .5-.04.66-.04.66z"/><path d="M306 55c0 .14-14.15.25-31.6.25s-31.6-.11-31.6-.25 14.14-.25 31.6-.25L306 55zm-58.52-3a.78.78 0 1 1-.77-.67.72.72 0 0 1 .77.67zm2.81 0a.78.78 0 1 1-.77-.67.72.72 0 0 1 .77.67zm2.81 0a.78.78 0 1 1-.77-.67.72.72 0 0 1 .77.67z"/></g><path d="M123.52 229.19l25 84.55a8.83 8.83 0 0 0 8.47 6.33l101.64.28a9.38 9.38 0 0 0 9.4-9.89h0a9.39 9.39 0 0 0-9.38-8.9h-38.81l-31.13-86.72h-54.48a11.17 11.17 0 0 0-10.71 14.35z" class="T"/><path d="M209.5 308.51c0 .19-10.36.35-23.14.35s-23.14-.16-23.14-.35 10.36-.36 23.14-.36 23.14.16 23.14.36zM131 217.53c.19-.07 7.11 20.18 15.46 45.21l14.77 45.44c-.23.06-7.11-20.18-15.46-45.18L131 217.53z" class="P"/><g class="T"><path d="M205.28 395.2l-6.2-.15v-74.98h6.2v75.13z"/><path d="M173.35 394.86h57.66l-26.12-9.08h-6.2l-25.34 9.08z"/></g><g class="Q"><path d="M158.77 195.45l9.54 47.66-1.7 35.72 64.12-10.66-2.52-31.28v-25.88l15.72 30.47 12.24-23.65-22.41-40.6h0a37.9 37.9 0 0 0-14.67-9.49 30.08 30.08 0 0 0-9.19-1.76h0a36.8 36.8 0 0 1-22.2 0l-3.73.42h-.29a28.36 28.36 0 0 0-24.78 26.7z"/><path d="M183.93,166.41s-26.34.2-29.61,28l-.44,20.4,22.69-.2Z"/></g><path d="M246.88 202.21c0 .19-20.73.35-46.3.35s-46.31-.16-46.31-.35 20.73-.36 46.31-.36l46.3.36zm0 4.41c0 .2-20.73.36-46.3.36s-46.31-.16-46.31-.36 20.73-.36 46.31-.36l46.3.36zm-1.48-8.07c0 .2-20.41.36-45.56.36s-45.57-.16-45.57-.36 20.4-.36 45.57-.36l45.56.36z" fill="#fafafa"/><path d="M227.82 241.48c-.19 0-.11-11.28.2-25.19l.91-25.17c.2 0 .11 11.28-.19 25.19l-.92 25.17z" class="P"/><path d="M218.82,223.19s12.46.89,14.7,4.19,5.67,12.69,4.37,12.76a3.58,3.58,0,0,1-2.24-.71l-3.41-6.05s.55,5.84-1.5,6-12.16,2.14-12.16,2.14Z" class="V"/><path d="M153.89 209.41v32.13a12.21 12.21 0 0 0 14.79 11.27l50.25-10.36-.11-20.6-43.36 8.32-.57-21.81z" class="Q"/><path d="M182.56 250.23a2.85 2.85 0 0 1 .66-.18l1.95-.44 7.38-1.56 26.16-5.35-.26.31v-21.16l.42.35-8.87 1.7-34.53 6.57-.37.07v-.38l.79-23.17.27-6.47c0-.7.08-1.26.1-1.7a4.5 4.5 0 0 1 .06-.58 2.23 2.23 0 0 1 0 .59v1.7l-.1 6.48-.54 23.16-.36-.3 34.51-6.68 8.83-1.69.43-.08v.43 21.16.27l-.26.05-26.2 5.09-7.42 1.39-2 .34a3.19 3.19 0 0 1-.65.08zm28.82-83.82s.09.15.21.47a10.77 10.77 0 0 1 .39 1.42 11.63 11.63 0 0 1-.24 5.41 14.26 14.26 0 0 1-4.36 6.73 13.54 13.54 0 0 1-9.15 3.45 12.36 12.36 0 0 1-9-3.67 12.73 12.73 0 0 1-3.36-7.27 11.5 11.5 0 0 1 .63-5.38 8 8 0 0 1 .64-1.33q.27-.44.3-.42c.07 0-.31.64-.68 1.84a12 12 0 0 0-.39 5.22 12.45 12.45 0 0 0 3.33 6.88 11.88 11.88 0 0 0 8.57 3.42 13 13 0 0 0 8.71-3.24 14 14 0 0 0 4.31-6.37 12.12 12.12 0 0 0 .45-5.22l-.36-1.94z" class="P"/><path d="M213.81 244.16a14.43 14.43 0 0 1 0-3.17l.18-7.62-.09-7.62a16.35 16.35 0 0 1 0-3.17 12.27 12.27 0 0 1 .48 3.14c.18 1.95.33 4.66.31 7.65l-.4 7.65a13 13 0 0 1-.48 3.14zm-2.6.52a14.92 14.92 0 0 1-.09-3.15l.08-7.57v-7.57a14.13 14.13 0 0 1 .12-3.14 13.41 13.41 0 0 1 .38 3.13l.22 7.59-.29 7.59a12.51 12.51 0 0 1-.42 3.12z" fill="#fafafa"/><path d="M261.53,372.34,271,398.5,284.51,417a2.85,2.85,0,0,1-.79,4.09h0a2.85,2.85,0,0,1-2.6.22c-5.44-2.25-25.39-10.65-26-12.6-.68-2.26-13.56-30.39-13.56-30.39Z" class="Q"/><path d="M283.72 421.11L254.47 407l.42 1.1a4.26 4.26 0 0 0 2 2.22c2.4 1.29 9.1 4.72 24.19 11.06a2.84 2.84 0 0 0 2.68-.25zm-27.19-24.57a1.73 1.73 0 0 1 1.26 1.93 1.65 1.65 0 0 1-1.9 1.26 1.81 1.81 0 0 1-1.32-2.05 1.73 1.73 0 0 1 2.12-1.09" opacity=".6" class="R"/><path d="M273.38 412.08c.18 0 .23-1.57 1.49-2.9a8.58 8.58 0 0 1 2.76-1.73c0-.07-.41-.15-1.05 0a4.52 4.52 0 0 0-2.16 1.32 4.45 4.45 0 0 0-1.12 2.23c-.1.69.01 1.09.08 1.08zm3.2 2.76c.17.06.67-1.1 1.86-2a21.51 21.51 0 0 1 2.41-1.31c0-.16-1.44-.23-2.78.83s-1.65 2.46-1.49 2.48zm-8.37-5.84c.17.08.94-1.72 2.67-3.29s3.56-2.22 3.49-2.4a7.81 7.81 0 0 0-6.16 5.69zm-3.55-7.74c.13.13 1.33-1 3.17-1.82s3.49-.92 3.48-1.1a5.57 5.57 0 0 0-3.73.54c-1.97.86-3.05 2.29-2.92 2.38zm-2.98-7.6a13.63 13.63 0 0 1 3.24-2c2-.72 3.74-.29 3.78-.47s-.39-.29-1.12-.4a6 6 0 0 0-2.86.3 5.91 5.91 0 0 0-2.41 1.55c-.51.55-.69.97-.63 1.02zm2.63-3.42a2.24 2.24 0 0 0-.34-1 7.37 7.37 0 0 0-1.78-2.27 3.27 3.27 0 0 0-1.86-.94 1.15 1.15 0 0 0-1.11.71 1.84 1.84 0 0 0 0 1.33 4 4 0 0 0 4.64 2.19 4.66 4.66 0 0 0 3.39-3.94 1.61 1.61 0 0 0-.42-1.28 1.11 1.11 0 0 0-1.31-.13 4 4 0 0 0-1.36 1.55 8.28 8.28 0 0 0-1 2.7 2.65 2.65 0 0 0-.05 1.05 13.13 13.13 0 0 1 1.41-3.52 3.63 3.63 0 0 1 1.22-1.33.59.59 0 0 1 .71.07 1.1 1.1 0 0 1 .23.86 4.18 4.18 0 0 1-3 3.38 3.49 3.49 0 0 1-4-1.8 1.33 1.33 0 0 1-.07-.93.62.62 0 0 1 .61-.4 2.91 2.91 0 0 1 1.58.77 10.57 10.57 0 0 1 2.51 2.93z" class="P"/><path d="M301.63 365.5l-.82 21.26s21.33 8 21.56 11.91l-41.27-.11-.1-33.17z" class="Q"/><path d="M288.05 384.93a1.69 1.69 0 0 0-1.17 1.92 1.62 1.62 0 0 0 1.89 1.18 1.77 1.77 0 0 0 1.23-2 1.69 1.69 0 0 0-2.1-1m-6.8 13.53v-3.31l39.65 1.32s1.84.81 1.63 2.1z" opacity=".6" class="R"/><path d="M301.48 386.55c0 .2-1 .29-2 .93s-1.53 1.49-1.71 1.41.12-1.24 1.33-2 2.42-.53 2.38-.34zm4.32 1.8c.05.2-.83.54-1.51 1.39s-.89 1.75-1.09 1.74-.33-1.15.55-2.19 2.05-1.13 2.05-.94zm2.44 5.19c-.18 0-.46-1 .06-2.07s1.47-1.54 1.55-1.37-.5.76-.91 1.67-.5 1.75-.7 1.77zm-7.11-11.86c-.09.19-1-.09-2.15 0s-2 .43-2.13.26.75-.89 2.09-1 2.29.59 2.19.74z" class="P"/><path d="M301.46 369.71l-.14 3.79-20.28-.24-.02-3.41 20.44-.14z" class="U"/><g class="P"><path d="M301.21 377.39a3.75 3.75 0 0 1-2.06 0 10.34 10.34 0 0 1-2.17-.67 10.59 10.59 0 0 1-1.18-.64 2.18 2.18 0 0 1-.62-.49.86.86 0 0 1-.09-1.07 1.12 1.12 0 0 1 .88-.46 2.93 2.93 0 0 1 .78.11 7.7 7.7 0 0 1 1.28.45 7.11 7.11 0 0 1 1.9 1.25c1 .89 1.28 1.65 1.21 1.69s-.55-.57-1.52-1.31a8.58 8.58 0 0 0-1.85-1 7.77 7.77 0 0 0-1.18-.37c-.44-.11-.81-.12-.92.08s-.05.1 0 .23a2 2 0 0 0 .46.35 10.18 10.18 0 0 0 1.09.63 10.92 10.92 0 0 0 2 .77 14.81 14.81 0 0 1 1.99.45z"/><path d="M301 377.68a3.3 3.3 0 0 1-.54-2 6.81 6.81 0 0 1 .29-2.26 6.69 6.69 0 0 1 .53-1.25 1.68 1.68 0 0 1 1.32-1 .94.94 0 0 1 .86.58 2.58 2.58 0 0 1 .21.75 4.69 4.69 0 0 1 0 1.4 4.84 4.84 0 0 1-.89 2.13c-.81 1.07-1.65 1.3-1.67 1.24s.64-.49 1.26-1.52a4.78 4.78 0 0 0 .66-1.94 4.34 4.34 0 0 0 0-1.19c-.06-.44-.22-.8-.39-.75s-.55.32-.72.67a6.24 6.24 0 0 0-.52 1.12 7.45 7.45 0 0 0-.4 2.06c-.15 1.17.06 1.93 0 1.96z"/><path d="M281.06 263.61l-56.7 5.83 4.4 39.68s47.49-12.55 47.15-11.53 2.2 84.44 2.2 84.44h28.6l.53-94.47a23.73 23.73 0 0 0-26.18-23.95z"/><path d="M166 279.62v12.3c0 8.38 9.54 17.26 17.91 17.26h6.48c5.11 0 13.1-3.71 17.22-6.73l2.48-1.8 29.77 92.24s34.14-6.11 34.14-7.18-23.08-75.56-33.73-110.12c-4.35-14.12-19.47-22.33-33.44-17.53-.48.16-.95.34-1.43.53-15.3 6.1-39.4 21.03-39.4 21.03z"/></g><path d="M274 385.71a1.25 1.25 0 0 1-.15-.33l-.38-1-1.35-3.83c-1.15-3.33-2.71-8.19-4.61-14.2l-14.44-47.08-7.77-26-3.37-11.34-1.53-5.14a48.92 48.92 0 0 0-1.55-4.66 19.19 19.19 0 0 0-4.81-6.82 40.54 40.54 0 0 0-5-3.92c-1.46-1-2.62-1.7-3.42-2.18l-.89-.56c-.2-.13-.3-.2-.29-.21a1.58 1.58 0 0 1 .32.15l.94.49a59.69 59.69 0 0 1 3.49 2.08 38.33 38.33 0 0 1 5.16 3.86 19.29 19.29 0 0 1 5 6.91 45.39 45.39 0 0 1 1.62 4.7q.75 2.47 1.57 5.13l3.43 11.32 7.83 26 14.23 47.14 4.39 14.27 1.23 3.87.3 1a1.48 1.48 0 0 1 .05.35zm7.14-100.02c.18.12-1.44 2.56-2.8 5.86s-2 6.17-2.17 6.13.09-3 1.51-6.4 3.32-5.7 3.46-5.59zm5.47 3.84c.08.2-2.38 1.27-4.94 3.3s-4.2 4.14-4.38 4 1.26-2.49 3.94-4.58 5.33-2.9 5.38-2.72zm-46.4 103.36c-.19.06-8.24-24.62-18-55.13L205 282.41c.23-.06 8.23 24.62 18 55.13l17.21 55.35zm-36.55-143.9l97.47.93 18.17-51.37-70.89.48-16.45 46.2-28.3.42v3.34z" class="T"/><path d="M277.56 228.66a3.95 3.95 0 1 1 4.46-3.35 3.95 3.95 0 0 1-4.46 3.35z" class="R"/><path d="M195.71,109.93c.92-3.42,3.49-5.1,6.84-6.24a11.06,11.06,0,0,1,10.07,1.63c1.88,1.44,3.36,3.52,5.59,4.3,3.69,1.28,8-1.48,11.53.17a5,5,0,0,1-2.38,9.58c2.4.88,3.15,4.3,1.75,6.44a6.7,6.7,0,0,1-6.8,2.48,14.07,14.07,0,0,1-6.61-3.7c-1.91-1.71-3.61-3.65-5.64-5.2A11,11,0,0,0,203,116.8c-3.46.18-6.42,2.79-8,5.89s-1.9,6.65-2.09,10.1-.26,7-1.28,10.29c-.12.38-.31.82-.69.94-.57.17-1-.42-1.32-.94a50.73,50.73,0,0,1-5.81-18.9c-.39-3.83-.29-7.46,1.82-10.69s7.43-5.6,10-3.56" class="P"/><path d="M189 126l-1.77 38.79c-.3 6.6.61 16.35 11.06 16.35h0c9.07-.68 11.75-9.16 12-15.31l.28-5.66s9.92-.48 11.08-10.22c.56-4.71.92-14.5 1.15-23.36a18.27 18.27 0 0 0-16.34-18.63l-.94-.1c-10.17-.5-16.29 7.9-16.52 18.14z" class="V"/><path d="M210.64,160a22.78,22.78,0,0,1-12.33-5s2.26,7.34,12.09,7.49Z" fill="#ff9c6a"/><path d="M219.3 132.8a1.4 1.4 0 0 1-1.49 1.27 1.34 1.34 0 0 1-1.3-1.41 1.4 1.4 0 0 1 1.49-1.27 1.34 1.34 0 0 1 1.3 1.41zm.93-1.66c-.19.16-1.16-.73-2.66-.89s-2.68.48-2.82.28.14-.4.66-.7a3.81 3.81 0 0 1 2.28-.45 3.71 3.71 0 0 1 2.09.94c.43.4.55.74.45.82zm-15.68.61a1.41 1.41 0 0 1-1.5 1.26 1.34 1.34 0 0 1-1.3-1.41 1.4 1.4 0 0 1 1.49-1.26 1.35 1.35 0 0 1 1.31 1.41zm.92-1.9c-.19.16-1.17-.73-2.67-.89s-2.67.48-2.82.28.14-.4.66-.7a3.78 3.78 0 0 1 2.28-.44 3.7 3.7 0 0 1 2.1.93c.42.4.54.75.45.82zm4.26 11.69a10.84 10.84 0 0 1 2.48-.18c.38 0 .76 0 .85-.29a2 2 0 0 0-.14-1.16l-.82-3-1.73-7.9c.17-.04 1.23 3.42 2.36 7.74l.77 3.05a2.19 2.19 0 0 1 0 1.52 1 1 0 0 1-.69.49 2.5 2.5 0 0 1-.66 0 9.46 9.46 0 0 1-2.42-.27zm-4.53.57c.25 0 .08 1.64 1.35 2.94s3 1.31 3 1.54-.42.28-1.16.22a4.11 4.11 0 0 1-2.52-1.19 3.56 3.56 0 0 1-1-2.46c0-.69.22-1.07.33-1.05zm1.28-18.11c-.19.4-1.67 0-3.45.07s-3.25.35-3.45 0c-.08-.19.21-.54.82-.88a6.06 6.06 0 0 1 5.26 0c.61.28.91.64.82.81zm13.66 2.74c-.3.31-1.29-.15-2.53-.3s-2.32 0-2.52-.4c-.09-.18.11-.51.61-.78a3.68 3.68 0 0 1 4.07.56c.4.4.51.77.37.92z" class="P"/><path d="M189.05 133.29c-.16-.09-6.49-2.7-7 4s6.33 5.81 6.35 5.62l.65-9.62z" class="V"/><path d="M186.56 140.21s-.13.08-.33.15a1.16 1.16 0 0 1-.87 0 2.92 2.92 0 0 1-1.15-2.69 4 4 0 0 1 .45-1.65 1.38 1.38 0 0 1 1-.83.6.6 0 0 1 .66.38c.08.19 0 .32.06.33s.15-.1.12-.38a.82.82 0 0 0-.23-.44 1 1 0 0 0-.64-.22 1.65 1.65 0 0 0-1.29 1 3.89 3.89 0 0 0-.54 1.84 3 3 0 0 0 1.48 3 1.26 1.26 0 0 0 1.08-.09c.17-.23.22-.38.2-.4z" fill="#ff9c6a"/><path d="M225.12,124.77a14.19,14.19,0,0,1-12.22-4.16c-2.15-2.26-3.68-5.35-6.55-6.58a8,8,0,0,0-6.15.18,15.39,15.39,0,0,0-5,3.74c1.35,5.16-.5,10.55-2.33,15.56a2.72,2.72,0,0,1-.94,1.46c-.86.52-2-.08-2.6-.87a8.31,8.31,0,0,1-1.35-4.54,27.64,27.64,0,0,1,1.22-10.81,18.77,18.77,0,0,1,6.14-8.88,17.78,17.78,0,0,1,12.91-3.37,21.82,21.82,0,0,1,12.12,5.85,12.64,12.64,0,0,1,3.59,5.15" class="P"/><path d="M37.64 331a18.12 18.12 0 0 1 11.24-1.37 9.36 9.36 0 0 1 5.55 2.48c1.39 1.53 1.65 4.23.06 5.54a5.25 5.25 0 0 1-3.5.89c-3 0-6.27-.56-8.64 1.23-1.36 1-2.26 2.72-3.88 3.22a3.83 3.83 0 0 1-4.21-1.88 6.53 6.53 0 0 1-.47-4.82 7.36 7.36 0 0 1 3.85-5.29zm-7.83-15.17c2.09 3 6.15 2 8 .18s2.68-4.47 3.4-7c1.66-5.75 3.33-11.79 2.1-17.65a9.82 9.82 0 0 0-2.26-4.79 5.11 5.11 0 0 0-4.81-1.57c-2.05.54-3.32 2.55-4.24 4.46a42 42 0 0 0-4.16 18.05c0 2.91.33 6 2 8.36m-5.77 4.24a10.85 10.85 0 0 0 1.69-10 19.22 19.22 0 0 0-5.92-8.59 31.74 31.74 0 0 0-10.6-6.25 11.2 11.2 0 0 0-4.77-.81 5 5 0 0 0-4 2.42c-1.11 2.12 0 4.71 1.11 6.81a81 81 0 0 0 7 10.6c2.09 2.7 4.48 5.35 7.66 6.57s6.49 1.07 8.17-1.14" fill="#5d8cfd"/><g class="P"><path d="M29.67 360.86a6.69 6.69 0 0 0 .19-1.35l.36-3.71a53.85 53.85 0 0 1 .83-5.43A42.92 42.92 0 0 1 33 344a23.65 23.65 0 0 1 3.28-5.79 12.24 12.24 0 0 1 4.13-3.44 11.4 11.4 0 0 1 3.49-1.09 8 8 0 0 0 1.35-.19 6.1 6.1 0 0 0-1.37 0 10.68 10.68 0 0 0-3.64.95 12.2 12.2 0 0 0-4.36 3.47 22.75 22.75 0 0 0-3.39 5.92 38.09 38.09 0 0 0-2 6.51 47.67 47.67 0 0 0-.73 5.5l-.18 3.72a6.1 6.1 0 0 0 .09 1.3z"/><path d="M29.92 358a2.16 2.16 0 0 0 0-.63v-1.8l.08-6.61c.13-5.58.62-11.59 1.54-20.06.88-8 2.06-17.24 3.31-23.26.27-1.37.53-2.61.79-3.69l.64-2.77.42-1.75a2.54 2.54 0 0 0 .11-.62 3.7 3.7 0 0 0-.21.59l-.53 1.73a62.83 62.83 0 0 0-.74 2.75l-.87 3.68A203 203 0 0 0 31 327.15c-.93 8.49-1.35 16.22-1.39 21.81l.1 6.63c0 .73.08 1.33.11 1.8a3.77 3.77 0 0 0 .1.61z"/><path d="M30 343.11a12.3 12.3 0 0 0 0-1.88c-.07-1.21-.24-3-.58-5.1a67.27 67.27 0 0 0-1.65-7.42 61.35 61.35 0 0 0-3.11-8.78 46.66 46.66 0 0 0-9.11-14.19 23.65 23.65 0 0 0-2.15-2l-.91-.77-.83-.57a11.91 11.91 0 0 0-1.59-1 55.58 55.58 0 0 1 5.14 4.6 49.2 49.2 0 0 1 8.89 14.14 70 70 0 0 1 3.12 8.7c.81 2.73 1.35 5.24 1.76 7.35l.75 5a11.88 11.88 0 0 0 .27 1.92zM15.55 369.4l1.5 20.47h26.29l1.49-20.47H15.55z"/><path d="M13.01 361.34h34.95v8.07H13.01z"/></g><g class="T"><path d="M13.02 389.08v2.24h1.64 32.73v-2.24H13.02z"/><path d="M16.27 395.25l-1.61-3.93h31.48l-1.88 3.93H16.27z"/></g><path d="M44.34 376.09s0 .07-.12.19l-.39.52-1.53 2-.07.09-.07-.1-3.76-5.2h.22l-3.71 5.25-.12.16-.13-.15-4.39-5.23h.25l-.24.3-3.92 4.92-.14.17-.12-.17-3.7-5.25h.21l-4.56 5.2-.08.1-.06-.11-1.43-2.4-.37-.64c-.08-.14-.12-.22-.11-.23a2.09 2.09 0 0 1 .15.21l.41.61 1.5 2.36h-.15l4.5-5.27.11-.13.1.14 3.74 5.22h-.25l3.92-4.93.24-.31.12-.16.13.16 4.38 5.24h-.24l3.74-5.22.11-.16.11.16 3.68 5.26h-.14l1.6-1.91.42-.49z" class="S"/><path d="M45.2 369.27c0 .09-6.59.16-14.71.16s-14.72-.07-14.72-.16 6.59-.17 14.72-.17l14.71.17z" class="T"/><g class="P"><path d="M46.52 391.54c0 .09-7.15.16-16 .16s-16-.07-16-.16 7.15-.17 16-.17l16 .17zM357.3 155.95l-18.26 76.39h5.11l17.99-76.39h-4.84z"/><path d="M350.29,206.26c-.33,1.4,8.27,43,8.27,43h-4.14l-6.5-33Z"/></g><path d="M325.55 304.34h85.55v90.7h-85.55z" class="Q"/><g class="P"><path d="M411.11 317.59h4.2v4.2h-4.2zm0 13.34h4.2v4.2h-4.2zm0 13.34h4.2v4.2h-4.2zm0 13.34h4.2v4.2h-4.2z"/><path d="M415.46 345.5a6.08 6.08 0 0 1 1.29-.29 23.08 23.08 0 0 1 3.6-.34 9.69 9.69 0 0 1 5.2 1.37 6 6 0 0 1 2.89 5.76 7.22 7.22 0 0 1-1.09 3.29 8.85 8.85 0 0 1-2.21 2.34 11.35 11.35 0 0 1-5 2 16.72 16.72 0 0 1-3.61.13 4.79 4.79 0 0 1-1.31-.19 12.09 12.09 0 0 1 1.31 0 19.75 19.75 0 0 0 3.56-.27 11.38 11.38 0 0 0 4.78-2 7.34 7.34 0 0 0 3.08-5.3 5.83 5.83 0 0 0-.6-3.14 5.9 5.9 0 0 0-2-2.19 9.57 9.57 0 0 0-4.95-1.4 25.57 25.57 0 0 0-3.57.18 8.51 8.51 0 0 1-1.37.05z"/><path d="M414.42 332.24a1.44 1.44 0 0 1 .4-.24 8 8 0 0 1 1.24-.51 9.87 9.87 0 0 1 4.91-.27 4.52 4.52 0 0 1 1.57.62 2.76 2.76 0 0 1 1.11 1.5 4.55 4.55 0 0 1-2.73 5.12 2.74 2.74 0 0 1-2.32-.12 2.35 2.35 0 0 1-1.33-2 2.4 2.4 0 0 1 1.36-2.08 3.71 3.71 0 0 1 2.44-.26 5 5 0 0 1 2.14 1 5.76 5.76 0 0 1 2.13 3.81 5.41 5.41 0 0 1-1.09 3.8 7.77 7.77 0 0 1-2.63 2.22 12.68 12.68 0 0 1-4.77 1.24l-1.34.07a1.38 1.38 0 0 1-.46 0l1.78-.23a13.46 13.46 0 0 0 4.62-1.36 7.54 7.54 0 0 0 2.46-2.16 4.92 4.92 0 0 0 1-3.5 5.33 5.33 0 0 0-2-3.48 4.48 4.48 0 0 0-1.93-.91 3.18 3.18 0 0 0-2.11.21 1.94 1.94 0 0 0-1.1 1.64 1.88 1.88 0 0 0 1.07 1.58 2.27 2.27 0 0 0 1.92.11 3.81 3.81 0 0 0 1.58-1.15 3.91 3.91 0 0 0 .92-3.42 2.91 2.91 0 0 0-2.35-1.89 10.27 10.27 0 0 0-4.79.12l-1.7.54z"/><path d="M414.46 319.22a2.5 2.5 0 0 1 .93-.17 6.83 6.83 0 0 1 2.57.36 7.49 7.49 0 0 1 3.2 2.15 7.33 7.33 0 0 1 .27 8.92 7.29 7.29 0 0 1-3.06 2.35 6.72 6.72 0 0 1-2.54.51 2.56 2.56 0 0 1-.94-.11 9.62 9.62 0 0 0 3.34-.73 7.25 7.25 0 0 0 2.83-2.29 7 7 0 0 0-.26-8.35 7.22 7.22 0 0 0-3-2.12 9.53 9.53 0 0 0-3.34-.52z"/><path d="M351 256.15a8.78 8.78 0 0 1 .72 1.7 32.2 32.2 0 0 1 1.13 5.15l.95 8.29c.29 3.24.57 6.93 1.09 11 .14 1 .3 2 .5 3.09a14.09 14.09 0 0 0 .93 3.09 11.27 11.27 0 0 0 2.1 2.59 16.21 16.21 0 0 0 2.76 2.13 16.42 16.42 0 0 0 6.91 2.35 13.62 13.62 0 0 0 7.56-1.31 9.12 9.12 0 0 0 4.88-6.13 7 7 0 0 0-.29-4.07 7.16 7.16 0 0 0-2.66-3.21 8 8 0 0 0-4-1.35 6.46 6.46 0 0 0-4.1 1.2 4.57 4.57 0 0 0-1.39 1.64 3.37 3.37 0 0 0-.26 2.1 5.07 5.07 0 0 0 2.65 3.37 12.37 12.37 0 0 0 4.37 1.21 41.07 41.07 0 0 0 4.55.31 71.06 71.06 0 0 0 8.93-.5c5.84-.65 11.47-1.59 16.91-1.65a33.26 33.26 0 0 1 14.98 2.85 17.52 17.52 0 0 1 5.6 4.19 12.9 12.9 0 0 1 2.91 5.75 15.5 15.5 0 0 1-1.66 10.79 18.26 18.26 0 0 1-5.69 6.07 21.43 21.43 0 0 1-4.7 2.4 15 15 0 0 1-1.76.53s.15-.07.44-.17l1.29-.46a22.26 22.26 0 0 0 4.62-2.46 18.21 18.21 0 0 0 5.55-6.05 15.26 15.26 0 0 0 1.57-10.59 12.63 12.63 0 0 0-2.86-5.58 17.26 17.26 0 0 0-5.49-4.06 32.9 32.9 0 0 0-14.87-2.76c-5.4.07-11 1-16.87 1.67a71.78 71.78 0 0 1-9 .52 39.66 39.66 0 0 1-4.6-.32 12.74 12.74 0 0 1-4.55-1.26 5.54 5.54 0 0 1-2.9-3.72 3.88 3.88 0 0 1 .3-2.4 5.05 5.05 0 0 1 1.54-1.82 6.92 6.92 0 0 1 4.42-1.3 8.48 8.48 0 0 1 4.3 1.43 7.72 7.72 0 0 1 2.83 3.44 7.49 7.49 0 0 1 .31 4.36 9.62 9.62 0 0 1-5.14 6.43A14 14 0 0 1 368 296a16.79 16.79 0 0 1-7.08-2.44 16.22 16.22 0 0 1-2.83-2.2 11.35 11.35 0 0 1-2.17-2.71 14.58 14.58 0 0 1-.94-3.18c-.2-1.06-.36-2.1-.49-3.11-.5-4.07-.73-7.77-1-11s-.54-6-.86-8.28a34.46 34.46 0 0 0-1-5.15 11.74 11.74 0 0 0-.45-1.29c-.18-.33-.18-.49-.18-.49zm55.24 135.09v-.4-1.16-4.49l-.06-17-.11-60.29.22.21h-77.33 0l.25-.24v83.33l-.21-.21 56 .11 15.71.06h4.15 1.44-1.39-4.11l-15.66.06-56.18.11h-.21v-.22-83.33-.25h.26 77.33.22v.22l-.11 60.43-.06 16.94v4.45 1.14c0 .27-.15.53-.15.53z"/><use xlink:href="#D"/><use xlink:href="#D" x="2.19"/><use xlink:href="#D" x="4.37"/><use xlink:href="#D" x="6.54"/><use xlink:href="#E"/><use xlink:href="#D" x="10.93"/><use xlink:href="#E" x="4.37"/><circle cx="396.17" cy="319.62" r=".4"/><circle cx="393.93" cy="319.62" r=".4"/><use xlink:href="#F"/><circle cx="389.46" cy="319.62" r=".4"/><circle cx="387.22" cy="319.62" r=".4"/><path d="M385.39,319.62a.4.4,0,1,1-.8,0,.4.4,0,0,1,.8,0Z"/><use xlink:href="#G"/><use xlink:href="#G" x="2.19"/><use xlink:href="#G" x="4.37"/><use xlink:href="#G" x="6.54"/><use xlink:href="#E" y="3.13"/><use xlink:href="#G" x="10.93"/><use xlink:href="#E" x="4.37" y="3.13"/><path d="M396.56 322.75a.39.39 0 0 1-.39.4.4.4 0 0 1-.4-.4.39.39 0 0 1 .4-.39.38.38 0 0 1 .39.39zm-2.23 0a.4.4 0 1 1-.8 0 .4.4 0 0 1 .8 0z"/><use xlink:href="#F" y="3.13"/><path d="M389.86,322.75a.4.4,0,1,1-.8,0,.4.4,0,0,1,.8,0Z"/><use xlink:href="#F" x="-4.47" y="3.13"/><path d="M385.39,322.75a.4.4,0,1,1-.8,0,.4.4,0,0,1,.8,0Z"/><use xlink:href="#H"/><use xlink:href="#H" x="2.19"/><use xlink:href="#H" x="4.37"/><use xlink:href="#H" x="6.54"/><use xlink:href="#E" y="6.26"/><use xlink:href="#H" x="10.93"/><use xlink:href="#E" x="4.37" y="6.26"/><circle cx="396.17" cy="325.88" r=".4"/><circle cx="393.93" cy="325.88" r=".4"/><use xlink:href="#F" y="6.26"/><circle cx="389.46" cy="325.88" r=".4"/><circle cx="387.22" cy="325.88" r=".4"/><path d="M385.39,325.88a.4.4,0,1,1-.8,0,.4.4,0,0,1,.8,0Z"/></g><g class="S"><path d="M354.22 228.56a5 5 0 0 1 1.56.28 8.68 8.68 0 0 1 3.78 2.47 16.26 16.26 0 0 1 3.34 6.32 61.22 61.22 0 0 1 2.1 9.27 116.15 116.15 0 0 1 .61 24.69 14.48 14.48 0 0 1-2.14 6.85 8.74 8.74 0 0 1-2.7 2.61 6.06 6.06 0 0 1-3.75.89 5.79 5.79 0 0 1-3.55-1.65 4.49 4.49 0 0 1-1.05-1.74 3.8 3.8 0 0 1 0-2.06 4.43 4.43 0 0 1 2.68-3 3.15 3.15 0 0 1 2.12 0 3.82 3.82 0 0 1 1.69 1.27 5.22 5.22 0 0 1 .93 4 11 11 0 0 1-1.38 3.77 14.63 14.63 0 0 1-19.66 5.7 16.58 16.58 0 0 1-5.17-4.46 21.54 21.54 0 0 1-3.15-5.63 37.12 37.12 0 0 1-2.1-11.32l-.34-9.46a16.23 16.23 0 0 0-.89-3.75 10.6 10.6 0 0 0-1.61-2.8 8 8 0 0 0-3.55-2.63 9.31 9.31 0 0 0-1.53-.36 4.74 4.74 0 0 1 1.56.27 7.92 7.92 0 0 1 3.68 2.6 11 11 0 0 1 1.67 2.84 16 16 0 0 1 1 3.79c.38 2.8.2 6 .41 9.49a36.72 36.72 0 0 0 2.06 11.19 21.27 21.27 0 0 0 3.1 5.51 16.19 16.19 0 0 0 5.06 4.29 14.18 14.18 0 0 0 13.73-.22 14.37 14.37 0 0 0 5.28-5.33 10.5 10.5 0 0 0 1.32-3.59 4.69 4.69 0 0 0-.84-3.6 3.4 3.4 0 0 0-1.46-1.12 2.65 2.65 0 0 0-1.78 0 4 4 0 0 0-2.37 2.67 3.47 3.47 0 0 0 1 3.34 5.36 5.36 0 0 0 3.24 1.51 5.65 5.65 0 0 0 3.45-.82 8.13 8.13 0 0 0 2.55-2.47 14.09 14.09 0 0 0 2.09-6.63 118.55 118.55 0 0 0-.51-24.59 62.4 62.4 0 0 0-2-9.23 16.21 16.21 0 0 0-3.22-6.28 8.87 8.87 0 0 0-3.66-2.51 12.25 12.25 0 0 0-1.6-.37z"/><path d="M314.84 242.44h31.85v6.07h-31.85z"/></g><path d="M75.23 305.18h41.55v89.43H75.23z" class="P"/><path d="M113.21 385.19v-.39-1.11-4.28l-.07-16-.11-55.16.24.24H78.45l.25-.25-.07 76.92-.18-.18 25.37.09h6.94 1.82.63-.6-1.78-6.9l-25.48.1h-.18v-.18l-.06-76.92V308h35.24v.24l-.11 55.32-.06 15.93v4.23 1.08c0 .26-.07.39-.07.39zm-2.15-70.41v-.93l-.06-2.59.11.11-30.22.14h0l.25-.25h0v3.5l-.25-.25 21.41.11 6.43.07h1.76.63a4.38 4.38 0 0 1-.57 0h-1.7l-6.37.07-21.59.11h-.24v-.25-1.73-1.77h0l.25-.25h0l30.22.14h.11v.11l-.06 2.65a7.34 7.34 0 0 1-.11 1.01zm-27.18 2.53c0 .14-.63.25-1.4.25s-1.39-.11-1.39-.25.62-.25 1.39-.25 1.4.12 1.4.25zm26.37 4.62c0 .14-6.43.25-14.36.25s-14.37-.11-14.37-.25 6.43-.25 14.37-.25 14.36.11 14.36.25zm.13 5.57c0 .14-6.33.25-14.12.25s-14.12-.11-14.12-.25 6.32-.25 14.12-.25 14.12.11 14.12.25z" class="T"/><circle cx="95.88" cy="340.53" r="2.29" class="Q"/><path d="M89.44 340.42a9.52 9.52 0 0 1-3.06.25 9.48 9.48 0 0 1-3-.25 9.48 9.48 0 0 1 3-.25 9.52 9.52 0 0 1 3.06.25zm18.56-.59a8.61 8.61 0 0 1-2.91.25 8.61 8.61 0 0 1-2.91-.25 8.61 8.61 0 0 1 2.91-.25 8.61 8.61 0 0 1 2.91.25z" class="T"/><g class="P"><path d="M76.66 350.06a9 9 0 0 1-1.56-.29 13.6 13.6 0 0 1-4.11-1.9 17.76 17.76 0 0 1-5-5.17 29.91 29.91 0 0 1-3.61-8.79 35.58 35.58 0 0 1-1.15-11.46 23.52 23.52 0 0 1 4.36-12.4 19.71 19.71 0 0 1 5.21-4.95 17.93 17.93 0 0 1 3.34-1.66 18.63 18.63 0 0 1 3.7-.88c2.54-.35 5.13-.3 7.72-.46a19.06 19.06 0 0 0 7.59-1.75 8.48 8.48 0 0 0 4.71-5.78 8.08 8.08 0 0 0-8.07-9.88 5.67 5.67 0 0 0-3.2 1.19 3.46 3.46 0 0 0-1.34 2.89 4.63 4.63 0 0 0 4.28 4.13 7 7 0 0 0 5.48-2.46 13.17 13.17 0 0 0 2.65-5.21 45.06 45.06 0 0 0 1.11-5.37 88.77 88.77 0 0 0 .5-16.6l-.22-4.52c0-.5 0-.89-.06-1.18a2 2 0 0 1 0-.4 3.35 3.35 0 0 1 0 .4c0 .29.06.68.11 1.17l.32 4.52a85.42 85.42 0 0 1-.35 16.66 46.59 46.59 0 0 1-1.09 5.43 13.5 13.5 0 0 1-2.71 5.38 7.48 7.48 0 0 1-5.82 2.62 5.09 5.09 0 0 1-4.71-4.54 3.92 3.92 0 0 1 1.5-3.28 6.14 6.14 0 0 1 3.47-1.3 8.6 8.6 0 0 1 6.83 14.07 10.06 10.06 0 0 1-3.21 2.51 19.65 19.65 0 0 1-7.79 1.8l-7.68.44a18 18 0 0 0-3.6.86 17 17 0 0 0-3.25 1.61 19.05 19.05 0 0 0-5.1 4.81 23.17 23.17 0 0 0-4.32 12.16 35.54 35.54 0 0 0 1.08 11.34 29.48 29.48 0 0 0 3.51 8.73 17.59 17.59 0 0 0 4.83 5.16 14 14 0 0 0 4 2l1.14.29zM62.5 166.45h98.38V234H62.5z"/><path d="M104.09 224.79h13.4v25.48h-13.4z"/><path d="M72.3 249.29v9.18h50.75v136.58h4.67V258.47l211.99 1.04v135.54h4.58V259.26l32.72.26V248.5l-304.71.79z"/><path d="M104.78 256.68l20.01 14.42-1.74 1.66-20.18-15.2 1.91-.88zm258.38 1.35l-23.23 16.53 1.74 1.68 23.39-17.34-1.9-.87zm-217.05-12.11h52.46v3.86h-52.46z"/></g><defs ><path id="B" d="M272.33 179.85a1.19 1.19 0 1 1 1.19 1.2 1.15 1.15 0 0 1-1.19-1.2zm2.06 0a.87.87 0 1 0-.87.92.86.86 0 0 0 .87-.92z"/><path id="C" d="M333.69 179.85a1.15 1.15 0 0 1 1.21-1.18 1 1 0 0 1 .91.46l-.23.16a.79.79 0 0 0-.68-.35.92.92 0 0 0 0 1.83.79.79 0 0 0 .68-.35l.23.16a1 1 0 0 1-.91.47 1.16 1.16 0 0 1-1.21-1.2z"/><path id="D" d="M384.46,318.16a.4.4,0,0,1-.8,0,.4.4,0,1,1,.8,0Z"/><path id="E" d="M393.2 318.16a.39.39 0 0 1-.4.39.38.38 0 0 1-.39-.39.39.39 0 0 1 .39-.4.4.4 0 0 1 .4.4z"/><path id="F" d="M392.09 319.62a.4.4 0 0 1-.4.4.39.39 0 0 1-.39-.4.38.38 0 0 1 .39-.39.39.39 0 0 1 .4.39z"/><path id="G" d="M384.46,321.29a.4.4,0,0,1-.8,0,.4.4,0,1,1,.8,0Z"/><path id="H" d="M384.46,324.42a.4.4,0,0,1-.8,0,.4.4,0,1,1,.8,0Z"/></defs></svg>