<svg xmlns="http://www.w3.org/2000/svg" viewBox="0 0 69.28 61.14"><defs><style>.cls-1{fill:#fff;}</style></defs><title>Web_development_in_india</title><g id="Layer_2" data-name="Layer 2"><g id="Layer_1-2" data-name="Layer 1"><path class="cls-1" d="M69.28,6.75V54.38a1.86,1.86,0,0,0-.1.25c-1,4.24-3.78,6.51-8.12,6.51H26.42c-6.2,0-12.4,0-18.6,0A7.63,7.63,0,0,1,0,53.48q0-22.9,0-45.8A7.81,7.81,0,0,1,.75,4.49,7.51,7.51,0,0,1,8.08,0h53.1c.25,0,.49,0,.74,0a7.55,7.55,0,0,1,6.7,4.62A14.78,14.78,0,0,1,69.28,6.75ZM67,18.38H2.3V53c0,3.61,2.25,5.85,5.87,5.85h53C64.74,58.84,67,56.6,67,53V18.38ZM67,16c0-.21,0-.39,0-.56,0-2.51,0-5,0-7.51A5.39,5.39,0,0,0,61.37,2.3H7.92A5.39,5.39,0,0,0,2.3,7.93c0,1.89,0,3.79,0,5.68V16Z"/><path class="cls-1" d="M37.75,26.38c-.26,1.29-.56,2.72-.86,4.15l-3.6,17c0,.24-.08.49-.15.73a1.16,1.16,0,0,1-1.33.87,1.14,1.14,0,0,1-.89-1.38c.23-1.24.5-2.47.76-3.7q1.89-8.93,3.77-17.84a1.32,1.32,0,0,1,.87-1.17C37.05,24.84,37.76,25.41,37.75,26.38Z"/><path class="cls-1" d="M21.71,37l4.88,4.16c.47.4.94.78,1.39,1.19a1.16,1.16,0,0,1,.21,1.68,1.13,1.13,0,0,1-1.68.06Q22.9,41.06,19.3,38a1.14,1.14,0,0,1,0-1.91Q22.89,33,26.48,30a1.14,1.14,0,0,1,1.73.05,1.18,1.18,0,0,1-.3,1.72c-1.79,1.54-3.6,3.07-5.4,4.6Z"/><path class="cls-1" d="M47.58,37l-6-5.15a3,3,0,0,1-.48-.47,1.12,1.12,0,0,1,1.45-1.65,3.49,3.49,0,0,1,.54.41l6.64,5.65c1.06.91,1,1.52,0,2.41C47.45,40.14,45.21,42.07,43,44a1.68,1.68,0,0,1-1.06.46,1.54,1.54,0,0,1-1-.7,1,1,0,0,1,.31-1.28c.76-.67,1.54-1.32,2.31-2Z"/><path class="cls-1" d="M4.83,9.2A3.61,3.61,0,0,1,8.42,5.58,3.62,3.62,0,1,1,4.83,9.2ZM8.42,7.88a1.32,1.32,0,0,0-1.3,1.36,1.34,1.34,0,0,0,1.32,1.28,1.32,1.32,0,0,0,0-2.64Z"/><path class="cls-1" d="M34.27,9.24a3.61,3.61,0,1,1-3.63-3.58A3.59,3.59,0,0,1,34.27,9.24Zm-3.62,1.33a1.31,1.31,0,1,0-1.29-1.29A1.3,1.3,0,0,0,30.65,10.57Z"/><path class="cls-1" d="M16,9.25a3.6,3.6,0,1,1,3.61,3.59A3.58,3.58,0,0,1,16,9.25Zm3.59-1.32a1.28,1.28,0,0,0-1.29,1.28,1.3,1.3,0,0,0,1.31,1.34,1.33,1.33,0,0,0,1.3-1.29A1.3,1.3,0,0,0,19.54,7.93Z"/></g></g></svg>