<svg xmlns="http://www.w3.org/2000/svg" viewBox="0 0 529.46 326.86"><defs><style>.cls-1{fill:#474747;}</style></defs><title>wiremesh</title><g id="Layer_2" data-name="Layer 2"><g id="Layer_1-2" data-name="Layer 1"><line class="cls-1" x1="354.06" y1="105.94" x2="349.86" y2="76.64"/><polygon class="cls-1" points="349.99 76.63 354.19 105.92 353.94 105.95 349.74 76.66 349.99 76.63"/><line class="cls-1" x1="354.06" y1="105.94" x2="349.86" y2="76.64"/><polygon class="cls-1" points="349.99 76.63 354.19 105.92 353.94 105.95 349.74 76.66 349.99 76.63"/><line class="cls-1" x1="345.18" y1="10.85" x2="354.06" y2="105.94"/><polygon class="cls-1" points="345.43 10.83 354.3 105.92 353.82 105.96 344.95 10.87 345.43 10.83"/><line class="cls-1" x1="345.18" y1="10.85" x2="349.86" y2="76.64"/><polygon class="cls-1" points="345.37 10.84 350.05 76.63 349.67 76.66 345 10.86 345.37 10.84"/><line class="cls-1" x1="345.18" y1="10.85" x2="349.86" y2="76.64"/><polygon class="cls-1" points="345.37 10.84 350.05 76.63 349.67 76.66 345 10.86 345.37 10.84"/><line class="cls-1" x1="257.43" y1="69.98" x2="349.86" y2="76.64"/><polygon class="cls-1" points="257.45 69.74 349.88 76.41 349.85 76.88 257.42 70.21 257.45 69.74"/><line class="cls-1" x1="257.43" y1="69.98" x2="349.86" y2="76.64"/><polygon class="cls-1" points="257.45 69.74 349.88 76.41 349.85 76.88 257.42 70.21 257.45 69.74"/><line class="cls-1" x1="233.92" y1="96.77" x2="257.43" y2="69.98"/><rect class="cls-1" x="227.86" y="83.24" width="35.64" height="0.27" transform="translate(21.47 213.91) rotate(-48.95)"/><line class="cls-1" x1="268.25" y1="131.16" x2="233.92" y2="96.77"/><polygon class="cls-1" points="234.04 96.66 268.37 131.04 268.14 131.27 233.81 96.88 234.04 96.66"/><line class="cls-1" x1="268.25" y1="131.16" x2="257.43" y2="69.98"/><rect class="cls-1" x="262.66" y="69.5" width="0.36" height="62.13" transform="translate(-13.5 47.31) rotate(-10.03)"/><line class="cls-1" x1="268.25" y1="131.16" x2="354.06" y2="105.94"/><rect class="cls-1" x="266.44" y="118.32" width="89.44" height="0.46" transform="translate(-20.8 92.51) rotate(-16.37)"/><line class="cls-1" x1="268.25" y1="131.16" x2="349.86" y2="76.64"/><polygon class="cls-1" points="349.72 76.44 350 76.85 268.39 131.36 268.12 130.95 349.72 76.44"/><line class="cls-1" x1="268.25" y1="131.16" x2="349.86" y2="76.64"/><polygon class="cls-1" points="349.72 76.44 350 76.85 268.39 131.36 268.12 130.95 349.72 76.44"/><line class="cls-1" x1="371.18" y1="119.08" x2="354.06" y2="105.94"/><polygon class="cls-1" points="354.13 105.85 371.24 118.99 371.11 119.16 353.99 106.03 354.13 105.85"/><line class="cls-1" x1="371.18" y1="119.08" x2="349.86" y2="76.64"/><polygon class="cls-1" points="350 76.57 371.32 119 371.03 119.15 349.72 76.71 350 76.57"/><line class="cls-1" x1="371.18" y1="119.08" x2="349.86" y2="76.64"/><polygon class="cls-1" points="350 76.57 371.32 119 371.03 119.15 349.72 76.71 350 76.57"/><line class="cls-1" x1="377.65" y1="48.84" x2="371.18" y2="119.08"/><polygon class="cls-1" points="377.46 48.82 377.85 48.86 371.37 119.09 370.98 119.06 377.46 48.82"/><line class="cls-1" x1="377.65" y1="48.84" x2="345.18" y2="10.85"/><polygon class="cls-1" points="345.31 10.74 377.78 48.74 377.53 48.95 345.06 10.95 345.31 10.74"/><line class="cls-1" x1="377.65" y1="48.84" x2="354.06" y2="105.94"/><rect class="cls-1" x="334.97" y="77.21" width="61.78" height="0.36" transform="translate(153.44 385.15) rotate(-67.33)"/><line class="cls-1" x1="377.65" y1="48.84" x2="349.86" y2="76.64"/><rect class="cls-1" x="344.1" y="62.6" width="39.31" height="0.29" transform="translate(62.93 276.65) rotate(-45.2)"/><line class="cls-1" x1="377.65" y1="48.84" x2="349.86" y2="76.64"/><rect class="cls-1" x="344.1" y="62.6" width="39.31" height="0.29" transform="translate(62.93 276.65) rotate(-45.2)"/><line class="cls-1" x1="377.65" y1="48.84" x2="371.18" y2="119.08"/><polygon class="cls-1" points="377.46 48.82 377.85 48.86 371.37 119.09 370.98 119.06 377.46 48.82"/><line class="cls-1" x1="377.65" y1="48.84" x2="345.18" y2="10.85"/><polygon class="cls-1" points="345.31 10.74 377.78 48.74 377.53 48.95 345.06 10.95 345.31 10.74"/><line class="cls-1" x1="377.65" y1="48.84" x2="354.06" y2="105.94"/><rect class="cls-1" x="334.97" y="77.21" width="61.78" height="0.36" transform="translate(153.44 385.15) rotate(-67.33)"/><line class="cls-1" x1="377.65" y1="48.84" x2="349.86" y2="76.64"/><rect class="cls-1" x="344.1" y="62.6" width="39.31" height="0.29" transform="translate(62.93 276.65) rotate(-45.2)"/><line class="cls-1" x1="377.65" y1="48.84" x2="349.86" y2="76.64"/><rect class="cls-1" x="344.1" y="62.6" width="39.31" height="0.29" transform="translate(62.93 276.65) rotate(-45.2)"/><path class="cls-1" d="M478.75,61.6l43.93-.16"/><polygon class="cls-1" points="529.33 61.25 529.33 61.58 478.75 61.76 478.75 61.44 529.33 61.25"/><line class="cls-1" x1="257.52" y1="39.67" x2="268.25" y2="131.16"/><polygon class="cls-1" points="257.75 39.65 268.49 131.13 268.02 131.18 257.28 39.7 257.75 39.65"/><line class="cls-1" x1="257.52" y1="39.67" x2="233.92" y2="96.77"/><rect class="cls-1" x="214.83" y="68.04" width="61.78" height="0.36" transform="translate(89.36 269.67) rotate(-67.7)"/><line class="cls-1" x1="257.52" y1="39.67" x2="257.43" y2="69.98"/><polygon class="cls-1" points="257.39 39.67 257.64 39.67 257.56 69.98 257.31 69.98 257.39 39.67"/><line class="cls-1" x1="257.52" y1="39.67" x2="345.18" y2="10.85"/><rect class="cls-1" x="255.21" y="25.03" width="92.29" height="0.47" transform="translate(7.17 95.3) rotate(-18.18)"/><line class="cls-1" x1="325.39" y1="175.98" x2="371.18" y2="119.08"/><polygon class="cls-1" points="371.02 118.95 371.33 119.2 325.55 176.11 325.23 175.86 371.02 118.95"/><line class="cls-1" x1="325.39" y1="175.98" x2="268.25" y2="131.16"/><rect class="cls-1" x="296.62" y="117.26" width="0.4" height="72.62" transform="translate(-7.22 292.3) rotate(-51.88)"/><line class="cls-1" x1="325.39" y1="175.98" x2="354.06" y2="105.94"/><rect class="cls-1" x="301.88" y="140.75" width="75.69" height="0.41" transform="translate(80.62 402.01) rotate(-67.75)"/><line class="cls-1" x1="162.31" y1="57.62" x2="87.59" y2="91.52"/><rect class="cls-1" x="83.92" y="74.35" width="82.05" height="0.43" transform="translate(-19.66 58.36) rotate(-24.43)"/><line class="cls-1" x1="162.31" y1="57.62" x2="257.52" y2="39.67"/><polygon class="cls-1" points="257.47 39.43 257.56 39.91 162.35 57.86 162.26 57.38 257.47 39.43"/><line class="cls-1" x1="162.31" y1="57.62" x2="233.92" y2="96.77"/><rect class="cls-1" x="197.9" y="36.38" width="0.43" height="81.62" transform="translate(35.35 214) rotate(-61.34)"/><line class="cls-1" x1="162.31" y1="57.62" x2="257.43" y2="69.98"/><polygon class="cls-1" points="162.34 57.38 257.47 69.74 257.4 70.22 162.28 57.86 162.34 57.38"/><line class="cls-1" x1="124.54" y1="161.91" x2="124.01" y2="194.12"/><rect class="cls-1" x="108.16" y="177.89" width="32.22" height="0.26" transform="translate(-55.75 299.36) rotate(-89.06)"/><line class="cls-1" x1="124.54" y1="161.91" x2="87.59" y2="91.52"/><rect class="cls-1" x="105.85" y="86.97" width="0.43" height="79.49" transform="translate(-46.75 63.82) rotate(-27.7)"/><line class="cls-1" x1="151.84" y1="114.78" x2="124.54" y2="161.91"/><polygon class="cls-1" points="151.69 114.7 151.99 114.87 124.69 161.99 124.39 161.82 151.69 114.7"/><line class="cls-1" x1="151.84" y1="114.78" x2="162.31" y2="57.62"/><rect class="cls-1" x="128.02" y="86.02" width="58.11" height="0.35" transform="translate(44.43 225.54) rotate(-79.8)"/><line class="cls-1" x1="151.84" y1="114.78" x2="124.01" y2="194.12"/><rect class="cls-1" x="95.88" y="154.23" width="84.08" height="0.44" transform="translate(-53.49 233.44) rotate(-70.66)"/><line class="cls-1" x1="151.84" y1="114.78" x2="87.59" y2="91.52"/><polygon class="cls-1" points="87.66 91.34 151.91 114.6 151.77 114.97 87.52 91.7 87.66 91.34"/><line class="cls-1" x1="151.84" y1="114.78" x2="233.92" y2="96.77"/><polygon class="cls-1" points="233.88 96.55 233.97 96.98 151.89 115 151.79 114.57 233.88 96.55"/><line class="cls-1" x1="101.38" y1="105.9" x2="151.84" y2="114.78"/><polygon class="cls-1" points="101.41 105.73 151.87 114.62 151.81 114.94 101.35 106.06 101.41 105.73"/><line class="cls-1" x1="101.38" y1="105.9" x2="124.54" y2="161.91"/><polygon class="cls-1" points="101.54 105.83 124.7 161.84 124.37 161.97 101.21 105.97 101.54 105.83"/><line class="cls-1" x1="101.38" y1="105.9" x2="162.31" y2="57.62"/><rect class="cls-1" x="92.97" y="81.55" width="77.74" height="0.42" transform="translate(-22.26 99.63) rotate(-38.42)"/><line class="cls-1" x1="101.38" y1="105.9" x2="124.01" y2="194.12"/><polygon class="cls-1" points="101.6 105.84 124.23 194.07 123.78 194.18 101.15 105.95 101.6 105.84"/><line class="cls-1" x1="101.38" y1="105.9" x2="87.59" y2="91.52"/><polygon class="cls-1" points="87.67 91.45 101.46 105.82 101.3 105.97 87.51 91.6 87.67 91.45"/><path class="cls-1" d="M12.42,46.42C37.54,61,63,75.17,87.59,91.52"/><polygon class="cls-1" points="7.15 42.98 87.71 91.32 87.47 91.73 6.9 43.39 7.15 42.98"/><line class="cls-1" x1="191.47" y1="6.89" x2="162.31" y2="57.62"/><polygon class="cls-1" points="191.32 6.8 191.62 6.98 162.46 57.71 162.15 57.53 191.32 6.8"/><line class="cls-1" x1="191.47" y1="6.89" x2="257.52" y2="39.67"/><rect class="cls-1" x="224.29" y="-13.58" width="0.4" height="73.73" transform="translate(103.83 214.02) rotate(-63.6)"/><line class="cls-1" x1="191.47" y1="6.89" x2="257.43" y2="69.98"/><polygon class="cls-1" points="191.63 6.72 257.6 69.81 257.27 70.14 191.31 7.06 191.63 6.72"/><line class="cls-1" x1="331" y1="2.45" x2="257.52" y2="39.67"/><rect class="cls-1" x="253.07" y="20.84" width="82.37" height="0.44" transform="translate(22.14 135.01) rotate(-26.82)"/><line class="cls-1" x1="331" y1="2.45" x2="377.65" y2="48.84"/><rect class="cls-1" x="354.14" y="-7.26" width="0.38" height="65.8" transform="translate(86.3 258.81) rotate(-45.16)"/><line class="cls-1" x1="331" y1="2.45" x2="377.65" y2="48.84"/><rect class="cls-1" x="354.14" y="-7.26" width="0.38" height="65.8" transform="translate(86.3 258.81) rotate(-45.16)"/><line class="cls-1" x1="331" y1="2.45" x2="345.18" y2="10.85"/><polygon class="cls-1" points="331.05 2.36 345.24 10.76 345.13 10.94 330.94 2.53 331.05 2.36"/><line class="cls-1" x1="331" y1="2.45" x2="349.86" y2="76.64"/><rect class="cls-1" x="340.22" y="1.26" width="0.42" height="76.56" transform="translate(0.75 85.1) rotate(-14.26)"/><line class="cls-1" x1="331" y1="2.45" x2="349.86" y2="76.64"/><rect class="cls-1" x="340.22" y="1.26" width="0.42" height="76.56" transform="translate(0.75 85.1) rotate(-14.26)"/><line class="cls-1" x1="138.19" y1="1.38" x2="191.47" y2="6.89"/><polygon class="cls-1" points="138.21 1.22 191.49 6.73 191.45 7.06 138.17 1.55 138.21 1.22"/><line class="cls-1" x1="138.19" y1="1.38" x2="162.31" y2="57.62"/><rect class="cls-1" x="150.07" y="-1.09" width="0.36" height="61.19" transform="translate(0.54 61.61) rotate(-23.21)"/><path class="cls-1" d="M33.73,41.4,12.26,42.83"/><polygon class="cls-1" points="33.72 41.28 33.73 41.52 7.03 43.3 7.02 43.06 33.72 41.28"/><line class="cls-1" x1="33.73" y1="41.4" x2="101.38" y2="105.9"/><polygon class="cls-1" points="33.89 41.23 101.54 105.72 101.22 106.07 33.56 41.58 33.89 41.23"/><line class="cls-1" x1="33.73" y1="41.4" x2="87.59" y2="91.52"/><rect class="cls-1" x="60.45" y="29.68" width="0.41" height="73.57" transform="translate(-29.32 65.59) rotate(-47.06)"/><path class="cls-1" d="M12.33,68.09,33.73,41.4"/><polygon class="cls-1" points="0 83.78 33.88 41.52 33.58 41.28 0 83.17 0 83.78"/><polygon class="cls-1" points="0 67.44 7.18 43.23 6.87 43.13 0 66.28 0 67.44"/><path class="cls-1" d="M12.49,92.88c25-2.13,49.13.7,75.1-1.36"/><polygon class="cls-1" points="0 93.34 87.59 91.76 87.59 91.28 0 92.86 0 93.34"/><path class="cls-1" d="M47.84,135.71,12.22,108.54"/><polygon class="cls-1" points="0 99.47 47.72 135.86 47.96 135.55 0 98.97 0 99.47"/><line class="cls-1" x1="47.84" y1="135.71" x2="33.73" y2="41.4"/><polygon class="cls-1" points="33.96 41.37 48.08 135.67 47.6 135.74 33.49 41.44 33.96 41.37"/><line class="cls-1" x1="47.84" y1="135.71" x2="101.38" y2="105.9"/><polygon class="cls-1" points="101.29 105.74 101.47 106.06 47.93 135.86 47.76 135.55 101.29 105.74"/><path class="cls-1" d="M47.84,135.71l-35.19.46"/><rect class="cls-1" y="135.8" width="47.85" height="0.45" transform="translate(-1.77 0.32) rotate(-0.75)"/><path class="cls-1" d="M47.84,135.71l-35.19.46"/><rect class="cls-1" y="135.8" width="47.85" height="0.45" transform="translate(-1.77 0.32) rotate(-0.75)"/><line class="cls-1" x1="47.84" y1="135.71" x2="124.54" y2="161.91"/><polygon class="cls-1" points="47.91 135.5 124.61 161.7 124.47 162.11 47.77 135.91 47.91 135.5"/><path class="cls-1" d="M47.84,135.71l-35.36-.56"/><polygon class="cls-1" points="0 135.17 47.84 135.92 47.85 135.49 0 134.73 0 135.17"/><line class="cls-1" x1="47.84" y1="135.71" x2="124.01" y2="194.12"/><rect class="cls-1" x="85.68" y="116.92" width="0.48" height="95.99" transform="translate(-97.23 132.72) rotate(-52.51)"/><path class="cls-1" d="M47.84,135.71,12.25,156.52"/><polygon class="cls-1" points="0 163.88 47.93 135.86 47.76 135.56 0 163.48 0 163.88"/><line class="cls-1" x1="47.84" y1="135.71" x2="87.59" y2="91.52"/><polygon class="cls-1" points="87.46 91.4 87.72 91.64 47.97 135.82 47.71 135.59 87.46 91.4"/><line class="cls-1" x1="464.1" y1="72.29" x2="478.75" y2="61.6"/><rect class="cls-1" x="462.35" y="66.84" width="18.14" height="0.21" transform="translate(51.35 291.12) rotate(-36.17)"/><line class="cls-1" x1="464.1" y1="72.29" x2="377.65" y2="48.84"/><polygon class="cls-1" points="377.71 48.62 464.16 72.07 464.04 72.51 377.59 49.06 377.71 48.62"/><line class="cls-1" x1="464.1" y1="72.29" x2="377.65" y2="48.84"/><polygon class="cls-1" points="377.71 48.62 464.16 72.07 464.04 72.51 377.59 49.06 377.71 48.62"/><path class="cls-1" d="M464.1,72.29c19.67-4.21,38.08-5.62,58.51-9.76"/><polygon class="cls-1" points="529.3 61.23 529.37 61.6 464.13 72.47 464.07 72.1 529.3 61.23"/><line class="cls-1" x1="451.13" y1="11.61" x2="464.1" y2="72.29"/><rect class="cls-1" x="457.43" y="10.93" width="0.36" height="62.04" transform="matrix(0.98, -0.21, 0.21, 0.98, 1.33, 96.51)"/><line class="cls-1" x1="451.13" y1="11.61" x2="478.75" y2="61.6"/><polygon class="cls-1" points="451.29 11.53 478.9 61.51 478.6 61.68 450.98 11.7 451.29 11.53"/><line class="cls-1" x1="451.13" y1="11.61" x2="377.65" y2="48.84"/><rect class="cls-1" x="373.21" y="30.01" width="82.38" height="0.44" transform="translate(30.93 190.19) rotate(-26.82)"/><line class="cls-1" x1="451.13" y1="11.61" x2="377.65" y2="48.84"/><rect class="cls-1" x="373.21" y="30.01" width="82.38" height="0.44" transform="translate(30.93 190.19) rotate(-26.82)"/><path class="cls-1" d="M451.13,11.61c22.72,15.39,46.8,29.56,71.41,45.48"/><polygon class="cls-1" points="451.26 11.41 529.46 61.22 529.21 61.61 451.01 11.81 451.26 11.41"/><line class="cls-1" x1="425.15" y1="104.53" x2="451.13" y2="11.61"/><polygon class="cls-1" points="450.9 11.55 451.37 11.68 425.38 104.6 424.91 104.47 450.9 11.55"/><line class="cls-1" x1="425.15" y1="104.53" x2="464.1" y2="72.29"/><polygon class="cls-1" points="464 72.16 464.2 72.41 425.25 104.66 425.04 104.41 464 72.16"/><line class="cls-1" x1="425.15" y1="104.53" x2="478.75" y2="61.6"/><polygon class="cls-1" points="478.63 61.45 478.87 61.75 425.27 104.68 425.03 104.38 478.63 61.45"/><line class="cls-1" x1="425.15" y1="104.53" x2="377.65" y2="48.84"/><polygon class="cls-1" points="377.81 48.71 425.3 104.4 424.99 104.66 377.5 48.97 377.81 48.71"/><line class="cls-1" x1="425.15" y1="104.53" x2="377.65" y2="48.84"/><polygon class="cls-1" points="377.81 48.71 425.3 104.4 424.99 104.66 377.5 48.97 377.81 48.71"/><line class="cls-1" x1="425.15" y1="104.53" x2="371.18" y2="119.08"/><polygon class="cls-1" points="425.1 104.37 425.19 104.7 371.22 119.24 371.13 118.91 425.1 104.37"/><line class="cls-1" x1="425.15" y1="104.53" x2="354.06" y2="105.94"/><rect class="cls-1" x="354.05" y="105.04" width="71.1" height="0.4" transform="translate(-2.14 8.25) rotate(-1.21)"/><line class="cls-1" x1="425.15" y1="104.53" x2="349.86" y2="76.64"/><polygon class="cls-1" points="349.93 76.44 425.22 104.33 425.07 104.73 349.79 76.84 349.93 76.44"/><line class="cls-1" x1="425.15" y1="104.53" x2="349.86" y2="76.64"/><polygon class="cls-1" points="349.93 76.44 425.22 104.33 425.07 104.73 349.79 76.84 349.93 76.44"/><line class="cls-1" x1="233.8" y1="178.61" x2="325.39" y2="175.98"/><rect class="cls-1" x="233.78" y="177.06" width="91.63" height="0.47" transform="translate(-5.12 8.35) rotate(-1.7)"/><line class="cls-1" x1="233.8" y1="178.61" x2="268.25" y2="131.16"/><polygon class="cls-1" points="268.11 131.05 268.4 131.26 233.94 178.72 233.66 178.51 268.11 131.05"/><line class="cls-1" x1="233.8" y1="178.61" x2="233.92" y2="96.77"/><polygon class="cls-1" points="233.71 96.77 234.14 96.77 234.01 178.61 233.58 178.61 233.71 96.77"/><line class="cls-1" x1="163.22" y1="182.16" x2="233.8" y2="178.61"/><polygon class="cls-1" points="233.79 178.42 233.81 178.81 163.23 182.36 163.21 181.96 233.79 178.42"/><line class="cls-1" x1="163.22" y1="182.16" x2="101.38" y2="105.9"/><rect class="cls-1" x="132.05" y="94.94" width="0.49" height="98.18" transform="translate(-61.18 115.48) rotate(-39.04)"/><line class="cls-1" x1="163.22" y1="182.16" x2="151.84" y2="114.78"/><polygon class="cls-1" points="152.03 114.75 163.41 182.13 163.03 182.19 151.65 114.81 152.03 114.75"/><line class="cls-1" x1="163.22" y1="182.16" x2="124.54" y2="161.91"/><polygon class="cls-1" points="124.61 161.77 163.29 182.03 163.15 182.29 124.47 162.04 124.61 161.77"/><line class="cls-1" x1="163.22" y1="182.16" x2="124.01" y2="194.12"/><polygon class="cls-1" points="163.18 182.02 163.26 182.3 124.05 194.26 123.96 193.99 163.18 182.02"/><line class="cls-1" x1="197.22" y1="136.62" x2="163.22" y2="182.16"/><polygon class="cls-1" points="197.08 136.51 197.36 136.72 163.36 182.26 163.08 182.06 197.08 136.51"/><line class="cls-1" x1="197.22" y1="136.62" x2="233.8" y2="178.61"/><polygon class="cls-1" points="197.35 136.51 233.93 178.5 233.67 178.72 197.09 136.73 197.35 136.51"/><line class="cls-1" x1="197.22" y1="136.62" x2="151.84" y2="114.78"/><polygon class="cls-1" points="151.91 114.64 197.29 136.47 197.15 136.76 151.77 114.93 151.91 114.64"/><line class="cls-1" x1="197.22" y1="136.62" x2="124.54" y2="161.91"/><polygon class="cls-1" points="197.15 136.42 197.29 136.82 124.61 162.1 124.47 161.71 197.15 136.42"/><line class="cls-1" x1="197.22" y1="136.62" x2="162.31" y2="57.62"/><polygon class="cls-1" points="162.51 57.53 197.43 136.53 197.01 136.71 162.1 57.71 162.51 57.53"/><line class="cls-1" x1="197.22" y1="136.62" x2="124.01" y2="194.12"/><polygon class="cls-1" points="197.08 136.43 197.37 136.81 124.15 194.31 123.86 193.94 197.08 136.43"/><line class="cls-1" x1="197.22" y1="136.62" x2="268.25" y2="131.16"/><rect class="cls-1" x="197.12" y="133.69" width="71.24" height="0.4" transform="translate(-9.59 18.26) rotate(-4.4)"/><line class="cls-1" x1="197.22" y1="136.62" x2="233.92" y2="96.77"/><polygon class="cls-1" points="233.8 96.66 234.05 96.88 197.34 136.73 197.1 136.5 233.8 96.66"/><line class="cls-1" x1="197.22" y1="136.62" x2="257.43" y2="69.98"/><polygon class="cls-1" points="257.26 69.82 257.6 70.13 197.39 136.77 197.05 136.46 257.26 69.82"/><line class="cls-1" x1="94.33" y1="41.57" x2="33.73" y2="41.4"/><polygon class="cls-1" points="33.73 41.22 94.33 41.39 94.33 41.74 33.73 41.58 33.73 41.22"/><line class="cls-1" x1="94.33" y1="41.57" x2="138.19" y2="1.38"/><rect class="cls-1" x="86.52" y="21.3" width="59.48" height="0.36" transform="translate(16.02 84.16) rotate(-42.49)"/><path class="cls-1" d="M94.33,41.57c-27,1-55.37,1-81.94,1.51"/><rect class="cls-1" x="7.02" y="42.15" width="87.32" height="0.45" transform="translate(-0.77 0.94) rotate(-1.06)"/><line class="cls-1" x1="94.33" y1="41.57" x2="101.38" y2="105.9"/><polygon class="cls-1" points="94.52 41.55 101.56 105.88 101.19 105.92 94.15 41.59 94.52 41.55"/><line class="cls-1" x1="94.33" y1="41.57" x2="151.84" y2="114.78"/><polygon class="cls-1" points="94.52 41.42 152.03 114.64 151.65 114.93 94.15 41.71 94.52 41.42"/><line class="cls-1" x1="94.33" y1="41.57" x2="162.31" y2="57.62"/><polygon class="cls-1" points="94.38 41.37 162.35 57.43 162.26 57.81 94.29 41.76 94.38 41.37"/><line class="cls-1" x1="94.33" y1="41.57" x2="87.59" y2="91.52"/><polygon class="cls-1" points="94.17 41.54 94.5 41.59 87.75 91.54 87.43 91.5 94.17 41.54"/><path class="cls-1" d="M12.58,47.72,33.73,41.4"/><polygon class="cls-1" points="0 51.7 33.79 41.61 33.66 41.19 0 51.24 0 51.7"/><polygon class="cls-1" points="0 46.29 7.09 43.34 6.96 43.02 0 45.92 0 46.29"/><line class="cls-1" x1="64.3" y1="190.13" x2="47.84" y2="135.71"/><polygon class="cls-1" points="48.01 135.66 64.47 190.08 64.14 190.18 47.67 135.76 48.01 135.66"/><line class="cls-1" x1="64.3" y1="190.13" x2="101.38" y2="105.9"/><rect class="cls-1" x="36.82" y="147.78" width="92.03" height="0.47" transform="translate(-86.03 163.94) rotate(-66.15)"/><line class="cls-1" x1="64.3" y1="190.13" x2="124.54" y2="161.91"/><polygon class="cls-1" points="124.46 161.73 124.62 162.08 64.38 190.3 64.22 189.96 124.46 161.73"/><line class="cls-1" x1="64.3" y1="190.13" x2="124.01" y2="194.12"/><polygon class="cls-1" points="64.31 189.95 124.02 193.95 123.99 194.3 64.29 190.31 64.31 189.95"/><path class="cls-1" d="M64.3,190.13c-16.84-7.3-35.26-13-52-20.27"/><polygon class="cls-1" points="0 165.27 64.23 190.32 64.37 189.95 0 164.84 0 165.27"/><line class="cls-1" x1="407.99" y1="14.56" x2="425.15" y2="104.53"/><rect class="cls-1" x="416.33" y="13.75" width="0.47" height="91.59" transform="translate(-3.78 79.11) rotate(-10.8)"/><line class="cls-1" x1="407.99" y1="14.56" x2="451.13" y2="11.61"/><polygon class="cls-1" points="451.13 11.46 451.15 11.76 408 14.71 407.98 14.41 451.13 11.46"/><line class="cls-1" x1="407.99" y1="14.56" x2="464.1" y2="72.29"/><rect class="cls-1" x="435.83" y="3.17" width="0.43" height="80.5" transform="translate(93.1 316.21) rotate(-44.19)"/><line class="cls-1" x1="407.99" y1="14.56" x2="331" y2="2.45"/><polygon class="cls-1" points="331.03 2.24 408.02 14.36 407.95 14.77 330.96 2.65 331.03 2.24"/><line class="cls-1" x1="407.99" y1="14.56" x2="478.75" y2="61.6"/><rect class="cls-1" x="443.15" y="-4.41" width="0.45" height="84.97" transform="translate(166.23 386.25) rotate(-56.39)"/><line class="cls-1" x1="407.99" y1="14.56" x2="377.65" y2="48.84"/><rect class="cls-1" x="369.93" y="31.55" width="45.77" height="0.31" transform="translate(107.67 303.74) rotate(-48.27)"/><line class="cls-1" x1="407.99" y1="14.56" x2="377.65" y2="48.84"/><rect class="cls-1" x="369.93" y="31.55" width="45.77" height="0.31" transform="translate(107.67 303.74) rotate(-48.27)"/><line class="cls-1" x1="407.99" y1="14.56" x2="345.18" y2="10.85"/><rect class="cls-1" x="376.4" y="-18.75" width="0.37" height="62.91" transform="translate(341.68 387.89) rotate(-86.62)"/><line class="cls-1" x1="407.99" y1="14.56" x2="349.86" y2="76.64"/><polygon class="cls-1" points="407.82 14.41 408.15 14.71 350.02 76.8 349.7 76.49 407.82 14.41"/><line class="cls-1" x1="407.99" y1="14.56" x2="349.86" y2="76.64"/><polygon class="cls-1" points="407.82 14.41 408.15 14.71 350.02 76.8 349.7 76.49 407.82 14.41"/><path class="cls-1" d="M348.48,76.64A1.39,1.39,0,1,1,349.86,78,1.38,1.38,0,0,1,348.48,76.64Z"/><path class="cls-1" d="M352.68,105.94a1.39,1.39,0,1,1,1.38,1.38A1.38,1.38,0,0,1,352.68,105.94Z"/><path class="cls-1" d="M348.48,76.64A1.39,1.39,0,1,1,349.86,78,1.38,1.38,0,0,1,348.48,76.64Z"/><path class="cls-1" d="M352.68,105.94a1.39,1.39,0,1,1,1.38,1.38A1.38,1.38,0,0,1,352.68,105.94Z"/><path class="cls-1" d="M352.68,105.94a1.39,1.39,0,1,1,1.38,1.38A1.38,1.38,0,0,1,352.68,105.94Z"/><path class="cls-1" d="M343.8,10.85a1.39,1.39,0,1,1,1.38,1.38A1.38,1.38,0,0,1,343.8,10.85Z"/><path class="cls-1" d="M348.48,76.64A1.39,1.39,0,1,1,349.86,78,1.38,1.38,0,0,1,348.48,76.64Z"/><path class="cls-1" d="M343.8,10.85a1.39,1.39,0,1,1,1.38,1.38A1.38,1.38,0,0,1,343.8,10.85Z"/><path class="cls-1" d="M348.48,76.64A1.39,1.39,0,1,1,349.86,78,1.38,1.38,0,0,1,348.48,76.64Z"/><path class="cls-1" d="M343.8,10.85a1.39,1.39,0,1,1,1.38,1.38A1.38,1.38,0,0,1,343.8,10.85Z"/><path class="cls-1" d="M348.48,76.64A1.39,1.39,0,1,1,349.86,78,1.38,1.38,0,0,1,348.48,76.64Z"/><path class="cls-1" d="M256.05,70a1.39,1.39,0,1,1,1.38,1.38A1.38,1.38,0,0,1,256.05,70Z"/><path class="cls-1" d="M348.48,76.64A1.39,1.39,0,1,1,349.86,78,1.38,1.38,0,0,1,348.48,76.64Z"/><path class="cls-1" d="M256.05,70a1.39,1.39,0,1,1,1.38,1.38A1.38,1.38,0,0,1,256.05,70Z"/><path class="cls-1" d="M256.05,70a1.39,1.39,0,1,1,1.38,1.38A1.38,1.38,0,0,1,256.05,70Z"/><path class="cls-1" d="M232.54,96.77a1.39,1.39,0,1,1,1.38,1.38A1.38,1.38,0,0,1,232.54,96.77Z"/><path class="cls-1" d="M232.54,96.77a1.39,1.39,0,1,1,1.38,1.38A1.38,1.38,0,0,1,232.54,96.77Z"/><path class="cls-1" d="M266.87,131.16a1.39,1.39,0,1,1,1.38,1.38A1.38,1.38,0,0,1,266.87,131.16Z"/><path class="cls-1" d="M256.05,70a1.39,1.39,0,1,1,1.38,1.38A1.38,1.38,0,0,1,256.05,70Z"/><path class="cls-1" d="M266.87,131.16a1.39,1.39,0,1,1,1.38,1.38A1.38,1.38,0,0,1,266.87,131.16Z"/><path class="cls-1" d="M352.68,105.94a1.39,1.39,0,1,1,1.38,1.38A1.38,1.38,0,0,1,352.68,105.94Z"/><path class="cls-1" d="M266.87,131.16a1.39,1.39,0,1,1,1.38,1.38A1.38,1.38,0,0,1,266.87,131.16Z"/><path class="cls-1" d="M348.48,76.64A1.39,1.39,0,1,1,349.86,78,1.38,1.38,0,0,1,348.48,76.64Z"/><path class="cls-1" d="M266.87,131.16a1.39,1.39,0,1,1,1.38,1.38A1.38,1.38,0,0,1,266.87,131.16Z"/><path class="cls-1" d="M348.48,76.64A1.39,1.39,0,1,1,349.86,78,1.38,1.38,0,0,1,348.48,76.64Z"/><path class="cls-1" d="M266.87,131.16a1.39,1.39,0,1,1,1.38,1.38A1.38,1.38,0,0,1,266.87,131.16Z"/><path class="cls-1" d="M352.68,105.94a1.39,1.39,0,1,1,1.38,1.38A1.38,1.38,0,0,1,352.68,105.94Z"/><path class="cls-1" d="M369.79,119.08a1.39,1.39,0,1,1,1.39,1.38A1.39,1.39,0,0,1,369.79,119.08Z"/><path class="cls-1" d="M348.48,76.64A1.39,1.39,0,1,1,349.86,78,1.38,1.38,0,0,1,348.48,76.64Z"/><path class="cls-1" d="M369.79,119.08a1.39,1.39,0,1,1,1.39,1.38A1.39,1.39,0,0,1,369.79,119.08Z"/><path class="cls-1" d="M348.48,76.64A1.39,1.39,0,1,1,349.86,78,1.38,1.38,0,0,1,348.48,76.64Z"/><path class="cls-1" d="M369.79,119.08a1.39,1.39,0,1,1,1.39,1.38A1.39,1.39,0,0,1,369.79,119.08Z"/><path class="cls-1" d="M369.79,119.08a1.39,1.39,0,1,1,1.39,1.38A1.39,1.39,0,0,1,369.79,119.08Z"/><path class="cls-1" d="M376.27,48.84a1.39,1.39,0,1,1,1.38,1.38A1.38,1.38,0,0,1,376.27,48.84Z"/><path class="cls-1" d="M343.8,10.85a1.39,1.39,0,1,1,1.38,1.38A1.38,1.38,0,0,1,343.8,10.85Z"/><path class="cls-1" d="M376.27,48.84a1.39,1.39,0,1,1,1.38,1.38A1.38,1.38,0,0,1,376.27,48.84Z"/><path class="cls-1" d="M352.68,105.94a1.39,1.39,0,1,1,1.38,1.38A1.38,1.38,0,0,1,352.68,105.94Z"/><path class="cls-1" d="M376.27,48.84a1.39,1.39,0,1,1,1.38,1.38A1.38,1.38,0,0,1,376.27,48.84Z"/><path class="cls-1" d="M348.48,76.64A1.39,1.39,0,1,1,349.86,78,1.38,1.38,0,0,1,348.48,76.64Z"/><path class="cls-1" d="M376.27,48.84a1.39,1.39,0,1,1,1.38,1.38A1.38,1.38,0,0,1,376.27,48.84Z"/><path class="cls-1" d="M348.48,76.64A1.39,1.39,0,1,1,349.86,78,1.38,1.38,0,0,1,348.48,76.64Z"/><path class="cls-1" d="M376.27,48.84a1.39,1.39,0,1,1,1.38,1.38A1.38,1.38,0,0,1,376.27,48.84Z"/><path class="cls-1" d="M369.79,119.08a1.39,1.39,0,1,1,1.39,1.38A1.39,1.39,0,0,1,369.79,119.08Z"/><path class="cls-1" d="M376.27,48.84a1.39,1.39,0,1,1,1.38,1.38A1.38,1.38,0,0,1,376.27,48.84Z"/><path class="cls-1" d="M343.8,10.85a1.39,1.39,0,1,1,1.38,1.38A1.38,1.38,0,0,1,343.8,10.85Z"/><path class="cls-1" d="M376.27,48.84a1.39,1.39,0,1,1,1.38,1.38A1.38,1.38,0,0,1,376.27,48.84Z"/><path class="cls-1" d="M352.68,105.94a1.39,1.39,0,1,1,1.38,1.38A1.38,1.38,0,0,1,352.68,105.94Z"/><path class="cls-1" d="M376.27,48.84a1.39,1.39,0,1,1,1.38,1.38A1.38,1.38,0,0,1,376.27,48.84Z"/><path class="cls-1" d="M348.48,76.64A1.39,1.39,0,1,1,349.86,78,1.38,1.38,0,0,1,348.48,76.64Z"/><path class="cls-1" d="M376.27,48.84a1.39,1.39,0,1,1,1.38,1.38A1.38,1.38,0,0,1,376.27,48.84Z"/><path class="cls-1" d="M348.48,76.64A1.39,1.39,0,1,1,349.86,78,1.38,1.38,0,0,1,348.48,76.64Z"/><path class="cls-1" d="M376.27,48.84a1.39,1.39,0,1,1,1.38,1.38A1.38,1.38,0,0,1,376.27,48.84Z"/><path class="cls-1" d="M477.37,61.6A1.38,1.38,0,1,1,478.75,63,1.38,1.38,0,0,1,477.37,61.6Z"/><path class="cls-1" d="M266.87,131.16a1.39,1.39,0,1,1,1.38,1.38A1.38,1.38,0,0,1,266.87,131.16Z"/><path class="cls-1" d="M256.13,39.67a1.39,1.39,0,1,1,1.39,1.39A1.38,1.38,0,0,1,256.13,39.67Z"/><path class="cls-1" d="M232.54,96.77a1.39,1.39,0,1,1,1.38,1.38A1.38,1.38,0,0,1,232.54,96.77Z"/><path class="cls-1" d="M256.13,39.67a1.39,1.39,0,1,1,1.39,1.39A1.38,1.38,0,0,1,256.13,39.67Z"/><path class="cls-1" d="M256.05,70a1.39,1.39,0,1,1,1.38,1.38A1.38,1.38,0,0,1,256.05,70Z"/><path class="cls-1" d="M256.13,39.67a1.39,1.39,0,1,1,1.39,1.39A1.38,1.38,0,0,1,256.13,39.67Z"/><path class="cls-1" d="M343.8,10.85a1.39,1.39,0,1,1,1.38,1.38A1.38,1.38,0,0,1,343.8,10.85Z"/><path class="cls-1" d="M256.13,39.67a1.39,1.39,0,1,1,1.39,1.39A1.38,1.38,0,0,1,256.13,39.67Z"/><path class="cls-1" d="M369.79,119.08a1.39,1.39,0,1,1,1.39,1.38A1.39,1.39,0,0,1,369.79,119.08Z"/><path class="cls-1" d="M324,176a1.38,1.38,0,1,1,1.38,1.39A1.38,1.38,0,0,1,324,176Z"/><path class="cls-1" d="M266.87,131.16a1.39,1.39,0,1,1,1.38,1.38A1.38,1.38,0,0,1,266.87,131.16Z"/><path class="cls-1" d="M324,176a1.38,1.38,0,1,1,1.38,1.39A1.38,1.38,0,0,1,324,176Z"/><path class="cls-1" d="M352.68,105.94a1.39,1.39,0,1,1,1.38,1.38A1.38,1.38,0,0,1,352.68,105.94Z"/><path class="cls-1" d="M324,176a1.38,1.38,0,1,1,1.38,1.39A1.38,1.38,0,0,1,324,176Z"/><path class="cls-1" d="M86.21,91.52a1.38,1.38,0,1,1,1.38,1.39A1.38,1.38,0,0,1,86.21,91.52Z"/><path class="cls-1" d="M160.92,57.62A1.39,1.39,0,1,1,162.31,59,1.39,1.39,0,0,1,160.92,57.62Z"/><path class="cls-1" d="M256.13,39.67a1.39,1.39,0,1,1,1.39,1.39A1.38,1.38,0,0,1,256.13,39.67Z"/><path class="cls-1" d="M160.92,57.62A1.39,1.39,0,1,1,162.31,59,1.39,1.39,0,0,1,160.92,57.62Z"/><path class="cls-1" d="M232.54,96.77a1.39,1.39,0,1,1,1.38,1.38A1.38,1.38,0,0,1,232.54,96.77Z"/><path class="cls-1" d="M160.92,57.62A1.39,1.39,0,1,1,162.31,59,1.39,1.39,0,0,1,160.92,57.62Z"/><path class="cls-1" d="M256.05,70a1.39,1.39,0,1,1,1.38,1.38A1.38,1.38,0,0,1,256.05,70Z"/><path class="cls-1" d="M160.92,57.62A1.39,1.39,0,1,1,162.31,59,1.39,1.39,0,0,1,160.92,57.62Z"/><path class="cls-1" d="M122.62,194.12a1.39,1.39,0,1,1,1.39,1.39A1.38,1.38,0,0,1,122.62,194.12Z"/><path class="cls-1" d="M123.16,161.91a1.38,1.38,0,1,1,1.38,1.38A1.38,1.38,0,0,1,123.16,161.91Z"/><path class="cls-1" d="M86.21,91.52a1.38,1.38,0,1,1,1.38,1.39A1.38,1.38,0,0,1,86.21,91.52Z"/><path class="cls-1" d="M123.16,161.91a1.38,1.38,0,1,1,1.38,1.38A1.38,1.38,0,0,1,123.16,161.91Z"/><path class="cls-1" d="M123.16,161.91a1.38,1.38,0,1,1,1.38,1.38A1.38,1.38,0,0,1,123.16,161.91Z"/><path class="cls-1" d="M150.46,114.78a1.38,1.38,0,1,1,1.38,1.39A1.38,1.38,0,0,1,150.46,114.78Z"/><path class="cls-1" d="M160.92,57.62A1.39,1.39,0,1,1,162.31,59,1.39,1.39,0,0,1,160.92,57.62Z"/><path class="cls-1" d="M150.46,114.78a1.38,1.38,0,1,1,1.38,1.39A1.38,1.38,0,0,1,150.46,114.78Z"/><path class="cls-1" d="M122.62,194.12a1.39,1.39,0,1,1,1.39,1.39A1.38,1.38,0,0,1,122.62,194.12Z"/><path class="cls-1" d="M150.46,114.78a1.38,1.38,0,1,1,1.38,1.39A1.38,1.38,0,0,1,150.46,114.78Z"/><path class="cls-1" d="M86.21,91.52a1.38,1.38,0,1,1,1.38,1.39A1.38,1.38,0,0,1,86.21,91.52Z"/><path class="cls-1" d="M150.46,114.78a1.38,1.38,0,1,1,1.38,1.39A1.38,1.38,0,0,1,150.46,114.78Z"/><path class="cls-1" d="M232.54,96.77a1.39,1.39,0,1,1,1.38,1.38A1.38,1.38,0,0,1,232.54,96.77Z"/><path class="cls-1" d="M150.46,114.78a1.38,1.38,0,1,1,1.38,1.39A1.38,1.38,0,0,1,150.46,114.78Z"/><path class="cls-1" d="M150.46,114.78a1.38,1.38,0,1,1,1.38,1.39A1.38,1.38,0,0,1,150.46,114.78Z"/><circle class="cls-1" cx="101.38" cy="105.9" r="1.38"/><path class="cls-1" d="M123.16,161.91a1.38,1.38,0,1,1,1.38,1.38A1.38,1.38,0,0,1,123.16,161.91Z"/><circle class="cls-1" cx="101.38" cy="105.9" r="1.38"/><path class="cls-1" d="M160.92,57.62A1.39,1.39,0,1,1,162.31,59,1.39,1.39,0,0,1,160.92,57.62Z"/><circle class="cls-1" cx="101.38" cy="105.9" r="1.38"/><path class="cls-1" d="M122.62,194.12a1.39,1.39,0,1,1,1.39,1.39A1.38,1.38,0,0,1,122.62,194.12Z"/><circle class="cls-1" cx="101.38" cy="105.9" r="1.38"/><path class="cls-1" d="M86.21,91.52a1.38,1.38,0,1,1,1.38,1.39A1.38,1.38,0,0,1,86.21,91.52Z"/><circle class="cls-1" cx="101.38" cy="105.9" r="1.38"/><path class="cls-1" d="M86.21,91.52a1.38,1.38,0,1,1,1.38,1.39A1.38,1.38,0,0,1,86.21,91.52Z"/><path class="cls-1" d="M5.64,43.18A1.39,1.39,0,1,1,7,44.57,1.38,1.38,0,0,1,5.64,43.18Z"/><path class="cls-1" d="M160.92,57.62A1.39,1.39,0,1,1,162.31,59,1.39,1.39,0,0,1,160.92,57.62Z"/><path class="cls-1" d="M190.09,6.89a1.38,1.38,0,1,1,1.38,1.39A1.38,1.38,0,0,1,190.09,6.89Z"/><path class="cls-1" d="M256.13,39.67a1.39,1.39,0,1,1,1.39,1.39A1.38,1.38,0,0,1,256.13,39.67Z"/><path class="cls-1" d="M190.09,6.89a1.38,1.38,0,1,1,1.38,1.39A1.38,1.38,0,0,1,190.09,6.89Z"/><path class="cls-1" d="M256.05,70a1.39,1.39,0,1,1,1.38,1.38A1.38,1.38,0,0,1,256.05,70Z"/><path class="cls-1" d="M190.09,6.89a1.38,1.38,0,1,1,1.38,1.39A1.38,1.38,0,0,1,190.09,6.89Z"/><path class="cls-1" d="M256.13,39.67a1.39,1.39,0,1,1,1.39,1.39A1.38,1.38,0,0,1,256.13,39.67Z"/><path class="cls-1" d="M329.61,2.45A1.39,1.39,0,1,1,331,3.83,1.39,1.39,0,0,1,329.61,2.45Z"/><path class="cls-1" d="M376.27,48.84a1.39,1.39,0,1,1,1.38,1.38A1.38,1.38,0,0,1,376.27,48.84Z"/><path class="cls-1" d="M329.61,2.45A1.39,1.39,0,1,1,331,3.83,1.39,1.39,0,0,1,329.61,2.45Z"/><path class="cls-1" d="M376.27,48.84a1.39,1.39,0,1,1,1.38,1.38A1.38,1.38,0,0,1,376.27,48.84Z"/><path class="cls-1" d="M329.61,2.45A1.39,1.39,0,1,1,331,3.83,1.39,1.39,0,0,1,329.61,2.45Z"/><path class="cls-1" d="M343.8,10.85a1.39,1.39,0,1,1,1.38,1.38A1.38,1.38,0,0,1,343.8,10.85Z"/><path class="cls-1" d="M329.61,2.45A1.39,1.39,0,1,1,331,3.83,1.39,1.39,0,0,1,329.61,2.45Z"/><path class="cls-1" d="M348.48,76.64A1.39,1.39,0,1,1,349.86,78,1.38,1.38,0,0,1,348.48,76.64Z"/><path class="cls-1" d="M329.61,2.45A1.39,1.39,0,1,1,331,3.83,1.39,1.39,0,0,1,329.61,2.45Z"/><path class="cls-1" d="M348.48,76.64A1.39,1.39,0,1,1,349.86,78,1.38,1.38,0,0,1,348.48,76.64Z"/><path class="cls-1" d="M329.61,2.45A1.39,1.39,0,1,1,331,3.83,1.39,1.39,0,0,1,329.61,2.45Z"/><path class="cls-1" d="M190.09,6.89a1.38,1.38,0,1,1,1.38,1.39A1.38,1.38,0,0,1,190.09,6.89Z"/><path class="cls-1" d="M136.81,1.38a1.38,1.38,0,1,1,1.38,1.39A1.38,1.38,0,0,1,136.81,1.38Z"/><path class="cls-1" d="M160.92,57.62A1.39,1.39,0,1,1,162.31,59,1.39,1.39,0,0,1,160.92,57.62Z"/><path class="cls-1" d="M136.81,1.38a1.38,1.38,0,1,1,1.38,1.39A1.38,1.38,0,0,1,136.81,1.38Z"/><path class="cls-1" d="M5.64,43.18A1.39,1.39,0,1,1,7,44.57,1.38,1.38,0,0,1,5.64,43.18Z"/><path class="cls-1" d="M32.34,41.4a1.39,1.39,0,1,1,1.39,1.39A1.38,1.38,0,0,1,32.34,41.4Z"/><circle class="cls-1" cx="101.38" cy="105.9" r="1.38"/><path class="cls-1" d="M32.34,41.4a1.39,1.39,0,1,1,1.39,1.39A1.38,1.38,0,0,1,32.34,41.4Z"/><path class="cls-1" d="M86.21,91.52a1.38,1.38,0,1,1,1.38,1.39A1.38,1.38,0,0,1,86.21,91.52Z"/><path class="cls-1" d="M32.34,41.4a1.39,1.39,0,1,1,1.39,1.39A1.38,1.38,0,0,1,32.34,41.4Z"/><path class="cls-1" d="M32.34,41.4a1.39,1.39,0,1,1,1.39,1.39A1.38,1.38,0,0,1,32.34,41.4Z"/><path class="cls-1" d="M5.64,43.18A1.39,1.39,0,1,1,7,44.57,1.38,1.38,0,0,1,5.64,43.18Z"/><path class="cls-1" d="M86.21,91.52a1.38,1.38,0,1,1,1.38,1.39A1.38,1.38,0,0,1,86.21,91.52Z"/><path class="cls-1" d="M46.46,135.71a1.38,1.38,0,1,1,1.38,1.38A1.38,1.38,0,0,1,46.46,135.71Z"/><path class="cls-1" d="M32.34,41.4a1.39,1.39,0,1,1,1.39,1.39A1.38,1.38,0,0,1,32.34,41.4Z"/><path class="cls-1" d="M46.46,135.71a1.38,1.38,0,1,1,1.38,1.38A1.38,1.38,0,0,1,46.46,135.71Z"/><circle class="cls-1" cx="101.38" cy="105.9" r="1.38"/><path class="cls-1" d="M46.46,135.71a1.38,1.38,0,1,1,1.38,1.38A1.38,1.38,0,0,1,46.46,135.71Z"/><path class="cls-1" d="M46.46,135.71a1.38,1.38,0,1,1,1.38,1.38A1.38,1.38,0,0,1,46.46,135.71Z"/><path class="cls-1" d="M46.46,135.71a1.38,1.38,0,1,1,1.38,1.38A1.38,1.38,0,0,1,46.46,135.71Z"/><path class="cls-1" d="M123.16,161.91a1.38,1.38,0,1,1,1.38,1.38A1.38,1.38,0,0,1,123.16,161.91Z"/><path class="cls-1" d="M46.46,135.71a1.38,1.38,0,1,1,1.38,1.38A1.38,1.38,0,0,1,46.46,135.71Z"/><path class="cls-1" d="M46.46,135.71a1.38,1.38,0,1,1,1.38,1.38A1.38,1.38,0,0,1,46.46,135.71Z"/><path class="cls-1" d="M122.62,194.12a1.39,1.39,0,1,1,1.39,1.39A1.38,1.38,0,0,1,122.62,194.12Z"/><path class="cls-1" d="M46.46,135.71a1.38,1.38,0,1,1,1.38,1.38A1.38,1.38,0,0,1,46.46,135.71Z"/><path class="cls-1" d="M46.46,135.71a1.38,1.38,0,1,1,1.38,1.38A1.38,1.38,0,0,1,46.46,135.71Z"/><path class="cls-1" d="M86.21,91.52a1.38,1.38,0,1,1,1.38,1.39A1.38,1.38,0,0,1,86.21,91.52Z"/><path class="cls-1" d="M46.46,135.71a1.38,1.38,0,1,1,1.38,1.38A1.38,1.38,0,0,1,46.46,135.71Z"/><path class="cls-1" d="M477.37,61.6A1.38,1.38,0,1,1,478.75,63,1.38,1.38,0,0,1,477.37,61.6Z"/><path class="cls-1" d="M462.71,72.29a1.39,1.39,0,1,1,1.39,1.38A1.39,1.39,0,0,1,462.71,72.29Z"/><path class="cls-1" d="M376.27,48.84a1.39,1.39,0,1,1,1.38,1.38A1.38,1.38,0,0,1,376.27,48.84Z"/><path class="cls-1" d="M462.71,72.29a1.39,1.39,0,1,1,1.39,1.38A1.39,1.39,0,0,1,462.71,72.29Z"/><path class="cls-1" d="M376.27,48.84a1.39,1.39,0,1,1,1.38,1.38A1.38,1.38,0,0,1,376.27,48.84Z"/><path class="cls-1" d="M462.71,72.29a1.39,1.39,0,1,1,1.39,1.38A1.39,1.39,0,0,1,462.71,72.29Z"/><path class="cls-1" d="M462.71,72.29a1.39,1.39,0,1,1,1.39,1.38A1.39,1.39,0,0,1,462.71,72.29Z"/><path class="cls-1" d="M462.71,72.29a1.39,1.39,0,1,1,1.39,1.38A1.39,1.39,0,0,1,462.71,72.29Z"/><path class="cls-1" d="M449.75,11.61A1.39,1.39,0,1,1,451.13,13,1.38,1.38,0,0,1,449.75,11.61Z"/><path class="cls-1" d="M477.37,61.6A1.38,1.38,0,1,1,478.75,63,1.38,1.38,0,0,1,477.37,61.6Z"/><path class="cls-1" d="M449.75,11.61A1.39,1.39,0,1,1,451.13,13,1.38,1.38,0,0,1,449.75,11.61Z"/><path class="cls-1" d="M376.27,48.84a1.39,1.39,0,1,1,1.38,1.38A1.38,1.38,0,0,1,376.27,48.84Z"/><path class="cls-1" d="M449.75,11.61A1.39,1.39,0,1,1,451.13,13,1.38,1.38,0,0,1,449.75,11.61Z"/><path class="cls-1" d="M376.27,48.84a1.39,1.39,0,1,1,1.38,1.38A1.38,1.38,0,0,1,376.27,48.84Z"/><path class="cls-1" d="M449.75,11.61A1.39,1.39,0,1,1,451.13,13,1.38,1.38,0,0,1,449.75,11.61Z"/><path class="cls-1" d="M449.75,11.61A1.39,1.39,0,1,1,451.13,13,1.38,1.38,0,0,1,449.75,11.61Z"/><path class="cls-1" d="M449.75,11.61A1.39,1.39,0,1,1,451.13,13,1.38,1.38,0,0,1,449.75,11.61Z"/><path class="cls-1" d="M423.76,104.53a1.39,1.39,0,1,1,1.39,1.38A1.38,1.38,0,0,1,423.76,104.53Z"/><path class="cls-1" d="M462.71,72.29a1.39,1.39,0,1,1,1.39,1.38A1.39,1.39,0,0,1,462.71,72.29Z"/><path class="cls-1" d="M423.76,104.53a1.39,1.39,0,1,1,1.39,1.38A1.38,1.38,0,0,1,423.76,104.53Z"/><path class="cls-1" d="M477.37,61.6A1.38,1.38,0,1,1,478.75,63,1.38,1.38,0,0,1,477.37,61.6Z"/><path class="cls-1" d="M423.76,104.53a1.39,1.39,0,1,1,1.39,1.38A1.38,1.38,0,0,1,423.76,104.53Z"/><path class="cls-1" d="M376.27,48.84a1.39,1.39,0,1,1,1.38,1.38A1.38,1.38,0,0,1,376.27,48.84Z"/><path class="cls-1" d="M423.76,104.53a1.39,1.39,0,1,1,1.39,1.38A1.38,1.38,0,0,1,423.76,104.53Z"/><path class="cls-1" d="M376.27,48.84a1.39,1.39,0,1,1,1.38,1.38A1.38,1.38,0,0,1,376.27,48.84Z"/><path class="cls-1" d="M423.76,104.53a1.39,1.39,0,1,1,1.39,1.38A1.38,1.38,0,0,1,423.76,104.53Z"/><path class="cls-1" d="M369.79,119.08a1.39,1.39,0,1,1,1.39,1.38A1.39,1.39,0,0,1,369.79,119.08Z"/><path class="cls-1" d="M423.76,104.53a1.39,1.39,0,1,1,1.39,1.38A1.38,1.38,0,0,1,423.76,104.53Z"/><path class="cls-1" d="M352.68,105.94a1.39,1.39,0,1,1,1.38,1.38A1.38,1.38,0,0,1,352.68,105.94Z"/><path class="cls-1" d="M423.76,104.53a1.39,1.39,0,1,1,1.39,1.38A1.38,1.38,0,0,1,423.76,104.53Z"/><path class="cls-1" d="M348.48,76.64A1.39,1.39,0,1,1,349.86,78,1.38,1.38,0,0,1,348.48,76.64Z"/><path class="cls-1" d="M423.76,104.53a1.39,1.39,0,1,1,1.39,1.38A1.38,1.38,0,0,1,423.76,104.53Z"/><path class="cls-1" d="M348.48,76.64A1.39,1.39,0,1,1,349.86,78,1.38,1.38,0,0,1,348.48,76.64Z"/><path class="cls-1" d="M423.76,104.53a1.39,1.39,0,1,1,1.39,1.38A1.38,1.38,0,0,1,423.76,104.53Z"/><path class="cls-1" d="M324,176a1.38,1.38,0,1,1,1.38,1.39A1.38,1.38,0,0,1,324,176Z"/><path class="cls-1" d="M232.42,178.61A1.38,1.38,0,1,1,233.8,180,1.38,1.38,0,0,1,232.42,178.61Z"/><path class="cls-1" d="M266.87,131.16a1.39,1.39,0,1,1,1.38,1.38A1.38,1.38,0,0,1,266.87,131.16Z"/><path class="cls-1" d="M232.42,178.61A1.38,1.38,0,1,1,233.8,180,1.38,1.38,0,0,1,232.42,178.61Z"/><path class="cls-1" d="M232.54,96.77a1.39,1.39,0,1,1,1.38,1.38A1.38,1.38,0,0,1,232.54,96.77Z"/><path class="cls-1" d="M232.42,178.61A1.38,1.38,0,1,1,233.8,180,1.38,1.38,0,0,1,232.42,178.61Z"/><path class="cls-1" d="M232.42,178.61A1.38,1.38,0,1,1,233.8,180,1.38,1.38,0,0,1,232.42,178.61Z"/><path class="cls-1" d="M161.84,182.16a1.38,1.38,0,1,1,1.38,1.38A1.38,1.38,0,0,1,161.84,182.16Z"/><circle class="cls-1" cx="101.38" cy="105.9" r="1.38"/><path class="cls-1" d="M161.84,182.16a1.38,1.38,0,1,1,1.38,1.38A1.38,1.38,0,0,1,161.84,182.16Z"/><path class="cls-1" d="M150.46,114.78a1.38,1.38,0,1,1,1.38,1.39A1.38,1.38,0,0,1,150.46,114.78Z"/><path class="cls-1" d="M161.84,182.16a1.38,1.38,0,1,1,1.38,1.38A1.38,1.38,0,0,1,161.84,182.16Z"/><path class="cls-1" d="M123.16,161.91a1.38,1.38,0,1,1,1.38,1.38A1.38,1.38,0,0,1,123.16,161.91Z"/><path class="cls-1" d="M161.84,182.16a1.38,1.38,0,1,1,1.38,1.38A1.38,1.38,0,0,1,161.84,182.16Z"/><path class="cls-1" d="M122.62,194.12a1.39,1.39,0,1,1,1.39,1.39A1.38,1.38,0,0,1,122.62,194.12Z"/><path class="cls-1" d="M161.84,182.16a1.38,1.38,0,1,1,1.38,1.38A1.38,1.38,0,0,1,161.84,182.16Z"/><path class="cls-1" d="M161.84,182.16a1.38,1.38,0,1,1,1.38,1.38A1.38,1.38,0,0,1,161.84,182.16Z"/><path class="cls-1" d="M195.84,136.62a1.39,1.39,0,1,1,1.38,1.38A1.38,1.38,0,0,1,195.84,136.62Z"/><path class="cls-1" d="M232.42,178.61A1.38,1.38,0,1,1,233.8,180,1.38,1.38,0,0,1,232.42,178.61Z"/><path class="cls-1" d="M195.84,136.62a1.39,1.39,0,1,1,1.38,1.38A1.38,1.38,0,0,1,195.84,136.62Z"/><path class="cls-1" d="M150.46,114.78a1.38,1.38,0,1,1,1.38,1.39A1.38,1.38,0,0,1,150.46,114.78Z"/><path class="cls-1" d="M195.84,136.62a1.39,1.39,0,1,1,1.38,1.38A1.38,1.38,0,0,1,195.84,136.62Z"/><path class="cls-1" d="M123.16,161.91a1.38,1.38,0,1,1,1.38,1.38A1.38,1.38,0,0,1,123.16,161.91Z"/><path class="cls-1" d="M195.84,136.62a1.39,1.39,0,1,1,1.38,1.38A1.38,1.38,0,0,1,195.84,136.62Z"/><path class="cls-1" d="M160.92,57.62A1.39,1.39,0,1,1,162.31,59,1.39,1.39,0,0,1,160.92,57.62Z"/><path class="cls-1" d="M195.84,136.62a1.39,1.39,0,1,1,1.38,1.38A1.38,1.38,0,0,1,195.84,136.62Z"/><path class="cls-1" d="M122.62,194.12a1.39,1.39,0,1,1,1.39,1.39A1.38,1.38,0,0,1,122.62,194.12Z"/><path class="cls-1" d="M195.84,136.62a1.39,1.39,0,1,1,1.38,1.38A1.38,1.38,0,0,1,195.84,136.62Z"/><path class="cls-1" d="M266.87,131.16a1.39,1.39,0,1,1,1.38,1.38A1.38,1.38,0,0,1,266.87,131.16Z"/><path class="cls-1" d="M195.84,136.62a1.39,1.39,0,1,1,1.38,1.38A1.38,1.38,0,0,1,195.84,136.62Z"/><path class="cls-1" d="M232.54,96.77a1.39,1.39,0,1,1,1.38,1.38A1.38,1.38,0,0,1,232.54,96.77Z"/><path class="cls-1" d="M195.84,136.62a1.39,1.39,0,1,1,1.38,1.38A1.38,1.38,0,0,1,195.84,136.62Z"/><path class="cls-1" d="M256.05,70a1.39,1.39,0,1,1,1.38,1.38A1.38,1.38,0,0,1,256.05,70Z"/><path class="cls-1" d="M195.84,136.62a1.39,1.39,0,1,1,1.38,1.38A1.38,1.38,0,0,1,195.84,136.62Z"/><path class="cls-1" d="M32.34,41.4a1.39,1.39,0,1,1,1.39,1.39A1.38,1.38,0,0,1,32.34,41.4Z"/><path class="cls-1" d="M93,41.57A1.39,1.39,0,1,1,94.33,43,1.38,1.38,0,0,1,93,41.57Z"/><path class="cls-1" d="M136.81,1.38a1.38,1.38,0,1,1,1.38,1.39A1.38,1.38,0,0,1,136.81,1.38Z"/><path class="cls-1" d="M93,41.57A1.39,1.39,0,1,1,94.33,43,1.38,1.38,0,0,1,93,41.57Z"/><path class="cls-1" d="M5.64,43.18A1.39,1.39,0,1,1,7,44.57,1.38,1.38,0,0,1,5.64,43.18Z"/><path class="cls-1" d="M93,41.57A1.39,1.39,0,1,1,94.33,43,1.38,1.38,0,0,1,93,41.57Z"/><circle class="cls-1" cx="101.38" cy="105.9" r="1.38"/><path class="cls-1" d="M93,41.57A1.39,1.39,0,1,1,94.33,43,1.38,1.38,0,0,1,93,41.57Z"/><path class="cls-1" d="M150.46,114.78a1.38,1.38,0,1,1,1.38,1.39A1.38,1.38,0,0,1,150.46,114.78Z"/><path class="cls-1" d="M93,41.57A1.39,1.39,0,1,1,94.33,43,1.38,1.38,0,0,1,93,41.57Z"/><path class="cls-1" d="M160.92,57.62A1.39,1.39,0,1,1,162.31,59,1.39,1.39,0,0,1,160.92,57.62Z"/><path class="cls-1" d="M93,41.57A1.39,1.39,0,1,1,94.33,43,1.38,1.38,0,0,1,93,41.57Z"/><path class="cls-1" d="M86.21,91.52a1.38,1.38,0,1,1,1.38,1.39A1.38,1.38,0,0,1,86.21,91.52Z"/><path class="cls-1" d="M93,41.57A1.39,1.39,0,1,1,94.33,43,1.38,1.38,0,0,1,93,41.57Z"/><path class="cls-1" d="M32.34,41.4a1.39,1.39,0,1,1,1.39,1.39A1.38,1.38,0,0,1,32.34,41.4Z"/><path class="cls-1" d="M5.64,43.18A1.39,1.39,0,1,1,7,44.57,1.38,1.38,0,0,1,5.64,43.18Z"/><path class="cls-1" d="M46.46,135.71a1.38,1.38,0,1,1,1.38,1.38A1.38,1.38,0,0,1,46.46,135.71Z"/><path class="cls-1" d="M62.92,190.13a1.38,1.38,0,1,1,1.38,1.38A1.38,1.38,0,0,1,62.92,190.13Z"/><circle class="cls-1" cx="101.38" cy="105.9" r="1.38"/><path class="cls-1" d="M62.92,190.13a1.38,1.38,0,1,1,1.38,1.38A1.38,1.38,0,0,1,62.92,190.13Z"/><path class="cls-1" d="M123.16,161.91a1.38,1.38,0,1,1,1.38,1.38A1.38,1.38,0,0,1,123.16,161.91Z"/><path class="cls-1" d="M62.92,190.13a1.38,1.38,0,1,1,1.38,1.38A1.38,1.38,0,0,1,62.92,190.13Z"/><path class="cls-1" d="M122.62,194.12a1.39,1.39,0,1,1,1.39,1.39A1.38,1.38,0,0,1,122.62,194.12Z"/><path class="cls-1" d="M62.92,190.13a1.38,1.38,0,1,1,1.38,1.38A1.38,1.38,0,0,1,62.92,190.13Z"/><path class="cls-1" d="M62.92,190.13a1.38,1.38,0,1,1,1.38,1.38A1.38,1.38,0,0,1,62.92,190.13Z"/><path class="cls-1" d="M423.76,104.53a1.39,1.39,0,1,1,1.39,1.38A1.38,1.38,0,0,1,423.76,104.53Z"/><path class="cls-1" d="M406.6,14.56A1.39,1.39,0,1,1,408,16,1.38,1.38,0,0,1,406.6,14.56Z"/><path class="cls-1" d="M449.75,11.61A1.39,1.39,0,1,1,451.13,13,1.38,1.38,0,0,1,449.75,11.61Z"/><path class="cls-1" d="M406.6,14.56A1.39,1.39,0,1,1,408,16,1.38,1.38,0,0,1,406.6,14.56Z"/><path class="cls-1" d="M462.71,72.29a1.39,1.39,0,1,1,1.39,1.38A1.39,1.39,0,0,1,462.71,72.29Z"/><path class="cls-1" d="M406.6,14.56A1.39,1.39,0,1,1,408,16,1.38,1.38,0,0,1,406.6,14.56Z"/><path class="cls-1" d="M329.61,2.45A1.39,1.39,0,1,1,331,3.83,1.39,1.39,0,0,1,329.61,2.45Z"/><path class="cls-1" d="M406.6,14.56A1.39,1.39,0,1,1,408,16,1.38,1.38,0,0,1,406.6,14.56Z"/><path class="cls-1" d="M477.37,61.6A1.38,1.38,0,1,1,478.75,63,1.38,1.38,0,0,1,477.37,61.6Z"/><path class="cls-1" d="M406.6,14.56A1.39,1.39,0,1,1,408,16,1.38,1.38,0,0,1,406.6,14.56Z"/><path class="cls-1" d="M376.27,48.84a1.39,1.39,0,1,1,1.38,1.38A1.38,1.38,0,0,1,376.27,48.84Z"/><path class="cls-1" d="M406.6,14.56A1.39,1.39,0,1,1,408,16,1.38,1.38,0,0,1,406.6,14.56Z"/><path class="cls-1" d="M376.27,48.84a1.39,1.39,0,1,1,1.38,1.38A1.38,1.38,0,0,1,376.27,48.84Z"/><path class="cls-1" d="M406.6,14.56A1.39,1.39,0,1,1,408,16,1.38,1.38,0,0,1,406.6,14.56Z"/><path class="cls-1" d="M343.8,10.85a1.39,1.39,0,1,1,1.38,1.38A1.38,1.38,0,0,1,343.8,10.85Z"/><path class="cls-1" d="M406.6,14.56A1.39,1.39,0,1,1,408,16,1.38,1.38,0,0,1,406.6,14.56Z"/><path class="cls-1" d="M348.48,76.64A1.39,1.39,0,1,1,349.86,78,1.38,1.38,0,0,1,348.48,76.64Z"/><path class="cls-1" d="M406.6,14.56A1.39,1.39,0,1,1,408,16,1.38,1.38,0,0,1,406.6,14.56Z"/><path class="cls-1" d="M348.48,76.64A1.39,1.39,0,1,1,349.86,78,1.38,1.38,0,0,1,348.48,76.64Z"/><path class="cls-1" d="M406.6,14.56A1.39,1.39,0,1,1,408,16,1.38,1.38,0,0,1,406.6,14.56Z"/><polygon class="cls-1" points="175.74 76.84 111.67 47.99 111.87 47.55 175.94 76.4 175.74 76.84"/><polygon class="cls-1" points="0 212.57 14.47 199.42 14.02 198.92 0 211.65 0 212.57"/><polygon class="cls-1" points="0 185.66 14.01 199.4 14.48 198.93 0 184.73 0 185.66"/><polygon class="cls-1" points="244.18 102.26 175.76 76.85 175.93 76.39 244.35 101.81 244.18 102.26"/><rect class="cls-1" x="177.65" y="3.31" width="0.73" height="143.18" transform="translate(41.24 211.26) rotate(-67.73)"/><polygon class="cls-1" points="0 198.96 14.23 199.47 14.25 198.87 0 198.36 0 198.96"/><rect class="cls-1" x="211.16" y="50.72" width="0.48" height="72.36" transform="translate(44.05 242.59) rotate(-65.28)"/><rect class="cls-1" x="174.42" y="74.07" width="5.55" height="0.25" transform="translate(26.12 192.85) rotate(-60.87)"/><polygon class="cls-1" points="178.46 72 111.69 48 111.85 47.55 178.62 71.55 178.46 72"/><rect class="cls-1" x="211.16" y="50.72" width="0.48" height="72.36" transform="translate(44.05 242.59) rotate(-65.28)"/><rect class="cls-1" x="174.42" y="74.07" width="5.55" height="0.25" transform="translate(26.12 192.85) rotate(-60.87)"/><polygon class="cls-1" points="178.46 72 111.69 48 111.85 47.55 178.62 71.55 178.46 72"/><polygon class="cls-1" points="0 191.68 14.16 199.32 14.32 199.02 0 191.3 0 191.68"/><rect class="cls-1" x="85.46" y="142.33" width="0.74" height="147" transform="translate(-143.85 250.49) rotate(-76.89)"/><polygon class="cls-1" points="118.58 248.14 118.44 247.79 157.35 232.33 157.49 232.68 118.58 248.14"/><polygon class="cls-1" points="0 191.16 118.35 248.3 118.67 247.63 0 190.33 0 191.16"/><polygon class="cls-1" points="118.38 248.25 14.11 199.46 14.38 198.88 118.64 247.68 118.38 248.25"/><polygon class="cls-1" points="118.79 248.07 118.23 247.86 155.25 150.71 155.8 150.92 118.79 248.07"/><rect class="cls-1" x="156.21" y="150.81" width="0.52" height="81.71" transform="translate(-4.57 3.82) rotate(-1.38)"/><rect class="cls-1" x="125.87" y="111.04" width="82.33" height="0.52" transform="translate(12.9 239.86) rotate(-73.51)"/><rect class="cls-1" x="125.87" y="111.04" width="82.33" height="0.52" transform="translate(12.9 239.86) rotate(-73.51)"/><polygon class="cls-1" points="155.66 151.07 155.38 150.56 244.13 101.78 244.41 102.29 155.66 151.07"/><polygon class="cls-1" points="155.76 150.88 155.28 150.75 175.6 76.55 176.08 76.69 155.76 150.88"/><rect class="cls-1" x="133.34" y="43.32" width="0.62" height="111.95" transform="translate(-28.18 60.13) rotate(-23.01)"/><rect class="cls-1" x="10.22" y="174.62" width="149.32" height="0.75" transform="translate(-52.04 36.86) rotate(-18.87)"/><polygon class="cls-1" points="155.42 151.11 52.13 114.58 52.34 114 155.63 150.53 155.42 151.11"/><polygon class="cls-1" points="118.17 248.13 51.9 114.46 52.57 114.13 118.85 247.8 118.17 248.13"/><polygon class="cls-1" points="0 170.66 52.44 114.49 52.03 114.1 0 169.84 0 170.66"/><polygon class="cls-1" points="52.35 114.63 52.12 113.97 178.43 71.44 178.65 72.1 52.35 114.63"/><polygon class="cls-1" points="52.35 114.63 52.12 113.97 178.43 71.44 178.65 72.1 52.35 114.63"/><polygon class="cls-1" points="0 113.72 52.23 114.63 52.24 113.96 0 113.04 0 113.72"/><rect class="cls-1" x="49.43" y="95.12" width="129.22" height="0.68" transform="translate(-22.88 37.4) rotate(-16.95)"/><polygon class="cls-1" points="0 96.06 52.11 114.65 52.37 113.94 0 95.26 0 96.06"/><polygon class="cls-1" points="52.44 114.48 52.04 114.11 111.57 47.59 111.97 47.95 52.44 114.48"/><polygon class="cls-1" points="14.5 199.28 13.99 199.05 51.98 114.18 52.49 114.41 14.5 199.28"/><polygon class="cls-1" points="118.6 248.23 28.25 277.07 28.08 276.54 118.42 247.7 118.6 248.23"/><polygon class="cls-1" points="0 326.86 28.41 276.94 27.93 276.67 0 325.74 0 326.86"/><polygon class="cls-1" points="28.29 277.14 28.05 276.47 157.3 232.17 157.54 232.84 28.29 277.14"/><polygon class="cls-1" points="0 214.57 27.9 276.92 28.44 276.69 0 213.13 0 214.57"/><polygon class="cls-1" points="0 258.25 27.96 277.11 28.38 276.5 0 257.36 0 258.25"/><polygon class="cls-1" points="0 279.36 28.19 277.11 28.14 276.5 0 278.75 0 279.36"/><polygon class="cls-1" points="28.42 276.76 27.92 276.85 13.99 199.21 14.49 199.12 28.42 276.76"/><polygon class="cls-1" points="225.28 174.8 155.44 151.05 155.6 150.59 225.44 174.34 225.28 174.8"/><rect class="cls-1" x="107.12" y="210.93" width="129.63" height="0.68" transform="translate(-89.46 134.68) rotate(-34.53)"/><polygon class="cls-1" points="157.59 232.71 157.24 232.3 225.18 174.37 225.54 174.78 157.59 232.71"/><polygon class="cls-1" points="225.07 174.7 178.26 71.9 178.83 71.64 225.65 174.44 225.07 174.7"/><polygon class="cls-1" points="225.07 174.7 178.26 71.9 178.83 71.64 225.65 174.44 225.07 174.7"/><polygon class="cls-1" points="225.6 174.63 225.12 174.51 244.03 101.97 244.51 102.09 225.6 174.63"/><rect class="cls-1" x="200.29" y="70.72" width="0.62" height="109.76" transform="translate(-35.09 104.02) rotate(-26.82)"/><path class="cls-1" d="M370.33,56.44l-60.7,22"/><rect class="cls-1" x="240.27" y="78.89" width="134.05" height="0.7" transform="translate(-8.64 109.09) rotate(-19.86)"/><rect class="cls-1" x="26.65" y="33.23" width="0.54" height="88.97" transform="translate(-39.44 29.13) rotate(-34.68)"/><polygon class="cls-1" points="0 60.3 1.98 41.17 1.25 41.1 0 53.16 0 60.3"/><polygon class="cls-1" points="111.75 48.08 1.59 41.45 1.63 40.83 111.79 47.46 111.75 48.08"/><path class="cls-1" d="M309.53,40.05l60.8,16.39"/><rect class="cls-1" x="325.87" y="-1.23" width="0.55" height="91.53" transform="translate(198.27 347.85) rotate(-74.92)"/><rect class="cls-1" x="177.25" y="103.22" width="152.81" height="0.77" transform="translate(63.45 300.82) rotate(-68.25)"/><rect class="cls-1" x="174.96" y="51.89" width="110.57" height="0.62" transform="translate(-3.56 84.95) rotate(-20.75)"/><rect class="cls-1" x="174.96" y="51.89" width="110.57" height="0.62" transform="translate(-3.56 84.95) rotate(-20.75)"/><rect class="cls-1" x="223.62" y="67.07" width="78.98" height="0.51" transform="translate(78.33 266.37) rotate(-61.48)"/><polygon class="cls-1" points="175.96 76.91 175.72 76.33 281.83 32.33 282.08 32.92 175.96 76.91"/><path class="cls-1" d="M113.83,47.11a2.16,2.16,0,1,1-2.72-1.4A2.16,2.16,0,0,1,113.83,47.11Z"/><path class="cls-1" d="M177.9,76a2.16,2.16,0,1,1-2.72-1.4A2.16,2.16,0,0,1,177.9,76Z"/><path class="cls-1" d="M16.3,198.5a2.16,2.16,0,1,1-2.72-1.39A2.16,2.16,0,0,1,16.3,198.5Z"/><path class="cls-1" d="M16.3,198.5a2.16,2.16,0,1,1-2.72-1.39A2.16,2.16,0,0,1,16.3,198.5Z"/><path class="cls-1" d="M177.9,76a2.16,2.16,0,1,1-2.72-1.4A2.16,2.16,0,0,1,177.9,76Z"/><path class="cls-1" d="M246.33,101.37a2.16,2.16,0,1,1-2.73-1.4A2.16,2.16,0,0,1,246.33,101.37Z"/><path class="cls-1" d="M113.83,47.11a2.16,2.16,0,1,1-2.72-1.4A2.16,2.16,0,0,1,113.83,47.11Z"/><path class="cls-1" d="M246.33,101.37a2.16,2.16,0,1,1-2.73-1.4A2.16,2.16,0,0,1,246.33,101.37Z"/><path class="cls-1" d="M16.3,198.5a2.16,2.16,0,1,1-2.72-1.39A2.16,2.16,0,0,1,16.3,198.5Z"/><path class="cls-1" d="M246.33,101.37a2.16,2.16,0,1,1-2.73-1.4A2.16,2.16,0,0,1,246.33,101.37Z"/><path class="cls-1" d="M180.6,71.11a2.16,2.16,0,1,1-2.72-1.4A2.16,2.16,0,0,1,180.6,71.11Z"/><path class="cls-1" d="M177.9,76a2.16,2.16,0,1,1-2.72-1.4A2.16,2.16,0,0,1,177.9,76Z"/><path class="cls-1" d="M180.6,71.11a2.16,2.16,0,1,1-2.72-1.4A2.16,2.16,0,0,1,180.6,71.11Z"/><path class="cls-1" d="M113.83,47.11a2.16,2.16,0,1,1-2.72-1.4A2.16,2.16,0,0,1,113.83,47.11Z"/><path class="cls-1" d="M180.6,71.11a2.16,2.16,0,1,1-2.72-1.4A2.16,2.16,0,0,1,180.6,71.11Z"/><path class="cls-1" d="M246.33,101.37a2.16,2.16,0,1,1-2.73-1.4A2.16,2.16,0,0,1,246.33,101.37Z"/><path class="cls-1" d="M180.6,71.11a2.16,2.16,0,1,1-2.72-1.4A2.16,2.16,0,0,1,180.6,71.11Z"/><path class="cls-1" d="M177.9,76a2.16,2.16,0,1,1-2.72-1.4A2.16,2.16,0,0,1,177.9,76Z"/><path class="cls-1" d="M180.6,71.11a2.16,2.16,0,1,1-2.72-1.4A2.16,2.16,0,0,1,180.6,71.11Z"/><path class="cls-1" d="M113.83,47.11a2.16,2.16,0,1,1-2.72-1.4A2.16,2.16,0,0,1,113.83,47.11Z"/><path class="cls-1" d="M180.6,71.11a2.16,2.16,0,1,1-2.72-1.4A2.16,2.16,0,0,1,180.6,71.11Z"/><path class="cls-1" d="M16.3,198.5a2.16,2.16,0,1,1-2.72-1.39A2.16,2.16,0,0,1,16.3,198.5Z"/><path class="cls-1" d="M16.3,198.5a2.16,2.16,0,1,1-2.72-1.39A2.16,2.16,0,0,1,16.3,198.5Z"/><path class="cls-1" d="M159.48,231.84a2.16,2.16,0,1,1-2.72-1.4A2.15,2.15,0,0,1,159.48,231.84Z"/><path class="cls-1" d="M159.48,231.84a2.16,2.16,0,1,1-2.72-1.4A2.15,2.15,0,0,1,159.48,231.84Z"/><path class="cls-1" d="M120.57,247.3a2.16,2.16,0,1,1-2.72-1.4A2.17,2.17,0,0,1,120.57,247.3Z"/><path class="cls-1" d="M120.57,247.3a2.16,2.16,0,1,1-2.72-1.4A2.17,2.17,0,0,1,120.57,247.3Z"/><path class="cls-1" d="M16.3,198.5a2.16,2.16,0,1,1-2.72-1.39A2.16,2.16,0,0,1,16.3,198.5Z"/><path class="cls-1" d="M120.57,247.3a2.16,2.16,0,1,1-2.72-1.4A2.17,2.17,0,0,1,120.57,247.3Z"/><path class="cls-1" d="M120.57,247.3a2.16,2.16,0,1,1-2.72-1.4A2.17,2.17,0,0,1,120.57,247.3Z"/><path class="cls-1" d="M157.58,150.15a2.16,2.16,0,1,1-2.72-1.39A2.16,2.16,0,0,1,157.58,150.15Z"/><path class="cls-1" d="M159.48,231.84a2.16,2.16,0,1,1-2.72-1.4A2.15,2.15,0,0,1,159.48,231.84Z"/><path class="cls-1" d="M157.58,150.15a2.16,2.16,0,1,1-2.72-1.39A2.16,2.16,0,0,1,157.58,150.15Z"/><path class="cls-1" d="M180.6,71.11a2.16,2.16,0,1,1-2.72-1.4A2.16,2.16,0,0,1,180.6,71.11Z"/><path class="cls-1" d="M157.58,150.15a2.16,2.16,0,1,1-2.72-1.39A2.16,2.16,0,0,1,157.58,150.15Z"/><path class="cls-1" d="M180.6,71.11a2.16,2.16,0,1,1-2.72-1.4A2.16,2.16,0,0,1,180.6,71.11Z"/><path class="cls-1" d="M157.58,150.15a2.16,2.16,0,1,1-2.72-1.39A2.16,2.16,0,0,1,157.58,150.15Z"/><path class="cls-1" d="M246.33,101.37a2.16,2.16,0,1,1-2.73-1.4A2.16,2.16,0,0,1,246.33,101.37Z"/><path class="cls-1" d="M157.58,150.15a2.16,2.16,0,1,1-2.72-1.39A2.16,2.16,0,0,1,157.58,150.15Z"/><path class="cls-1" d="M177.9,76a2.16,2.16,0,1,1-2.72-1.4A2.16,2.16,0,0,1,177.9,76Z"/><path class="cls-1" d="M157.58,150.15a2.16,2.16,0,1,1-2.72-1.39A2.16,2.16,0,0,1,157.58,150.15Z"/><path class="cls-1" d="M113.83,47.11a2.16,2.16,0,1,1-2.72-1.4A2.16,2.16,0,0,1,113.83,47.11Z"/><path class="cls-1" d="M157.58,150.15a2.16,2.16,0,1,1-2.72-1.39A2.16,2.16,0,0,1,157.58,150.15Z"/><path class="cls-1" d="M16.3,198.5a2.16,2.16,0,1,1-2.72-1.39A2.16,2.16,0,0,1,16.3,198.5Z"/><path class="cls-1" d="M157.58,150.15a2.16,2.16,0,1,1-2.72-1.39A2.16,2.16,0,0,1,157.58,150.15Z"/><path class="cls-1" d="M157.58,150.15a2.16,2.16,0,1,1-2.72-1.39A2.16,2.16,0,0,1,157.58,150.15Z"/><path class="cls-1" d="M54.3,113.63A2.16,2.16,0,1,1,50.18,115a2.16,2.16,0,0,1,4.12-1.33Z"/><path class="cls-1" d="M120.57,247.3a2.16,2.16,0,1,1-2.72-1.4A2.17,2.17,0,0,1,120.57,247.3Z"/><path class="cls-1" d="M54.3,113.63A2.16,2.16,0,1,1,50.18,115a2.16,2.16,0,0,1,4.12-1.33Z"/><path class="cls-1" d="M54.3,113.63A2.16,2.16,0,1,1,50.18,115a2.16,2.16,0,0,1,4.12-1.33Z"/><path class="cls-1" d="M180.6,71.11a2.16,2.16,0,1,1-2.72-1.4A2.16,2.16,0,0,1,180.6,71.11Z"/><path class="cls-1" d="M54.3,113.63A2.16,2.16,0,1,1,50.18,115a2.16,2.16,0,0,1,4.12-1.33Z"/><path class="cls-1" d="M180.6,71.11a2.16,2.16,0,1,1-2.72-1.4A2.16,2.16,0,0,1,180.6,71.11Z"/><path class="cls-1" d="M54.3,113.63A2.16,2.16,0,1,1,50.18,115a2.16,2.16,0,0,1,4.12-1.33Z"/><path class="cls-1" d="M54.3,113.63A2.16,2.16,0,1,1,50.18,115a2.16,2.16,0,0,1,4.12-1.33Z"/><path class="cls-1" d="M177.9,76a2.16,2.16,0,1,1-2.72-1.4A2.16,2.16,0,0,1,177.9,76Z"/><path class="cls-1" d="M54.3,113.63A2.16,2.16,0,1,1,50.18,115a2.16,2.16,0,0,1,4.12-1.33Z"/><path class="cls-1" d="M54.3,113.63A2.16,2.16,0,1,1,50.18,115a2.16,2.16,0,0,1,4.12-1.33Z"/><path class="cls-1" d="M113.83,47.11a2.16,2.16,0,1,1-2.72-1.4A2.16,2.16,0,0,1,113.83,47.11Z"/><path class="cls-1" d="M54.3,113.63A2.16,2.16,0,1,1,50.18,115a2.16,2.16,0,0,1,4.12-1.33Z"/><path class="cls-1" d="M16.3,198.5a2.16,2.16,0,1,1-2.72-1.39A2.16,2.16,0,0,1,16.3,198.5Z"/><path class="cls-1" d="M54.3,113.63A2.16,2.16,0,1,1,50.18,115a2.16,2.16,0,0,1,4.12-1.33Z"/><path class="cls-1" d="M120.57,247.3a2.16,2.16,0,1,1-2.72-1.4A2.17,2.17,0,0,1,120.57,247.3Z"/><path class="cls-1" d="M30.23,276.14a2.16,2.16,0,1,1-2.72-1.39A2.15,2.15,0,0,1,30.23,276.14Z"/><path class="cls-1" d="M30.23,276.14a2.16,2.16,0,1,1-2.72-1.39A2.15,2.15,0,0,1,30.23,276.14Z"/><path class="cls-1" d="M159.48,231.84a2.16,2.16,0,1,1-2.72-1.4A2.15,2.15,0,0,1,159.48,231.84Z"/><path class="cls-1" d="M30.23,276.14a2.16,2.16,0,1,1-2.72-1.39A2.15,2.15,0,0,1,30.23,276.14Z"/><path class="cls-1" d="M30.23,276.14a2.16,2.16,0,1,1-2.72-1.39A2.15,2.15,0,0,1,30.23,276.14Z"/><path class="cls-1" d="M30.23,276.14a2.16,2.16,0,1,1-2.72-1.39A2.15,2.15,0,0,1,30.23,276.14Z"/><path class="cls-1" d="M30.23,276.14a2.16,2.16,0,1,1-2.72-1.39A2.15,2.15,0,0,1,30.23,276.14Z"/><path class="cls-1" d="M16.3,198.5a2.16,2.16,0,1,1-2.72-1.39A2.16,2.16,0,0,1,16.3,198.5Z"/><path class="cls-1" d="M30.23,276.14a2.16,2.16,0,1,1-2.72-1.39A2.15,2.15,0,0,1,30.23,276.14Z"/><path class="cls-1" d="M157.58,150.15a2.16,2.16,0,1,1-2.72-1.39A2.16,2.16,0,0,1,157.58,150.15Z"/><path class="cls-1" d="M227.42,173.91a2.16,2.16,0,1,1-2.72-1.4A2.15,2.15,0,0,1,227.42,173.91Z"/><path class="cls-1" d="M120.57,247.3a2.16,2.16,0,1,1-2.72-1.4A2.17,2.17,0,0,1,120.57,247.3Z"/><path class="cls-1" d="M227.42,173.91a2.16,2.16,0,1,1-2.72-1.4A2.15,2.15,0,0,1,227.42,173.91Z"/><path class="cls-1" d="M159.48,231.84a2.16,2.16,0,1,1-2.72-1.4A2.15,2.15,0,0,1,159.48,231.84Z"/><path class="cls-1" d="M227.42,173.91a2.16,2.16,0,1,1-2.72-1.4A2.15,2.15,0,0,1,227.42,173.91Z"/><path class="cls-1" d="M180.6,71.11a2.16,2.16,0,1,1-2.72-1.4A2.16,2.16,0,0,1,180.6,71.11Z"/><path class="cls-1" d="M227.42,173.91a2.16,2.16,0,1,1-2.72-1.4A2.15,2.15,0,0,1,227.42,173.91Z"/><path class="cls-1" d="M180.6,71.11a2.16,2.16,0,1,1-2.72-1.4A2.16,2.16,0,0,1,180.6,71.11Z"/><path class="cls-1" d="M227.42,173.91a2.16,2.16,0,1,1-2.72-1.4A2.15,2.15,0,0,1,227.42,173.91Z"/><path class="cls-1" d="M246.33,101.37a2.16,2.16,0,1,1-2.73-1.4A2.16,2.16,0,0,1,246.33,101.37Z"/><path class="cls-1" d="M227.42,173.91a2.16,2.16,0,1,1-2.72-1.4A2.15,2.15,0,0,1,227.42,173.91Z"/><path class="cls-1" d="M177.9,76a2.16,2.16,0,1,1-2.72-1.4A2.16,2.16,0,0,1,177.9,76Z"/><path class="cls-1" d="M227.42,173.91a2.16,2.16,0,1,1-2.72-1.4A2.15,2.15,0,0,1,227.42,173.91Z"/><path class="cls-1" d="M246.33,101.37a2.16,2.16,0,1,1-2.73-1.4A2.16,2.16,0,0,1,246.33,101.37Z"/><path class="cls-1" d="M372.39,55.78a2.16,2.16,0,1,1-2.73-1.4A2.16,2.16,0,0,1,372.39,55.78Z"/><path class="cls-1" d="M54.3,113.63A2.16,2.16,0,1,1,50.18,115a2.16,2.16,0,0,1,4.12-1.33Z"/><path class="cls-1" d="M0,42.58a2.16,2.16,0,1,0,1-3.5A2.13,2.13,0,0,0,0,39.7Z"/><path class="cls-1" d="M0,42.58a2.16,2.16,0,1,0,1-3.5A2.13,2.13,0,0,0,0,39.7Z"/><path class="cls-1" d="M0,42.58a2.16,2.16,0,1,0,1-3.5A2.13,2.13,0,0,0,0,39.7Z"/><path class="cls-1" d="M0,42.58a2.16,2.16,0,1,0,1-3.5A2.13,2.13,0,0,0,0,39.7Z"/><path class="cls-1" d="M113.83,47.11a2.16,2.16,0,1,1-2.72-1.4A2.16,2.16,0,0,1,113.83,47.11Z"/><path class="cls-1" d="M0,42.58a2.16,2.16,0,1,0,1-3.5A2.13,2.13,0,0,0,0,39.7Z"/><path class="cls-1" d="M372.39,55.78a2.16,2.16,0,1,1-2.73-1.4A2.16,2.16,0,0,1,372.39,55.78Z"/><path class="cls-1" d="M284,32a2.16,2.16,0,1,1-2.73-1.4A2.16,2.16,0,0,1,284,32Z"/><path class="cls-1" d="M227.42,173.91a2.16,2.16,0,1,1-2.72-1.4A2.15,2.15,0,0,1,227.42,173.91Z"/><path class="cls-1" d="M284,32a2.16,2.16,0,1,1-2.73-1.4A2.16,2.16,0,0,1,284,32Z"/><path class="cls-1" d="M180.6,71.11a2.16,2.16,0,1,1-2.72-1.4A2.16,2.16,0,0,1,180.6,71.11Z"/><path class="cls-1" d="M284,32a2.16,2.16,0,1,1-2.73-1.4A2.16,2.16,0,0,1,284,32Z"/><path class="cls-1" d="M180.6,71.11a2.16,2.16,0,1,1-2.72-1.4A2.16,2.16,0,0,1,180.6,71.11Z"/><path class="cls-1" d="M284,32a2.16,2.16,0,1,1-2.73-1.4A2.16,2.16,0,0,1,284,32Z"/><path class="cls-1" d="M246.33,101.37a2.16,2.16,0,1,1-2.73-1.4A2.16,2.16,0,0,1,246.33,101.37Z"/><path class="cls-1" d="M284,32a2.16,2.16,0,1,1-2.73-1.4A2.16,2.16,0,0,1,284,32Z"/><path class="cls-1" d="M177.9,76a2.16,2.16,0,1,1-2.72-1.4A2.16,2.16,0,0,1,177.9,76Z"/><path class="cls-1" d="M284,32a2.16,2.16,0,1,1-2.73-1.4A2.16,2.16,0,0,1,284,32Z"/></g></g></svg>